<?xml version="1.0" encoding="UTF-8"?>
<!DOCTYPE svg PUBLIC "-//W3C//DTD SVG 1.1//EN" "http://www.w3.org/Graphics/SVG/1.1/DTD/svg11.dtd">
<!-- Creator: CorelDRAW -->
<svg xmlns="http://www.w3.org/2000/svg" xml:space="preserve" width="2000px" height="2000px" version="1.1" style="shape-rendering:geometricPrecision; text-rendering:geometricPrecision; image-rendering:optimizeQuality; fill-rule:evenodd; clip-rule:evenodd"
viewBox="0 0 1978.55 1978.55"
 xmlns:xlink="http://www.w3.org/1999/xlink">
 <defs>
  <style type="text/css">
   <![CDATA[
    .fil12 {fill:#361C23}
    .fil48 {fill:#4DBAAE}
    .fil39 {fill:url(#id0)}
    .fil20 {fill:url(#id1)}
    .fil23 {fill:url(#id2)}
    .fil43 {fill:url(#id3)}
    .fil32 {fill:url(#id4)}
    .fil18 {fill:url(#id5)}
    .fil42 {fill:url(#id6)}
    .fil29 {fill:url(#id7)}
    .fil33 {fill:url(#id8)}
    .fil19 {fill:url(#id9)}
    .fil8 {fill:url(#id10)}
    .fil47 {fill:url(#id11)}
    .fil22 {fill:url(#id12)}
    .fil10 {fill:url(#id13)}
    .fil30 {fill:url(#id14)}
    .fil21 {fill:url(#id15)}
    .fil16 {fill:url(#id16)}
    .fil46 {fill:url(#id17)}
    .fil41 {fill:url(#id18)}
    .fil4 {fill:url(#id19)}
    .fil26 {fill:url(#id20)}
    .fil11 {fill:url(#id21)}
    .fil36 {fill:url(#id22)}
    .fil40 {fill:url(#id23)}
    .fil44 {fill:url(#id24)}
    .fil17 {fill:url(#id25)}
    .fil27 {fill:url(#id26)}
    .fil35 {fill:url(#id27)}
    .fil37 {fill:url(#id28)}
    .fil9 {fill:url(#id29)}
    .fil3 {fill:url(#id30)}
    .fil34 {fill:url(#id31)}
    .fil25 {fill:url(#id32)}
    .fil38 {fill:url(#id33)}
    .fil24 {fill:url(#id34)}
    .fil28 {fill:url(#id35)}
    .fil31 {fill:url(#id36)}
    .fil45 {fill:url(#id37)}
    .fil6 {fill:url(#id38)}
    .fil14 {fill:url(#id39)}
    .fil1 {fill:url(#id40)}
    .fil15 {fill:url(#id41)}
    .fil5 {fill:url(#id42)}
    .fil13 {fill:url(#id43)}
    .fil2 {fill:url(#id44)}
    .fil7 {fill:url(#id45)}
    .fil0 {fill:url(#id46);fill-rule:nonzero}
   ]]>
  </style>
  <linearGradient id="id0" gradientUnits="userSpaceOnUse" x1="922.16" y1="1298.59" x2="559.39" y2="1943.68">
   <stop offset="0" style="stop-opacity:1; stop-color:#CF5463"/>
   <stop offset="0.301961" style="stop-opacity:1; stop-color:#A02A5A"/>
   <stop offset="0.6" style="stop-opacity:1; stop-color:#5C174A"/>
   <stop offset="1" style="stop-opacity:1; stop-color:#3D1145"/>
  </linearGradient>
  <linearGradient id="id1" gradientUnits="userSpaceOnUse" x1="1406.99" y1="1182.5" x2="1107.18" y2="1932.78">
   <stop offset="0" style="stop-opacity:1; stop-color:#F7BC1A"/>
   <stop offset="0.301961" style="stop-opacity:1; stop-color:#F3755E"/>
   <stop offset="0.6" style="stop-opacity:1; stop-color:#B73F66"/>
   <stop offset="1" style="stop-opacity:1; stop-color:#6D1A4D"/>
  </linearGradient>
  <linearGradient id="id2" gradientUnits="userSpaceOnUse" xlink:href="#id1" x1="1734.95" y1="1188.98" x2="1422.08" y2="1926.31">
  </linearGradient>
  <linearGradient id="id3" gradientUnits="userSpaceOnUse" xlink:href="#id0" x1="790.36" y1="1302.96" x2="422.42" y2="1939.3">
  </linearGradient>
  <linearGradient id="id4" gradientUnits="userSpaceOnUse" xlink:href="#id0" x1="928.71" y1="1226.37" x2="711.85" y2="2015.9">
  </linearGradient>
  <linearGradient id="id5" gradientUnits="userSpaceOnUse" xlink:href="#id1" x1="1575.98" y1="1245.42" x2="1184.34" y2="1869.87">
  </linearGradient>
  <linearGradient id="id6" gradientUnits="userSpaceOnUse" xlink:href="#id0" x1="542.04" y1="1220.19" x2="347.46" y2="2022.07">
  </linearGradient>
  <linearGradient id="id7" gradientUnits="userSpaceOnUse" xlink:href="#id1" x1="1588.82" y1="1261.73" x2="1183.01" y2="1853.56">
  </linearGradient>
  <linearGradient id="id8" gradientUnits="userSpaceOnUse" xlink:href="#id0" x1="790.36" y1="1302.96" x2="422.42" y2="1939.3">
  </linearGradient>
  <linearGradient id="id9" gradientUnits="userSpaceOnUse" xlink:href="#id1" x1="1578.75" y1="1241.96" x2="1190.53" y2="1873.33">
  </linearGradient>
  <linearGradient id="id10" gradientUnits="userSpaceOnUse" x1="1372.8" y1="1996.5" x2="1708.72" y2="1135.86">
   <stop offset="0" style="stop-opacity:1; stop-color:#3D1145"/>
   <stop offset="0.368627" style="stop-opacity:1; stop-color:#982255"/>
   <stop offset="0.6" style="stop-opacity:1; stop-color:#C2496C"/>
   <stop offset="1" style="stop-opacity:1; stop-color:#FB7C5C"/>
  </linearGradient>
  <linearGradient id="id11" gradientUnits="userSpaceOnUse" xlink:href="#id0" x1="457.81" y1="1228.12" x2="235.15" y2="2014.14">
  </linearGradient>
  <linearGradient id="id12" gradientUnits="userSpaceOnUse" xlink:href="#id1" x1="1588.82" y1="1261.73" x2="1183.01" y2="1853.56">
  </linearGradient>
  <linearGradient id="id13" gradientUnits="userSpaceOnUse" x1="614.06" y1="998.39" x2="600.89" y2="999.29">
   <stop offset="0" style="stop-opacity:1; stop-color:#FD7F78"/>
   <stop offset="0.211765" style="stop-opacity:1; stop-color:#9A4E4E"/>
   <stop offset="1" style="stop-opacity:1; stop-color:#361C23"/>
  </linearGradient>
  <linearGradient id="id14" gradientUnits="userSpaceOnUse" xlink:href="#id0" x1="824.28" y1="1276.46" x2="492.43" y2="1965.8">
  </linearGradient>
  <linearGradient id="id15" gradientUnits="userSpaceOnUse" xlink:href="#id1" x1="1588.82" y1="1261.73" x2="1183.01" y2="1853.56">
  </linearGradient>
  <linearGradient id="id16" gradientUnits="userSpaceOnUse" xlink:href="#id1" x1="1588.82" y1="1261.73" x2="1183.01" y2="1853.56">
  </linearGradient>
  <linearGradient id="id17" gradientUnits="userSpaceOnUse" xlink:href="#id0" x1="790.36" y1="1302.96" x2="422.42" y2="1939.3">
  </linearGradient>
  <linearGradient id="id18" gradientUnits="userSpaceOnUse" xlink:href="#id0" x1="790.36" y1="1302.96" x2="422.42" y2="1939.3">
  </linearGradient>
  <linearGradient id="id19" gradientUnits="userSpaceOnUse" x1="303.93" y1="1205.56" x2="1768.62" y2="1129.61">
   <stop offset="0" style="stop-opacity:1; stop-color:#521F4D"/>
   <stop offset="1" style="stop-opacity:1; stop-color:#A84178"/>
  </linearGradient>
  <linearGradient id="id20" gradientUnits="userSpaceOnUse" xlink:href="#id1" x1="1588.82" y1="1261.73" x2="1183.01" y2="1853.56">
  </linearGradient>
  <linearGradient id="id21" gradientUnits="userSpaceOnUse" xlink:href="#id13" x1="887.93" y1="920.62" x2="870.39" y2="918.3">
  </linearGradient>
  <linearGradient id="id22" gradientUnits="userSpaceOnUse" xlink:href="#id0" x1="790.36" y1="1302.96" x2="422.42" y2="1939.3">
  </linearGradient>
  <linearGradient id="id23" gradientUnits="userSpaceOnUse" xlink:href="#id0" x1="823.57" y1="1248.3" x2="545.85" y2="1993.96">
  </linearGradient>
  <linearGradient id="id24" gradientUnits="userSpaceOnUse" xlink:href="#id0" x1="441.51" y1="1247.13" x2="166.52" y2="1995.13">
  </linearGradient>
  <linearGradient id="id25" gradientUnits="userSpaceOnUse" xlink:href="#id1" x1="1517.56" y1="1226.33" x2="1146.79" y2="1888.96">
  </linearGradient>
  <linearGradient id="id26" gradientUnits="userSpaceOnUse" xlink:href="#id1" x1="1588.82" y1="1261.73" x2="1183.01" y2="1853.56">
  </linearGradient>
  <linearGradient id="id27" gradientUnits="userSpaceOnUse" xlink:href="#id0" x1="790.36" y1="1302.96" x2="422.42" y2="1939.3">
  </linearGradient>
  <linearGradient id="id28" gradientUnits="userSpaceOnUse" xlink:href="#id0" x1="873.43" y1="1257.95" x2="574.85" y2="1984.31">
  </linearGradient>
  <linearGradient id="id29" gradientUnits="userSpaceOnUse" xlink:href="#id13" x1="448.57" y1="770.99" x2="422.85" y2="767.61">
  </linearGradient>
  <linearGradient id="id30" gradientUnits="userSpaceOnUse" x1="283.21" y1="1120.37" x2="1784.16" y2="1044.27">
   <stop offset="0" style="stop-opacity:0.686275; stop-color:#661A5E"/>
   <stop offset="1" style="stop-opacity:0.898039; stop-color:#FD6A66"/>
  </linearGradient>
  <linearGradient id="id31" gradientUnits="userSpaceOnUse" xlink:href="#id0" x1="854.86" y1="1266.71" x2="539.57" y2="1975.56">
  </linearGradient>
  <linearGradient id="id32" gradientUnits="userSpaceOnUse" xlink:href="#id1" x1="1640.66" y1="1172.16" x2="1364.23" y2="1943.13">
  </linearGradient>
  <linearGradient id="id33" gradientUnits="userSpaceOnUse" xlink:href="#id0" x1="790.36" y1="1302.96" x2="422.42" y2="1939.3">
  </linearGradient>
  <linearGradient id="id34" gradientUnits="userSpaceOnUse" xlink:href="#id1" x1="1547.53" y1="1213.22" x2="1194.19" y2="1902.06">
  </linearGradient>
  <linearGradient id="id35" gradientUnits="userSpaceOnUse" xlink:href="#id1" x1="1700.11" y1="1329" x2="968.03" y2="2076.86">
  </linearGradient>
  <linearGradient id="id36" gradientUnits="userSpaceOnUse" xlink:href="#id0" x1="1012.59" y1="1245.49" x2="741.52" y2="1996.78">
  </linearGradient>
  <linearGradient id="id37" gradientUnits="userSpaceOnUse" xlink:href="#id0" x1="790.36" y1="1302.96" x2="422.42" y2="1939.3">
  </linearGradient>
  <radialGradient id="id38" gradientUnits="userSpaceOnUse" gradientTransform="matrix(0.643984 0.87259 -9.7657E-001 0.663669 887 -254)" cx="561.73" cy="703.2" r="225.71" fx="561.73" fy="703.2">
   <stop offset="0" style="stop-opacity:1; stop-color:#1A0125"/>
   <stop offset="0.780392" style="stop-opacity:1; stop-color:#6E1A2F"/>
   <stop offset="1" style="stop-opacity:1; stop-color:#C23239"/>
  </radialGradient>
  <radialGradient id="id39" gradientUnits="userSpaceOnUse" gradientTransform="matrix(2.23753 -1.16771E+000 -3.29558E+000 -1.73136E+000 3275 4438)" xlink:href="#id38" cx="785.73" cy="1288.94" r="114.03" fx="785.73" fy="1288.94">
  </radialGradient>
  <radialGradient id="id40" gradientUnits="userSpaceOnUse" gradientTransform="matrix(-2.87754E-001 -1.13384E+000 1.08383 -2.67776E-001 1016 3350)" cx="1719.22" cy="1105.07" r="256.35" fx="1719.22" fy="1105.07">
   <stop offset="0" style="stop-opacity:1; stop-color:#FAE33A"/>
   <stop offset="0.678431" style="stop-opacity:0.521569; stop-color:#FAE33A"/>
   <stop offset="1" style="stop-opacity:0.0392157; stop-color:#FAE33A"/>
  </radialGradient>
  <radialGradient id="id41" gradientUnits="userSpaceOnUse" gradientTransform="matrix(3.047 -2.17287E+000 -4.63936E+000 -1.2255E+000 4631 4105)" xlink:href="#id38" cx="597" cy="1261.69" r="68.9" fx="597" fy="1261.69">
  </radialGradient>
  <radialGradient id="id42" gradientUnits="userSpaceOnUse" gradientTransform="matrix(0.806564 0.847677 -1.08195E+000 0.938491 335 -358)" cx="439.49" cy="230.72" r="592.39" fx="439.49" fy="230.72">
   <stop offset="0" style="stop-opacity:1; stop-color:#1A0125"/>
   <stop offset="0.909804" style="stop-opacity:1; stop-color:#6E1A2F"/>
   <stop offset="1" style="stop-opacity:1; stop-color:#C23239"/>
  </radialGradient>
  <radialGradient id="id43" gradientUnits="userSpaceOnUse" gradientTransform="matrix(3.92689 -2.92983E+000 4.41018 2.01358 -6589 -475)" cx="288.44" cy="1302.54" r="168.65" fx="288.44" fy="1302.54">
   <stop offset="0" style="stop-opacity:1; stop-color:#1A0125"/>
   <stop offset="0.839216" style="stop-opacity:1; stop-color:#6E1A2F"/>
   <stop offset="1" style="stop-opacity:1; stop-color:#C23239"/>
  </radialGradient>
  <radialGradient id="id44" gradientUnits="userSpaceOnUse" gradientTransform="matrix(-3.27711E-001 -1.66073E+000 1.48238 -1.61589E-001 508 4273)" cx="1729.36" cy="1206.34" r="236.7" fx="1729.36" fy="1206.34">
   <stop offset="0" style="stop-opacity:1; stop-color:#FBB744"/>
   <stop offset="1" style="stop-opacity:1; stop-color:#FAE33A"/>
  </radialGradient>
  <radialGradient id="id45" gradientUnits="userSpaceOnUse" gradientTransform="matrix(0.641744 0.872589 -9.73173E-001 0.663669 828 -580)" xlink:href="#id38" cx="869.41" cy="530.59" r="294.04" fx="869.41" fy="530.59">
  </radialGradient>
  <linearGradient id="id46" gradientUnits="userSpaceOnUse" x1="1272.16" y1="-54.68" x2="1615.73" y2="1322.99">
   <stop offset="0" style="stop-opacity:1; stop-color:#432B6E"/>
   <stop offset="0.239216" style="stop-opacity:1; stop-color:#893C6D"/>
   <stop offset="0.521569" style="stop-opacity:1; stop-color:#D04D6B"/>
   <stop offset="0.721569" style="stop-opacity:1; stop-color:#FC7061"/>
   <stop offset="1" style="stop-opacity:1; stop-color:#FD9C56"/>
  </linearGradient>
 </defs>
 <g id="Layer_x0020_1">
  <metadata id="CorelCorpID_0Corel-Layer"/>
  <g id="_42487728896">
   <g>
    <path id="path517" class="fil0" d="M1512.97 1828.41c463.44,-289.23 604.66,-899.39 315.44,-1362.83 -289.23,-463.44 -899.39,-604.67 -1362.83,-315.44 -463.44,289.23 -604.67,899.39 -315.44,1362.83 289.23,463.44 899.39,604.67 1362.83,315.44z"/>
    <path class="fil1" d="M1717.21 1461.12c-196.64,0 -356.05,-159.41 -356.05,-356.05 0,-196.64 159.41,-356.05 356.05,-356.05 98.48,0 187.61,39.99 252.07,104.6 26.87,194.98 -5.43,393.4 -90.73,568.92 -48.44,24.66 -103.26,38.58 -161.34,38.58z"/>
    <circle class="fil2" cx="1717.21" cy="1105.07" r="202.54"/>
    <path class="fil3" d="M1968.87 1125.68l-6.58 0 0 -5.13 -40.61 0 0 21.5 -4.47 0 0 83.91 -9.32 0 0 -8.53 -16.23 0 0 -90.49 -21.32 0 0 -7.11 -50.58 0 0 58.63 -67.28 0 0 -9.83 0 -231.69 -93.9 0 0 239.71 -16.22 0 0 4.1 -17.37 0 0 8.31 -9.55 0 0 8.18 -14.02 0 0 5.09 -14.01 0 0 -62.02 -6.58 0 0 -11.17 -42.42 0 0 62.02 -10.86 0 0 -5.14 -9.38 0 0 8.52 -8.99 0 0 -136.5 -10.88 -128.88 -30.24 4.81 -42.96 0 -4.48 75.75 -33.16 0 0 13.2 -1.25 0 0 52.41 -75.44 0 0 -183.08 -46.98 -5.96 -42.2 9.47 0 98.52 -11.36 0 0 42.55 -59.3 -3.28 -0.6 4.95 -17.11 0 0 15.31 -6.62 0 0 10.12 -45.76 2.55 0 -11.4 -33.81 -0.79 -0.2 -105.78 -11.9 0 0.4 105.71 0 4.21 -31.92 -5.44 -43.96 3.9 0 73.14 -30.48 0 0 -5.51 16.33 0 0 -6.62 -24.45 0 0 -14.53 -49.26 0 -36.49 10.02 0 51.45 -26.65 0 0 -151.01 -53.6 19.52 -34.21 0.67 0 156.66 -19.35 0 0 -169.21 -22.03 -0.89 -44.35 8.08 0 6.71 -3.09 0 1.46 147.77 -11.08 0.65 0 -94.13 -41.96 0 0 23.56 -36.96 0 0 -12.64 -12.8 0 0 -28.18 -42.92 0 0 40.38 -19.2 0 0 6.92 -14.52 0 0 -4.02 -14.16 0 0 -6.21 -5.63 0 0 6.42 -20.88 0 0 25.18 -39.9 0 0 14.84 -60.36 0 0 -159.9 -10.03 0 0 -4.23 -36.53 0 0 -17.69 -86.81 0 -11.91 3.05 0 145.66 -53.7 0 0 7.51 -42 0 0 24.03 -18.03 0 0 -6.31 -29.54 0 0 -19.97 -14.69 0c18.74,132.76 64.86,263.84 140.42,384.91 289.23,463.44 899.38,604.67 1362.82,315.44 258.61,-161.39 416.83,-422.73 455.96,-702.73z"/>
    <path class="fil4" d="M1389.4 1173.75l-82.47 0 0 -132.32 -19.29 0 0 -8.05 -73.06 0 0 9.32 -4.45 0 0 57.27 -32.72 0 0 70.61 -49.96 0 0 45.35 -149.5 0 0 -48.21 -35.13 0 0 52.82 -79.04 0 0 -115.04 -28.73 7.7 0 69.88 -59.42 0 0 39.48 -20.71 0 0 -32.11 -29.82 0 0 12.99 -30.61 0 0 -20.02 -55.77 0 0 15.5 -65.62 0 0 -67.66 -68.94 0 0 75.29 -17.26 0 0 -39.93 -68.65 0 0 47.2 -19.49 0 0 -65.98 -25.49 0 0 39.44 -136.39 0 0 -168.98 -95.35 0 0 134.07 -52.09 0 0 20.29 -22.27 0 0 -11.45 -38.02 0 -14.23 0c5.99,34.14 13.71,67.68 23.09,100.52l1902.52 0c1.41,-4.93 2.74,-9.91 4.07,-14.87l-14.41 0 0 -15.4 -29.34 0 0 13.75 -37.41 0 -0.27 -34.8 -27.11 0.23 0.52 -10.24 -19.28 -0.16 0 -10.82 -80.38 0 0 -9.52 -61.6 0 0 14.28 -30.41 0 0 11.1 -23.53 0 0 39.4 -56.83 0 -81.7 0 0 -215.68 -3.84 0 0 -11.27 -19.33 0 0 -8.01 -70.96 0 0 164.03 0.68 0z"/>
    <path class="fil5" d="M470.37 353.98c2.39,-23.34 1.57,-8.35 4.31,-35.58 -12.19,4.4 -12.65,17.17 -17.59,24.59 -12.91,-2.92 1.94,-14.94 -12.73,-18.27 -4.96,7.44 -7.85,30.65 -9.64,43.38l-4.95 -6.6c-1.39,-3.78 0.04,-5.3 -0.62,-9.85 -0.37,-2.55 -1.53,-6.07 -2.24,-8.63 -0.98,-3.51 -0.68,-4.82 -2.97,-7.05 -3.37,5.06 -10.07,46.38 -11.43,56.07 -6.69,-1.09 -6.17,-2.67 -5.87,-9 0.25,-5.22 0.03,-8.01 0.88,-14.07 -3.42,-1.32 -4.19,-2.42 -6.44,-4.43 -0.83,5.89 -2.58,9.6 -3.6,17.14l-4.84 34.68c-1.4,8.34 -1.87,11.4 -5.45,13.32 0.83,-7 -1.03,-9.38 -1.83,-15.13 -0.85,-6.09 1.81,-11.38 -4.81,-12.88 -1.94,2.82 -1.02,-1.12 -1.65,3.3 -2.21,15.7 -5.26,50.8 -10.09,63.32 -6.61,-5.92 -7.79,-31.93 -14.58,-38.55 -8.79,22.72 -8.01,56.75 -12.92,74.66 -1.17,4.26 -1.67,4.71 -5.39,5.16 -3.79,-3.69 -2.08,-3.55 -2.55,-9.42 -0.29,-3.65 -1.62,-5.44 -2.57,-9.42 -1.37,-5.69 -0.35,-15.59 -6.16,-18.06 -3.21,4.82 -8.58,48.78 -8.63,54.99 -0.05,5.02 0.62,10.22 -0.3,16.74l-5.77 -0.82c0.18,-3.18 -0.69,-12.87 -1.15,-15.64 -0.85,-5.17 -1.71,-8.35 -5.66,-11.21 -0.85,5.2 -1.8,4.42 -2.62,10.22l-10.1 63.33c-2.6,-2.54 -2.26,-4.63 -3.01,-9.09l-5.11 -50.83c0.14,-21.39 0.64,-46.17 6.32,-67.17 1.62,-5.97 4.54,-14.57 5.27,-20.61 0.94,-7.77 3.64,-11.65 6.5,-18.56 10.88,-26.14 28.18,-58.42 49.52,-78.11 10.65,-9.83 19.47,-22.86 29.36,-33.63 3.16,-3.43 2.59,-3.44 3.4,-9.19 -6.51,0.79 -14.51,9.05 -20.43,12.6 -6.35,3.8 -14.45,7.2 -19.59,12.35 -4.11,4.12 -6.26,6.75 -13.82,6.31 2.83,-12.52 12.5,-12.22 15.12,-23.76 -7.87,0.7 -21.31,12.67 -28.06,17.55 -3.07,2.22 -4.13,2.32 -7.09,4.29 -2.76,1.84 -3.64,2.94 -6.76,4.72 -6.61,3.76 -7.92,5.07 -12.75,10.47l-6.93 -0.98c2.85,-4.27 0.57,-4.58 4.33,-9.32 5.72,-7.21 10.9,-14.3 14.4,-23.35 -5.14,1.63 -5.48,1.16 -10.29,4.15 -12.41,7.72 -40.39,24.92 -49.89,32.39 -3.45,2.72 -4.23,4.59 -9.14,4.31 -0.23,-0.68 -0.41,-1.04 -0.56,-1.23 30.15,-35.94 63.11,-69.99 98.8,-101.84 4.85,-0.51 8.71,-0.71 13.78,-1.66 10,-1.86 32.73,0 45.49,0.12 4.46,0.04 7.66,0.63 11.38,0.04 7.8,-1.21 4.4,-3.97 19.32,-3.12 -4.06,-4.67 -9.66,-6.37 -16.65,-7.13 -5.51,-0.6 -5.45,0.21 -10.56,-0.22l-20.62 -4.09c8.14,-11.24 15.6,-1.21 18.94,-9.11 -7.8,-1.1 -17.92,-2.05 -27.77,-3.3 16.79,-13.7 34.2,-26.87 52.08,-39.59 8.84,6.01 30.15,23.37 34.9,30.3 3.86,5.65 2.67,7.61 10.52,10.64 1.49,-10.54 -3.12,-20.92 -3.51,-31.4 -0.69,-18.33 -0.57,-27.3 0.56,-38.12 2.58,-1.65 5.12,-3.33 7.72,-4.96 11.49,-7.17 23.09,-14 34.76,-20.64 -3.23,6.23 -6.73,12.72 -7.7,19.56 11.87,1.4 5.75,-8.19 17.79,-9.26 -1.4,9.92 -5.46,15.98 -9.86,22.53 -3.44,5.14 -2.43,5.9 -4.9,11.32 -3.19,6.98 -4.05,2.13 -3.29,10.69 4.26,-2.06 8.41,-7.79 13.01,-8.76 -1.44,10.2 -3.45,7.35 -6.3,14.92 -3.28,8.68 -5.59,10.97 -6.98,20.88 6.61,0.78 3.86,-0.05 8.57,-2.33 -2.97,21.01 -8.83,10.82 -7.37,27.22 3.28,-1.19 4.61,-1.35 7.34,-3.96l4.23 -5.35c2.6,-2.81 3.07,-2.28 5.49,-6.41 1.74,-2.99 2.35,-4.3 3.95,-7.08 4.81,-8.36 12.49,-16.77 19.01,-24.08 12.17,-13.66 28.75,-31.62 44.42,-41.04 29.02,-17.42 38.42,-22.55 70.54,-31.02 7.62,-2.01 26.9,-5.31 33.33,-5.06 6.06,0.24 14.68,-0.66 17.35,1.11 -1.55,2.92 0.03,1.86 -4.74,3.3l-30.78 7.08c-4.04,0.91 -5.93,3.63 -9.13,5.7 5.1,1.97 6.77,3.31 13.53,4.26 -6.04,3.92 -13.92,5.98 -20.72,8.11 -9.36,2.94 -14.53,-0.6 -21.45,7.14 6.34,4.21 11.96,4.04 21.6,5.39 -1.75,3.32 -8.24,4.46 -12.24,5.66l-12.62 3.8c-6.91,2.49 -19.67,2.97 -22.74,10.91 6.29,2.43 11.5,2.8 19.46,3.92 -4.78,5.34 -13.46,6.62 -21.62,8.28 -7,1.42 -16.74,3.68 -20.71,8.12 5.39,2.09 15.75,2.72 19.3,5.08 -1.9,3.29 0.38,1.62 -5.16,2.74l-15.48 4.11c-5.6,1.54 -17.28,2.31 -20.22,7.4 9.57,3.7 22.23,0.75 29.73,-4.36 5.03,-3.42 5.43,-2.29 11.15,-4.38l34.79 -9.97 26.57 -1.72c13.84,-1.13 44.67,3.08 59.02,7.34 5.19,1.54 10.03,1.45 14.88,3.24 6.47,2.38 19.96,6.44 23.04,10.5 1.9,2.51 3.8,6.91 4.1,10.33 -5.2,-0.73 -12.24,-1.32 -17.15,-2.56 -5.12,-1.29 -14.41,-6.44 -20.78,-3.96 0.99,8.11 6.78,6.08 12.72,10.03 -2.46,3.4 -1.8,3.44 -6.59,3.6 -9.83,0.32 -16.77,-3.36 -27.37,-4.85 -5.43,-0.76 -9.33,-1.99 -14.18,0.36 2.73,5.64 5.99,5.48 11.47,8.9 4.33,2.69 10.05,4.55 10.66,9.52 -11.9,-0.68 -25.11,-1.15 -36.91,-4.2 -11.48,-2.96 -16.16,-1.92 -28.06,-2.6 2.83,5.27 15.21,10.65 21.02,14.09 4.4,2.6 3.78,-1.01 4.41,5.97 -10.01,-1.41 -20.01,-2.81 -30.01,-4.23 -11.99,-1.68 -21.11,-5.45 -25.89,-0.11 5.71,1.3 7.87,3.57 12.21,5.25l-0.48 3.46c-5.07,-0.28 -8.31,0.57 -15.1,-1 -17.65,-4.09 -15.06,-2.07 -28.93,-4.02 -1.18,9.95 6.31,9.13 16.18,10.52 -3.69,8.7 -29.94,-1.99 -45.83,-0.57 6.33,13.1 19.13,10.12 32.46,11.6l38.13 5.41c22.18,3.12 17.96,4.88 29.7,8.58 3.48,1.1 6.85,1.57 9.07,2.46 10.89,4.37 38.48,18.61 46.96,25.52 4.36,3.56 8.39,6.84 12.52,10.17 8.19,6.62 17.53,12.95 24.8,20.53 4.2,4.39 7.26,7.75 10.79,12.51l15.12 18.54c6.41,7.03 16.68,25.42 21.56,34.32 4.62,8.45 19.28,35.18 18.74,44.71 -6.78,-1.11 -7.64,-5.57 -11.35,-10.03l-2.06 -2.58c-0.14,-0.19 -0.33,-0.48 -0.46,-0.68 -9.03,-13.02 -23.19,-27.59 -28.42,-35.35 -2.54,-3.78 -1.66,-4.65 -6.45,-6.49 -2.35,10.37 -0.68,12.19 4.51,26.53 -4.1,-0.93 -5.89,-1.68 -7.82,-4.44l-4.89 -6.63c-7.86,-7.66 -13.25,-17.72 -20.8,-25.61 -4.3,-4.48 -6.85,-11.64 -10.11,-13.02 -4.9,5.47 -2.57,5.06 0.28,11.14 1.41,2.99 1.07,4.37 2.17,7.65 1.92,5.77 4.33,7.01 3.38,14.99 -6.76,-1.11 -4.45,-2.12 -8.66,-5.86 -6,-5.32 -16.75,-18.92 -19.01,-20.76 -5.7,-4.67 -2.52,-3.17 -6.02,-7.85 -2.39,-3.18 -3.97,-2.99 -6.79,-6.24 -4.43,-5.11 -5.55,-11.48 -14.35,-12.92 1.16,13.01 10.52,25.56 8.65,38.88 -8.41,-1.37 -9.08,-7.32 -13.18,-12.78 -2.52,-3.35 -3.53,-3.85 -6.12,-6.74 -2.44,-2.73 -2.87,-4.71 -4.83,-7.7l-11.54 -14.02c-6.71,-7.9 -7.09,-11.73 -13.23,-12.73 -0.9,6.36 0.53,8.36 2.81,12.33 3.63,6.32 1.47,5.03 3.33,10.9 -10.45,-1.71 -15.78,-14.63 -21.8,-20.73l-9.85 -11.15c-4.41,-4.91 -3.67,-8.24 -11.95,-9.58 -0.51,8.88 8.24,23.84 13.83,28.8 7.74,6.88 14.86,15.35 20.9,23.47 9.23,12.4 18.18,25.96 25.29,39.77 2.23,4.34 4.46,8.96 6.55,13.64l10.54 31.27c1.09,4.41 0.23,0.41 1.58,3.97 2.08,5.48 -1.21,2.32 2.15,9.73l1.23 2.17c1.32,3.16 2.63,28.42 4.54,35.79 0.98,3.79 0.23,14.52 0.66,19.11 2.41,25.77 -5.02,59.35 -10.7,84.41l-3.24 -7.88c-2.18,-6.73 0.89,-15.12 -0.94,-19.93 -1.87,-4.93 -3,-0.09 -2.54,-8.4l-1.51 -39.11c-11.93,5.77 -7.97,28.19 -15.1,32.01l-2.33 -38.48c-0.48,-7.56 3.04,-31.83 -6.06,-35.68 -2.4,6.22 -3.52,14.35 -5.66,21.25 -0.93,2.99 -2.49,6.28 -4.1,9.64 -1.92,4 -1.81,5.34 -5,7.05 0.8,-6.8 -1.71,-15.06 -2.41,-20.89 -0.56,-4.69 0.73,-6.32 -0.26,-11.15 -4.67,-22.68 -0.31,-44.97 -8.37,-48.38 -5.84,3.13 -4.01,12.37 -6.98,19.5 -2.19,5.25 -4.58,12.72 -7.62,17.29 -2.79,-2.72 -3.6,-12.68 -3.91,-17.7 -0.24,-3.93 0.54,-6.64 0.1,-10.39 -1.3,-11.01 -1.84,-4.93 -3.11,-26.55 -0.41,-6.94 0.84,-13.69 -2.94,-17.38 -3.95,5.92 -4.63,21.58 -7.7,29.52 -9.54,-8.54 -2.04,-18.09 -7.95,-39.41 -2.23,-8.03 0.26,-19.23 -1.73,-25.52 -5.85,3.13 -5.43,13.46 -6.72,22.59 -4.13,2 -2.03,2.8 -7.41,2.49l-1.86 -27.49c-0.66,-4.06 -2.12,-8.77 -2.54,-12.53 -0.64,-5.73 0.64,-8.59 -0.98,-13.71 -8.45,4.08 -8.28,18.46 -12.31,28.87l-2.31 -0.32c0.37,-6.49 -2.45,-13.45 -2.8,-19.56 -0.13,-2.28 0.25,-4.02 0.25,-6.38 0.02,-4.97 -1.5,-8.42 -2.01,-12.94 -0.69,-6.22 0.7,-6.73 -1.14,-12.54 -7.52,4.03 -8.72,19.57 -12.31,28.87 -4.03,-2.92 -4.62,-6.63 -7.39,-10.94 -1.55,-2.4 -0.56,0.24 -1.96,-3.69 -1.94,-5.41 -2.67,-12.39 -8.84,-15.01 -4.94,35.05 -4.76,77.03 -10.57,118.28 -18.9,120.28 -37.94,282.48 -50.34,362.94 -44.4,288.19 -47.66,428.81 -56.97,466.53 -4.16,16.86 -14.46,1.95 -18.81,4.95 -9.98,6.87 0.46,-182.78 28.6,-397.18 14.15,-107.88 35.29,-222.11 49.29,-320.56 18.18,-127.91 28.28,-216.87 27.08,-222.07z"/>
    <path class="fil6" d="M582.77 780.05c-1.42,-12.76 -0.13,-4.65 -1.81,-19.53 -6.01,3.76 -4.78,10.64 -6.57,15.18 -7.24,-0.07 -0.69,-8.21 -8.92,-8.3 -1.79,4.55 -0.65,17.3 -0.14,24.32l-3.41 -2.96c-1.18,-1.86 -0.59,-2.84 -1.47,-5.19 -0.49,-1.33 -1.52,-3.07 -2.2,-4.36 -0.92,-1.77 -0.92,-2.5 -2.4,-3.43 -1.22,3.09 -0.02,25.97 0.37,31.31 -3.7,0.19 -3.61,-0.71 -4.18,-4.13 -0.47,-2.82 -0.91,-4.29 -1.16,-7.63 -1.97,-0.31 -2.51,-0.81 -3.95,-1.63 0.24,3.25 -0.27,5.44 0.05,9.59l1.43 19.11c0.21,4.62 0.31,6.31 -1.38,7.75 -0.36,-3.84 -1.63,-4.9 -2.73,-7.88 -1.16,-3.16 -0.35,-6.3 -4.06,-6.33 -0.71,1.73 -0.68,-0.48 -0.5,1.95 0.63,8.66 3.06,27.78 1.92,35.04 -4.22,-2.4 -7.85,-16.18 -12.25,-18.93 -2.07,13.17 2.28,31.28 1.72,41.42 -0.13,2.42 -0.35,2.72 -2.28,3.39 -2.46,-1.54 -1.53,-1.66 -2.46,-4.75 -0.57,-1.92 -1.49,-2.72 -2.46,-4.74 -1.39,-2.88 -1.99,-8.3 -5.39,-8.95 -1.15,2.95 1.06,27.09 1.75,30.42 0.55,2.68 1.51,5.39 1.77,8.98l-3.18 0.23c-0.27,-1.72 -1.86,-6.81 -2.42,-8.23 -1.05,-2.67 -1.88,-4.27 -4.33,-5.35 0.15,2.89 -0.45,2.58 -0.21,5.78l1.92 35.03c-1.68,-1.05 -1.75,-2.21 -2.66,-4.51l-8.62 -26.59c-2.39,-11.46 -4.99,-24.77 -4.38,-36.66 0.17,-3.38 0.74,-8.32 0.43,-11.64 -0.39,-4.26 0.6,-6.65 1.34,-10.67 2.79,-15.24 8.31,-34.51 17.45,-47.51 4.56,-6.49 7.77,-14.48 11.82,-21.38 1.29,-2.2 0.98,-2.14 0.75,-5.31 -3.39,1.18 -6.71,6.52 -9.47,9.1 -2.96,2.77 -6.9,5.53 -9.05,8.88 -1.72,2.68 -2.57,4.33 -6.67,4.97 0.08,-7.02 5.28,-7.98 5.34,-14.46 -4.12,1.28 -9.92,9.24 -12.97,12.63 -1.39,1.55 -1.94,1.72 -3.3,3.12 -1.26,1.3 -1.61,1.99 -3.07,3.3 -3.1,2.78 -3.65,3.63 -5.61,7.08l-3.81 0.28c1.02,-2.62 -0.23,-2.52 1.23,-5.49 2.23,-4.52 4.18,-8.91 5,-14.16 -2.56,1.47 -2.79,1.26 -5.02,3.41 -5.75,5.57 -18.72,18 -22.94,23.1 -1.53,1.86 -1.73,2.94 -4.39,3.36 -0.95,-1.62 -0.6,0.57 -0.78,-1.86 -0.21,-2.94 2.75,-6.94 3.88,-9.17 1.8,-3.56 2.72,-5.61 2.41,-9.84 -3.01,1.05 -5.13,4.85 -7.18,6.92 -2.35,2.38 -4.55,4.67 -6.55,7.45 -2.26,3.13 -1.16,1.03 -3.68,3.38 -3.55,3.31 -5.76,7.85 -9.95,10.47 -0.32,-4.39 1.51,-5.79 3.09,-8.65 1.94,-3.51 2.36,-4.26 1.97,-9.62 -2.63,0.91 -1.81,1.42 -3.42,3.6l-6.22 6.55c-1.39,1.43 -1.56,1.74 -3.18,3.21 -3.45,3.13 -9.42,10.83 -13.45,12.22 0.06,-6.05 3.18,-9.94 6.49,-14.07l6.07 -7.86c1.24,-1.8 1.45,-2.27 2.97,-3.99 2.34,-2.65 3.49,-4.75 5.86,-7.45 1.52,-1.74 1.66,-2.27 2.93,-4.03 4.89,-6.8 10.17,-12.99 16.55,-18.49 2.69,-2.31 4.27,-4.07 7.3,-6.21 2.91,-2.06 6.19,-3.29 8.66,-5.63 3.72,-3.51 2.95,-3.63 8.38,-5.87 3.64,-1.5 6.8,-2.7 10.23,-4.28 7.71,-3.55 10.6,-3.73 15.43,-5.75 5.13,-2.15 17.5,-3.78 24.34,-5.2 2.39,-0.49 4.17,-0.55 6.09,-1.29 4.03,-1.55 1.89,-2.63 9.98,-3.9 -2.72,-2.03 -5.91,-2.29 -9.74,-1.89 -3.01,0.31 -2.89,0.75 -5.67,1.1l-11.5 0.2c3.05,-6.95 8.2,-2.45 9.08,-7.06 -8.9,0.65 -23.01,2.79 -30.59,1.6 -0.17,-3.4 -0.16,-2.65 2.56,-3.76 3.96,-1.61 10.01,-2.67 12.06,-6.27l-7.68 -0.06c-3.29,0.4 -4.98,-0.32 -8.94,-0.02 -6.15,0.48 -12.31,0.92 -18.46,1.37 1.19,-1.91 5.23,-4 7.4,-4.93 3.1,-1.34 4.88,-2.06 6.58,-5.05 -17.41,-0.17 -14.85,2.37 -29.81,3.46 0.4,-2.54 1.1,-3.85 3.46,-4.76 3.55,-1.38 3.77,0.23 5.57,-2.93 -7.09,-0.08 -11.26,-0.1 -18.54,1.26 -5.18,0.97 -9.23,0.13 -13.31,0.43 0.41,-2.16 1.57,-2.5 3.57,-3.48 1.89,-0.92 3.11,-1.09 5.49,-1.82 3.56,-1.09 5.43,-2.79 10.13,-3.76 3.92,-0.81 7.57,-2.18 11.33,-2.73 12.19,-1.77 26.33,-3.93 38.58,-1.97 12.53,2 6.15,-0.14 18.92,4.31 3.14,1.09 5.86,1.95 8.75,2.98 4.56,1.64 19.58,9.18 23.13,12.55 2.73,2.57 2.32,3.76 6.87,4.47 -0.43,-5.81 -4.09,-10.82 -5.52,-16.39 -4.06,-15.9 -4.08,-18.66 -5.25,-34.62 -0.29,-3.97 0.29,-6.01 0.99,-9.32 0.81,-3.81 -0.44,-3.88 1.11,-7.32 1.23,-2.72 1.05,-5.89 1.72,-8.68 0.61,-2.55 1.61,-4.91 2.53,-7.34 2.11,-5.54 3.26,-9.52 6.07,-14.43 1.78,-3.11 6.23,-9.97 6.84,-13.16l1.27 -0.1c0.21,2.79 -2.11,9.15 -3.03,12.28 -0.94,3.22 -4.33,10.88 -2.06,14.32 4.52,-1.41 0.57,-1.59 4.27,-2.87 0.69,9.42 -4.19,12.63 -3.74,18.82 0.39,5.3 2.87,2.05 4.61,-0.79 1.72,-2.83 1.75,-3.24 4.56,-5 0.25,4.92 -2.39,10.76 -3.24,15.08 -0.96,4.87 -3.23,10.25 -2.85,15.43 6.52,-0.63 2.13,-5.05 8.45,-7.02 0.4,5.47 -1.08,9.18 -2.67,13.2 -1.25,3.14 -0.62,3.43 -1.31,6.62 -0.9,4.1 -1.92,1.6 -0.53,6.09 2.04,-1.59 3.6,-5.13 5.95,-6.19 0.41,5.63 -1,4.34 -1.65,8.72 -0.74,5.02 -1.72,6.51 -1.32,11.97 3.63,-0.35 2.06,-0.48 4.32,-2.24 0.84,11.58 -3.47,6.81 -0.79,15.41 1.61,-1.01 2.31,-1.25 3.46,-2.96l1.65 -3.35c1.06,-1.81 1.37,-1.58 2.19,-4.07 0.59,-1.8 0.76,-2.57 1.3,-4.24 1.6,-5.03 4.74,-10.41 7.38,-15.08 4.93,-8.71 11.72,-20.24 19.01,-27.08 13.51,-12.68 17.95,-16.51 34.14,-24.75 3.85,-1.96 13.77,-5.95 17.25,-6.56 3.27,-0.58 7.77,-2.06 9.4,-1.42 -0.49,1.75 0.24,1 -2.15,2.32l-15.64 7.34c-2.06,0.95 -2.76,2.63 -4.23,4.11 2.96,0.46 4.01,0.98 7.73,0.71 -2.78,2.8 -6.75,4.81 -10.14,6.74 -4.67,2.65 -7.84,1.35 -10.65,6.29 3.88,1.53 6.87,0.78 12.18,0.39 -0.56,1.98 -3.9,3.34 -5.9,4.44l-6.31 3.49c-3.41,2.13 -10.17,3.87 -10.9,8.47 3.65,0.57 6.48,0.17 10.87,-0.15 -1.95,3.41 -6.44,5.09 -10.62,6.92 -3.57,1.57 -8.52,3.91 -10.13,6.74 3.12,0.5 8.74,-0.37 10.91,0.49 -0.64,1.97 0.39,0.82 -2.44,2.06l-7.81 3.99c-2.81,1.47 -8.97,3.23 -9.96,6.3 5.55,0.87 11.98,-2.18 15.4,-5.78 2.29,-2.41 2.64,-1.85 5.46,-3.63l17.45 -9.36 14.02 -3.99c7.27,-2.2 24.24,-3.52 32.41,-2.9 2.95,0.23 5.53,-0.38 8.33,0.02 3.74,0.52 11.43,1.13 13.54,2.95 1.31,1.12 2.83,3.26 3.39,5.05 -2.87,0.21 -6.7,0.71 -9.47,0.61 -2.89,-0.09 -8.45,-1.77 -11.57,0.29 1.46,4.22 4.32,2.46 7.96,3.89 -0.92,2.11 -0.56,2.05 -3.11,2.69 -5.22,1.31 -9.36,0.14 -15.2,0.57 -2.99,0.22 -5.22,0.01 -7.54,1.83 2.11,2.7 3.83,2.24 7.17,3.43 2.62,0.94 5.89,1.28 6.79,3.86 -6.44,1.02 -13.56,2.3 -20.22,2.03 -6.49,-0.26 -8.87,0.84 -15.31,1.85 2.12,2.49 9.37,3.94 12.87,5.11 2.66,0.88 1.91,-0.98 3.05,2.68 -5.51,0.41 -11.03,0.81 -16.54,1.21 -6.61,0.48 -11.92,-0.47 -13.86,2.93 3.21,0.04 4.62,1 7.14,1.4l0.14 1.91c-2.74,0.43 -4.38,1.26 -8.19,1.21 -9.91,-0.15 -8.3,0.63 -15.94,1.19 0.52,5.46 4.43,4.15 9.87,3.76 -0.97,5.08 -16.24,2.4 -24.58,4.99 4.9,6.28 11.41,3.21 18.71,2.45l21.01 -1.51c12.23,-0.9 10.18,0.53 16.88,1.15 1.99,0.18 3.85,0.05 5.14,0.27 6.33,1.08 22.73,5.5 28.06,8.22 2.75,1.4 5.28,2.68 7.88,3.99 5.14,2.6 10.87,4.9 15.64,8.12 2.75,1.86 4.78,3.3 7.22,5.44l10.22 8.17c4.25,3.01 11.87,11.66 15.51,15.86 3.45,3.98 14.38,16.58 15.19,21.74 -3.75,0.19 -4.73,-2.09 -7.23,-4.05l-1.4 -1.14c-0.1,-0.09 -0.23,-0.22 -0.33,-0.31 -6.33,-5.92 -15.59,-12.08 -19.28,-15.62 -1.8,-1.73 -1.43,-2.29 -4.2,-2.73 -0.06,5.82 1.04,6.6 5.47,13.67 -2.29,-0.02 -3.34,-0.22 -4.69,-1.47l-3.38 -2.98c-5.09,-3.19 -9.14,-7.94 -14.09,-11.29 -2.82,-1.9 -5.01,-5.44 -6.91,-5.8 -1.99,3.49 -0.79,3.01 1.44,5.93 1.1,1.44 1.07,2.21 2.04,3.84 1.7,2.86 3.13,3.25 3.55,7.63 -3.75,0.19 -2.63,-0.62 -5.32,-2.13 -3.82,-2.16 -11.14,-8.19 -12.56,-8.91 -3.59,-1.84 -1.72,-1.41 -4.13,-3.5 -1.65,-1.43 -2.47,-1.14 -4.36,-2.56 -2.96,-2.22 -4.29,-5.5 -9.17,-5.25 2.13,6.83 8.59,12.46 9.13,19.8 -4.66,0.24 -5.71,-2.87 -8.53,-5.31 -1.74,-1.51 -2.33,-1.65 -4.05,-2.9 -1.62,-1.18 -2.08,-2.19 -3.48,-3.56l-7.79 -6.16c-4.5,-3.46 -5.15,-5.46 -8.55,-5.28 0.26,3.5 1.25,4.41 2.93,6.26 2.67,2.96 1.37,2.53 3.04,5.45 -5.78,0.29 -10.13,-6 -14.05,-8.57l-6.56 -4.82c-2.93,-2.12 -2.92,-3.98 -7.5,-3.74 0.75,4.81 7.16,11.8 10.72,13.8 4.94,2.79 9.73,6.49 13.9,10.14 6.37,5.56 12.72,11.78 18.12,18.35 1.7,2.06 3.42,4.27 5.08,6.53l9.26 15.51c1.09,2.23 0.17,0.19 1.3,1.94 1.75,2.69 -0.38,1.38 2.28,4.96l0.91 1.01c1.07,1.54 4.69,14.9 6.56,18.62 0.97,1.91 1.8,7.74 2.56,10.15 4.27,13.5 4.18,32.32 4.04,46.38l-2.64 -3.84c-1.95,-3.35 -1.27,-8.19 -2.81,-10.55 -1.57,-2.42 -1.61,0.3 -2.33,-4.2l-5.33 -20.74c-5.71,4.46 -1,15.99 -4.37,18.87l-5.7 -20.32c-1.13,-3.99 -2.06,-17.37 -7.37,-18.38 -0.56,3.6 -0.22,8.08 -0.57,12.02 -0.15,1.71 -0.6,3.65 -1.07,5.63 -0.57,2.36 -0.36,3.06 -1.86,4.35 -0.36,-3.73 -2.66,-7.86 -3.71,-10.9 -0.84,-2.44 -0.34,-3.46 -1.43,-5.93 -5.12,-11.59 -5.36,-24.02 -10.07,-24.91 -2.76,2.35 -0.71,7.08 -1.48,11.24 -0.56,3.06 -0.98,7.33 -2.07,10.12 -1.81,-1.12 -3.39,-6.36 -4.14,-9.01 -0.58,-2.07 -0.48,-3.61 -1.15,-5.57 -1.97,-5.73 -1.55,-2.42 -4.73,-13.83 -1.02,-3.67 -1.14,-7.43 -3.59,-8.96 -1.42,3.62 0.03,12.07 -0.7,16.67 -6.09,-3.46 -3.18,-9.43 -8.81,-20.15 -2.12,-4.04 -2.08,-10.32 -3.88,-13.45 -2.76,2.35 -1.34,7.83 -0.98,12.86 -1.98,1.55 -0.76,1.73 -3.67,2.19l-4.18 -14.49c-0.82,-2.1 -2.15,-4.45 -2.8,-6.41 -1.01,-2.99 -0.65,-4.67 -2.11,-7.22 -4.05,3.16 -2.3,10.83 -3.25,16.87l-1.27 0.09c-0.55,-3.51 -2.87,-6.91 -3.76,-10.14 -0.33,-1.2 -0.33,-2.17 -0.6,-3.44 -0.57,-2.66 -1.78,-4.33 -2.57,-6.68 -1.09,-3.26 -0.41,-3.69 -2.07,-6.58 -3.55,3.02 -2.4,11.47 -3.24,16.86 -2.49,-1.09 -3.24,-3.01 -5.22,-5 -1.11,-1.1 -0.27,0.2 -1.47,-1.74 -1.66,-2.67 -2.87,-6.32 -6.47,-7.01 1.41,19.32 6.37,41.75 8.03,64.49 3.8,66.52 7.81,157.97 9.19,202.5 4.96,160.46 5.81,219.98 5.19,241.23 -0.27,9.49 -6.37,4.59 -8.35,6.69 -6.83,7.26 -3.44,-221 -15.08,-383.14 -5.07,-70.52 -13.21,-118.56 -14.45,-121.2z"/>
    <path class="fil7" d="M905.49 629.77c1.72,-16.73 1.13,-5.98 3.09,-25.5 -8.74,3.15 -9.07,12.31 -12.61,17.63 -9.26,-2.1 1.39,-10.72 -9.13,-13.1 -3.55,5.33 -5.62,21.97 -6.91,31.09l-3.55 -4.72c-0.99,-2.71 0.04,-3.81 -0.44,-7.07 -0.26,-1.83 -1.09,-4.35 -1.6,-6.18 -0.7,-2.52 -0.49,-3.46 -2.13,-5.06 -2.41,3.63 -7.22,33.25 -8.2,40.2 -4.79,-0.79 -4.42,-1.92 -4.2,-6.45 0.18,-3.75 0.02,-5.75 0.63,-10.09 -2.45,-0.95 -3,-1.74 -4.62,-3.18 -0.59,4.23 -1.85,6.88 -2.58,12.29l-3.47 24.86c-1,5.97 -1.34,8.17 -3.9,9.54 0.59,-5.01 -0.74,-6.72 -1.32,-10.84 -0.61,-4.37 1.3,-8.16 -3.45,-9.24 -1.39,2.03 -0.73,-0.79 -1.18,2.37 -1.58,11.26 -3.76,36.42 -7.23,45.39 -4.74,-4.24 -5.58,-22.88 -10.46,-27.63 -6.29,16.29 -5.73,40.68 -9.25,53.52 -0.84,3.05 -1.2,3.38 -3.87,3.7 -2.71,-2.64 -1.49,-2.55 -1.83,-6.76 -0.2,-2.61 -1.16,-3.89 -1.84,-6.75 -0.98,-4.07 -0.25,-11.18 -4.42,-12.94 -2.3,3.45 -6.14,34.96 -6.18,39.42 -0.03,3.59 0.44,7.32 -0.21,11.99l-4.14 -0.58c0.13,-2.29 -0.5,-9.23 -0.83,-11.21 -0.61,-3.71 -1.22,-5.99 -4.05,-8.04 -0.61,3.73 -1.29,3.17 -1.88,7.33l-7.24 45.39c-1.86,-1.81 -1.62,-3.31 -2.16,-6.51l-3.66 -36.44c0.1,-15.33 0.46,-33.1 4.53,-48.15 1.16,-4.28 3.25,-10.44 3.78,-14.77 0.67,-5.58 2.6,-8.36 4.66,-13.3 7.79,-18.75 20.2,-41.88 35.49,-56 7.64,-7.05 13.96,-16.39 21.05,-24.1 2.27,-2.47 1.86,-2.47 2.44,-6.59 -4.67,0.56 -10.4,6.48 -14.65,9.03 -4.55,2.72 -10.36,5.16 -14.04,8.85 -2.95,2.95 -4.49,4.84 -9.91,4.53 2.04,-8.98 8.96,-8.76 10.84,-17.04 -5.64,0.5 -15.27,9.08 -20.11,12.58 -2.2,1.6 -2.96,1.67 -5.08,3.07 -1.99,1.32 -2.61,2.11 -4.85,3.39 -4.74,2.7 -5.68,3.63 -9.14,7.5l-4.97 -0.69c2.04,-3.07 0.41,-3.29 3.11,-6.69 4.09,-5.17 7.81,-10.25 10.32,-16.74 -3.68,1.17 -3.93,0.83 -7.38,2.98 -8.9,5.53 -28.95,17.86 -35.76,23.22 -2.48,1.95 -3.03,3.29 -6.55,3.09 -0.78,-2.34 -0.93,0.56 -0.48,-2.6 0.54,-3.83 5.44,-8.13 7.5,-10.67 3.3,-4.06 5.03,-6.42 5.81,-11.93 -4.15,0.51 -7.91,4.79 -11.1,6.87 -3.68,2.4 -7.12,4.72 -10.46,7.72 -3.76,3.39 -1.77,1 -5.64,3.31 -5.47,3.26 -9.56,8.47 -15.64,10.66 0.8,-5.71 3.53,-7 6.35,-10.23 3.45,-3.95 4.2,-4.79 5.19,-11.77 -3.63,0.44 -2.72,1.32 -5.38,3.66l-9.78 6.67c-2.18,1.45 -2.48,1.8 -4.96,3.23 -5.29,3.06 -15.06,11.26 -20.6,11.93 1.75,-7.73 6.81,-11.85 12.19,-16.22l9.96 -8.38c2.08,-1.97 2.48,-2.51 4.91,-4.29 3.73,-2.74 5.78,-5.11 9.57,-7.92 2.42,-1.8 2.74,-2.45 4.86,-4.35 8.14,-7.35 16.62,-13.82 26.3,-19.09 4.09,-2.22 6.6,-4.03 11.07,-5.93 4.29,-1.83 8.84,-2.5 12.65,-4.81 5.73,-3.47 4.78,-3.84 12.36,-5.2 5.06,-0.91 9.45,-1.57 14.28,-2.64 10.85,-2.42 14.6,-1.84 21.34,-3.1 7.16,-1.33 23.46,0 32.6,0.09 3.2,0.03 5.5,0.45 8.17,0.03 5.58,-0.87 3.14,-2.85 13.84,-2.24 -2.91,-3.34 -6.92,-4.56 -11.93,-5.11 -3.95,-0.43 -3.91,0.15 -7.57,-0.16l-14.78 -2.93c5.83,-8.05 11.18,-0.87 13.58,-6.53 -11.58,-1.63 -30.24,-2.8 -39.6,-6.42 0.72,-4.39 0.52,-3.43 4.3,-4.1 5.52,-0.97 13.57,-0.64 17.19,-4.69l-9.83 -2.21c-4.32,-0.39 -6.28,-1.78 -11.43,-2.49 -8.01,-1.09 -16.01,-2.23 -24.02,-3.36 2.06,-2.11 7.81,-3.67 10.84,-4.27 4.34,-0.85 6.82,-1.28 9.82,-4.63 -22.24,-5.05 -19.66,-1.09 -39.12,-3.83 1.21,-3.13 2.47,-4.62 5.74,-5.14 4.93,-0.78 4.77,1.34 7.95,-2.21 -9.05,-2.05 -14.39,-3.25 -24.09,-3.52 -6.9,-0.19 -11.85,-2.39 -17.16,-3.14 1.12,-2.64 2.7,-2.76 5.53,-3.45 2.68,-0.66 4.29,-0.53 7.53,-0.81 4.88,-0.42 7.74,-2.07 14.02,-2.01 5.25,0.05 10.29,-0.7 15.26,-0.36 16.1,1.1 34.8,2.26 49.94,8.15 15.49,6.03 7.91,1.53 23.04,10.75 3.71,2.27 6.97,4.12 10.37,6.25 5.38,3.36 22.53,17.17 26.15,22.46 2.78,4.06 1.92,5.46 7.55,7.64 1.06,-7.57 -2.24,-15 -2.52,-22.51 -0.81,-21.49 -0.07,-25.03 2.86,-45.8 0.72,-5.15 2.03,-7.6 3.85,-11.65 2.08,-4.65 0.5,-5.09 3.44,-9.06 2.32,-3.15 2.98,-7.26 4.6,-10.64 1.49,-3.09 3.42,-5.85 5.28,-8.7 4.23,-6.5 6.81,-11.29 11.76,-16.8 3.14,-3.48 10.74,-11.03 12.41,-14.96l1.65 0.24c-0.51,3.62 -5.23,11.12 -7.28,14.88 -2.1,3.86 -8.56,12.73 -6.6,17.76 6.18,-0.55 1.17,-1.88 6.26,-2.5 -1.73,12.25 -8.87,15.02 -10,23.07 -0.97,6.9 3.11,3.43 6.12,0.27 2.99,-3.15 3.15,-3.67 7.22,-5.14 -1.04,6.36 -6.03,13.11 -8.32,18.41 -2.58,5.97 -6.96,12.23 -7.91,18.96 8.51,1 4.12,-5.87 12.75,-6.64 -1,7.11 -3.92,11.45 -7.07,16.15 -2.47,3.68 -1.74,4.23 -3.51,8.11 -2.29,5.01 -2.91,1.53 -2.36,7.67 3.05,-1.48 6.02,-5.59 9.32,-6.28 -1.03,7.31 -2.47,5.27 -4.51,10.69 -2.35,6.23 -4.01,7.87 -5.01,14.97 4.75,0.56 2.77,-0.04 6.14,-1.67 -2.12,15.06 -6.32,7.76 -5.27,19.51 2.35,-0.85 3.3,-0.96 5.25,-2.84l3.04 -3.83c1.86,-2.01 2.2,-1.63 3.93,-4.6 1.25,-2.14 1.69,-3.08 2.84,-5.07 3.44,-5.99 8.95,-12.02 13.62,-17.26 8.72,-9.79 20.61,-22.67 31.85,-29.42 20.79,-12.49 27.54,-16.17 50.56,-22.23 5.46,-1.45 19.28,-3.81 23.89,-3.63 4.35,0.17 10.53,-0.48 12.44,0.79 -1.11,2.1 0.02,1.34 -3.4,2.36l-22.06 5.09c-2.9,0.64 -4.25,2.59 -6.55,4.08 3.66,1.41 4.86,2.37 9.7,3.05 -4.33,2.81 -9.98,4.29 -14.85,5.82 -6.71,2.11 -10.41,-0.44 -15.38,5.11 4.54,3.03 8.58,2.9 15.49,3.87 -1.26,2.38 -5.91,3.2 -8.78,4.06l-9.05 2.72c-4.95,1.78 -14.09,2.13 -16.29,7.82 4.5,1.74 8.24,2.01 13.95,2.81 -3.43,3.83 -9.65,4.75 -15.51,5.93 -5.01,1.02 -11.99,2.65 -14.84,5.83 3.87,1.49 11.29,1.94 13.83,3.63 -1.36,2.36 0.28,1.17 -3.69,1.97l-11.1 2.95c-4.01,1.1 -12.39,1.65 -14.49,5.31 6.85,2.65 15.93,0.53 21.31,-3.13 3.6,-2.46 3.89,-1.64 7.99,-3.14l24.94 -7.15 19.05 -1.23c9.92,-0.81 32.02,2.2 42.3,5.26 3.72,1.1 7.19,1.04 10.67,2.32 4.63,1.71 14.31,4.62 16.52,7.53 1.36,1.8 2.72,4.95 2.94,7.4 -3.73,-0.52 -8.78,-0.94 -12.3,-1.83 -3.67,-0.93 -10.33,-4.62 -14.89,-2.84 0.7,5.81 4.85,4.36 9.11,7.19 -1.76,2.44 -1.29,2.47 -4.72,2.58 -7.05,0.23 -12.02,-2.41 -19.62,-3.48 -3.89,-0.55 -6.69,-1.42 -10.17,0.26 1.96,4.04 4.29,3.93 8.23,6.38 3.1,1.93 7.2,3.26 7.63,6.82 -8.52,-0.48 -17.99,-0.82 -26.45,-3 -8.23,-2.13 -11.59,-1.38 -20.12,-1.87 2.03,3.78 10.91,7.64 15.08,10.1 3.15,1.86 2.71,-0.72 3.15,4.28 -7.17,-1.01 -14.34,-2.02 -21.51,-3.03 -8.59,-1.21 -15.13,-3.91 -18.55,-0.08 4.09,0.93 5.63,2.56 8.75,3.77l-0.35 2.48c-3.63,-0.21 -5.96,0.4 -10.82,-0.72 -12.66,-2.93 -10.8,-1.48 -20.74,-2.88 -0.84,7.13 4.53,6.54 11.59,7.54 -2.64,6.23 -21.45,-1.43 -32.85,-0.41 4.54,9.39 13.72,7.25 23.28,8.31l27.32 3.88c15.9,2.24 12.88,3.5 21.3,6.15 2.49,0.79 4.91,1.12 6.5,1.76 7.8,3.14 27.58,13.34 33.66,18.3 3.13,2.55 6.01,4.9 8.97,7.29 5.87,4.75 12.57,9.28 17.78,14.72 3.01,3.14 5.21,5.55 7.74,8.96l10.83 13.29c4.6,5.04 11.96,18.22 15.46,24.61 3.31,6.05 13.82,25.21 13.43,32.04 -4.85,-0.79 -5.48,-3.99 -8.13,-7.19l-1.48 -1.84c-0.1,-0.14 -0.23,-0.35 -0.33,-0.49 -6.47,-9.33 -16.62,-19.78 -20.37,-25.34 -1.82,-2.71 -1.19,-3.33 -4.62,-4.66 -1.69,7.44 -0.49,8.74 3.23,19.02 -2.94,-0.66 -4.23,-1.2 -5.61,-3.18l-3.51 -4.75c-5.62,-5.5 -9.49,-12.7 -14.91,-18.36 -3.07,-3.21 -4.9,-8.34 -7.24,-9.34 -3.51,3.93 -1.84,3.63 0.2,7.99 1.01,2.15 0.77,3.13 1.55,5.49 1.38,4.13 3.11,5.02 2.43,10.74 -4.85,-0.79 -3.19,-1.52 -6.21,-4.2 -4.3,-3.81 -12,-13.56 -13.62,-14.88 -4.09,-3.35 -1.81,-2.28 -4.32,-5.63 -1.71,-2.28 -2.85,-2.14 -4.87,-4.47 -3.17,-3.66 -3.98,-8.23 -10.28,-9.27 0.83,9.33 7.54,18.33 6.19,27.88 -6.03,-0.99 -6.5,-5.25 -9.44,-9.16 -1.81,-2.41 -2.53,-2.76 -4.39,-4.83 -1.75,-1.96 -2.06,-3.39 -3.46,-5.53l-8.27 -10.04c-4.81,-5.67 -5.09,-8.41 -9.49,-9.13 -0.64,4.56 0.38,5.99 2.02,8.83 2.6,4.54 1.05,3.61 2.38,7.82 -7.48,-1.22 -11.31,-10.49 -15.62,-14.86l-7.06 -7.99c-3.16,-3.52 -2.64,-5.91 -8.57,-6.87 -0.36,6.37 5.91,17.09 9.91,20.65 5.56,4.93 10.65,11 14.99,16.82 6.61,8.89 13.02,18.61 18.12,28.51 1.61,3.11 3.2,6.42 4.7,9.77l7.56 22.42c0.77,3.16 0.16,0.3 1.13,2.85 1.49,3.92 -0.87,1.66 1.54,6.97l0.88 1.56c0.95,2.26 1.88,20.37 3.25,25.65 0.71,2.72 0.17,10.41 0.48,13.7 1.73,18.47 -3.6,42.54 -7.67,60.51l-2.32 -5.65c-1.57,-4.83 0.64,-10.83 -0.67,-14.29 -1.35,-3.53 -2.16,-0.06 -1.83,-6.02l-1.08 -28.03c-8.55,4.13 -5.72,20.21 -10.83,22.95l-1.67 -27.59c-0.34,-5.42 2.18,-22.82 -4.34,-25.58 -1.72,4.46 -2.53,10.29 -4.06,15.24 -0.66,2.14 -1.78,4.5 -2.93,6.9 -1.38,2.87 -1.31,3.84 -3.59,5.06 0.58,-4.87 -1.22,-10.79 -1.73,-14.97 -0.4,-3.37 0.53,-4.54 -0.19,-8 -3.34,-16.26 -0.22,-32.23 -6,-34.68 -4.18,2.25 -2.87,8.87 -5,13.98 -1.57,3.76 -3.28,9.12 -5.46,12.39 -2,-1.94 -2.58,-9.08 -2.8,-12.68 -0.17,-2.82 0.39,-4.76 0.07,-7.45 -0.93,-7.89 -1.32,-3.53 -2.23,-19.03 -0.29,-4.98 0.6,-9.82 -2.11,-12.46 -2.83,4.24 -3.31,15.47 -5.51,21.16 -6.85,-6.12 -1.47,-12.96 -5.71,-28.25 -1.59,-5.76 0.19,-13.79 -1.24,-18.3 -4.19,2.25 -3.89,9.66 -4.81,16.2 -2.97,1.43 -1.46,2.01 -5.32,1.79l-1.33 -19.71c-0.47,-2.91 -1.52,-6.29 -1.82,-8.98 -0.46,-4.11 0.46,-6.16 -0.7,-9.83 -6.06,2.93 -5.94,13.23 -8.83,20.7l-1.65 -0.24c0.26,-4.65 -1.76,-9.64 -2.01,-14.02 -0.09,-1.64 0.18,-2.88 0.18,-4.57 0.01,-3.56 -1.08,-6.04 -1.44,-9.27 -0.5,-4.47 0.5,-4.83 -0.82,-9 -5.39,2.89 -6.25,14.04 -8.82,20.7 -2.89,-2.09 -3.32,-4.76 -5.3,-7.84 -1.11,-1.72 -0.4,0.17 -1.4,-2.65 -1.39,-3.88 -1.92,-8.88 -6.34,-10.76 -3.54,25.12 -3.41,55.22 -7.58,84.79 -13.55,86.22 -30.53,201.65 -39.42,259.33 -31.83,206.59 -49.99,289.95 -56.66,316.99 -2.98,12.09 -9.48,2.74 -12.6,4.89 -10.75,7.4 48.49,-286.74 78.47,-497.57 13.04,-91.69 15.91,-155.46 15.05,-159.19z"/>
    <path class="fil8" d="M1942.33 1255.27l-1906.11 0c116.19,417.16 498.85,723.28 953.05,723.28 454.21,0 836.87,-306.12 953.06,-723.28z"/>
    <path class="fil9" d="M502.07 341.24c-0.98,-6.79 -1.66,-9.13 -2.46,-11.41 -1.65,-4.65 -3.87,-9.02 -6.86,-12.16 -3,-3.15 -6.77,-5.06 -9.91,-4.74 -3.14,0.33 -5.65,2.9 -8.02,5.98l-0.22 0.3c-2.64,26.11 -1.86,11.67 -4.23,34.77 1.2,5.2 -8.9,94.16 -27.08,222.07 -14,98.45 -35.14,212.68 -49.29,320.56 -28.14,214.4 -38.58,404.05 -28.6,397.18 4.35,-3 14.65,11.91 18.81,-4.95 9.31,-37.72 12.57,-178.34 56.97,-466.53 12.4,-80.46 31.44,-242.66 50.34,-362.94 5.81,-41.19 5.63,-83.12 10.55,-118.13z"/>
    <path class="fil10" d="M598.45 769.53c-2.87,-7.04 -3.41,-8.12 -3.91,-9.12 -0.69,-1.36 -1.3,-2.58 -2.36,-3.83 -1.07,-1.26 -2.58,-2.54 -3.94,-2.79 -1.36,-0.25 -2.56,0.52 -3.82,1.86 -1.26,1.34 -2.57,3.24 -3.4,4.84l-0.05 0.11c1.67,14.76 0.38,6.71 1.8,19.45 1.24,2.64 9.38,50.68 14.45,121.2 11.64,162.14 8.25,390.4 15.08,383.14 1.98,-2.1 8.08,2.8 8.35,-6.69 0.62,-21.25 -0.23,-80.77 -5.19,-241.23 -1.38,-44.53 -5.39,-135.98 -9.19,-202.5 -1.66,-22.74 -6.62,-45.17 -8.03,-64.49l0.21 0.05z"/>
    <path class="fil11" d="M929.05 620.94c-1.35,-2.93 -3.3,-5.94 -5.24,-8.61 -2.07,-2.83 -4.12,-5.27 -6.17,-7.49 -2.06,-2.22 -4.11,-4.23 -5.48,-5 -1.37,-0.77 -2.05,-0.3 -2.91,0.82 -0.51,0.66 -1.09,1.56 -1.98,4.15 0.42,-0.19 0.85,-0.38 1.31,-0.54 -1.96,19.52 -1.37,8.77 -3.09,25.5 0.86,3.73 -2.01,67.5 -15.05,159.19 -29.98,210.83 -89.22,504.97 -78.47,497.57 3.12,-2.15 9.62,7.2 12.6,-4.89 6.67,-27.04 24.83,-110.4 56.66,-316.99 8.89,-57.68 25.87,-173.11 39.42,-259.33 4.17,-29.57 4.04,-59.67 7.58,-84.79 0.29,0.13 0.56,0.26 0.82,0.41z"/>
    <path class="fil12" d="M48.53 1295.42c89.67,1.92 186.85,5.85 276.68,9.07 107.64,3.86 204.72,6.7 259.52,7.11 54.81,0.42 67.35,-1.6 75.03,-4.08 7.68,-2.48 10.49,-5.42 29.01,-6.49 18.53,-1.07 52.75,-0.27 104.38,3.73 51.62,3.99 120.65,11.18 180.74,12.62 60.1,1.44 111.25,-2.88 150.8,-5.96 39.55,-3.08 67.49,-4.93 65.03,-7.39 -2.47,-2.47 -35.34,-5.55 -68.01,-8.63 -32.66,-3.08 -65.12,-6.17 -96.14,-7.71 -31.03,-1.54 -60.61,-1.54 -104.37,-6.26 -43.76,-4.73 -101.7,-14.18 -145.15,-20.55 -43.45,-6.37 -72.42,-9.65 -117.86,-11.07 -45.44,-1.41 -107.35,-0.94 -164.39,-2.23 -57.03,-1.28 -109.2,-4.32 -168.32,-11.86 -59.12,-7.54 -125.21,-19.59 -182.82,-29.15 -41.18,-6.84 -78.04,-12.42 -122.1,-16.09 7.32,35.25 16.66,70.28 27.97,104.94z"/>
    <path class="fil13" d="M171.17 1205.9c-0.45,0.78 -0.99,2.06 -0.7,3.93 0.28,1.88 1.39,4.36 3,7.3 1.61,2.93 3.73,6.32 5.41,10.1 1.68,3.77 2.92,7.92 4.02,12.1 1.09,4.18 2.05,8.39 2.55,13.01 0.49,4.63 0.53,9.69 6.24,13.96 5.71,4.27 17.09,7.76 33.21,12.72 16.11,4.96 36.96,11.39 54.41,15.55 17.44,4.16 31.47,6.06 44.97,6.99 13.5,0.93 26.48,0.9 41.67,2.01 15.18,1.11 32.58,3.37 47.11,3.89 14.54,0.52 26.21,-0.7 38.67,-1.8 12.45,-1.09 25.69,-2.08 35.46,-3.1 9.77,-1.03 16.08,-2.1 18.77,-3.38 2.69,-1.29 1.77,-2.78 0.38,-4.52 -1.39,-1.75 -3.24,-3.73 -5.69,-6.49 -2.44,-2.76 -5.48,-6.28 -8.52,-11.66 -3.04,-5.38 -6.07,-12.62 -8.28,-19.04 -2.22,-6.42 -3.6,-12.03 -4.78,-17.6 -1.17,-5.58 -2.14,-11.13 -2.63,-16.38 -0.49,-5.26 -0.51,-10.24 -1.21,-12.55 -0.7,-2.31 -2.09,-1.96 -3.42,-0.32 -1.33,1.65 -2.6,4.6 -3.29,7.46 -0.7,2.86 -0.81,5.63 -0.79,9.02 0.03,3.38 0.2,7.37 0.27,12.05 0.08,4.68 0.05,10.05 0.18,15.1 0.13,5.04 0.41,9.76 0.25,11.72 -0.15,1.97 -0.74,1.18 -1.6,-1.95 -0.87,-3.14 -2.01,-8.63 -3.86,-14.21 -1.86,-5.57 -4.43,-11.24 -6.06,-16.99 -1.63,-5.75 -2.32,-11.59 -2.29,-17.2 0.02,-5.6 0.78,-10.98 1.32,-16.76 0.54,-5.79 0.87,-11.99 0.47,-13.46 -0.4,-1.47 -1.55,1.78 -2.41,4.53 -0.86,2.75 -1.44,5 -1.87,6.29 -0.43,1.28 -0.72,1.6 -1.39,0.3 -0.68,-1.29 -1.73,-4.18 -2.97,-6.77 -1.25,-2.58 -2.68,-4.86 -3.62,-4.11 -0.95,0.74 -1.41,4.5 -1.57,8.91 -0.16,4.42 -0.02,9.49 -0.11,14.52 -0.09,5.03 -0.4,10.01 -0.56,15.65 -0.15,5.64 -0.15,11.94 -0.41,16.7 -0.26,4.76 -0.77,7.99 -2.61,6.02 -1.85,-1.97 -5.02,-9.15 -8.17,-15.96 -3.16,-6.82 -6.29,-13.27 -9.71,-22.66 -3.41,-9.38 -7.11,-21.69 -8.39,-30.75 -1.28,-9.07 -0.14,-14.88 0.67,-19.13 0.81,-4.25 1.29,-6.93 -0.36,-7.32 -1.66,-0.4 -5.43,1.5 -8.3,4.01 -2.86,2.51 -4.8,5.65 -5.19,9.62 -0.39,3.96 0.76,8.76 1.8,13.24 1.04,4.48 1.97,8.64 3.62,14.51 1.64,5.86 4.01,13.43 5.08,18.03 1.07,4.59 0.84,6.21 -1.88,3.76 -2.71,-2.46 -7.91,-8.99 -11.82,-13.98 -3.9,-4.99 -6.51,-8.44 -7.83,-13.12 -1.32,-4.67 -1.35,-10.57 -2.01,-14.63 -0.66,-4.05 -1.95,-6.26 -3.73,-5.92 -1.77,0.34 -4.02,3.23 -5.87,6.52 -1.85,3.3 -3.3,7 -4.45,11.88 -1.16,4.88 -2.03,10.95 -2.95,14.22 -0.93,3.26 -1.91,3.73 -4.1,0.49 -2.2,-3.24 -5.61,-10.17 -7.89,-15.51 -2.27,-5.35 -3.42,-9.1 -4.37,-12.74 -0.95,-3.64 -1.72,-7.17 -2.68,-10.27 -0.96,-3.09 -2.11,-5.75 -3.82,-8.84 -1.7,-3.09 -3.96,-6.62 -5.58,-9.25 -1.61,-2.63 -2.6,-4.36 -3.2,-4.02 -0.61,0.35 -0.84,2.78 -0.09,6.21 0.74,3.44 2.46,7.87 4.28,12.44 1.82,4.57 3.74,9.26 5.08,13.31 1.33,4.05 2.08,7.46 2.46,10.96 0.37,3.49 0.37,7.07 -0.87,11.29 -1.24,4.22 -3.73,9.08 -6.01,12.92 -2.28,3.85 -4.36,6.68 -5.91,6.96 -1.55,0.29 -2.57,-1.97 -3.31,-4.16 -0.74,-2.19 -1.2,-4.32 -1.91,-6.8 -0.7,-2.48 -1.65,-5.32 -2.56,-8.74 -0.9,-3.41 -1.77,-7.4 -3.06,-8.48 -1.3,-1.08 -3.02,0.76 -3.3,3.45 -0.29,2.69 0.87,6.23 1.35,10.81 0.49,4.57 0.3,10.17 0.28,14.81 -0.03,4.64 0.11,8.32 0.08,11.38 -0.03,3.07 -0.22,5.51 -1.24,5.47 -1.02,-0.05 -2.87,-2.59 -4.52,-6.38 -1.65,-3.78 -3.09,-8.81 -5.29,-14.74 -2.19,-5.92 -5.14,-12.74 -6.82,-17.13 -1.67,-4.39 -2.08,-6.36 -2.62,-6.36 -0.54,0 -1.22,1.96 -1.28,5.6 -0.06,3.64 0.51,8.96 1.43,13.12 0.91,4.17 2.18,7.17 3.49,10.29 1.3,3.13 2.62,6.36 3.52,9.65 0.9,3.3 1.36,6.65 1.04,10.61 -0.32,3.96 -1.41,8.53 -3,12.77 -1.59,4.25 -3.67,8.18 -4.89,9.91 -1.21,1.74 -1.56,1.28 -2.8,-0.49 -1.24,-1.76 -3.38,-4.82 -5.04,-9.09 -1.66,-4.26 -2.84,-9.72 -3.61,-16.02 -0.76,-6.29 -1.11,-13.41 -1.27,-17.84 -0.16,-4.44 -0.13,-6.19 -0.61,-6.48 -0.48,-0.3 -1.46,0.86 -2.65,2.36 -1.18,1.5 -2.57,3.35 -3.35,5.29 -0.78,1.93 -0.95,3.96 -0.61,6.33 0.35,2.37 1.22,5.08 1.01,6.12 -0.2,1.04 -1.47,0.41 -2.88,-0.4 -1.42,-0.81 -2.98,-1.79 -5.55,-2.57 -2.58,-0.78 -6.16,-1.36 -7.44,-1.02 -1.28,0.35 -0.26,1.62 1.19,3.09 1.44,1.48 3.31,3.16 5.08,5.12 1.77,1.97 3.45,4.22 5.13,7.72 1.67,3.49 3.35,8.23 4.27,12.88 0.93,4.66 1.1,9.22 0.49,10.93 -0.6,1.7 -1.99,0.55 -4.48,0.46 -2.48,-0.09 -6.06,0.9 -9.05,1.81 -2.99,0.92 -5.38,1.77 -7.23,0.87 -1.85,-0.89 -3.16,-3.53 -3.98,-7.37 -0.83,-3.83 -1.18,-8.86 -1.64,-15.51 -0.46,-6.64 -1.04,-14.91 -0.59,-22.19 0.45,-7.28 1.93,-13.57 2.77,-17.88 0.84,-4.3 1.03,-6.62 0.03,-6.8 -1,-0.17 -3.19,1.79 -4.49,4.05 -1.3,2.25 -1.71,4.79 -2.1,8 -0.4,3.21 -0.78,7.09 -1.17,9.87 -0.38,2.78 -0.77,4.47 -1.93,3.46 -1.17,-1.02 -3.11,-4.73 -4.52,-8.38 -1.41,-3.65 -2.27,-7.23 -3.52,-11.94 -1.24,-4.71 -2.86,-10.55 -4.3,-14.36 -1.45,-3.82 -2.72,-5.61 -4.45,-7.34 -1.74,-1.74 -3.93,-3.41 -5.72,-4.43 -1.8,-1.01 -3.18,-1.35 -3.2,0.14 -0.02,1.48 1.32,4.81 2.28,7.55 0.95,2.75 1.51,4.92 2.97,7.39 1.46,2.48 3.82,5.26 5.11,7.44 1.28,2.17 1.5,3.74 2.07,6.07 0.57,2.33 1.49,5.41 2.39,8.78 0.91,3.38 1.81,7.03 2.17,12.03 0.35,5 0.16,11.34 0.02,18.56 -0.14,7.22 -0.25,15.33 -0.99,19.33 -0.75,4 -2.13,3.89 -3.86,1.53 -1.72,-2.36 -3.79,-6.95 -6.59,-11.95 -2.8,-5 -6.34,-10.4 -8.18,-15.58 -1.83,-5.18 -1.95,-10.13 -2.21,-14.87 -0.26,-4.74 -0.66,-9.26 -1.78,-10.28 -1.13,-1.03 -2.98,1.46 -4.19,4 -1.22,2.55 -1.79,5.15 -1.35,8.74 0.45,3.6 1.92,8.19 2.76,12.18 0.84,3.99 1.06,7.38 -0.77,7.74 -1.83,0.36 -5.71,-2.3 -8.49,-6.35 -2.78,-4.04 -4.46,-9.48 -5.21,-14.74 -0.75,-5.26 -0.58,-10.34 0.22,-15.69 0.79,-5.34 2.21,-10.95 3.37,-16.93 1.15,-5.98 2.04,-12.34 2.58,-17.92 0.53,-5.57 0.71,-10.37 0.07,-11.99 -0.64,-1.62 -2.08,-0.06 -3.41,2.31 -1.33,2.37 -2.54,5.55 -3.87,8.87 -1.33,3.33 -2.78,6.79 -3.79,11.85 -1.01,5.06 -1.59,11.7 -1.93,18.18 -0.35,6.47 -0.47,12.77 -0.04,18.53 0.43,5.76 1.4,10.98 1.42,14.57 0.02,3.59 -0.92,5.54 -2.15,4.79 -1.24,-0.76 -2.76,-4.23 -4.33,-7.75 -1.56,-3.52 -3.17,-7.09 -4.47,-10.09 -1.3,-2.99 -2.3,-5.4 -3.74,-7.76 -1.44,-2.36 -3.31,-4.67 -4.98,-6.52 -1.67,-1.86 -3.13,-3.27 -4.05,-3.83 -0.92,-0.56 -1.3,-0.26 -1.76,0.53z"/>
    <path class="fil14" d="M956.44 1252.2c0.25,0.54 0.51,1.42 0.2,2.64 -0.31,1.21 -1.2,2.77 -2.46,4.6 -1.26,1.82 -2.88,3.92 -4.24,6.29 -1.36,2.37 -2.45,5.03 -3.45,7.7 -1,2.68 -1.91,5.39 -2.55,8.4 -0.63,3.02 -0.99,6.35 -5.04,8.78 -4.04,2.43 -11.77,3.97 -22.72,6.16 -10.94,2.2 -25.1,5.04 -36.87,6.62 -11.76,1.58 -21.13,1.89 -30.08,1.6 -8.96,-0.28 -17.5,-1.17 -27.58,-1.45 -10.07,-0.28 -21.68,0.05 -31.29,-0.58 -9.61,-0.63 -17.22,-2.2 -25.34,-3.76 -8.13,-1.55 -16.78,-3.08 -23.15,-4.41 -6.37,-1.32 -10.45,-2.45 -12.14,-3.47 -1.69,-1.03 -0.98,-1.95 0.05,-3.01 1.03,-1.05 2.39,-2.24 4.18,-3.89 1.79,-1.65 4.03,-3.77 6.39,-7.11 2.36,-3.34 4.84,-7.91 6.72,-11.99 1.89,-4.08 3.17,-7.68 4.32,-11.27 1.15,-3.6 2.15,-7.19 2.83,-10.62 0.67,-3.43 1.01,-6.7 1.63,-8.18 0.62,-1.47 1.51,-1.15 2.27,0.02 0.77,1.17 1.41,3.2 1.68,5.13 0.26,1.93 0.15,3.77 -0.09,5.99 -0.24,2.23 -0.62,4.84 -0.98,7.92 -0.36,3.08 -0.7,6.62 -1.13,9.93 -0.42,3.32 -0.91,6.4 -0.94,7.71 -0.03,1.3 0.41,0.83 1.18,-1.18 0.78,-2.01 1.9,-5.55 3.5,-9.1 1.59,-3.55 3.66,-7.11 5.12,-10.79 1.45,-3.68 2.3,-7.48 2.65,-11.17 0.36,-3.7 0.22,-7.29 0.25,-11.13 0.03,-3.85 0.22,-7.95 0.59,-8.9 0.36,-0.94 0.9,1.28 1.28,3.15 0.38,1.87 0.61,3.39 0.81,4.26 0.2,0.88 0.37,1.11 0.9,0.3 0.53,-0.8 1.42,-2.64 2.41,-4.26 0.99,-1.62 2.08,-3.02 2.66,-2.47 0.57,0.55 0.62,3.05 0.44,5.97 -0.19,2.92 -0.62,6.26 -0.9,9.57 -0.28,3.32 -0.4,6.62 -0.68,10.35 -0.27,3.72 -0.69,7.87 -0.84,11.02 -0.15,3.16 -0.02,5.32 1.32,4.14 1.35,-1.17 3.92,-5.69 6.45,-9.96 2.53,-4.28 5.02,-8.33 7.9,-14.28 2.87,-5.95 6.13,-13.81 7.57,-19.7 1.45,-5.88 1.09,-9.79 0.84,-12.64 -0.25,-2.85 -0.39,-4.65 0.73,-4.8 1.11,-0.15 3.47,1.35 5.19,3.2 1.72,1.85 2.79,4.04 2.78,6.68 0,2.64 -1.09,5.72 -2.07,8.6 -0.98,2.88 -1.87,5.56 -3.35,9.31 -1.47,3.76 -3.54,8.59 -4.55,11.54 -1.01,2.95 -0.96,4.04 0.99,2.6 1.95,-1.44 5.81,-5.39 8.72,-8.42 2.9,-3.02 4.85,-5.12 6.03,-8.11 1.18,-2.99 1.59,-6.88 2.3,-9.51 0.7,-2.62 1.7,-3.99 2.85,-3.65 1.14,0.35 2.43,2.4 3.43,4.69 1,2.29 1.71,4.83 2.14,8.12 0.44,3.29 0.6,7.35 0.99,9.56 0.4,2.21 1.01,2.58 2.67,0.6 1.67,-1.99 4.38,-6.33 6.23,-9.69 1.86,-3.37 2.86,-5.77 3.73,-8.1 0.87,-2.33 1.61,-4.61 2.45,-6.58 0.84,-1.98 1.77,-3.65 3.1,-5.58 1.33,-1.92 3.05,-4.09 4.29,-5.71 1.24,-1.63 2.01,-2.7 2.38,-2.44 0.38,0.27 0.37,1.89 -0.35,4.1 -0.72,2.21 -2.15,5.02 -3.65,7.9 -1.51,2.89 -3.08,5.85 -4.23,8.43 -1.15,2.58 -1.87,4.78 -2.35,7.05 -0.48,2.28 -0.72,4.64 -0.19,7.5 0.54,2.87 1.86,6.23 3.1,8.91 1.25,2.68 2.43,4.69 3.43,4.98 1,0.29 1.82,-1.12 2.46,-2.52 0.63,-1.39 1.08,-2.76 1.71,-4.35 0.63,-1.59 1.44,-3.4 2.26,-5.59 0.83,-2.18 1.67,-4.75 2.59,-5.38 0.92,-0.62 1.94,0.7 1.94,2.49 0.01,1.79 -0.99,4.05 -1.61,7.03 -0.62,2.98 -0.88,6.68 -1.17,9.74 -0.29,3.06 -0.62,5.47 -0.81,7.49 -0.18,2.02 -0.22,3.64 0.45,3.68 0.68,0.04 2.06,-1.51 3.4,-3.9 1.34,-2.38 2.63,-5.6 4.47,-9.35 1.84,-3.75 4.23,-8.05 5.63,-10.83 1.4,-2.78 1.8,-4.05 2.15,-4.01 0.36,0.03 0.68,1.37 0.47,3.77 -0.2,2.4 -0.93,5.87 -1.81,8.55 -0.88,2.68 -1.92,4.57 -2.99,6.54 -1.06,1.97 -2.15,4.01 -2.96,6.12 -0.81,2.11 -1.34,4.29 -1.39,6.92 -0.06,2.63 0.36,5.71 1.13,8.61 0.76,2.9 1.87,5.63 2.55,6.85 0.69,1.23 0.94,0.95 1.88,-0.13 0.94,-1.08 2.55,-2.95 3.93,-5.65 1.37,-2.7 2.52,-6.22 3.44,-10.31 0.92,-4.1 1.62,-8.76 2.02,-11.67 0.41,-2.91 0.51,-4.06 0.84,-4.23 0.34,-0.16 0.91,0.67 1.59,1.73 0.68,1.07 1.47,2.38 1.85,3.71 0.39,1.33 0.37,2.67 -0.02,4.21 -0.39,1.54 -1.14,3.27 -1.07,3.97 0.06,0.69 0.94,0.36 1.93,-0.08 0.98,-0.44 2.08,-0.98 3.82,-1.32 1.75,-0.35 4.14,-0.49 4.96,-0.17 0.83,0.31 0.07,1.08 -0.98,1.95 -1.05,0.88 -2.39,1.86 -3.69,3.03 -1.3,1.18 -2.55,2.55 -3.89,4.74 -1.34,2.2 -2.76,5.2 -3.68,8.21 -0.91,3 -1.33,5.99 -1.05,7.16 0.29,1.16 1.28,0.49 2.92,0.6 1.65,0.11 3.94,1 5.85,1.8 1.9,0.8 3.42,1.52 4.7,1.05 1.28,-0.46 2.31,-2.11 3.11,-4.59 0.8,-2.47 1.37,-5.76 2.11,-10.1 0.75,-4.35 1.68,-9.75 1.87,-14.58 0.19,-4.82 -0.36,-9.07 -0.63,-11.96 -0.26,-2.89 -0.24,-4.43 0.43,-4.48 0.67,-0.05 1.99,1.39 2.69,2.97 0.71,1.57 0.8,3.27 0.85,5.41 0.05,2.14 0.04,4.72 0.11,6.57 0.07,1.86 0.21,3 1.04,2.41 0.84,-0.59 2.37,-2.91 3.54,-5.22 1.17,-2.31 1.98,-4.61 3.11,-7.63 1.13,-3.02 2.59,-6.75 3.79,-9.17 1.21,-2.41 2.17,-3.51 3.42,-4.54 1.26,-1.02 2.82,-1.98 4.07,-2.53 1.24,-0.54 2.18,-0.68 2.09,0.3 -0.08,0.99 -1.19,3.08 -2,4.83 -0.81,1.74 -1.33,3.13 -2.45,4.67 -1.13,1.53 -2.87,3.21 -3.86,4.55 -0.99,1.35 -1.24,2.37 -1.77,3.86 -0.53,1.5 -1.34,3.47 -2.16,5.63 -0.83,2.16 -1.66,4.51 -2.23,7.78 -0.57,3.26 -0.86,7.45 -1.25,12.22 -0.39,4.77 -0.86,10.11 -0.64,12.8 0.23,2.68 1.15,2.7 2.44,1.26 1.29,-1.44 2.96,-4.33 5.14,-7.43 2.18,-3.11 4.87,-6.43 6.42,-9.72 1.56,-3.28 1.97,-6.54 2.45,-9.64 0.49,-3.11 1.05,-6.06 1.86,-6.66 0.81,-0.59 1.86,1.17 2.49,2.92 0.63,1.76 0.84,3.51 0.31,5.85 -0.54,2.34 -1.81,5.26 -2.63,7.83 -0.82,2.57 -1.19,4.79 -0.01,5.15 1.18,0.36 3.92,-1.13 6.02,-3.61 2.1,-2.48 3.56,-5.95 4.41,-9.36 0.85,-3.42 1.07,-6.78 0.9,-10.35 -0.17,-3.58 -0.72,-7.36 -1.09,-11.38 -0.36,-4.02 -0.53,-8.26 -0.51,-11.97 0.03,-3.71 0.23,-6.88 0.76,-7.9 0.52,-1.03 1.37,0.1 2.09,1.75 0.72,1.65 1.3,3.82 1.96,6.1 0.65,2.28 1.37,4.65 1.7,8.05 0.33,3.4 0.27,7.82 0.06,12.1 -0.2,4.29 -0.54,8.45 -1.21,12.21 -0.66,3.76 -1.65,7.14 -1.9,9.5 -0.25,2.36 0.23,3.71 1.1,3.3 0.86,-0.42 2.1,-2.6 3.36,-4.82 1.27,-2.21 2.56,-4.46 3.62,-6.34 1.05,-1.88 1.88,-3.41 2.98,-4.87 1.11,-1.45 2.49,-2.85 3.71,-3.96 1.23,-1.11 2.29,-1.94 2.93,-2.25 0.64,-0.3 0.87,-0.08 1.12,0.47z"/>
    <path class="fil15" d="M689.06 1227.07c0.17,0.32 0.37,0.85 0.22,1.6 -0.14,0.75 -0.63,1.74 -1.33,2.9 -0.69,1.16 -1.6,2.5 -2.34,4 -0.74,1.5 -1.31,3.16 -1.82,4.84 -0.5,1.67 -0.96,3.35 -1.23,5.22 -0.27,1.86 -0.37,3.91 -2.74,5.55 -2.38,1.64 -7.04,2.87 -13.63,4.62 -6.6,1.76 -15.13,4.03 -22.25,5.44 -7.12,1.41 -12.82,1.96 -18.3,2.12 -5.48,0.17 -10.72,-0.05 -16.88,0.17 -6.16,0.21 -13.23,0.85 -19.12,0.83 -5.89,-0.01 -10.59,-0.69 -15.61,-1.33 -5.02,-0.64 -10.36,-1.24 -14.29,-1.81 -3.94,-0.57 -6.47,-1.1 -7.54,-1.66 -1.07,-0.56 -0.67,-1.15 -0.08,-1.83 0.59,-0.69 1.37,-1.46 2.4,-2.54 1.03,-1.07 2.31,-2.45 3.63,-4.58 1.31,-2.13 2.65,-5.01 3.64,-7.57 1,-2.56 1.65,-4.81 2.21,-7.05 0.56,-2.23 1.04,-4.46 1.32,-6.58 0.28,-2.12 0.37,-4.13 0.69,-5.05 0.32,-0.93 0.87,-0.77 1.38,-0.08 0.52,0.69 0.98,1.9 1.22,3.07 0.24,1.16 0.24,2.29 0.17,3.66 -0.06,1.36 -0.19,2.97 -0.29,4.87 -0.11,1.89 -0.18,4.06 -0.31,6.1 -0.13,2.04 -0.32,3.94 -0.29,4.74 0.03,0.8 0.28,0.49 0.68,-0.77 0.4,-1.25 0.95,-3.45 1.79,-5.68 0.84,-2.23 1.96,-4.48 2.71,-6.78 0.75,-2.3 1.12,-4.65 1.2,-6.92 0.08,-2.27 -0.14,-4.45 -0.27,-6.8 -0.13,-2.35 -0.17,-4.86 0.02,-5.45 0.18,-0.59 0.59,0.74 0.9,1.87 0.3,1.12 0.5,2.04 0.66,2.57 0.15,0.53 0.27,0.66 0.56,0.15 0.29,-0.51 0.76,-1.67 1.3,-2.69 0.55,-1.03 1.16,-1.93 1.53,-1.61 0.37,0.31 0.5,1.84 0.5,3.63 -0.01,1.79 -0.14,3.83 -0.19,5.87 -0.04,2.03 0.01,4.05 -0.02,6.34 -0.02,2.28 -0.12,4.83 -0.09,6.76 0.03,1.93 0.19,3.24 0.96,2.47 0.78,-0.76 2.18,-3.62 3.56,-6.32 1.38,-2.71 2.75,-5.27 4.28,-9.01 1.52,-3.75 3.21,-8.67 3.87,-12.31 0.66,-3.65 0.29,-6.02 0.03,-7.75 -0.26,-1.73 -0.41,-2.82 0.26,-2.95 0.68,-0.14 2.17,0.69 3.29,1.75 1.12,1.06 1.86,2.36 1.95,3.97 0.1,1.61 -0.44,3.53 -0.93,5.33 -0.49,1.79 -0.93,3.46 -1.69,5.81 -0.76,2.34 -1.84,5.37 -2.34,7.21 -0.5,1.84 -0.44,2.5 0.7,1.55 1.14,-0.95 3.34,-3.51 5,-5.47 1.66,-1.96 2.76,-3.31 3.37,-5.18 0.61,-1.87 0.71,-4.26 1.04,-5.89 0.33,-1.63 0.89,-2.5 1.6,-2.33 0.72,0.16 1.58,1.37 2.28,2.73 0.7,1.36 1.22,2.88 1.61,4.87 0.39,1.99 0.65,4.46 0.97,5.8 0.33,1.33 0.72,1.53 1.65,0.26 0.94,-1.28 2.43,-4.03 3.43,-6.15 1.01,-2.13 1.53,-3.63 1.97,-5.08 0.45,-1.46 0.81,-2.88 1.25,-4.11 0.43,-1.24 0.94,-2.3 1.68,-3.52 0.74,-1.23 1.7,-2.62 2.4,-3.66 0.7,-1.03 1.12,-1.72 1.36,-1.57 0.24,0.15 0.3,1.14 -0.06,2.51 -0.36,1.38 -1.12,3.15 -1.93,4.97 -0.81,1.81 -1.66,3.68 -2.26,5.3 -0.6,1.62 -0.96,2.98 -1.17,4.39 -0.2,1.41 -0.26,2.86 0.18,4.58 0.43,1.73 1.36,3.73 2.23,5.32 0.86,1.59 1.66,2.77 2.28,2.91 0.62,0.14 1.07,-0.75 1.4,-1.63 0.34,-0.87 0.56,-1.73 0.88,-2.72 0.32,-0.99 0.75,-2.13 1.17,-3.5 0.42,-1.36 0.84,-2.96 1.38,-3.38 0.54,-0.41 1.2,0.36 1.28,1.45 0.07,1.09 -0.45,2.51 -0.72,4.35 -0.27,1.84 -0.28,4.11 -0.34,5.99 -0.07,1.87 -0.18,3.36 -0.21,4.6 -0.04,1.24 0,2.23 0.41,2.23 0.41,-0.01 1.2,-1.01 1.93,-2.51 0.72,-1.51 1.39,-3.52 2.37,-5.88 0.98,-2.36 2.28,-5.07 3.02,-6.82 0.75,-1.75 0.94,-2.54 1.16,-2.53 0.22,0 0.47,0.81 0.43,2.28 -0.03,1.48 -0.34,3.62 -0.78,5.29 -0.43,1.67 -1,2.86 -1.57,4.11 -0.58,1.24 -1.16,2.52 -1.58,3.84 -0.41,1.32 -0.65,2.67 -0.58,4.28 0.06,1.6 0.44,3.47 1.01,5.21 0.58,1.74 1.36,3.36 1.82,4.08 0.47,0.72 0.61,0.54 1.14,-0.15 0.53,-0.7 1.45,-1.9 2.18,-3.6 0.74,-1.7 1.31,-3.89 1.71,-6.42 0.41,-2.53 0.66,-5.41 0.8,-7.2 0.13,-1.79 0.15,-2.5 0.35,-2.61 0.19,-0.11 0.57,0.37 1.03,1 0.46,0.62 0.99,1.39 1.27,2.19 0.29,0.79 0.33,1.61 0.15,2.57 -0.18,0.95 -0.57,2.03 -0.51,2.46 0.07,0.42 0.59,0.19 1.18,-0.12 0.58,-0.3 1.23,-0.68 2.28,-0.95 1.06,-0.28 2.51,-0.46 3.03,-0.3 0.51,0.16 0.08,0.66 -0.53,1.23 -0.61,0.58 -1.39,1.23 -2.14,1.99 -0.74,0.77 -1.46,1.66 -2.19,3.05 -0.73,1.38 -1.49,3.27 -1.93,5.14 -0.45,1.87 -0.59,3.71 -0.37,4.41 0.22,0.7 0.8,0.25 1.8,0.26 1.01,0 2.44,0.45 3.64,0.87 1.19,0.42 2.15,0.8 2.91,0.47 0.76,-0.34 1.33,-1.38 1.72,-2.92 0.4,-1.54 0.62,-3.57 0.91,-6.25 0.29,-2.68 0.65,-6.01 0.58,-8.97 -0.07,-2.95 -0.56,-5.51 -0.84,-7.27 -0.27,-1.75 -0.31,-2.69 0.09,-2.75 0.41,-0.06 1.27,0.77 1.76,1.71 0.49,0.93 0.62,1.96 0.72,3.27 0.11,1.3 0.21,2.88 0.32,4.01 0.11,1.13 0.24,1.82 0.73,1.42 0.49,-0.39 1.33,-1.86 1.96,-3.31 0.62,-1.46 1.03,-2.89 1.61,-4.78 0.57,-1.88 1.32,-4.22 1.96,-5.74 0.65,-1.52 1.19,-2.22 1.92,-2.9 0.73,-0.67 1.64,-1.32 2.38,-1.7 0.74,-0.38 1.31,-0.5 1.29,0.11 -0.01,0.6 -0.61,1.92 -1.04,3.02 -0.43,1.09 -0.69,1.96 -1.32,2.94 -0.62,0.98 -1.62,2.07 -2.18,2.93 -0.55,0.86 -0.67,1.49 -0.93,2.42 -0.27,0.93 -0.69,2.17 -1.11,3.52 -0.42,1.35 -0.84,2.81 -1.06,4.82 -0.22,2.02 -0.24,4.59 -0.3,7.51 -0.05,2.93 -0.14,6.21 0.1,7.84 0.24,1.62 0.8,1.6 1.54,0.67 0.73,-0.92 1.64,-2.75 2.85,-4.73 1.21,-1.97 2.73,-4.1 3.55,-6.17 0.82,-2.07 0.95,-4.07 1.13,-5.98 0.18,-1.91 0.41,-3.74 0.88,-4.13 0.47,-0.4 1.18,0.64 1.63,1.68 0.45,1.05 0.64,2.11 0.41,3.56 -0.24,1.45 -0.9,3.28 -1.31,4.88 -0.4,1.6 -0.54,2.97 0.19,3.14 0.74,0.18 2.35,-0.84 3.54,-2.43 1.19,-1.59 1.95,-3.76 2.33,-5.88 0.39,-2.11 0.4,-4.17 0.16,-6.35 -0.24,-2.17 -0.72,-4.46 -1.1,-6.9 -0.37,-2.44 -0.63,-5.02 -0.76,-7.29 -0.13,-2.26 -0.13,-4.2 0.16,-4.85 0.28,-0.64 0.84,0.01 1.34,0.99 0.5,0.98 0.94,2.28 1.43,3.65 0.48,1.36 1.01,2.79 1.34,4.85 0.33,2.06 0.46,4.76 0.5,7.38 0.04,2.63 -0.01,5.18 -0.27,7.5 -0.27,2.32 -0.74,4.42 -0.8,5.87 -0.07,1.45 0.28,2.25 0.79,1.97 0.51,-0.29 1.18,-1.67 1.87,-3.07 0.69,-1.4 1.39,-2.82 1.97,-4.01 0.57,-1.19 1.01,-2.15 1.63,-3.08 0.62,-0.93 1.41,-1.83 2.12,-2.56 0.7,-0.72 1.32,-1.27 1.7,-1.48 0.38,-0.21 0.53,-0.09 0.7,0.24z"/>
    <g>
     <path class="fil16" d="M1384.63 1289.91c13.4,-2.1 98.51,-4.45 180.4,-5.11 81.89,-0.66 160.55,0.37 220.06,1.17 59.51,0.79 99.85,1.34 112.32,2.41 12.46,1.08 -2.97,2.67 -45.18,3.98 -42.21,1.31 -111.22,2.34 -176.41,2.86 -65.18,0.51 -126.56,0.51 -186.41,-0.42 -59.85,-0.93 -118.17,-2.79 -104.78,-4.89z"/>
     <path class="fil17" d="M1096.38 1339.2c13.67,-2.11 100.59,-4.46 184.21,-5.11 83.62,-0.66 163.95,0.37 224.71,1.16 60.77,0.79 101.97,1.35 114.69,2.42 12.73,1.07 -3.02,2.66 -46.13,3.98 -43.11,1.31 -113.57,2.34 -180.13,2.85 -66.57,0.52 -129.24,0.52 -190.36,-0.41 -61.11,-0.93 -120.67,-2.79 -106.99,-4.89z"/>
     <path class="fil18" d="M1448.97 1387.24c9.76,-2.1 71.78,-4.45 131.46,-5.11 59.67,-0.66 117,0.37 160.37,1.17 43.36,0.79 72.76,1.34 81.85,2.41 9.08,1.08 -2.16,2.67 -32.93,3.98 -30.76,1.31 -81.04,2.34 -128.55,2.86 -47.51,0.51 -92.23,0.51 -135.85,-0.42 -43.61,-0.93 -86.11,-2.79 -76.35,-4.89z"/>
     <path class="fil19" d="M1398.45 1459.71c9.95,-2.1 73.22,-4.45 134.08,-5.11 60.87,-0.66 119.35,0.37 163.58,1.17 44.23,0.79 74.22,1.34 83.48,2.42 9.26,1.07 -2.2,2.66 -33.58,3.97 -31.38,1.31 -82.67,2.34 -131.12,2.86 -48.46,0.51 -94.08,0.51 -138.56,-0.42 -44.49,-0.93 -87.84,-2.79 -77.88,-4.89z"/>
     <path class="fil20" d="M1177.42 1541.08c13.86,-2.11 101.94,-4.45 186.7,-5.11 84.75,-0.66 166.17,0.37 227.75,1.16 61.59,0.79 103.35,1.35 116.24,2.42 12.9,1.07 -3.06,2.67 -46.75,3.98 -43.69,1.31 -115.11,2.34 -182.57,2.85 -67.47,0.52 -130.99,0.52 -192.93,-0.41 -61.94,-0.93 -122.31,-2.79 -108.44,-4.89z"/>
     <path class="fil21" d="M1290.82 1700.47c5.02,-2.1 36.86,-4.45 67.5,-5.11 30.63,-0.65 60.07,0.38 82.33,1.17 22.26,0.79 37.36,1.34 42.02,2.42 4.66,1.07 -1.11,2.66 -16.9,3.97 -15.79,1.32 -41.61,2.35 -66,2.86 -24.39,0.52 -47.35,0.52 -69.74,-0.41 -22.4,-0.93 -44.22,-2.79 -39.21,-4.9z"/>
     <path class="fil22" d="M1140.03 1631.94c7.23,-2.11 53.16,-4.45 97.36,-5.11 44.2,-0.66 86.66,0.37 118.78,1.16 32.11,0.79 53.89,1.35 60.62,2.42 6.72,1.08 -1.6,2.67 -24.39,3.98 -22.78,1.31 -60.02,2.34 -95.21,2.86 -35.18,0.51 -68.31,0.51 -100.61,-0.42 -32.3,-0.93 -63.78,-2.79 -56.55,-4.89z"/>
     <path class="fil23" d="M1074.28 1827.28c7.3,-2.1 53.71,-4.45 98.37,-5.11 44.65,-0.65 87.55,0.38 120,1.17 32.45,0.79 54.45,1.35 61.25,2.42 6.79,1.07 -1.62,2.66 -24.64,3.98 -23.02,1.31 -60.65,2.34 -96.2,2.85 -35.54,0.52 -69.01,0.52 -101.65,-0.41 -32.63,-0.93 -64.44,-2.79 -57.13,-4.9z"/>
     <path class="fil24" d="M1431.29 1590.94c4.74,-2.1 34.8,-4.45 63.72,-5.11 28.92,-0.66 56.71,0.37 77.72,1.16 21.02,0.8 35.27,1.35 39.67,2.42 4.4,1.08 -1.04,2.67 -15.95,3.98 -14.91,1.31 -39.28,2.34 -62.31,2.86 -23.02,0.51 -44.7,0.51 -65.84,-0.42 -21.14,-0.93 -41.74,-2.79 -37.01,-4.89z"/>
     <path class="fil25" d="M996.98 1714.65c6.77,-2.11 49.78,-4.45 91.15,-5.11 41.38,-0.66 81.13,0.37 111.2,1.16 30.06,0.79 50.45,1.35 56.75,2.42 6.29,1.07 -1.5,2.67 -22.83,3.98 -21.33,1.31 -56.2,2.34 -89.13,2.85 -32.94,0.52 -63.95,0.52 -94.19,-0.41 -30.24,-0.93 -59.71,-2.79 -52.95,-4.89z"/>
     <path class="fil26" d="M1166.31 1404.13c6.69,-2.1 49.24,-4.45 90.17,-5.11 40.93,-0.66 80.25,0.37 109.99,1.17 29.75,0.79 49.91,1.34 56.14,2.42 6.23,1.07 -1.48,2.66 -22.58,3.97 -21.1,1.31 -55.59,2.34 -88.17,2.86 -32.59,0.51 -63.26,0.51 -93.18,-0.42 -29.91,-0.93 -59.06,-2.79 -52.37,-4.89z"/>
     <path class="fil27" d="M1219.82 1291.97c3.41,-2.1 25.09,-4.45 45.95,-5.11 20.86,-0.66 40.9,0.38 56.06,1.17 15.15,0.79 25.43,1.34 28.61,2.42 3.17,1.07 -0.76,2.66 -11.51,3.97 -10.75,1.31 -28.33,2.34 -44.94,2.86 -16.6,0.52 -32.24,0.52 -47.48,-0.41 -15.25,-0.93 -30.1,-2.79 -26.69,-4.9z"/>
     <path class="fil28" d="M1676.23 1334.52c4.71,-1.77 34.67,-3.75 63.5,-4.3 28.82,-0.56 56.52,0.31 77.46,0.98 20.95,0.66 35.15,1.13 39.54,2.03 4.39,0.91 -1.04,2.25 -15.9,3.35 -14.86,1.1 -39.15,1.97 -62.1,2.41 -22.95,0.43 -44.55,0.43 -65.62,-0.35 -21.07,-0.79 -41.6,-2.35 -36.88,-4.12z"/>
    </g>
    <g>
     <path class="fil29" d="M1347.94 1451.8c-3.6,-1.05 -26.47,-2.23 -48.47,-2.56 -22.01,-0.33 -43.14,0.19 -59.13,0.59 -15.99,0.39 -26.83,0.67 -30.18,1.21 -3.35,0.53 0.8,1.33 12.14,1.99 11.34,0.65 29.88,1.17 47.4,1.42 17.51,0.26 34,0.26 50.08,-0.2 16.09,-0.47 31.76,-1.4 28.16,-2.45z"/>
     <path class="fil30" d="M350.32 1355.79c16.09,-2.1 118.32,-4.45 216.67,-5.11 98.36,-0.65 192.85,0.38 264.33,1.17 71.47,0.79 119.93,1.34 134.9,2.42 14.96,1.07 -3.56,2.66 -54.27,3.97 -50.7,1.32 -133.58,2.35 -211.88,2.86 -78.3,0.52 -152.01,0.52 -223.9,-0.41 -71.88,-0.93 -141.94,-2.79 -125.85,-4.9z"/>
     <path class="fil31" d="M159.77 1405.08c17.88,-2.1 131.54,-4.45 240.89,-5.11 109.35,-0.66 214.4,0.37 293.86,1.16 79.46,0.8 133.34,1.35 149.98,2.42 16.64,1.08 -3.96,2.67 -60.33,3.98 -56.37,1.31 -148.51,2.34 -235.56,2.86 -87.05,0.51 -169.01,0.51 -248.93,-0.42 -79.92,-0.93 -157.8,-2.79 -139.91,-4.89z"/>
     <path class="fil32" d="M415.57 1453.12c18.79,-2.1 138.22,-4.45 253.13,-5.11 114.91,-0.65 225.3,0.38 308.8,1.17 83.5,0.79 140.11,1.34 157.6,2.42 17.48,1.07 -4.16,2.66 -63.39,3.97 -59.24,1.32 -156.07,2.35 -247.54,2.86 -91.47,0.52 -177.59,0.52 -261.57,-0.41 -83.98,-0.93 -165.82,-2.79 -147.03,-4.9z"/>
     <path class="fil33" d="M363.59 1525.59c8.93,-2.1 65.66,-4.45 120.25,-5.11 54.58,-0.65 107.02,0.38 146.68,1.17 39.67,0.79 66.56,1.35 74.87,2.42 8.3,1.07 -1.98,2.66 -30.12,3.98 -28.13,1.31 -74.13,2.34 -117.58,2.85 -43.45,0.52 -84.36,0.52 -124.25,-0.41 -39.9,-0.93 -78.77,-2.79 -69.85,-4.9z"/>
     <path class="fil34" d="M305.13 1606.96c10.51,-2.1 77.24,-4.45 141.44,-5.11 64.21,-0.66 125.89,0.37 172.55,1.17 46.66,0.79 78.29,1.34 88.06,2.41 9.77,1.08 -2.32,2.67 -35.42,3.98 -33.1,1.31 -87.2,2.34 -138.31,2.86 -51.12,0.51 -99.24,0.51 -146.16,-0.42 -46.93,-0.93 -92.66,-2.79 -82.16,-4.89z"/>
     <path class="fil35" d="M396.42 1656.82c3.54,-2.1 26.03,-4.45 47.66,-5.11 21.64,-0.65 42.42,0.38 58.15,1.17 15.72,0.79 26.38,1.34 29.67,2.42 3.29,1.07 -0.78,2.66 -11.93,3.97 -11.16,1.31 -29.39,2.35 -46.61,2.86 -17.23,0.52 -33.44,0.52 -49.26,-0.41 -15.81,-0.93 -31.22,-2.79 -27.68,-4.9z"/>
     <path class="fil36" d="M131.61 1470.01c6.69,-2.1 49.23,-4.45 90.16,-5.11 40.94,-0.65 80.26,0.38 110,1.17 29.74,0.79 49.91,1.35 56.14,2.42 6.23,1.07 -1.48,2.66 -22.58,3.98 -21.1,1.31 -55.59,2.34 -88.17,2.85 -32.59,0.52 -63.27,0.52 -93.18,-0.41 -29.91,-0.93 -59.07,-2.79 -52.37,-4.9z"/>
     <path class="fil37" d="M131.57 1357.86c4.8,-2.11 35.3,-4.46 64.64,-5.11 29.34,-0.66 57.52,0.37 78.85,1.16 21.32,0.79 35.77,1.35 40.24,2.42 4.46,1.07 -1.06,2.66 -16.19,3.98 -15.12,1.31 -39.85,2.34 -63.2,2.85 -23.36,0.52 -45.35,0.52 -66.8,-0.41 -21.44,-0.93 -42.34,-2.79 -37.54,-4.89z"/>
     <path class="fil38" d="M313.24 1517.68c-3.6,-1.05 -26.47,-2.22 -48.48,-2.55 -22,-0.33 -43.14,0.18 -59.12,0.58 -15.99,0.4 -26.83,0.67 -30.18,1.21 -3.35,0.54 0.79,1.33 12.14,1.99 11.34,0.65 29.88,1.17 47.39,1.43 17.52,0.25 34.01,0.25 50.09,-0.21 16.08,-0.47 31.75,-1.4 28.16,-2.45z"/>
     <path class="fil39" d="M1159.89 1886.07c-11.47,2.11 -84.39,4.46 -154.55,5.11 -70.16,0.66 -137.56,-0.37 -188.55,-1.16 -50.98,-0.79 -85.55,-1.35 -96.22,-2.42 -10.68,-1.07 2.53,-2.67 38.7,-3.98 36.17,-1.31 95.29,-2.34 151.14,-2.85 55.85,-0.52 108.44,-0.52 159.71,0.41 51.28,0.93 101.25,2.79 89.77,4.89z"/>
     <path class="fil40" d="M999.59 1765.56c-13.86,2.1 -101.93,4.45 -186.67,5.11 -84.74,0.66 -166.15,-0.37 -227.73,-1.17 -61.58,-0.79 -103.33,-1.34 -116.22,-2.42 -12.9,-1.07 3.06,-2.66 46.74,-3.97 43.69,-1.31 115.09,-2.34 182.55,-2.86 67.46,-0.51 130.97,-0.51 192.9,0.42 61.94,0.93 122.29,2.79 108.43,4.89z"/>
     <path class="fil41" d="M868.03 1684.19c-8.08,2.11 -59.42,4.45 -108.81,5.11 -49.39,0.66 -96.84,-0.37 -132.73,-1.16 -35.89,-0.79 -60.22,-1.35 -67.74,-2.42 -7.52,-1.07 1.79,-2.67 27.25,-3.98 25.46,-1.31 67.08,-2.34 106.4,-2.85 39.31,-0.52 76.33,-0.52 112.43,0.41 36.1,0.93 71.28,2.79 63.2,4.89z"/>
     <path class="fil42" d="M1184.16 1524.8c-11.94,2.1 -87.82,4.45 -160.83,5.11 -73,0.65 -143.14,-0.38 -196.19,-1.17 -53.05,-0.79 -89.02,-1.34 -100.13,-2.42 -11.11,-1.07 2.64,-2.66 40.27,-3.97 37.64,-1.32 99.16,-2.35 157.28,-2.86 58.11,-0.52 112.83,-0.52 166.19,0.41 53.36,0.93 105.36,2.79 93.41,4.9z"/>
     <path class="fil43" d="M1067.49 1593.33c-7.23,2.11 -53.17,4.45 -97.37,5.11 -44.2,0.66 -86.66,-0.37 -118.77,-1.16 -32.12,-0.79 -53.9,-1.35 -60.62,-2.42 -6.73,-1.08 1.6,-2.67 24.38,-3.98 22.78,-1.31 60.03,-2.34 95.21,-2.86 35.19,-0.51 68.31,-0.51 100.61,0.42 32.31,0.93 63.78,2.79 56.56,4.89z"/>
     <path class="fil44" d="M1133.26 1397.99c-7.1,2.1 -52.28,4.45 -95.74,5.1 -43.46,0.66 -85.21,-0.37 -116.8,-1.16 -31.58,-0.79 -52.99,-1.35 -59.61,-2.42 -6.61,-1.07 1.58,-2.66 23.98,-3.98 22.41,-1.31 59.03,-2.34 93.63,-2.85 34.6,-0.52 67.17,-0.52 98.93,0.41 31.77,0.93 62.72,2.79 55.61,4.9z"/>
     <path class="fil45" d="M1064.96 1666.26c-3.53,2.1 -26.02,4.45 -47.66,5.11 -21.63,0.66 -42.42,-0.37 -58.14,-1.17 -15.73,-0.79 -26.39,-1.34 -29.68,-2.42 -3.29,-1.07 0.78,-2.66 11.94,-3.97 11.15,-1.31 29.38,-2.34 46.61,-2.86 17.22,-0.51 33.44,-0.51 49.25,0.42 15.81,0.93 31.22,2.79 27.68,4.89z"/>
     <path class="fil46" d="M1041.2 1821.14c-6.69,2.1 -49.24,4.45 -90.17,5.11 -40.93,0.66 -80.25,-0.37 -109.99,-1.17 -29.74,-0.79 -49.91,-1.34 -56.14,-2.42 -6.23,-1.07 1.48,-2.66 22.58,-3.97 21.1,-1.31 55.59,-2.34 88.17,-2.86 32.59,-0.51 63.26,-0.51 93.18,0.42 29.91,0.93 59.07,2.79 52.37,4.89z"/>
     <path class="fil47" d="M1124.81 1933.3c-6.97,2.1 -51.22,4.45 -93.8,5.11 -42.58,0.66 -83.48,-0.37 -114.42,-1.17 -30.95,-0.79 -51.92,-1.34 -58.4,-2.42 -6.48,-1.07 1.54,-2.66 23.49,-3.97 21.95,-1.31 57.82,-2.34 91.72,-2.86 33.9,-0.51 65.81,-0.51 96.93,0.42 31.11,0.93 61.44,2.78 54.48,4.89z"/>
    </g>
   </g>
   <g>
    <rect class="fil48" x="161.41" y="1030.51" width="71.06" height="12.6"/>
    <rect class="fil48" x="161.41" y="1081.5" width="71.06" height="12.6"/>
    <rect class="fil48" x="161.41" y="1055.5" width="71.06" height="12.6"/>
    <rect class="fil48" x="519.65" y="1140.34" width="57.53" height="12.6"/>
    <rect class="fil48" x="1404.82" y="1032.47" width="62.65" height="12.6"/>
    <rect class="fil48" x="1404.82" y="1083.46" width="62.65" height="12.6"/>
    <rect class="fil48" x="1404.82" y="1057.46" width="62.65" height="12.6"/>
    <rect class="fil48" x="1404.82" y="1108.47" width="62.65" height="12.6"/>
    <rect class="fil48" x="1404.82" y="1134.56" width="62.65" height="12.6"/>
    <rect class="fil48" x="1404.82" y="1185.54" width="62.65" height="12.6"/>
    <rect class="fil48" x="1404.82" y="1159.55" width="62.65" height="12.6"/>
    <rect class="fil48" x="1404.82" y="1210.55" width="62.65" height="12.6"/>
    <rect class="fil48" x="1232.03" y="1050.77" width="54.25" height="12.6"/>
    <rect class="fil48" x="1232.03" y="1101.75" width="54.25" height="12.6"/>
    <rect class="fil48" x="1232.03" y="1075.76" width="54.25" height="12.6"/>
    <rect class="fil48" x="1232.03" y="1126.77" width="54.25" height="12.6"/>
    <rect class="fil48" x="1232.03" y="1151.5" width="54.25" height="12.6"/>
    <rect class="fil48" x="1232.03" y="1202.49" width="54.25" height="12.6"/>
    <rect class="fil48" x="1232.03" y="1176.49" width="54.25" height="12.6"/>
    <rect class="fil48" x="519.65" y="1162.54" width="57.53" height="12.6"/>
    <rect class="fil48" x="1662.49" y="1202.49" width="156.83" height="12.6"/>
   </g>
  </g>
 </g>
</svg>
