<?xml version="1.0" encoding="UTF-8"?>
<!DOCTYPE svg PUBLIC "-//W3C//DTD SVG 1.1//EN" "http://www.w3.org/Graphics/SVG/1.1/DTD/svg11.dtd">
<!-- Creator: CorelDRAW -->
<svg xmlns="http://www.w3.org/2000/svg" xml:space="preserve" width="6250px" height="6250px" version="1.1" style="shape-rendering:geometricPrecision; text-rendering:geometricPrecision; image-rendering:optimizeQuality; fill-rule:evenodd; clip-rule:evenodd"
viewBox="0 0 7930.19 7930.21"
 xmlns:xlink="http://www.w3.org/1999/xlink"
 xmlns:xodm="http://www.corel.com/coreldraw/odm/2003">
 <defs>
  <style type="text/css">
   <![CDATA[
    .fil14 {fill:#361C23}
    .fil49 {fill:#4DBAAE}
    .fil20 {fill:url(#id0)}
    .fil10 {fill:url(#id1)}
    .fil31 {fill:url(#id2)}
    .fil23 {fill:url(#id3)}
    .fil42 {fill:url(#id4)}
    .fil11 {fill:url(#id5)}
    .fil41 {fill:url(#id6)}
    .fil34 {fill:url(#id7)}
    .fil43 {fill:url(#id8)}
    .fil19 {fill:url(#id9)}
    .fil21 {fill:url(#id10)}
    .fil45 {fill:url(#id11)}
    .fil37 {fill:url(#id12)}
    .fil26 {fill:url(#id13)}
    .fil18 {fill:url(#id14)}
    .fil29 {fill:url(#id15)}
    .fil24 {fill:url(#id16)}
    .fil12 {fill:url(#id17)}
    .fil35 {fill:url(#id18)}
    .fil32 {fill:url(#id19)}
    .fil3 {fill:url(#id20)}
    .fil6 {fill:url(#id21)}
    .fil5 {fill:url(#id22)}
    .fil36 {fill:url(#id23)}
    .fil47 {fill:url(#id24)}
    .fil48 {fill:url(#id25)}
    .fil46 {fill:url(#id26)}
    .fil38 {fill:url(#id27)}
    .fil33 {fill:url(#id28)}
    .fil28 {fill:url(#id29)}
    .fil22 {fill:url(#id30)}
    .fil39 {fill:url(#id31)}
    .fil25 {fill:url(#id32)}
    .fil27 {fill:url(#id33)}
    .fil30 {fill:url(#id34)}
    .fil13 {fill:url(#id35)}
    .fil44 {fill:url(#id36)}
    .fil40 {fill:url(#id37)}
    .fil4 {fill:url(#id38)}
    .fil2 {fill:url(#id39)}
    .fil1 {fill:url(#id40)}
    .fil9 {fill:url(#id41)}
    .fil17 {fill:url(#id42)}
    .fil16 {fill:url(#id43)}
    .fil8 {fill:url(#id44)}
    .fil15 {fill:url(#id45)}
    .fil7 {fill:url(#id46)}
    .fil0 {fill:url(#id47);fill-rule:nonzero}
   ]]>
  </style>
  <linearGradient id="id0" gradientUnits="userSpaceOnUse" x1="6326.27" y1="5021.01" x2="4816.5" y2="7388.84">
   <stop offset="0" style="stop-opacity:1; stop-color:#F7BC1A"/>
   <stop offset="0.301961" style="stop-opacity:1; stop-color:#F3755E"/>
   <stop offset="0.6" style="stop-opacity:1; stop-color:#B73F66"/>
   <stop offset="1" style="stop-opacity:1; stop-color:#6D1A4D"/>
  </linearGradient>
  <linearGradient id="id1" gradientUnits="userSpaceOnUse" x1="5499.1" y1="8000.15" x2="6845.82" y2="4549.18">
   <stop offset="0" style="stop-opacity:1; stop-color:#3D1145"/>
   <stop offset="0.368627" style="stop-opacity:1; stop-color:#982255"/>
   <stop offset="0.6" style="stop-opacity:1; stop-color:#C2496C"/>
   <stop offset="1" style="stop-opacity:1; stop-color:#FB7C5C"/>
  </linearGradient>
  <linearGradient id="id2" gradientUnits="userSpaceOnUse" x1="3285.94" y1="5131.83" x2="2003.99" y2="7747.03">
   <stop offset="0" style="stop-opacity:1; stop-color:#CF5463"/>
   <stop offset="0.301961" style="stop-opacity:1; stop-color:#A02A5A"/>
   <stop offset="0.6" style="stop-opacity:1; stop-color:#5C174A"/>
   <stop offset="1" style="stop-opacity:1; stop-color:#3D1145"/>
  </linearGradient>
  <linearGradient id="id3" gradientUnits="userSpaceOnUse" xlink:href="#id0" x1="6337.67" y1="5148.12" x2="4773.84" y2="7395.14">
  </linearGradient>
  <linearGradient id="id4" gradientUnits="userSpaceOnUse" xlink:href="#id2" x1="3151.34" y1="5299.81" x2="1730.41" y2="7716.56">
  </linearGradient>
  <linearGradient id="id5" gradientUnits="userSpaceOnUse" x1="1925.97" y1="3051.28" x2="1765.18" y2="3029.49">
   <stop offset="0" style="stop-opacity:1; stop-color:#FD7F78"/>
   <stop offset="0.211765" style="stop-opacity:1; stop-color:#9A4E4E"/>
   <stop offset="1" style="stop-opacity:1; stop-color:#361C23"/>
  </linearGradient>
  <linearGradient id="id6" gradientUnits="userSpaceOnUse" xlink:href="#id2" x1="3279.11" y1="5112.02" x2="2205.68" y2="7939">
  </linearGradient>
  <linearGradient id="id7" gradientUnits="userSpaceOnUse" xlink:href="#id2" x1="3133.11" y1="5266.59" x2="1712.13" y2="7684.41">
  </linearGradient>
  <linearGradient id="id8" gradientUnits="userSpaceOnUse" xlink:href="#id2" x1="2227.49" y1="4954.07" x2="1474.55" y2="7998.17">
  </linearGradient>
  <linearGradient id="id9" gradientUnits="userSpaceOnUse" xlink:href="#id0" x1="6063.4" y1="4938.73" x2="4630.87" y2="7450.32">
  </linearGradient>
  <linearGradient id="id10" gradientUnits="userSpaceOnUse" xlink:href="#id0" x1="6331.09" y1="5021.3" x2="4832.91" y2="7419.49">
  </linearGradient>
  <linearGradient id="id11" gradientUnits="userSpaceOnUse" xlink:href="#id2" x1="1845.87" y1="5029.85" x2="784.01" y2="7867.73">
  </linearGradient>
  <linearGradient id="id12" gradientUnits="userSpaceOnUse" xlink:href="#id2" x1="3091.68" y1="5254.78" x2="1670.75" y2="7672.61">
  </linearGradient>
  <linearGradient id="id13" gradientUnits="userSpaceOnUse" xlink:href="#id0" x1="6199.06" y1="4943.07" x2="4836.01" y2="7557.55">
  </linearGradient>
  <linearGradient id="id14" gradientUnits="userSpaceOnUse" xlink:href="#id0" x1="6378.94" y1="5060.94" x2="4815.11" y2="7307.35">
  </linearGradient>
  <linearGradient id="id15" gradientUnits="userSpaceOnUse" xlink:href="#id0" x1="6322.03" y1="5061.41" x2="4758.16" y2="7307.31">
  </linearGradient>
  <linearGradient id="id16" gradientUnits="userSpaceOnUse" xlink:href="#id0" x1="6322.82" y1="5133.96" x2="4758.99" y2="7380.36">
  </linearGradient>
  <linearGradient id="id17" gradientUnits="userSpaceOnUse" xlink:href="#id5" x1="2618.03" y1="3952.8" x2="2558.9" y2="3957.01">
  </linearGradient>
  <linearGradient id="id18" gradientUnits="userSpaceOnUse" xlink:href="#id2" x1="3376.8" y1="5147.6" x2="2160.49" y2="7837.98">
  </linearGradient>
  <linearGradient id="id19" gradientUnits="userSpaceOnUse" xlink:href="#id2" x1="3989.76" y1="5024.81" x2="2943.36" y2="7874.56">
  </linearGradient>
  <linearGradient id="id20" gradientUnits="userSpaceOnUse" x1="6317.78" y1="5095.31" x2="4753.98" y2="7341.44">
   <stop offset="0" style="stop-opacity:1; stop-color:#F7BC1A"/>
   <stop offset="0.301961" style="stop-opacity:1; stop-color:#FFE46E"/>
   <stop offset="0.6" style="stop-opacity:1; stop-color:#B73F66"/>
   <stop offset="1" style="stop-opacity:1; stop-color:#FFA100"/>
  </linearGradient>
  <linearGradient id="id21" gradientUnits="userSpaceOnUse" x1="1214.29" y1="4789" x2="7189.83" y2="4463.52">
   <stop offset="0" style="stop-opacity:1; stop-color:#521F4D"/>
   <stop offset="1" style="stop-opacity:1; stop-color:#A84178"/>
  </linearGradient>
  <linearGradient id="id22" gradientUnits="userSpaceOnUse" x1="1108.87" y1="4310.91" x2="7111.94" y2="4023.01">
   <stop offset="0" style="stop-opacity:0.686275; stop-color:#661A5E"/>
   <stop offset="1" style="stop-opacity:0.898039; stop-color:#FD6A66"/>
  </linearGradient>
  <linearGradient id="id23" gradientUnits="userSpaceOnUse" xlink:href="#id2" x1="3120.25" y1="5294.47" x2="1699.28" y2="7712.29">
  </linearGradient>
  <linearGradient id="id24" gradientUnits="userSpaceOnUse" xlink:href="#id2" x1="3181.31" y1="5328.79" x2="1760.38" y2="7745.96">
  </linearGradient>
  <linearGradient id="id25" gradientUnits="userSpaceOnUse" xlink:href="#id2" x1="1906.88" y1="5071.94" x2="1049.66" y2="8054.49">
  </linearGradient>
  <linearGradient id="id26" gradientUnits="userSpaceOnUse" xlink:href="#id2" x1="3195.14" y1="5295.73" x2="1774.17" y2="7712.89">
  </linearGradient>
  <linearGradient id="id27" gradientUnits="userSpaceOnUse" xlink:href="#id2" x1="3406.01" y1="5060.33" x2="2251.47" y2="7818.54">
  </linearGradient>
  <linearGradient id="id28" gradientUnits="userSpaceOnUse" xlink:href="#id2" x1="3705.96" y1="4962.73" x2="2868.06" y2="7957.49">
  </linearGradient>
  <linearGradient id="id29" gradientUnits="userSpaceOnUse" xlink:href="#id0" x1="6324.91" y1="5085.33" x2="4761.08" y2="7331.73">
  </linearGradient>
  <linearGradient id="id30" gradientUnits="userSpaceOnUse" xlink:href="#id0" x1="5647.32" y1="4815.02" x2="4492.81" y2="7660.49">
  </linearGradient>
  <linearGradient id="id31" gradientUnits="userSpaceOnUse" xlink:href="#id2" x1="3084.7" y1="5264.6" x2="1663.69" y2="7682.55">
  </linearGradient>
  <linearGradient id="id32" gradientUnits="userSpaceOnUse" xlink:href="#id0" x1="6877.14" y1="4897.98" x2="5672.43" y2="7699.16">
  </linearGradient>
  <linearGradient id="id33" gradientUnits="userSpaceOnUse" xlink:href="#id0" x1="6501.14" y1="4814.25" x2="5435.39" y2="7739.39">
  </linearGradient>
  <linearGradient id="id34" gradientUnits="userSpaceOnUse" xlink:href="#id0" x1="6825.75" y1="5328.42" x2="3999.37" y2="8162.34">
  </linearGradient>
  <linearGradient id="id35" gradientUnits="userSpaceOnUse" xlink:href="#id5" x1="3798.73" y1="3622.12" x2="3731.51" y2="3613.66">
  </linearGradient>
  <linearGradient id="id36" gradientUnits="userSpaceOnUse" xlink:href="#id2" x1="3183.42" y1="5280.16" x2="1762.45" y2="7697.32">
  </linearGradient>
  <linearGradient id="id37" gradientUnits="userSpaceOnUse" xlink:href="#id2" x1="3692.73" y1="5327.86" x2="2291.1" y2="7774.96">
  </linearGradient>
  <radialGradient id="id38" gradientUnits="userSpaceOnUse" gradientTransform="matrix(-6.59947E-003 -1.59061E+000 1.5752 0.0185024 -386 15150)" cx="6722.5" cy="4540.96" r="864.96" fx="6722.5" fy="4540.96">
   <stop offset="0" style="stop-opacity:1; stop-color:#FCBA49"/>
   <stop offset="1" style="stop-opacity:1; stop-color:#FAE33A"/>
  </radialGradient>
  <radialGradient id="id39" gradientUnits="userSpaceOnUse" gradientTransform="matrix(0.00522961 -7.34152E-001 0.728704 0.00786045 3484 9265)" cx="6707.64" cy="4375.24" r="1308.45" fx="6707.64" fy="4375.24">
   <stop offset="0" style="stop-opacity:1; stop-color:#FFA100"/>
   <stop offset="0.909804" style="stop-opacity:1; stop-color:#FFE46E"/>
   <stop offset="1" style="stop-opacity:0; stop-color:#FABD3B"/>
  </radialGradient>
  <radialGradient id="id40" gradientUnits="userSpaceOnUse" gradientTransform="matrix(-1.77004E-002 -7.68515E-001 0.762887 -1.47784E-002 3489 9595)" cx="6707.64" cy="4375.24" r="2344.31" fx="6707.64" fy="4375.24">
   <stop offset="0" style="stop-opacity:1; stop-color:#FBB744"/>
   <stop offset="0.25098" style="stop-opacity:0.207843; stop-color:#FBC740"/>
   <stop offset="0.768627" style="stop-opacity:0.105882; stop-color:#FAD53D"/>
   <stop offset="1" style="stop-opacity:0; stop-color:#FAE33A"/>
  </radialGradient>
  <radialGradient id="id41" gradientUnits="userSpaceOnUse" gradientTransform="matrix(0.641138 0.866666 -9.72254E-001 0.659164 3254 -2562)" cx="3730.54" cy="1969.97" r="1255.72" fx="3730.54" fy="1969.97">
   <stop offset="0" style="stop-opacity:1; stop-color:#1A0125"/>
   <stop offset="0.780392" style="stop-opacity:1; stop-color:#6E1A2F"/>
   <stop offset="1" style="stop-opacity:1; stop-color:#C23239"/>
  </radialGradient>
  <radialGradient id="id42" gradientUnits="userSpaceOnUse" gradientTransform="matrix(2.99631 -2.1397E+000 -4.56219E+000 -1.20679E+000 18125 16731)" xlink:href="#id41" cx="2564.67" cy="5095.04" r="294.25" fx="2564.67" fy="5095.04">
  </radialGradient>
  <radialGradient id="id43" gradientUnits="userSpaceOnUse" gradientTransform="matrix(2.22863 -1.1629E+000 -3.28246E+000 -1.72423E+000 12995 18125)" xlink:href="#id41" cx="3362.71" cy="5217.73" r="486.98" fx="3362.71" fy="5217.73">
  </radialGradient>
  <radialGradient id="id44" gradientUnits="userSpaceOnUse" gradientTransform="matrix(0.641968 0.860932 -9.73512E-001 0.654802 3499 -1142)" xlink:href="#id41" cx="2411.95" cy="2707.11" r="963.89" fx="2411.95" fy="2707.11">
  </radialGradient>
  <radialGradient id="id45" gradientUnits="userSpaceOnUse" gradientTransform="matrix(3.89822 -2.90654E+000 4.37799 1.99758 -26547 -1716)" cx="1214.87" cy="5259.48" r="720.23" fx="1214.87" fy="5259.48">
   <stop offset="0" style="stop-opacity:1; stop-color:#1A0125"/>
   <stop offset="0.839216" style="stop-opacity:1; stop-color:#6E1A2F"/>
   <stop offset="1" style="stop-opacity:1; stop-color:#C23239"/>
  </radialGradient>
  <radialGradient id="id46" gradientUnits="userSpaceOnUse" gradientTransform="matrix(0.871197 0.840515 -1.16865E+000 0.930562 1243 -1486)" cx="1839.41" cy="860.69" r="2434.66" fx="1839.41" fy="860.69">
   <stop offset="0" style="stop-opacity:1; stop-color:#1A0125"/>
   <stop offset="0.909804" style="stop-opacity:1; stop-color:#6E1A2F"/>
   <stop offset="1" style="stop-opacity:1; stop-color:#C23239"/>
  </radialGradient>
  <linearGradient id="id47" gradientUnits="userSpaceOnUse" x1="4958.62" y1="299.01" x2="6163.93" y2="5134.31">
   <stop offset="0" style="stop-opacity:1; stop-color:#432B6E"/>
   <stop offset="0.239216" style="stop-opacity:1; stop-color:#893C6D"/>
   <stop offset="0.521569" style="stop-opacity:1; stop-color:#D04D6B"/>
   <stop offset="0.721569" style="stop-opacity:1; stop-color:#FC7061"/>
   <stop offset="1" style="stop-opacity:1; stop-color:#FD9C56"/>
  </linearGradient>
 </defs>
 <g id="Layer_x0020_1">
  <metadata id="CorelCorpID_0Corel-Layer"/>
  <g id="_51511597888">
   <path id="path517" class="fil0" d="M6064.12 7328.43c1857.51,-1159.26 2423.53,-3604.83 1264.31,-5462.34 -1159.26,-1857.51 -3604.83,-2423.57 -5462.34,-1264.31 -1857.51,1159.26 -2423.57,3604.83 -1264.31,5462.34 1159.26,1857.51 3604.83,2423.57 5462.34,1264.31z"/>
   <path class="fil1" d="M7214.42 1693.48c-159.59,-28.97 -323.97,-44.19 -491.92,-44.19 -1511.03,0 -2735.97,1224.94 -2735.97,2735.97 0,1398.78 1049.74,2552.23 2404.37,2715.92 1593.55,-1229.6 2025.71,-3491.41 937.53,-5235.09 -36.72,-58.84 -74.76,-116.37 -114.01,-172.61z"/>
   <path class="fil2" d="M7214.42 1693.48c-159.59,-28.97 -323.97,-44.19 -491.92,-44.19 -1511.03,0 -2735.97,1224.94 -2735.97,2735.97 0,1398.78 1049.74,2552.23 2404.37,2715.92 1593.55,-1229.6 2025.71,-3491.41 937.53,-5235.09 -36.72,-58.84 -74.76,-116.37 -114.01,-172.61z"/>
   <path class="fil3" d="M5402.67 5818.95c-14.43,-4.21 -106.1,-8.94 -194.28,-10.27 -88.21,-1.32 -172.91,0.77 -236.99,2.37 -64.09,1.56 -107.54,2.69 -120.97,4.85 -13.43,2.12 3.21,5.33 48.66,7.97 45.45,2.61 119.76,4.69 189.98,5.7 70.19,1.04 136.28,1.04 200.73,-0.81 64.49,-1.88 127.3,-5.61 112.87,-9.82l0 0.01z"/>
   <path class="fil4" d="M7587.46 4385.26c0,-477.7 -387.26,-864.95 -864.96,-864.95 -477.7,0 -864.95,387.25 -864.95,864.95 0,477.71 387.25,864.96 864.95,864.96 477.7,0 864.96,-387.25 864.96,-864.96z"/>
   <path class="fil5" d="M7851.31 4474.94l-28.19 0 0 -21.91 -173.93 0 0 64.78 -19.15 0 0 358.34 -39.92 0 0 -36.43 -69.51 0 0 -359.4 -91.32 0 0 -30.36 -216.64 0 0 223.34 -313.59 0 0 -940.94 -389.46 0 0 933.21 -56.78 0 0 17.51 -74.4 0 0 35.49 -40.91 0 0 34.93 -60.05 0 -28.56 17.2 -660.39 -17.38 0 -1302.29 -201.22 -25.45 -180.75 40.44 0 420.73 -48.66 0 0 181.72 -253.99 -14.01 -2.57 21.14 -73.28 0 0 65.38 -28.36 0 0 43.22 -195.99 10.89 0 -48.69 -144.82 -3.37 -0.85 -451.74 -50.97 0 1.71 451.44 0 17.98 -136.71 -23.23 -188.29 16.65 0 312.35 -130.55 0 0 -23.53 69.94 0 0 -28.27 -104.72 0 0 -62.05 -210.99 0 -156.29 42.79 0 219.72 -114.15 0 0 -644.89 -229.57 83.36 -146.53 2.86 0 669.02 -82.88 0 0 -722.62 -94.36 -3.8 -189.96 34.51 0 28.65 -13.23 0 6.25 631.06 -47.45 2.78 0 -401.99 -179.72 0 0 100.61 -158.31 0 0 -53.98 -54.82 0 0 -120.34 -183.84 0 0 172.45 -82.23 0 0 29.55 -62.19 0 0 -17.17 -60.65 0 0 -26.52 -24.12 0 0 27.42 -89.43 0 0 107.53 -170.9 0 0 63.37 -258.53 0 0 -682.86 -42.96 0 0 -18.06 -156.46 0 0 -75.55 -371.82 0 -51.01 13.03 0 622.05 -230.01 0 0 32.07 -179.89 0 0 102.62 -77.23 0 0 -26.95 -126.52 0 0 -85.28 -48.01 0c69.01,553.69 256.31,1101.56 571.16,1606.05 740.17,1185.98 2004.72,1845.36 3305.77,1865.48 11.11,0.14 22.23,0.27 33.35,0.32 12.87,0.09 25.74,0.04 38.61,0 711.71,-3.87 1431.2,-198.18 2079.34,-601.49l18.33 -8.38c942.66,-593.36 1550.12,-1518.99 1765.39,-2529.55l8.74 -315.56z"/>
   <path class="fil6" d="M5722.26 4655.17l-353.19 0 0 -566.68 -82.61 0 0 -34.47 -312.89 0 0 39.91 -19.06 0 0 245.27 -140.13 0 0 302.4 -213.96 0 0 194.21 -436.88 0 0 -206.46 -150.45 0 0 226.2 -338.49 0 0 -492.67 -123.04 32.98 0 299.27 -254.48 0 0 169.08 -88.69 0 0 -137.52 -127.71 0 0 55.63 -131.09 0 0 -85.74 -238.84 0 0 66.39 -281.03 0 0 -289.77 -295.24 0 0 322.44 -73.92 0 0 -171 -294 0 0 202.14 -83.47 0 0 -282.57 -109.16 0 0 168.9 -584.11 0 0 -723.67 -408.35 0 0 574.17 -223.08 0 0 86.89 -95.37 0 0 -49.03 -162.83 0 -49.17 0c23.41,144.35 55.12,288.04 94.96,430.49l7637.34 0c12.01,-43.02 23.13,-86.26 33.68,-129.64l-94.21 0 0 58.89 -160.21 0 -1.15 -149.04 -116.11 0.99 2.23 -43.86 -82.57 -0.68 0 -46.34 -344.23 0 0 -40.77 -263.81 0 0 61.16 -130.24 0 0 47.53 -100.77 0 0 168.74 -403.46 0 0 -923.68 -16.44 0 0 -48.26 -82.79 0 0 -34.31 -303.89 0 0 702.48 2.91 0 0 0z"/>
   <path class="fil7" d="M2006.2 1406.08c10.21,-99.67 6.71,-35.66 18.41,-151.94 -52.06,18.79 -54.02,73.32 -75.12,105.01 -55.13,-12.47 8.29,-63.8 -54.36,-78.02 -21.19,31.77 -33.53,130.89 -41.17,185.25l-21.14 -28.18c-5.94,-16.15 0.17,-22.64 -2.65,-42.07 -1.58,-10.89 -6.53,-25.92 -9.56,-36.85 -4.19,-14.99 -2.91,-20.59 -12.69,-30.11 -14.39,21.61 -43,198.07 -48.81,239.45 -28.57,-4.66 -26.35,-11.4 -25.07,-38.44 1.07,-22.29 0.13,-34.2 3.76,-60.08 -14.6,-5.64 -17.89,-10.34 -27.5,-18.92 -3.55,25.15 -11.02,41 -15.38,73.2l-20.66 148.1c-5.98,35.61 -7.99,48.68 -23.28,56.88 3.55,-29.89 -4.4,-40.05 -7.81,-64.61 -3.63,-26.01 7.73,-48.6 -20.54,-55 -8.29,12.04 -4.36,-4.79 -7.05,14.09 -9.44,67.05 -22.46,216.94 -43.09,270.41 -28.23,-25.28 -33.27,-136.36 -62.26,-164.63 -37.54,97.03 -34.21,242.35 -55.18,318.84 -5,18.19 -7.13,20.11 -23.02,22.03 -16.18,-15.75 -8.88,-15.16 -10.89,-40.22 -1.24,-15.59 -6.92,-23.24 -10.98,-40.23 -5.84,-24.3 -1.49,-66.58 -26.3,-77.13 -13.71,20.58 -36.64,208.32 -36.86,234.84 -0.21,21.44 2.65,43.64 -1.28,71.49l-24.64 -3.51c0.77,-13.58 -2.94,-54.96 -4.91,-66.79 -3.63,-22.07 -7.3,-35.65 -24.17,-47.87 -3.63,22.21 -7.69,18.88 -11.19,43.65l-43.13 270.45c-11.11,-10.85 -9.65,-19.77 -12.86,-38.82l-21.82 -217.07c0.6,-91.35 2.73,-197.17 26.99,-286.85 6.92,-25.5 19.39,-62.23 22.51,-88.02 4.01,-33.18 15.54,-49.75 27.76,-79.26 46.46,-111.63 120.34,-249.48 211.47,-333.57 45.48,-41.98 83.15,-97.63 125.38,-143.62 13.5,-14.65 11.07,-14.69 14.53,-39.25 -27.81,3.38 -61.97,38.65 -87.25,53.81 -27.12,16.23 -61.71,30.75 -83.66,52.74 -17.55,17.6 -26.73,28.83 -59.02,26.95 12.08,-53.47 53.38,-52.19 64.57,-101.47 -33.61,2.99 -91,54.11 -119.83,74.95 -13.11,9.48 -17.64,9.91 -30.28,18.32 -11.79,7.86 -15.54,12.56 -28.87,20.16 -28.23,16.05 -33.82,21.65 -54.45,44.71l-29.59 -4.19c12.17,-18.23 2.43,-19.55 18.49,-39.8 24.43,-30.79 46.55,-61.07 61.5,-99.71 -21.96,6.95 -23.41,4.95 -43.95,17.72 -42.19,26.24 -190.85,78.14 -270.19,114.32 124.78,-143.81 260.96,-279.81 408.35,-406.48 60.71,-5.07 232.34,1.67 282.4,2.14 19.05,0.17 32.72,2.69 48.6,0.17 33.31,-5.16 18.79,-16.95 82.51,-13.32 -17.34,-19.94 -92.01,-65.27 -121.86,-68.51 -23.53,-2.57 -23.27,0.89 -45.1,-0.94l-88.06 -17.47c34.77,-48 66.62,-5.17 80.89,-38.9 -18.02,-2.54 -38.92,-4.9 -60.98,-7.37 66.23,-50.55 134.47,-99.29 204.58,-146.24 45.82,35.77 145.17,116.26 160.01,137.91 16.49,24.13 11.41,32.5 44.93,45.44 6.36,-45.02 -13.32,-89.34 -14.99,-134.1 -1.5,-39.78 -2.1,-128.56 -1.7,-167.88 74.6,-44.12 150.16,-85.26 226.43,-123.96 -7.36,35.22 -23.06,58.66 -39.95,83.79 -14.69,21.95 -10.37,101.33 -20.92,124.48 -13.62,29.8 -17.3,9.09 -14.05,45.65 18.19,-8.8 35.91,-33.27 55.56,-37.41 -6.15,43.56 -14.74,31.39 -26.91,63.71 -14,37.07 -23.87,46.85 -29.8,89.17 28.23,3.33 16.48,-0.21 36.6,-9.95 -12.69,89.73 -37.71,46.21 -31.48,116.25 14.01,-5.09 19.69,-5.77 31.35,-16.91l18.06 -22.85c11.11,-12 13.11,-9.74 23.45,-27.38 7.43,-12.77 10.03,-18.36 16.87,-30.23 20.54,-35.7 53.33,-71.62 81.18,-102.84 51.97,-58.33 122.78,-135.03 189.7,-175.26 123.93,-74.39 164.07,-96.3 301.24,-132.47 32.54,-8.59 114.88,-22.68 142.34,-21.61 25.88,1.02 62.69,-2.82 74.09,4.74 -6.62,12.47 0.13,7.94 -20.24,14.09l-131.45 30.24c-17.25,3.88 -25.32,15.5 -38.99,24.34 21.78,8.41 28.91,14.14 57.78,18.19 -25.79,16.74 -59.44,25.54 -88.48,34.64 -39.98,12.55 -62.06,-2.57 -91.61,30.49 27.08,17.98 51.08,17.25 92.25,23.02 -7.47,14.17 -35.19,19.04 -52.27,24.17l-53.9 16.22c-29.51,10.64 -84,12.69 -97.11,46.6 26.86,10.37 49.11,11.96 83.1,16.74 -20.41,22.8 -57.48,28.27 -92.32,35.36 -29.9,6.06 -71.49,15.71 -88.45,34.67 23.02,8.93 67.26,11.62 82.42,21.7 -8.11,14.05 1.63,6.92 -22.03,11.7l-66.11 17.55c-23.92,6.58 -73.8,9.87 -86.35,31.6 40.87,15.8 94.93,3.21 126.96,-18.62 21.48,-14.6 23.19,-9.78 47.62,-18.7l148.57 -42.58 113.47 -7.34c59.1,-4.83 190.76,13.15 252.05,31.34 22.16,6.58 42.83,6.2 63.54,13.84 27.63,10.16 85.24,27.5 98.39,44.84 8.12,10.72 16.23,29.51 17.51,44.11 -22.2,-3.11 -52.27,-5.63 -73.24,-10.93 -21.86,-5.51 -61.53,-27.5 -88.74,-16.91 4.23,34.63 28.96,25.96 54.33,42.83 -10.51,14.52 -7.69,14.69 -28.15,15.38 -41.98,1.36 -71.61,-14.35 -116.88,-20.72 -23.19,-3.24 -39.85,-8.49 -60.56,1.54 11.66,24.09 25.58,23.4 48.98,38.01 18.5,11.49 42.92,19.43 45.53,40.65 -50.82,-2.9 -107.24,-4.91 -157.63,-17.93 -49.02,-12.64 -69.01,-8.2 -119.83,-11.11 12.09,22.51 64.95,45.49 89.77,60.18 18.79,11.1 16.14,-4.32 18.83,25.49 -42.75,-6.02 -85.45,-12 -128.16,-18.06 -51.2,-7.18 -90.15,-23.28 -110.56,-0.47 24.38,5.55 33.61,15.24 52.14,22.42l-2.05 14.77c-21.65,-1.19 -35.49,2.44 -64.48,-4.27 -75.38,-17.46 -64.32,-8.84 -123.55,-17.17 -5.04,42.5 26.95,38.99 69.1,44.93 -15.76,37.15 -127.86,-8.5 -195.72,-2.43 27.03,55.94 81.69,43.22 138.62,49.53l162.84 23.11c94.72,13.32 76.69,20.84 126.83,36.64 14.86,4.7 29.25,6.7 38.73,10.5 46.51,18.67 164.33,79.48 200.55,108.99 18.62,15.2 35.83,29.21 53.47,43.43 34.97,28.27 74.86,55.3 105.9,87.68 17.94,18.74 31.01,33.09 46.08,53.42l64.58 79.18c27.37,30.02 71.23,108.55 92.07,146.56 19.73,36.09 82.34,150.24 80.03,190.94 -28.96,-4.74 -32.63,-23.79 -48.47,-42.84l-8.8 -11.01c-0.6,-0.81 -1.41,-2.05 -1.97,-2.91 -38.56,-55.6 -99.03,-117.82 -121.36,-150.96 -10.85,-16.14 -7.09,-19.86 -27.55,-27.72 -10.04,44.29 -2.91,52.06 19.26,113.3 -17.51,-3.97 -25.15,-7.17 -33.4,-18.96l-20.88 -28.32c-33.57,-32.71 -56.58,-75.67 -88.83,-109.36 -18.36,-19.13 -29.25,-49.71 -43.17,-55.61 -20.93,23.37 -10.98,21.61 1.2,47.58 6.02,12.77 4.57,18.66 9.26,32.67 8.2,24.64 18.5,29.93 14.44,64.01 -28.87,-4.74 -19.01,-9.05 -36.98,-25.02 -25.63,-22.72 -71.54,-80.8 -81.19,-88.66 -24.34,-19.94 -10.76,-13.54 -25.71,-33.52 -10.2,-13.58 -16.95,-12.77 -28.99,-26.65 -18.92,-21.82 -23.71,-49.03 -61.29,-55.18 4.96,55.56 44.93,109.16 36.95,166.04 -35.92,-5.85 -38.78,-31.26 -56.29,-54.58 -10.76,-14.3 -15.08,-16.44 -26.14,-28.78 -10.42,-11.66 -12.25,-20.11 -20.62,-32.88l-49.29 -59.88c-28.65,-33.73 -30.27,-50.09 -56.49,-54.36 -3.85,27.16 2.26,35.7 11.99,52.66 15.51,26.99 6.28,21.48 14.23,46.54 -44.63,-7.3 -67.39,-62.47 -93.1,-88.52l-42.07 -47.62c-18.83,-20.97 -15.67,-35.19 -51.03,-40.91 -2.18,37.92 35.19,101.81 59.06,122.99 33.06,29.38 63.46,65.55 89.26,100.23 39.41,52.95 77.64,110.86 108,169.84 9.52,18.53 19.05,38.26 27.97,58.25l45.01 133.54c4.66,18.83 0.98,1.75 6.75,16.95 8.88,23.4 -5.17,9.91 9.18,41.55l5.25 9.27c5.64,13.5 11.24,121.37 19.39,152.84 4.19,16.19 0.99,62.01 2.82,81.61 10.29,110.06 -21.44,253.46 -45.69,360.48l-13.84 -33.65c-9.31,-28.74 3.8,-64.57 -4.01,-85.11 -7.99,-21.05 -12.82,-0.39 -10.85,-35.87l-6.45 -167.03c-50.95,24.65 -34.04,120.39 -64.48,136.7l-9.96 -164.33c-2.05,-32.28 12.99,-135.93 -25.88,-152.37 -10.24,26.56 -15.03,61.28 -24.17,90.75 -3.97,12.77 -10.63,26.82 -17.51,41.17 -8.2,17.08 -7.73,22.8 -21.35,30.1 3.42,-29.04 -7.3,-64.31 -10.29,-89.21 -2.39,-20.03 3.11,-26.99 -1.11,-47.62 -19.95,-96.85 -1.33,-192.04 -35.75,-206.6 -24.94,13.36 -17.12,52.82 -29.81,83.27 -9.35,22.42 -19.55,54.32 -32.54,73.84 -11.91,-11.62 -15.37,-54.15 -16.69,-75.59 -1.03,-16.78 2.3,-28.36 0.42,-44.37 -5.55,-47.02 -7.86,-21.05 -13.28,-113.38 -1.75,-29.64 3.59,-58.47 -12.56,-74.22 -16.86,25.28 -19.77,92.15 -32.88,126.06 -40.74,-36.47 -8.71,-77.25 -33.95,-168.3 -9.52,-34.29 1.11,-82.12 -7.39,-108.98 -24.98,13.36 -23.19,57.48 -28.7,96.47 -17.63,8.54 -8.67,11.95 -31.64,10.63l-7.94 -117.4c-2.82,-17.34 -9.06,-37.45 -10.85,-53.51 -2.73,-24.47 2.73,-36.68 -4.19,-58.55 -36.08,17.43 -35.36,78.84 -52.57,123.29l-9.86 -1.36c1.58,-27.72 -10.47,-57.44 -11.96,-83.54 -0.56,-9.73 1.07,-17.16 1.07,-27.24 0.08,-21.22 -6.41,-35.96 -8.58,-55.26 -2.95,-26.56 2.99,-28.74 -4.87,-53.55 -32.12,17.21 -37.24,83.57 -52.57,123.29 -17.21,-12.47 -19.73,-28.32 -31.56,-46.72 -6.62,-10.25 -2.4,1.02 -8.37,-15.76 -8.29,-23.1 -11.41,-52.91 -37.75,-64.1 -21.1,149.68 -34.25,329.43 -59.06,505.59 -80.71,513.66 -148.11,1015.56 -201.06,1359.16 -189.62,1230.73 -203.54,1831.26 -243.3,1992.34 -17.76,72 -61.75,8.33 -80.33,21.14 -42.62,29.34 1.97,-780.57 122.14,-1696.17 60.43,-460.71 150.71,-758.22 210.5,-1178.66 77.64,-546.24 120.77,-926.15 115.64,-948.36l0 0.01z"/>
   <path class="fil8" d="M2486.21 3035.32c-6.06,-54.49 -0.55,-19.86 -7.73,-83.4 -25.66,16.05 -20.41,45.43 -28.05,64.82 -30.92,-0.3 -2.95,-35.06 -38.1,-35.44 -7.64,19.43 -2.77,73.88 -0.6,103.86l-14.56 -12.64c-5.04,-7.95 -2.52,-12.13 -6.28,-22.17 -2.09,-5.68 -6.49,-13.11 -9.39,-18.62 -3.93,-7.56 -3.93,-10.67 -10.25,-14.65 -5.21,13.2 -0.08,110.91 1.58,133.71 -15.8,0.82 -15.42,-3.03 -17.85,-17.63 -2.01,-12.05 -3.89,-18.33 -4.95,-32.59 -8.42,-1.32 -10.72,-3.46 -16.87,-6.96 1.02,13.88 -1.15,23.23 0.21,40.96l6.11 81.61c0.9,19.73 1.32,26.94 -5.89,33.09 -1.54,-16.39 -6.96,-20.92 -11.66,-33.65 -4.95,-13.49 -1.5,-26.9 -17.34,-27.03 -3.03,7.39 -2.91,-2.05 -2.13,8.33 2.69,36.98 13.06,118.63 8.19,149.64 -18.02,-10.25 -33.52,-69.1 -52.31,-80.85 -8.84,56.25 9.74,133.59 7.34,176.89 -0.55,10.33 -1.49,11.62 -9.73,14.48 -10.51,-6.58 -6.54,-7.09 -10.51,-20.29 -2.43,-8.2 -6.36,-11.61 -10.5,-20.24 -5.94,-12.3 -8.5,-35.44 -23.02,-38.22 -4.91,12.6 4.53,115.69 7.47,129.91 2.35,11.45 6.45,23.02 7.56,38.35l-13.58 0.98c-1.15,-7.34 -7.94,-29.08 -10.33,-35.15 -4.49,-11.4 -8.03,-18.23 -18.5,-22.84 0.65,12.34 -1.92,11.01 -0.89,24.68l8.2 149.6c-7.18,-4.49 -7.48,-9.44 -11.36,-19.26l-36.82 -113.56c-10.2,-48.94 -21.3,-105.78 -18.7,-156.55 0.73,-14.44 3.16,-35.53 1.84,-49.71 -1.67,-18.2 2.56,-28.4 5.72,-45.57 11.92,-65.08 35.49,-147.38 74.52,-202.89 19.47,-27.72 33.18,-61.84 50.48,-91.31 5.51,-9.39 4.18,-9.13 3.2,-22.67 -14.48,5.04 -28.65,27.84 -40.44,38.86 -12.64,11.83 -29.47,23.61 -38.65,37.92 -7.34,11.45 -10.98,18.49 -28.48,21.23 0.34,-29.98 22.54,-34.08 22.8,-61.76 -17.59,5.47 -42.36,39.46 -55.39,53.94 -5.93,6.62 -8.28,7.34 -14.09,13.32 -5.38,5.55 -6.88,8.5 -13.11,14.1 -13.24,11.87 -15.59,15.5 -23.96,30.23l-16.27 1.2c4.36,-11.19 -0.98,-10.76 5.25,-23.45 9.53,-19.3 17.85,-38.05 21.36,-60.47 -10.94,6.28 -11.92,5.38 -21.44,14.56 -24.55,23.79 -79.95,76.87 -97.97,98.65 -6.53,7.95 -7.38,12.56 -18.74,14.35 -4.06,-6.92 -2.57,2.44 -3.33,-7.94 -0.9,-12.56 11.74,-29.64 16.57,-39.16 7.68,-15.2 11.61,-23.96 10.29,-42.02 -12.86,4.48 -21.91,20.71 -30.66,29.55 -10.04,10.16 -19.44,19.94 -27.98,31.81 -9.65,13.37 -4.95,4.4 -15.71,14.44 -15.16,14.13 -24.6,33.52 -42.49,44.71 -1.37,-18.75 6.45,-24.73 13.19,-36.94 8.29,-14.99 10.08,-18.19 8.42,-41.08 -11.24,3.88 -7.73,6.06 -14.61,15.37l-26.56 27.97c-5.94,6.11 -6.66,7.43 -13.58,13.71 -14.73,13.37 -40.23,46.25 -57.44,52.19 0.26,-25.84 13.58,-42.45 27.72,-60.09l25.92 -33.57c5.29,-7.68 6.19,-9.69 12.68,-17.03 9.99,-11.32 14.9,-20.29 25.03,-31.82 6.49,-7.43 7.09,-9.69 12.51,-17.21 20.88,-29.04 43.43,-55.47 70.68,-78.96 11.48,-9.87 18.23,-17.38 31.17,-26.52 12.43,-8.8 26.43,-14.05 36.98,-24.05 15.89,-14.99 12.6,-15.5 35.79,-25.06 15.54,-6.41 29.04,-11.53 43.69,-18.28 32.92,-15.16 45.27,-15.93 65.89,-24.56 21.91,-9.18 74.74,-16.14 103.95,-22.2 10.2,-2.1 17.81,-2.35 26.01,-5.51 17.21,-6.62 8.07,-11.23 42.62,-16.66 -11.62,-8.67 -25.24,-9.78 -41.6,-8.07 -12.85,1.33 -12.34,3.2 -24.21,4.7l-49.12 0.85c13.03,-29.68 35.02,-10.46 38.78,-30.15 -38.01,2.78 -98.26,11.92 -130.63,6.84 -0.73,-14.52 -0.69,-11.32 10.93,-16.06 16.91,-6.88 42.75,-11.4 51.5,-26.78l-32.79 -0.25c-14.05,1.71 -21.27,-1.37 -38.18,-0.09 -26.27,2.05 -52.57,3.93 -78.84,5.85 5.08,-8.15 22.34,-17.08 31.6,-21.05 13.24,-5.72 20.84,-8.8 28.1,-21.57 -74.35,-0.72 -63.42,10.13 -127.3,14.78 1.71,-10.85 4.7,-16.44 14.77,-20.33 15.17,-5.89 16.1,0.98 23.79,-12.51 -30.28,-0.34 -48.08,-0.43 -79.17,5.38 -22.13,4.14 -39.42,0.56 -56.85,1.84 1.76,-9.23 6.71,-10.68 15.25,-14.86 8.07,-3.93 13.28,-4.66 23.44,-7.78 15.21,-4.65 23.19,-11.91 43.27,-16.05 16.74,-3.46 32.32,-9.31 48.38,-11.66 52.06,-7.56 112.44,-16.78 164.76,-8.41 53.51,8.54 26.26,-0.6 80.8,18.4 13.41,4.66 25.02,8.33 37.36,12.73 19.48,7 83.62,39.2 98.78,53.59 11.66,10.98 9.91,16.06 29.34,19.09 -1.83,-24.81 -17.47,-46.21 -23.57,-69.99 -17.34,-67.9 -17.42,-79.69 -22.42,-147.85 -1.24,-16.95 1.24,-25.67 4.23,-39.8 3.46,-16.27 -1.88,-16.57 4.74,-31.26 5.25,-11.62 4.48,-25.15 7.34,-37.07 2.61,-10.89 6.88,-20.97 10.81,-31.35 9.01,-23.65 13.92,-40.65 25.92,-61.62 7.6,-13.28 26.6,-42.58 29.21,-56.2l5.43 -0.43c0.89,11.92 -9.02,39.08 -12.95,52.45 -4.01,13.75 -18.49,46.46 -8.79,61.15 19.3,-6.02 2.43,-6.79 18.23,-12.26 2.95,40.23 -17.89,53.94 -15.97,80.37 1.66,22.64 12.26,8.76 19.69,-3.37 7.34,-12.09 7.47,-13.83 19.47,-21.35 1.07,21.01 -10.21,45.95 -13.83,64.4 -4.11,20.79 -13.8,43.77 -12.18,65.89 27.85,-2.69 9.1,-21.56 36.09,-29.98 1.71,23.36 -4.61,39.21 -11.4,56.37 -5.34,13.41 -2.65,14.65 -5.6,28.27 -3.84,17.51 -8.2,6.84 -2.26,26.01 8.71,-6.79 15.38,-21.9 25.41,-26.43 1.75,24.04 -4.27,18.53 -7.05,37.24 -3.16,21.44 -7.34,27.8 -5.63,51.12 15.5,-1.5 8.8,-2.05 18.45,-9.57 3.58,49.45 -14.82,29.08 -3.38,65.81 6.88,-4.31 9.87,-5.34 14.78,-12.64l7.04 -14.31c4.53,-7.73 5.86,-6.75 9.36,-17.38 2.52,-7.69 3.24,-10.98 5.55,-18.11 6.83,-21.48 20.24,-44.45 31.52,-64.4 21.05,-37.19 50.05,-86.43 81.18,-115.64 57.7,-54.15 76.66,-70.51 145.8,-105.7 16.44,-8.37 58.8,-25.41 73.66,-28.01 13.97,-2.48 33.18,-8.8 40.15,-6.07 -2.1,7.47 1.02,4.27 -9.19,9.91l-66.79 31.35c-8.8,4.05 -11.78,11.23 -18.06,17.55 12.64,1.96 17.12,4.18 33.01,3.03 -11.87,11.96 -28.83,20.54 -43.3,28.78 -19.95,11.32 -33.48,5.77 -45.49,26.86 16.57,6.54 29.34,3.33 52.02,1.67 -2.39,8.46 -16.66,14.26 -25.2,18.96l-26.94 14.91c-14.57,9.09 -43.43,16.52 -46.55,36.17 15.59,2.43 27.67,0.72 46.42,-0.64 -8.33,14.56 -27.5,21.73 -45.35,29.55 -15.25,6.7 -36.39,16.7 -43.26,28.78 13.32,2.14 37.32,-1.58 46.59,2.1 -2.74,8.41 1.66,3.5 -10.42,8.79l-33.36 17.04c-12,6.28 -38.3,13.8 -42.53,26.91 23.7,3.71 51.16,-9.31 65.77,-24.69 9.78,-10.29 11.27,-7.9 23.31,-15.5l74.52 -39.97 59.88 -17.04c31.05,-9.39 103.52,-15.03 138.41,-12.38 12.59,0.98 23.61,-1.63 35.57,0.08 15.97,2.22 48.81,4.82 57.82,12.6 5.6,4.78 12.09,13.92 14.48,21.56 -12.26,0.9 -28.61,3.04 -40.44,2.61 -12.34,-0.39 -36.09,-7.56 -49.41,1.24 6.23,18.02 18.45,10.5 33.99,16.61 -3.93,9.01 -2.39,8.75 -13.28,11.49 -22.29,5.59 -39.97,0.59 -64.91,2.43 -12.77,0.94 -22.29,0.04 -32.2,7.82 9.01,11.53 16.35,9.56 30.62,14.64 11.18,4.02 25.15,5.47 28.99,16.49 -27.5,4.35 -57.9,9.82 -86.35,8.67 -27.71,-1.11 -37.88,3.59 -65.38,7.9 9.05,10.63 40.02,16.82 54.96,21.82 11.36,3.76 8.16,-4.18 13.03,11.45 -23.53,1.75 -47.11,3.45 -70.64,5.16 -28.23,2.05 -50.9,-2 -59.19,12.52 13.71,0.17 19.73,4.27 30.49,5.97l0.6 8.16c-11.7,1.84 -18.7,5.38 -34.97,5.17 -42.33,-0.64 -35.45,2.69 -68.08,5.08 2.22,23.32 18.92,17.72 42.15,16.06 -4.14,21.69 -69.35,10.25 -104.97,21.31 20.93,26.82 48.73,13.71 79.9,10.46l89.73 -6.45c52.23,-3.84 43.47,2.26 72.08,4.91 8.5,0.77 16.45,0.22 21.95,1.16 27.04,4.61 97.07,23.48 119.84,35.1 11.74,5.98 22.54,11.45 33.65,17.04 21.95,11.1 46.42,20.93 66.79,34.68 11.74,7.94 20.41,14.09 30.83,23.23l43.65 34.89c18.15,12.85 50.69,49.79 66.23,67.73 14.74,17 61.42,70.8 64.87,92.84 -16.01,0.81 -20.2,-8.93 -30.87,-17.3l-5.98 -4.86c-0.43,-0.39 -0.98,-0.94 -1.41,-1.33 -27.03,-25.28 -66.58,-51.59 -82.34,-66.7 -7.68,-7.39 -6.11,-9.78 -17.93,-11.66 -0.26,24.85 4.44,28.18 23.36,58.38 -9.78,-0.09 -14.27,-0.94 -20.03,-6.28l-14.44 -12.73c-21.73,-13.62 -39.03,-33.91 -60.17,-48.21 -12.04,-8.12 -21.39,-23.23 -29.51,-24.77 -8.5,14.9 -3.37,12.85 6.15,25.32 4.7,6.15 4.57,9.44 8.71,16.4 7.26,12.22 13.37,13.88 15.16,32.59 -16.01,0.81 -11.23,-2.65 -22.71,-9.1 -16.32,-9.22 -47.58,-34.97 -53.64,-38.05 -15.33,-7.86 -7.35,-6.02 -17.64,-14.95 -7.05,-6.1 -10.55,-4.87 -18.62,-10.93 -12.64,-9.48 -18.32,-23.49 -39.16,-22.42 9.1,29.17 36.68,53.21 38.99,84.56 -19.9,1.02 -24.38,-12.26 -36.43,-22.68 -7.43,-6.45 -9.95,-7.05 -17.29,-12.38 -6.92,-5.04 -8.89,-9.36 -14.87,-15.21l-33.26 -26.3c-19.22,-14.78 -22,-23.32 -36.52,-22.55 1.11,14.95 5.34,18.83 12.52,26.73 11.4,12.64 5.85,10.81 12.98,23.28 -24.68,1.23 -43.26,-25.63 -60,-36.6l-28.02 -20.59c-12.51,-9.05 -12.47,-17 -32.03,-15.97 3.21,20.54 30.58,50.39 45.78,58.93 21.1,11.92 41.56,27.72 59.37,43.31 27.2,23.74 54.32,50.3 77.38,78.36 7.26,8.8 14.6,18.24 21.69,27.89l39.55 66.23c4.65,9.53 0.72,0.82 5.55,8.29 7.47,11.49 -1.62,5.89 9.74,21.18l3.88 4.32c4.57,6.57 20.03,63.63 28.02,79.51 4.14,8.16 7.69,33.06 10.93,43.35 18.24,57.65 17.85,138.02 17.25,198.07l-11.27 -16.4c-8.33,-14.31 -5.43,-34.98 -12,-45.06 -6.7,-10.33 -6.88,1.29 -9.95,-17.93l-22.76 -88.57c-24.39,19.04 -4.27,68.28 -18.67,80.58l-24.34 -86.77c-4.82,-17.04 -8.8,-74.18 -31.47,-78.5 -2.39,15.38 -0.94,34.51 -2.44,51.34 -0.64,7.3 -2.56,15.58 -4.56,24.04 -2.44,10.08 -1.54,13.07 -7.95,18.58 -1.54,-15.93 -11.36,-33.57 -15.84,-46.55 -3.59,-10.42 -1.45,-14.78 -6.11,-25.33 -21.87,-49.49 -22.89,-102.58 -43,-106.38 -11.79,10.04 -3.04,30.24 -6.32,48 -2.4,13.07 -4.19,31.31 -8.84,43.22 -7.73,-4.78 -14.48,-27.16 -17.68,-38.47 -2.48,-8.84 -2.05,-15.42 -4.92,-23.79 -8.41,-24.47 -6.62,-10.34 -20.19,-59.06 -4.36,-15.68 -4.87,-31.73 -15.34,-38.27 -6.06,15.46 0.13,51.55 -2.99,71.19 -26,-14.77 -13.58,-40.27 -37.62,-86.05 -9.05,-17.25 -8.88,-44.07 -16.57,-57.44 -11.79,10.04 -5.72,33.44 -4.18,54.92 -8.46,6.62 -3.25,7.39 -15.68,9.35l-17.85 -61.88c-3.5,-8.97 -9.18,-19 -11.95,-27.37 -4.32,-12.77 -2.78,-19.95 -9.01,-30.84 -17.3,13.5 -9.82,46.25 -13.88,72.05l-5.43 0.38c-2.35,-14.99 -12.25,-29.51 -16.05,-43.3 -1.41,-5.13 -1.41,-9.27 -2.57,-14.69 -2.43,-11.36 -7.6,-18.49 -10.97,-28.53 -4.66,-13.92 -1.75,-15.76 -8.84,-28.1 -15.16,12.9 -10.25,48.98 -13.84,72 -10.63,-4.65 -13.83,-12.85 -22.29,-21.35 -4.74,-4.7 -1.15,0.85 -6.28,-7.43 -7.09,-11.41 -12.26,-26.99 -27.63,-29.94 6.02,82.51 27.2,178.3 34.29,275.41 16.23,284.08 33.36,674.62 39.25,864.79 21.18,685.24 24.81,939.43 22.16,1030.18 -1.15,40.52 -27.2,19.6 -35.65,28.57 -29.17,31 -14.69,-943.79 -64.4,-1636.22 -21.66,-301.16 -56.42,-506.31 -61.72,-517.59l-0.01 0z"/>
   <path class="fil9" d="M3864.4 2393.54c7.35,-71.44 4.83,-25.54 13.2,-108.9 -37.32,13.46 -38.74,52.57 -53.85,75.29 -39.55,-8.96 5.93,-45.78 -38.99,-55.94 -15.16,22.76 -24,93.82 -29.51,132.77l-15.16 -20.15c-4.23,-11.58 0.17,-16.28 -1.88,-30.2 -1.11,-7.81 -4.66,-18.57 -6.84,-26.39 -2.98,-10.76 -2.09,-14.78 -9.09,-21.61 -10.29,15.5 -30.83,142 -35.02,171.68 -20.46,-3.38 -18.88,-8.2 -17.94,-27.55 0.77,-16.01 0.09,-24.55 2.69,-43.09 -10.46,-4.06 -12.81,-7.43 -19.72,-13.58 -2.53,18.07 -7.91,29.38 -11.02,52.49l-14.82 106.16c-4.27,25.5 -5.73,34.89 -16.66,40.74 2.52,-21.39 -3.16,-28.69 -5.63,-46.29 -2.61,-18.66 5.55,-34.85 -14.74,-39.46 -5.94,8.67 -3.11,-3.37 -5.04,10.12 -6.75,48.09 -16.05,155.54 -30.87,193.84 -20.25,-18.11 -23.83,-97.71 -44.67,-117.99 -26.87,69.56 -24.47,173.72 -39.5,228.56 -3.59,13.02 -5.13,14.43 -16.53,15.8 -11.57,-11.28 -6.36,-10.89 -7.82,-28.87 -0.85,-11.15 -4.95,-16.62 -7.85,-28.83 -4.19,-17.38 -1.07,-47.74 -18.88,-55.26 -9.82,14.73 -26.22,149.3 -26.39,168.34 -0.13,15.34 1.88,31.26 -0.9,51.21l-17.68 -2.48c0.56,-9.78 -2.13,-39.42 -3.54,-47.87 -2.61,-15.84 -5.21,-25.58 -17.3,-34.34 -2.6,15.93 -5.51,13.54 -8.03,31.31l-30.92 193.84c-7.94,-7.73 -6.92,-14.14 -9.22,-27.8l-15.63 -155.62c0.42,-65.47 1.96,-141.36 19.34,-205.63 4.96,-18.28 13.88,-44.58 16.15,-63.08 2.86,-23.83 11.1,-35.7 19.9,-56.79 33.26,-80.08 86.26,-178.85 151.56,-239.15 32.62,-30.11 59.61,-70 89.89,-102.93 9.7,-10.54 7.95,-10.54 10.42,-28.14 -19.94,2.39 -44.41,27.68 -62.56,38.57 -19.43,11.61 -44.24,22.03 -59.96,37.79 -12.6,12.6 -19.17,20.67 -42.32,19.35 8.71,-38.35 38.27,-37.41 46.29,-72.77 -24.08,2.13 -65.21,38.77 -85.88,53.72 -9.39,6.83 -12.64,7.13 -21.69,13.11 -8.5,5.64 -11.15,9.01 -20.71,14.48 -20.25,11.53 -24.26,15.5 -39.03,32.03l-21.23 -2.95c8.71,-13.11 1.75,-14.05 13.28,-28.57 17.47,-22.08 33.36,-43.77 44.07,-71.49 -15.71,5 -16.78,3.55 -31.51,12.73 -38.01,23.61 -123.63,76.27 -152.72,99.16 -10.59,8.32 -12.94,14.05 -27.97,13.19 -3.33,-9.99 -3.97,2.4 -2.05,-11.1 2.31,-16.36 23.23,-34.72 32.03,-45.57 14.09,-17.34 21.48,-27.41 24.81,-50.94 -17.72,2.17 -33.78,20.45 -47.4,29.33 -15.72,10.25 -30.41,20.16 -44.67,32.97 -16.06,14.48 -7.56,4.27 -24.09,14.14 -23.36,13.92 -40.82,36.17 -66.79,45.52 3.42,-24.38 15.08,-29.89 27.12,-43.68 14.74,-16.87 17.94,-20.46 22.17,-50.27 -15.5,1.88 -11.62,5.64 -22.98,15.63l-41.77 28.49c-9.3,6.19 -10.59,7.68 -21.18,13.79 -22.59,13.07 -64.31,48.09 -87.97,50.95 7.47,-33.01 29.08,-50.61 52.06,-69.27l42.53 -35.79c8.88,-8.41 10.59,-10.72 20.97,-18.32 15.93,-11.7 24.68,-21.82 40.87,-33.82 10.33,-7.69 11.7,-10.46 20.75,-18.58 34.77,-31.39 70.98,-59.02 112.32,-81.52 17.46,-9.48 28.18,-17.21 47.27,-25.33 18.32,-7.81 37.75,-10.67 54.03,-20.54 24.47,-14.82 20.41,-16.4 52.78,-22.2 21.61,-3.89 40.36,-6.71 60.98,-11.28 46.34,-10.33 62.35,-7.86 91.14,-13.24 30.57,-5.68 100.18,0 139.21,0.39 13.67,0.13 23.49,1.92 34.9,0.13 23.83,-3.72 13.4,-12.18 59.1,-9.57 -12.43,-14.26 -29.55,-19.48 -50.95,-21.82 -16.87,-1.84 -16.7,0.64 -32.33,-0.69l-63.11 -12.51c24.89,-34.38 47.74,-3.72 57.99,-27.89 -49.45,-6.96 -129.14,-11.95 -169.11,-27.41 3.07,-18.75 2.22,-14.65 18.36,-17.51 23.57,-4.14 57.95,-2.74 73.41,-20.03l-41.98 -9.44c-18.45,-1.66 -26.82,-7.6 -48.81,-10.63 -34.21,-4.66 -68.37,-9.53 -102.58,-14.35 8.8,-9.01 33.35,-15.67 46.29,-18.24 18.54,-3.63 29.13,-5.46 41.94,-19.77 -94.98,-21.56 -83.96,-4.65 -167.07,-16.36 5.17,-13.36 10.55,-19.73 24.52,-21.95 21.05,-3.33 20.37,5.73 33.95,-9.43 -38.65,-8.76 -61.45,-13.88 -102.88,-15.04 -29.47,-0.81 -50.6,-10.2 -73.28,-13.41 4.78,-11.27 11.53,-11.78 23.61,-14.73 11.45,-2.82 18.32,-2.26 32.16,-3.46 20.84,-1.79 33.06,-8.84 59.87,-8.58 22.43,0.21 43.95,-2.99 65.17,-1.54 68.76,4.7 148.62,9.65 213.27,34.81 66.15,25.75 33.78,6.53 98.4,45.9 15.84,9.7 29.76,17.6 44.28,26.69 22.98,14.35 96.22,73.33 111.68,95.92 11.87,17.34 8.2,23.32 32.24,32.63 4.53,-32.33 -9.56,-64.06 -10.76,-96.13 -3.46,-91.77 -0.3,-106.89 12.21,-195.59 3.08,-21.99 8.67,-32.46 16.44,-49.75 8.89,-19.86 2.14,-21.74 14.69,-38.69 9.91,-13.46 12.73,-31.01 19.65,-45.44 6.36,-13.2 14.61,-24.99 22.55,-37.16 18.06,-27.75 29.08,-48.21 50.22,-71.74 13.41,-14.86 45.86,-47.11 53,-63.89l7.04 1.03c-2.18,15.45 -22.33,47.48 -31.09,63.54 -8.96,16.49 -36.55,54.37 -28.18,75.85 26.39,-2.35 4.99,-8.03 26.73,-10.68 -7.39,52.31 -37.88,64.14 -42.7,98.52 -4.15,29.47 13.28,14.65 26.13,1.15 12.77,-13.45 13.45,-15.67 30.83,-21.95 -4.44,27.16 -25.75,55.99 -35.53,78.62 -11.01,25.5 -29.72,52.23 -33.78,80.97 36.35,4.28 17.6,-25.06 54.45,-28.35 -4.27,30.36 -16.74,48.89 -30.19,68.97 -10.55,15.71 -7.43,18.06 -14.99,34.63 -9.78,21.39 -12.43,6.53 -10.08,32.76 13.03,-6.32 25.71,-23.88 39.8,-26.82 -4.4,31.21 -10.54,22.5 -19.26,45.65 -10.03,26.6 -17.12,33.61 -21.39,63.93 20.28,2.39 11.83,-0.17 26.22,-7.13 -9.05,64.31 -26.99,33.14 -22.5,83.32 10.03,-3.63 14.09,-4.1 22.41,-12.13l12.99 -16.36c7.94,-8.58 9.39,-6.96 16.78,-19.64 5.34,-9.14 7.22,-13.16 12.13,-21.65 14.69,-25.58 38.22,-51.34 58.16,-73.71 37.25,-41.81 88.02,-96.82 136.02,-125.64 88.79,-53.34 117.61,-69.06 215.92,-94.94 23.32,-6.19 82.34,-16.27 102.02,-15.5 18.58,0.73 44.97,-2.05 53.13,3.38 -4.74,8.96 0.08,5.72 -14.52,10.07l-94.21 21.74c-12.38,2.73 -18.15,11.06 -27.97,17.42 15.63,6.03 20.75,10.13 41.42,13.03 -18.49,12 -42.62,18.32 -63.41,24.85 -28.66,9.01 -44.46,-1.87 -65.69,21.83 19.39,12.94 36.65,12.38 66.16,16.52 -5.39,10.17 -25.24,13.67 -37.5,17.34l-38.65 11.62c-21.14,7.6 -60.17,9.1 -69.56,33.39 19.21,7.44 35.19,8.59 59.57,12.01 -14.65,16.35 -41.21,20.28 -66.24,25.32 -21.39,4.36 -51.2,11.32 -63.37,24.9 16.52,6.36 48.21,8.28 59.06,15.5 -5.81,10.08 1.2,4.99 -15.76,8.41l-47.4 12.6c-17.13,4.7 -52.91,7.04 -61.88,22.68 29.25,11.31 68.03,2.26 91,-13.37 15.38,-10.51 16.62,-7 34.13,-13.41l106.5 -30.54 81.36 -5.25c42.36,-3.46 136.74,9.4 180.64,22.47 15.89,4.69 30.7,4.44 45.57,9.9 19.77,7.31 61.11,19.73 70.54,32.16 5.81,7.69 11.62,21.14 12.56,31.6 -15.93,-2.22 -37.5,-4.01 -52.53,-7.81 -15.67,-3.97 -44.11,-19.73 -63.59,-12.13 2.99,24.81 20.71,18.62 38.91,30.7 -7.52,10.42 -5.51,10.55 -20.16,11.02 -30.11,0.98 -51.33,-10.29 -83.79,-14.86 -16.61,-2.35 -28.57,-6.06 -43.43,1.11 8.37,17.25 18.32,16.78 35.15,27.25 13.24,8.24 30.75,13.92 32.58,29.12 -36.38,-2.05 -76.83,-3.5 -112.95,-12.81 -35.15,-9.1 -49.5,-5.9 -85.93,-7.99 8.67,16.15 46.6,32.63 64.4,43.14 13.46,7.94 11.58,-3.08 13.46,18.27 -30.62,-4.31 -61.24,-8.62 -91.86,-12.94 -36.69,-5.16 -64.62,-16.69 -79.22,-0.34 17.47,3.97 24.04,10.93 37.37,16.1l-1.5 10.59c-15.5,-0.89 -25.45,1.71 -46.21,-3.07 -54.06,-12.51 -46.12,-6.32 -88.57,-12.3 -3.58,30.45 19.35,27.93 49.5,32.2 -11.27,26.6 -91.6,-6.11 -140.29,-1.75 19.39,40.1 58.6,30.96 99.42,35.48l116.67 16.57c67.91,9.57 55.01,14.95 90.97,26.27 10.63,3.37 20.96,4.78 27.75,7.51 33.31,13.41 117.78,56.97 143.75,78.15 13.36,10.89 25.67,20.93 38.3,31.14 25.07,20.28 53.69,39.63 75.94,62.86 12.85,13.41 22.24,23.7 33.05,38.26l46.25 56.76c19.64,21.52 51.08,77.81 66.02,105.1 14.14,25.83 59.02,107.66 57.36,136.83 -20.72,-3.38 -23.41,-17.04 -34.72,-30.71l-6.32 -7.86c-0.43,-0.6 -0.99,-1.49 -1.41,-2.09 -27.63,-39.84 -70.98,-84.47 -87,-108.22 -7.77,-11.57 -5.08,-14.22 -19.73,-19.9 -7.21,31.78 -2.09,37.33 13.8,81.23 -12.56,-2.82 -18.06,-5.12 -23.96,-13.58l-14.99 -20.29c-24,-23.48 -40.53,-54.23 -63.67,-78.4 -13.11,-13.71 -20.93,-35.62 -30.92,-39.89 -14.99,16.78 -7.86,15.5 0.85,34.12 4.31,9.18 3.29,13.37 6.62,23.45 5.9,17.63 13.28,21.43 10.38,45.86 -20.71,-3.37 -13.62,-6.49 -26.52,-17.94 -18.36,-16.27 -51.25,-57.9 -58.16,-63.54 -17.47,-14.31 -7.73,-9.74 -18.45,-24.05 -7.31,-9.73 -12.17,-9.13 -20.8,-19.09 -13.54,-15.63 -17,-35.14 -43.9,-39.58 3.54,39.84 32.2,78.28 26.43,119.06 -25.75,-4.23 -27.76,-22.42 -40.31,-39.12 -7.73,-10.29 -10.81,-11.79 -18.75,-20.63 -7.47,-8.37 -8.8,-14.47 -14.77,-23.61l-35.32 -42.88c-20.54,-24.21 -21.74,-35.91 -40.53,-38.99 -2.73,19.48 1.62,25.58 8.63,37.71 11.1,19.39 4.48,15.42 10.16,33.4 -31.94,-5.21 -48.3,-44.8 -66.7,-63.46l-30.15 -34.12c-13.5,-15.03 -11.28,-25.24 -36.6,-29.34 -1.54,27.2 25.23,72.98 42.32,88.19 23.74,21.05 45.48,46.97 64.01,71.83 28.23,37.96 55.6,79.47 77.39,121.75 6.87,13.28 13.66,27.41 20.07,41.72l32.28 95.75c3.29,13.49 0.68,1.28 4.82,12.17 6.37,16.74 -3.71,7.09 6.58,29.76l3.76 6.66c4.06,9.66 8.03,87 13.88,109.54 3.03,11.62 0.73,44.46 2.05,58.51 7.39,78.88 -15.37,181.67 -32.76,258.41l-9.9 -24.13c-6.71,-20.62 2.73,-46.25 -2.86,-61.02 -5.77,-15.08 -9.23,-0.26 -7.82,-25.71l-4.61 -119.71c-36.51,17.64 -24.43,86.31 -46.25,98.01l-7.13 -117.82c-1.45,-23.15 9.31,-97.46 -18.53,-109.24 -7.35,19.04 -10.81,43.94 -17.34,65.08 -2.82,9.14 -7.61,19.22 -12.52,29.47 -5.89,12.25 -5.59,16.4 -15.33,21.61 2.48,-20.8 -5.21,-46.08 -7.39,-63.94 -1.7,-14.39 2.27,-19.38 -0.81,-34.16 -14.26,-69.44 -0.94,-137.64 -25.62,-148.1 -17.85,9.61 -12.26,37.88 -21.35,59.7 -6.71,16.06 -14.01,38.95 -23.32,52.91 -8.54,-8.28 -11.02,-38.77 -11.96,-54.15 -0.73,-12.04 1.67,-20.33 0.3,-31.81 -3.97,-33.7 -5.64,-15.08 -9.52,-81.27 -1.24,-21.27 2.56,-41.94 -9.01,-53.21 -12.09,18.11 -14.14,66.06 -23.53,90.36 -29.26,-26.13 -6.28,-55.34 -24.39,-120.64 -6.79,-24.6 0.81,-58.89 -5.29,-78.15 -17.9,9.61 -16.62,41.25 -20.55,69.18 -12.68,6.11 -6.23,8.59 -22.71,7.65l-5.68 -84.18c-2.01,-12.42 -6.49,-26.86 -7.78,-38.35 -1.96,-17.55 1.97,-26.3 -2.99,-41.98 -25.88,12.51 -25.36,56.5 -37.7,88.4l-7.05 -1.02c1.11,-19.86 -7.52,-41.17 -8.58,-59.87 -0.39,-7.01 0.76,-12.3 0.76,-19.52 0.05,-15.2 -4.61,-25.8 -6.15,-39.59 -2.13,-19.09 2.14,-20.63 -3.5,-38.44 -23.02,12.35 -26.69,59.96 -37.66,88.41 -12.34,-8.93 -14.18,-20.33 -22.64,-33.49 -4.74,-7.34 -1.71,0.73 -5.97,-11.31 -5.94,-16.57 -8.21,-37.92 -27.08,-45.95 -15.12,107.27 -14.56,235.82 -32.37,362.1 -57.87,368.2 -130.38,861.15 -168.35,1107.48 -135.93,882.25 -213.48,1238.24 -241.96,1353.72 -12.73,51.63 -40.49,11.7 -53.81,20.88 -45.91,31.6 207.08,-1224.54 335.11,-2124.9 55.68,-391.56 67.94,-663.89 64.27,-679.82l-0.01 0z"/>
   <path class="fil10" d="M7783.51 5031.24l-7637.73 0c99.49,355.8 250.5,703.6 456,1032.88 88.93,142.49 185.49,277.29 288.71,404.39 4.4,5.4 8.81,10.8 13.25,16.18 12.83,15.63 25.83,31.04 38.86,46.43 9.17,10.79 18.27,21.63 27.55,32.32 4.03,4.65 8.14,9.2 12.19,13.83 219.21,250.15 469.38,472.45 744.51,661 6.3,4.3 12.57,8.67 18.89,12.94 12.84,8.69 25.81,17.23 38.76,25.77 15.46,10.17 30.95,20.29 46.53,30.22 6.69,4.28 13.38,8.56 20.1,12.8 593.96,373.7 1276.41,582 1972.35,607.52 1.84,0.07 3.68,0.12 5.51,0.18 26.18,0.92 52.37,1.49 78.58,1.9 10.06,0.16 20.15,0.2 30.22,0.32 18.01,0.14 36.02,0.11 54.03,0 14.57,-0.09 29.14,-0.2 43.68,-0.46 13.63,-0.22 27.27,-0.61 40.9,-0.98 17.24,-0.47 34.48,-0.94 51.66,-1.63 10.86,-0.44 21.71,-1.04 32.56,-1.57 19.17,-0.93 38.35,-1.82 57.45,-3.03 6.15,-0.38 12.29,-0.92 18.44,-1.33 36.78,-2.49 73.4,-5.55 109.89,-9.03 14.7,-1.41 29.41,-2.71 44.12,-4.29 12.63,-1.34 25.19,-2.92 37.79,-4.39 18.3,-2.13 36.59,-4.28 54.88,-6.68 10.35,-1.35 20.65,-2.82 30.97,-4.25 21.51,-3 43.01,-6.11 64.49,-9.46 7.41,-1.15 14.81,-2.33 22.21,-3.53 26.58,-4.3 53.14,-8.82 79.67,-13.68 2.39,-0.43 4.79,-0.85 7.19,-1.29 474.99,-87.83 941.79,-264.65 1376.4,-535.89 143.57,-89.6 279.38,-186.92 407.31,-291.03 3.3,-2.7 6.6,-5.4 9.89,-8.11 18.01,-14.75 35.76,-29.72 53.45,-44.74 9.11,-7.76 18.28,-15.45 27.31,-23.29 7.79,-6.74 15.42,-13.6 23.14,-20.39 250.78,-221 473.47,-473.12 661.89,-750.43l0.84 -1.23c11.57,-17.03 22.89,-34.24 34.2,-51.46 6.52,-9.98 13.04,-19.96 19.47,-29.98 7.45,-11.58 14.84,-23.21 22.17,-34.87 13.18,-21.02 26.23,-42.11 38.99,-63.36 1.2,-1.98 2.42,-3.95 3.62,-5.94 182.71,-305.35 322.4,-632.79 417.11,-972.36z"/>
   <path class="fil11" d="M2101.78 1200.28c-12.81,-13.46 -28.91,-21.61 -42.32,-20.25 -13.41,1.41 -24.13,12.39 -34.25,25.54l-0.94 1.28c-31.68,313.36 -89.17,643.89 -133.71,957.28 -59.79,420.43 -150.07,908.26 -210.49,1368.96 -120.18,915.61 -164.76,1725.52 -122.14,1696.18 18.58,-12.81 62.56,50.86 80.33,-21.14 39.76,-161.09 53.68,-761.61 243.29,-1992.34 52.95,-343.61 134.27,-934.78 214.98,-1448.45 24.81,-175.9 32.6,-309.77 53.61,-459.28 -6.94,-30.9 -26.58,-84.92 -48.36,-107.78z"/>
   <path class="fil12" d="M2553.18 2990.39c-12.26,-30.06 -14.56,-34.67 -16.7,-38.95 -2.95,-5.8 -5.55,-11.01 -10.08,-16.35 -4.57,-5.38 -11.02,-10.85 -16.83,-11.92 -5.8,-1.06 -10.93,2.23 -16.31,7.95 -5.38,5.72 -10.97,13.83 -14.52,20.67l-0.21 0.47c7.13,63.03 1.62,28.65 7.68,83.06 5.3,11.27 40.06,216.43 61.71,517.59 49.71,692.42 35.24,1667.22 64.4,1636.22 8.46,-8.97 34.51,11.95 35.66,-28.57 2.65,-90.75 -0.98,-344.94 -22.16,-1030.19 -5.9,-190.16 -23.02,-580.71 -39.25,-864.78 -7.09,-97.12 -28.27,-192.9 -34.29,-275.41l0.9 0.21z"/>
   <path class="fil13" d="M3965.02 2355.83c-5.77,-12.51 -14.09,-25.36 -22.38,-36.77 -8.84,-12.08 -17.59,-22.5 -26.35,-31.98 -8.8,-9.48 -17.55,-18.07 -23.4,-21.36 -5.85,-3.28 -8.75,-1.28 -12.43,3.51 -2.18,2.81 -4.65,6.66 -8.45,17.72 1.79,-0.81 3.63,-1.62 5.59,-2.31 -8.37,83.36 -5.85,37.46 -13.19,108.9 3.67,15.93 -8.59,288.26 -64.28,679.83 -128.03,900.36 -381.01,2156.49 -335.1,2124.89 13.32,-9.18 41.08,30.75 53.8,-20.88 28.49,-115.48 106.04,-471.47 241.97,-1353.72 37.97,-246.32 110.48,-739.27 168.35,-1107.48 17.81,-126.28 17.25,-254.82 32.37,-362.1 1.24,0.56 2.39,1.11 3.5,1.75l0 0z"/>
   <path class="fil14" d="M209.09 5236.32c381.73,8.23 795.04,24.94 1177.2,38.64 459.68,16.49 874.27,28.61 1108.29,30.37 234.07,1.79 287.63,-6.84 320.42,-17.43 32.8,-10.59 44.8,-23.14 123.89,-27.71 79.14,-4.57 225.27,-1.16 445.76,15.93 220.45,17.03 515.24,47.74 771.86,53.89 256.66,6.15 475.1,-12.3 644,-25.45 168.89,-13.16 288.21,-21.06 277.71,-31.56 -10.55,-10.55 -150.92,-23.71 -290.44,-36.86 -139.48,-13.15 -278.1,-26.35 -410.57,-32.92 -132.51,-6.58 -258.84,-6.58 -445.72,-26.74 -186.87,-20.2 -434.31,-60.55 -619.87,-87.76 -185.55,-27.2 -309.27,-41.21 -503.32,-47.27 -194.06,-6.02 -458.44,-4.02 -702.04,-9.52 -243.55,-5.47 -466.34,-18.45 -718.81,-50.65 -252.48,-32.2 -534.72,-83.66 -780.75,-124.49 -175.66,-29.18 -332.92,-52.99 -520.81,-68.66 31.96,150.66 73.01,300.3 123.2,448.19z"/>
   <path class="fil15" d="M728.46 4853.93c-1.92,3.33 -4.23,8.8 -2.99,16.78 1.2,8.03 5.94,18.62 12.81,31.18 6.88,12.51 15.93,26.99 23.1,43.13 7.18,16.1 12.48,33.82 17.17,51.67 4.66,17.85 8.76,35.83 10.89,55.56 2.1,19.78 2.27,41.38 26.65,59.62 24.39,18.23 72.99,33.14 141.83,54.32 68.79,21.18 157.84,48.64 232.36,66.41 74.47,17.76 134.39,25.88 192.04,29.85 57.66,3.97 113.09,3.84 177.96,8.58 64.82,4.75 139.13,14.4 201.18,16.62 62.09,2.22 111.93,-2.99 165.15,-7.69 53.16,-4.65 109.71,-8.88 151.43,-13.24 41.72,-4.4 68.67,-8.97 80.16,-14.43 11.48,-5.51 7.56,-11.87 1.62,-19.31 -5.94,-7.47 -13.84,-15.93 -24.3,-27.71 -10.42,-11.79 -23.4,-26.82 -36.39,-49.8 -12.98,-22.97 -25.92,-53.89 -35.36,-81.31 -9.48,-27.42 -15.37,-51.37 -20.41,-75.16 -4.99,-23.83 -9.14,-47.53 -11.23,-69.95 -2.09,-22.47 -2.18,-43.73 -5.17,-53.6 -2.99,-9.86 -8.92,-8.37 -14.6,-1.36 -5.68,7.04 -11.11,19.64 -14.05,31.85 -2.99,12.22 -3.46,24.05 -3.38,38.52 0.13,14.44 0.86,31.48 1.16,51.46 0.34,19.99 0.21,42.92 0.76,64.49 0.56,21.52 1.76,41.68 1.07,50.05 -0.64,8.41 -3.16,5.04 -6.83,-8.33 -3.72,-13.41 -8.58,-36.85 -16.49,-60.68 -7.94,-23.79 -18.91,-48 -25.87,-72.56 -6.97,-24.55 -9.91,-49.5 -9.78,-73.45 0.08,-23.92 3.33,-46.89 5.63,-71.58 2.31,-24.72 3.72,-51.2 2.01,-57.48 -1.71,-6.28 -6.62,7.6 -10.29,19.35 -3.68,11.74 -6.15,21.35 -7.99,26.86 -1.84,5.46 -3.08,6.83 -5.94,1.28 -2.9,-5.51 -7.38,-17.85 -12.68,-28.91 -5.34,-11.02 -11.45,-20.76 -15.46,-17.55 -4.06,3.16 -6.02,19.21 -6.7,38.05 -0.69,18.87 -0.09,40.52 -0.47,62.01 -0.39,21.48 -1.71,42.74 -2.39,66.83 -0.65,24.09 -0.65,50.99 -1.76,71.32 -1.11,20.33 -3.28,34.12 -11.14,25.71 -7.9,-8.42 -21.44,-39.08 -34.89,-68.16 -13.5,-29.13 -26.87,-56.67 -41.47,-96.77 -14.56,-40.06 -30.36,-92.63 -35.83,-131.32 -5.47,-38.73 -0.6,-63.55 2.86,-81.7 3.46,-18.15 5.51,-29.59 -1.54,-31.26 -7.09,-1.7 -23.19,6.41 -35.44,17.13 -12.21,10.72 -20.5,24.13 -22.17,41.08 -1.66,16.91 3.25,37.41 7.69,56.54 4.44,19.14 8.41,36.9 15.46,61.97 7,25.02 17.13,57.35 21.7,77 4.57,19.6 3.58,26.52 -8.03,16.05 -11.58,-10.5 -33.78,-38.39 -50.48,-59.7 -16.66,-21.31 -27.8,-36.04 -33.44,-56.03 -5.63,-19.94 -5.76,-45.14 -8.58,-62.48 -2.82,-17.29 -8.33,-26.73 -15.93,-25.28 -7.56,1.46 -17.17,13.8 -25.07,27.85 -7.9,14.09 -14.09,29.89 -19,50.73 -4.96,20.84 -8.67,46.76 -12.6,60.73 -3.97,13.92 -8.16,15.93 -17.51,2.09 -9.4,-13.83 -23.96,-43.43 -33.7,-66.24 -9.69,-22.84 -14.6,-38.86 -18.66,-54.4 -4.06,-15.54 -7.35,-30.62 -11.45,-43.86 -4.1,-13.19 -9.01,-24.55 -16.31,-37.75 -7.26,-13.2 -16.91,-28.27 -23.83,-39.5 -6.87,-11.23 -11.1,-18.62 -13.66,-17.17 -2.61,1.49 -3.59,11.87 -0.39,26.52 3.16,14.69 10.51,33.61 18.28,53.13 7.77,19.51 15.97,39.54 21.69,56.84 5.68,17.29 8.89,31.85 10.51,46.8 1.58,14.91 1.58,30.19 -3.72,48.22 -5.29,18.02 -15.93,38.77 -25.66,55.17 -9.74,16.44 -18.62,28.53 -25.24,29.72 -6.62,1.24 -10.98,-8.41 -14.14,-17.76 -3.16,-9.35 -5.12,-18.45 -8.15,-29.04 -2.99,-10.59 -7.05,-22.72 -10.94,-37.32 -3.84,-14.57 -7.56,-31.61 -13.06,-36.22 -5.56,-4.61 -12.9,3.25 -14.1,14.73 -1.24,11.49 3.72,26.61 5.77,46.17 2.09,19.52 1.28,43.43 1.19,63.25 -0.12,19.81 0.47,35.53 0.35,48.6 -0.13,13.11 -0.94,23.53 -5.3,23.36 -4.35,-0.22 -12.26,-11.07 -19.3,-27.25 -7.05,-16.14 -13.2,-37.62 -22.59,-62.95 -9.35,-25.28 -21.95,-54.4 -29.13,-73.15 -7.13,-18.75 -8.88,-27.16 -11.19,-27.16 -2.3,0 -5.21,8.37 -5.46,23.91 -0.26,15.55 2.18,38.27 6.11,56.03 3.88,17.81 9.31,30.62 14.9,43.95 5.55,13.36 11.19,27.16 15.03,41.21 3.85,14.09 5.81,28.4 4.44,45.31 -1.36,16.91 -6.02,36.43 -12.81,54.54 -6.79,18.15 -15.67,34.93 -20.88,42.32 -5.17,7.43 -6.66,5.46 -11.96,-2.1 -5.3,-7.51 -14.44,-20.58 -21.52,-38.82 -7.09,-18.19 -12.13,-41.51 -15.42,-68.41 -3.25,-26.86 -4.74,-57.27 -5.43,-76.19 -0.68,-18.96 -0.55,-26.43 -2.6,-27.67 -2.05,-1.28 -6.24,3.67 -11.32,10.08 -5.04,6.41 -10.97,14.31 -14.3,22.59 -3.33,8.24 -4.06,16.91 -2.61,27.03 1.5,10.12 5.21,21.7 4.32,26.14 -0.86,4.44 -6.28,1.75 -12.3,-1.71 -6.07,-3.46 -12.73,-7.64 -23.71,-10.98 -11.01,-3.33 -26.3,-5.8 -31.77,-4.35 -5.46,1.49 -1.11,6.92 5.09,13.19 6.14,6.32 14.13,13.5 21.69,21.87 7.56,8.41 14.73,18.02 21.91,32.97 7.13,14.9 14.3,35.14 18.23,55 3.97,19.9 4.7,39.38 2.09,46.68 -2.56,7.26 -8.49,2.35 -19.13,1.96 -10.59,-0.38 -25.88,3.85 -38.64,7.73 -12.77,3.93 -22.98,7.56 -30.88,3.72 -7.9,-3.8 -13.5,-15.08 -17,-31.48 -3.54,-16.35 -5.04,-37.83 -7,-66.23 -1.97,-28.36 -4.44,-63.68 -2.52,-94.77 1.92,-31.09 8.24,-57.95 11.83,-76.35 3.58,-18.37 4.4,-28.27 0.12,-29.04 -4.27,-0.73 -13.62,7.64 -19.17,17.29 -5.55,9.61 -7.3,20.46 -8.97,34.17 -1.71,13.71 -3.33,30.27 -4.99,42.15 -1.63,11.87 -3.29,19.09 -8.25,14.77 -4.99,-4.35 -13.28,-20.2 -19.3,-35.78 -6.02,-15.59 -9.69,-30.88 -15.03,-50.99 -5.3,-20.12 -12.22,-45.06 -18.36,-61.33 -6.2,-16.31 -11.62,-23.96 -19.01,-31.34 -7.43,-7.44 -16.78,-14.57 -24.43,-18.92 -7.68,-4.32 -13.58,-5.77 -13.66,0.59 -0.09,6.32 5.64,20.54 9.74,32.25 4.05,11.74 6.44,21.01 12.68,31.56 6.23,10.59 16.31,22.46 21.82,31.77 5.47,9.27 6.41,15.97 8.84,25.92 2.43,9.95 6.36,23.1 10.21,37.5 3.88,14.43 7.73,30.02 9.27,51.37 1.49,21.35 0.68,48.43 0.08,79.26 -0.6,30.83 -1.07,65.47 -4.23,82.55 -3.2,17.08 -9.1,16.61 -16.48,6.53 -7.35,-10.07 -16.19,-29.68 -28.15,-51.03 -11.95,-21.35 -27.07,-44.41 -34.93,-66.53 -7.81,-22.12 -8.33,-43.26 -9.44,-63.51 -1.11,-20.24 -2.82,-39.54 -7.6,-43.9 -4.83,-4.4 -12.73,6.24 -17.89,17.08 -5.21,10.89 -7.65,22 -5.77,37.33 1.92,15.37 8.2,34.97 11.79,52.01 3.59,17.04 4.52,31.52 -3.29,33.06 -7.81,1.54 -24.38,-9.82 -36.26,-27.12 -11.87,-17.25 -19.04,-40.48 -22.25,-62.95 -3.2,-22.46 -2.47,-44.15 0.94,-67 3.38,-22.8 9.44,-46.76 14.39,-72.3 4.92,-25.54 8.72,-52.7 11.02,-76.53 2.26,-23.79 3.03,-44.29 0.3,-51.2 -2.73,-6.92 -8.88,-0.26 -14.56,9.86 -5.68,10.12 -10.85,23.7 -16.53,37.88 -5.68,14.22 -11.87,29 -16.18,50.61 -4.32,21.61 -6.79,49.96 -8.25,77.64 -1.49,27.63 -2,54.53 -0.17,79.13 1.84,24.6 5.98,46.89 6.07,62.22 0.08,15.34 -3.93,23.66 -9.18,20.46 -5.3,-3.25 -11.79,-18.07 -18.49,-33.1 -6.67,-15.03 -13.54,-30.28 -19.09,-43.09 -5.56,-12.77 -9.83,-23.06 -15.98,-33.14 -6.15,-10.08 -14.13,-19.94 -21.26,-27.84 -7.14,-7.95 -13.37,-13.97 -17.3,-16.36 -3.93,-2.39 -5.55,-1.11 -7.52,2.26l0.01 0z"/>
   <path class="fil16" d="M4081.99 5051.66c1.07,2.3 2.18,6.06 0.85,11.27 -1.32,5.17 -5.12,11.83 -10.5,19.64 -5.38,7.78 -12.3,16.74 -18.11,26.87 -5.81,10.12 -10.46,21.48 -14.73,32.88 -4.27,11.45 -8.16,23.02 -10.89,35.87 -2.69,12.9 -4.23,27.12 -21.53,37.5 -17.25,10.37 -50.26,16.95 -97.02,26.3 -46.72,9.4 -107.19,21.53 -157.46,28.27 -50.22,6.75 -90.24,8.08 -128.45,6.84 -38.27,-1.2 -74.74,-5 -117.79,-6.2 -43,-1.19 -92.58,0.22 -133.62,-2.47 -41.04,-2.69 -73.54,-9.4 -108.22,-16.06 -34.72,-6.62 -71.66,-13.15 -98.86,-18.83 -27.2,-5.64 -44.63,-10.47 -51.85,-14.82 -7.21,-4.4 -4.18,-8.33 0.22,-12.86 4.4,-4.48 10.21,-9.56 17.85,-16.61 7.64,-7.04 17.21,-16.1 27.29,-30.36 10.08,-14.27 20.67,-33.78 28.7,-51.2 8.07,-17.43 13.53,-32.8 18.45,-48.13 4.91,-15.38 9.18,-30.71 12.08,-45.36 2.86,-14.65 4.31,-28.61 6.96,-34.93 2.65,-6.28 6.45,-4.91 9.69,0.08 3.29,5 6.03,13.67 7.18,21.91 1.11,8.24 0.64,16.1 -0.39,25.58 -1.02,9.52 -2.64,20.67 -4.18,33.82 -1.54,13.16 -2.99,28.27 -4.83,42.41 -1.79,14.18 -3.88,27.33 -4.01,32.93 -0.13,5.55 1.75,3.54 5.04,-5.04 3.33,-8.59 8.11,-23.7 14.95,-38.86 6.79,-15.16 15.63,-30.37 21.86,-46.08 6.19,-15.72 9.82,-31.95 11.32,-47.71 1.54,-15.8 0.94,-31.13 1.07,-47.53 0.12,-16.44 0.93,-33.95 2.52,-38 1.53,-4.02 3.84,5.46 5.46,13.45 1.62,7.99 2.61,14.48 3.46,18.19 0.85,3.76 1.58,4.74 3.84,1.28 2.27,-3.41 6.07,-11.27 10.3,-18.19 4.22,-6.92 8.88,-12.9 11.36,-10.55 2.43,2.35 2.64,13.03 1.88,25.5 -0.82,12.47 -2.65,26.73 -3.85,40.87 -1.19,14.17 -1.71,28.27 -2.9,44.2 -1.16,15.88 -2.95,33.61 -3.59,47.06 -0.64,13.49 -0.09,22.72 5.64,17.68 5.76,-5 16.74,-24.3 27.54,-42.54 10.81,-18.27 21.44,-35.57 33.74,-60.98 12.26,-25.41 26.18,-58.97 32.33,-84.13 6.19,-25.11 4.65,-41.81 3.58,-53.98 -1.06,-12.17 -1.66,-19.86 3.12,-20.5 4.74,-0.64 14.82,5.77 22.17,13.67 7.34,7.9 11.91,17.25 11.87,28.52 0,11.28 -4.66,24.43 -8.84,36.73 -4.19,12.3 -7.99,23.75 -14.31,39.76 -6.28,16.06 -15.12,36.68 -19.43,49.28 -4.31,12.6 -4.1,17.26 4.23,11.11 8.33,-6.15 24.81,-23.02 37.24,-35.96 12.38,-12.9 20.71,-21.87 25.75,-34.63 5.04,-12.77 6.79,-29.39 9.82,-40.62 2.99,-11.19 7.26,-17.04 12.17,-15.59 4.87,1.5 10.38,10.25 14.65,20.03 4.27,9.78 7.3,20.63 9.14,34.68 1.88,14.05 2.56,31.39 4.23,40.83 1.7,9.43 4.31,11.01 11.4,2.56 7.13,-8.5 18.7,-27.03 26.6,-41.38 7.95,-14.39 12.22,-24.64 15.93,-34.59 3.72,-9.96 6.88,-19.69 10.47,-28.11 3.58,-8.45 7.56,-15.58 13.24,-23.82 5.68,-8.2 13.02,-17.47 18.32,-24.39 5.29,-6.96 8.58,-11.53 10.16,-10.42 1.62,1.15 1.58,8.07 -1.49,17.51 -3.08,9.44 -9.19,21.44 -15.59,33.74 -6.45,12.34 -13.16,24.98 -18.07,36 -4.91,11.02 -7.98,20.41 -10.03,30.11 -2.05,9.73 -3.08,19.81 -0.81,32.03 2.3,12.25 7.94,26.6 13.24,38.05 5.33,11.44 10.37,20.02 14.64,21.26 4.28,1.24 7.78,-4.78 10.51,-10.76 2.69,-5.94 4.61,-11.79 7.3,-18.58 2.69,-6.79 6.15,-14.51 9.65,-23.87 3.55,-9.31 7.13,-20.28 11.06,-22.97 3.93,-2.65 8.29,2.99 8.29,10.63 0.04,7.64 -4.23,17.3 -6.88,30.02 -2.64,12.73 -3.76,28.53 -4.99,41.6 -1.24,13.07 -2.65,23.36 -3.46,31.98 -0.77,8.63 -0.94,15.55 1.92,15.72 2.9,0.17 8.8,-6.45 14.52,-16.66 5.72,-10.16 11.23,-23.91 19.09,-39.93 7.86,-16.01 18.06,-34.38 24.04,-46.25 5.98,-11.87 7.69,-17.29 9.18,-17.12 1.54,0.13 2.91,5.85 2.01,16.1 -0.85,10.25 -3.97,25.07 -7.73,36.51 -3.76,11.45 -8.2,19.52 -12.77,27.93 -4.52,8.41 -9.18,17.12 -12.64,26.14 -3.46,9.01 -5.72,18.32 -5.94,29.55 -0.25,11.23 1.54,24.38 4.83,36.77 3.25,12.38 7.98,24.04 10.89,29.25 2.94,5.25 4.01,4.06 8.03,-0.56 4.01,-4.61 10.89,-12.59 16.78,-24.12 5.85,-11.53 10.76,-26.57 14.69,-44.03 3.93,-17.51 6.92,-37.41 8.63,-49.84 1.75,-12.43 2.18,-17.34 3.59,-18.06 1.45,-0.69 3.88,2.86 6.79,7.38 2.9,4.57 6.27,10.17 7.9,15.85 1.66,5.68 1.58,11.4 -0.09,17.98 -1.66,6.57 -4.87,13.96 -4.57,16.95 0.26,2.95 4.02,1.54 8.24,-0.34 4.19,-1.88 8.89,-4.19 16.32,-5.64 7.47,-1.49 17.68,-2.09 21.18,-0.72 3.55,1.32 0.3,4.61 -4.18,8.32 -4.49,3.76 -10.21,7.95 -15.76,12.94 -5.55,5.04 -10.89,10.89 -16.62,20.24 -5.72,9.4 -11.78,22.21 -15.71,35.07 -3.89,12.81 -5.68,25.58 -4.48,30.57 1.24,4.96 5.46,2.1 12.47,2.57 7.04,0.47 16.82,4.27 24.98,7.68 8.11,3.42 14.6,6.49 20.07,4.49 5.47,-1.97 9.87,-9.01 13.28,-19.6 3.42,-10.55 5.85,-24.6 9.01,-43.14 3.21,-18.57 7.18,-41.64 7.99,-62.26 0.81,-20.58 -1.54,-38.73 -2.69,-51.08 -1.11,-12.34 -1.03,-18.91 1.83,-19.13 2.87,-0.21 8.5,5.94 11.49,12.68 3.03,6.71 3.42,13.97 3.63,23.11 0.21,9.14 0.17,20.15 0.47,28.06 0.3,7.94 0.9,12.81 4.44,10.29 3.59,-2.52 10.12,-12.43 15.12,-22.29 4.99,-9.87 8.46,-19.69 13.28,-32.59 4.82,-12.9 11.06,-28.82 16.18,-39.16 5.17,-10.29 9.27,-14.99 14.61,-19.39 5.38,-4.35 12.04,-8.45 17.38,-10.8 5.3,-2.31 9.31,-2.91 8.93,1.28 -0.34,4.23 -5.09,13.15 -8.54,20.63 -3.46,7.43 -5.68,13.36 -10.47,19.94 -4.82,6.53 -12.25,13.71 -16.48,19.43 -4.23,5.77 -5.3,10.12 -7.56,16.48 -2.26,6.41 -5.72,14.82 -9.23,24.05 -3.54,9.22 -7.09,19.26 -9.52,33.22 -2.43,13.93 -3.67,31.82 -5.34,52.19 -1.66,20.37 -3.67,43.17 -2.73,54.66 0.98,11.45 4.91,11.53 10.42,5.38 5.51,-6.14 12.64,-18.49 21.95,-31.73 9.31,-13.28 20.8,-27.46 27.42,-41.51 6.66,-14 8.41,-27.92 10.46,-41.16 2.09,-13.29 4.48,-25.88 7.94,-28.44 3.46,-2.52 7.95,4.99 10.64,12.47 2.69,7.51 3.59,14.99 1.32,24.98 -2.3,9.99 -7.73,22.46 -11.23,33.44 -3.5,10.97 -5.08,20.45 -0.04,21.99 5.04,1.54 16.74,-4.82 25.71,-15.42 8.96,-10.59 15.2,-25.4 18.83,-39.97 3.63,-14.6 4.57,-28.95 3.84,-44.2 -0.72,-15.29 -3.07,-31.43 -4.65,-48.6 -1.54,-17.16 -2.26,-35.27 -2.18,-51.12 0.13,-15.84 0.98,-29.38 3.25,-33.73 2.22,-4.4 5.85,0.42 8.92,7.47 3.08,7.05 5.56,16.31 8.37,26.05 2.78,9.74 5.85,19.86 7.26,34.38 1.41,14.52 1.16,33.4 0.26,51.67 -0.86,18.32 -2.31,36.09 -5.17,52.15 -2.82,16.06 -7.04,30.49 -8.11,40.57 -1.07,10.08 0.98,15.84 4.69,14.09 3.68,-1.79 8.97,-11.1 14.35,-20.58 5.43,-9.44 10.94,-19.05 15.46,-27.08 4.49,-8.03 8.03,-14.56 12.73,-20.8 4.74,-6.19 10.63,-12.17 15.84,-16.91 5.26,-4.74 9.78,-8.28 12.51,-9.61 2.74,-1.28 3.72,-0.34 4.79,2.01l0 0z"/>
   <path class="fil17" d="M2940.13 4944.34c0.73,1.36 1.58,3.63 0.94,6.83 -0.6,3.2 -2.69,7.43 -5.68,12.38 -2.95,4.96 -6.83,10.68 -9.99,17.09 -3.16,6.4 -5.6,13.49 -7.77,20.67 -2.14,7.13 -4.1,14.3 -5.26,22.29 -1.15,7.94 -1.58,16.7 -11.7,23.7 -10.16,7 -30.07,12.26 -58.21,19.73 -28.18,7.52 -64.61,17.21 -95.02,23.23 -30.4,6.02 -54.75,8.37 -78.15,9.05 -23.4,0.73 -45.78,-0.21 -72.09,0.73 -26.3,0.9 -56.5,3.63 -81.65,3.55 -25.15,-0.05 -45.22,-2.95 -66.66,-5.68 -21.44,-2.74 -44.24,-5.3 -61.03,-7.73 -16.82,-2.44 -27.63,-4.7 -32.2,-7.09 -4.57,-2.39 -2.86,-4.92 -0.34,-7.82 2.52,-2.94 5.85,-6.23 10.25,-10.84 4.4,-4.57 9.86,-10.47 15.5,-19.56 5.6,-9.1 11.32,-21.4 15.54,-32.33 4.28,-10.93 7.05,-20.54 9.44,-30.11 2.4,-9.52 4.45,-19.04 5.64,-28.1 1.2,-9.05 1.58,-17.64 2.95,-21.56 1.36,-3.97 3.71,-3.29 5.89,-0.35 2.22,2.95 4.19,8.12 5.21,13.12 1.03,4.95 1.03,9.78 0.73,15.63 -0.26,5.8 -0.81,12.68 -1.24,20.79 -0.47,8.08 -0.77,17.34 -1.33,26.06 -0.55,8.71 -1.36,16.82 -1.23,20.24 0.12,3.41 1.19,2.09 2.9,-3.29 1.71,-5.34 4.06,-14.73 7.64,-24.26 3.59,-9.52 8.37,-19.13 11.58,-28.95 3.2,-9.82 4.78,-19.86 5.12,-29.55 0.34,-9.7 -0.6,-19.01 -1.15,-29.04 -0.56,-10.04 -0.73,-20.76 0.08,-23.28 0.77,-2.52 2.52,3.16 3.85,7.99 1.28,4.78 2.13,8.71 2.81,10.97 0.64,2.27 1.16,2.82 2.4,0.64 1.23,-2.17 3.24,-7.13 5.55,-11.48 2.35,-4.4 4.95,-8.24 6.53,-6.88 1.58,1.33 2.14,7.86 2.14,15.5 -0.05,7.65 -0.6,16.36 -0.82,25.07 -0.17,8.67 0.05,17.3 -0.08,27.08 -0.08,9.73 -0.51,20.62 -0.38,28.86 0.12,8.25 0.81,13.84 4.1,10.55 3.33,-3.24 9.31,-15.46 15.2,-26.99 5.89,-11.57 11.74,-22.5 18.28,-38.47 6.49,-16.02 13.7,-37.03 16.52,-52.57 2.82,-15.59 1.24,-25.71 0.13,-33.1 -1.11,-7.39 -1.75,-12.04 1.11,-12.6 2.91,-0.6 9.27,2.95 14.05,7.47 4.78,4.53 7.94,10.08 8.33,16.96 0.42,6.87 -1.88,15.07 -3.97,22.76 -2.1,7.64 -3.97,14.77 -7.22,24.81 -3.25,9.99 -7.86,22.93 -9.99,30.79 -2.14,7.86 -1.88,10.68 2.99,6.62 4.86,-4.06 14.26,-14.99 21.35,-23.36 7.09,-8.37 11.79,-14.14 14.39,-22.12 2.61,-7.99 3.03,-18.19 4.44,-25.15 1.41,-6.96 3.8,-10.68 6.83,-9.96 3.08,0.69 6.75,5.86 9.74,11.66 2.99,5.81 5.21,12.3 6.88,20.8 1.66,8.5 2.77,19.05 4.14,24.77 1.41,5.68 3.07,6.53 7.05,1.11 4.01,-5.47 10.37,-17.21 14.64,-26.27 4.32,-9.09 6.54,-15.5 8.42,-21.69 1.92,-6.23 3.46,-12.3 5.33,-17.55 1.84,-5.3 4.02,-9.82 7.18,-15.03 3.16,-5.26 7.26,-11.19 10.25,-15.63 2.99,-4.4 4.78,-7.35 5.81,-6.71 1.02,0.64 1.28,4.87 -0.26,10.72 -1.54,5.89 -4.78,13.45 -8.24,21.22 -3.46,7.73 -7.09,15.72 -9.65,22.64 -2.56,6.92 -4.1,12.72 -5,18.75 -0.85,6.02 -1.11,12.21 0.77,19.55 1.84,7.39 5.81,15.93 9.52,22.72 3.68,6.79 7.09,11.83 9.74,12.43 2.65,0.6 4.57,-3.2 5.98,-6.96 1.45,-3.72 2.39,-7.39 3.76,-11.62 1.36,-4.22 3.2,-9.09 4.99,-14.94 1.8,-5.81 3.59,-12.65 5.9,-14.44 2.3,-1.75 5.12,1.54 5.46,6.19 0.3,4.66 -1.92,10.72 -3.07,18.58 -1.16,7.86 -1.2,17.55 -1.45,25.58 -0.3,7.99 -0.77,14.35 -0.9,19.65 -0.17,5.29 0,9.52 1.75,9.52 1.75,-0.04 5.12,-4.31 8.24,-10.72 3.08,-6.45 5.94,-15.03 10.12,-25.11 4.19,-10.08 9.74,-21.65 12.9,-29.13 3.2,-7.47 4.01,-10.84 4.95,-10.8 0.94,0 2.01,3.46 1.84,9.74 -0.13,6.32 -1.45,15.46 -3.33,22.59 -1.84,7.13 -4.27,12.21 -6.71,17.55 -2.47,5.29 -4.95,10.76 -6.74,16.4 -1.76,5.63 -2.78,11.4 -2.48,18.28 0.26,6.83 1.88,14.81 4.31,22.24 2.48,7.44 5.81,14.35 7.78,17.43 2,3.07 2.6,2.3 4.86,-0.64 2.27,-2.99 6.2,-8.12 9.31,-15.38 3.16,-7.26 5.6,-16.61 7.31,-27.41 1.75,-10.81 2.81,-23.11 3.41,-30.75 0.56,-7.64 0.64,-10.68 1.5,-11.15 0.81,-0.47 2.43,1.58 4.4,4.28 1.96,2.64 4.22,5.93 5.42,9.35 1.24,3.37 1.41,6.87 0.64,10.97 -0.77,4.06 -2.43,8.67 -2.18,10.51 0.3,1.79 2.52,0.81 5.04,-0.51 2.48,-1.29 5.25,-2.91 9.74,-4.06 4.53,-1.2 10.72,-1.97 12.94,-1.28 2.18,0.68 0.34,2.82 -2.26,5.25 -2.61,2.48 -5.94,5.25 -9.14,8.5 -3.16,3.29 -6.24,7.09 -9.35,13.02 -3.12,5.9 -6.37,13.97 -8.25,21.95 -1.92,7.99 -2.52,15.85 -1.58,18.84 0.94,2.99 3.42,1.07 7.69,1.11 4.31,0 10.42,1.92 15.54,3.71 5.09,1.8 9.19,3.42 12.43,2.01 3.25,-1.45 5.68,-5.89 7.35,-12.47 1.7,-6.58 2.64,-15.25 3.88,-26.69 1.24,-11.45 2.78,-25.67 2.48,-38.31 -0.3,-12.6 -2.39,-23.53 -3.59,-31.04 -1.15,-7.48 -1.32,-11.49 0.39,-11.75 1.75,-0.25 5.42,3.29 7.51,7.3 2.1,3.97 2.65,8.37 3.08,13.97 0.47,5.55 0.89,12.3 1.36,17.12 0.47,4.83 1.03,7.78 3.12,6.07 2.09,-1.67 5.68,-7.95 8.37,-14.14 2.65,-6.23 4.4,-12.34 6.88,-20.41 2.43,-8.03 5.63,-18.02 8.37,-24.51 2.77,-6.49 5.08,-9.48 8.2,-12.39 3.11,-2.86 7,-5.64 10.16,-7.26 3.16,-1.62 5.59,-2.13 5.51,0.47 -0.04,2.56 -2.61,8.2 -4.44,12.9 -1.84,4.65 -2.95,8.37 -5.64,12.55 -2.65,4.19 -6.92,8.84 -9.31,12.52 -2.35,3.67 -2.86,6.36 -3.97,10.33 -1.15,3.97 -2.94,9.27 -4.74,15.03 -1.79,5.77 -3.59,12 -4.53,20.58 -0.94,8.63 -1.02,19.61 -1.28,32.08 -0.21,12.51 -0.59,26.52 0.43,33.48 1.03,6.92 3.42,6.83 6.58,2.86 3.11,-3.93 7,-11.75 12.17,-20.2 5.16,-8.41 11.65,-17.51 15.16,-26.35 3.5,-8.84 4.06,-17.38 4.82,-25.54 0.77,-8.15 1.76,-15.97 3.76,-17.64 2.01,-1.7 5.04,2.74 6.96,7.18 1.92,4.48 2.74,9.01 1.75,15.2 -1.02,6.19 -3.84,14.01 -5.59,20.84 -1.71,6.84 -2.31,12.69 0.81,13.41 3.16,0.77 10.04,-3.59 15.12,-10.38 5.08,-6.79 8.33,-16.05 9.95,-25.11 1.67,-9.01 1.71,-17.8 0.68,-27.11 -1.02,-9.27 -3.07,-19.05 -4.69,-29.47 -1.59,-10.42 -2.7,-21.44 -3.25,-31.13 -0.56,-9.65 -0.56,-17.94 0.68,-20.71 1.2,-2.74 3.59,0.04 5.72,4.22 2.14,4.19 4.02,9.74 6.11,15.59 2.05,5.81 4.32,11.92 5.72,20.71 1.42,8.8 1.97,20.33 2.14,31.52 0.17,11.23 -0.04,22.12 -1.15,32.03 -1.16,9.91 -3.16,18.88 -3.42,25.07 -0.3,6.19 1.2,9.61 3.37,8.41 2.18,-1.24 5.04,-7.13 7.99,-13.11 2.95,-5.98 5.94,-12.04 8.41,-17.13 2.44,-5.08 4.32,-9.18 6.96,-13.15 2.65,-3.97 6.02,-7.81 9.06,-10.93 2.99,-3.08 5.63,-5.43 7.26,-6.32 1.62,-0.9 2.26,-0.39 2.99,1.02l0 0.01z"/>
   <path class="fil18" d="M5549.72 5170.08c53.71,-8.42 394.84,-17.84 723.06,-20.49 328.22,-2.64 643.5,1.49 882.02,4.69 238.52,3.17 400.21,5.37 450.19,9.66 49.94,4.33 -11.9,10.71 -181.09,15.96 -169.18,5.25 -445.78,9.37 -707.06,11.46 -261.25,2.04 -507.27,2.04 -747.15,-1.68 -239.89,-3.73 -473.64,-11.19 -419.97,-19.6l0 0z"/>
   <path class="fil19" d="M4394.39 5367.63c54.79,-8.45 403.18,-17.87 738.33,-20.48 335.16,-2.64 657.13,1.49 900.66,4.65 243.57,3.17 408.7,5.41 459.69,9.7 51.02,4.29 -12.11,10.66 -184.9,15.95 -172.78,5.25 -455.2,9.38 -721.97,11.43 -266.82,2.08 -518.01,2.08 -762.98,-1.65 -244.94,-3.72 -483.66,-11.18 -428.83,-19.6l0 0z"/>
   <path class="fil20" d="M5807.6 5560.18c39.12,-8.41 287.7,-17.83 526.91,-20.48 239.16,-2.64 468.94,1.49 642.77,4.69 173.79,3.17 291.63,5.37 328.06,9.66 36.4,4.33 -8.65,10.7 -131.98,15.95 -123.29,5.26 -324.82,9.38 -515.24,11.47 -190.43,2.04 -369.67,2.04 -544.5,-1.69 -174.79,-3.72 -345.14,-11.18 -306.02,-19.6l0 0z"/>
   <path class="fil21" d="M5605.12 5850.65c39.87,-8.42 293.47,-17.84 537.4,-20.48 243.97,-2.65 478.36,1.48 655.64,4.69 177.28,3.16 297.48,5.37 334.6,9.7 37.11,4.29 -8.82,10.66 -134.59,15.91 -125.78,5.25 -331.35,9.38 -525.54,11.46 -194.24,2.05 -377.09,2.05 -555.36,-1.68 -178.32,-3.73 -352.08,-11.18 -312.15,-19.6l0 0z"/>
   <path class="fil22" d="M4719.21 6176.79c55.55,-8.46 408.58,-17.84 748.31,-20.48 339.68,-2.65 666.02,1.48 912.84,4.64 246.86,3.17 414.23,5.42 465.9,9.7 51.7,4.29 -12.27,10.71 -187.38,15.96 -175.11,5.25 -461.37,9.38 -731.76,11.42 -270.42,2.08 -525.02,2.08 -773.28,-1.64 -248.26,-3.73 -490.23,-11.19 -434.64,-19.6l0.01 0z"/>
   <path class="fil23" d="M5173.72 6815.64c20.12,-8.42 147.74,-17.84 270.55,-20.49 122.77,-2.6 240.77,1.53 329.99,4.69 89.22,3.17 149.74,5.37 168.41,9.7 18.68,4.29 -4.44,10.66 -67.73,15.92 -63.29,5.29 -166.78,9.41 -264.53,11.46 -97.76,2.08 -189.79,2.08 -279.53,-1.65 -89.78,-3.72 -177.24,-11.18 -157.16,-19.64l0 0.01z"/>
   <path class="fil24" d="M4569.35 6540.96c28.97,-8.45 213.06,-17.83 390.22,-20.48 177.16,-2.64 347.34,1.49 476.08,4.65 128.7,3.17 216,5.41 242.97,9.7 26.94,4.33 -6.41,10.7 -97.75,15.95 -91.31,5.25 -240.57,9.38 -381.61,11.47 -141.01,2.04 -273.8,2.04 -403.26,-1.69 -129.46,-3.72 -255.63,-11.18 -226.65,-19.6z"/>
   <path class="fil25" d="M4305.81 7323.9c29.26,-8.41 215.28,-17.83 394.28,-20.48 178.96,-2.6 350.91,1.52 480.97,4.69 130.06,3.17 218.24,5.41 245.49,9.7 27.22,4.29 -6.49,10.66 -98.76,15.95 -92.26,5.25 -243.09,9.38 -385.57,11.42 -142.45,2.09 -276.6,2.09 -407.43,-1.64 -130.78,-3.73 -258.28,-11.18 -228.98,-19.64l0 0z"/>
   <path class="fil26" d="M5736.74 6376.63c19,-8.42 139.48,-17.84 255.4,-20.48 115.91,-2.65 227.29,1.48 311.5,4.65 84.25,3.2 141.37,5.41 159,9.7 17.64,4.32 -4.16,10.7 -63.93,15.95 -59.76,5.25 -157.43,9.38 -249.74,11.46 -92.27,2.05 -179.16,2.05 -263.89,-1.68 -84.73,-3.73 -167.3,-11.18 -148.34,-19.6l0 0z"/>
   <path class="fil27" d="M3995.99 6872.47c27.13,-8.46 199.52,-17.84 365.33,-20.48 165.86,-2.65 325.18,1.48 445.7,4.65 120.49,3.17 202.21,5.41 227.46,9.7 25.21,4.29 -6.01,10.7 -91.5,15.95 -85.49,5.25 -225.26,9.38 -357.24,11.42 -132.03,2.09 -256.32,2.09 -377.53,-1.64 -121.2,-3.73 -239.32,-11.18 -212.22,-19.6l0 0z"/>
   <path class="fil28" d="M4674.68 5627.88c26.81,-8.42 197.35,-17.84 361.41,-20.48 164.05,-2.65 321.64,1.48 440.85,4.69 119.24,3.16 200.04,5.37 225.01,9.7 24.97,4.29 -5.93,10.66 -90.5,15.91 -84.57,5.25 -222.81,9.38 -353.4,11.46 -130.62,2.05 -253.55,2.05 -373.47,-1.68 -119.88,-3.73 -236.72,-11.18 -209.9,-19.6l0 0z"/>
   <path class="fil29" d="M4889.15 5178.33c13.67,-8.41 100.56,-17.83 184.17,-20.48 83.61,-2.64 163.93,1.52 224.69,4.69 60.73,3.17 101.93,5.37 114.68,9.7 12.7,4.29 -3.05,10.66 -46.14,15.91 -43.08,5.25 -113.55,9.38 -180.12,11.47 -66.54,2.08 -129.22,2.08 -190.3,-1.65 -61.13,-3.73 -120.65,-11.18 -106.98,-19.64l0 0z"/>
   <path class="fil30" d="M6718.48 5348.88c18.88,-7.1 138.96,-15.03 254.51,-17.24 115.52,-2.24 226.54,1.25 310.47,3.93 83.97,2.65 140.88,4.53 158.48,8.14 17.6,3.65 -4.17,9.02 -63.73,13.43 -59.56,4.4 -156.92,7.89 -248.9,9.66 -91.99,1.72 -178.56,1.72 -263.01,-1.41 -84.45,-3.16 -166.74,-9.42 -147.82,-16.51l0 0z"/>
   <path class="fil31" d="M1404.12 5434.13c64.49,-8.42 474.24,-17.84 868.43,-20.48 394.24,-2.61 772.96,1.52 1059.46,4.69 286.46,3.16 480.69,5.37 540.69,9.7 59.96,4.29 -14.27,10.66 -217.52,15.91 -203.21,5.29 -535.4,9.42 -849.23,11.46 -313.84,2.09 -609.27,2.09 -897.41,-1.64 -288.1,-3.73 -568.91,-11.18 -504.42,-19.64l0 0z"/>
   <path class="fil32" d="M640.38 5631.69c71.66,-8.42 527.22,-17.84 965.51,-20.48 438.28,-2.65 859.33,1.48 1177.81,4.65 318.49,3.2 534.44,5.41 601.14,9.69 66.69,4.33 -15.88,10.71 -241.81,15.96 -225.94,5.25 -595.24,9.38 -944.15,11.46 -348.9,2.04 -677.4,2.04 -997.73,-1.68 -320.33,-3.73 -632.48,-11.19 -560.77,-19.6z"/>
   <path class="fil33" d="M1665.65 5824.24c75.31,-8.42 554,-17.84 1014.57,-20.49 460.56,-2.6 903.02,1.53 1237.69,4.69 334.68,3.17 561.57,5.37 631.68,9.7 70.06,4.29 -16.68,10.66 -254.08,15.91 -237.43,5.29 -625.54,9.42 -992.16,11.47 -366.62,2.08 -711.79,2.08 -1048.39,-1.65 -336.6,-3.72 -664.62,-11.18 -589.31,-19.64l0 0.01z"/>
   <path class="fil34" d="M1457.31 6114.7c35.79,-8.41 263.17,-17.83 481.97,-20.48 218.76,-2.6 428.95,1.52 587.91,4.69 159,3.17 266.77,5.41 300.08,9.7 33.27,4.29 -7.94,10.66 -120.72,15.95 -112.75,5.25 -297.12,9.38 -471.27,11.42 -174.16,2.09 -338.13,2.09 -498.01,-1.64 -159.92,-3.73 -315.72,-11.18 -279.96,-19.64l0 0z"/>
   <path class="fil35" d="M1222.99 6440.84c42.13,-8.42 309.59,-17.84 566.91,-20.48 257.36,-2.65 504.58,1.48 691.59,4.69 187.02,3.16 313.8,5.37 352.96,9.66 39.15,4.33 -9.3,10.7 -141.97,15.95 -132.67,5.25 -349.51,9.38 -554.36,11.46 -204.89,2.05 -397.76,2.05 -585.82,-1.68 -188.1,-3.73 -371.39,-11.18 -329.3,-19.6l-0.01 0z"/>
   <path class="fil36" d="M1588.89 6640.68c14.19,-8.41 104.33,-17.83 191.03,-20.48 86.73,-2.6 170.02,1.53 233.07,4.69 63.01,3.17 105.73,5.37 118.92,9.7 13.19,4.29 -3.13,10.66 -47.82,15.91 -44.73,5.25 -117.79,9.42 -186.81,11.47 -69.06,2.08 -134.03,2.08 -197.44,-1.65 -63.37,-3.72 -125.13,-11.18 -110.95,-19.64l0 0z"/>
   <path class="fil37" d="M527.51 5891.93c26.82,-8.41 197.32,-17.83 361.37,-20.48 164.09,-2.6 321.69,1.52 440.89,4.69 119.2,3.17 200.04,5.41 225.01,9.7 24.97,4.29 -5.93,10.66 -90.5,15.95 -84.57,5.25 -222.81,9.38 -353.39,11.43 -130.63,2.08 -253.6,2.08 -373.48,-1.65 -119.88,-3.73 -236.76,-11.18 -209.9,-19.64l0 0z"/>
   <path class="fil38" d="M527.35 5442.43c19.24,-8.46 141.49,-17.88 259.08,-20.49 117.6,-2.64 230.55,1.49 316.04,4.65 85.46,3.17 143.37,5.41 161.29,9.7 17.87,4.29 -4.25,10.66 -64.89,15.96 -60.6,5.25 -159.73,9.37 -253.31,11.42 -93.63,2.08 -181.77,2.08 -267.74,-1.65 -85.94,-3.72 -169.71,-11.18 -150.47,-19.6l0 0.01z"/>
   <path class="fil39" d="M1255.5 6083c-14.43,-4.21 -106.09,-8.9 -194.31,-10.22 -88.18,-1.33 -172.91,0.72 -236.96,2.32 -64.09,1.61 -107.54,2.69 -120.96,4.85 -13.43,2.17 3.16,5.33 48.66,7.98 45.45,2.6 119.76,4.69 189.94,5.73 70.22,1 136.31,1 200.76,-0.84 64.45,-1.89 127.26,-5.61 112.87,-9.82l0 0z"/>
   <path class="fil40" d="M4648.95 7559.54c-45.98,8.45 -338.25,17.87 -619.45,20.48 -281.21,2.64 -551.36,-1.48 -755.73,-4.65 -204.33,-3.17 -342.89,-5.41 -385.66,-9.7 -42.8,-4.29 10.15,-10.7 155.12,-15.95 144.97,-5.25 381.93,-9.38 605.78,-11.42 223.85,-2.09 434.64,-2.09 640.13,1.64 205.53,3.73 405.82,11.18 359.81,19.6l0 0z"/>
   <path class="fil41" d="M4006.45 7076.52c-55.55,8.42 -408.54,17.84 -748.19,20.49 -339.64,2.64 -665.94,-1.49 -912.76,-4.69 -246.82,-3.17 -414.16,-5.37 -465.82,-9.7 -51.7,-4.29 12.27,-10.66 187.34,-15.92 175.11,-5.25 461.29,-9.37 731.67,-11.46 270.39,-2.04 524.94,-2.04 773.16,1.68 248.27,3.73 490.15,11.19 434.6,19.6z"/>
   <path class="fil42" d="M3479.15 6750.38c-32.39,8.46 -238.16,17.84 -436.12,20.49 -197.96,2.64 -388.15,-1.49 -532,-4.65 -143.85,-3.17 -241.36,-5.41 -271.5,-9.7 -30.15,-4.29 7.17,-10.7 109.22,-15.95 102.04,-5.26 268.86,-9.38 426.46,-11.43 157.55,-2.08 305.93,-2.08 450.63,1.65 144.69,3.72 285.69,11.18 253.31,19.6l0 -0.01z"/>
   <path class="fil43" d="M4746.22 6111.54c-47.86,8.41 -351.99,17.83 -644.62,20.48 -292.59,2.6 -573.72,-1.52 -786.35,-4.69 -212.62,-3.17 -356.8,-5.37 -401.32,-9.7 -44.53,-4.29 10.58,-10.66 161.4,-15.91 150.87,-5.29 397.44,-9.42 630.39,-11.47 232.91,-2.08 452.24,-2.08 666.11,1.65 213.87,3.73 422.29,11.18 374.39,19.64l0 0z"/>
   <path class="fil44" d="M4278.6 6386.21c-28.98,8.46 -213.11,17.84 -390.27,20.48 -177.16,2.65 -347.34,-1.48 -476.04,-4.65 -128.74,-3.16 -216.03,-5.41 -242.97,-9.7 -26.97,-4.32 6.41,-10.7 97.72,-15.95 91.3,-5.25 240.6,-9.38 381.61,-11.46 141.04,-2.04 273.79,-2.04 403.25,1.68 129.5,3.73 255.64,11.18 226.7,19.6l0 0z"/>
   <path class="fil45" d="M4542.21 5603.27c-28.46,8.42 -209.54,17.84 -383.73,20.44 -174.19,2.65 -341.53,-1.48 -468.15,-4.65 -126.57,-3.16 -212.39,-5.41 -238.92,-9.7 -26.49,-4.29 6.33,-10.66 96.11,-15.95 89.83,-5.25 236.6,-9.38 375.28,-11.42 138.68,-2.09 269.22,-2.09 396.52,1.64 127.34,3.73 251.39,11.19 222.89,19.64l0 0z"/>
   <path class="fil46" d="M4268.46 6678.52c-14.15,8.42 -104.29,17.84 -191.03,20.48 -86.69,2.65 -170.02,-1.48 -233.03,-4.69 -63.04,-3.16 -105.77,-5.37 -118.96,-9.7 -13.18,-4.29 3.13,-10.66 47.86,-15.91 44.69,-5.25 117.76,-9.38 186.82,-11.46 69.02,-2.05 134.03,-2.05 197.4,1.68 63.36,3.73 125.13,11.18 110.94,19.6z"/>
   <path class="fil47" d="M4173.23 7299.29c-26.82,8.42 -197.36,17.84 -361.41,20.48 -164.05,2.65 -321.65,-1.48 -440.85,-4.69 -119.2,-3.16 -200.04,-5.37 -225.01,-9.69 -24.97,-4.29 5.93,-10.67 90.5,-15.92 84.57,-5.25 222.81,-9.38 353.39,-11.46 130.63,-2.04 253.55,-2.04 373.48,1.68 119.88,3.73 236.75,11.19 209.9,19.6l0 0z"/>
   <path class="fil48" d="M4508.34 7748.84c-27.93,8.42 -205.29,17.84 -375.96,20.48 -170.66,2.65 -334.59,-1.48 -458.6,-4.69 -124.05,-3.16 -208.1,-5.37 -234.07,-9.7 -25.98,-4.29 6.17,-10.66 94.15,-15.91 87.97,-5.25 231.74,-9.38 367.62,-11.46 135.87,-2.05 263.77,-2.05 388.5,1.68 124.69,3.73 246.26,11.14 218.36,19.6z"/>
   <path class="fil49" d="M633.53 4095.28l303.47 0 0 -53.8 -303.47 0 0 53.8z"/>
   <path class="fil49" d="M2170.07 4558.31l229.87 0 0 -50.35 -229.87 0 0 50.35z"/>
   <path class="fil49" d="M5781.33 4103.65l267.55 0 0 -53.8 -267.55 0 0 53.8z"/>
   <path class="fil49" d="M5043.42 4181.8l231.68 0 0 -53.8 -231.68 0 0 53.8z"/>
   <path class="fil49" d="M6664.57 4829.73l669.75 0 0 -53.81 -669.75 0 0 53.81z"/>
   <path class="fil49" d="M633.53 4196.68l303.47 0 0 -53.81 -303.47 0 0 53.81z"/>
   <path class="fil49" d="M633.53 4298.07l303.47 0 0 -53.81 -303.47 0 0 53.81z"/>
   <path class="fil49" d="M2170.07 4659.7l229.87 0 0 -50.34 -229.87 0 0 50.34z"/>
   <path class="fil49" d="M5043.42 4283.2l231.68 0 0 -53.81 -231.68 0 0 53.81z"/>
   <path class="fil49" d="M5043.42 4384.59l231.68 0 0 -53.81 -231.68 0 0 53.81z"/>
   <path class="fil49" d="M5043.42 4485.98l231.68 0 0 -53.81 -231.68 0 0 53.81z"/>
   <path class="fil49" d="M5043.42 4587.37l231.68 0 0 -53.81 -231.68 0 0 53.81z"/>
   <path class="fil49" d="M5043.42 4688.77l231.68 0 0 -53.81 -231.68 0 0 53.81z"/>
   <path class="fil49" d="M5043.42 4790.16l231.68 0 0 -53.81 -231.68 0 0 53.81z"/>
   <path class="fil49" d="M5781.33 4205.05l267.55 0 0 -53.81 -267.55 0 0 53.81z"/>
   <path class="fil49" d="M5781.33 4306.44l267.55 0 0 -53.81 -267.55 0 0 53.81z"/>
   <path class="fil49" d="M5781.33 4407.83l267.55 0 0 -53.81 -267.55 0 0 53.81z"/>
   <path class="fil49" d="M5781.33 4509.22l267.55 0 0 -53.81 -267.55 0 0 53.81z"/>
   <path class="fil49" d="M5781.33 4610.62l267.55 0 0 -53.81 -267.55 0 0 53.81z"/>
   <path class="fil49" d="M5781.33 4712.01l267.55 0 0 -53.81 -267.55 0 0 53.81z"/>
   <path class="fil49" d="M5781.33 4813.4l267.55 0 0 -53.81 -267.55 0 0 53.81z"/>
  </g>
 </g>
</svg>
