<?xml version="1.0" encoding="UTF-8"?>
<!DOCTYPE svg PUBLIC "-//W3C//DTD SVG 1.1//EN" "http://www.w3.org/Graphics/SVG/1.1/DTD/svg11.dtd">
<!-- Creator: CorelDRAW -->
<svg xmlns="http://www.w3.org/2000/svg" xml:space="preserve" width="6074px" height="6074px" version="1.1" style="shape-rendering:geometricPrecision; text-rendering:geometricPrecision; image-rendering:optimizeQuality; fill-rule:evenodd; clip-rule:evenodd"
viewBox="0 0 1909.01 1909.01"
 xmlns:xlink="http://www.w3.org/1999/xlink">
 <defs>
  <style type="text/css">
   <![CDATA[
    .fil24 {fill:#361C23}
    .fil17 {fill:#4DBAAE}
    .fil6 {fill:url(#id0)}
    .fil27 {fill:url(#id1)}
    .fil20 {fill:url(#id2)}
    .fil18 {fill:url(#id3)}
    .fil26 {fill:url(#id4)}
    .fil9 {fill:url(#id5)}
    .fil19 {fill:url(#id6)}
    .fil25 {fill:url(#id7)}
    .fil21 {fill:url(#id8)}
    .fil4 {fill:url(#id9)}
    .fil11 {fill:url(#id10)}
    .fil12 {fill:url(#id11)}
    .fil8 {fill:url(#id12)}
    .fil5 {fill:url(#id13)}
    .fil10 {fill:url(#id14)}
    .fil22 {fill:url(#id15)}
    .fil23 {fill:url(#id16)}
    .fil14 {fill:url(#id17)}
    .fil13 {fill:url(#id18)}
    .fil16 {fill:url(#id19)}
    .fil15 {fill:url(#id20)}
    .fil7 {fill:url(#id21)}
    .fil3 {fill:url(#id22)}
    .fil1 {fill:url(#id23)}
    .fil2 {fill:url(#id24)}
    .fil0 {fill:url(#id25);fill-rule:nonzero}
   ]]>
  </style>
  <linearGradient id="id0" gradientUnits="userSpaceOnUse" x1="968.02" y1="2365.99" x2="1640.23" y2="1286.49">
   <stop offset="0" style="stop-opacity:1; stop-color:#3D1145"/>
   <stop offset="0.419608" style="stop-opacity:1; stop-color:#982255"/>
   <stop offset="0.65098" style="stop-opacity:1; stop-color:#C2496C"/>
   <stop offset="1" style="stop-opacity:1; stop-color:#FB7C5C"/>
  </linearGradient>
  <linearGradient id="id1" gradientUnits="userSpaceOnUse" x1="657.14" y1="1620.55" x2="738.57" y2="1314.26">
   <stop offset="0" style="stop-opacity:1; stop-color:#1A0125"/>
   <stop offset="0.780392" style="stop-opacity:1; stop-color:#6E1A2F"/>
   <stop offset="1" style="stop-opacity:1; stop-color:#C23239"/>
  </linearGradient>
  <linearGradient id="id2" gradientUnits="userSpaceOnUse" x1="708.9" y1="180.69" x2="1200.46" y2="905.73">
   <stop offset="0" style="stop-opacity:1; stop-color:#1A0125"/>
   <stop offset="0.858824" style="stop-opacity:1; stop-color:#6E1A2F"/>
   <stop offset="1" style="stop-opacity:1; stop-color:#C23239"/>
  </linearGradient>
  <linearGradient id="id3" gradientUnits="userSpaceOnUse" x1="361.44" y1="179.62" x2="897.27" y2="1059.71">
   <stop offset="0" style="stop-opacity:1; stop-color:#270527"/>
   <stop offset="0.639216" style="stop-opacity:1; stop-color:#741B30"/>
   <stop offset="1" style="stop-opacity:1; stop-color:#C23239"/>
  </linearGradient>
  <linearGradient id="id4" gradientUnits="userSpaceOnUse" xlink:href="#id1" x1="922.76" y1="1744.63" x2="1055.34" y2="1365.54">
  </linearGradient>
  <linearGradient id="id5" gradientUnits="userSpaceOnUse" x1="1339.98" y1="1477.44" x2="743.55" y2="2412.85">
   <stop offset="0" style="stop-opacity:1; stop-color:#F7BC1A"/>
   <stop offset="0.301961" style="stop-opacity:1; stop-color:#F3755E"/>
   <stop offset="0.6" style="stop-opacity:1; stop-color:#B73F66"/>
   <stop offset="1" style="stop-opacity:1; stop-color:#6D1A4D"/>
  </linearGradient>
  <linearGradient id="id6" gradientUnits="userSpaceOnUse" x1="340.85" y1="504.1" x2="714.56" y2="1059.71">
   <stop offset="0" style="stop-opacity:1; stop-color:#1A0125"/>
   <stop offset="0.878431" style="stop-opacity:1; stop-color:#6E1A2F"/>
   <stop offset="1" style="stop-opacity:1; stop-color:#C23239"/>
  </linearGradient>
  <linearGradient id="id7" gradientUnits="userSpaceOnUse" x1="324.11" y1="1817.55" x2="758.97" y2="805.16">
   <stop offset="0" style="stop-opacity:1; stop-color:#1A0125"/>
   <stop offset="0.870588" style="stop-opacity:1; stop-color:#6E1A2F"/>
   <stop offset="1" style="stop-opacity:1; stop-color:#C23239"/>
  </linearGradient>
  <linearGradient id="id8" gradientUnits="userSpaceOnUse" x1="367.74" y1="902.22" x2="316.76" y2="895.25">
   <stop offset="0" style="stop-opacity:1; stop-color:#FD7F78"/>
   <stop offset="0.211765" style="stop-opacity:1; stop-color:#9A4E4E"/>
   <stop offset="1" style="stop-opacity:1; stop-color:#361C23"/>
  </linearGradient>
  <linearGradient id="id9" gradientUnits="userSpaceOnUse" x1="-626.09" y1="1214.53" x2="1745.4" y2="1104.48">
   <stop offset="0" style="stop-opacity:0.686275; stop-color:#661A5E"/>
   <stop offset="1" style="stop-opacity:0.898039; stop-color:#FD6A66"/>
  </linearGradient>
  <linearGradient id="id10" gradientUnits="userSpaceOnUse" xlink:href="#id5" x1="1167.43" y1="1347.16" x2="756.86" y2="2471.25">
  </linearGradient>
  <linearGradient id="id11" gradientUnits="userSpaceOnUse" xlink:href="#id5" x1="1391.72" y1="1499.21" x2="495.5" y2="2386.64">
  </linearGradient>
  <linearGradient id="id12" gradientUnits="userSpaceOnUse" xlink:href="#id5" x1="1129.21" y1="1403.3" x2="563.3" y2="2395.5">
  </linearGradient>
  <linearGradient id="id13" gradientUnits="userSpaceOnUse" x1="-730.23" y1="1377" x2="1784.13" y2="1248.42">
   <stop offset="0" style="stop-opacity:1; stop-color:#521F4D"/>
   <stop offset="1" style="stop-opacity:1; stop-color:#A84178"/>
  </linearGradient>
  <linearGradient id="id14" gradientUnits="userSpaceOnUse" xlink:href="#id5" x1="1295.01" y1="1456.63" x2="703.16" y2="2404.02">
  </linearGradient>
  <linearGradient id="id15" gradientUnits="userSpaceOnUse" xlink:href="#id8" x1="594.44" y1="1185.28" x2="575.29" y2="1186.64">
  </linearGradient>
  <linearGradient id="id16" gradientUnits="userSpaceOnUse" xlink:href="#id8" x1="976.87" y1="1078.25" x2="955.1" y2="1075.51">
  </linearGradient>
  <linearGradient id="id17" gradientUnits="userSpaceOnUse" x1="271.75" y1="1540.64" x2="-234.68" y2="2573.76">
   <stop offset="0" style="stop-opacity:1; stop-color:#CF5463"/>
   <stop offset="0.301961" style="stop-opacity:1; stop-color:#A02A5A"/>
   <stop offset="0.6" style="stop-opacity:1; stop-color:#5C174A"/>
   <stop offset="1" style="stop-opacity:1; stop-color:#3D1145"/>
  </linearGradient>
  <linearGradient id="id18" gradientUnits="userSpaceOnUse" xlink:href="#id5" x1="1426.92" y1="1578.79" x2="233.1" y2="2698.32">
  </linearGradient>
  <linearGradient id="id19" gradientUnits="userSpaceOnUse" xlink:href="#id5" x1="1406.38" y1="1306.86" x2="510.15" y2="2194.3">
  </linearGradient>
  <linearGradient id="id20" gradientUnits="userSpaceOnUse" xlink:href="#id17" x1="679.63" y1="1677.33" x2="173.21" y2="2710.46">
  </linearGradient>
  <linearGradient id="id21" gradientUnits="userSpaceOnUse" xlink:href="#id5" x1="1591.04" y1="1477.74" x2="826.32" y2="2365.17">
  </linearGradient>
  <radialGradient id="id22" gradientUnits="userSpaceOnUse" gradientTransform="matrix(-6.59947E-003 -1.59061E+000 1.5752 0.0185024 -566 3665)" cx="1493.54" cy="1313.77" r="329.69" fx="1493.54" fy="1313.77">
   <stop offset="0" style="stop-opacity:1; stop-color:#FCBA49"/>
   <stop offset="1" style="stop-opacity:1; stop-color:#FAE33A"/>
  </radialGradient>
  <radialGradient id="id23" gradientUnits="userSpaceOnUse" gradientTransform="matrix(-2.52479E-002 -1.09621E+000 1.08818 -2.10798E-002 166 2929)" cx="1499.02" cy="1259.35" r="626.44" fx="1499.02" fy="1259.35">
   <stop offset="0" style="stop-opacity:1; stop-color:#FBB744"/>
   <stop offset="0.25098" style="stop-opacity:0.207843; stop-color:#FBC740"/>
   <stop offset="0.768627" style="stop-opacity:0.105882; stop-color:#FAD53D"/>
   <stop offset="1" style="stop-opacity:0; stop-color:#FAE33A"/>
  </radialGradient>
  <radialGradient id="id24" gradientUnits="userSpaceOnUse" gradientTransform="matrix(0.00771126 -1.08253E+000 1.0745 0.0115905 133 2868)" cx="1498.39" cy="1260.09" r="338.23" fx="1498.39" fy="1260.09">
   <stop offset="0" style="stop-opacity:1; stop-color:#FFA100"/>
   <stop offset="0.909804" style="stop-opacity:1; stop-color:#FFE46E"/>
   <stop offset="1" style="stop-opacity:0; stop-color:#FABD3B"/>
  </radialGradient>
  <linearGradient id="id25" gradientUnits="userSpaceOnUse" x1="745.81" y1="-187.63" x2="1370.87" y2="1526.56">
   <stop offset="0" style="stop-opacity:1; stop-color:#432B6E"/>
   <stop offset="0.239216" style="stop-opacity:1; stop-color:#893C6D"/>
   <stop offset="0.521569" style="stop-opacity:1; stop-color:#D04D6B"/>
   <stop offset="0.721569" style="stop-opacity:1; stop-color:#FC7061"/>
   <stop offset="1" style="stop-opacity:1; stop-color:#FD9C56"/>
  </linearGradient>
 </defs>
 <g id="Layer_x0020_1">
  <metadata id="CorelCorpID_0Corel-Layer"/>
  <path id="path517" class="fil0" d="M954.5 1909.01c-527.15,0 -954.5,-427.35 -954.5,-954.51 0,-527.15 427.35,-954.5 954.5,-954.5 527.16,0 954.51,427.35 954.51,954.5 0,527.16 -427.35,954.51 -954.51,954.51z"/>
  <path class="fil1" d="M1490.38 209.63c-573.45,2.93 -1037.42,468.64 -1037.42,1042.78 0,213.24 64.05,411.48 173.91,576.64 110.98,47.4 233.15,73.67 361.46,73.67 53.01,0 104.95,-4.54 155.52,-13.14 434.87,-89.07 761.97,-473.87 761.97,-935.08 0,-31.84 -1.59,-63.32 -4.64,-94.37 -36.56,-197.79 -126.42,-376.9 -254.12,-521.87 -47.26,-48.37 -99.79,-91.56 -156.68,-128.63z"/>
  <path class="fil2" d="M1493.34 211.58c-575.86,0.11 -1042.65,466.96 -1042.65,1042.84 0,211.42 62.96,408.1 171.1,572.4 112.33,48.79 236.26,75.9 366.54,75.9 53.01,0 104.95,-4.54 155.52,-13.14 434.87,-89.07 761.97,-473.87 761.97,-935.08 0,-31.86 -1.59,-63.34 -4.64,-94.4 -36.55,-197.69 -126.32,-376.7 -253.92,-521.64 -46.49,-47.6 -98.09,-90.19 -153.92,-126.88z"/>
  <path class="fil3" d="M1823.23 1254.43c0,-182.08 -147.6,-329.69 -329.69,-329.69 -182.08,0 -329.68,147.61 -329.68,329.69 0,182.08 147.6,329.68 329.68,329.68 182.09,0 329.69,-147.6 329.69,-329.68z"/>
  <path class="fil4" d="M7.82 1077.16l66.67 -13.28 50.28 0 0.12 288.03 20.17 0 0 -283.15 67.46 -11.75 43.31 -0.05 0.09 267.08 82.8 0 0 -102.52 60.7 -16.26 84.87 0 0 22.99 12.38 0 0 21.22 52.46 0.12 0 -123.39 74.38 -6.58 35.16 9.18 -0.68 -100.58 20.13 0 0.43 92.47 122.04 -0.04 0 -71.79 19.23 0 0 -156.78 71.4 -15.97 79.49 10.05 0 482.05 372.26 1.56 20.71 -16.22 23.73 0 30.26 -25.31 0 -320.54 153.86 0 0 323.6 213.66 0 0 -88.23 79.37 0c-122.31,386.1 -483.49,665.94 -910.06,665.94 -485.59,0 -886.49,-362.63 -946.68,-831.85z"/>
  <path class="fil5" d="M1110.59 1324.13l-84.01 0 0 -223.86 -32.64 0 0 -13.62 -123.6 0 0 15.77 -7.53 0 0 138.66 -133.93 0 0 77.69 -84.53 0 0 84.54c-231.76,0 -48.54,0 -246.68,0l0 -198.05 -58.95 16.26 0.09 118.23 -98.66 0.17 0 66.79 -28.75 -3.14 1.38 -346.61 -67.72 11.8 -0.15 305.61 -47.77 0.02c16.71,34.05 35.37,66.97 55.87,98.59l1602.98 0 0 0c1.76,-2.71 3.5,-5.43 5.23,-8.16 2.3,-3.62 4.57,-7.26 6.82,-10.92 1.9,-3.09 3.79,-6.2 5.66,-9.31 1.92,-3.22 3.83,-6.45 5.73,-9.7 2.12,-3.63 4.21,-7.28 6.29,-10.95 1.64,-2.9 3.27,-5.82 4.89,-8.74l-19.71 0.02 0.46 -146.81 -7.85 0 0.01 -13.27 -112.84 0.41 0 12.23 -24.83 0 0 145.2 -70.72 0.32 0 -14.46 -12.88 -0.31 0.01 -20.44 -14.18 -5.97 -142.2 0.19 -13.87 7.76 -0.01 20.36 -12.99 -0.02 -0.02 7.85 -87.4 0.16 -0.81 -329.18 -6.5 0 0 -19.06 -32.7 0 0 -13.56 -122.14 0 1.15 277.51zm-1035.31 2.54l-0.79 -262.79 -66.67 13.28 0 0c11.22,87.42 34.25,171.15 67.46,249.51z"/>
  <path class="fil6" d="M1753.4 1476.93l-1597.79 0c170.49,260.18 464.6,432.08 798.89,432.08 334.3,0 628.41,-171.9 798.9,-432.08z"/>
  <path class="fil7" d="M1185.55 1520.85c26.27,-3.32 193.08,-7.04 353.58,-8.09 64.97,-0.42 128.9,-0.41 189.73,-0.15 -4.1,5.67 -8.24,11.3 -12.46,16.88 -113.03,0.56 -220.46,0.42 -325.48,-0.89 -117.31,-1.48 -231.61,-4.42 -205.37,-7.75l0 0z"/>
  <path class="fil8" d="M469.87 1572.74c21.65,-3.34 159.28,-7.06 291.68,-8.09 132.4,-1.05 259.59,0.59 355.8,1.83 96.22,1.26 161.46,2.14 181.6,3.84 20.15,1.69 -4.78,4.21 -73.04,6.3 -68.26,2.07 -179.83,3.7 -285.22,4.51 -105.4,0.82 -204.63,0.82 -301.41,-0.65 -96.76,-1.47 -191.07,-4.42 -169.41,-7.74z"/>
  <path class="fil9" d="M1135.08 1690.44c15.46,-3.32 113.66,-7.04 208.16,-8.09 82.63,-0.91 162.43,0.22 227.09,1.37 -5.57,4.7 -11.19,9.34 -16.87,13.92 -26.9,0.5 -54.93,0.91 -82.38,1.21 -75.23,0.81 -146.04,0.81 -215.11,-0.66 -69.05,-1.48 -136.34,-4.42 -120.89,-7.75l0 0z"/>
  <path class="fil10" d="M1008.21 1784.26c15.76,-3.33 115.94,-7.05 212.3,-8.09 78.57,-0.85 154.62,0.07 217.98,1.13 -8.42,4.96 -16.91,9.82 -25.49,14.53 -20.55,0.33 -41.48,0.61 -62.08,0.84 -76.73,0.8 -148.96,0.8 -219.39,-0.67 -70.44,-1.47 -139.08,-4.42 -123.32,-7.74z"/>
  <path class="fil11" d="M837.37 1885.12c19.76,-3.34 145.31,-7.05 266.12,-8.09 33.14,-0.29 65.92,-0.37 97.86,-0.32 -25.46,6.8 -51.32,12.62 -77.58,17.33 -44.75,-0.09 -88.56,-0.46 -131.83,-1.18 -88.29,-1.47 -174.34,-4.42 -154.57,-7.74z"/>
  <path class="fil12" d="M445.99 1713.54c15.36,-3.32 113.1,-7.04 207.12,-8.09 94.02,-1.04 184.33,0.59 252.64,1.86 68.34,1.24 114.65,2.12 128.96,3.83 14.31,1.69 -3.4,4.21 -51.87,6.28 -48.46,2.08 -127.69,3.71 -202.52,4.53 -74.87,0.81 -145.32,0.81 -214.04,-0.66 -68.7,-1.48 -135.66,-4.42 -120.29,-7.75z"/>
  <path class="fil13" d="M1381.61 1586.87c7.97,-2.8 58.69,-5.94 107.5,-6.81 48.79,-0.88 95.69,0.49 131.14,1.55 22.36,0.66 40.18,1.2 52.16,1.87 -1.8,2.06 -3.63,4.11 -5.46,6.15 -2.08,0.17 -4.31,0.34 -6.68,0.5 -25.16,1.74 -66.28,3.12 -105.13,3.82 -38.86,0.68 -75.42,0.68 -111.09,-0.55 -35.68,-1.26 -70.43,-3.73 -62.44,-6.53l0 0z"/>
  <path class="fil14" d="M305.14 1653.99c104.83,1.17 175.78,2.03 198.41,3.67 23.69,1.69 -5.64,4.21 -85.93,6.28 -27.82,0.73 -61.76,1.39 -99.39,1.99 -4.4,-3.94 -8.76,-7.92 -13.09,-11.94z"/>
  <path class="fil15" d="M490.32 1788.65c76.46,0.43 147.17,1.2 207.52,1.87 113.16,1.25 189.89,2.12 213.59,3.83 23.69,1.69 -5.63,4.21 -85.93,6.29 -73.68,1.91 -190.28,3.44 -304.81,4.31 -10.24,-5.24 -20.35,-10.7 -30.37,-16.3z"/>
  <path class="fil16" d="M460.63 1521.2c15.37,-3.33 113.11,-7.05 207.13,-8.09 94.02,-1.05 184.33,0.58 252.65,1.85 68.33,1.25 114.64,2.12 128.95,3.83 14.31,1.69 -3.4,4.21 -51.87,6.29 -48.46,2.07 -127.69,3.7 -202.52,4.52 -74.86,0.81 -145.32,0.81 -214.04,-0.66 -68.7,-1.47 -135.66,-4.42 -120.3,-7.74z"/>
  <path class="fil17" d="M883.87 1154.27l122.33 0 0 -21.26 -122.33 0 0 21.26z"/>
  <path class="fil17" d="M883.87 1194.32l122.33 0 0 -21.26 -122.33 0 0 21.26z"/>
  <path class="fil17" d="M883.87 1234.37l122.33 0 0 -21.25 -122.33 0 0 21.25z"/>
  <path class="fil17" d="M883.87 1314.48l122.33 0 0 -21.25 -122.33 0 0 21.25z"/>
  <path class="fil17" d="M883.87 1274.43l122.33 0 0 -21.26 -122.33 0 0 21.26z"/>
  <path class="fil17" d="M883.87 1354.54l122.33 0 0 -21.26 -122.33 0 0 21.26z"/>
  <path class="fil17" d="M883.87 1394.59l122.33 0 0 -21.25 -122.33 0 0 21.25z"/>
  <path class="fil17" d="M1136.48 1119.01l105.69 0 0 -21.25 -105.69 0 0 21.25z"/>
  <path class="fil17" d="M1136.48 1159.07l105.69 0 0 -21.26 -105.69 0 0 21.26z"/>
  <path class="fil17" d="M1136.48 1199.12l105.69 0 0 -21.25 -105.69 0 0 21.25z"/>
  <path class="fil17" d="M1136.48 1239.18l105.69 0 0 -21.26 -105.69 0 0 21.26z"/>
  <path class="fil17" d="M1136.48 1279.23l105.69 0 0 -21.25 -105.69 0 0 21.25z"/>
  <path class="fil17" d="M1136.48 1319.29l105.69 0 0 -21.26 -105.69 0 0 21.26z"/>
  <path class="fil17" d="M1136.48 1359.34l105.69 0 0 -21.26 -105.69 0 0 21.26z"/>
  <path class="fil17" d="M1136.48 1402.61l105.69 0 0 -21.26 -105.69 0 0 21.26z"/>
  <path class="fil17" d="M1645.67 1344.63l108.23 0 0 -19.18 -108.23 0 0 19.18z"/>
  <path class="fil17" d="M1645.67 1383.29l108.23 0 0 -19.18 -108.23 0 0 19.18z"/>
  <path class="fil17" d="M1645.67 1306.91l108.23 0 0 -19.17 -108.23 0 0 19.17z"/>
  <path class="fil18" d="M396.32 360.61c3.3,-32.27 2.17,-11.54 5.96,-49.2 -16.86,6.08 -17.5,23.74 -24.33,34.01 -17.85,-4.04 2.68,-20.67 -17.6,-25.27 -6.86,10.29 -10.86,42.38 -13.33,59.99l-6.85 -9.13c-1.92,-5.23 0.06,-7.33 -0.85,-13.62 -0.52,-3.53 -2.12,-8.4 -3.1,-11.94 -1.36,-4.85 -0.94,-6.66 -4.11,-9.74 -4.66,6.99 -13.93,64.13 -15.81,77.53 -9.25,-1.5 -8.53,-3.69 -8.11,-12.44 0.34,-7.22 0.04,-11.08 1.21,-19.46 -4.73,-1.82 -5.79,-3.35 -8.9,-6.13 -1.15,8.15 -3.57,13.28 -4.98,23.71l-6.69 47.95c-1.94,11.54 -2.59,15.77 -7.54,18.43 1.15,-9.69 -1.42,-12.98 -2.53,-20.93 -1.18,-8.42 2.5,-15.73 -6.66,-17.81 -2.68,3.9 -1.41,-1.55 -2.28,4.57 -3.05,21.71 -7.27,70.24 -13.95,87.56 -9.14,-8.19 -10.77,-44.16 -20.16,-53.31 -12.15,31.42 -11.08,78.48 -17.87,103.24 -1.62,5.89 -2.3,6.52 -7.45,7.14 -5.24,-5.1 -2.88,-4.91 -3.53,-13.03 -0.4,-5.05 -2.24,-7.52 -3.55,-13.03 -1.9,-7.86 -0.49,-21.55 -8.52,-24.97 -4.44,6.67 -11.87,67.46 -11.94,76.05 -0.06,6.94 0.86,14.13 -0.41,23.14l-7.98 -1.13c0.25,-4.4 -0.95,-17.8 -1.59,-21.63 -1.17,-7.15 -2.36,-11.55 -7.83,-15.5 -1.17,7.19 -2.48,6.11 -3.62,14.13l-13.97 87.58c-3.59,-3.51 -3.12,-6.4 -4.16,-12.57l-7.06 -70.29c0.19,-29.58 0.88,-63.85 8.74,-92.89 2.23,-8.25 6.27,-20.15 7.28,-28.5 1.3,-10.74 5.04,-16.11 8.99,-25.67 15.05,-36.14 38.97,-80.78 68.48,-108.01 14.73,-13.6 26.93,-31.61 40.6,-46.51 4.37,-4.74 3.59,-4.75 4.7,-12.71 -3.14,0.39 -6.53,2.02 -9.96,4.2 48.76,-50.91 103.13,-96.4 162.08,-135.56 -0.27,1.39 -0.53,2.9 -0.76,4.56 9.14,1.07 5.34,-0.07 11.85,-3.23 -4.1,29.06 -12.21,14.97 -10.19,37.64 4.54,-1.64 6.38,-1.86 10.15,-5.47l5.85 -7.4c3.59,-3.88 4.24,-3.15 7.59,-8.86 2.41,-4.14 3.25,-5.95 5.46,-9.8 6.65,-11.56 17.27,-23.19 26.29,-33.29 5,-5.62 10.54,-11.75 16.43,-17.95 48.53,-26.35 99.63,-48.57 152.79,-66.28 -0.6,0.46 -1.23,0.92 -1.9,1.35 7.05,2.73 9.36,4.58 18.7,5.89 -8.35,5.42 -19.25,8.27 -28.65,11.22 -12.94,4.06 -20.09,-0.83 -29.66,9.87 8.77,5.82 16.54,5.59 29.87,7.45 -2.42,4.59 -11.4,6.17 -16.93,7.83l-17.45 5.26c-9.55,3.44 -27.2,4.1 -31.45,15.08 8.7,3.36 15.91,3.88 26.91,5.43 -6.61,7.38 -18.61,9.15 -29.89,11.44 -9.68,1.97 -23.15,5.09 -28.64,11.23 7.45,2.89 21.78,3.76 26.69,7.03 -2.63,4.55 0.52,2.24 -7.14,3.78l-21.41 5.69c-7.74,2.13 -23.89,3.2 -27.96,10.23 13.24,5.12 30.75,1.04 41.12,-6.02 6.95,-4.73 7.51,-3.17 15.41,-6.06l48.11 -13.79 36.75 -2.38c19.14,-1.56 61.77,4.26 81.61,10.15 7.18,2.13 13.87,2.01 20.58,4.48 8.95,3.29 27.6,8.91 31.86,14.52 2.63,3.47 5.26,9.56 5.67,14.29 -7.19,-1.01 -16.93,-1.83 -23.71,-3.55 -7.08,-1.77 -19.93,-8.9 -28.74,-5.47 1.37,11.22 9.37,8.41 17.59,13.87 -3.4,4.7 -2.49,4.76 -9.11,4.98 -13.6,0.44 -23.19,-4.65 -37.85,-6.71 -7.51,-1.05 -12.9,-2.75 -19.61,0.5 3.77,7.8 8.28,7.58 15.86,12.31 5.99,3.72 13.9,6.29 14.74,13.16 -16.46,-0.94 -34.72,-1.59 -51.04,-5.8 -15.87,-4.1 -22.35,-2.66 -38.8,-3.6 3.91,7.29 21.03,14.73 29.07,19.48 6.08,3.6 5.22,-1.39 6.09,8.26 -13.84,-1.95 -27.67,-3.89 -41.5,-5.85 -16.58,-2.32 -29.19,-7.54 -35.8,-0.15 7.9,1.8 10.88,4.93 16.89,7.26l-0.67 4.78c-7.01,-0.38 -11.49,0.79 -20.88,-1.38 -24.41,-5.66 -20.82,-2.86 -40.01,-5.56 -1.63,13.76 8.73,12.62 22.38,14.55 -5.1,12.03 -41.4,-2.75 -63.38,-0.79 8.76,18.12 26.46,13.99 44.89,16.04l52.73 7.48c30.67,4.32 24.84,6.75 41.07,11.87 4.81,1.52 9.47,2.17 12.54,3.4 15.06,6.04 53.22,25.73 64.94,35.29 6.03,4.92 11.6,9.46 17.32,14.06 11.32,9.16 24.24,17.91 34.29,28.39 5.81,6.07 10.04,10.72 14.92,17.3l20.91 25.64c8.87,9.72 23.07,35.15 29.81,47.46 6.39,11.69 26.67,48.65 25.92,61.83 -9.38,-1.54 -10.56,-7.7 -15.7,-13.87l-2.84 -3.57c-0.2,-0.26 -0.46,-0.66 -0.64,-0.94 -12.49,-18 -32.07,-38.15 -39.3,-48.88 -3.51,-5.23 -2.3,-6.43 -8.92,-8.98 -3.25,14.34 -0.94,16.86 6.24,36.69 -5.67,-1.29 -8.15,-2.32 -10.82,-6.14l-6.76 -9.17c-10.87,-10.59 -18.32,-24.5 -28.76,-35.41 -5.95,-6.2 -9.48,-16.1 -13.99,-18.01 -6.77,7.57 -3.55,7 0.39,15.4 1.95,4.14 1.48,6.05 3,10.59 2.66,7.97 5.99,9.69 4.68,20.72 -9.35,-1.53 -6.15,-2.93 -11.98,-8.1 -8.3,-7.36 -23.16,-26.16 -26.28,-28.71 -7.89,-6.45 -3.49,-4.38 -8.33,-10.85 -3.31,-4.4 -5.49,-4.14 -9.39,-8.63 -6.13,-7.07 -7.68,-15.88 -19.84,-17.87 1.6,17.99 14.54,35.35 11.96,53.77 -11.63,-1.9 -12.56,-10.13 -18.23,-17.67 -3.48,-4.64 -4.88,-5.33 -8.46,-9.33 -3.38,-3.77 -3.97,-6.51 -6.68,-10.64l-15.96 -19.39c-9.28,-10.92 -9.8,-16.22 -18.29,-17.61 -1.25,8.8 0.73,11.56 3.88,17.05 5.02,8.74 2.03,6.96 4.6,15.08 -14.45,-2.37 -21.82,-20.23 -30.14,-28.67l-13.62 -15.42c-6.1,-6.79 -5.08,-11.39 -16.53,-13.25 -0.7,12.29 11.4,32.97 19.13,39.83 10.7,9.52 20.55,21.23 28.9,32.46 12.76,17.14 25.14,35.9 34.97,54.99 3.09,6 6.17,12.39 9.06,18.86l14.58 43.24c1.5,6.11 0.31,0.57 2.18,5.5 2.88,7.57 -1.67,3.2 2.98,13.45l1.69 3c1.83,4.37 3.64,39.3 6.28,49.5 1.36,5.24 0.32,20.07 0.92,26.42 3.33,35.64 -6.95,82.07 -14.8,116.73l-4.48 -10.9c-3.02,-9.3 1.23,-20.91 -1.3,-27.56 -2.59,-6.82 -4.15,-0.12 -3.51,-11.62l-2.09 -54.08c-16.5,7.98 -11.02,38.98 -20.88,44.27l-3.22 -53.22c-0.67,-10.45 4.2,-44.01 -8.38,-49.34 -3.32,8.61 -4.87,19.85 -7.83,29.39 -1.29,4.14 -3.45,8.69 -5.67,13.33 -2.66,5.53 -2.51,7.39 -6.92,9.75 1.11,-9.4 -2.36,-20.83 -3.33,-28.89 -0.77,-6.48 1.01,-8.74 -0.36,-15.42 -6.46,-31.36 -0.43,-62.18 -11.58,-66.9 -8.07,4.33 -5.54,17.11 -9.65,26.96 -3.03,7.27 -6.33,17.6 -10.53,23.92 -3.86,-3.77 -4.98,-17.54 -5.41,-24.48 -0.33,-5.44 0.75,-9.18 0.14,-14.37 -1.8,-15.23 -2.55,-6.81 -4.3,-36.71 -0.57,-9.6 1.16,-18.94 -4.07,-24.04 -5.46,8.19 -6.4,29.84 -10.65,40.82 -13.19,-11.81 -2.82,-25.01 -10.99,-54.49 -3.08,-11.11 0.36,-26.6 -2.39,-35.29 -8.09,4.32 -7.51,18.61 -9.3,31.23 -5.71,2.77 -2.8,3.88 -10.24,3.45l-2.58 -38.02c-0.91,-5.61 -2.93,-12.13 -3.51,-17.33 -0.88,-7.92 0.89,-11.87 -1.35,-18.96 -11.69,5.65 -11.45,25.53 -17.02,39.93l-3.2 -0.44c0.51,-8.98 -3.39,-18.6 -3.87,-27.05 -0.18,-3.16 0.35,-5.56 0.35,-8.83 0.02,-6.87 -2.08,-11.64 -2.79,-17.89 -0.95,-8.6 0.97,-9.31 -1.57,-17.34 -10.4,5.57 -12.06,27.06 -17.02,39.92 -5.58,-4.03 -6.39,-9.17 -10.23,-15.12 -2.14,-3.32 -0.77,0.33 -2.7,-5.11 -2.69,-7.48 -3.7,-17.13 -12.23,-20.76 -6.83,48.47 -11.09,106.68 -19.12,163.72 -26.14,166.33 -47.96,328.86 -65.11,440.12 -61.4,398.53 -65.91,592.99 -78.78,645.15 -5.76,23.31 -20,2.7 -26.01,6.84 -0.3,0.21 -0.58,0.24 -0.86,0.2 -0.45,-0.5 -0.91,-0.98 -1.36,-1.47 -9.72,-21.55 5.24,-269.68 41.77,-547.97 19.56,-149.19 48.8,-245.52 68.16,-381.67 25.14,-176.88 39.1,-299.9 37.45,-307.09l0 0z"/>
  <path class="fil19" d="M551.75 888.18c-1.96,-17.64 -0.18,-6.43 -2.5,-27 -8.32,5.2 -6.61,14.71 -9.09,20.99 -10.01,-0.1 -0.95,-11.36 -12.33,-11.48 -2.48,6.29 -0.9,23.92 -0.2,33.63l-4.71 -4.09c-1.63,-2.57 -0.82,-3.93 -2.03,-7.18 -0.68,-1.84 -2.11,-4.24 -3.05,-6.03 -1.27,-2.45 -1.27,-3.46 -3.32,-4.74 -1.69,4.27 -0.02,35.91 0.51,43.3 -5.11,0.26 -4.99,-0.99 -5.77,-5.71 -0.66,-3.9 -1.26,-5.94 -1.61,-10.56 -2.72,-0.43 -3.47,-1.12 -5.46,-2.25 0.33,4.49 -0.37,7.52 0.07,13.26l1.98 26.43c0.29,6.39 0.42,8.72 -1.91,10.72 -0.5,-5.31 -2.26,-6.78 -3.78,-10.9 -1.6,-4.37 -0.48,-8.71 -5.61,-8.76 -0.98,2.4 -0.94,-0.66 -0.69,2.7 0.87,11.98 4.23,38.42 2.65,48.46 -5.83,-3.32 -10.85,-22.38 -16.94,-26.18 -2.86,18.21 3.15,43.26 2.38,57.28 -0.18,3.34 -0.49,3.76 -3.15,4.68 -3.41,-2.13 -2.12,-2.29 -3.41,-6.56 -0.78,-2.66 -2.06,-3.77 -3.4,-6.56 -1.92,-3.98 -2.75,-11.47 -7.45,-12.38 -1.59,4.08 1.46,37.47 2.42,42.07 0.76,3.71 2.09,7.45 2.45,12.42l-4.4 0.32c-0.38,-2.38 -2.57,-9.42 -3.35,-11.38 -1.45,-3.69 -2.6,-5.91 -5.99,-7.4 0.21,3.99 -0.62,3.56 -0.29,7.99l2.66 48.44c-2.33,-1.45 -2.42,-3.05 -3.68,-6.23l-11.92 -36.77c-3.3,-15.85 -6.9,-34.26 -6.06,-50.7 0.24,-4.67 1.03,-11.5 0.6,-16.1 -0.54,-5.89 0.83,-9.19 1.85,-14.75 3.86,-21.08 11.49,-47.72 24.13,-65.7 6.31,-8.97 10.75,-20.03 16.35,-29.56 1.78,-3.05 1.35,-2.96 1.04,-7.35 -4.69,1.63 -9.28,9.02 -13.1,12.58 -4.09,3.84 -9.54,7.65 -12.51,12.28 -2.38,3.71 -3.56,5.99 -9.23,6.88 0.11,-9.71 7.3,-11.04 7.39,-20 -5.7,1.77 -13.72,12.78 -17.94,17.47 -1.92,2.14 -2.68,2.38 -4.56,4.31 -1.75,1.8 -2.23,2.75 -4.25,4.57 -4.29,3.84 -5.05,5.01 -7.76,9.79l-5.27 0.38c1.42,-3.62 -0.31,-3.48 1.71,-7.59 3.08,-6.25 5.78,-12.32 6.91,-19.58 -3.54,2.03 -3.86,1.74 -6.94,4.71 -7.95,7.71 -25.89,24.89 -31.72,31.95 -2.12,2.57 -2.39,4.06 -6.07,4.64 -1.32,-2.24 -0.83,0.79 -1.08,-2.57 -0.29,-4.06 3.8,-9.59 5.36,-12.68 2.49,-4.92 3.76,-7.75 3.33,-13.6 -4.16,1.45 -7.09,6.7 -9.92,9.56 -3.25,3.3 -6.3,6.46 -9.06,10.31 -3.13,4.33 -1.61,1.42 -5.09,4.67 -4.91,4.58 -7.97,10.85 -13.76,14.48 -0.44,-6.07 2.09,-8.01 4.27,-11.96 2.69,-4.86 3.27,-5.89 2.73,-13.31 -3.64,1.26 -2.51,1.97 -4.73,4.98l-8.6 9.06c-1.93,1.98 -2.16,2.41 -4.4,4.44 -4.77,4.33 -13.03,14.97 -18.6,16.9 0.08,-8.37 4.4,-13.75 8.97,-19.46l8.4 -10.87c1.71,-2.49 2,-3.14 4.1,-5.52 3.24,-3.66 4.83,-6.56 8.11,-10.3 2.1,-2.41 2.29,-3.14 4.05,-5.57 6.76,-9.4 14.06,-17.96 22.89,-25.57 3.72,-3.19 5.9,-5.63 10.09,-8.58 4.03,-2.86 8.56,-4.56 11.98,-7.79 5.14,-4.86 4.08,-5.02 11.59,-8.12 5.03,-2.07 9.4,-3.73 14.14,-5.92 10.67,-4.91 14.66,-5.16 21.34,-7.95 7.09,-2.97 24.2,-5.23 33.66,-7.19 3.3,-0.68 5.77,-0.76 8.42,-1.78 5.57,-2.15 2.62,-3.64 13.8,-5.4 -3.76,-2.81 -8.17,-3.16 -13.47,-2.61 -4.16,0.43 -3.99,1.03 -7.84,1.52l-15.9 0.28c4.21,-9.62 11.34,-3.39 12.56,-9.77 -12.31,0.9 -31.82,3.86 -42.3,2.21 -0.24,-4.7 -0.23,-3.66 3.54,-5.2 5.47,-2.22 13.84,-3.69 16.67,-8.66l-10.62 -0.09c-4.55,0.56 -6.89,-0.44 -12.36,-0.03 -8.51,0.67 -17.02,1.28 -25.53,1.9 1.65,-2.64 7.23,-5.53 10.23,-6.82 4.29,-1.85 6.75,-2.85 9.1,-6.98 -24.07,-0.24 -20.53,3.28 -41.22,4.78 0.55,-3.51 1.52,-5.32 4.78,-6.58 4.92,-1.91 5.22,0.32 7.71,-4.05 -9.81,-0.11 -15.57,-0.14 -25.64,1.74 -7.17,1.34 -12.77,0.18 -18.41,0.6 0.57,-2.99 2.17,-3.46 4.94,-4.81 2.61,-1.28 4.3,-1.51 7.59,-2.52 4.93,-1.51 7.51,-3.86 14.01,-5.2 5.42,-1.12 10.47,-3.02 15.67,-3.78 16.85,-2.44 36.41,-5.43 53.35,-2.72 17.33,2.76 8.5,-0.19 26.16,5.96 4.35,1.51 8.11,2.69 12.1,4.12 6.31,2.27 27.08,12.69 31.99,17.36 3.77,3.55 3.21,5.19 9.5,6.17 -0.6,-8.03 -5.66,-14.96 -7.64,-22.66 -5.61,-21.99 -5.64,-25.8 -7.25,-47.88 -0.4,-5.48 0.4,-8.31 1.36,-12.88 1.12,-5.27 -0.6,-5.37 1.54,-10.13 1.7,-3.76 1.45,-8.14 2.38,-12 0.84,-3.52 2.22,-6.79 3.5,-10.15 2.92,-7.66 4.51,-13.17 8.39,-19.95 2.46,-4.31 8.62,-13.79 9.46,-18.2l1.76 -0.14c0.29,3.86 -2.92,12.65 -4.19,16.98 -1.3,4.45 -5.99,15.05 -2.85,19.8 6.25,-1.95 0.78,-2.19 5.9,-3.97 0.95,13.03 -5.79,17.47 -5.17,26.03 0.54,7.33 3.97,2.83 6.37,-1.09 2.38,-3.92 2.43,-4.48 6.31,-6.92 0.35,6.81 -3.3,14.88 -4.48,20.86 -1.33,6.73 -4.46,14.17 -3.94,21.33 9.02,-0.87 2.95,-6.98 11.68,-9.7 0.56,7.56 -1.49,12.69 -3.69,18.25 -1.72,4.34 -0.86,4.74 -1.81,9.16 -1.24,5.67 -2.65,2.21 -0.73,8.42 2.82,-2.2 4.98,-7.09 8.23,-8.56 0.56,7.79 -1.39,6 -2.29,12.06 -1.02,6.94 -2.37,9 -1.82,16.55 5.02,-0.49 2.85,-0.66 5.97,-3.1 1.16,16.01 -4.79,9.42 -1.09,21.31 2.23,-1.4 3.2,-1.73 4.79,-4.09l2.28 -4.64c1.46,-2.5 1.89,-2.18 3.03,-5.62 0.81,-2.49 1.05,-3.56 1.8,-5.86 2.21,-6.96 6.55,-14.4 10.2,-20.86 6.82,-12.04 16.21,-27.99 26.29,-37.45 18.68,-17.53 24.82,-22.83 47.21,-34.23 5.32,-2.71 19.04,-8.22 23.85,-9.07 4.52,-0.8 10.75,-2.84 13,-1.96 -0.68,2.42 0.33,1.38 -2.97,3.21l-21.63 10.15c-2.85,1.31 -3.82,3.63 -5.85,5.68 4.1,0.64 5.55,1.36 10.69,0.98 -3.85,3.88 -9.33,6.65 -14.02,9.32 -6.46,3.67 -10.85,1.87 -14.73,8.7 5.36,2.12 9.5,1.08 16.85,0.54 -0.78,2.74 -5.4,4.62 -8.16,6.14l-8.73 4.83c-4.72,2.94 -14.06,5.35 -15.07,11.71 5.04,0.79 8.96,0.24 15.03,-0.21 -2.7,4.72 -8.91,7.04 -14.69,9.57 -4.93,2.18 -11.78,5.41 -14.01,9.32 4.32,0.7 12.09,-0.51 15.09,0.68 -0.88,2.73 0.54,1.14 -3.37,2.85l-10.8 5.52c-3.89,2.03 -12.41,4.47 -13.78,8.71 7.68,1.2 16.57,-3.01 21.3,-7.99 3.17,-3.34 3.65,-2.56 7.55,-5.02l24.13 -12.95 19.39 -5.51c10.05,-3.05 33.52,-4.87 44.82,-4.01 4.08,0.32 7.64,-0.53 11.52,0.02 5.17,0.72 15.8,1.57 18.72,4.08 1.81,1.55 3.92,4.51 4.69,6.99 -3.97,0.29 -9.27,0.98 -13.1,0.84 -3.99,-0.13 -11.69,-2.45 -16,0.4 2.02,5.84 5.98,3.4 11.01,5.38 -1.27,2.92 -0.77,2.84 -4.3,3.72 -7.22,1.81 -12.94,0.19 -21.02,0.79 -4.14,0.31 -7.22,0.01 -10.43,2.53 2.92,3.73 5.3,3.1 9.92,4.74 3.62,1.3 8.14,1.77 9.39,5.34 -8.91,1.41 -18.75,3.18 -27.96,2.81 -8.98,-0.36 -12.27,1.16 -21.17,2.55 2.93,3.45 12.95,5.45 17.79,7.07 3.68,1.22 2.64,-1.35 4.22,3.71 -7.62,0.56 -15.25,1.12 -22.87,1.67 -9.14,0.66 -16.49,-0.65 -19.17,4.05 4.44,0.06 6.39,1.39 9.87,1.94l0.2 2.64c-3.79,0.59 -6.06,1.74 -11.33,1.67 -13.7,-0.2 -11.48,0.87 -22.04,1.65 0.72,7.55 6.12,5.74 13.65,5.2 -1.34,7.02 -22.46,3.32 -33.99,6.9 6.77,8.68 15.77,4.44 25.87,3.39l29.05 -2.09c16.92,-1.25 14.08,0.73 23.35,1.59 2.75,0.25 5.32,0.07 7.1,0.37 8.76,1.5 31.43,7.61 38.81,11.37 3.8,1.94 7.3,3.71 10.89,5.52 7.11,3.59 15.04,6.77 21.63,11.23 3.8,2.57 6.61,4.56 9.99,7.52l14.13 11.3c5.88,4.16 16.42,16.12 21.45,21.93 4.77,5.5 19.88,22.93 21,30.06 -5.18,0.27 -6.54,-2.89 -9.99,-5.6l-1.94 -1.57c-0.14,-0.13 -0.32,-0.31 -0.46,-0.43 -8.75,-8.19 -21.56,-16.71 -26.66,-21.6 -2.49,-2.4 -1.98,-3.17 -5.81,-3.78 -0.08,8.05 1.44,9.13 7.57,18.91 -3.17,-0.03 -4.62,-0.31 -6.49,-2.04l-4.67 -4.12c-7.04,-4.41 -12.64,-10.98 -19.49,-15.61 -3.9,-2.63 -6.92,-7.52 -9.55,-8.02 -2.75,4.82 -1.09,4.16 1.99,8.2 1.52,1.99 1.48,3.06 2.82,5.31 2.35,3.95 4.33,4.49 4.91,10.55 -5.19,0.26 -3.64,-0.86 -7.36,-2.94 -5.28,-2.99 -15.4,-11.33 -17.36,-12.33 -4.97,-2.54 -2.38,-1.95 -5.72,-4.84 -2.28,-1.97 -3.41,-1.57 -6.03,-3.54 -4.09,-3.07 -5.93,-7.6 -12.68,-7.26 2.95,9.45 11.88,17.23 12.63,27.38 -6.45,0.34 -7.9,-3.96 -11.8,-7.34 -2.41,-2.09 -3.22,-2.28 -5.6,-4.01 -2.24,-1.63 -2.87,-3.03 -4.81,-4.92l-10.78 -8.52c-6.22,-4.79 -7.12,-7.55 -11.82,-7.3 0.36,4.84 1.73,6.1 4.05,8.66 3.7,4.09 1.9,3.49 4.21,7.53 -8,0.4 -14.01,-8.3 -19.43,-11.85l-9.07 -6.67c-4.05,-2.93 -4.04,-5.5 -10.38,-5.17 1.04,6.66 9.91,16.32 14.83,19.09 6.83,3.86 13.46,8.97 19.22,14.02 8.81,7.69 17.59,16.29 25.06,25.37 2.35,2.85 4.73,5.91 7.03,9.03l12.8 21.45c1.51,3.09 0.24,0.26 1.8,2.69 2.42,3.71 -0.53,1.9 3.15,6.85l1.26 1.4c1.48,2.13 6.49,20.61 9.07,25.75 1.34,2.64 2.49,10.7 3.54,14.04 5.91,18.66 5.78,44.69 5.59,64.13l-3.65 -5.31c-2.7,-4.63 -1.76,-11.32 -3.89,-14.59 -2.17,-3.34 -2.22,0.42 -3.22,-5.8l-7.37 -28.69c-7.9,6.17 -1.38,22.12 -6.04,26.1l-7.89 -28.1c-1.56,-5.52 -2.85,-24.02 -10.19,-25.42 -0.77,4.98 -0.31,11.18 -0.79,16.63 -0.2,2.36 -0.83,5.04 -1.48,7.78 -0.78,3.26 -0.49,4.23 -2.57,6.01 -0.5,-5.15 -3.68,-10.86 -5.13,-15.07 -1.16,-3.37 -0.47,-4.78 -1.98,-8.2 -7.08,-16.03 -7.41,-33.21 -13.92,-34.44 -3.82,3.24 -0.98,9.79 -2.05,15.54 -0.77,4.23 -1.35,10.14 -2.86,13.99 -2.5,-1.54 -4.69,-8.79 -5.73,-12.46 -0.8,-2.86 -0.66,-4.99 -1.59,-7.7 -2.72,-7.92 -2.14,-3.34 -6.54,-19.12 -1.41,-5.08 -1.58,-10.28 -4.96,-12.39 -1.97,5 0.04,16.69 -0.97,23.05 -8.42,-4.78 -4.4,-13.04 -12.18,-27.87 -2.94,-5.58 -2.88,-14.27 -5.37,-18.59 -3.82,3.24 -1.85,10.82 -1.35,17.78 -2.74,2.14 -1.05,2.39 -5.08,3.03l-5.78 -20.04c-1.13,-2.91 -2.97,-6.16 -3.87,-8.86 -1.39,-4.14 -0.9,-6.46 -2.92,-9.99 -5.6,4.37 -3.18,14.98 -4.49,23.33l-1.76 0.12c-0.76,-4.85 -3.97,-9.55 -5.2,-14.02 -0.46,-1.66 -0.46,-3 -0.83,-4.76 -0.78,-3.67 -2.46,-5.98 -3.55,-9.23 -1.51,-4.51 -0.57,-5.11 -2.87,-9.1 -4.9,4.18 -3.32,15.86 -4.47,23.31 -3.45,-1.51 -4.48,-4.16 -7.22,-6.91 -1.54,-1.52 -0.38,0.27 -2.04,-2.41 -2.29,-3.69 -3.97,-8.74 -8.94,-9.69 1.95,26.71 8.8,57.73 11.1,89.18 5.26,91.99 10.8,218.45 12.71,280.03 6.86,221.89 8.03,304.2 7.18,333.59 -0.38,13.12 -8.81,6.34 -11.55,9.25 -9.45,10.04 -4.76,-305.61 -20.85,-529.83 -7.01,-97.52 -18.27,-163.95 -19.99,-167.61l0 0z"/>
  <path class="fil20" d="M998.03 680.37c2.38,-23.14 1.56,-8.28 4.27,-35.27 -12.08,4.36 -12.54,17.03 -17.44,24.38 -12.8,-2.9 1.93,-14.82 -12.62,-18.11 -4.91,7.37 -7.77,30.38 -9.56,42.99l-4.91 -6.53c-1.37,-3.74 0.06,-5.26 -0.61,-9.77 -0.36,-2.53 -1.5,-6.02 -2.21,-8.55 -0.97,-3.48 -0.68,-4.78 -2.95,-7 -3.33,5.03 -9.98,45.98 -11.33,55.6 -6.63,-1.1 -6.12,-2.66 -5.81,-8.93 0.25,-5.18 0.02,-7.95 0.87,-13.95 -3.39,-1.31 -4.15,-2.4 -6.39,-4.4 -0.82,5.85 -2.56,9.52 -3.57,17l-4.8 34.38c-1.38,8.26 -1.85,11.3 -5.39,13.19 0.82,-6.93 -1.02,-9.29 -1.82,-14.99 -0.85,-6.04 1.79,-11.28 -4.78,-12.78 -1.92,2.81 -1,-1.09 -1.63,3.28 -2.18,15.57 -5.2,50.36 -9.99,62.77 -6.56,-5.86 -7.72,-31.64 -14.47,-38.21 -8.7,22.53 -7.92,56.26 -12.79,74.01 -1.16,4.22 -1.66,4.68 -5.35,5.12 -3.75,-3.65 -2.06,-3.53 -2.53,-9.35 -0.28,-3.61 -1.61,-5.38 -2.55,-9.33 -1.35,-5.63 -0.34,-15.46 -6.11,-17.9 -3.18,4.77 -8.49,48.35 -8.54,54.51 -0.05,4.97 0.6,10.13 -0.3,16.58l-5.72 -0.8c0.18,-3.17 -0.69,-12.76 -1.15,-15.5 -0.84,-5.13 -1.69,-8.28 -5.6,-11.12 -0.84,5.16 -1.79,4.39 -2.6,10.14l-10.01 62.77c-2.57,-2.51 -2.24,-4.58 -2.99,-9.01l-5.06 -50.39c0.14,-21.19 0.64,-45.77 6.26,-66.58 1.61,-5.92 4.5,-14.44 5.23,-20.43 0.93,-7.71 3.6,-11.56 6.44,-18.39 10.78,-25.93 27.94,-57.92 49.08,-77.44 10.57,-9.75 19.31,-22.67 29.11,-33.33 3.15,-3.41 2.58,-3.41 3.38,-9.11 -6.46,0.77 -14.38,8.96 -20.26,12.49 -6.3,3.76 -14.33,7.13 -19.42,12.23 -4.08,4.08 -6.21,6.7 -13.7,6.27 2.82,-12.42 12.39,-12.11 14.99,-23.56 -7.8,0.68 -21.12,12.55 -27.81,17.39 -3.04,2.21 -4.1,2.31 -7.02,4.25 -2.76,1.82 -3.61,2.92 -6.71,4.68 -6.56,3.74 -7.86,5.03 -12.64,10.38l-6.87 -0.96c2.82,-4.24 0.56,-4.55 4.3,-9.25 5.65,-7.15 10.8,-14.17 14.27,-23.15 -5.09,1.62 -5.44,1.15 -10.21,4.12 -12.3,7.65 -40.03,24.7 -49.45,32.11 -3.43,2.7 -4.19,4.55 -9.06,4.27 -1.08,-3.23 -1.28,0.78 -0.66,-3.59 0.75,-5.3 7.52,-11.24 10.37,-14.76 4.57,-5.61 6.96,-8.87 8.04,-16.49 -5.74,0.7 -10.94,6.62 -15.35,9.5 -5.09,3.32 -9.85,6.53 -14.47,10.67 -5.2,4.69 -2.45,1.39 -7.8,4.58 -7.56,4.51 -13.22,11.71 -21.63,14.74 1.11,-7.89 4.89,-9.68 8.78,-14.14 4.78,-5.47 5.81,-6.63 7.18,-16.28 -5.02,0.61 -3.76,1.82 -7.44,5.06l-13.52 9.22c-3.02,2.01 -3.43,2.49 -6.86,4.47 -7.31,4.23 -20.83,15.57 -28.49,16.5 2.42,-10.69 9.42,-16.39 16.86,-22.43l13.77 -11.59c2.88,-2.72 3.43,-3.47 6.79,-5.93 5.16,-3.79 8,-7.07 13.24,-10.96 3.34,-2.48 3.79,-3.38 6.72,-6.01 11.25,-10.16 22.98,-19.11 36.36,-26.4 5.66,-3.07 9.13,-5.57 15.31,-8.2 5.94,-2.53 12.23,-3.46 17.5,-6.65 7.92,-4.8 6.61,-5.31 17.09,-7.19 7,-1.26 13.07,-2.17 19.75,-3.65 15,-3.35 20.19,-2.55 29.51,-4.29 9.9,-1.84 32.44,0 45.08,0.12 4.42,0.05 7.61,0.63 11.3,0.05 7.71,-1.21 4.34,-3.95 19.14,-3.1 -4.03,-4.62 -9.57,-6.31 -16.5,-7.07 -5.46,-0.59 -5.41,0.21 -10.47,-0.22l-20.44 -4.05c8.06,-11.13 15.46,-1.2 18.78,-9.03 -16.01,-2.26 -41.82,-3.87 -54.76,-8.88 0.99,-6.07 0.72,-4.74 5.94,-5.67 7.64,-1.34 18.77,-0.88 23.78,-6.48l-13.6 -3.06c-5.97,-0.54 -8.68,-2.46 -15.8,-3.44 -11.08,-1.51 -22.14,-3.09 -33.22,-4.65 2.85,-2.92 10.8,-5.08 14.99,-5.91 6,-1.17 9.43,-1.76 13.58,-6.4 -30.75,-6.98 -27.19,-1.51 -54.1,-5.29 1.68,-4.33 3.42,-6.39 7.94,-7.11 6.82,-1.08 6.59,1.85 10.99,-3.06 -12.51,-2.83 -19.9,-4.49 -33.31,-4.87 -9.54,-0.26 -16.39,-3.3 -23.73,-4.34 1.55,-3.65 3.74,-3.81 7.65,-4.77 3.7,-0.91 5.93,-0.73 10.41,-1.12 6.75,-0.58 10.7,-2.86 19.39,-2.78 7.26,0.07 14.23,-0.97 21.1,-0.5 22.26,1.52 48.12,3.13 69.06,11.27 21.42,8.34 10.94,2.12 31.86,14.87 5.13,3.14 9.64,5.7 14.34,8.64 7.44,4.65 31.16,23.75 36.16,31.06 3.85,5.62 2.66,7.55 10.45,10.57 1.46,-10.47 -3.1,-20.74 -3.49,-31.13 -1.12,-29.72 -0.1,-34.62 3.96,-63.34 0.99,-7.12 2.8,-10.51 5.32,-16.11 2.88,-6.43 0.69,-7.03 4.76,-12.52 3.2,-4.36 4.12,-10.05 6.36,-14.72 2.06,-4.27 4.73,-8.09 7.3,-12.03 5.85,-8.99 9.42,-15.61 16.26,-23.23 4.35,-4.81 14.86,-15.26 17.16,-20.69l2.29 0.33c-0.71,5.01 -7.23,15.38 -10.07,20.58 -2.9,5.34 -11.84,17.6 -9.13,24.56 8.55,-0.76 1.62,-2.6 8.66,-3.46 -2.39,16.94 -12.27,20.77 -13.83,31.9 -1.34,9.55 4.3,4.75 8.46,0.38 4.14,-4.36 4.36,-5.08 9.99,-7.11 -1.44,8.79 -8.34,18.13 -11.51,25.46 -3.56,8.26 -9.62,16.91 -10.94,26.22 11.77,1.38 5.7,-8.12 17.63,-9.19 -1.38,9.84 -5.42,15.84 -9.77,22.34 -3.42,5.09 -2.41,5.85 -4.86,11.21 -3.16,6.93 -4.02,2.12 -3.26,10.61 4.22,-2.05 8.33,-7.73 12.89,-8.68 -1.43,10.1 -3.41,7.28 -6.24,14.78 -3.25,8.61 -5.54,10.88 -6.92,20.7 6.56,0.77 3.82,-0.05 8.49,-2.31 -2.94,20.82 -8.75,10.73 -7.29,26.98 3.25,-1.17 4.56,-1.33 7.26,-3.93l4.2 -5.29c2.57,-2.78 3.04,-2.26 5.44,-6.36 1.72,-2.96 2.33,-4.26 3.92,-7.01 4.76,-8.29 12.38,-16.63 18.84,-23.87 12.06,-13.54 28.5,-31.35 44.04,-40.69 28.75,-17.27 38.09,-22.36 69.92,-30.74 7.55,-2 26.66,-5.27 33.04,-5.02 6.01,0.24 14.56,-0.66 17.2,1.09 -1.54,2.91 0.03,1.86 -4.7,3.27l-30.51 7.04c-4.01,0.88 -5.88,3.58 -9.05,5.64 5.06,1.95 6.71,3.28 13.41,4.21 -5.99,3.89 -13.8,5.94 -20.54,8.06 -9.28,2.91 -14.39,-0.62 -21.27,7.06 6.28,4.19 11.87,4.01 21.42,5.35 -1.74,3.29 -8.17,4.43 -12.14,5.62l-12.51 3.76c-6.85,2.46 -19.49,2.94 -22.53,10.81 6.22,2.41 11.4,2.78 19.29,3.89 -4.74,5.3 -13.34,6.57 -21.45,8.2 -6.92,1.41 -16.58,3.66 -20.52,8.06 5.35,2.06 15.62,2.68 19.13,5.02 -1.89,3.26 0.39,1.62 -5.11,2.72l-15.35 4.08c-5.54,1.53 -17.13,2.28 -20.03,7.35 9.47,3.66 22.03,0.73 29.47,-4.33 4.97,-3.4 5.38,-2.27 11.05,-4.34l34.48 -9.89 26.35 -1.7c13.71,-1.12 44.27,3.04 58.49,7.27 5.15,1.52 9.95,1.44 14.76,3.21 6.4,2.36 19.79,6.39 22.84,10.41 1.88,2.49 3.76,6.85 4.07,10.24 -5.16,-0.72 -12.14,-1.3 -17.01,-2.54 -5.07,-1.28 -14.29,-6.38 -20.59,-3.92 0.97,8.03 6.7,6.03 12.59,9.94 -2.43,3.38 -1.78,3.42 -6.52,3.57 -9.75,0.32 -16.63,-3.33 -27.13,-4.81 -5.39,-0.77 -9.26,-1.97 -14.07,0.36 2.71,5.58 5.93,5.43 11.38,8.82 4.29,2.67 9.96,4.51 10.56,9.43 -11.79,-0.66 -24.88,-1.13 -36.58,-4.15 -11.38,-2.95 -16.03,-1.91 -27.82,-2.59 2.8,5.23 15.08,10.57 20.85,13.97 4.35,2.58 3.75,-0.99 4.35,5.92 -9.91,-1.39 -19.83,-2.79 -29.74,-4.19 -11.88,-1.67 -20.92,-5.4 -25.65,-0.11 5.65,1.29 7.78,3.54 12.1,5.21l-0.49 3.43c-5.02,-0.29 -8.24,0.56 -14.96,-0.99 -17.51,-4.05 -14.93,-2.05 -28.68,-3.98 -1.16,9.86 6.27,9.04 16.03,10.42 -3.65,8.62 -29.66,-1.98 -45.43,-0.56 6.28,12.98 18.97,10.02 32.19,11.49l37.78 5.36c21.99,3.1 17.82,4.84 29.46,8.51 3.44,1.09 6.79,1.55 8.99,2.43 10.78,4.34 38.14,18.45 46.54,25.3 4.33,3.53 8.32,6.78 12.41,10.09 8.12,6.57 17.38,12.83 24.58,20.35 4.17,4.34 7.21,7.68 10.71,12.4l14.97 18.37c6.37,6.97 16.54,25.2 21.39,34.03 4.57,8.37 19.11,34.87 18.57,44.31 -6.71,-1.09 -7.58,-5.52 -11.24,-9.94l-2.05 -2.54c-0.14,-0.2 -0.32,-0.49 -0.46,-0.68 -8.95,-12.9 -22.98,-27.36 -28.17,-35.04 -2.52,-3.75 -1.64,-4.61 -6.39,-6.45 -2.33,10.29 -0.67,12.09 4.47,26.3 -4.07,-0.91 -5.85,-1.66 -7.76,-4.4l-4.85 -6.56c-7.77,-7.61 -13.13,-17.57 -20.62,-25.39 -4.25,-4.44 -6.78,-11.54 -10.01,-12.92 -4.86,5.43 -2.55,5.02 0.27,11.05 1.4,2.97 1.07,4.33 2.15,7.59 1.91,5.71 4.3,6.95 3.36,14.85 -6.71,-1.09 -4.41,-2.1 -8.59,-5.8 -5.94,-5.27 -16.59,-18.76 -18.83,-20.58 -5.66,-4.63 -2.51,-3.15 -5.98,-7.79 -2.36,-3.15 -3.94,-2.96 -6.73,-6.18 -4.39,-5.06 -5.51,-11.38 -14.22,-12.82 1.15,12.9 10.43,25.35 8.56,38.56 -8.34,-1.37 -8.99,-7.26 -13.05,-12.67 -2.51,-3.33 -3.5,-3.82 -6.07,-6.68 -2.42,-2.71 -2.85,-4.69 -4.79,-7.65l-11.43 -13.88c-6.66,-7.84 -7.04,-11.63 -13.13,-12.63 -0.88,6.31 0.53,8.29 2.8,12.22 3.59,6.27 1.45,4.99 3.29,10.81 -10.35,-1.69 -15.64,-14.51 -21.6,-20.55l-9.77 -11.05c-4.37,-4.87 -3.65,-8.17 -11.85,-9.5 -0.5,8.81 8.18,23.63 13.71,28.55 7.68,6.82 14.73,15.22 20.73,23.27 9.13,12.29 18,25.74 25.05,39.42 2.23,4.3 4.43,8.88 6.5,13.51l10.46 31.01c1.06,4.36 0.22,0.41 1.56,3.94 2.06,5.42 -1.21,2.29 2.13,9.64l1.22 2.15c1.31,3.13 2.6,28.17 4.49,35.47 0.98,3.76 0.24,14.4 0.66,18.95 2.4,25.54 -4.98,58.83 -10.6,83.68l-3.21 -7.82c-2.17,-6.68 0.88,-14.98 -0.93,-19.76 -1.87,-4.88 -2.99,-0.08 -2.53,-8.32l-1.49 -38.76c-11.82,5.71 -7.91,27.94 -14.98,31.73l-2.31 -38.15c-0.47,-7.5 3.02,-31.56 -6,-35.38 -2.38,6.17 -3.5,14.23 -5.61,21.08 -0.91,2.96 -2.46,6.22 -4.05,9.54 -1.91,3.97 -1.82,5.31 -4.97,7 0.8,-6.74 -1.69,-14.92 -2.39,-20.7 -0.55,-4.66 0.73,-6.28 -0.26,-11.06 -4.62,-22.49 -0.31,-44.57 -8.3,-47.96 -5.78,3.11 -3.97,12.26 -6.92,19.33 -2.17,5.2 -4.53,12.61 -7.54,17.13 -2.77,-2.68 -3.57,-12.55 -3.88,-17.54 -0.23,-3.89 0.54,-6.57 0.1,-10.29 -1.29,-10.91 -1.83,-4.89 -3.08,-26.32 -0.41,-6.89 0.82,-13.58 -2.92,-17.23 -3.92,5.86 -4.58,21.39 -7.62,29.26 -9.48,-8.46 -2.04,-17.92 -7.9,-39.07 -2.2,-7.96 0.26,-19.07 -1.71,-25.3 -5.8,3.11 -5.38,13.35 -6.65,22.4 -4.11,1.98 -2.02,2.78 -7.36,2.48l-1.84 -27.26c-0.65,-4.03 -2.1,-8.7 -2.52,-12.42 -0.63,-5.68 0.64,-8.52 -0.97,-13.59 -8.37,4.05 -8.21,18.29 -12.21,28.62l-2.28 -0.33c0.36,-6.43 -2.43,-13.33 -2.78,-19.39 -0.12,-2.27 0.25,-3.98 0.25,-6.32 0.01,-4.92 -1.49,-8.35 -1.99,-12.82 -0.69,-6.18 0.69,-6.68 -1.13,-12.44 -7.46,3.99 -8.64,19.41 -12.2,28.62 -4,-2.89 -4.59,-6.58 -7.33,-10.84 -1.53,-2.38 -0.55,0.23 -1.93,-3.67 -1.93,-5.36 -2.66,-12.27 -8.77,-14.87 -4.9,34.73 -4.72,76.36 -10.48,117.25 -18.74,119.23 -42.23,278.86 -54.52,358.62 -44.02,285.69 -69.13,400.96 -78.35,438.35 -4.12,16.72 -13.11,3.79 -17.43,6.77 -14.86,10.23 67.06,-396.53 108.52,-688.08 18.03,-126.79 22,-214.98 20.81,-220.14l0 0.01z"/>
  <path class="fil21" d="M423.15 310.4c-4.14,-4.35 -9.36,-7 -13.7,-6.55 -4.34,0.46 -7.81,4.01 -11.09,8.27l-0.3 0.41c-10.26,101.47 -24.77,192.07 -39.19,293.55 -19.36,136.14 -48.59,294.11 -68.16,443.29 -36.53,278.29 -51.49,526.41 -41.77,547.97 0.45,0.49 0.91,0.97 1.37,1.47 0.27,0.05 0.55,0.01 0.85,-0.19 6.01,-4.15 20.26,16.47 26.01,-6.85 12.87,-52.16 17.38,-246.62 78.78,-645.15 17.15,-111.26 43.48,-302.69 69.62,-469.02 8.03,-56.97 6.44,-83.88 13.25,-132.29 -2.25,-10.01 -8.61,-27.5 -15.67,-34.91z"/>
  <path class="fil22" d="M573.43 873.64c-3.97,-9.74 -4.71,-11.23 -5.4,-12.61 -0.96,-1.89 -1.8,-3.57 -3.27,-5.3 -1.48,-1.74 -3.56,-3.52 -5.45,-3.86 -1.88,-0.35 -3.54,0.72 -5.28,2.57 -1.74,1.86 -3.55,4.48 -4.7,6.7l-0.07 0.15c2.31,20.41 0.53,9.28 2.49,26.89 1.72,3.66 12.97,70.09 19.98,167.61 16.1,224.21 11.41,539.87 20.85,529.83 2.74,-2.91 11.18,3.87 11.55,-9.25 0.86,-29.39 -0.31,-111.7 -7.17,-333.59 -1.91,-61.58 -7.46,-188.04 -12.71,-280.03 -2.3,-31.45 -9.16,-62.47 -11.11,-89.18l0.29 0.07z"/>
  <path class="fil23" d="M1030.72 668.21c-1.87,-4.06 -4.57,-8.22 -7.25,-11.91 -2.87,-3.92 -5.7,-7.29 -8.53,-10.36 -2.85,-3.07 -5.68,-5.85 -7.58,-6.91 -1.9,-1.07 -2.84,-0.42 -4.03,1.13 -0.7,0.91 -1.51,2.16 -2.74,5.74 0.58,-0.26 1.18,-0.53 1.82,-0.75 -2.71,26.99 -1.9,12.13 -4.28,35.27 1.19,5.15 -2.78,93.34 -20.81,220.14 -41.46,291.54 -123.38,698.3 -108.51,688.07 4.31,-2.97 13.3,9.95 17.42,-6.76 9.23,-37.4 34.34,-152.67 78.36,-438.36 12.29,-79.76 35.77,-239.39 54.51,-358.62 5.77,-40.89 5.58,-82.52 10.48,-117.25 0.4,0.18 0.78,0.36 1.14,0.57z"/>
  <path class="fil24" d="M273.56 1623.28c131.19,6.3 201.44,14.54 371.89,0.36 67.19,-21.71 127.65,-6.14 196.53,-0.8 161.6,12.49 266.87,12.73 428.31,0.16 54.69,-4.26 56.13,-5.46 52.72,-8.86 -3.41,-3.41 -11.66,-9.04 -56.84,-13.3 -45.16,-4.26 -87.03,-14.56 -129.93,-16.69 -42.91,-2.13 -83.15,-25.82 -143.66,-32.35 -60.51,-6.54 -120.2,-14.01 -180.28,-22.82 -60.09,-8.81 -106.33,-19.23 -169.17,-21.19 -62.84,-1.95 -181.25,-54.11 -260.14,-55.9 -70.59,-1.58 -161.5,-13.66 -249.19,-9.87 39.28,65.97 86.27,126.81 139.76,181.26z"/>
  <path class="fil25" d="M241.48 1588.98c5.48,0.24 11.12,0.55 17,0.98 20.5,1.49 43.99,4.55 63.6,5.25 19.63,0.7 35.39,-0.95 52.21,-2.43 16.81,-1.47 34.68,-2.81 47.87,-4.19 13.19,-1.39 21.71,-2.83 25.34,-4.56 3.63,-1.74 2.39,-3.75 0.52,-6.1 -1.88,-2.36 -4.38,-5.04 -7.68,-8.77 -3.3,-3.72 -7.4,-8.48 -11.51,-15.73 -4.1,-7.27 -8.19,-17.04 -11.18,-25.71 -2.99,-8.67 -4.86,-16.24 -6.45,-23.76 -1.58,-7.54 -2.89,-15.03 -3.55,-22.12 -0.66,-7.1 -0.69,-13.82 -1.63,-16.94 -0.95,-3.12 -2.83,-2.65 -4.62,-0.43 -1.8,2.22 -3.51,6.21 -4.44,10.07 -0.95,3.86 -1.1,7.6 -1.07,12.18 0.04,4.56 0.27,9.95 0.36,16.26 0.11,6.32 0.07,13.57 0.25,20.39 0.17,6.81 0.55,13.18 0.34,15.83 -0.21,2.65 -1,1.59 -2.16,-2.64 -1.18,-4.24 -2.72,-11.65 -5.21,-19.18 -2.52,-7.52 -5.99,-15.18 -8.19,-22.94 -2.2,-7.76 -3.13,-15.64 -3.09,-23.22 0.03,-7.56 1.05,-14.82 1.78,-22.63 0.73,-7.82 1.18,-16.18 0.64,-18.17 -0.54,-1.98 -2.1,2.41 -3.26,6.11 -1.16,3.72 -1.94,6.76 -2.52,8.5 -0.58,1.73 -0.97,2.16 -1.88,0.4 -0.92,-1.74 -2.33,-5.64 -4.01,-9.14 -1.68,-3.48 -3.62,-6.56 -4.89,-5.55 -1.28,1 -1.9,6.08 -2.11,12.03 -0.22,5.97 -0.03,12.82 -0.15,19.6 -0.12,6.8 -0.54,13.52 -0.76,21.13 -0.2,7.62 -0.2,16.12 -0.55,22.55 -0.35,6.43 -1.04,10.79 -3.53,8.13 -2.49,-2.66 -6.77,-12.36 -11.03,-21.55 -4.26,-9.21 -8.49,-17.91 -13.1,-30.59 -4.61,-12.66 -9.6,-29.29 -11.33,-41.51 -1.73,-12.25 -0.19,-20.1 0.9,-25.83 1.1,-5.74 1.74,-9.36 -0.48,-9.89 -2.24,-0.54 -7.33,2.03 -11.21,5.42 -3.86,3.39 -6.48,7.63 -7.01,12.99 -0.52,5.34 1.03,11.82 2.44,17.87 1.4,6.05 2.65,11.66 4.88,19.59 2.22,7.91 5.42,18.13 6.86,24.34 1.45,6.2 1.14,8.39 -2.54,5.08 -3.66,-3.32 -10.67,-12.14 -15.96,-18.88 -5.26,-6.73 -8.78,-11.39 -10.57,-17.71 -1.78,-6.3 -1.82,-14.27 -2.71,-19.75 -0.89,-5.47 -2.63,-8.45 -5.04,-7.99 -2.39,0.46 -5.42,4.36 -7.92,8.8 -2.5,4.46 -4.46,9.45 -6.01,16.04 -1.56,6.59 -2.74,14.78 -3.98,19.2 -1.26,4.4 -2.58,5.03 -5.54,0.66 -2.97,-4.37 -7.57,-13.73 -10.65,-20.94 -3.06,-7.23 -4.61,-12.29 -5.9,-17.2 -1.28,-4.92 -2.32,-9.68 -3.62,-13.87 -1.3,-4.17 -2.84,-7.76 -5.16,-11.93 -2.29,-4.17 -5.34,-8.94 -7.53,-12.49 -2.17,-3.55 -3.51,-5.88 -4.31,-5.43 -0.83,0.48 -1.15,3.76 -0.13,8.39 1,4.64 3.32,10.62 5.78,16.79 2.46,6.17 5.05,12.51 6.86,17.97 1.79,5.47 2.81,10.08 3.32,14.8 0.5,4.71 0.5,9.54 -1.18,15.24 -1.67,5.7 -5.03,12.26 -8.11,17.45 -3.08,5.19 -5.89,9.02 -7.98,9.39 -2.09,0.39 -3.47,-2.66 -4.47,-5.61 -1,-2.96 -1.62,-5.84 -2.57,-9.19 -0.95,-3.34 -2.23,-7.18 -3.46,-11.79 -1.22,-4.61 -2.39,-9.99 -4.13,-11.45 -1.76,-1.46 -4.08,1.02 -4.46,4.65 -0.39,3.64 1.18,8.41 1.83,14.6 0.66,6.17 0.4,13.73 0.37,19.99 -0.04,6.27 0.15,11.24 0.11,15.37 -0.04,4.14 -0.3,7.44 -1.67,7.38 -1.38,-0.07 -3.88,-3.49 -6.11,-8.61 -2.22,-5.1 -4.17,-11.89 -7.14,-19.9 -2.95,-7.99 -6.93,-17.2 -9.21,-23.13 -2.25,-5.92 -2.8,-8.58 -3.53,-8.58 -0.73,0 -1.65,2.64 -1.73,7.56 -0.08,4.91 0.69,12.09 1.93,17.71 1.23,5.63 2.94,9.68 4.71,13.89 1.76,4.23 3.54,8.59 4.76,13.03 1.21,4.46 1.83,8.98 1.4,14.32 -0.41,5.03 -1.73,10.78 -3.67,16.2 18.63,25.62 38.5,50.29 59.53,73.9zm-83.19 -107.99c-2.6,-3.91 -5.21,-7.81 -7.74,-11.76 0.9,-1.42 1.92,-2.76 2.84,-3.94 1.61,-2.02 2.93,-3.59 3.58,-3.18 0.65,0.39 0.61,2.75 0.82,8.75 0.1,2.76 0.26,6.29 0.5,10.13z"/>
  <path class="fil26" d="M1068.22 1541.1c0.35,0.75 0.71,1.97 0.28,3.65 -0.43,1.68 -1.66,3.83 -3.4,6.37 -1.75,2.51 -3.99,5.42 -5.87,8.69 -1.88,3.28 -3.39,6.96 -4.77,10.65 -1.38,3.71 -2.64,7.45 -3.53,11.62 -0.87,4.17 -1.36,8.78 -6.96,12.14 -5.59,3.36 -16.28,5.49 -31.42,8.52 -15.13,3.04 -34.71,6.97 -50.99,9.15 -16.26,2.19 -29.22,2.62 -41.6,2.22 -12.39,-0.39 -24.2,-1.62 -38.14,-2.01 -13.92,-0.39 -29.98,0.07 -43.27,-0.8 -13.28,-0.87 -23.81,-3.04 -35.04,-5.2 -11.24,-2.14 -23.2,-4.26 -32.01,-6.1 -8.81,-1.82 -14.45,-3.39 -16.79,-4.8 -2.34,-1.42 -1.35,-2.69 0.07,-4.16 1.42,-1.45 3.3,-3.1 5.78,-5.38 2.48,-2.28 5.57,-5.21 8.84,-9.83 3.26,-4.62 6.69,-10.94 9.29,-16.58 2.61,-5.65 4.38,-10.62 5.97,-15.59 1.59,-4.98 2.98,-9.94 3.92,-14.68 0.92,-4.75 1.39,-9.27 2.25,-11.32 0.86,-2.03 2.09,-1.58 3.14,0.03 1.06,1.62 1.95,4.43 2.32,7.1 0.36,2.66 0.21,5.21 -0.12,8.28 -0.33,3.08 -0.86,6.69 -1.36,10.95 -0.49,4.26 -0.96,9.15 -1.56,13.73 -0.58,4.59 -1.26,8.85 -1.3,10.67 -0.04,1.79 0.56,1.14 1.63,-1.64 1.08,-2.78 2.63,-7.67 4.84,-12.58 2.2,-4.91 5.07,-9.83 7.08,-14.92 2.01,-5.09 3.18,-10.35 3.67,-15.45 0.5,-5.12 0.3,-10.08 0.34,-15.39 0.04,-5.32 0.31,-10.99 0.82,-12.31 0.5,-1.3 1.24,1.77 1.77,4.36 0.52,2.59 0.84,4.69 1.12,5.89 0.28,1.22 0.51,1.53 1.24,0.41 0.74,-1.1 1.97,-3.64 3.34,-5.89 1.36,-2.24 2.87,-4.17 3.67,-3.41 0.79,0.76 0.86,4.21 0.61,8.25 -0.26,4.04 -0.85,8.66 -1.24,13.24 -0.39,4.59 -0.55,9.15 -0.94,14.31 -0.38,5.14 -0.96,10.89 -1.17,15.24 -0.2,4.37 -0.02,7.35 1.83,5.72 1.87,-1.61 5.42,-7.86 8.92,-13.77 3.5,-5.92 6.94,-11.52 10.93,-19.75 3.96,-8.22 8.47,-19.09 10.47,-27.24 2,-8.13 1.5,-13.54 1.16,-17.48 -0.35,-3.94 -0.55,-6.43 1,-6.64 1.54,-0.21 4.8,1.87 7.18,4.43 2.38,2.56 3.86,5.59 3.85,9.24 0,3.65 -1.51,7.91 -2.87,11.89 -1.35,3.99 -2.58,7.69 -4.63,12.87 -2.03,5.2 -4.89,11.88 -6.29,15.96 -1.4,4.08 -1.33,5.59 1.37,3.6 2.69,-1.99 8.03,-7.46 12.06,-11.65 4.01,-4.17 6.7,-7.08 8.33,-11.21 1.64,-4.13 2.2,-9.51 3.19,-13.15 0.97,-3.62 2.35,-5.52 3.94,-5.05 1.57,0.49 3.36,3.32 4.74,6.49 1.38,3.16 2.36,6.68 2.96,11.23 0.61,4.54 0.83,10.16 1.37,13.22 0.55,3.05 1.39,3.57 3.69,0.82 2.31,-2.75 6.06,-8.75 8.61,-13.4 2.58,-4.65 3.96,-7.97 5.16,-11.2 1.21,-3.22 2.23,-6.37 3.39,-9.1 1.16,-2.74 2.45,-5.04 4.29,-7.71 1.84,-2.66 4.22,-5.66 5.93,-7.9 1.72,-2.25 2.78,-3.73 3.29,-3.37 0.53,0.37 0.51,2.61 -0.48,5.67 -1,3.06 -2.97,6.94 -5.05,10.92 -2.09,4 -4.26,8.09 -5.85,11.66 -1.59,3.57 -2.58,6.61 -3.25,9.75 -0.66,3.15 -0.99,6.42 -0.26,10.37 0.75,3.97 2.57,8.62 4.29,12.32 1.72,3.71 3.36,6.49 4.74,6.89 1.38,0.4 2.52,-1.55 3.4,-3.49 0.88,-1.92 1.5,-3.81 2.37,-6.01 0.87,-2.2 1.99,-4.7 3.12,-7.73 1.15,-3.02 2.31,-6.57 3.58,-7.44 1.28,-0.86 2.69,0.97 2.69,3.44 0.01,2.48 -1.37,5.6 -2.23,9.72 -0.86,4.12 -1.22,9.24 -1.62,13.47 -0.4,4.23 -0.86,7.57 -1.12,10.36 -0.25,2.79 -0.3,5.03 0.63,5.09 0.94,0.05 2.84,-2.09 4.7,-5.39 1.85,-3.3 3.63,-7.75 6.18,-12.93 2.54,-5.19 5.85,-11.14 7.78,-14.98 1.94,-3.84 2.49,-5.6 2.98,-5.55 0.49,0.05 0.94,1.9 0.65,5.22 -0.28,3.32 -1.29,8.12 -2.51,11.82 -1.21,3.71 -2.65,6.32 -4.13,9.05 -1.47,2.72 -2.97,5.54 -4.09,8.46 -1.12,2.92 -1.86,5.93 -1.93,9.57 -0.08,3.64 0.5,7.89 1.56,11.9 1.06,4.01 2.59,7.79 3.53,9.48 0.95,1.7 1.3,1.31 2.6,-0.18 1.3,-1.5 3.53,-4.08 5.43,-7.82 1.9,-3.73 3.49,-8.6 4.76,-14.25 1.28,-5.68 2.24,-12.12 2.8,-16.14 0.56,-4.03 0.7,-5.62 1.16,-5.85 0.47,-0.22 1.26,0.92 2.2,2.39 0.94,1.48 2.03,3.29 2.56,5.13 0.53,1.84 0.51,3.69 -0.03,5.82 -0.54,2.13 -1.58,4.53 -1.48,5.5 0.08,0.95 1.3,0.49 2.67,-0.12 1.35,-0.61 2.87,-1.35 5.28,-1.82 2.42,-0.49 5.73,-0.68 6.86,-0.24 1.15,0.43 0.09,1.5 -1.36,2.7 -1.45,1.21 -3.3,2.57 -5.1,4.19 -1.8,1.63 -3.53,3.53 -5.38,6.55 -1.85,3.04 -3.82,7.19 -5.09,11.36 -1.26,4.15 -1.83,8.28 -1.45,9.9 0.4,1.6 1.77,0.68 4.04,0.83 2.28,0.15 5.44,1.38 8.09,2.49 2.62,1.1 4.73,2.1 6.5,1.45 1.77,-0.63 3.19,-2.92 4.3,-6.35 1.11,-3.41 1.9,-7.96 2.92,-13.96 1.03,-6.02 2.32,-13.49 2.58,-20.16 0.26,-6.67 -0.5,-12.55 -0.87,-16.55 -0.36,-3.99 -0.33,-6.12 0.59,-6.19 0.93,-0.07 2.76,1.92 3.73,4.1 0.98,2.18 1.1,4.53 1.17,7.49 0.07,2.96 0.06,6.52 0.15,9.08 0.1,2.58 0.29,4.15 1.44,3.33 1.16,-0.81 3.28,-4.02 4.9,-7.22 1.61,-3.19 2.73,-6.37 4.3,-10.54 1.56,-4.18 3.58,-9.34 5.24,-12.69 1.67,-3.33 3,-4.85 4.73,-6.27 1.74,-1.41 3.9,-2.74 5.63,-3.5 1.71,-0.75 3.01,-0.94 2.89,0.41 -0.11,1.37 -1.65,4.26 -2.77,6.68 -1.12,2.41 -1.84,4.33 -3.39,6.46 -1.56,2.12 -3.97,4.44 -5.33,6.29 -1.37,1.87 -1.72,3.28 -2.45,5.34 -0.73,2.08 -1.86,4.8 -2.99,7.78 -1.15,2.99 -2.3,6.24 -3.09,10.76 -0.78,4.51 -1.18,10.31 -1.72,16.9 -0.54,6.6 -1.19,13.98 -0.89,17.71 0.32,3.7 1.59,3.73 3.38,1.74 1.78,-2 4.09,-5.99 7.1,-10.28 3.02,-4.3 6.74,-8.89 8.88,-13.44 2.16,-4.53 2.73,-9.04 3.39,-13.33 0.68,-4.3 1.45,-8.38 2.57,-9.21 1.12,-0.82 2.57,1.62 3.45,4.04 0.87,2.43 1.16,4.85 0.43,8.09 -0.75,3.23 -2.51,7.27 -3.64,10.82 -1.14,3.56 -1.65,6.63 -0.02,7.12 1.64,0.5 5.42,-1.55 8.33,-4.99 2.9,-3.43 4.92,-8.22 6.1,-12.94 1.17,-4.73 1.48,-9.37 1.24,-14.31 -0.23,-4.95 -0.99,-10.18 -1.5,-15.74 -0.5,-5.56 -0.74,-11.42 -0.71,-16.55 0.04,-5.13 0.32,-9.52 1.05,-10.93 0.72,-1.42 1.9,0.14 2.89,2.42 1,2.29 1.8,5.29 2.71,8.44 0.9,3.15 1.9,6.43 2.35,11.13 0.46,4.7 0.38,10.82 0.08,16.73 -0.27,5.94 -0.74,11.69 -1.67,16.89 -0.91,5.2 -2.28,9.87 -2.62,13.14 -0.35,3.26 0.31,5.13 1.52,4.56 1.19,-0.58 2.9,-3.6 4.64,-6.67 1.76,-3.05 3.54,-6.16 5.01,-8.76 1.45,-2.6 2.6,-4.72 4.12,-6.74 1.53,-2 3.44,-3.94 5.13,-5.47 1.7,-1.54 3.17,-2.68 4.05,-3.11 0.89,-0.42 1.2,-0.12 1.55,0.65l0 -0.01z"/>
  <path class="fil27" d="M701.58 1503.08c0.24,0.44 0.52,1.17 0.31,2.21 -0.19,1.03 -0.87,2.4 -1.84,4.01 -0.95,1.6 -2.21,3.46 -3.23,5.53 -1.03,2.07 -1.82,4.37 -2.52,6.69 -0.69,2.31 -1.33,4.64 -1.7,7.22 -0.38,2.57 -0.52,5.41 -3.79,7.68 -3.29,2.26 -9.74,3.96 -18.85,6.38 -9.13,2.44 -20.92,5.58 -30.77,7.53 -9.85,1.94 -17.73,2.71 -25.31,2.93 -7.58,0.24 -14.82,-0.07 -23.34,0.24 -8.52,0.28 -18.29,1.17 -26.44,1.14 -8.14,-0.01 -14.65,-0.95 -21.59,-1.84 -6.94,-0.88 -14.32,-1.71 -19.76,-2.5 -5.45,-0.79 -8.95,-1.52 -10.43,-2.3 -1.47,-0.77 -0.92,-1.59 -0.1,-2.53 0.81,-0.95 1.89,-2.02 3.31,-3.51 1.43,-1.48 3.2,-3.39 5.02,-6.33 1.82,-2.95 3.67,-6.93 5.04,-10.47 1.38,-3.54 2.28,-6.65 3.05,-9.75 0.78,-3.08 1.44,-6.17 1.83,-9.1 0.39,-2.93 0.51,-5.71 0.95,-6.98 0.45,-1.29 1.21,-1.07 1.91,-0.11 0.72,0.95 1.36,2.63 1.69,4.24 0.33,1.61 0.33,3.17 0.23,5.06 -0.08,1.88 -0.26,4.11 -0.4,6.74 -0.15,2.61 -0.25,5.61 -0.43,8.43 -0.18,2.82 -0.44,5.45 -0.4,6.56 0.04,1.1 0.39,0.67 0.94,-1.07 0.56,-1.73 1.32,-4.77 2.48,-7.85 1.16,-3.09 2.71,-6.2 3.75,-9.38 1.03,-3.18 1.54,-6.43 1.66,-9.56 0.11,-3.15 -0.2,-6.16 -0.38,-9.41 -0.18,-3.25 -0.23,-6.72 0.03,-7.53 0.25,-0.82 0.81,1.02 1.24,2.58 0.42,1.55 0.69,2.82 0.92,3.56 0.2,0.73 0.37,0.91 0.77,0.2 0.4,-0.71 1.05,-2.31 1.8,-3.72 0.76,-1.42 1.6,-2.67 2.11,-2.22 0.51,0.42 0.7,2.54 0.7,5.01 -0.02,2.48 -0.2,5.3 -0.27,8.12 -0.05,2.81 0.02,5.6 -0.02,8.77 -0.03,3.15 -0.17,6.68 -0.13,9.35 0.04,2.67 0.26,4.48 1.33,3.41 1.08,-1.05 3.01,-5.01 4.92,-8.74 1.91,-3.75 3.8,-7.28 5.92,-12.46 2.1,-5.18 4.44,-11.99 5.35,-17.02 0.91,-5.05 0.4,-8.32 0.04,-10.72 -0.36,-2.39 -0.57,-3.89 0.36,-4.07 0.94,-0.2 3,0.95 4.55,2.41 1.55,1.47 2.57,3.27 2.7,5.49 0.14,2.23 -0.61,4.88 -1.29,7.37 -0.68,2.48 -1.28,4.79 -2.34,8.04 -1.05,3.23 -2.54,7.42 -3.23,9.97 -0.69,2.54 -0.61,3.46 0.97,2.15 1.57,-1.32 4.62,-4.86 6.91,-7.57 2.3,-2.71 3.82,-4.58 4.66,-7.16 0.85,-2.59 0.98,-5.9 1.44,-8.15 0.45,-2.25 1.23,-3.46 2.21,-3.22 1,0.22 2.19,1.89 3.16,3.77 0.96,1.88 1.68,3.99 2.22,6.74 0.54,2.75 0.9,6.16 1.34,8.02 0.46,1.84 1,2.11 2.29,0.36 1.3,-1.77 3.35,-5.58 4.74,-8.51 1.39,-2.94 2.11,-5.02 2.72,-7.02 0.63,-2.02 1.12,-3.98 1.73,-5.69 0.6,-1.71 1.3,-3.18 2.32,-4.86 1.03,-1.71 2.35,-3.63 3.32,-5.06 0.97,-1.43 1.55,-2.38 1.88,-2.17 0.33,0.2 0.42,1.57 -0.08,3.47 -0.49,1.9 -1.55,4.35 -2.67,6.87 -1.12,2.5 -2.29,5.09 -3.12,7.33 -0.83,2.24 -1.33,4.12 -1.62,6.07 -0.28,1.95 -0.36,3.95 0.25,6.33 0.59,2.39 1.88,5.16 3.08,7.36 1.19,2.2 2.3,3.83 3.15,4.02 0.86,0.2 1.48,-1.04 1.94,-2.25 0.47,-1.21 0.78,-2.39 1.22,-3.77 0.44,-1.36 1.03,-2.94 1.61,-4.83 0.58,-1.88 1.17,-4.1 1.91,-4.68 0.75,-0.57 1.66,0.5 1.77,2.01 0.1,1.51 -0.62,3.47 -0.99,6.01 -0.38,2.55 -0.39,5.69 -0.47,8.28 -0.1,2.59 -0.25,4.65 -0.3,6.37 -0.05,1.71 0,3.08 0.58,3.08 0.56,-0.01 1.66,-1.4 2.66,-3.47 1,-2.09 1.92,-4.87 3.28,-8.13 1.35,-3.26 3.16,-7.01 4.18,-9.43 1.03,-2.42 1.3,-3.52 1.6,-3.5 0.3,0 0.65,1.12 0.59,3.15 -0.04,2.05 -0.47,5.01 -1.07,7.32 -0.6,2.31 -1.38,3.95 -2.17,5.68 -0.81,1.72 -1.61,3.48 -2.19,5.31 -0.57,1.83 -0.9,3.69 -0.8,5.92 0.08,2.21 0.61,4.8 1.4,7.21 0.8,2.4 1.87,4.64 2.51,5.64 0.65,0.99 0.85,0.74 1.58,-0.21 0.73,-0.97 2,-2.63 3.02,-4.98 1.02,-2.35 1.81,-5.38 2.36,-8.88 0.56,-3.5 0.91,-7.48 1.1,-9.95 0.18,-2.48 0.21,-3.46 0.49,-3.61 0.26,-0.15 0.78,0.51 1.42,1.38 0.64,0.86 1.37,1.92 1.76,3.03 0.4,1.09 0.46,2.23 0.21,3.55 -0.25,1.32 -0.79,2.81 -0.71,3.4 0.1,0.58 0.82,0.27 1.63,-0.16 0.81,-0.42 1.7,-0.94 3.16,-1.32 1.46,-0.38 3.47,-0.63 4.19,-0.41 0.7,0.22 0.11,0.91 -0.74,1.7 -0.84,0.8 -1.92,1.7 -2.96,2.75 -1.02,1.07 -2.02,2.3 -3.02,4.22 -1.01,1.91 -2.06,4.52 -2.67,7.11 -0.63,2.58 -0.82,5.13 -0.51,6.1 0.3,0.97 1.1,0.34 2.48,0.36 1.4,0 3.38,0.62 5.04,1.2 1.64,0.58 2.97,1.11 4.02,0.65 1.05,-0.47 1.84,-1.91 2.38,-4.04 0.55,-2.13 0.86,-4.93 1.26,-8.64 0.4,-3.71 0.9,-8.31 0.8,-12.41 -0.1,-4.08 -0.77,-7.62 -1.16,-10.05 -0.37,-2.42 -0.43,-3.72 0.12,-3.8 0.57,-0.09 1.76,1.06 2.44,2.36 0.68,1.29 0.85,2.71 0.99,4.53 0.15,1.79 0.29,3.98 0.45,5.54 0.15,1.56 0.33,2.52 1,1.96 0.68,-0.54 1.84,-2.57 2.72,-4.57 0.85,-2.02 1.42,-4 2.22,-6.62 0.79,-2.59 1.83,-5.83 2.71,-7.93 0.9,-2.1 1.65,-3.07 2.66,-4.01 1.01,-0.93 2.27,-1.83 3.29,-2.35 1.02,-0.53 1.81,-0.69 1.78,0.15 -0.01,0.83 -0.84,2.65 -1.43,4.18 -0.6,1.5 -0.96,2.7 -1.83,4.06 -0.86,1.35 -2.24,2.86 -3.01,4.05 -0.77,1.19 -0.93,2.06 -1.29,3.35 -0.37,1.28 -0.96,3 -1.54,4.87 -0.58,1.86 -1.16,3.88 -1.46,6.66 -0.31,2.8 -0.34,6.35 -0.41,10.39 -0.08,4.05 -0.2,8.58 0.13,10.84 0.33,2.24 1.11,2.21 2.13,0.93 1.01,-1.28 2.27,-3.81 3.94,-6.55 1.67,-2.72 3.78,-5.67 4.91,-8.53 1.14,-2.86 1.31,-5.62 1.56,-8.27 0.25,-2.64 0.57,-5.17 1.22,-5.71 0.65,-0.55 1.63,0.88 2.26,2.32 0.61,1.46 0.88,2.92 0.56,4.93 -0.33,2 -1.24,4.53 -1.81,6.74 -0.55,2.22 -0.75,4.11 0.26,4.35 1.03,0.25 3.25,-1.16 4.9,-3.36 1.64,-2.2 2.69,-5.2 3.22,-8.13 0.54,-2.92 0.55,-5.77 0.22,-8.79 -0.33,-3 -0.99,-6.16 -1.52,-9.54 -0.51,-3.37 -0.87,-6.94 -1.05,-10.08 -0.18,-3.12 -0.18,-5.81 0.22,-6.7 0.39,-0.89 1.16,0.01 1.85,1.36 0.7,1.36 1.3,3.16 1.98,5.05 0.67,1.88 1.4,3.86 1.85,6.71 0.46,2.85 0.64,6.58 0.7,10.2 0.05,3.64 -0.02,7.17 -0.38,10.38 -0.37,3.2 -1.02,6.11 -1.1,8.11 -0.1,2.01 0.39,3.12 1.09,2.73 0.71,-0.4 1.63,-2.31 2.58,-4.25 0.96,-1.93 1.93,-3.9 2.73,-5.54 0.79,-1.65 1.39,-2.98 2.25,-4.26 0.86,-1.29 1.95,-2.53 2.93,-3.54 0.97,-1 1.83,-1.76 2.35,-2.05 0.53,-0.29 0.74,-0.12 0.97,0.33l0 0.01z"/>
 </g>
</svg>
