<?xml version="1.0" encoding="UTF-8" standalone="no"?>
<!-- Creator: CorelDRAW -->

<svg
        xml:space="preserve"
        width="40"
        height="40"
        version="1.1"
        style="clip-rule:evenodd;fill-rule:evenodd;image-rendering:optimizeQuality;shape-rendering:geometricPrecision;text-rendering:geometricPrecision"
        viewBox="0 0 43.212284 43.212284"
        id="svg41"
        xmlns:xlink="http://www.w3.org/1999/xlink"
        xmlns="http://www.w3.org/2000/svg"
        xmlns:svg="http://www.w3.org/2000/svg">
 <defs
         id="defs31">
  <style
          type="text/css"
          id="style1">
   <![CDATA[
    .fil1 {fill:#0F2224;fill-rule:nonzero}
    .fil20 {fill:url(#id0)}
    .fil19 {fill:url(#id1)}
    .fil24 {fill:url(#id2)}
    .fil27 {fill:url(#id3)}
    .fil21 {fill:url(#id4)}
    .fil28 {fill:url(#id5)}
    .fil26 {fill:url(#id6)}
    .fil29 {fill:url(#id7)}
    .fil23 {fill:url(#id8)}
    .fil30 {fill:url(#id9)}
    .fil25 {fill:url(#id10)}
    .fil22 {fill:url(#id11)}
    .fil15 {fill:url(#id12);fill-rule:nonzero}
    .fil8 {fill:url(#id13);fill-rule:nonzero}
    .fil4 {fill:url(#id14);fill-rule:nonzero}
    .fil5 {fill:url(#id15);fill-rule:nonzero}
    .fil9 {fill:url(#id16);fill-rule:nonzero}
    .fil2 {fill:url(#id17);fill-rule:nonzero}
    .fil10 {fill:url(#id18);fill-rule:nonzero}
    .fil7 {fill:url(#id19);fill-rule:nonzero}
    .fil6 {fill:url(#id20);fill-rule:nonzero}
    .fil0 {fill:url(#id21);fill-rule:nonzero}
    .fil17 {fill:url(#id22);fill-rule:nonzero}
    .fil16 {fill:url(#id23);fill-rule:nonzero}
    .fil3 {fill:url(#id24);fill-rule:nonzero}
    .fil18 {fill:url(#id25);fill-rule:nonzero}
    .fil11 {fill:url(#id26);fill-rule:nonzero}
    .fil14 {fill:url(#id27);fill-rule:nonzero}
    .fil13 {fill:url(#id28);fill-rule:nonzero}
    .fil12 {fill:url(#id29);fill-rule:nonzero}
   ]]>
  </style>
     <radialGradient
             id="id0"
             gradientUnits="userSpaceOnUse"
             gradientTransform="matrix(1.48447,-0.485807,0.865498,2.64413,-1082,-1680)"
             cx="266.88"
             cy="1100.85"
             r="36.330002"
             fx="266.88"
             fy="1100.85">
   <stop
           offset="0"
           style="stop-opacity:0; stop-color:#FDEC10"
           id="stop1"/>
         <stop
                 offset="0.270588"
                 style="stop-opacity:0; stop-color:#F3FFFE"
                 id="stop2"/>
         <stop
                 offset="1"
                 style="stop-opacity:1; stop-color:white"
                 id="stop3"/>
  </radialGradient>
     <radialGradient
             id="id1"
             gradientUnits="userSpaceOnUse"
             gradientTransform="matrix(0.0419524,-0.01352228,0.02639411,0.06702009,-27.229824,-32.987981)"
             xlink:href="#id0"
             cx="248.91"
             cy="877.21002"
             r="38.619999"
             fx="248.91"
             fy="877.21002">
  </radialGradient>
     <radialGradient
             id="id2"
             gradientUnits="userSpaceOnUse"
             gradientTransform="matrix(0.02760358,-0.02114472,0.03715649,0.06193935,-42.098665,-28.176721)"
             xlink:href="#id0"
             cx="562.54999"
             cy="1102.77"
             r="43.700001"
             fx="562.54999"
             fy="1102.77">
  </radialGradient>
     <radialGradient
             id="id3"
             gradientUnits="userSpaceOnUse"
             gradientTransform="matrix(0.03582162,-0.01261093,0.02125845,0.06756084,-14.843388,-17.812037)"
             xlink:href="#id0"
             cx="349.82001"
             cy="529.32001"
             r="42.07"
             fx="349.82001"
             fy="529.32001">
  </radialGradient>
     <radialGradient
             id="id4"
             gradientUnits="userSpaceOnUse"
             gradientTransform="matrix(0.04010032,-0.0293167,0.05137505,0.05531209,-58.554199,17.299926)"
             xlink:href="#id0"
             cx="1357.17"
             cy="756.25"
             r="23.370001"
             fx="1357.17"
             fy="756.25">
  </radialGradient>
     <radialGradient
             id="id5"
             gradientUnits="userSpaceOnUse"
             gradientTransform="matrix(0.03662572,-0.01023312,0.01677553,0.06890928,-21.292524,-39.309158)"
             xlink:href="#id0"
             cx="405.03"
             cy="1003.36"
             r="27.74"
             fx="405.03"
             fy="1003.36">
  </radialGradient>
     <radialGradient
             id="id6"
             gradientUnits="userSpaceOnUse"
             gradientTransform="matrix(0.03639335,-0.01093523,0.01809917,0.06852156,-20.243259,-31.759574)"
             xlink:href="#id0"
             cx="445.07999"
             cy="853.44"
             r="42.040001"
             fx="445.07999"
             fy="853.44">
  </radialGradient>
     <radialGradient
             id="id7"
             gradientUnits="userSpaceOnUse"
             gradientTransform="matrix(0.04499219,-0.01687496,0.03346615,0.06490672,-61.138972,-13.614981)"
             xlink:href="#id0"
             cx="1467.55"
             cy="976.01001"
             r="24.16"
             fx="1467.55"
             fy="976.01001">
  </radialGradient>
     <radialGradient
             id="id8"
             gradientUnits="userSpaceOnUse"
             gradientTransform="matrix(0.03886884,-0.00260829,0.00242284,0.07261318,-8.854904,-44.504295)"
             xlink:href="#id0"
             cx="488.69"
             cy="973.5"
             r="41.009998"
             fx="488.69"
             fy="973.5">
  </radialGradient>
     <radialGradient
             id="id9"
             gradientUnits="userSpaceOnUse"
             gradientTransform="matrix(0.03455329,-0.0139978,0.02349257,0.06673244,-38.950873,-25.873458)"
             xlink:href="#id0"
             cx="1425.65"
             cy="1114.17"
             r="25.84"
             fx="1425.65"
             fy="1114.17">
  </radialGradient>
     <radialGradient
             id="id10"
             gradientUnits="userSpaceOnUse"
             gradientTransform="matrix(0.03600051,-0.01210124,0.02029648,0.06785976,-22.444155,-35.444795)"
             xlink:href="#id0"
             cx="334.66"
             cy="934.26001"
             r="32.669998"
             fx="334.66"
             fy="934.26001">
  </radialGradient>
     <radialGradient
             id="id11"
             gradientUnits="userSpaceOnUse"
             gradientTransform="matrix(0.03455329,-0.0139978,0.02349257,0.06673244,-24.619459,-26.103784)"
             xlink:href="#id0"
             cx="573.56"
             cy="829.40997"
             r="25.84"
             fx="573.56"
             fy="829.40997">
  </radialGradient>
     <linearGradient
             id="id12"
             gradientUnits="userSpaceOnUse"
             x1="409.72"
             y1="1645.84"
             x2="403.76001"
             y2="879.15997">
   <stop
           offset="0"
           style="stop-opacity:1; stop-color:#330E12"
           id="stop4"/>
         <stop
                 offset="0.0784314"
                 style="stop-opacity:1; stop-color:#69222A"
                 id="stop5"/>
         <stop
                 offset="0.188235"
                 style="stop-opacity:1; stop-color:#A33441"
                 id="stop6"/>
         <stop
                 offset="1"
                 style="stop-opacity:1; stop-color:#DC7783"
                 id="stop7"/>
  </linearGradient>
     <linearGradient
             id="id13"
             gradientUnits="userSpaceOnUse"
             xlink:href="#id12"
             x1="1345.5699"
             y1="1586.9301"
             x2="1350.53"
             y2="781.03998"
             gradientTransform="matrix(0.02559181,0,0,0.02559181,-1.3770887e-4,-1.3770887e-4)">
  </linearGradient>
     <linearGradient
             id="id14"
             gradientUnits="userSpaceOnUse"
             x1="856.95001"
             y1="1700.27"
             x2="835.34003"
             y2="544.81">
   <stop
           offset="0"
           style="stop-opacity:1; stop-color:#18383C"
           id="stop8"/>
         <stop
                 offset="0.14902"
                 style="stop-opacity:1; stop-color:#1C4247"
                 id="stop9"/>
         <stop
                 offset="0.4"
                 style="stop-opacity:1; stop-color:#5AB590"
                 id="stop10"/>
         <stop
                 offset="1"
                 style="stop-opacity:1; stop-color:#3FB4D8"
                 id="stop11"/>
  </linearGradient>
     <linearGradient
             id="id15"
             gradientUnits="userSpaceOnUse"
             xlink:href="#id14"
             x1="856.95001"
             y1="1700.27"
             x2="835.34003"
             y2="544.81"
             gradientTransform="matrix(0.02559181,0,0,0.02559181,-1.3770887e-4,-1.3770887e-4)">
  </linearGradient>
     <linearGradient
             id="id16"
             gradientUnits="userSpaceOnUse"
             x1="840.33002"
             y1="1659.22"
             x2="836.53998"
             y2="629.62">
   <stop
           offset="0"
           style="stop-opacity:1; stop-color:#0A6359"
           id="stop12"/>
         <stop
                 offset="0.141176"
                 style="stop-opacity:1; stop-color:#0AC291"
                 id="stop13"/>
         <stop
                 offset="0.329412"
                 style="stop-opacity:1; stop-color:#75D6A4"
                 id="stop14"/>
         <stop
                 offset="1"
                 style="stop-opacity:1; stop-color:#6EC7CC"
                 id="stop15"/>
  </linearGradient>
     <linearGradient
             id="id17"
             gradientUnits="userSpaceOnUse"
             x1="870.25"
             y1="1585.61"
             x2="864.57001"
             y2="883.17999"
             gradientTransform="matrix(0.02559181,0,0,0.02559181,-1.3770887e-4,-1.3770887e-4)">
   <stop
           offset="0"
           style="stop-opacity:1; stop-color:#3B2A14"
           id="stop16"/>
         <stop
                 offset="0.0784314"
                 style="stop-opacity:1; stop-color:#70522B"
                 id="stop17"/>
         <stop
                 offset="0.188235"
                 style="stop-opacity:1; stop-color:#AB7E42"
                 id="stop18"/>
         <stop
                 offset="1"
                 style="stop-opacity:1; stop-color:#EAC089"
                 id="stop19"/>
  </linearGradient>
     <linearGradient
             id="id18"
             gradientUnits="userSpaceOnUse"
             xlink:href="#id16"
             x1="818.71997"
             y1="1713.25"
             x2="814.92999"
             y2="683.64001"
             gradientTransform="matrix(0.02559181,0,0,0.02559181,-1.3770887e-4,-1.3770887e-4)">
  </linearGradient>
     <linearGradient
             id="id19"
             gradientUnits="userSpaceOnUse"
             xlink:href="#id14"
             x1="1727.59"
             y1="1394.47"
             x2="1537.52"
             y2="423.92999"
             gradientTransform="matrix(0.02559181,0,0,0.02559181,-1.3770887e-4,-1.3770887e-4)">
  </linearGradient>
     <linearGradient
             id="id20"
             gradientUnits="userSpaceOnUse"
             xlink:href="#id14"
             x1="856.95001"
             y1="1700.27"
             x2="835.34003"
             y2="544.81"
             gradientTransform="matrix(0.02559181,0,0,0.02559181,-1.3770887e-4,-1.3770887e-4)">
  </linearGradient>
     <linearGradient
             id="id21"
             gradientUnits="userSpaceOnUse"
             x1="374.81"
             y1="2100.9099"
             x2="1289.01"
             y2="-646.67999"
             gradientTransform="matrix(0.02559181,0,0,0.02559181,-1.3770887e-4,-1.3770887e-4)">
   <stop
           offset="0"
           style="stop-opacity:1; stop-color:#16373B"
           id="stop20"/>
         <stop
                 offset="0.431373"
                 style="stop-opacity:1; stop-color:#1C4247"
                 id="stop21"/>
         <stop
                 offset="0.560784"
                 style="stop-opacity:1; stop-color:#234E4F"
                 id="stop22"/>
         <stop
                 offset="0.870588"
                 style="stop-opacity:1; stop-color:#52B58D"
                 id="stop23"/>
         <stop
                 offset="1"
                 style="stop-opacity:1; stop-color:#5AB590"
                 id="stop24"/>
  </linearGradient>
     <linearGradient
             id="id22"
             gradientUnits="userSpaceOnUse"
             xlink:href="#id16"
             x1="850.60999"
             y1="1475.39"
             x2="383.23999"
             y2="836.41998"
             gradientTransform="matrix(0.02559181,0,0,0.02559181,-1.3770887e-4,-1.3770887e-4)">
  </linearGradient>
     <linearGradient
             id="id23"
             gradientUnits="userSpaceOnUse"
             xlink:href="#id16"
             x1="915.21002"
             y1="1421.0699"
             x2="398.82001"
             y2="821.02002"
             gradientTransform="matrix(0.02559181,0,0,0.02559181,-1.3770887e-4,-1.3770887e-4)">
  </linearGradient>
     <linearGradient
             id="id24"
             gradientUnits="userSpaceOnUse"
             xlink:href="#id14"
             x1="856.95001"
             y1="1700.27"
             x2="835.34003"
             y2="544.81"
             gradientTransform="matrix(0.02559181,0,0,0.02559181,-1.3770887e-4,-1.3770887e-4)">
  </linearGradient>
     <linearGradient
             id="id25"
             gradientUnits="userSpaceOnUse"
             xlink:href="#id16"
             x1="862.46002"
             y1="1704.51"
             x2="858.66998"
             y2="674.90997"
             gradientTransform="matrix(0.02559181,0,0,0.02559181,-1.3770887e-4,-1.3770887e-4)">
  </linearGradient>
     <linearGradient
             id="id26"
             gradientUnits="userSpaceOnUse"
             xlink:href="#id16"
             x1="1196.37"
             y1="1613.98"
             x2="1293.88"
             y2="1022.94"
             gradientTransform="matrix(0.02559181,0,0,0.02559181,-1.3770887e-4,-1.3770887e-4)">
  </linearGradient>
     <linearGradient
             id="id27"
             gradientUnits="userSpaceOnUse"
             x1="714.04999"
             y1="1215.16"
             x2="912.27002"
             y2="60.810001">
   <stop
           offset="0"
           style="stop-opacity:1; stop-color:#02BAB1"
           id="stop25"/>
         <stop
                 offset="0.180392"
                 style="stop-opacity:1; stop-color:#04BBB3"
                 id="stop26"/>
         <stop
                 offset="0.270588"
                 style="stop-opacity:1; stop-color:#07BCB6"
                 id="stop27"/>
         <stop
                 offset="0.478431"
                 style="stop-opacity:1; stop-color:#3ED493"
                 id="stop28"/>
         <stop
                 offset="0.588235"
                 style="stop-opacity:1; stop-color:#0CE68F"
                 id="stop29"/>
         <stop
                 offset="0.721569"
                 style="stop-opacity:1; stop-color:#2DE098"
                 id="stop30"/>
         <stop
                 offset="1"
                 style="stop-opacity:1; stop-color:#00FFAD"
                 id="stop31"/>
  </linearGradient>
     <linearGradient
             id="id28"
             gradientUnits="userSpaceOnUse"
             xlink:href="#id27"
             x1="719.09003"
             y1="1182.74"
             x2="919.75"
             y2="28.4"
             gradientTransform="matrix(0.02559181,0,0,0.02559181,-1.3770887e-4,-1.3770887e-4)">
  </linearGradient>
     <linearGradient
             id="id29"
             gradientUnits="userSpaceOnUse"
             xlink:href="#id27"
             x1="718.28003"
             y1="1171.9301"
             x2="914.26001"
             y2="17.59"
             gradientTransform="matrix(0.02559181,0,0,0.02559181,-1.3770887e-4,-1.3770887e-4)">
  </linearGradient>
     <radialGradient
             xlink:href="#id0"
             id="radialGradient41"
             gradientUnits="userSpaceOnUse"
             gradientTransform="matrix(0.03799027,-0.01243268,0.02214966,0.06766807,-27.690476,-42.994379)"
             cx="266.88"
             cy="1100.85"
             fx="266.88"
             fy="1100.85"
             r="36.330002"/>
     <linearGradient
             xlink:href="#id12"
             id="linearGradient41"
             gradientUnits="userSpaceOnUse"
             x1="409.72"
             y1="1645.84"
             x2="403.76001"
             y2="879.15997"
             gradientTransform="matrix(0.02559181,0,0,0.02559181,-1.3770887e-4,-1.3770887e-4)"/>
     <linearGradient
             xlink:href="#id27"
             id="linearGradient42"
             gradientUnits="userSpaceOnUse"
             x1="714.04999"
             y1="1215.16"
             x2="912.27002"
             y2="60.810001"
             gradientTransform="matrix(0.02559181,0,0,0.02559181,-1.3770887e-4,-1.3770887e-4)"/>
     <linearGradient
             xlink:href="#id16"
             id="linearGradient43"
             gradientUnits="userSpaceOnUse"
             x1="840.33002"
             y1="1659.22"
             x2="836.53998"
             y2="629.62"
             gradientTransform="matrix(0.02559181,0,0,0.02559181,-1.3770887e-4,-1.3770887e-4)"/>
     <linearGradient
             xlink:href="#id14"
             id="linearGradient44"
             gradientUnits="userSpaceOnUse"
             x1="856.95001"
             y1="1700.27"
             x2="835.34003"
             y2="544.81"
             gradientTransform="matrix(0.02559181,0,0,0.02559181,-1.3770887e-4,-1.3770887e-4)"/></defs>
    <g id="Layer_x0020_1">
  <metadata
          id="CorelCorpID_0Corel-Layer"/>


        <g
                id="g44"
                transform="translate(1.4118812e-4,1.4118812e-4)"><path
     id="path517"
     class="fil0"
     d="M 33.043747,39.933061 C 43.165306,33.61598 46.249887,20.29007 39.933061,10.168255 33.616235,0.0466953 20.29007,-3.0378851 10.168255,3.2789404 0.0466953,9.595766 -3.0378851,22.921931 3.2789404,33.043747 9.595766,43.165306 22.921931,46.249887 33.043747,39.933061 Z"
     style="fill:url(#id21);stroke-width:0.0255917" />
            <path
                    id="path517_395"
                    class="fil1"
                    d="m 33.49621,39.642594 0.02892,-0.01919 c 0.145617,-0.09622 0.289699,-0.19373 0.432245,-0.293026 l 0.03071,-0.0215 c 0.142803,-0.09955 0.284069,-0.20064 0.423801,-0.303263 l 0.02354,-0.0174 c 0.136149,-0.100319 0.270761,-0.201919 0.403839,-0.304798 l 0.03097,-0.0238 c 0.13231,-0.102623 0.262828,-0.206526 0.392066,-0.311709 l 0.04632,-0.03813 c 0.126167,-0.102879 0.250799,-0.207294 0.373896,-0.312732 l 0.04965,-0.04274 c 0.117978,-0.101856 0.234933,-0.204735 0.350352,-0.308638 l 0.04939,-0.04453 c 0.113628,-0.103135 0.226232,-0.20755 0.3373,-0.312732 l 0.06321,-0.05963 c 0.109277,-0.104415 0.21753,-0.209853 0.324504,-0.316315 0.02457,-0.02431 0.04888,-0.04862 0.07319,-0.07319 0.0975,-0.09802 0.194242,-0.196801 0.2897,-0.29661 0.03122,-0.0325 0.06219,-0.06552 0.09341,-0.09827 0.08829,-0.09341 0.175815,-0.187588 0.262316,-0.282278 0.03224,-0.03557 0.06449,-0.07089 0.09648,-0.106462 0.08701,-0.09648 0.172745,-0.193985 0.257965,-0.292002 0.03276,-0.03762 0.06526,-0.07524 0.09751,-0.113116 0.07882,-0.09213 0.156366,-0.184773 0.233397,-0.277671 0.04095,-0.04965 0.08164,-0.09904 0.121817,-0.148944 0.06731,-0.08266 0.13359,-0.165835 0.199361,-0.24952 0.04734,-0.05989 0.09418,-0.120282 0.140754,-0.180679 0.06193,-0.08036 0.123097,-0.160972 0.18375,-0.241842 0.04632,-0.06219 0.09239,-0.124376 0.137939,-0.187076 0.05118,-0.06961 0.1016,-0.139732 0.15176,-0.210109 0.05067,-0.07115 0.100832,-0.14229 0.15048,-0.213692 0.04862,-0.07012 0.09674,-0.140499 0.144337,-0.210876 0.05605,-0.08292 0.111581,-0.165835 0.166603,-0.24952 0.04274,-0.06526 0.08548,-0.130774 0.127447,-0.196545 0.05809,-0.09034 0.115419,-0.18119 0.171977,-0.272553 0.02508,-0.04044 0.0499,-0.08087 0.07473,-0.121561 0.07166,-0.117466 0.142291,-0.235701 0.211901,-0.354447 0.01996,-0.03404 0.03992,-0.06833 0.05988,-0.102623 0.05835,-0.100831 0.115931,-0.202175 0.172489,-0.30403 0.03122,-0.0563 0.06219,-0.112604 0.0929,-0.168906 0.05912,-0.108254 0.116955,-0.217019 0.174025,-0.32604 l 0.0261,-0.05042 c 0.0778,-0.149712 0.153551,-0.299936 0.227511,-0.450927 l 0.02457,-0.04965 c 0.08061,-0.165579 0.159181,-0.332438 0.235444,-0.499808 -1.82879,-0.754703 -5.598207,-0.1881 -7.533972,0.71222 -3.251439,1.512475 -5.945488,0.324504 -10.202941,0.85323 -3.749967,0.465515 -3.12476,1.299552 -7.184132,1.776328 -1.728982,0.203199 -6.4808689,-1.161868 -7.9012142,-1.547281 -3.2278945,-0.876008 -3.7678816,-0.738324 -5.9401141,-0.69968 0.06142,0.115931 0.1236084,0.231606 0.1870761,0.347025 0.020729,0.03762 0.041715,0.07498 0.0627,0.112604 0.076264,0.136916 0.1543186,0.273064 0.2339091,0.408957 l 0.022265,0.03762 c 0.090851,0.154063 0.1837491,0.307102 0.2786947,0.459629 6.3168256,10.121559 19.6429904,13.20614 29.7648064,6.889314 0.152527,-0.0952 0.303263,-0.192194 0.452463,-0.290467 z"
                    style="stroke-width:0.0255917"/>
            <path
                    id="path517_396"
                    class="fil2"
                    d="m 23.128457,39.137412 c 0.04299,-0.615483 0.122329,-0.954831 0.295842,-1.249904 0.190147,-0.322713 0.392578,-0.574792 0.61753,-0.864491 0.614971,-0.791555 1.642738,-1.43007 2.146641,-2.267946 0.216506,-0.360077 0.30531,-0.589379 0.381573,-1.100448 0.01484,-0.09904 0.01612,-0.209853 0.02713,-0.345745 0.01459,-0.176584 -0.06398,-0.744466 -0.314524,-0.744466 -0.774152,0 -0.53666,1.154702 -0.69712,1.61817 -0.266155,0.767498 -0.93922,0.356494 -0.93922,-0.19808 0,-0.513372 0.276904,-0.848881 0.542291,-1.186437 l 0.686884,-0.949712 c 0.359309,-0.552015 0.715803,-1.647856 0.715803,-2.556621 0,-0.309149 0.05221,-1.183109 -0.406142,-1.056686 -0.326296,0.09008 -0.394626,0.333462 -0.43327,0.64952 -0.04018,0.330902 -0.05784,0.631862 -0.05553,1.025208 0.0018,0.309405 -0.05016,0.740371 -0.339859,0.740371 -0.312988,0 -0.243378,-1.220729 -0.278439,-1.728215 -0.04248,-0.61625 -0.771337,-0.428918 -0.771337,0.246449 v 1.080487 c 0,0.697376 0.691747,1.14728 0.113628,2.305565 -0.472681,0.947153 -1.070762,0.504415 -1.070762,0.102624 0,-0.358286 0.06449,-0.596545 0.215995,-0.895458 0.07626,-0.15048 0.247217,-0.488547 0.247217,-0.679206 0,-0.329111 -0.422776,-0.523609 -0.87524,0.421497 -0.320153,0.66897 -0.498784,1.401919 -0.100575,2.06705 0.13103,0.21881 0.291746,0.350608 0.474472,0.513372 0.402815,0.358797 0.717338,0.711196 0.717338,1.320537 0,0.391298 -0.388484,1.00371 -0.789507,0.387972 -0.350864,-0.538452 -0.218554,-0.478311 -0.777735,-1.043634 -0.161996,-0.163532 -0.440179,-0.47524 -0.549968,-0.654127 -0.705822,-1.150352 0.102879,-2.122328 0.584261,-3.125527 0.352911,-0.735253 0.593474,-1.467178 0.780038,-2.276391 0.03404,-0.146897 0.137684,-0.628279 0.198337,-1.110429 0.06372,-0.509021 0.07933,-1.019066 -0.08624,-1.139091 -0.09008,-0.06526 -0.196545,-0.07908 -0.287396,-0.05707 -0.497249,0.120538 -0.379782,1.311836 -0.528982,1.787588 -0.236981,0.757261 -0.767755,0.409469 -0.765707,-0.518746 0.0013,-0.574024 0.0842,-1.168522 -0.0064,-1.753039 -0.07166,-0.463212 -0.652591,-0.2508 -0.766987,0.207806 -0.09162,0.367242 -0.148432,1.488931 -0.100575,1.832629 0.15355,1.100448 0.755214,1.511452 0.623416,2.76545 -0.01101,0.105951 -0.06859,0.285093 -0.110557,0.383622 -0.07626,0.179654 -0.246961,0.515419 -0.472424,0.515419 -0.714268,0 -0.03353,-2.222905 -0.740883,-2.222905 -0.276648,0 -0.494178,0.295586 -0.494178,0.555598 0,0.659757 0.0174,1.416763 0.178631,2.04453 0.0366,0.141778 0.07012,0.215483 0.110812,0.352399 0.09904,0.333973 0.218298,0.790787 0.06014,1.132693 -0.300192,0.648497 -1.244785,-0.101855 -1.244785,-0.812539 0,-0.504415 0.416378,-2.439156 -0.09264,-2.439156 -0.278694,0 -0.429942,0.249265 -0.488803,0.468331 -0.147409,0.550479 -0.311964,2.11721 -0.178375,2.576327 0.198848,0.684836 0.936916,1.105822 1.579782,1.291362 0.719898,0.207806 1.42572,0.476776 2.049904,0.852207 1.217146,0.73167 0.885988,2.590147 -0.113116,1.409853 -0.127959,-0.151248 -0.293026,-0.398209 -0.380038,-0.577095 -0.06884,-0.141011 -0.172745,-0.587332 -0.400768,-0.587332 -0.322713,0 -0.40128,0.30403 -0.40128,0.555854 0,0.411516 0.379015,0.885732 0.669226,1.121177 0.738324,0.598848 0.989891,1.101727 1.017019,1.838259 0.337044,0.20627 0.678438,-0.215483 1.025463,-0.02943 z"
                    style="fill:url(#id17);stroke-width:0.0255917"/>
            <path
                    id="path517_397"
                    class="fil3"
                    d="m 25.00664,30.583095 -0.0031,0.01331 c 0,0 0.03097,0.04069 0.03992,0.05195 -0.01203,-0.02099 -0.02534,-0.04632 -0.03685,-0.06526 z m -0.455278,12.429172 c 0.130262,-0.01791 0.260268,-0.03711 0.390275,-0.05733 0.04862,-0.0074 0.09699,-0.01535 0.145617,-0.02329 0.113372,-0.01843 0.226744,-0.03788 0.340115,-0.05835 0.07319,-0.01305 0.146129,-0.02662 0.219322,-0.04069 0.08855,-0.01689 0.177095,-0.03429 0.265643,-0.05221 0.09418,-0.01919 0.187844,-0.0389 0.281766,-0.05937 l 7.68e-4,-2.56e-4 c 0.264363,-1.040051 0.54664,-1.904286 0.748048,-2.551503 0.531286,-1.708765 0.561484,-2.323224 0.626232,-2.892897 0.332437,-2.923097 -2.310685,-6.354446 -2.525144,-6.627766 l -5.12e-4,-2.56e-4 c 0.494946,0.868586 1.610748,3.540882 1.543186,5.262955 -0.05579,1.422904 -0.291235,2.322712 -1.176711,4.506717 -0.26769,0.660268 -0.654895,1.920153 -0.859373,2.594241 z"
                    style="fill:url(#id24);stroke-width:0.0255917"/>
            <path
                    id="path517_398"
                    class="fil4"
                    d="m 9.9028677,39.769018 c 0.094946,0.06116 0.1904033,0.121305 0.2861163,0.180934 0.05528,0.03429 0.110557,0.06833 0.166091,0.102111 0.08829,0.054 0.177095,0.106974 0.266155,0.159437 0.06526,0.03864 0.13103,0.07677 0.196801,0.114651 0.08317,0.04786 0.166602,0.0952 0.250288,0.141779 l 0.0015,10e-4 c -0.101599,-0.726295 -0.09162,-1.42444 0.01945,-2.123096 0.08931,-0.562508 0.191427,-1.187971 0.342162,-1.756877 0.263084,-0.990915 0.568394,-2.08087 0.777223,-2.977095 0.235445,-1.008829 0.286629,-1.982342 0.331158,-2.846321 0.04734,-0.91286 -0.130262,-1.810876 -0.258733,-2.363659 -0.146897,-0.632118 -0.47524,-1.074856 -0.502623,-1.175688 -0.0038,-0.01382 -0.0064,-0.02073 -0.0079,-0.02098 l 5.12e-4,-5.12e-4 c -0.02278,-0.0041 0.195265,1.464619 0.175559,2.259501 -0.0476,1.91657 -0.54792,2.835828 -0.964299,4.556877 -0.175048,0.723992 -1.189763,3.119385 -1.1019831,5.406013 0.00435,0.114907 0.012028,0.228791 0.022521,0.341907 z"
                    style="fill:url(#linearGradient44);stroke-width:0.0255917"/>
            <path
                    id="path517_399"
                    class="fil5"
                    d="m 26.561342,42.639139 v 0 l 0.0069,-0.0015 c 0.157645,-0.03736 0.314779,-0.07677 0.471913,-0.117466 l 0.09034,-0.02406 c 0.11977,-0.03148 0.239027,-0.06475 0.358285,-0.09853 0.07242,-0.02073 0.144594,-0.04146 0.217019,-0.06296 0.02457,-0.245169 0.06219,-0.488547 0.112092,-0.731414 0.114651,-0.557645 0.244658,-1.178247 0.421241,-1.739731 0.307358,-0.977863 0.661292,-2.052974 0.910301,-2.938963 0.280742,-0.997312 0.375687,-1.967242 0.459117,-2.828406 0.08829,-0.909789 -0.04863,-1.814971 -0.152016,-2.372872 -0.118234,-0.63826 -0.426359,-1.095074 -0.449136,-1.197185 -0.0031,-0.01408 -0.0054,-0.02098 -0.0069,-0.02124 l 5.12e-4,-7.68e-4 c -0.02252,-0.0051 0.128983,1.472041 0.07345,2.265387 -0.133846,1.912219 -0.675112,2.808188 -1.168522,4.508764 -0.207294,0.715291 -1.329239,3.062571 -1.344594,5.350735 z"
                    style="fill:url(#id15);stroke-width:0.0255917"/>
            <path
                    id="path517_400"
                    class="fil6"
                    d="m 13.585273,41.665114 c 0.111836,0.04453 0.224184,0.08829 0.336788,0.13103 0.06244,0.0238 0.125144,0.04734 0.187588,0.07038 0.08599,0.03173 0.171977,0.06296 0.258221,0.09367 0.08752,0.03122 0.17556,0.06168 0.263596,0.09162 l 0.002,7.67e-4 c 0.03941,-0.19808 0.06987,-0.400767 0.09034,-0.606781 0.223928,-2.277415 -0.646193,-4.72911 -0.777735,-5.46206 -0.312988,-1.742802 -0.757517,-2.690466 -0.690467,-4.606269 0.02764,-0.794625 0.33295,-2.247984 0.309917,-2.245169 l 5.12e-4,5.12e-4 c -0.0015,2.56e-4 -0.0046,0.0069 -0.0092,0.02073 -0.03327,0.09878 -0.38746,0.521049 -0.571977,1.143442 -0.160973,0.544082 -0.391811,1.429814 -0.399232,2.343954 -0.0072,0.865259 -0.01408,1.839795 0.160716,2.860908 0.155087,0.907229 0.394882,2.013307 0.598081,3.018041 0.116698,0.577096 0.18119,1.207678 0.23698,1.77428 0.04504,0.45707 0.04734,0.911581 0.0038,1.370953 z"
                    style="fill:url(#id20);stroke-width:0.0255917"/>
            <path
                    id="path517_401"
                    class="fil7"
                    d="m 39.309389,25.424042 0.0051,0.01049 c 0,0 -0.01843,0.03967 -0.02406,0.05067 0.0064,-0.01971 0.01305,-0.04325 0.01894,-0.06116 z m 0.351119,8.052206 c 0.04837,-0.0737 0.09674,-0.147664 0.144082,-0.221881 0.03276,-0.05118 0.06552,-0.102623 0.09776,-0.154062 0.07012,-0.111837 0.139475,-0.224185 0.207549,-0.337044 -0.652847,-1.035189 -0.924888,-1.671657 -1.162379,-2.597057 -0.366731,-1.428535 0.08548,-3.865131 0.34293,-4.680997 l -2.56e-4,5.12e-4 c -0.130262,0.267178 -1.723352,3.613819 -0.918746,5.999743 0.156878,0.464747 0.293026,0.973256 1.045169,2.307101 l 0.01433,0.02559 0.01126,-0.01638 0.011,-0.01612 c 0.06987,-0.102623 0.138963,-0.205758 0.207293,-0.309405 z"
                    style="fill:url(#id19);stroke-width:0.0255917"/>
            <path
                    id="path517_402"
                    class="fil8"
                    d="m 34.277016,39.102095 c -0.117722,-0.906206 -0.4,-2.691746 -0.589124,-3.012667 -0.783877,-1.330263 -1.84696,-1.50787 -2.602686,-2.764683 -0.227255,-0.378247 -0.320666,-0.619066 -0.400768,-1.155726 -0.01561,-0.104159 -0.01689,-0.220346 -0.02841,-0.363404 -0.0151,-0.185285 0.06731,-0.78183 0.33039,-0.78183 0.813308,0 0.563532,1.213052 0.732438,1.699808 0.279462,0.806142 0.986308,0.374408 0.986308,-0.208317 0,-0.539219 -0.290723,-0.891363 -0.569673,-1.246065 l -0.721434,-0.997569 c -0.377479,-0.57991 -0.751887,-1.177991 -0.751887,-2.132309 0,-0.32476 -0.05477,-1.242738 0.426616,-1.109917 0.34293,0.09443 0.414587,0.350096 0.455022,0.682022 0.04248,0.347537 0.06091,0.663851 0.05835,1.076903 -0.0018,0.325016 0.05272,0.501344 0.357262,0.501344 0.328599,0 0.255662,-1.835445 0.292258,-2.368522 0.04479,-0.647217 0.810237,-0.450416 0.810237,0.258733 v 1.134997 c -0.134613,1.887907 0.746513,2.356493 0.551247,4.516954 -0.156621,1.731541 0.653359,1.25451 1.193346,0.682789 0.20627,-0.218298 0.627,-0.648241 0.771337,-0.883173 0.741395,-1.208189 -0.107997,-2.229303 -0.613947,-3.282917 -0.370569,-0.772361 -0.623416,-1.541139 -0.819194,-2.391043 -0.03557,-0.154318 -0.144849,-0.383365 -0.208317,-0.890083 -0.06705,-0.534357 0.193218,-1.070249 0.367242,-1.196417 0.09469,-0.06833 0.20627,-0.08292 0.301728,-0.05988 0.522584,0.126423 0.122329,1.101215 0.27895,1.601279 0.249265,0.795137 0.806654,0.153295 0.804351,-0.821497 -0.0013,-0.603199 -0.08829,-1.227383 0.0069,-1.841587 0.07524,-0.486244 0.685604,-0.263339 0.80563,0.218555 0.09623,0.385668 0.155854,1.563659 0.105438,1.924759 -0.161228,1.155726 -0.79309,1.864107 -0.654894,3.181574 0.01177,0.111068 0.07217,0.299168 0.116186,0.402815 0.0801,0.188867 0.259501,1.094305 0.496482,1.094305 0.570441,0 0.311708,-2.058349 1.054638,-2.058349 0.290723,0 0.519002,0.310685 0.519002,0.583749 0,0.693027 -0.294818,0.658478 -0.464236,1.317723 -0.03813,0.148944 -0.07345,0.226743 -0.116186,0.370313 l -0.462189,1.3492 c -0.02585,0.523097 -0.445553,1.153935 -1.307997,1.8746 -1.278566,0.768778 -0.65387,2.997312 0.395394,1.757389 0.134357,-0.158669 0.307613,-0.41817 0.399232,-0.606014 0.07242,-0.148176 0.181446,-0.616762 0.420985,-0.616762 0.338836,0 0.421497,0.319129 0.421497,0.583749 0,0.432245 -0.398208,0.930262 -0.703263,1.177735 -0.682789,0.553806 -1.106845,1.167242 -1.266026,1.882533 -0.379527,0.316315 -0.772361,0.621625 -1.178247,0.914907 z"
                    style="fill:url(#id13);stroke-width:0.0255917"/>
            <path
                    id="path517_403"
                    class="fil9"
                    d="m 19.106449,27.360574 -0.0031,0.01331 c 0,0 0.03071,0.04044 0.03967,0.05195 -0.01203,-0.02098 -0.02534,-0.04632 -0.0366,-0.06526 z m -1.034421,15.556492 c 0.548433,0.09111 1.100192,0.16174 1.654766,0.21062 -0.01919,-0.286372 -0.01536,-0.569929 0.02047,-0.835828 0.311708,-2.323736 0.934101,-4.183493 1.295201,-5.345105 0.531286,-1.708765 0.56174,-2.32348 0.626488,-2.892898 0.332437,-2.923352 -2.310685,-6.354445 -2.5254,-6.627766 l -5.12e-4,-2.56e-4 c 0.494946,0.868586 1.611004,3.540627 1.543442,5.262955 -0.05579,1.422905 -0.291235,2.322713 -1.176711,4.506717 -0.26897,0.662828 -0.657965,1.930134 -0.861932,2.602431 -0.04811,0.157902 -0.589891,1.469226 -0.575816,3.11913 z"
                    style="fill:url(#linearGradient43);stroke-width:0.0255917"/>
            <path
                    id="path517_404"
                    class="fil10"
                    d="m 30.161597,29.084694 -0.0033,0.01331 c 0,0 0.03097,0.04069 0.03992,0.05195 -0.01203,-0.02098 -0.02534,-0.04632 -0.0366,-0.06526 z m -0.506205,12.572231 c 0.606014,-0.24389 1.204862,-0.51849 1.795521,-0.821753 0.233397,-0.868586 0.470889,-1.598976 0.646705,-2.164299 0.531286,-1.708765 0.561484,-2.323224 0.626231,-2.892898 0.332438,-2.923096 -2.310684,-6.354445 -2.525143,-6.627766 l -5.12e-4,-2.56e-4 c 0.494945,0.868586 1.611004,3.540883 1.543442,5.262955 -0.05605,1.422905 -0.291235,2.322713 -1.176968,4.506717 -0.268714,0.663084 -0.657965,1.93039 -0.861932,2.602431 -0.0067,0.02252 -0.02354,0.06833 -0.04734,0.134869 z"
                    style="fill:url(#id18);stroke-width:0.0255917"/>
            <path
                    id="path517_405"
                    class="fil11"
                    d="m 32.676248,40.155966 c 0.368522,-1.069738 0.805375,-1.744338 1.143954,-2.289443 0.184517,-0.297377 0.585797,-0.973769 0.825848,-1.774792 0.512092,-1.708253 -0.126424,-2.933845 -0.126424,-2.933845 l -2.56e-4,-2.56e-4 -2.56e-4,7.68e-4 c 0.0051,0.433269 0.0906,1.723608 -0.332949,2.659501 -0.411772,0.910556 -0.627255,1.081765 -1.248368,1.995904 -0.233909,0.34421 -0.525144,0.80691 -0.707102,1.172617 -0.04427,0.08906 -0.467562,0.720153 -0.697889,1.807293 0.385157,-0.199872 0.766219,-0.412539 1.143442,-0.637747 z"
                    style="fill:url(#id26);stroke-width:0.0255917"/>
            <path
                    id="path517_406"
                    class="fil12"
                    d="m 4.276509,10.566719 c 1.8950733,-3.9140107 5.78989,-5.9032618 10.466793,-5.9831083 8.616761,-0.1468969 12.449646,6.3657063 22.737296,4.8690971 2.046065,-0.2976327 1.880486,0.7398592 -1.409852,1.8477282 -2.796673,0.941523 -6.651311,0.599872 -9.454637,-0.11721 C 21.738566,10.127308 13.332682,4.9227022 5.7787481,10.787832 4.5749095,11.722701 2.705684,13.811504 4.276509,10.566719 Z"
                    style="fill:url(#id29);stroke-width:0.0255917"/>
            <path
                    id="path517_407"
                    class="fil13"
                    d="m 40.549568,11.222637 c -1.665259,1.157773 -6.005118,2.318618 -6.825335,2.397185 -8.627254,0.825591 -14.883171,-4.6008953 -24.0793307,-2.590915 -1.9175941,0.419194 -2.5328211,1.3492 -1.0300702,1.15547 8.4591159,-0.861932 14.6945589,4.95355 23.1838729,5.627383 1.514012,0.153039 3.677543,0.02226 5.41625,-0.431734 1.725144,-0.450416 3.963659,-1.341779 5.14293,-1.797313 -0.43327,-1.489187 -1.034421,-2.951247 -1.808317,-4.360076 z"
                    style="fill:url(#id28);stroke-width:0.0255917"/>
            <path
                    id="path517_408"
                    class="fil14"
                    d="M 0.16083475,24.243492 C 1.7567398,22.894548 4.1378015,21.289686 5.6881531,20.781945 11.140487,18.74023 16.364543,20.181049 20.394996,21.596532 c 7.428022,2.644145 14.708379,3.701087 20.741648,-2.84325 0.613435,-0.665387 0.708637,-1.264235 -0.928215,-0.232118 -1.76865,1.064108 -4.348304,2.090339 -7.906845,2.035317 -2.93973,-0.0453 -7.36353,-1.597441 -11.915545,-3.318234 C 15.469341,15.37977 12.732554,13.971453 7.1786199,14.735113 4.4200791,15.114639 1.9320437,16.665247 0.28930562,18.105298 -0.04262011,20.1227 -0.09047679,22.190006 0.16083475,24.243492 Z"
                    style="fill:url(#linearGradient42);stroke-width:0.0255917"/>
            <path
                    id="path517_409"
                    class="fil15"
                    d="m 11.386169,40.642978 c 0.04504,-0.646449 0.128215,-1.653231 0.310684,-1.963148 0.199872,-0.338835 0.412284,-0.60371 0.648753,-0.907997 0.645937,-0.831478 1.725399,-1.502239 2.254894,-2.382341 0.227255,-0.378247 0.320665,-0.619066 0.400767,-1.155726 0.01535,-0.104159 0.01663,-0.220346 0.02841,-0.363404 0.0151,-0.185285 -0.06731,-0.78183 -0.330646,-0.78183 -0.813052,0 -0.563531,1.213052 -0.732181,1.699808 -0.279463,0.806142 -0.986309,0.374408 -0.986309,-0.208061 0,-0.53922 0.290723,-0.891619 0.569674,-1.246321 l 0.721177,-0.997569 c 0.377479,-0.57991 0.752143,-1.73103 0.752143,-2.685348 0,-0.32476 0.05477,-1.242738 -0.426615,-1.109917 -0.34293,0.09443 -0.414843,0.350096 -0.455278,0.682022 -0.04223,0.347537 -0.06065,0.663851 -0.05809,1.076903 0.0018,0.325016 -0.05297,0.777735 -0.357261,0.777735 -0.328599,0 -0.255663,-1.282405 -0.292515,-1.815483 -0.04453,-0.647216 -0.80998,-0.450159 -0.80998,0.258989 v 1.134997 c 0,0.732438 0.726551,1.204862 0.119257,2.421753 -0.496481,0.994753 -1.12476,0.52975 -1.12476,0.107741 0,-0.376199 0.06782,-0.626487 0.227,-0.940499 0.0801,-0.158157 0.259501,-0.513371 0.259501,-0.713499 0,-0.345746 -0.444018,-0.549968 -0.919258,0.442738 -0.336276,0.702751 -0.523864,1.472553 -0.105438,2.171209 0.137428,0.229814 0.306334,0.368266 0.498272,0.539219 0.423033,0.376968 0.753423,0.747025 0.753423,1.387076 0,0.41126 -0.408189,1.054383 -0.82943,0.407678 -0.368267,-0.565835 -0.229559,-0.502623 -0.816891,-1.096353 -0.170185,-0.171721 -0.462444,-0.499296 -0.577607,-0.68714 -0.7413946,-1.20819 0.107997,-2.229303 0.613692,-3.282917 0.370825,-0.772361 0.623416,-1.541139 0.819449,-2.391043 0.03557,-0.154318 0.144594,-0.660012 0.208317,-1.166474 0.06705,-0.534613 0.08343,-1.070506 -0.09085,-1.196417 -0.09443,-0.06859 -0.20627,-0.08317 -0.301728,-0.06014 -0.522329,0.126679 -0.398976,1.377863 -0.555598,1.877927 -0.249008,0.795393 -0.8063977,0.429942 -0.8043504,-0.54485 0.00154,-0.603199 0.088291,-1.227383 -0.00665,-1.841586 -0.075496,-0.4865 -0.6856045,-0.263596 -0.80563,0.218298 -0.096225,0.385668 -0.1561101,1.563915 -0.1056942,1.925016 0.1612284,1.155726 0.793346,1.587459 0.6548943,2.904926 -0.011516,0.111068 -0.071913,0.299168 -0.1159309,0.402815 -0.080358,0.188867 -0.2595009,0.541266 -0.496481,0.541266 -0.7503518,0 -0.035317,-2.33474 -0.7782468,-2.33474 -0.290467,0 -0.5190019,0.310428 -0.5190019,0.583749 0,0.69277 0.018426,1.487908 0.187588,2.147152 0.038388,0.148945 0.073704,0.226744 0.1164427,0.370314 0.1041587,0.350864 0.2293026,0.83071 0.063212,1.189763 -0.3152911,0.681254 -1.3074854,-0.106974 -1.3074854,-0.853487 0,-0.52975 0.4373639,-2.561995 -0.097249,-2.561995 -0.2930262,0 -0.4519513,0.261804 -0.5136275,0.491874 -0.1550864,0.578119 -0.3275752,2.223928 -0.187588,2.706078 0.2090851,0.719385 0.9842609,1.161612 1.6596287,1.356621 0.7562378,0.218298 1.4976325,0.500832 2.1532945,0.894946 1.2785669,0.768778 0.9305179,2.720921 -0.1190019,1.480998 C 9.6449133,37.395377 9.4716567,37.136132 9.3800381,36.948289 9.3076131,36.800112 9.1985922,36.33127 8.9593088,36.33127 c -0.3390915,0 -0.421753,0.319386 -0.421753,0.583749 0,0.432246 0.3982085,0.930262 0.7032628,1.177735 0.7751754,0.629047 1.0397954,1.157262 1.0679464,1.930902 0.102623,0.0627 0.205502,0.124632 0.308637,0.185796 0.08445,0.04965 0.169162,0.0993 0.254382,0.147921 0.04044,0.02329 0.08113,0.04658 0.121817,0.06961 0.130263,0.07345 0.261037,0.145361 0.392579,0.215995 z"
                    style="fill:url(#linearGradient41);stroke-width:0.0255917"/>
            <path
                    id="path517_410"
                    class="fil16"
                    d="M 10.077916,39.881621 C 9.9655676,39.615979 9.8685747,39.368762 9.776956,39.138947 9.6054909,38.709517 9.2003726,37.752127 8.5362652,36.868442 7.1205265,34.984629 5.3160482,34.702864 5.3160482,34.702864 h -2.559e-4 l 2.559e-4,0.001 c 0.4650031,0.334229 1.9047982,1.255022 2.5683937,2.439411 0.4230326,0.754447 0.5745361,1.170825 0.765195,1.755342 0.4642354,0.347537 0.9404989,0.67588 1.4282791,0.982981 z"
                    style="fill:url(#id23);stroke-width:0.0255917"/>
            <path
                    id="path517_411"
                    class="fil17"
                    d="m 5.5159202,32.704399 0.00333,0.0097 c 0,0 0.036852,0.01408 0.047345,0.01792 -0.016635,-0.0087 -0.035573,-0.01996 -0.050672,-0.02764 z m 4.4332686,7.094561 c 0.4657712,0.298144 0.9415222,0.578119 1.4267432,0.838132 -0.341651,-0.993474 -0.549456,-1.8508 -0.706846,-2.456302 C 10.322829,36.848992 10.093527,36.435429 9.9046591,36.036964 8.9362651,33.992691 5.8179035,32.823401 5.5668479,32.732039 H 5.566592 c 0.6753678,0.36673 2.4882913,1.659372 3.1426738,2.811771 0.5407549,0.952271 0.7518873,1.635317 1.0592449,3.421113 0.038644,0.223672 0.1054382,0.523096 0.1806781,0.834037 z"
                    style="fill:url(#id22);stroke-width:0.0255917"/>
            <path
                    id="path517_412"
                    class="fil18"
                    d="m 17.856033,25.443748 0.0015,0.01356 c 0,0 -0.03481,0.03711 -0.04504,0.0476 0.01433,-0.01971 0.0302,-0.04351 0.04351,-0.06116 z m -2.600127,16.811258 c 0.145361,0.04453 0.291235,0.08752 0.437364,0.128982 l 0.0801,0.02252 0.0059,0.0018 c 0.125912,0.03506 0.252335,0.0691 0.378759,0.101856 l 0.0026,7.68e-4 c 0.05042,0.01305 0.100832,0.02585 0.151504,0.03864 l 0.0023,7.68e-4 0.0026,5.12e-4 c 0.100832,0.02534 0.201919,0.0499 0.303007,0.07396 l 0.0049,0.0013 c 0.07294,0.01715 0.145873,0.03404 0.219065,0.05067 l 0.0036,7.67e-4 c 0.118746,-0.295073 0.218554,-0.606014 0.290467,-0.931797 0.430199,-1.945234 -0.09085,-3.699296 -0.126679,-3.884837 -0.13231,-0.689699 -0.386948,-1.990786 -0.585029,-2.678182 -0.652079,-2.264875 -0.792066,-3.184133 -0.698912,-4.60499 0.11286,-1.720025 1.502239,-4.26078 2.08522,-5.072808 l -5.12e-4,2.56e-4 c -0.241842,0.249265 -3.22943,3.385284 -3.204606,6.327319 0.0049,0.573256 -0.02917,1.187459 0.32041,2.942545 0.237748,1.192835 0.662316,3.107613 0.729366,5.451311 0.01894,0.658733 -0.163787,1.404222 -0.401279,2.028663 z"
                    style="fill:url(#id25);stroke-width:0.0255917"/>
            <path
                    class="fil19"
                    d="m 6.7645445,21.224171 c 0.3408828,-0.009 0.6287906,0.426359 0.6428661,0.971977 0.014075,0.545873 -0.2507997,0.995265 -0.5916825,1.004222 C 6.4745893,23.20907 6.1869374,22.773755 6.172606,22.228138 6.158531,21.68252 6.4236616,21.232872 6.7645445,21.224171 Z"
                    id="path31"
                    style="fill:url(#id1);stroke-width:0.0255917"/>
            <ellipse
                    class="fil20"
                    cx="7.1952548"
                    cy="27.949442"
                    rx="0.52207285"
                    ry="0.92975038"
                    id="ellipse31"
                    style="fill:url(#radialGradient41);stroke-width:0.0255917"/>
            <path
                    class="fil21"
                    d="m 34.735877,18.536264 c 0.218554,-0.08445 0.495713,0.105694 0.619066,0.425079 0.123608,0.319386 0.04658,0.646705 -0.171977,0.731158 -0.218298,0.08445 -0.495458,-0.10595 -0.619066,-0.425335 -0.123352,-0.31913 -0.04632,-0.64645 0.171977,-0.730902 z"
                    id="path32"
                    style="fill:url(#id4);stroke-width:0.0255917"/>
            <path
                    class="fil22"
                    d="m 14.883033,20.406257 c 0.18938,-0.0084 0.356238,0.280486 0.372617,0.645681 0.01638,0.364939 -0.12412,0.667946 -0.3135,0.676392 -0.189635,0.0084 -0.356238,-0.280743 -0.372616,-0.645682 -0.01638,-0.365195 0.123864,-0.667946 0.313499,-0.676391 z"
                    id="path33"
                    style="fill:url(#id11);stroke-width:0.0255917"/>
            <path
                    class="fil23"
                    d="m 13.235945,23.748803 c 0.304286,0.08317 0.4238,0.615483 0.267178,1.188995 -0.156622,0.573512 -0.530006,0.971209 -0.834293,0.888292 -0.304031,-0.08317 -0.4238,-0.615483 -0.267178,-1.188996 0.156621,-0.573512 0.530006,-0.971209 0.834293,-0.888291 z"
                    id="path34"
                    style="fill:url(#id8);stroke-width:0.0255917"/>
            <path
                    class="fil24"
                    d="m 14.371197,26.755328 c 0.283813,-0.08036 0.654638,0.350608 0.828407,0.96302 0.173768,0.612156 0.0842,1.173896 -0.199616,1.254254 -0.283813,0.08061 -0.654639,-0.350608 -0.828151,-0.962764 -0.173768,-0.612412 -0.08445,-1.173896 0.19936,-1.25451 z"
                    id="path35"
                    style="fill:url(#id2);stroke-width:0.0255917"/>
            <path
                    class="fil25"
                    d="m 8.8825224,22.88943 c 0.2449135,0.0023 0.4399231,0.378247 0.4358284,0.840179 -0.00435,0.461676 -0.2062699,0.834037 -0.4511835,0.831989 -0.2449136,-0.0023 -0.4399232,-0.378502 -0.4355726,-0.840179 0.00409,-0.461932 0.20627,-0.834292 0.4509277,-0.831989 z"
                    id="path36"
                    style="fill:url(#id10);stroke-width:0.0255917"/>
            <path
                    class="fil26"
                    d="m 11.847077,20.528586 c 0.315035,0.01305 0.550224,0.505438 0.5254,1.099424 -0.02457,0.593985 -0.300192,1.064875 -0.615227,1.051823 -0.314779,-0.01305 -0.550224,-0.505182 -0.5254,-1.099424 0.02457,-0.593986 0.300192,-1.064875 0.615227,-1.051823 z"
                    id="path37"
                    style="fill:url(#id6);stroke-width:0.0255917"/>
            <path
                    class="fil27"
                    d="m 9.3465018,12.211249 c 0.315547,-0.0015 0.5735124,0.479078 0.5763275,1.073576 0.00307,0.594753 -0.2502879,1.077927 -0.5655789,1.079462 -0.3152911,0.0015 -0.5732565,-0.479078 -0.5760716,-1.073832 -0.00307,-0.594498 0.2500319,-1.077671 0.565323,-1.079206 z"
                    id="path38"
                    style="fill:url(#id3);stroke-width:0.0255917"/>
            <path
                    class="fil28"
                    d="m 10.68137,24.825962 c 0.207806,0.0128 0.35675,0.340627 0.33295,0.732693 -0.02406,0.391811 -0.2119,0.699168 -0.419706,0.686372 -0.207805,-0.01254 -0.35675,-0.340626 -0.332949,-0.732437 0.02406,-0.391811 0.2119,-0.699168 0.419705,-0.686628 z"
                    id="path39"
                    style="fill:url(#id5);stroke-width:0.0255917"/>
            <path
                    class="fil29"
                    d="m 37.778743,24.187446 c 0.233141,-0.02252 0.44888,0.235445 0.481893,0.576072 0.03301,0.340883 -0.129238,0.635444 -0.36238,0.657965 -0.233141,0.02252 -0.44888,-0.235445 -0.481893,-0.576071 -0.03301,-0.340883 0.129238,-0.635445 0.36238,-0.657966 z"
                    id="path40"
                    style="fill:url(#id7);stroke-width:0.0255917"/>
            <path
                    class="fil30"
                    d="m 36.689555,27.69378 c 0.18938,-0.0084 0.356238,0.280742 0.372617,0.645681 0.01638,0.365195 -0.12412,0.667946 -0.313499,0.676391 -0.189636,0.0084 -0.356238,-0.280742 -0.372617,-0.645681 -0.01638,-0.365195 0.12412,-0.667946 0.313499,-0.676391 z"
                    id="path41"
                    style="fill:url(#id9);stroke-width:0.0255917"/></g>
 </g>
</svg>
