<?xml version="1.0" encoding="UTF-8"?>
<!DOCTYPE svg PUBLIC "-//W3C//DTD SVG 1.1//EN" "http://www.w3.org/Graphics/SVG/1.1/DTD/svg11.dtd">
<!-- Creator: CorelDRAW -->
<svg xmlns="http://www.w3.org/2000/svg" xml:space="preserve" width="1563px" height="1563px" version="1.1" style="shape-rendering:geometricPrecision; text-rendering:geometricPrecision; image-rendering:optimizeQuality; fill-rule:evenodd; clip-rule:evenodd"
viewBox="0 0 1688.52 1688.52"
 xmlns:xlink="http://www.w3.org/1999/xlink"
 xmlns:xodm="http://www.corel.com/coreldraw/odm/2003">
 <defs>
  <style type="text/css">
   <![CDATA[
    .fil1 {fill:#0F2224;fill-rule:nonzero}
    .fil8 {fill:url(#id2);fill-rule:nonzero}
    .fil4 {fill:url(#id3);fill-rule:nonzero}
    .fil5 {fill:url(#id4);fill-rule:nonzero}
    .fil9 {fill:url(#id5);fill-rule:nonzero}
    .fil2 {fill:url(#id6);fill-rule:nonzero}
    .fil10 {fill:url(#id7);fill-rule:nonzero}
    .fil7 {fill:url(#id8);fill-rule:nonzero}
    .fil6 {fill:url(#id9);fill-rule:nonzero}
    .fil0 {fill:url(#id10);fill-rule:nonzero}
    .fil3 {fill:url(#id11);fill-rule:nonzero}
    .fil11 {fill:url(#id12);fill-rule:nonzero}
    .fil12 {fill:url(#id13);fill-rule:nonzero}
   ]]>
  </style>
     <mask id="id0">
  <radialGradient id="id1" gradientUnits="userSpaceOnUse" cx="502.72" cy="911.85" r="0" fx="502.72" fy="911.85">
   <stop offset="0" style="stop-opacity:0; stop-color:white"/>
   <stop offset="0.270588" style="stop-opacity:0; stop-color:white"/>
   <stop offset="1" style="stop-opacity:1; stop-color:white"/>
  </radialGradient>
      <rect style="fill:url(#id1)" x="502.72" y="911.85" width="59.71" height="81.38"/>
     </mask>
  <linearGradient id="id2" gradientUnits="userSpaceOnUse" x1="1345.57" y1="1586.93" x2="1350.53" y2="781.04">
   <stop offset="0" style="stop-opacity:1; stop-color:#330E12"/>
   <stop offset="0.0784314" style="stop-opacity:1; stop-color:#69222A"/>
   <stop offset="0.188235" style="stop-opacity:1; stop-color:#A33441"/>
   <stop offset="1" style="stop-opacity:1; stop-color:#DC7783"/>
  </linearGradient>
  <linearGradient id="id3" gradientUnits="userSpaceOnUse" x1="856.95" y1="1700.27" x2="835.34" y2="544.81">
   <stop offset="0" style="stop-opacity:1; stop-color:#18383C"/>
   <stop offset="0.14902" style="stop-opacity:1; stop-color:#1C4247"/>
   <stop offset="0.4" style="stop-opacity:1; stop-color:#5AB590"/>
   <stop offset="1" style="stop-opacity:1; stop-color:#3FB4D8"/>
  </linearGradient>
  <linearGradient id="id4" gradientUnits="userSpaceOnUse" xlink:href="#id3" x1="856.95" y1="1700.27" x2="835.34" y2="544.81">
  </linearGradient>
  <linearGradient id="id5" gradientUnits="userSpaceOnUse" x1="840.33" y1="1659.22" x2="836.54" y2="629.62">
   <stop offset="0" style="stop-opacity:1; stop-color:#0A6359"/>
   <stop offset="0.141176" style="stop-opacity:1; stop-color:#0AC291"/>
   <stop offset="0.329412" style="stop-opacity:1; stop-color:#75D6A4"/>
   <stop offset="1" style="stop-opacity:1; stop-color:#6EC7CC"/>
  </linearGradient>
  <linearGradient id="id6" gradientUnits="userSpaceOnUse" x1="870.25" y1="1585.61" x2="864.57" y2="883.18">
   <stop offset="0" style="stop-opacity:1; stop-color:#3B2A14"/>
   <stop offset="0.0784314" style="stop-opacity:1; stop-color:#70522B"/>
   <stop offset="0.188235" style="stop-opacity:1; stop-color:#AB7E42"/>
   <stop offset="1" style="stop-opacity:1; stop-color:#EAC089"/>
  </linearGradient>
  <linearGradient id="id7" gradientUnits="userSpaceOnUse" xlink:href="#id5" x1="818.72" y1="1713.25" x2="814.93" y2="683.64">
  </linearGradient>
  <linearGradient id="id8" gradientUnits="userSpaceOnUse" xlink:href="#id3" x1="1727.59" y1="1394.47" x2="1537.52" y2="423.93">
  </linearGradient>
  <linearGradient id="id9" gradientUnits="userSpaceOnUse" xlink:href="#id3" x1="856.95" y1="1700.27" x2="835.34" y2="544.81">
  </linearGradient>
  <linearGradient id="id10" gradientUnits="userSpaceOnUse" x1="374.81" y1="2100.91" x2="1289.01" y2="-646.68">
   <stop offset="0" style="stop-opacity:1; stop-color:#16373B"/>
   <stop offset="0.431373" style="stop-opacity:1; stop-color:#1C4247"/>
   <stop offset="0.560784" style="stop-opacity:1; stop-color:#234E4F"/>
   <stop offset="0.870588" style="stop-opacity:1; stop-color:#52B58D"/>
   <stop offset="1" style="stop-opacity:1; stop-color:#5AB590"/>
  </linearGradient>
  <linearGradient id="id11" gradientUnits="userSpaceOnUse" xlink:href="#id3" x1="856.95" y1="1700.27" x2="835.34" y2="544.81">
  </linearGradient>
  <linearGradient id="id12" gradientUnits="userSpaceOnUse" xlink:href="#id5" x1="1196.37" y1="1613.98" x2="1293.88" y2="1022.94">
  </linearGradient>
  <radialGradient id="id13" gradientUnits="userSpaceOnUse" gradientTransform="matrix(1.00237 -0.371179 0.709467 1.86583 -679 -636)" cx="514.66" cy="954.98" r="40.69" fx="514.66" fy="954.98">
   <stop offset="0" style="stop-opacity:1; stop-color:#EA6C9E"/>
   <stop offset="0.270588" style="stop-opacity:1; stop-color:#B0FEF1"/>
   <stop offset="1" style="stop-opacity:1; stop-color:white"/>
  </radialGradient>
 </defs>
 <g id="Layer_x0020_1">
  <metadata id="CorelCorpID_0Corel-Layer"/>
  <g id="_1981890412192">
   <path id="path517" class="fil0" d="M1291.19 1560.39c395.5,-246.84 516.03,-767.55 269.2,-1163.06 -246.83,-395.5 -767.55,-516.03 -1163.06,-269.2 -395.5,246.83 -516.03,767.55 -269.2,1163.06 246.83,395.5 767.55,516.03 1163.06,269.2z"/>
   <path id="path517_0" class="fil1" d="M1308.87 1549.04l1.13 -0.75c5.69,-3.76 11.32,-7.57 16.89,-11.45l1.2 -0.84c5.58,-3.89 11.1,-7.84 16.56,-11.85l0.92 -0.68c5.32,-3.92 10.58,-7.89 15.78,-11.91l1.21 -0.93c5.17,-4.01 10.27,-8.07 15.32,-12.18l1.81 -1.49c4.93,-4.02 9.8,-8.1 14.61,-12.22l1.94 -1.67c4.61,-3.98 9.18,-8 13.69,-12.06l1.93 -1.74c4.44,-4.03 8.84,-8.11 13.18,-12.22l2.47 -2.33c4.27,-4.08 8.5,-8.2 12.68,-12.36 0.96,-0.95 1.91,-1.9 2.86,-2.86 3.81,-3.83 7.59,-7.69 11.32,-11.59 1.22,-1.27 2.43,-2.56 3.65,-3.84 3.45,-3.65 6.87,-7.33 10.25,-11.03 1.26,-1.39 2.52,-2.77 3.77,-4.16 3.4,-3.77 6.75,-7.58 10.08,-11.41 1.28,-1.47 2.55,-2.94 3.81,-4.42 3.08,-3.6 6.11,-7.22 9.12,-10.85 1.6,-1.94 3.19,-3.87 4.76,-5.82 2.63,-3.23 5.22,-6.48 7.79,-9.75 1.85,-2.34 3.68,-4.7 5.5,-7.06 2.42,-3.14 4.81,-6.29 7.18,-9.45 1.81,-2.43 3.61,-4.86 5.39,-7.31 2,-2.72 3.97,-5.46 5.93,-8.21 1.98,-2.78 3.94,-5.56 5.88,-8.35 1.9,-2.74 3.78,-5.49 5.64,-8.24 2.19,-3.24 4.36,-6.48 6.51,-9.75 1.67,-2.55 3.34,-5.11 4.98,-7.68 2.27,-3.53 4.51,-7.08 6.72,-10.65 0.98,-1.58 1.95,-3.16 2.92,-4.75 2.8,-4.59 5.56,-9.21 8.28,-13.85 0.78,-1.33 1.56,-2.67 2.34,-4.01 2.28,-3.94 4.53,-7.9 6.74,-11.88 1.22,-2.2 2.43,-4.4 3.63,-6.6 2.31,-4.23 4.57,-8.48 6.8,-12.74l1.02 -1.97c3.04,-5.85 6,-11.72 8.89,-17.62l0.96 -1.94c3.15,-6.47 6.22,-12.99 9.2,-19.53 -71.46,-29.49 -218.75,-7.35 -294.39,27.83 -127.05,59.1 -232.32,12.68 -398.68,33.34 -146.53,18.19 -122.1,50.78 -280.72,69.41 -67.56,7.94 -253.24,-45.4 -308.74,-60.46 -126.13,-34.23 -147.23,-28.85 -232.11,-27.34 2.4,4.53 4.83,9.05 7.31,13.56 0.81,1.47 1.63,2.93 2.45,4.4 2.98,5.35 6.03,10.67 9.14,15.98l0.87 1.47c3.55,6.02 7.18,12 10.89,17.96 246.83,395.5 767.55,516.03 1163.06,269.2 5.96,-3.72 11.85,-7.51 17.68,-11.35z"/>
   <path id="path517_1" class="fil2" d="M903.75 1529.3c1.68,-24.05 4.78,-37.31 11.56,-48.84 7.43,-12.61 15.34,-22.46 24.13,-33.78 24.03,-30.93 64.19,-55.88 83.88,-88.62 8.46,-14.07 11.93,-23.03 14.91,-43 0.58,-3.87 0.63,-8.2 1.06,-13.51 0.57,-6.9 -2.5,-29.09 -12.29,-29.09 -30.25,0 -20.97,45.12 -27.24,63.23 -10.4,29.99 -36.7,13.93 -36.7,-7.74 0,-20.06 10.82,-33.17 21.19,-46.36l26.84 -37.11c14.04,-21.57 27.97,-64.39 27.97,-99.9 0,-12.08 2.04,-46.23 -15.87,-41.29 -12.75,3.52 -15.42,13.03 -16.93,25.38 -1.57,12.93 -2.26,24.69 -2.17,40.06 0.07,12.09 -1.96,28.93 -13.28,28.93 -12.23,0 -9.51,-47.7 -10.88,-67.53 -1.66,-24.08 -30.14,-16.76 -30.14,9.63l0 42.22c0,27.25 27.03,44.83 4.44,90.09 -18.47,37.01 -41.84,19.71 -41.84,4.01 0,-14 2.52,-23.31 8.44,-34.99 2.98,-5.88 9.66,-19.09 9.66,-26.54 0,-12.86 -16.52,-20.46 -34.2,16.47 -12.51,26.14 -19.49,54.78 -3.93,80.77 5.12,8.55 11.4,13.7 18.54,20.06 15.74,14.02 28.03,27.79 28.03,51.6 0,15.29 -15.18,39.22 -30.85,15.16 -13.71,-21.04 -8.54,-18.69 -30.39,-40.78 -6.33,-6.39 -17.2,-18.57 -21.49,-25.56 -27.58,-44.95 4.02,-82.93 22.83,-122.13 13.79,-28.73 23.19,-57.33 30.48,-88.95 1.33,-5.74 5.38,-24.55 7.75,-43.39 2.49,-19.89 3.1,-39.82 -3.37,-44.51 -3.52,-2.55 -7.68,-3.09 -11.23,-2.23 -19.43,4.71 -14.84,51.26 -20.67,69.85 -9.26,29.59 -30,16 -29.92,-20.27 0.05,-22.43 3.29,-45.66 -0.25,-68.5 -2.8,-18.1 -25.5,-9.8 -29.97,8.12 -3.58,14.35 -5.8,58.18 -3.93,71.61 6,43 29.51,59.06 24.36,108.06 -0.43,4.14 -2.68,11.14 -4.32,14.99 -2.98,7.02 -9.65,20.14 -18.46,20.14 -27.91,0 -1.31,-86.86 -28.95,-86.86 -10.81,0 -19.31,11.55 -19.31,21.71 0,25.78 0.68,55.36 6.98,79.89 1.43,5.54 2.74,8.42 4.33,13.77 3.87,13.05 8.53,30.9 2.35,44.26 -11.73,25.34 -48.64,-3.98 -48.64,-31.75 0,-19.71 16.27,-95.31 -3.62,-95.31 -10.89,0 -16.8,9.74 -19.1,18.3 -5.76,21.51 -12.19,82.73 -6.97,100.67 7.77,26.76 36.61,43.21 61.73,50.46 28.13,8.12 55.71,18.63 80.1,33.3 47.56,28.59 34.62,101.21 -4.42,55.09 -5,-5.91 -11.45,-15.56 -14.85,-22.55 -2.69,-5.51 -6.75,-22.95 -15.66,-22.95 -12.61,0 -15.68,11.88 -15.68,21.72 0,16.08 14.81,34.61 26.15,43.81 28.85,23.4 38.68,43.05 39.74,71.83 13.17,8.06 26.51,-8.42 40.07,-1.15z"/>
   <path id="path517_2" class="fil3" d="M977.14 1195.04l-0.12 0.52c0,0 1.21,1.59 1.56,2.03 -0.47,-0.82 -0.99,-1.81 -1.44,-2.55zm-17.79 485.67c5.09,-0.7 10.17,-1.45 15.25,-2.24 1.9,-0.29 3.79,-0.6 5.69,-0.91 4.43,-0.72 8.86,-1.48 13.29,-2.28 2.86,-0.51 5.71,-1.04 8.57,-1.59 3.46,-0.66 6.92,-1.34 10.38,-2.04 3.68,-0.75 7.34,-1.52 11.01,-2.32l0.03 -0.01c10.33,-40.64 21.36,-74.41 29.23,-99.7 20.76,-66.77 21.94,-90.78 24.47,-113.04 12.99,-114.22 -90.29,-248.3 -98.67,-258.98l-0.02 -0.01c19.34,33.94 62.94,138.36 60.3,205.65 -2.18,55.6 -11.38,90.76 -45.98,176.1 -10.46,25.8 -25.59,75.03 -33.58,101.37l0.03 0z"/>
   <path id="path517_3" class="fil4" d="M386.96 1553.98c3.71,2.39 7.44,4.74 11.18,7.07 2.16,1.34 4.32,2.67 6.49,3.99 3.45,2.11 6.92,4.18 10.4,6.23 2.55,1.51 5.12,3 7.69,4.48 3.25,1.87 6.51,3.72 9.78,5.54l0.06 0.04c-3.97,-28.38 -3.58,-55.66 0.76,-82.96 3.49,-21.98 7.48,-46.42 13.37,-68.65 10.28,-38.72 22.21,-81.31 30.37,-116.33 9.2,-39.42 11.2,-77.46 12.94,-111.22 1.85,-35.67 -5.09,-70.76 -10.11,-92.36 -5.74,-24.7 -18.57,-42 -19.64,-45.94 -0.15,-0.54 -0.25,-0.81 -0.31,-0.82l0.02 -0.02c-0.89,-0.16 7.63,57.23 6.86,88.29 -1.86,74.89 -21.41,110.81 -37.68,178.06 -6.84,28.29 -46.49,121.89 -43.06,211.24 0.17,4.49 0.47,8.94 0.88,13.36z"/>
   <path id="path517_4" class="fil5" d="M1037.89 1666.13l0 0 0.27 -0.06c6.16,-1.46 12.3,-3 18.44,-4.59l3.53 -0.94c4.68,-1.23 9.34,-2.53 14,-3.85 2.83,-0.81 5.65,-1.62 8.48,-2.46 0.96,-9.58 2.43,-19.09 4.38,-28.58 4.48,-21.79 9.56,-46.04 16.46,-67.98 12.01,-38.21 25.84,-80.22 35.57,-114.84 10.97,-38.97 14.68,-76.87 17.94,-110.52 3.45,-35.55 -1.9,-70.92 -5.94,-92.72 -4.62,-24.94 -16.66,-42.79 -17.55,-46.78 -0.12,-0.55 -0.21,-0.82 -0.27,-0.83l0.02 -0.03c-0.88,-0.2 5.04,57.52 2.87,88.52 -5.23,74.72 -26.38,109.73 -45.66,176.18 -8.1,27.95 -51.94,119.67 -52.54,209.08l0 0.4z"/>
   <path id="path517_5" class="fil6" d="M530.85 1628.07c4.37,1.74 8.76,3.45 13.16,5.12 2.44,0.93 4.89,1.85 7.33,2.75 3.36,1.24 6.72,2.46 10.09,3.66 3.42,1.22 6.86,2.41 10.3,3.58l0.08 0.03c1.54,-7.74 2.73,-15.66 3.53,-23.71 8.75,-88.99 -25.25,-184.79 -30.39,-213.43 -12.23,-68.1 -29.6,-105.13 -26.98,-179.99 1.08,-31.05 13.01,-87.84 12.11,-87.73l0.02 0.02c-0.06,0.01 -0.18,0.27 -0.36,0.81 -1.3,3.86 -15.14,20.36 -22.35,44.68 -6.29,21.26 -15.31,55.87 -15.6,91.59 -0.28,33.81 -0.55,71.89 6.28,111.79 6.06,35.45 15.43,78.67 23.37,117.93 4.56,22.55 7.08,47.19 9.26,69.33 1.76,17.86 1.85,35.62 0.15,53.57z"/>
   <path id="path517_6" class="fil7" d="M1536.02 993.45l0.2 0.41c0,0 -0.72,1.55 -0.94,1.98 0.25,-0.77 0.51,-1.69 0.74,-2.39zm13.72 314.64c1.89,-2.88 3.78,-5.77 5.63,-8.67 1.28,-2 2.56,-4.01 3.82,-6.02 2.74,-4.37 5.45,-8.76 8.11,-13.17 -25.51,-40.45 -36.14,-65.32 -45.42,-101.48 -14.33,-55.82 3.34,-151.03 13.4,-182.91l-0.01 0.02c-5.09,10.44 -67.34,141.21 -35.9,234.44 6.13,18.16 11.45,38.03 40.84,90.15l0.56 1 0.44 -0.64 0.43 -0.63c2.73,-4.01 5.43,-8.04 8.1,-12.09z"/>
   <path id="path517_7" class="fil8" d="M1339.38 1527.92c-4.6,-35.41 -15.63,-105.18 -23.02,-117.72 -30.63,-51.98 -72.17,-58.92 -101.7,-108.03 -8.88,-14.78 -12.53,-24.19 -15.66,-45.16 -0.61,-4.07 -0.66,-8.61 -1.11,-14.2 -0.59,-7.24 2.63,-30.55 12.91,-30.55 31.78,0 22.02,47.4 28.62,66.42 10.92,31.5 38.54,14.63 38.54,-8.14 0,-21.07 -11.36,-34.83 -22.26,-48.69l-28.19 -38.98c-14.75,-22.66 -29.38,-46.03 -29.38,-83.32 0,-12.69 -2.14,-48.56 16.67,-43.37 13.4,3.69 16.2,13.68 17.78,26.65 1.66,13.58 2.38,25.94 2.28,42.08 -0.07,12.7 2.06,19.59 13.96,19.59 12.84,0 9.99,-71.72 11.42,-92.55 1.75,-25.29 31.66,-17.6 31.66,10.11l0 44.35c-5.26,73.77 29.17,92.08 21.54,176.5 -6.12,67.66 25.53,49.02 46.63,26.68 8.06,-8.53 24.5,-25.33 30.14,-34.51 28.97,-47.21 -4.22,-87.11 -23.99,-128.28 -14.48,-30.18 -24.36,-60.22 -32.01,-93.43 -1.39,-6.03 -5.66,-14.98 -8.14,-34.78 -2.62,-20.88 7.55,-41.82 14.35,-46.75 3.7,-2.67 8.06,-3.24 11.79,-2.34 20.42,4.94 4.78,43.03 10.9,62.57 9.74,31.07 31.52,5.99 31.43,-32.1 -0.05,-23.57 -3.45,-47.96 0.27,-71.96 2.94,-19 26.79,-10.29 31.48,8.54 3.76,15.07 6.09,61.1 4.12,75.21 -6.3,45.16 -30.99,72.84 -25.59,124.32 0.46,4.34 2.82,11.69 4.54,15.74 3.13,7.38 10.14,42.76 19.4,42.76 22.29,0 12.18,-80.43 41.21,-80.43 11.36,0 20.28,12.14 20.28,22.81 0,27.08 -11.52,25.73 -18.14,51.49 -1.49,5.82 -2.87,8.86 -4.54,14.47l-18.06 52.72c-1.01,20.44 -17.41,45.09 -51.11,73.25 -49.96,30.04 -25.55,117.12 15.45,68.67 5.25,-6.2 12.02,-16.34 15.6,-23.68 2.83,-5.79 7.09,-24.1 16.45,-24.1 13.24,0 16.47,12.47 16.47,22.81 0,16.89 -15.56,36.35 -27.48,46.02 -26.68,21.64 -43.25,45.61 -49.47,73.56 -14.83,12.36 -30.18,24.29 -46.04,35.75z"/>
   <path id="path517_8" class="fil9" d="M746.59 1069.12l-0.12 0.52c0,0 1.2,1.58 1.55,2.03 -0.47,-0.82 -0.99,-1.81 -1.43,-2.55zm-40.42 607.87c21.43,3.56 42.99,6.32 64.66,8.23 -0.75,-11.19 -0.6,-22.27 0.8,-32.66 12.18,-90.8 36.5,-163.47 50.61,-208.86 20.76,-66.77 21.95,-90.79 24.48,-113.04 12.99,-114.23 -90.29,-248.3 -98.68,-258.98l-0.02 -0.01c19.34,33.94 62.95,138.35 60.31,205.65 -2.18,55.6 -11.38,90.76 -45.98,176.1 -10.51,25.9 -25.71,75.42 -33.68,101.69 -1.88,6.17 -23.05,57.41 -22.5,121.88z"/>
   <path id="path517_9" class="fil10" d="M1178.57 1136.49l-0.13 0.52c0,0 1.21,1.59 1.56,2.03 -0.47,-0.82 -0.99,-1.81 -1.43,-2.55zm-19.78 491.26c23.68,-9.53 47.08,-20.26 70.16,-32.11 9.12,-33.94 18.4,-62.48 25.27,-84.57 20.76,-66.77 21.94,-90.78 24.47,-113.04 12.99,-114.22 -90.29,-248.3 -98.67,-258.98l-0.02 -0.01c19.34,33.94 62.95,138.36 60.31,205.65 -2.19,55.6 -11.38,90.76 -45.99,176.1 -10.5,25.91 -25.71,75.43 -33.68,101.69 -0.26,0.88 -0.92,2.67 -1.85,5.27z"/>
   <path id="path517_10" class="fil11" d="M1276.83 1569.1c14.4,-41.8 31.47,-68.16 44.7,-89.46 7.21,-11.62 22.89,-38.05 32.27,-69.35 20.01,-66.75 -4.94,-114.64 -4.94,-114.64l-0.01 -0.01 -0.01 0.03c0.2,16.93 3.54,67.35 -13.01,103.92 -16.09,35.58 -24.51,42.27 -48.78,77.99 -9.14,13.45 -20.52,31.53 -27.63,45.82 -1.73,3.48 -18.27,28.14 -27.27,70.62 15.05,-7.81 29.94,-16.12 44.68,-24.92z"/>
   <g>
    <path id="path13482" class="fil12" style="mask:url(#id0)" d="M507.25 957.28c-20.22,-65.77 32.79,-51.08 50.53,-12.86 20.37,48.79 -31.76,73.89 -50.53,12.86z"/>
   </g>
  </g>
 </g>
</svg>
