<?xml version="1.0" encoding="UTF-8"?>
<!DOCTYPE svg PUBLIC "-//W3C//DTD SVG 1.1//EN" "http://www.w3.org/Graphics/SVG/1.1/DTD/svg11.dtd">
<!-- Creator: CorelDRAW -->
<svg xmlns="http://www.w3.org/2000/svg" xml:space="preserve" width="500px" height="500px" version="1.1" style="shape-rendering:geometricPrecision; text-rendering:geometricPrecision; image-rendering:optimizeQuality; fill-rule:evenodd; clip-rule:evenodd"
viewBox="0 0 13.58 13.58"
 xmlns:xlink="http://www.w3.org/1999/xlink">
 <defs>
  <style type="text/css">
   <![CDATA[
    .fil5 {fill:#05B8DE;fill-rule:nonzero}
    .fil4 {fill:#05B9DE;fill-rule:nonzero}
    .fil11 {fill:#06B5DC;fill-rule:nonzero}
    .fil10 {fill:#06B6DC;fill-rule:nonzero}
    .fil9 {fill:#06B6DD;fill-rule:nonzero}
    .fil8 {fill:#06B7DD;fill-rule:nonzero}
    .fil7 {fill:#06B7DE;fill-rule:nonzero}
    .fil6 {fill:#06B8DE;fill-rule:nonzero}
    .fil18 {fill:#07B1DA;fill-rule:nonzero}
    .fil17 {fill:#07B2DA;fill-rule:nonzero}
    .fil16 {fill:#07B2DB;fill-rule:nonzero}
    .fil15 {fill:#07B3DB;fill-rule:nonzero}
    .fil14 {fill:#07B4DB;fill-rule:nonzero}
    .fil13 {fill:#07B4DC;fill-rule:nonzero}
    .fil12 {fill:#07B5DC;fill-rule:nonzero}
    .fil24 {fill:#08AED8;fill-rule:nonzero}
    .fil23 {fill:#08AED9;fill-rule:nonzero}
    .fil22 {fill:#08AFD9;fill-rule:nonzero}
    .fil21 {fill:#08B0D9;fill-rule:nonzero}
    .fil20 {fill:#08B0DA;fill-rule:nonzero}
    .fil19 {fill:#08B1DA;fill-rule:nonzero}
    .fil30 {fill:#09AAD6;fill-rule:nonzero}
    .fil29 {fill:#09ABD6;fill-rule:nonzero}
    .fil28 {fill:#09ABD7;fill-rule:nonzero}
    .fil27 {fill:#09ACD7;fill-rule:nonzero}
    .fil26 {fill:#09ADD7;fill-rule:nonzero}
    .fil25 {fill:#09ADD8;fill-rule:nonzero}
    .fil37 {fill:#0AA6D4;fill-rule:nonzero}
    .fil36 {fill:#0AA7D4;fill-rule:nonzero}
    .fil35 {fill:#0AA7D5;fill-rule:nonzero}
    .fil34 {fill:#0AA8D5;fill-rule:nonzero}
    .fil33 {fill:#0AA9D5;fill-rule:nonzero}
    .fil32 {fill:#0AA9D6;fill-rule:nonzero}
    .fil31 {fill:#0AAAD6;fill-rule:nonzero}
    .fil43 {fill:#0BA3D2;fill-rule:nonzero}
    .fil42 {fill:#0BA4D2;fill-rule:nonzero}
    .fil41 {fill:#0BA4D3;fill-rule:nonzero}
    .fil40 {fill:#0BA5D3;fill-rule:nonzero}
    .fil39 {fill:#0BA5D4;fill-rule:nonzero}
    .fil38 {fill:#0BA6D4;fill-rule:nonzero}
    .fil3 {fill:#0CA1D1;fill-rule:nonzero}
    .fil46 {fill:#0CA2D1;fill-rule:nonzero}
    .fil45 {fill:#0CA2D2;fill-rule:nonzero}
    .fil44 {fill:#0CA3D2;fill-rule:nonzero}
    .fil52 {fill:url(#id1);fill-rule:nonzero}
    .fil47 {fill:url(#id2);fill-rule:nonzero}
    .fil2 {fill:url(#id3);fill-rule:nonzero}
    .fil48 {fill:url(#id4);fill-rule:nonzero}
    .fil0 {fill:url(#id5);fill-rule:nonzero}
    .fil1 {fill:url(#id6);fill-rule:nonzero}
    .fil51 {fill:url(#id7);fill-rule:nonzero}
    .fil49 {fill:url(#id8);fill-rule:nonzero}
    .fil50 {fill:url(#id9);fill-rule:nonzero}
   ]]>
  </style>
    <clipPath id="id0" style="clip-rule:nonzero">
     <path d="M10.39 12.55c2.34,-1.46 3.48,-4.12 3.13,-6.69 -0.35,-0.01 -0.78,-0.01 -1.31,-0.01 -2.61,0 -7.67,0 -10.22,0 -0.95,0 -1.55,0 -1.92,0 -0.22,1.53 0.08,3.13 0.96,4.54 1.99,3.18 6.17,4.15 9.36,2.16z"/>
    </clipPath>
  <radialGradient id="id1" gradientUnits="userSpaceOnUse" gradientTransform="matrix(-2.8354E+000 4.80693 -4.80693E+000 -2.8354E+000 57 -53)" cx="12.52" cy="1.78" r="1.59" fx="12.52" fy="1.78">
   <stop offset="0" style="stop-opacity:1; stop-color:#FBFFED"/>
   <stop offset="0.270588" style="stop-opacity:1; stop-color:#85A292"/>
   <stop offset="1" style="stop-opacity:1; stop-color:#0F4538"/>
  </radialGradient>
  <radialGradient id="id2" gradientUnits="userSpaceOnUse" gradientTransform="matrix(1.33438 -1.51188E+000 1.51188 1.33438 -21 -1)" cx="1.99" cy="13.45" r="5.86" fx="1.99" fy="13.45">
   <stop offset="0" style="stop-opacity:1; stop-color:#D6FAFF"/>
   <stop offset="0.639216" style="stop-opacity:0.501961; stop-color:#6CE0F4"/>
   <stop offset="1" style="stop-opacity:0; stop-color:#03C6EA"/>
  </radialGradient>
  <radialGradient id="id3" gradientUnits="userSpaceOnUse" gradientTransform="matrix(-2.7712E+000 2.64079 -2.64079E+000 -2.7712E+000 44 -41)" cx="12.88" cy="-1.89" r="4.07" fx="12.88" fy="-1.89">
   <stop offset="0" style="stop-opacity:1; stop-color:white"/>
   <stop offset="0.270588" style="stop-opacity:1; stop-color:#BDE4F3"/>
   <stop offset="1" style="stop-opacity:1; stop-color:#7CCAE8"/>
  </radialGradient>
  <radialGradient id="id4" gradientUnits="userSpaceOnUse" gradientTransform="matrix(1.35024 -1.64233E+000 1.64233 1.35024 -22 -1)" cx="2.3" cy="12.86" r="4.91" fx="2.3" fy="12.86">
   <stop offset="0" style="stop-opacity:1; stop-color:white"/>
   <stop offset="0.741176" style="stop-opacity:0.501961; stop-color:#9EF1FC"/>
   <stop offset="1" style="stop-opacity:0; stop-color:#3EE4FA"/>
  </radialGradient>
  <radialGradient id="id5" gradientUnits="userSpaceOnUse" gradientTransform="matrix(-1.38013E+000 2.30858 -2.30857E+000 -1.38013E+000 20 -27)" cx="10.05" cy="-1.63" r="6.79" fx="10.05" fy="-1.63">
   <stop offset="0" style="stop-opacity:1; stop-color:white"/>
   <stop offset="0.541176" style="stop-opacity:1; stop-color:#CEF1FE"/>
   <stop offset="1" style="stop-opacity:1; stop-color:#9DE4FE"/>
  </radialGradient>
  <radialGradient id="id6" gradientUnits="userSpaceOnUse" gradientTransform="matrix(-3.4352E+000 8.93248 -8.93252E+000 -3.43521E+000 2 -161)" cx="14.51" cy="-7.03" r="2.24" fx="14.51" fy="-7.03">
   <stop offset="0" style="stop-opacity:1; stop-color:white"/>
   <stop offset="0.270588" style="stop-opacity:1; stop-color:#D2EFFA"/>
   <stop offset="1" style="stop-opacity:1; stop-color:#A6DFF5"/>
  </radialGradient>
  <radialGradient id="id7" gradientUnits="userSpaceOnUse" gradientTransform="matrix(-2.40903E+000 2.57733 -2.57734E+000 -2.40905E+000 23 -2)" xlink:href="#id1" cx="4.69" cy="2.84" r="1.95" fx="4.69" fy="2.84">
  </radialGradient>
  <radialGradient id="id8" gradientUnits="userSpaceOnUse" gradientTransform="matrix(1.39977 -1.90536E+000 1.90536 1.39977 -29 -5)" cx="0.8" cy="15.18" r="4.44" fx="0.8" fy="15.18">
   <stop offset="0" style="stop-opacity:1; stop-color:white"/>
   <stop offset="0.858824" style="stop-opacity:0.501961; stop-color:#FBF8F0"/>
   <stop offset="1" style="stop-opacity:0; stop-color:#F8F2E1"/>
  </radialGradient>
  <radialGradient id="id9" gradientUnits="userSpaceOnUse" gradientTransform="matrix(1.49178 -2.11793E+000 2.11793 1.49179 -34 -8)" cx="0.12" cy="16.01" r="4.13" fx="0.12" fy="16.01">
   <stop offset="0" style="stop-opacity:1; stop-color:#FAF5E5"/>
   <stop offset="0.729412" style="stop-opacity:1; stop-color:#EFDFCD"/>
   <stop offset="1" style="stop-opacity:1; stop-color:#E5CAB5"/>
  </radialGradient>
 </defs>
 <g id="Layer_x0020_1">
  <metadata id="CorelCorpID_0Corel-Layer"/>
  <path id="path517" class="fil0" d="M10.39 12.55c3.18,-1.98 4.15,-6.17 2.16,-9.35 -1.98,-3.19 -6.17,-4.15 -9.35,-2.17 -3.19,1.99 -4.15,6.17 -2.17,9.36 1.99,3.18 6.17,4.15 9.36,2.16z"/>
  <path id="path517_36718" class="fil1" d="M8.25 6.12c0.18,0.02 2.35,-0.09 2.61,-0.1 0.72,-0.01 1.4,0.13 1.67,0.01 0.61,-0.29 -0.32,-0.89 -1.47,-1.3 -0.74,-0.27 -1.66,0.54 -2.48,0.56 -0.08,0 -0.32,0.71 -0.33,0.83z"/>
  <path id="path517_36719" class="fil2" d="M3.19 5.95c0.19,0.02 3.67,-0.02 3.93,-0.02 0.21,-0.01 0.69,0.01 0.83,0 0.32,0 0.71,0.03 1.06,0.01 0.36,-0.03 0.85,-0.07 1,-0.07 1.71,0.02 -0.24,-0.56 -1.6,-0.65 -0.27,-0.02 -0.68,-0.26 -1.03,-0.26 -0.49,0.01 -0.91,0.12 -1.44,0.16 -0.32,0.03 -0.93,-0.01 -1.24,-0.01 -1.04,0.01 -2.15,0.28 -2.17,0.39 -0.03,0.19 0.69,0.25 0.66,0.45z"/>
  <g>
   <g style="clip-path:url(#id0)">
    <path id="path517_36720" class="fil3" d="M-2.56 9.26l7.65 -9.91 10.47 8.08 -7.66 9.91 -10.46 -8.08z"/>
    <path id="_1" class="fil4" d="M3.02 13.58c0.87,0.68 1.04,1.93 0.36,2.8 -0.67,0.87 -1.92,1.03 -2.79,0.36 -0.87,-0.68 -1.03,-1.93 -0.36,-2.8 0.67,-0.87 1.92,-1.03 2.79,-0.36zm0.06 -0.07c-0.91,-0.7 -2.22,-0.53 -2.92,0.38 -0.7,0.91 -0.53,2.22 0.38,2.92 0.91,0.7 2.21,0.53 2.92,-0.38 0.7,-0.91 0.53,-2.22 -0.38,-2.92z"/>
    <path id="_2" class="fil4" d="M3.06 13.54c0.9,0.69 1.06,1.98 0.37,2.87 -0.69,0.9 -1.98,1.07 -2.88,0.37 -0.89,-0.69 -1.06,-1.98 -0.37,-2.87 0.7,-0.9 1.98,-1.07 2.88,-0.37zm0.06 -0.08c-0.94,-0.72 -2.28,-0.54 -3.01,0.39 -0.72,0.94 -0.55,2.28 0.39,3.01 0.94,0.72 2.28,0.55 3,-0.39 0.73,-0.94 0.55,-2.28 -0.38,-3.01z"/>
    <path id="_3" class="fil4" d="M3.1 13.49c0.92,0.71 1.09,2.04 0.38,2.96 -0.71,0.92 -2.04,1.09 -2.96,0.38 -0.93,-0.71 -1.1,-2.04 -0.38,-2.96 0.71,-0.92 2.03,-1.09 2.96,-0.38zm0.05 -0.07c-0.96,-0.75 -2.34,-0.57 -3.09,0.39 -0.74,0.97 -0.56,2.35 0.4,3.09 0.96,0.75 2.35,0.57 3.09,-0.39 0.74,-0.97 0.57,-2.35 -0.4,-3.09z"/>
    <path id="_4" class="fil5" d="M3.13 13.44c0.95,0.73 1.13,2.1 0.4,3.05 -0.74,0.95 -2.1,1.12 -3.05,0.39 -0.95,-0.73 -1.12,-2.1 -0.39,-3.05 0.73,-0.95 2.1,-1.12 3.04,-0.39zm0.06 -0.07c-0.99,-0.76 -2.41,-0.58 -3.17,0.41 -0.77,0.99 -0.58,2.41 0.41,3.17 0.98,0.76 2.41,0.58 3.17,-0.41 0.76,-0.99 0.58,-2.41 -0.41,-3.17z"/>
    <path id="_5" class="fil5" d="M3.17 13.39c0.98,0.76 1.16,2.16 0.4,3.13 -0.75,0.98 -2.15,1.16 -3.13,0.41 -0.97,-0.76 -1.15,-2.16 -0.4,-3.13 0.75,-0.98 2.16,-1.16 3.13,-0.41zm0.06 -0.07c-1.02,-0.78 -2.48,-0.59 -3.26,0.42 -0.78,1.02 -0.6,2.47 0.42,3.26 1.01,0.78 2.47,0.59 3.26,-0.42 0.78,-1.02 0.59,-2.47 -0.42,-3.26z"/>
    <path id="_6" class="fil5" d="M3.21 13.35c1,0.77 1.19,2.21 0.41,3.21 -0.77,1 -2.21,1.19 -3.21,0.41 -1.01,-0.77 -1.19,-2.21 -0.42,-3.21 0.78,-1 2.22,-1.19 3.22,-0.41zm0.05 -0.08c-1.04,-0.8 -2.53,-0.61 -3.34,0.43 -0.8,1.05 -0.61,2.54 0.43,3.35 1.04,0.8 2.54,0.61 3.34,-0.43 0.81,-1.05 0.62,-2.54 -0.43,-3.35z"/>
    <path id="_7" class="fil6" d="M3.25 13.3c1.02,0.79 1.21,2.27 0.42,3.3 -0.79,1.03 -2.27,1.22 -3.3,0.42 -1.03,-0.79 -1.22,-2.27 -0.42,-3.3 0.79,-1.03 2.27,-1.22 3.3,-0.42zm0.05 -0.07c-1.07,-0.83 -2.6,-0.63 -3.43,0.44 -0.82,1.07 -0.62,2.6 0.44,3.42 1.07,0.83 2.61,0.63 3.43,-0.44 0.83,-1.06 0.63,-2.6 -0.44,-3.42z"/>
    <path id="_8" class="fil6" d="M3.28 13.25c1.06,0.81 1.25,2.33 0.44,3.38 -0.82,1.06 -2.33,1.25 -3.39,0.44 -1.05,-0.81 -1.25,-2.33 -0.43,-3.38 0.81,-1.06 2.33,-1.25 3.38,-0.44zm0.06 -0.07c-1.1,-0.85 -2.67,-0.64 -3.51,0.45 -0.85,1.09 -0.65,2.67 0.45,3.51 1.09,0.85 2.66,0.64 3.51,-0.45 0.84,-1.09 0.64,-2.67 -0.45,-3.51z"/>
    <path id="_9" class="fil6" d="M3.32 13.2c1.08,0.84 1.28,2.39 0.45,3.47 -0.84,1.08 -2.39,1.28 -3.47,0.45 -1.09,-0.84 -1.29,-2.39 -0.45,-3.47 0.83,-1.08 2.39,-1.28 3.47,-0.45zm0.05 -0.07c-1.12,-0.86 -2.73,-0.66 -3.59,0.46 -0.87,1.12 -0.66,2.73 0.46,3.6 1.12,0.87 2.73,0.66 3.6,-0.46 0.86,-1.12 0.66,-2.73 -0.47,-3.6z"/>
    <path id="_10" class="fil6" d="M3.36 13.15c1.1,0.86 1.31,2.45 0.45,3.56 -0.85,1.11 -2.44,1.31 -3.55,0.46 -1.11,-0.86 -1.31,-2.45 -0.46,-3.56 0.86,-1.11 2.45,-1.31 3.56,-0.46zm0.05 -0.07c-1.15,-0.88 -2.79,-0.67 -3.68,0.48 -0.89,1.14 -0.67,2.79 0.47,3.68 1.15,0.88 2.8,0.67 3.69,-0.48 0.88,-1.14 0.67,-2.79 -0.48,-3.68z"/>
    <path id="_11" class="fil6" d="M3.39 13.11c1.14,0.87 1.35,2.5 0.47,3.64 -0.87,1.13 -2.5,1.34 -3.64,0.46 -1.13,-0.87 -1.34,-2.5 -0.47,-3.64 0.88,-1.13 2.51,-1.34 3.64,-0.46zm0.06 -0.07c-1.18,-0.91 -2.86,-0.69 -3.77,0.48 -0.9,1.17 -0.69,2.86 0.49,3.77 1.17,0.9 2.86,0.68 3.76,-0.49 0.91,-1.17 0.69,-2.86 -0.48,-3.76z"/>
    <path id="_12" class="fil6" d="M3.43 13.06c1.16,0.89 1.37,2.56 0.48,3.72 -0.9,1.16 -2.56,1.38 -3.72,0.48 -1.16,-0.89 -1.38,-2.56 -0.48,-3.72 0.89,-1.16 2.56,-1.38 3.72,-0.48zm0.06 -0.07c-1.2,-0.93 -2.93,-0.71 -3.86,0.49 -0.92,1.2 -0.7,2.93 0.5,3.85 1.2,0.93 2.92,0.71 3.85,-0.49 0.93,-1.2 0.71,-2.93 -0.49,-3.85z"/>
    <path id="_13" class="fil6" d="M3.47 13.01c1.18,0.92 1.4,2.62 0.49,3.81 -0.92,1.19 -2.62,1.41 -3.81,0.49 -1.19,-0.92 -1.41,-2.62 -0.49,-3.81 0.91,-1.19 2.62,-1.41 3.81,-0.49zm0.05 -0.07c-1.22,-0.95 -2.99,-0.72 -3.93,0.51 -0.95,1.22 -0.72,2.98 0.5,3.93 1.23,0.95 2.99,0.72 3.94,-0.51 0.95,-1.22 0.72,-2.98 -0.51,-3.93z"/>
    <path id="_14" class="fil6" d="M3.5 12.96c1.22,0.94 1.44,2.68 0.5,3.9 -0.93,1.21 -2.67,1.43 -3.89,0.5 -1.21,-0.94 -1.44,-2.68 -0.5,-3.9 0.94,-1.21 2.68,-1.43 3.89,-0.5zm0.06 -0.07c-1.25,-0.97 -3.05,-0.73 -4.02,0.52 -0.97,1.25 -0.74,3.05 0.52,4.02 1.25,0.97 3.05,0.73 4.02,-0.52 0.96,-1.25 0.73,-3.05 -0.52,-4.02z"/>
    <path id="_15" class="fil7" d="M3.54 12.92c1.24,0.95 1.47,2.73 0.51,3.97 -0.95,1.24 -2.74,1.47 -3.97,0.51 -1.24,-0.95 -1.47,-2.73 -0.52,-3.97 0.96,-1.24 2.74,-1.47 3.98,-0.51zm0.06 -0.08c-1.28,-0.98 -3.12,-0.75 -4.11,0.53 -0.99,1.28 -0.75,3.12 0.53,4.11 1.28,0.98 3.12,0.75 4.1,-0.53 0.99,-1.28 0.75,-3.12 -0.52,-4.11z"/>
    <path id="_16" class="fil7" d="M3.58 12.87c1.26,0.98 1.5,2.79 0.52,4.06 -0.98,1.27 -2.8,1.5 -4.06,0.52 -1.27,-0.97 -1.5,-2.79 -0.52,-4.06 0.97,-1.27 2.79,-1.5 4.06,-0.52zm0.05 -0.07c-1.3,-1.01 -3.18,-0.77 -4.19,0.54 -1,1.3 -0.76,3.18 0.54,4.18 1.31,1.01 3.18,0.77 4.19,-0.54 1.01,-1.3 0.77,-3.18 -0.54,-4.18z"/>
    <path id="_17" class="fil8" d="M3.61 12.82c1.3,1 1.54,2.85 0.54,4.15 -1,1.29 -2.86,1.53 -4.15,0.53 -1.29,-1 -1.53,-2.85 -0.53,-4.15 1,-1.29 2.85,-1.53 4.14,-0.53zm0.06 -0.07c-1.33,-1.03 -3.25,-0.78 -4.27,0.55 -1.03,1.33 -0.79,3.24 0.55,4.27 1.33,1.03 3.24,0.78 4.27,-0.55 1.03,-1.33 0.78,-3.24 -0.55,-4.27z"/>
    <path id="_18" class="fil8" d="M3.65 12.77c1.32,1.02 1.56,2.91 0.55,4.23 -1.02,1.32 -2.92,1.57 -4.24,0.55 -1.31,-1.02 -1.56,-2.91 -0.54,-4.23 1.02,-1.32 2.91,-1.57 4.23,-0.55zm0.06 -0.07c-1.36,-1.05 -3.31,-0.8 -4.36,0.56 -1.05,1.36 -0.8,3.31 0.56,4.36 1.36,1.05 3.31,0.8 4.36,-0.56 1.05,-1.36 0.79,-3.31 -0.56,-4.36z"/>
    <path id="_19" class="fil8" d="M3.69 12.72c1.34,1.04 1.59,2.98 0.55,4.32 -1.04,1.35 -2.97,1.59 -4.31,0.56 -1.35,-1.04 -1.6,-2.97 -0.56,-4.32 1.04,-1.35 2.97,-1.59 4.32,-0.56zm0.05 -0.07c-1.38,-1.07 -3.37,-0.81 -4.44,0.57 -1.07,1.39 -0.81,3.38 0.57,4.45 1.39,1.07 3.38,0.81 4.44,-0.57 1.07,-1.39 0.82,-3.38 -0.57,-4.45z"/>
    <path id="_20" class="fil8" d="M3.72 12.68c1.38,1.06 1.63,3.03 0.57,4.4 -1.06,1.37 -3.03,1.62 -4.4,0.56 -1.37,-1.06 -1.62,-3.03 -0.57,-4.4 1.06,-1.37 3.03,-1.62 4.4,-0.56zm0.06 -0.07c-1.41,-1.09 -3.44,-0.83 -4.53,0.58 -1.09,1.41 -0.83,3.44 0.59,4.53 1.41,1.08 3.43,0.82 4.52,-0.59 1.09,-1.41 0.83,-3.44 -0.58,-4.52z"/>
    <path id="_21" class="fil8" d="M3.76 12.63c1.4,1.08 1.66,3.09 0.58,4.48 -1.08,1.4 -3.09,1.66 -4.49,0.58 -1.39,-1.08 -1.65,-3.09 -0.57,-4.48 1.08,-1.4 3.08,-1.66 4.48,-0.58zm0.06 -0.07c-1.44,-1.11 -3.51,-0.85 -4.61,0.59 -1.11,1.44 -0.85,3.5 0.59,4.61 1.44,1.11 3.5,0.85 4.61,-0.59 1.11,-1.44 0.84,-3.5 -0.59,-4.61z"/>
    <path id="_22" class="fil8" d="M3.8 12.58c1.42,1.1 1.69,3.15 0.59,4.57 -1.1,1.43 -3.15,1.69 -4.57,0.59 -1.43,-1.1 -1.69,-3.15 -0.59,-4.57 1.1,-1.42 3.14,-1.69 4.57,-0.59zm0.05 -0.07c-1.46,-1.13 -3.56,-0.86 -4.69,0.6 -1.13,1.47 -0.86,3.57 0.6,4.7 1.47,1.13 3.57,0.86 4.7,-0.6 1.13,-1.47 0.86,-3.57 -0.61,-4.7z"/>
    <path id="_23" class="fil8" d="M3.84 12.53c1.45,1.12 1.71,3.21 0.59,4.66 -1.12,1.45 -3.2,1.72 -4.65,0.6 -1.45,-1.12 -1.72,-3.21 -0.6,-4.66 1.12,-1.45 3.2,-1.72 4.66,-0.6zm0.05 -0.07c-1.49,-1.15 -3.63,-0.87 -4.78,0.62 -1.15,1.49 -0.88,3.63 0.61,4.78 1.49,1.15 3.64,0.87 4.79,-0.62 1.15,-1.49 0.87,-3.63 -0.62,-4.78z"/>
    <path id="_24" class="fil8" d="M3.87 12.49c1.48,1.14 1.75,3.26 0.61,4.73 -1.14,1.48 -3.26,1.75 -4.74,0.61 -1.47,-1.14 -1.75,-3.26 -0.61,-4.73 1.14,-1.48 3.27,-1.75 4.74,-0.61zm0.06 -0.08c-1.52,-1.17 -3.7,-0.89 -4.87,0.63 -1.17,1.52 -0.89,3.7 0.63,4.87 1.51,1.17 3.69,0.89 4.86,-0.63 1.17,-1.52 0.89,-3.7 -0.62,-4.87z"/>
    <path id="_25" class="fil9" d="M3.91 12.44c1.5,1.16 1.78,3.32 0.62,4.82 -1.16,1.5 -3.32,1.78 -4.82,0.62 -1.51,-1.16 -1.78,-3.32 -0.62,-4.82 1.16,-1.5 3.32,-1.78 4.82,-0.62zm0.05 -0.07c-1.54,-1.19 -3.75,-0.91 -4.95,0.63 -1.19,1.55 -0.9,3.76 0.64,4.95 1.54,1.19 3.76,0.91 4.95,-0.63 1.19,-1.55 0.91,-3.76 -0.64,-4.95z"/>
    <path id="_26" class="fil9" d="M3.95 12.39c1.53,1.18 1.81,3.38 0.63,4.91 -1.18,1.53 -3.38,1.81 -4.91,0.63 -1.53,-1.18 -1.81,-3.38 -0.63,-4.91 1.18,-1.53 3.38,-1.81 4.91,-0.63zm0.05 -0.07c-1.57,-1.21 -3.82,-0.92 -5.03,0.65 -1.22,1.57 -0.93,3.82 0.64,5.03 1.57,1.21 3.83,0.92 5.04,-0.65 1.21,-1.57 0.92,-3.82 -0.65,-5.03z"/>
    <path id="_27" class="fil9" d="M3.98 12.34c1.56,1.2 1.85,3.44 0.65,5 -1.21,1.55 -3.44,1.84 -5,0.64 -1.55,-1.2 -1.84,-3.44 -0.64,-4.99 1.2,-1.56 3.44,-1.85 4.99,-0.65zm0.06 -0.07c-1.6,-1.23 -3.89,-0.94 -5.12,0.66 -1.23,1.6 -0.94,3.89 0.66,5.12 1.59,1.23 3.89,0.94 5.12,-0.66 1.23,-1.6 0.93,-3.89 -0.66,-5.12z"/>
    <path id="_28" class="fil9" d="M4.02 12.29c1.58,1.23 1.87,3.5 0.65,5.08 -1.22,1.58 -3.49,1.88 -5.07,0.66 -1.59,-1.23 -1.88,-3.5 -0.66,-5.08 1.22,-1.58 3.5,-1.88 5.08,-0.66zm0.05 -0.07c-1.62,-1.25 -3.95,-0.95 -5.2,0.67 -1.25,1.62 -0.95,3.95 0.67,5.21 1.62,1.25 3.95,0.95 5.2,-0.67 1.26,-1.62 0.96,-3.95 -0.67,-5.21z"/>
    <path id="_29" class="fil9" d="M4.06 12.25c1.61,1.24 1.9,3.55 0.66,5.16 -1.24,1.61 -3.55,1.91 -5.16,0.66 -1.61,-1.24 -1.91,-3.55 -0.67,-5.16 1.25,-1.61 3.56,-1.9 5.17,-0.66zm0.05 -0.07c-1.65,-1.28 -4.01,-0.97 -5.29,0.68 -1.27,1.64 -0.96,4.01 0.68,5.28 1.65,1.28 4.02,0.97 5.29,-0.68 1.27,-1.64 0.97,-4.01 -0.68,-5.28z"/>
    <path id="_30" class="fil9" d="M4.09 12.2c1.64,1.26 1.94,3.61 0.68,5.25 -1.26,1.63 -3.61,1.93 -5.25,0.67 -1.63,-1.26 -1.94,-3.61 -0.67,-5.25 1.26,-1.63 3.61,-1.93 5.24,-0.67zm0.06 -0.07c-1.68,-1.3 -4.08,-0.99 -5.37,0.69 -1.3,1.67 -0.99,4.08 0.69,5.37 1.67,1.3 4.08,0.99 5.37,-0.69 1.29,-1.67 0.98,-4.08 -0.69,-5.37z"/>
    <path id="_31" class="fil9" d="M4.13 12.15c1.66,1.28 1.97,3.67 0.69,5.33 -1.29,1.66 -3.67,1.97 -5.33,0.69 -1.67,-1.28 -1.97,-3.67 -0.69,-5.33 1.28,-1.66 3.67,-1.97 5.33,-0.69zm0.06 -0.07c-1.71,-1.31 -4.15,-1 -5.46,0.7 -1.32,1.7 -1,4.15 0.7,5.46 1.7,1.31 4.14,1 5.46,-0.7 1.31,-1.7 1,-4.15 -0.7,-5.46z"/>
    <path id="_32" class="fil9" d="M4.17 12.1c1.69,1.31 2,3.73 0.69,5.42 -1.3,1.69 -3.72,2 -5.41,0.7 -1.69,-1.31 -2,-3.73 -0.7,-5.42 1.3,-1.69 3.73,-2 5.42,-0.7zm0.05 -0.07c-1.73,-1.33 -4.21,-1.01 -5.54,0.72 -1.33,1.72 -1.01,4.2 0.71,5.54 1.73,1.33 4.21,1.01 5.55,-0.72 1.33,-1.72 1.01,-4.2 -0.72,-5.54z"/>
    <path id="_33" class="fil10" d="M4.2 12.06c1.72,1.32 2.04,3.78 0.71,5.5 -1.32,1.71 -3.78,2.03 -5.5,0.7 -1.71,-1.32 -2.03,-3.78 -0.71,-5.5 1.33,-1.71 3.79,-2.03 5.5,-0.7zm0.06 -0.08c-1.75,-1.35 -4.27,-1.03 -5.63,0.73 -1.35,1.75 -1.03,4.27 0.73,5.63 1.75,1.35 4.27,1.03 5.62,-0.73 1.36,-1.75 1.03,-4.27 -0.72,-5.63z"/>
    <path id="_34" class="fil11" d="M4.24 12.01c1.74,1.34 2.06,3.84 0.72,5.58 -1.34,1.74 -3.84,2.07 -5.59,0.72 -1.74,-1.34 -2.06,-3.84 -0.71,-5.58 1.34,-1.74 3.84,-2.07 5.58,-0.72zm0.06 -0.07c-1.78,-1.38 -4.34,-1.05 -5.72,0.73 -1.37,1.78 -1.04,4.34 0.74,5.71 1.78,1.38 4.34,1.05 5.71,-0.73 1.38,-1.78 1.05,-4.34 -0.73,-5.71z"/>
    <path id="_35" class="fil11" d="M4.28 11.96c1.76,1.36 2.09,3.9 0.73,5.67 -1.37,1.77 -3.91,2.09 -5.67,0.73 -1.77,-1.36 -2.1,-3.9 -0.73,-5.67 1.36,-1.77 3.9,-2.09 5.67,-0.73zm0.05 -0.07c-1.8,-1.4 -4.4,-1.06 -5.79,0.74 -1.4,1.81 -1.06,4.41 0.74,5.8 1.81,1.4 4.4,1.06 5.8,-0.74 1.39,-1.81 1.06,-4.41 -0.75,-5.8z"/>
    <path id="_36" class="fil11" d="M4.31 11.91c1.8,1.39 2.13,3.96 0.75,5.76 -1.39,1.79 -3.97,2.12 -5.76,0.74 -1.79,-1.39 -2.12,-3.96 -0.74,-5.76 1.38,-1.79 3.96,-2.12 5.75,-0.74zm0.06 -0.07c-1.83,-1.41 -4.47,-1.08 -5.88,0.76 -1.42,1.83 -1.08,4.46 0.76,5.88 1.83,1.41 4.46,1.08 5.88,-0.76 1.41,-1.83 1.07,-4.46 -0.76,-5.88z"/>
    <path id="_37" class="fil11" d="M4.35 11.86c1.82,1.41 2.16,4.02 0.75,5.84 -1.4,1.82 -4.02,2.16 -5.84,0.76 -1.82,-1.41 -2.15,-4.02 -0.75,-5.84 1.41,-1.82 4.02,-2.16 5.84,-0.76zm0.06 -0.07c-1.86,-1.43 -4.53,-1.09 -5.97,0.77 -1.43,1.86 -1.09,4.53 0.77,5.97 1.86,1.43 4.53,1.09 5.96,-0.77 1.44,-1.86 1.1,-4.53 -0.76,-5.97z"/>
    <path id="_38" class="fil11" d="M4.39 11.82c1.84,1.42 2.19,4.07 0.76,5.92 -1.42,1.85 -4.08,2.19 -5.92,0.76 -1.85,-1.42 -2.19,-4.07 -0.77,-5.92 1.43,-1.85 4.08,-2.19 5.93,-0.76zm0.05 -0.07c-1.88,-1.46 -4.59,-1.11 -6.05,0.77 -1.45,1.89 -1.1,4.6 0.78,6.05 1.89,1.46 4.6,1.11 6.05,-0.77 1.46,-1.89 1.11,-4.6 -0.78,-6.05z"/>
    <path id="_39" class="fil11" d="M4.43 11.77c1.87,1.45 2.21,4.13 0.77,6.01 -1.45,1.87 -4.14,2.22 -6.01,0.77 -1.87,-1.44 -2.22,-4.13 -0.77,-6.01 1.44,-1.87 4.13,-2.22 6.01,-0.77zm0.05 -0.07c-1.91,-1.48 -4.66,-1.12 -6.13,0.79 -1.48,1.91 -1.13,4.66 0.78,6.13 1.92,1.48 4.66,1.13 6.14,-0.79 1.48,-1.91 1.12,-4.66 -0.79,-6.13z"/>
    <path id="_40" class="fil12" d="M4.46 11.72c1.9,1.47 2.25,4.2 0.79,6.09 -1.47,1.9 -4.2,2.25 -6.1,0.79 -1.9,-1.47 -2.25,-4.2 -0.78,-6.09 1.47,-1.9 4.19,-2.25 6.09,-0.79zm0.06 -0.07c-1.94,-1.5 -4.73,-1.14 -6.22,0.8 -1.5,1.94 -1.14,4.72 0.8,6.22 1.94,1.5 4.72,1.14 6.22,-0.8 1.49,-1.94 1.14,-4.72 -0.8,-6.22z"/>
    <path id="_41" class="fil12" d="M4.5 11.67c1.92,1.49 2.28,4.26 0.79,6.18 -1.48,1.93 -4.25,2.28 -6.17,0.8 -1.93,-1.49 -2.28,-4.26 -0.8,-6.18 1.49,-1.93 4.25,-2.28 6.18,-0.8zm0.05 -0.07c-1.96,-1.51 -4.78,-1.15 -6.3,0.81 -1.52,1.97 -1.15,4.79 0.81,6.31 1.97,1.51 4.79,1.15 6.31,-0.81 1.51,-1.97 1.15,-4.79 -0.82,-6.31z"/>
    <path id="_42" class="fil13" d="M4.54 11.63c1.95,1.5 2.31,4.31 0.8,6.26 -1.51,1.95 -4.31,2.31 -6.26,0.8 -1.95,-1.5 -2.31,-4.31 -0.81,-6.26 1.51,-1.95 4.31,-2.31 6.27,-0.8zm0.05 -0.08c-1.99,-1.53 -4.85,-1.16 -6.39,0.83 -1.54,1.99 -1.17,4.85 0.82,6.39 2,1.53 4.86,1.16 6.39,-0.83 1.54,-1.99 1.17,-4.85 -0.82,-6.39z"/>
    <path id="_43" class="fil13" d="M4.57 11.58c1.98,1.53 2.35,4.37 0.82,6.35 -1.53,1.97 -4.37,2.34 -6.35,0.81 -1.98,-1.53 -2.34,-4.37 -0.81,-6.34 1.52,-1.98 4.36,-2.35 6.34,-0.82zm0.06 -0.07c-2.02,-1.56 -4.92,-1.19 -6.48,0.83 -1.55,2.02 -1.18,4.92 0.84,6.47 2.02,1.56 4.91,1.19 6.47,-0.83 1.56,-2.02 1.19,-4.92 -0.83,-6.47z"/>
    <path id="_44" class="fil13" d="M4.61 11.53c2,1.55 2.37,4.43 0.83,6.43 -1.55,2.01 -4.43,2.38 -6.43,0.83 -2.01,-1.55 -2.38,-4.43 -0.83,-6.43 1.55,-2.01 4.43,-2.38 6.43,-0.83zm0.05 -0.07c-2.04,-1.58 -4.98,-1.2 -6.55,0.84 -1.58,2.05 -1.2,4.98 0.84,6.56 2.04,1.58 4.98,1.2 6.56,-0.84 1.58,-2.05 1.2,-4.98 -0.85,-6.56z"/>
    <path id="_45" class="fil13" d="M4.65 11.48c2.03,1.57 2.4,4.49 0.83,6.52 -1.56,2.03 -4.48,2.41 -6.51,0.84 -2.03,-1.57 -2.41,-4.49 -0.84,-6.52 1.57,-2.03 4.49,-2.4 6.52,-0.84zm0.05 -0.07c-2.07,-1.6 -5.04,-1.21 -6.64,0.86 -1.6,2.07 -1.22,5.04 0.85,6.64 2.07,1.6 5.05,1.21 6.65,-0.86 1.59,-2.07 1.21,-5.04 -0.86,-6.64z"/>
    <path id="_46" class="fil13" d="M4.68 11.44c2.06,1.58 2.44,4.54 0.85,6.6 -1.59,2.05 -4.54,2.43 -6.6,0.85 -2.06,-1.59 -2.44,-4.55 -0.85,-6.61 1.59,-2.05 4.55,-2.43 6.6,-0.84zm0.06 -0.08c-2.1,-1.62 -5.11,-1.23 -6.73,0.87 -1.62,2.1 -1.23,5.11 0.87,6.73 2.09,1.62 5.11,1.23 6.72,-0.87 1.62,-2.1 1.24,-5.11 -0.86,-6.73z"/>
    <path id="_47" class="fil14" d="M4.72 11.39c2.08,1.61 2.47,4.6 0.86,6.68 -1.61,2.09 -4.6,2.47 -6.68,0.86 -2.09,-1.61 -2.47,-4.6 -0.86,-6.68 1.6,-2.09 4.6,-2.47 6.68,-0.86zm0.06 -0.07c-2.13,-1.64 -5.18,-1.25 -6.82,0.87 -1.64,2.13 -1.24,5.18 0.88,6.81 2.12,1.64 5.17,1.25 6.81,-0.87 1.64,-2.13 1.25,-5.18 -0.87,-6.81z"/>
    <path id="_48" class="fil14" d="M4.76 11.34c2.11,1.63 2.5,4.66 0.87,6.77 -1.63,2.11 -4.66,2.5 -6.77,0.87 -2.11,-1.63 -2.5,-4.66 -0.87,-6.77 1.63,-2.11 4.66,-2.5 6.77,-0.87zm0.05 -0.07c-2.15,-1.66 -5.23,-1.26 -6.89,0.89 -1.66,2.15 -1.27,5.23 0.88,6.89 2.15,1.66 5.24,1.26 6.9,-0.89 1.66,-2.14 1.26,-5.23 -0.89,-6.89z"/>
    <path id="_49" class="fil15" d="M4.79 11.29c2.14,1.65 2.54,4.72 0.89,6.86 -1.65,2.13 -4.72,2.53 -6.86,0.88 -2.13,-1.65 -2.53,-4.72 -0.88,-6.86 1.65,-2.13 4.72,-2.53 6.85,-0.88zm0.06 -0.07c-2.18,-1.68 -5.3,-1.28 -6.98,0.9 -1.68,2.17 -1.28,5.3 0.9,6.98 2.17,1.68 5.3,1.28 6.98,-0.9 1.68,-2.17 1.28,-5.3 -0.9,-6.98z"/>
    <path id="_50" class="fil15" d="M4.83 11.24c2.16,1.67 2.56,4.78 0.89,6.94 -1.67,2.17 -4.77,2.57 -6.94,0.9 -2.16,-1.67 -2.56,-4.78 -0.89,-6.94 1.67,-2.17 4.78,-2.57 6.94,-0.9zm0.06 -0.07c-2.21,-1.7 -5.37,-1.29 -7.07,0.91 -1.7,2.2 -1.29,5.37 0.91,7.07 2.2,1.7 5.37,1.29 7.07,-0.91 1.7,-2.2 1.29,-5.37 -0.91,-7.07z"/>
    <path id="_51" class="fil15" d="M4.87 11.2c2.19,1.69 2.59,4.83 0.9,7.02 -1.69,2.19 -4.83,2.59 -7.02,0.9 -2.19,-1.69 -2.6,-4.83 -0.91,-7.02 1.69,-2.19 4.84,-2.59 7.03,-0.9zm0.05 -0.08c-2.23,-1.72 -5.43,-1.3 -7.15,0.92 -1.72,2.23 -1.31,5.44 0.92,7.16 2.23,1.72 5.43,1.3 7.15,-0.92 1.72,-2.23 1.31,-5.43 -0.92,-7.16z"/>
    <path id="_52" class="fil15" d="M4.9 11.15c2.22,1.71 2.63,4.89 0.92,7.11 -1.71,2.21 -4.89,2.62 -7.11,0.91 -2.21,-1.71 -2.62,-4.89 -0.91,-7.11 1.71,-2.21 4.89,-2.62 7.1,-0.91zm0.06 -0.07c-2.26,-1.74 -5.49,-1.33 -7.24,0.93 -1.74,2.25 -1.32,5.49 0.94,7.23 2.25,1.74 5.49,1.33 7.23,-0.93 1.74,-2.25 1.32,-5.49 -0.93,-7.23z"/>
    <path id="_53" class="fil15" d="M4.94 11.1c2.24,1.73 2.66,4.95 0.93,7.19 -1.73,2.25 -4.95,2.66 -7.2,0.93 -2.24,-1.73 -2.65,-4.95 -0.92,-7.19 1.73,-2.25 4.95,-2.66 7.19,-0.93zm0.06 -0.07c-2.28,-1.76 -5.56,-1.34 -7.32,0.94 -1.76,2.28 -1.34,5.56 0.94,7.32 2.28,1.76 5.56,1.34 7.32,-0.94 1.76,-2.28 1.34,-5.56 -0.94,-7.32z"/>
    <path id="_54" class="fil15" d="M4.98 11.05c2.27,1.75 2.69,5.01 0.93,7.28 -1.75,2.27 -5,2.69 -7.27,0.94 -2.27,-1.75 -2.69,-5.01 -0.94,-7.28 1.75,-2.27 5.01,-2.69 7.28,-0.94zm0.05 -0.07c-2.3,-1.78 -5.62,-1.35 -7.4,0.95 -1.78,2.31 -1.36,5.63 0.95,7.41 2.31,1.78 5.62,1.35 7.41,-0.95 1.78,-2.31 1.35,-5.63 -0.96,-7.41z"/>
    <path id="_55" class="fil15" d="M5.02 11.01c2.29,1.77 2.71,5.06 0.94,7.36 -1.77,2.29 -5.06,2.72 -7.36,0.94 -2.29,-1.77 -2.72,-5.06 -0.95,-7.36 1.77,-2.29 5.07,-2.72 7.37,-0.94zm0.05 -0.08c-2.33,-1.8 -5.69,-1.37 -7.49,0.97 -1.8,2.33 -1.37,5.68 0.97,7.49 2.33,1.8 5.68,1.37 7.48,-0.97 1.81,-2.33 1.37,-5.68 -0.96,-7.49z"/>
    <path id="_56" class="fil16" d="M5.05 10.96c2.32,1.79 2.75,5.12 0.96,7.44 -1.79,2.33 -5.13,2.75 -7.45,0.96 -2.32,-1.79 -2.75,-5.12 -0.95,-7.44 1.79,-2.33 5.12,-2.75 7.44,-0.96zm0.06 -0.07c-2.36,-1.83 -5.75,-1.39 -7.58,0.97 -1.82,2.36 -1.38,5.75 0.98,7.57 2.36,1.83 5.75,1.39 7.57,-0.97 1.82,-2.36 1.39,-5.75 -0.97,-7.57z"/>
    <path id="_57" class="fil16" d="M5.09 10.91c2.35,1.81 2.78,5.18 0.97,7.53 -1.81,2.35 -5.19,2.78 -7.53,0.97 -2.35,-1.81 -2.78,-5.18 -0.97,-7.53 1.81,-2.35 5.18,-2.78 7.53,-0.97zm0.05 -0.07c-2.38,-1.84 -5.81,-1.4 -7.65,0.98 -1.85,2.39 -1.41,5.82 0.98,7.66 2.39,1.84 5.82,1.4 7.66,-0.98 1.84,-2.39 1.4,-5.82 -0.99,-7.66z"/>
    <path id="_58" class="fil16" d="M5.13 10.86c2.37,1.83 2.81,5.24 0.98,7.62 -1.84,2.37 -5.25,2.81 -7.62,0.98 -2.37,-1.83 -2.81,-5.24 -0.98,-7.62 1.83,-2.37 5.24,-2.81 7.62,-0.98zm0.05 -0.07c-2.41,-1.86 -5.88,-1.42 -7.74,1 -1.86,2.41 -1.42,5.88 0.99,7.74 2.42,1.86 5.88,1.42 7.75,-1 1.86,-2.41 1.41,-5.88 -1,-7.74z"/>
    <path id="_59" class="fil16" d="M5.16 10.81c2.4,1.86 2.85,5.3 0.99,7.7 -1.85,2.41 -5.3,2.85 -7.7,1 -2.4,-1.86 -2.84,-5.3 -0.99,-7.7 1.85,-2.4 5.3,-2.85 7.7,-1zm0.06 -0.07c-2.44,-1.88 -5.95,-1.43 -7.83,1.01 -1.88,2.44 -1.43,5.94 1.01,7.83 2.44,1.88 5.94,1.43 7.83,-1.01 1.88,-2.44 1.43,-5.94 -1.01,-7.83z"/>
    <path id="_60" class="fil17" d="M5.2 10.77c2.43,1.87 2.87,5.36 1,7.78 -1.87,2.43 -5.36,2.88 -7.78,1 -2.43,-1.87 -2.88,-5.36 -1.01,-7.78 1.88,-2.43 5.36,-2.88 7.79,-1zm0.05 -0.08c-2.46,-1.9 -6,-1.44 -7.91,1.02 -1.9,2.47 -1.45,6.01 1.02,7.92 2.47,1.9 6.01,1.44 7.91,-1.02 1.91,-2.47 1.45,-6.01 -1.02,-7.92z"/>
    <path id="_61" class="fil17" d="M5.24 10.72c2.45,1.89 2.9,5.42 1.01,7.87 -1.89,2.45 -5.42,2.9 -7.87,1.01 -2.45,-1.89 -2.91,-5.42 -1.01,-7.87 1.89,-2.45 5.41,-2.9 7.87,-1.01zm0.05 -0.07c-2.49,-1.93 -6.07,-1.47 -8,1.03 -1.92,2.49 -1.46,6.07 1.03,7.99 2.5,1.93 6.08,1.47 8,-1.03 1.92,-2.49 1.46,-6.07 -1.03,-7.99z"/>
    <path id="_62" class="fil17" d="M5.27 10.67c2.48,1.91 2.94,5.48 1.03,7.96 -1.92,2.47 -5.48,2.93 -7.96,1.02 -2.48,-1.91 -2.94,-5.48 -1.02,-7.96 1.91,-2.47 5.47,-2.93 7.95,-1.02zm0.06 -0.07c-2.52,-1.94 -6.14,-1.48 -8.08,1.04 -1.95,2.52 -1.48,6.14 1.04,8.08 2.52,1.95 6.13,1.48 8.08,-1.04 1.94,-2.52 1.48,-6.14 -1.04,-8.08z"/>
    <path id="_63" class="fil17" d="M5.31 10.62c2.51,1.94 2.97,5.54 1.03,8.04 -1.93,2.51 -5.53,2.97 -8.03,1.04 -2.51,-1.94 -2.97,-5.54 -1.04,-8.04 1.94,-2.51 5.53,-2.97 8.04,-1.04zm0.06 -0.07c-2.55,-1.96 -6.21,-1.49 -8.17,1.05 -1.97,2.55 -1.49,6.2 1.05,8.17 2.55,1.96 6.2,1.49 8.17,-1.05 1.96,-2.55 1.49,-6.2 -1.05,-8.17z"/>
    <path id="_64" class="fil18" d="M5.35 10.58c2.53,1.95 3,5.59 1.04,8.12 -1.95,2.53 -5.59,3 -8.12,1.04 -2.53,-1.95 -3,-5.59 -1.05,-8.12 1.96,-2.53 5.59,-3 8.13,-1.04zm0.05 -0.08c-2.57,-1.98 -6.26,-1.51 -8.25,1.07 -1.98,2.57 -1.51,6.26 1.06,8.25 2.57,1.98 6.27,1.51 8.25,-1.07 1.99,-2.57 1.51,-6.26 -1.06,-8.25z"/>
    <path id="_65" class="fil18" d="M5.38 10.53c2.56,1.97 3.03,5.65 1.06,8.21 -1.97,2.55 -5.65,3.03 -8.21,1.05 -2.56,-1.97 -3.03,-5.65 -1.05,-8.21 1.97,-2.55 5.65,-3.03 8.2,-1.05zm0.06 -0.07c-2.6,-2.01 -6.33,-1.53 -8.34,1.07 -2,2.6 -1.52,6.33 1.08,8.33 2.59,2.01 6.33,1.53 8.33,-1.07 2.01,-2.6 1.53,-6.33 -1.07,-8.33z"/>
    <path id="_66" class="fil18" d="M5.42 10.48c2.59,2 3.06,5.71 1.07,8.29 -2,2.59 -5.71,3.07 -8.3,1.07 -2.58,-2 -3.06,-5.71 -1.06,-8.29 1.99,-2.59 5.71,-3.07 8.29,-1.07zm0.06 -0.07c-2.63,-2.03 -6.4,-1.54 -8.42,1.08 -2.03,2.63 -1.54,6.4 1.08,8.42 2.62,2.03 6.39,1.54 8.42,-1.08 2.03,-2.63 1.54,-6.4 -1.08,-8.42z"/>
    <path id="_67" class="fil19" d="M5.46 10.43c2.61,2.02 3.09,5.77 1.08,8.38 -2.02,2.61 -5.77,3.09 -8.38,1.08 -2.61,-2.02 -3.1,-5.77 -1.08,-8.38 2.02,-2.61 5.77,-3.09 8.38,-1.08zm0.05 -0.07c-2.65,-2.05 -6.46,-1.56 -8.5,1.1 -2.05,2.65 -1.56,6.45 1.09,8.5 2.65,2.05 6.46,1.56 8.51,-1.09 2.04,-2.66 1.55,-6.46 -1.1,-8.51z"/>
    <path id="_68" class="fil19" d="M5.49 10.38c2.64,2.04 3.13,5.83 1.09,8.47 -2.03,2.63 -5.82,3.12 -8.46,1.09 -2.64,-2.04 -3.12,-5.83 -1.09,-8.47 2.04,-2.63 5.83,-3.12 8.46,-1.09zm0.06 -0.07c-2.68,-2.06 -6.52,-1.57 -8.59,1.11 -2.07,2.68 -1.57,6.52 1.11,8.59 2.67,2.06 6.52,1.57 8.58,-1.11 2.07,-2.68 1.58,-6.52 -1.1,-8.59z"/>
    <path id="_69" class="fil19" d="M5.53 10.34c2.67,2.05 3.16,5.88 1.1,8.54 -2.06,2.67 -5.88,3.16 -8.55,1.1 -2.66,-2.05 -3.15,-5.88 -1.1,-8.54 2.06,-2.67 5.89,-3.16 8.55,-1.1zm0.06 -0.07c-2.71,-2.09 -6.59,-1.59 -8.68,1.11 -2.08,2.7 -1.58,6.59 1.12,8.68 2.7,2.08 6.59,1.58 8.67,-1.12 2.09,-2.7 1.59,-6.59 -1.11,-8.67z"/>
    <path id="_70" class="fil20" d="M5.57 10.29c2.69,2.08 3.19,5.94 1.11,8.63 -2.08,2.69 -5.94,3.19 -8.63,1.11 -2.69,-2.08 -3.19,-5.94 -1.11,-8.63 2.07,-2.69 5.94,-3.19 8.63,-1.11zm0.05 -0.07c-2.73,-2.11 -6.65,-1.61 -8.75,1.12 -2.11,2.73 -1.61,6.66 1.12,8.76 2.73,2.11 6.65,1.61 8.76,-1.12 2.11,-2.73 1.6,-6.66 -1.13,-8.76z"/>
    <path id="_71" class="fil20" d="M5.6 10.24c2.72,2.1 3.22,6 1.13,8.72 -2.1,2.71 -6,3.22 -8.72,1.12 -2.72,-2.1 -3.22,-6 -1.12,-8.72 2.1,-2.71 6,-3.22 8.71,-1.12zm0.06 -0.07c-2.76,-2.13 -6.72,-1.62 -8.84,1.14 -2.13,2.75 -1.62,6.71 1.14,8.84 2.75,2.13 6.71,1.62 8.84,-1.14 2.13,-2.75 1.62,-6.71 -1.14,-8.84z"/>
    <path id="_72" class="fil20" d="M5.64 10.19c2.74,2.12 3.25,6.06 1.13,8.8 -2.11,2.75 -6.05,3.25 -8.8,1.14 -2.74,-2.12 -3.25,-6.06 -1.13,-8.8 2.12,-2.75 6.06,-3.25 8.8,-1.14zm0.06 -0.07c-2.79,-2.15 -6.78,-1.63 -8.93,1.15 -2.15,2.78 -1.63,6.78 1.15,8.93 2.78,2.15 6.78,1.63 8.93,-1.15 2.14,-2.78 1.63,-6.78 -1.15,-8.93z"/>
    <path id="_73" class="fil21" d="M5.68 10.15c2.77,2.13 3.28,6.11 1.14,8.88 -2.14,2.77 -6.11,3.28 -8.88,1.14 -2.77,-2.13 -3.28,-6.11 -1.15,-8.88 2.14,-2.77 6.12,-3.28 8.89,-1.14zm0.05 -0.08c-2.8,-2.16 -6.84,-1.64 -9.01,1.16 -2.17,2.81 -1.65,6.85 1.16,9.02 2.81,2.16 6.85,1.65 9.01,-1.16 2.17,-2.81 1.65,-6.85 -1.16,-9.02z"/>
    <path id="_74" class="fil21" d="M5.72 10.1c2.79,2.16 3.31,6.17 1.15,8.97 -2.16,2.79 -6.17,3.31 -8.97,1.15 -2.8,-2.16 -3.31,-6.17 -1.15,-8.97 2.15,-2.79 6.17,-3.31 8.97,-1.15zm0.05 -0.07c-2.83,-2.19 -6.91,-1.67 -9.1,1.17 -2.18,2.83 -1.66,6.91 1.17,9.09 2.84,2.19 6.91,1.67 9.1,-1.17 2.19,-2.83 1.67,-6.9 -1.17,-9.09z"/>
    <path id="_75" class="fil21" d="M5.75 10.05c2.82,2.18 3.35,6.23 1.17,9.05 -2.18,2.83 -6.23,3.35 -9.06,1.17 -2.82,-2.18 -3.34,-6.23 -1.16,-9.05 2.18,-2.83 6.23,-3.35 9.05,-1.17zm0.06 -0.07c-2.86,-2.21 -6.97,-1.68 -9.18,1.18 -2.21,2.86 -1.68,6.97 1.18,9.18 2.86,2.21 6.97,1.68 9.18,-1.18 2.21,-2.86 1.68,-6.97 -1.18,-9.18z"/>
    <path id="_76" class="fil21" d="M5.79 10c2.85,2.2 3.37,6.29 1.18,9.14 -2.2,2.85 -6.3,3.38 -9.14,1.18 -2.85,-2.2 -3.38,-6.29 -1.18,-9.14 2.2,-2.85 6.29,-3.38 9.14,-1.18zm0.05 -0.07c-2.88,-2.23 -7.03,-1.69 -9.26,1.19 -2.23,2.89 -1.7,7.04 1.19,9.27 2.89,2.23 7.04,1.69 9.27,-1.19 2.23,-2.89 1.69,-7.04 -1.2,-9.27z"/>
    <path id="_77" class="fil22" d="M5.83 9.95c2.87,2.22 3.4,6.35 1.18,9.23 -2.22,2.87 -6.35,3.4 -9.22,1.19 -2.88,-2.22 -3.41,-6.35 -1.19,-9.23 2.22,-2.87 6.35,-3.4 9.23,-1.19zm0.05 -0.07c-2.91,-2.25 -7.1,-1.71 -9.35,1.21 -2.25,2.91 -1.71,7.1 1.2,9.35 2.92,2.25 7.1,1.71 9.35,-1.21 2.25,-2.91 1.72,-7.1 -1.2,-9.35z"/>
    <path id="_78" class="fil22" d="M5.86 9.91c2.9,2.24 3.44,6.4 1.2,9.31 -2.24,2.9 -6.41,3.43 -9.31,1.19 -2.9,-2.24 -3.44,-6.4 -1.2,-9.31 2.24,-2.9 6.41,-3.43 9.31,-1.19zm0.06 -0.07c-2.94,-2.27 -7.17,-1.73 -9.44,1.21 -2.27,2.94 -1.72,7.16 1.22,9.43 2.94,2.28 7.16,1.73 9.43,-1.21 2.27,-2.94 1.73,-7.16 -1.21,-9.43z"/>
    <path id="_79" class="fil22" d="M5.9 9.86c2.93,2.26 3.47,6.46 1.21,9.39 -2.26,2.93 -6.47,3.47 -9.39,1.21 -2.93,-2.26 -3.47,-6.46 -1.21,-9.39 2.26,-2.93 6.46,-3.47 9.39,-1.21zm0.06 -0.07c-2.97,-2.29 -7.23,-1.74 -9.52,1.22 -2.3,2.97 -1.75,7.23 1.22,9.52 2.97,2.29 7.23,1.74 9.52,-1.22 2.29,-2.97 1.74,-7.23 -1.22,-9.52z"/>
    <path id="_80" class="fil22" d="M5.94 9.81c2.95,2.28 3.5,6.53 1.22,9.48 -2.28,2.95 -6.53,3.5 -9.48,1.22 -2.96,-2.28 -3.5,-6.52 -1.22,-9.48 2.28,-2.95 6.52,-3.5 9.48,-1.22zm0.05 -0.07c-2.99,-2.31 -7.29,-1.76 -9.6,1.24 -2.31,2.99 -1.76,7.29 1.23,9.6 3,2.31 7.3,1.76 9.61,-1.24 2.31,-2.99 1.76,-7.29 -1.24,-9.6z"/>
    <path id="_81" class="fil22" d="M5.97 9.76c2.98,2.3 3.53,6.59 1.23,9.57 -2.3,2.98 -6.58,3.53 -9.56,1.23 -2.98,-2.3 -3.53,-6.59 -1.23,-9.57 2.3,-2.98 6.58,-3.53 9.56,-1.23zm0.06 -0.07c-3.02,-2.33 -7.36,-1.77 -9.69,1.25 -2.33,3.02 -1.77,7.36 1.25,9.69 3.02,2.33 7.35,1.77 9.69,-1.25 2.33,-3.02 1.77,-7.36 -1.25,-9.69z"/>
    <path id="_82" class="fil22" d="M6.01 9.72c3.01,2.32 3.56,6.64 1.24,9.64 -2.32,3.01 -6.64,3.57 -9.64,1.24 -3.01,-2.32 -3.57,-6.64 -1.25,-9.64 2.32,-3.01 6.64,-3.57 9.65,-1.24zm0.06 -0.08c-3.05,-2.35 -7.43,-1.78 -9.78,1.26 -2.35,3.05 -1.79,7.42 1.26,9.78 3.05,2.35 7.42,1.78 9.77,-1.26 2.36,-3.05 1.79,-7.42 -1.25,-9.78z"/>
    <path id="_83" class="fil22" d="M6.05 9.67c3.03,2.34 3.59,6.7 1.25,9.73 -2.34,3.03 -6.7,3.59 -9.73,1.25 -3.03,-2.34 -3.6,-6.7 -1.25,-9.73 2.34,-3.03 6.69,-3.59 9.73,-1.25zm0.05 -0.07c-3.07,-2.38 -7.48,-1.81 -9.86,1.27 -2.37,3.07 -1.8,7.48 1.27,9.85 3.08,2.38 7.49,1.81 9.86,-1.27 2.37,-3.07 1.81,-7.48 -1.27,-9.85z"/>
    <path id="_84" class="fil23" d="M6.08 9.62c3.06,2.36 3.63,6.76 1.27,9.82 -2.36,3.06 -6.76,3.62 -9.82,1.26 -3.06,-2.36 -3.62,-6.76 -1.26,-9.82 2.36,-3.06 6.75,-3.62 9.81,-1.26zm0.06 -0.07c-3.1,-2.39 -7.55,-1.82 -9.94,1.28 -2.4,3.1 -1.82,7.55 1.28,9.94 3.1,2.39 7.55,1.82 9.94,-1.28 2.39,-3.1 1.82,-7.55 -1.28,-9.94z"/>
    <path id="_85" class="fil24" d="M6.12 9.57c3.09,2.38 3.66,6.82 1.28,9.9 -2.39,3.09 -6.82,3.66 -9.91,1.28 -3.08,-2.38 -3.65,-6.82 -1.27,-9.9 2.38,-3.09 6.82,-3.66 9.9,-1.28zm0.06 -0.07c-3.13,-2.41 -7.62,-1.83 -10.03,1.29 -2.41,3.13 -1.84,7.62 1.29,10.03 3.12,2.41 7.61,1.83 10.03,-1.29 2.41,-3.13 1.83,-7.62 -1.29,-10.03z"/>
    <path id="_86" class="fil24" d="M6.16 9.52c3.11,2.41 3.69,6.88 1.28,9.99 -2.4,3.11 -6.87,3.69 -9.98,1.29 -3.11,-2.41 -3.69,-6.88 -1.29,-9.99 2.41,-3.11 6.88,-3.69 9.99,-1.29zm0.05 -0.07c-3.15,-2.43 -7.68,-1.85 -10.11,1.3 -2.43,3.16 -1.85,7.68 1.3,10.12 3.15,2.43 7.68,1.85 10.11,-1.3 2.44,-3.16 1.85,-7.68 -1.3,-10.12z"/>
    <path id="_87" class="fil24" d="M6.19 9.48c3.14,2.42 3.72,6.93 1.3,10.07 -2.42,3.14 -6.93,3.72 -10.07,1.29 -3.14,-2.42 -3.72,-6.93 -1.3,-10.07 2.43,-3.14 6.94,-3.72 10.07,-1.29zm0.06 -0.07c-3.18,-2.46 -7.74,-1.87 -10.2,1.31 -2.45,3.18 -1.86,7.74 1.32,10.19 3.17,2.46 7.74,1.87 10.19,-1.31 2.46,-3.18 1.87,-7.74 -1.31,-10.19z"/>
    <path id="_88" class="fil24" d="M6.23 9.43c3.17,2.44 3.75,6.99 1.31,10.15 -2.44,3.17 -6.99,3.75 -10.16,1.31 -3.16,-2.44 -3.75,-6.99 -1.3,-10.15 2.44,-3.17 6.99,-3.75 10.15,-1.31zm0.06 -0.07c-3.21,-2.48 -7.81,-1.88 -10.28,1.32 -2.48,3.21 -1.89,7.81 1.32,10.28 3.2,2.48 7.81,1.88 10.28,-1.32 2.47,-3.21 1.88,-7.81 -1.32,-10.28z"/>
    <path id="_89" class="fil24" d="M6.27 9.38c3.19,2.47 3.78,7.05 1.32,10.24 -2.47,3.19 -7.05,3.78 -10.24,1.32 -3.19,-2.47 -3.78,-7.05 -1.32,-10.24 2.46,-3.19 7.05,-3.78 10.24,-1.32zm0.05 -0.07c-3.23,-2.49 -7.87,-1.9 -10.36,1.33 -2.5,3.23 -1.9,7.88 1.33,10.37 3.23,2.49 7.87,1.9 10.37,-1.33 2.49,-3.23 1.89,-7.88 -1.34,-10.37z"/>
    <path id="_90" class="fil24" d="M6.31 9.33c3.21,2.49 3.81,7.11 1.32,10.33 -2.48,3.22 -7.1,3.81 -10.32,1.33 -3.22,-2.49 -3.81,-7.11 -1.33,-10.33 2.49,-3.22 7.11,-3.81 10.33,-1.33zm0.05 -0.07c-3.26,-2.51 -7.94,-1.91 -10.45,1.35 -2.51,3.25 -1.91,7.93 1.34,10.45 3.26,2.51 7.94,1.91 10.46,-1.35 2.51,-3.25 1.91,-7.93 -1.35,-10.45z"/>
    <path id="_91" class="fil25" d="M6.34 9.29c3.25,2.5 3.85,7.16 1.34,10.4 -2.5,3.25 -7.16,3.85 -10.41,1.34 -3.24,-2.5 -3.84,-7.16 -1.34,-10.4 2.51,-3.25 7.17,-3.85 10.41,-1.34zm0.06 -0.08c-3.29,-2.53 -8,-1.92 -10.54,1.36 -2.53,3.28 -1.93,8 1.36,10.54 3.28,2.53 8,1.92 10.53,-1.36 2.54,-3.28 1.93,-8 -1.35,-10.54z"/>
    <path id="_92" class="fil25" d="M6.38 9.24c3.27,2.52 3.87,7.22 1.35,10.49 -2.53,3.27 -7.22,3.88 -10.49,1.35 -3.27,-2.52 -3.88,-7.22 -1.35,-10.49 2.52,-3.27 7.22,-3.88 10.49,-1.35zm0.05 -0.07c-3.31,-2.56 -8.06,-1.95 -10.62,1.36 -2.55,3.31 -1.94,8.07 1.37,10.62 3.31,2.56 8.07,1.95 10.62,-1.36 2.56,-3.31 1.94,-8.07 -1.37,-10.62z"/>
    <path id="_93" class="fil25" d="M6.42 9.19c3.29,2.55 3.9,7.28 1.36,10.58 -2.55,3.3 -7.28,3.9 -10.58,1.36 -3.3,-2.55 -3.91,-7.28 -1.36,-10.58 2.54,-3.29 7.28,-3.9 10.58,-1.36zm0.05 -0.07c-3.34,-2.58 -8.13,-1.96 -10.7,1.38 -2.58,3.33 -1.96,8.13 1.37,10.7 3.34,2.58 8.13,1.96 10.71,-1.38 2.57,-3.33 1.96,-8.13 -1.38,-10.7z"/>
    <path id="_94" class="fil25" d="M6.45 9.14c3.33,2.57 3.94,7.34 1.37,10.67 -2.56,3.32 -7.33,3.93 -10.66,1.37 -3.32,-2.57 -3.93,-7.34 -1.37,-10.66 2.57,-3.33 7.34,-3.94 10.66,-1.38zm0.06 -0.07c-3.36,-2.59 -8.2,-1.97 -10.79,1.39 -2.6,3.36 -1.98,8.19 1.39,10.79 3.36,2.59 8.19,1.97 10.79,-1.39 2.59,-3.36 1.97,-8.19 -1.39,-10.79z"/>
    <path id="_95" class="fil25" d="M6.49 9.1c3.35,2.58 3.97,7.39 1.38,10.74 -2.58,3.35 -7.39,3.97 -10.74,1.39 -3.35,-2.59 -3.97,-7.4 -1.39,-10.75 2.59,-3.35 7.4,-3.97 10.75,-1.38zm0.05 -0.08c-3.38,-2.61 -8.25,-1.99 -10.87,1.4 -2.62,3.39 -1.99,8.26 1.4,10.88 3.39,2.61 8.26,1.99 10.87,-1.4 2.62,-3.39 1.99,-8.26 -1.4,-10.88z"/>
    <path id="_96" class="fil25" d="M6.53 9.05c3.37,2.6 4,7.45 1.39,10.83 -2.61,3.37 -7.46,4 -10.83,1.39 -3.38,-2.6 -4,-7.45 -1.4,-10.83 2.61,-3.37 7.46,-4 10.84,-1.39zm0.05 -0.07c-3.41,-2.64 -8.32,-2.01 -10.96,1.41 -2.63,3.41 -2,8.32 1.41,10.95 3.42,2.64 8.33,2.01 10.96,-1.41 2.64,-3.41 2.01,-8.32 -1.41,-10.95z"/>
    <path id="_97" class="fil26" d="M6.56 9c3.41,2.63 4.03,7.51 1.41,10.92 -2.63,3.4 -7.52,4.03 -10.92,1.4 -3.4,-2.63 -4.03,-7.51 -1.4,-10.92 2.62,-3.4 7.51,-4.03 10.91,-1.4zm0.06 -0.07c-3.44,-2.66 -8.39,-2.02 -11.04,1.42 -2.66,3.44 -2.03,8.39 1.42,11.04 3.44,2.66 8.38,2.02 11.04,-1.42 2.66,-3.44 2.02,-8.38 -1.42,-11.04z"/>
    <path id="_98" class="fil27" d="M6.6 8.95c3.43,2.65 4.06,7.57 1.42,11 -2.65,3.43 -7.58,4.07 -11,1.42 -3.43,-2.65 -4.07,-7.57 -1.42,-11 2.65,-3.43 7.57,-4.06 11,-1.42zm0.06 -0.07c-3.47,-2.68 -8.45,-2.04 -11.13,1.43 -2.68,3.47 -2.04,8.45 1.43,11.13 3.47,2.68 8.45,2.04 11.13,-1.43 2.67,-3.47 2.03,-8.45 -1.43,-11.13z"/>
    <path id="_99" class="fil27" d="M6.64 8.9c3.45,2.67 4.09,7.63 1.42,11.09 -2.66,3.45 -7.63,4.09 -11.08,1.43 -3.46,-2.67 -4.1,-7.63 -1.43,-11.09 2.67,-3.45 7.63,-4.09 11.09,-1.43zm0.05 -0.07c-3.49,-2.7 -8.51,-2.05 -11.21,1.45 -2.7,3.49 -2.05,8.51 1.44,11.21 3.5,2.7 8.52,2.05 11.22,-1.45 2.69,-3.49 2.05,-8.51 -1.45,-11.21z"/>
    <path id="_100" class="fil27" d="M6.67 8.86c3.49,2.68 4.13,7.68 1.44,11.17 -2.69,3.48 -7.69,4.12 -11.17,1.43 -3.48,-2.68 -4.12,-7.68 -1.44,-11.17 2.69,-3.48 7.69,-4.12 11.17,-1.43zm0.06 -0.08c-3.52,-2.71 -8.58,-2.06 -11.3,1.46 -2.72,3.52 -2.06,8.58 1.46,11.3 3.52,2.71 8.57,2.06 11.29,-1.46 2.72,-3.52 2.07,-8.58 -1.45,-11.3z"/>
    <path id="_101" class="fil27" d="M6.71 8.81c3.51,2.71 4.16,7.75 1.45,11.25 -2.71,3.51 -7.75,4.16 -11.26,1.45 -3.5,-2.71 -4.15,-7.75 -1.44,-11.25 2.7,-3.51 7.74,-4.16 11.25,-1.45zm0.06 -0.07c-3.55,-2.74 -8.65,-2.09 -11.39,1.46 -2.73,3.55 -2.08,8.64 1.47,11.38 3.55,2.74 8.64,2.09 11.38,-1.46 2.74,-3.55 2.08,-8.64 -1.46,-11.38z"/>
    <path id="_102" class="fil27" d="M6.75 8.76c3.53,2.73 4.19,7.81 1.46,11.34 -2.73,3.53 -7.81,4.19 -11.34,1.46 -3.54,-2.73 -4.19,-7.81 -1.46,-11.34 2.73,-3.53 7.8,-4.19 11.34,-1.46zm0.05 -0.07c-3.57,-2.76 -8.7,-2.1 -11.46,1.47 -2.76,3.58 -2.1,8.71 1.47,11.47 3.58,2.76 8.71,2.1 11.47,-1.47 2.76,-3.58 2.1,-8.71 -1.48,-11.47z"/>
    <path id="_103" class="fil27" d="M6.78 8.71c3.57,2.75 4.22,7.87 1.47,11.43 -2.74,3.56 -7.86,4.22 -11.42,1.47 -3.56,-2.75 -4.22,-7.87 -1.47,-11.43 2.75,-3.56 7.86,-4.22 11.42,-1.47zm0.06 -0.07c-3.6,-2.78 -8.77,-2.11 -11.55,1.49 -2.78,3.6 -2.11,8.77 1.49,11.55 3.6,2.78 8.77,2.11 11.55,-1.49 2.78,-3.6 2.11,-8.77 -1.49,-11.55z"/>
    <path id="_104" class="fil27" d="M6.82 8.67c3.59,2.76 4.25,7.92 1.48,11.5 -2.77,3.59 -7.92,4.25 -11.51,1.48 -3.58,-2.76 -4.25,-7.92 -1.48,-11.5 2.77,-3.59 7.92,-4.25 11.51,-1.48zm0.06 -0.08c-3.63,-2.8 -8.84,-2.13 -11.64,1.5 -2.8,3.63 -2.13,8.84 1.5,11.64 3.63,2.8 8.83,2.13 11.63,-1.5 2.8,-3.63 2.13,-8.84 -1.49,-11.64z"/>
    <path id="_105" class="fil28" d="M6.86 8.62c3.61,2.79 4.28,7.98 1.49,11.59 -2.79,3.61 -7.98,4.28 -11.59,1.49 -3.62,-2.79 -4.28,-7.98 -1.49,-11.59 2.78,-3.61 7.97,-4.28 11.59,-1.49zm0.05 -0.07c-3.65,-2.82 -8.9,-2.15 -11.72,1.5 -2.82,3.66 -2.14,8.9 1.51,11.72 3.65,2.82 8.9,2.15 11.72,-1.5 2.82,-3.66 2.15,-8.9 -1.51,-11.72z"/>
    <path id="_106" class="fil28" d="M6.9 8.57c3.63,2.81 4.31,8.04 1.5,11.68 -2.81,3.64 -8.04,4.31 -11.68,1.5 -3.64,-2.81 -4.31,-8.04 -1.5,-11.68 2.81,-3.64 8.04,-4.31 11.68,-1.5zm0.05 -0.07c-3.68,-2.84 -8.96,-2.16 -11.8,1.52 -2.84,3.68 -2.16,8.96 1.51,11.8 3.68,2.84 8.97,2.16 11.81,-1.52 2.84,-3.68 2.16,-8.96 -1.52,-11.8z"/>
    <path id="_107" class="fil28" d="M6.93 8.52c3.67,2.83 4.35,8.1 1.52,11.76 -2.83,3.67 -8.1,4.35 -11.77,1.52 -3.66,-2.83 -4.34,-8.1 -1.51,-11.76 2.83,-3.67 8.1,-4.35 11.76,-1.52zm0.06 -0.07c-3.71,-2.86 -9.03,-2.18 -11.89,1.53 -2.86,3.71 -2.18,9.03 1.53,11.89 3.7,2.86 9.03,2.18 11.89,-1.53 2.86,-3.71 2.17,-9.03 -1.53,-11.89z"/>
    <path id="_108" class="fil28" d="M6.97 8.47c3.69,2.85 4.37,8.16 1.52,11.85 -2.85,3.69 -8.15,4.38 -11.84,1.53 -3.7,-2.85 -4.38,-8.16 -1.53,-11.85 2.85,-3.69 8.16,-4.38 11.85,-1.53zm0.05 -0.07c-3.73,-2.88 -9.09,-2.19 -11.97,1.54 -2.88,3.74 -2.19,9.1 1.54,11.98 3.73,2.88 9.09,2.19 11.98,-1.54 2.88,-3.74 2.19,-9.1 -1.55,-11.98z"/>
    <path id="_109" class="fil29" d="M7.01 8.43c3.71,2.87 4.4,8.21 1.53,11.93 -2.87,3.72 -8.21,4.4 -11.93,1.53 -3.72,-2.87 -4.41,-8.21 -1.54,-11.93 2.87,-3.72 8.22,-4.4 11.94,-1.53zm0.05 -0.08c-3.76,-2.9 -9.16,-2.2 -12.06,1.56 -2.9,3.76 -2.2,9.15 1.55,12.06 3.76,2.9 9.16,2.2 12.06,-1.56 2.9,-3.75 2.21,-9.15 -1.55,-12.06z"/>
    <path id="_110" class="fil29" d="M7.04 8.38c3.75,2.89 4.44,8.27 1.55,12.02 -2.89,3.74 -8.27,4.43 -12.02,1.54 -3.74,-2.89 -4.43,-8.27 -1.54,-12.01 2.89,-3.75 8.27,-4.44 12.01,-1.55zm0.06 -0.07c-3.79,-2.92 -9.22,-2.22 -12.15,1.56 -2.92,3.78 -2.22,9.22 1.57,12.14 3.78,2.92 9.22,2.23 12.14,-1.56 2.92,-3.78 2.22,-9.22 -1.56,-12.14z"/>
    <path id="_111" class="fil29" d="M7.08 8.33c3.77,2.91 4.47,8.33 1.56,12.1 -2.91,3.77 -8.33,4.47 -12.1,1.56 -3.78,-2.91 -4.47,-8.33 -1.56,-12.1 2.91,-3.77 8.33,-4.47 12.1,-1.56zm0.05 -0.07c-3.81,-2.94 -9.28,-2.24 -12.22,1.57 -2.95,3.81 -2.24,9.29 1.57,12.23 3.81,2.94 9.29,2.24 12.23,-1.57 2.94,-3.81 2.24,-9.29 -1.58,-12.23z"/>
    <path id="_112" class="fil30" d="M7.12 8.28c3.79,2.94 4.5,8.39 1.56,12.19 -2.93,3.8 -8.38,4.5 -12.18,1.57 -3.8,-2.93 -4.5,-8.39 -1.57,-12.19 2.93,-3.8 8.39,-4.5 12.19,-1.57zm0.05 -0.07c-3.84,-2.96 -9.35,-2.25 -12.31,1.59 -2.96,3.83 -2.25,9.35 1.58,12.31 3.84,2.96 9.35,2.25 12.32,-1.59 2.96,-3.83 2.25,-9.35 -1.59,-12.31z"/>
    <path id="_113" class="fil30" d="M7.15 8.24c3.83,2.95 4.53,8.44 1.58,12.27 -2.95,3.82 -8.44,4.53 -12.27,1.57 -3.82,-2.95 -4.53,-8.44 -1.58,-12.27 2.96,-3.82 8.45,-4.53 12.27,-1.57zm0.06 -0.08c-3.87,-2.98 -9.42,-2.26 -12.4,1.6 -2.98,3.86 -2.27,9.41 1.6,12.4 3.86,2.98 9.41,2.26 12.39,-1.6 2.99,-3.86 2.27,-9.41 -1.59,-12.4z"/>
    <path id="_114" class="fil30" d="M7.19 8.19c3.85,2.97 4.56,8.5 1.59,12.35 -2.97,3.85 -8.5,4.57 -12.35,1.59 -3.86,-2.97 -4.57,-8.5 -1.59,-12.35 2.97,-3.85 8.5,-4.56 12.35,-1.59zm0.06 -0.07c-3.89,-3.01 -9.48,-2.29 -12.49,1.6 -3,3.89 -2.28,9.48 1.61,12.48 3.89,3.01 9.48,2.29 12.48,-1.6 3,-3.89 2.29,-9.48 -1.6,-12.48z"/>
    <path id="_115" class="fil30" d="M7.23 8.14c3.87,2.99 4.59,8.56 1.6,12.44 -3,3.88 -8.56,4.59 -12.44,1.6 -3.88,-2.99 -4.6,-8.56 -1.6,-12.44 2.99,-3.88 8.56,-4.59 12.44,-1.6zm0.05 -0.07c-3.91,-3.03 -9.54,-2.3 -12.56,1.62 -3.03,3.91 -2.3,9.54 1.61,12.56 3.92,3.03 9.55,2.3 12.57,-1.62 3.02,-3.91 2.3,-9.54 -1.62,-12.56z"/>
    <path id="_116" class="fil31" d="M7.26 8.09c3.91,3.02 4.63,8.62 1.62,12.53 -3.02,3.9 -8.62,4.62 -12.53,1.61 -3.9,-3.02 -4.62,-8.62 -1.61,-12.53 3.01,-3.9 8.62,-4.62 12.52,-1.61zm0.06 -0.07c-3.94,-3.04 -9.61,-2.31 -12.65,1.63 -3.05,3.94 -2.32,9.61 1.63,12.65 3.94,3.04 9.6,2.31 12.65,-1.63 3.04,-3.94 2.31,-9.61 -1.63,-12.65z"/>
    <path id="_117" class="fil31" d="M7.3 8.04c3.93,3.04 4.66,8.68 1.62,12.61 -3.03,3.93 -8.68,4.66 -12.61,1.63 -3.93,-3.04 -4.65,-8.68 -1.62,-12.61 3.04,-3.93 8.68,-4.66 12.61,-1.63zm0.06 -0.07c-3.97,-3.06 -9.68,-2.33 -12.74,1.64 -3.06,3.97 -2.33,9.67 1.64,12.74 3.97,3.06 9.67,2.33 12.73,-1.64 3.07,-3.97 2.34,-9.67 -1.63,-12.74z"/>
    <path id="_118" class="fil31" d="M7.34 8c3.95,3.05 4.69,8.73 1.63,12.69 -3.05,3.96 -8.74,4.69 -12.69,1.63 -3.96,-3.05 -4.69,-8.73 -1.64,-12.69 3.06,-3.96 8.74,-4.69 12.7,-1.63zm0.05 -0.07c-3.99,-3.09 -9.73,-2.35 -12.82,1.64 -3.08,4 -2.34,9.74 1.65,12.83 4,3.08 9.74,2.34 12.82,-1.65 3.09,-4 2.35,-9.74 -1.65,-12.82z"/>
    <path id="_119" class="fil32" d="M7.37 7.95c3.99,3.07 4.72,8.79 1.65,12.78 -3.08,3.98 -8.8,4.72 -12.78,1.64 -3.98,-3.07 -4.72,-8.79 -1.64,-12.78 3.07,-3.98 8.79,-4.72 12.77,-1.64zm0.06 -0.07c-4.02,-3.11 -9.8,-2.36 -12.91,1.66 -3.1,4.02 -2.36,9.8 1.67,12.9 4.02,3.11 9.8,2.36 12.9,-1.66 3.11,-4.02 2.36,-9.8 -1.66,-12.9z"/>
    <path id="_120" class="fil32" d="M7.41 7.9c4.01,3.1 4.75,8.85 1.66,12.86 -3.1,4.01 -8.86,4.75 -12.87,1.66 -4,-3.1 -4.75,-8.85 -1.65,-12.86 3.09,-4.01 8.85,-4.75 12.86,-1.66zm0.06 -0.07c-4.05,-3.13 -9.87,-2.38 -12.99,1.67 -3.13,4.05 -2.38,9.87 1.67,12.99 4.05,3.13 9.86,2.38 12.99,-1.67 3.12,-4.05 2.38,-9.87 -1.67,-12.99z"/>
    <path id="_121" class="fil32" d="M7.45 7.85c4.03,3.12 4.78,8.92 1.66,12.95 -3.11,4.04 -8.91,4.78 -12.94,1.67 -4.04,-3.12 -4.78,-8.91 -1.67,-12.95 3.12,-4.04 8.91,-4.78 12.95,-1.67zm0.05 -0.07c-4.07,-3.14 -9.92,-2.39 -13.07,1.68 -3.15,4.08 -2.39,9.93 1.68,13.08 4.08,3.14 9.93,2.39 13.08,-1.68 3.14,-4.08 2.39,-9.93 -1.69,-13.08z"/>
    <path id="_122" class="fil33" d="M7.49 7.81c4.06,3.13 4.81,8.97 1.67,13.03 -3.13,4.06 -8.97,4.81 -13.03,1.67 -4.06,-3.13 -4.81,-8.97 -1.68,-13.03 3.14,-4.06 8.97,-4.81 13.04,-1.67zm0.05 -0.08c-4.1,-3.16 -9.99,-2.4 -13.16,1.7 -3.16,4.1 -2.41,9.99 1.7,13.16 4.1,3.16 9.99,2.4 13.15,-1.7 3.17,-4.1 2.41,-9.99 -1.69,-13.16z"/>
    <path id="_123" class="fil33" d="M7.52 7.76c4.09,3.15 4.85,9.03 1.69,13.11 -3.16,4.09 -9.03,4.85 -13.12,1.69 -4.08,-3.15 -4.84,-9.03 -1.68,-13.11 3.15,-4.09 9.02,-4.85 13.11,-1.69zm0.06 -0.07c-4.13,-3.19 -10.06,-2.43 -13.25,1.7 -3.18,4.13 -2.42,10.06 1.71,13.24 4.13,3.19 10.06,2.43 13.24,-1.7 3.19,-4.13 2.42,-10.06 -1.7,-13.24z"/>
    <path id="_124" class="fil33" d="M7.56 7.71c4.11,3.18 4.87,9.09 1.7,13.2 -3.18,4.12 -9.09,4.88 -13.2,1.7 -4.12,-3.18 -4.88,-9.09 -1.7,-13.2 3.17,-4.12 9.08,-4.88 13.2,-1.7zm0.05 -0.07c-4.15,-3.21 -10.12,-2.44 -13.32,1.71 -3.21,4.16 -2.44,10.12 1.71,13.33 4.16,3.21 10.12,2.44 13.33,-1.71 3.21,-4.16 2.44,-10.12 -1.72,-13.33z"/>
    <path id="_125" class="fil33" d="M7.6 7.66c4.14,3.2 4.9,9.15 1.71,13.29 -3.2,4.14 -9.15,4.9 -13.29,1.71 -4.14,-3.2 -4.91,-9.15 -1.71,-13.29 3.2,-4.14 9.14,-4.9 13.29,-1.71zm0.05 -0.07c-4.18,-3.23 -10.18,-2.45 -13.41,1.73 -3.23,4.18 -2.46,10.18 1.72,13.41 4.18,3.23 10.19,2.45 13.42,-1.73 3.22,-4.18 2.45,-10.18 -1.73,-13.41z"/>
    <path id="_126" class="fil34" d="M7.63 7.61c4.17,3.22 4.94,9.21 1.72,13.37 -3.21,4.17 -9.2,4.94 -13.37,1.73 -4.16,-3.22 -4.93,-9.21 -1.72,-13.37 3.22,-4.17 9.21,-4.94 13.37,-1.73zm0.06 -0.07c-4.21,-3.24 -10.25,-2.47 -13.5,1.74 -3.25,4.21 -2.47,10.25 1.74,13.5 4.2,3.24 10.25,2.47 13.49,-1.74 3.25,-4.21 2.47,-10.25 -1.73,-13.5z"/>
    <path id="_127" class="fil34" d="M7.67 7.57c4.19,3.23 4.97,9.26 1.73,13.45 -3.24,4.2 -9.26,4.97 -13.45,1.73 -4.2,-3.23 -4.97,-9.26 -1.74,-13.45 3.24,-4.2 9.27,-4.97 13.46,-1.73zm0.05 -0.07c-4.23,-3.27 -10.31,-2.49 -13.58,1.74 -3.26,4.24 -2.48,10.32 1.75,13.58 4.23,3.27 10.31,2.49 13.58,-1.74 3.27,-4.24 2.49,-10.32 -1.75,-13.58z"/>
    <path id="_128" class="fil34" d="M7.71 7.52c4.22,3.26 5,9.32 1.74,13.54 -3.26,4.22 -9.32,5 -13.54,1.74 -4.22,-3.26 -5,-9.32 -1.74,-13.54 3.25,-4.22 9.32,-5 13.54,-1.74zm0.05 -0.07c-4.26,-3.29 -10.38,-2.5 -13.66,1.76 -3.29,4.26 -2.51,10.37 1.75,13.66 4.26,3.29 10.38,2.5 13.67,-1.76 3.29,-4.26 2.5,-10.37 -1.76,-13.66z"/>
    <path id="_129" class="fil34" d="M7.74 7.47c4.25,3.28 5.03,9.38 1.76,13.63 -3.28,4.24 -9.38,5.03 -13.63,1.75 -4.24,-3.28 -5.03,-9.38 -1.75,-13.63 3.28,-4.24 9.38,-5.03 13.62,-1.75zm0.06 -0.07c-4.29,-3.31 -10.44,-2.52 -13.75,1.77 -3.31,4.29 -2.52,10.44 1.77,13.75 4.28,3.31 10.44,2.52 13.75,-1.77 3.31,-4.29 2.51,-10.44 -1.77,-13.75z"/>
    <path id="_130" class="fil34" d="M7.78 7.42c4.27,3.3 5.06,9.44 1.76,13.71 -3.29,4.28 -9.43,5.06 -13.7,1.77 -4.28,-3.3 -5.07,-9.44 -1.77,-13.71 3.3,-4.27 9.44,-5.06 13.71,-1.77zm0.06 -0.07c-4.32,-3.33 -10.51,-2.53 -13.84,1.78 -3.33,4.31 -2.53,10.51 1.78,13.84 4.31,3.33 10.51,2.53 13.84,-1.78 3.32,-4.31 2.53,-10.51 -1.78,-13.84z"/>
    <path id="_131" class="fil34" d="M7.82 7.38c4.3,3.31 5.09,9.49 1.77,13.79 -3.32,4.3 -9.49,5.09 -13.79,1.77 -4.3,-3.31 -5.1,-9.49 -1.78,-13.79 3.32,-4.3 9.5,-5.09 13.8,-1.77zm0.05 -0.08c-4.34,-3.34 -10.57,-2.54 -13.92,1.8 -3.35,4.33 -2.55,10.57 1.79,13.92 4.34,3.35 10.57,2.54 13.92,-1.8 3.35,-4.33 2.55,-10.57 -1.79,-13.92z"/>
    <path id="_132" class="fil34" d="M7.85 7.33c4.33,3.34 5.13,9.55 1.79,13.88 -3.34,4.32 -9.55,5.12 -13.88,1.78 -4.32,-3.34 -5.12,-9.55 -1.78,-13.88 3.33,-4.32 9.55,-5.12 13.87,-1.78zm0.06 -0.07c-4.37,-3.37 -10.64,-2.57 -14.01,1.8 -3.37,4.36 -2.56,10.63 1.81,14 4.36,3.37 10.63,2.57 14,-1.8 3.37,-4.36 2.56,-10.63 -1.8,-14z"/>
    <path id="_133" class="fil34" d="M7.89 7.28c4.35,3.36 5.16,9.61 1.8,13.96 -3.36,4.35 -9.61,5.16 -13.97,1.8 -4.35,-3.36 -5.15,-9.61 -1.79,-13.96 3.36,-4.35 9.61,-5.16 13.96,-1.8zm0.06 -0.07c-4.4,-3.39 -10.7,-2.58 -14.09,1.81 -3.39,4.39 -2.58,10.7 1.81,14.09 4.39,3.39 10.7,2.58 14.09,-1.81 3.39,-4.39 2.58,-10.7 -1.81,-14.09z"/>
    <path id="_134" class="fil35" d="M7.93 7.23c4.38,3.38 5.18,9.67 1.81,14.05 -3.38,4.38 -9.67,5.19 -14.05,1.81 -4.38,-3.38 -5.19,-9.67 -1.81,-14.05 3.38,-4.38 9.67,-5.19 14.05,-1.81zm0.05 -0.07c-4.42,-3.41 -10.76,-2.59 -14.17,1.83 -3.41,4.41 -2.6,10.76 1.82,14.17 4.42,3.41 10.77,2.59 14.18,-1.82 3.41,-4.42 2.59,-10.77 -1.83,-14.18z"/>
    <path id="_135" class="fil35" d="M7.96 7.18c4.41,3.41 5.22,9.73 1.82,14.14 -3.4,4.4 -9.72,5.22 -14.13,1.82 -4.4,-3.4 -5.22,-9.73 -1.82,-14.14 3.4,-4.4 9.73,-5.22 14.13,-1.82zm0.06 -0.07c-4.44,-3.43 -10.83,-2.61 -14.26,1.84 -3.43,4.44 -2.61,10.83 1.84,14.26 4.44,3.43 10.82,2.61 14.25,-1.84 3.44,-4.44 2.61,-10.83 -1.83,-14.26z"/>
    <path id="_136" class="fil36" d="M8 7.14c4.43,3.42 5.25,9.78 1.83,14.21 -3.42,4.43 -9.78,5.25 -14.22,1.83 -4.43,-3.42 -5.25,-9.78 -1.83,-14.21 3.43,-4.43 9.79,-5.25 14.22,-1.83zm0.06 -0.07c-4.47,-3.46 -10.9,-2.63 -14.35,1.84 -3.45,4.47 -2.62,10.89 1.85,14.34 4.47,3.46 10.89,2.63 14.34,-1.84 3.45,-4.47 2.63,-10.89 -1.84,-14.34z"/>
    <path id="_137" class="fil36" d="M8.04 7.09c4.46,3.44 5.28,9.84 1.84,14.3 -3.44,4.46 -9.85,5.28 -14.3,1.84 -4.46,-3.44 -5.28,-9.84 -1.84,-14.3 3.44,-4.46 9.84,-5.28 14.3,-1.84zm0.05 -0.07c-4.49,-3.47 -10.95,-2.64 -14.42,1.85 -3.48,4.5 -2.64,10.96 1.85,14.43 4.5,3.47 10.96,2.64 14.43,-1.85 3.47,-4.5 2.64,-10.96 -1.86,-14.43z"/>
    <path id="_138" class="fil36" d="M8.07 7.04c4.49,3.46 5.32,9.9 1.86,14.39 -3.47,4.48 -9.91,5.31 -14.39,1.85 -4.48,-3.46 -5.31,-9.9 -1.85,-14.39 3.46,-4.48 9.9,-5.31 14.38,-1.85zm0.06 -0.07c-4.52,-3.49 -11.02,-2.66 -14.51,1.87 -3.49,4.52 -2.66,11.02 1.87,14.51 4.52,3.49 11.02,2.66 14.51,-1.87 3.49,-4.52 2.65,-11.02 -1.87,-14.51z"/>
    <path id="_139" class="fil36" d="M8.11 6.99c4.51,3.49 5.35,9.96 1.86,14.47 -3.48,4.51 -9.96,5.35 -14.47,1.87 -4.51,-3.49 -5.34,-9.96 -1.86,-14.47 3.48,-4.51 9.96,-5.35 14.47,-1.87zm0.06 -0.07c-4.55,-3.51 -11.09,-2.67 -14.6,1.88 -3.51,4.55 -2.67,11.09 1.88,14.6 4.55,3.51 11.08,2.67 14.6,-1.88 3.51,-4.55 2.67,-11.09 -1.88,-14.6z"/>
    <path id="_140" class="fil36" d="M8.15 6.95c4.54,3.5 5.37,10.01 1.87,14.55 -3.5,4.54 -10.02,5.38 -14.55,1.87 -4.54,-3.5 -5.38,-10.01 -1.88,-14.55 3.51,-4.54 10.02,-5.38 14.56,-1.87zm0.05 -0.08c-4.57,-3.53 -11.15,-2.68 -14.68,1.89 -3.53,4.58 -2.68,11.15 1.89,14.69 4.58,3.53 11.15,2.68 14.68,-1.89 3.54,-4.58 2.69,-11.15 -1.89,-14.69z"/>
    <path id="_141" class="fil36" d="M8.19 6.9c4.56,3.52 5.4,10.08 1.88,14.64 -3.52,4.56 -10.08,5.4 -14.64,1.88 -4.56,-3.52 -5.41,-10.07 -1.88,-14.64 3.52,-4.56 10.07,-5.4 14.64,-1.88zm0.05 -0.07c-4.6,-3.56 -11.21,-2.71 -14.77,1.9 -3.55,4.6 -2.7,11.21 1.9,14.76 4.61,3.56 11.22,2.71 14.77,-1.9 3.55,-4.6 2.7,-11.21 -1.9,-14.76z"/>
    <path id="_142" class="fil37" d="M8.22 6.85c4.59,3.54 5.44,10.14 1.9,14.72 -3.55,4.59 -10.14,5.44 -14.73,1.9 -4.59,-3.54 -5.43,-10.14 -1.89,-14.72 3.54,-4.59 10.13,-5.44 14.72,-1.9zm0.06 -0.07c-4.63,-3.57 -11.28,-2.72 -14.85,1.91 -3.58,4.63 -2.72,11.28 1.91,14.85 4.63,3.57 11.28,2.72 14.85,-1.91 3.57,-4.63 2.72,-11.28 -1.91,-14.85z"/>
    <path id="_143" class="fil38" d="M8.26 6.8c4.61,3.57 5.47,10.2 1.9,14.81 -3.56,4.62 -10.19,5.47 -14.8,1.91 -4.62,-3.57 -5.47,-10.2 -1.91,-14.81 3.56,-4.62 10.19,-5.47 14.81,-1.91zm0.05 -0.07c-4.65,-3.59 -11.34,-2.73 -14.93,1.92 -3.59,4.66 -2.73,11.35 1.92,14.94 4.66,3.59 11.34,2.73 14.94,-1.92 3.59,-4.66 2.73,-11.35 -1.93,-14.94z"/>
    <path id="_144" class="fil38" d="M8.3 6.76c4.64,3.58 5.5,10.25 1.91,14.89 -3.58,4.64 -10.25,5.5 -14.89,1.92 -4.64,-3.59 -5.5,-10.26 -1.92,-14.9 3.59,-4.64 10.25,-5.5 14.9,-1.91zm0.05 -0.08c-4.68,-3.61 -11.4,-2.75 -15.02,1.94 -3.61,4.68 -2.75,11.4 1.93,15.02 4.69,3.61 11.41,2.75 15.02,-1.94 3.62,-4.68 2.75,-11.4 -1.93,-15.02z"/>
    <path id="_145" class="fil38" d="M8.33 6.71c4.67,3.6 5.53,10.31 1.93,14.98 -3.6,4.66 -10.31,5.53 -14.98,1.92 -4.67,-3.6 -5.53,-10.31 -1.93,-14.98 3.61,-4.66 10.31,-5.53 14.98,-1.92zm0.06 -0.07c-4.71,-3.64 -11.47,-2.77 -15.11,1.94 -3.63,4.71 -2.76,11.47 1.95,15.1 4.71,3.64 11.47,2.77 15.1,-1.94 3.64,-4.71 2.77,-11.47 -1.94,-15.1z"/>
    <path id="_146" class="fil38" d="M8.37 6.66c4.69,3.62 5.56,10.37 1.94,15.06 -3.63,4.7 -10.37,5.56 -15.06,1.94 -4.7,-3.62 -5.57,-10.37 -1.94,-15.06 3.62,-4.7 10.37,-5.56 15.06,-1.94zm0.06 -0.07c-4.74,-3.66 -11.54,-2.78 -15.19,1.95 -3.66,4.74 -2.78,11.54 1.95,15.19 4.73,3.66 11.54,2.78 15.19,-1.95 3.65,-4.74 2.78,-11.54 -1.95,-15.19z"/>
    <path id="_147" class="fil38" d="M8.41 6.61c4.72,3.65 5.59,10.43 1.95,15.15 -3.65,4.72 -10.43,5.59 -15.15,1.95 -4.72,-3.65 -5.6,-10.43 -1.95,-15.15 3.64,-4.72 10.43,-5.59 15.15,-1.95zm0.05 -0.07c-4.76,-3.67 -11.6,-2.79 -15.27,1.97 -3.68,4.76 -2.8,11.59 1.96,15.27 4.76,3.68 11.6,2.8 15.28,-1.97 3.67,-4.76 2.79,-11.59 -1.97,-15.27z"/>
    <path id="_148" class="fil38" d="M8.44 6.56c4.75,3.67 5.63,10.49 1.96,15.24 -3.66,4.74 -10.48,5.62 -15.23,1.96 -4.75,-3.67 -5.62,-10.49 -1.96,-15.24 3.67,-4.74 10.49,-5.62 15.23,-1.96zm0.06 -0.07c-4.79,-3.69 -11.66,-2.81 -15.36,1.98 -3.7,4.79 -2.81,11.66 1.98,15.36 4.78,3.69 11.66,2.81 15.36,-1.98 3.69,-4.79 2.81,-11.66 -1.98,-15.36z"/>
    <path id="_149" class="fil38" d="M8.48 6.52c4.77,3.68 5.66,10.54 1.97,15.31 -3.68,4.78 -10.54,5.66 -15.31,1.97 -4.78,-3.68 -5.66,-10.54 -1.98,-15.31 3.69,-4.78 10.55,-5.66 15.32,-1.97zm0.06 -0.08c-4.82,-3.71 -11.73,-2.82 -15.45,1.99 -3.71,4.82 -2.82,11.73 1.99,15.45 4.81,3.71 11.73,2.82 15.44,-1.99 3.72,-4.82 2.83,-11.73 -1.98,-15.45z"/>
    <path id="_150" class="fil39" d="M8.52 6.47c4.8,3.7 5.68,10.6 1.98,15.4 -3.71,4.8 -10.6,5.69 -15.4,1.98 -4.8,-3.7 -5.69,-10.6 -1.98,-15.4 3.7,-4.8 10.6,-5.69 15.4,-1.98zm0.05 -0.07c-4.84,-3.74 -11.79,-2.84 -15.53,2 -3.73,4.84 -2.84,11.79 2,15.52 4.84,3.74 11.79,2.84 15.53,-1.99 3.74,-4.84 2.84,-11.8 -2,-15.53z"/>
    <path id="_151" class="fil40" d="M8.55 6.42c4.83,3.73 5.72,10.66 2,15.49 -3.73,4.82 -10.66,5.72 -15.49,1.99 -4.83,-3.73 -5.72,-10.66 -1.99,-15.49 3.72,-4.82 10.66,-5.72 15.48,-1.99zm0.06 -0.07c-4.87,-3.76 -11.86,-2.86 -15.61,2.01 -3.76,4.86 -2.86,11.85 2.01,15.61 4.86,3.76 11.85,2.86 15.61,-2.01 3.76,-4.86 2.86,-11.85 -2.01,-15.61z"/>
    <path id="_152" class="fil40" d="M8.59 6.37c4.85,3.75 5.75,10.72 2,15.57 -3.74,4.86 -10.71,5.75 -15.57,2.01 -4.85,-3.75 -5.75,-10.72 -2,-15.57 3.75,-4.86 10.72,-5.75 15.57,-2.01zm0.06 -0.07c-4.9,-3.78 -11.92,-2.87 -15.7,2.02 -3.78,4.89 -2.87,11.92 2.02,15.7 4.89,3.78 11.92,2.87 15.7,-2.02 3.77,-4.89 2.87,-11.92 -2.02,-15.7z"/>
    <path id="_153" class="fil40" d="M8.63 6.33c4.88,3.76 5.78,10.77 2.01,15.65 -3.76,4.88 -10.77,5.78 -15.65,2.01 -4.88,-3.76 -5.78,-10.77 -2.02,-15.65 3.77,-4.88 10.78,-5.78 15.66,-2.01zm0.05 -0.08c-4.92,-3.79 -11.98,-2.88 -15.78,2.03 -3.8,4.92 -2.89,11.99 2.03,15.79 4.92,3.79 11.99,2.88 15.78,-2.03 3.8,-4.92 2.89,-11.99 -2.03,-15.79z"/>
    <path id="_154" class="fil40" d="M8.66 6.28c4.91,3.78 5.82,10.83 2.03,15.74 -3.79,4.9 -10.83,5.81 -15.74,2.02 -4.91,-3.78 -5.81,-10.83 -2.02,-15.74 3.78,-4.9 10.83,-5.81 15.73,-2.02zm0.06 -0.07c-4.95,-3.82 -12.05,-2.91 -15.87,2.04 -3.81,4.94 -2.9,12.05 2.05,15.86 4.94,3.82 12.04,2.91 15.86,-2.04 3.82,-4.94 2.91,-12.05 -2.04,-15.86z"/>
    <path id="_155" class="fil40" d="M8.7 6.23c4.93,3.81 5.85,10.89 2.04,15.82 -3.81,4.94 -10.89,5.85 -15.83,2.04 -4.93,-3.81 -5.84,-10.89 -2.03,-15.82 3.8,-4.94 10.89,-5.85 15.82,-2.04zm0.06 -0.07c-4.97,-3.84 -12.12,-2.92 -15.95,2.05 -3.84,4.97 -2.92,12.11 2.05,15.95 4.97,3.84 12.11,2.92 15.95,-2.05 3.84,-4.97 2.92,-12.11 -2.05,-15.95z"/>
    <path id="_156" class="fil40" d="M8.74 6.18c4.96,3.83 5.87,10.95 2.05,15.91 -3.83,4.96 -10.95,5.88 -15.91,2.05 -4.96,-3.83 -5.88,-10.95 -2.05,-15.91 3.83,-4.96 10.95,-5.88 15.91,-2.05zm0.05 -0.07c-4.99,-3.86 -12.17,-2.93 -16.03,2.06 -3.86,5 -2.94,12.18 2.06,16.04 5,3.86 12.18,2.93 16.04,-2.06 3.86,-5 2.93,-12.18 -2.07,-16.04z"/>
    <path id="_157" class="fil40" d="M8.78 6.13c4.98,3.85 5.9,11.01 2.05,16 -3.84,4.98 -11.01,5.9 -15.99,2.06 -4.98,-3.85 -5.91,-11.01 -2.06,-16 3.85,-4.98 11.01,-5.9 16,-2.06zm0.05 -0.07c-5.02,-3.88 -12.24,-2.95 -16.12,2.08 -3.88,5.02 -2.95,12.24 2.07,16.12 5.03,3.88 12.25,2.95 16.13,-2.08 3.87,-5.02 2.95,-12.24 -2.08,-16.12z"/>
    <path id="_158" class="fil40" d="M8.81 6.09c5.01,3.87 5.94,11.06 2.07,16.07 -3.87,5.02 -11.07,5.94 -16.08,2.07 -5.01,-3.86 -5.93,-11.06 -2.07,-16.07 3.87,-5.02 11.07,-5.94 16.08,-2.07zm0.06 -0.08c-5.05,-3.89 -12.31,-2.96 -16.21,2.09 -3.9,5.05 -2.96,12.31 2.09,16.21 5.05,3.89 12.3,2.96 16.2,-2.09 3.9,-5.05 2.97,-12.31 -2.08,-16.21z"/>
    <path id="_159" class="fil40" d="M8.85 6.04c5.04,3.89 5.97,11.12 2.08,16.16 -3.89,5.04 -11.13,5.97 -16.16,2.08 -5.04,-3.89 -5.97,-11.12 -2.08,-16.16 3.89,-5.04 11.12,-5.97 16.16,-2.08zm0.05 -0.07c-5.07,-3.92 -12.37,-2.98 -16.29,2.09 -3.91,5.08 -2.98,12.37 2.1,16.29 5.08,3.92 12.37,2.98 16.29,-2.09 3.92,-5.08 2.98,-12.37 -2.1,-16.29z"/>
    <path id="_160" class="fil41" d="M8.89 5.99c5.06,3.91 6,11.18 2.09,16.25 -3.91,5.06 -11.19,6 -16.25,2.09 -5.06,-3.91 -6,-11.18 -2.09,-16.25 3.91,-5.06 11.18,-6 16.25,-2.09zm0.05 -0.07c-5.1,-3.94 -12.43,-3 -16.37,2.11 -3.94,5.1 -3,12.43 2.1,16.37 5.11,3.94 12.44,3 16.38,-2.11 3.94,-5.1 2.99,-12.43 -2.11,-16.37z"/>
    <path id="_161" class="fil41" d="M8.92 5.94c5.09,3.93 6.03,11.24 2.1,16.34 -3.92,5.09 -11.24,6.03 -16.33,2.1 -5.09,-3.93 -6.03,-11.24 -2.1,-16.33 3.93,-5.1 11.24,-6.04 16.33,-2.11zm0.06 -0.07c-5.13,-3.96 -12.5,-3.01 -16.46,2.12 -3.96,5.13 -3.01,12.5 2.12,16.46 5.13,3.96 12.5,3.01 16.46,-2.12 3.96,-5.13 3.01,-12.5 -2.12,-16.46z"/>
    <path id="_162" class="fil41" d="M8.96 5.9c5.12,3.95 6.06,11.3 2.11,16.41 -3.95,5.12 -11.3,6.06 -16.41,2.11 -5.12,-3.95 -6.07,-11.3 -2.12,-16.41 3.95,-5.12 11.3,-6.06 16.42,-2.11zm0.05 -0.08c-5.15,-3.98 -12.56,-3.02 -16.54,2.13 -3.98,5.16 -3.03,12.57 2.13,16.55 5.16,3.98 12.56,3.02 16.54,-2.13 3.98,-5.16 3.03,-12.57 -2.13,-16.55z"/>
    <path id="_163" class="fil41" d="M9 5.85c5.14,3.97 6.09,11.36 2.12,16.5 -3.97,5.14 -11.36,6.09 -16.5,2.12 -5.14,-3.97 -6.09,-11.36 -2.12,-16.5 3.97,-5.14 11.35,-6.09 16.5,-2.12zm0.05 -0.07c-5.18,-4 -12.63,-3.05 -16.63,2.14 -4,5.18 -3.04,12.62 2.14,16.62 5.19,4 12.63,3.05 16.63,-2.14 4,-5.18 3.04,-12.62 -2.14,-16.62z"/>
    <path id="_164" class="fil41" d="M9.03 5.8c5.17,3.99 6.13,11.42 2.14,16.59 -3.99,5.17 -11.42,6.12 -16.59,2.13 -5.17,-3.99 -6.12,-11.42 -2.13,-16.59 3.99,-5.17 11.41,-6.12 16.58,-2.13zm0.06 -0.07c-5.21,-4.02 -12.69,-3.06 -16.71,2.15 -4.03,5.21 -3.06,12.69 2.15,16.71 5.21,4.02 12.69,3.06 16.71,-2.15 4.02,-5.21 3.06,-12.69 -2.15,-16.71z"/>
    <path id="_165" class="fil41" d="M9.07 5.75c5.2,4.01 6.16,11.48 2.15,16.67 -4.02,5.2 -11.48,6.16 -16.67,2.15 -5.2,-4.01 -6.16,-11.48 -2.15,-16.67 4.01,-5.2 11.47,-6.16 16.67,-2.15zm0.06 -0.07c-5.24,-4.04 -12.76,-3.07 -16.8,2.16 -4.04,5.24 -3.08,12.76 2.16,16.8 5.24,4.04 12.76,3.07 16.8,-2.16 4.04,-5.24 3.07,-12.76 -2.16,-16.8z"/>
    <path id="_166" class="fil41" d="M9.11 5.7c5.22,4.04 6.18,11.54 2.15,16.76 -4.03,5.22 -11.53,6.19 -16.75,2.16 -5.22,-4.04 -6.19,-11.54 -2.16,-16.76 4.03,-5.22 11.53,-6.19 16.76,-2.16zm0.05 -0.07c-5.26,-4.06 -12.82,-3.09 -16.88,2.18 -4.06,5.26 -3.09,12.82 2.17,16.88 5.26,4.06 12.82,3.09 16.88,-2.18 4.07,-5.26 3.09,-12.82 -2.17,-16.88z"/>
    <path id="_167" class="fil41" d="M9.14 5.66c5.25,4.05 6.22,11.59 2.17,16.84 -4.05,5.25 -11.59,6.22 -16.84,2.16 -5.25,-4.05 -6.22,-11.59 -2.17,-16.84 4.06,-5.24 11.6,-6.21 16.84,-2.16zm0.06 -0.07c-5.29,-4.09 -12.89,-3.11 -16.97,2.18 -4.08,5.29 -3.1,12.88 2.19,16.97 5.28,4.08 12.88,3.1 16.96,-2.19 4.09,-5.29 3.11,-12.88 -2.18,-16.96z"/>
    <path id="_168" class="fil42" d="M9.18 5.61c5.28,4.07 6.25,11.65 2.18,16.92 -4.07,5.28 -11.65,6.25 -16.93,2.18 -5.27,-4.07 -6.25,-11.65 -2.17,-16.92 4.07,-5.28 11.65,-6.25 16.92,-2.18zm0.06 -0.07c-5.32,-4.11 -12.95,-3.12 -17.06,2.19 -4.1,5.32 -3.12,12.95 2.2,17.05 5.31,4.11 12.95,3.12 17.05,-2.19 4.1,-5.32 3.12,-12.95 -2.19,-17.05z"/>
    <path id="_169" class="fil42" d="M9.22 5.56c5.3,4.09 6.28,11.71 2.19,17.01 -4.1,5.3 -11.71,6.28 -17.01,2.19 -5.3,-4.09 -6.28,-11.71 -2.19,-17.01 4.09,-5.3 11.71,-6.28 17.01,-2.19zm0.05 -0.07c-5.34,-4.12 -13.01,-3.14 -17.13,2.2 -4.13,5.35 -3.14,13.02 2.2,17.14 5.34,4.12 13.02,3.14 17.14,-2.2 4.12,-5.35 3.13,-13.02 -2.21,-17.14z"/>
    <path id="_170" class="fil43" d="M9.25 5.51c5.33,4.12 6.32,11.77 2.2,17.1 -4.11,5.32 -11.76,6.31 -17.09,2.2 -5.33,-4.12 -6.31,-11.77 -2.2,-17.1 4.11,-5.32 11.77,-6.31 17.09,-2.2zm0.06 -0.07c-5.37,-4.14 -13.08,-3.15 -17.22,2.22 -4.14,5.37 -3.15,13.08 2.22,17.22 5.36,4.14 13.07,3.15 17.22,-2.22 4.14,-5.36 3.15,-13.07 -2.22,-17.22z"/>
    <path id="_171" class="fil43" d="M9.29 5.47c5.36,4.13 6.35,11.82 2.21,17.17 -4.13,5.36 -11.82,6.35 -17.18,2.21 -5.35,-4.13 -6.34,-11.82 -2.21,-17.17 4.14,-5.36 11.83,-6.35 17.18,-2.21zm0.06 -0.08c-5.4,-4.16 -13.14,-3.16 -17.31,2.23 -4.16,5.39 -3.16,13.14 2.23,17.31 5.39,4.16 13.14,3.16 17.3,-2.23 4.17,-5.39 3.17,-13.14 -2.22,-17.31z"/>
    <path id="_172" class="fil43" d="M9.33 5.42c5.38,4.15 6.37,11.88 2.22,17.26 -4.15,5.38 -11.88,6.38 -17.26,2.22 -5.38,-4.15 -6.38,-11.88 -2.22,-17.26 4.15,-5.38 11.88,-6.38 17.26,-2.22zm0.05 -0.07c-5.42,-4.19 -13.2,-3.19 -17.39,2.23 -4.18,5.42 -3.18,13.21 2.24,17.39 5.42,4.19 13.21,3.19 17.39,-2.23 4.19,-5.42 3.18,-13.21 -2.24,-17.39z"/>
    <path id="_173" class="fil43" d="M9.37 5.37c5.4,4.17 6.4,11.94 2.23,17.35 -4.18,5.4 -11.94,6.4 -17.35,2.23 -5.41,-4.17 -6.41,-11.94 -2.23,-17.35 4.17,-5.4 11.94,-6.4 17.35,-2.23zm0.05 -0.07c-5.45,-4.21 -13.27,-3.2 -17.47,2.25 -4.21,5.44 -3.2,13.27 2.24,17.47 5.45,4.21 13.27,3.2 17.48,-2.25 4.2,-5.44 3.2,-13.27 -2.25,-17.47z"/>
    <path id="_174" class="fil43" d="M9.4 5.32c5.44,4.2 6.44,12 2.25,17.43 -4.2,5.44 -12,6.44 -17.44,2.25 -5.43,-4.2 -6.43,-12 -2.24,-17.43 4.19,-5.44 12,-6.44 17.43,-2.25zm0.06 -0.07c-5.48,-4.22 -13.34,-3.21 -17.56,2.26 -4.23,5.47 -3.21,13.33 2.26,17.56 5.47,4.22 13.33,3.21 17.56,-2.26 4.22,-5.47 3.21,-13.33 -2.26,-17.56z"/>
    <path id="_175" class="fil43" d="M9.44 5.27c5.46,4.22 6.47,12.06 2.25,17.52 -4.21,5.46 -12.05,6.47 -17.51,2.26 -5.46,-4.22 -6.47,-12.06 -2.26,-17.52 4.22,-5.46 12.06,-6.47 17.52,-2.26zm0.05 -0.07c-5.49,-4.24 -13.39,-3.23 -17.64,2.27 -4.24,5.5 -3.23,13.4 2.27,17.65 5.5,4.24 13.4,3.23 17.64,-2.27 4.25,-5.5 3.23,-13.4 -2.27,-17.65z"/>
    <path id="_176" class="fil43" d="M9.48 5.23c5.48,4.23 6.5,12.11 2.26,17.6 -4.23,5.48 -12.11,6.5 -17.6,2.26 -5.49,-4.23 -6.5,-12.11 -2.27,-17.6 4.24,-5.48 12.12,-6.5 17.61,-2.26zm0.05 -0.07c-5.52,-4.27 -13.46,-3.25 -17.73,2.28 -4.26,5.52 -3.24,13.46 2.28,17.72 5.53,4.27 13.47,3.25 17.73,-2.28 4.27,-5.52 3.25,-13.46 -2.28,-17.72z"/>
    <path id="_177" class="fil43" d="M9.51 5.18c5.51,4.25 6.53,12.17 2.28,17.69 -4.26,5.51 -12.17,6.53 -17.69,2.27 -5.51,-4.25 -6.53,-12.17 -2.27,-17.68 4.25,-5.52 12.17,-6.54 17.68,-2.28zm0.06 -0.07c-5.55,-4.29 -13.53,-3.26 -17.81,2.29 -4.29,5.55 -3.26,13.53 2.29,17.81 5.55,4.29 13.52,3.26 17.81,-2.29 4.29,-5.55 3.26,-13.53 -2.29,-17.81z"/>
    <path id="_178" class="fil43" d="M9.55 5.13c5.54,4.28 6.56,12.23 2.29,17.77 -4.28,5.54 -12.24,6.56 -17.77,2.29 -5.54,-4.28 -6.57,-12.23 -2.29,-17.77 4.27,-5.54 12.23,-6.56 17.77,-2.29zm0.05 -0.07c-5.57,-4.31 -13.59,-3.28 -17.89,2.3 -4.31,5.58 -3.28,13.59 2.3,17.9 5.58,4.31 13.59,3.28 17.9,-2.3 4.3,-5.58 3.27,-13.59 -2.31,-17.9z"/>
    <path id="_179" class="fil44" d="M9.59 5.08c5.56,4.3 6.59,12.29 2.29,17.86 -4.29,5.56 -12.29,6.59 -17.85,2.3 -5.57,-4.3 -6.59,-12.29 -2.3,-17.86 4.3,-5.56 12.29,-6.59 17.86,-2.3zm0.05 -0.07c-5.6,-4.32 -13.65,-3.29 -17.98,2.32 -4.33,5.6 -3.29,13.65 2.31,17.98 5.61,4.32 13.66,3.29 17.99,-2.32 4.32,-5.6 3.29,-13.65 -2.32,-17.98z"/>
    <path id="_180" class="fil44" d="M9.62 5.04c5.59,4.31 6.63,12.34 2.31,17.94 -4.31,5.59 -12.35,6.62 -17.94,2.3 -5.59,-4.31 -6.62,-12.34 -2.31,-17.94 4.32,-5.59 12.35,-6.62 17.94,-2.3zm0.06 -0.08c-5.63,-4.34 -13.72,-3.3 -18.07,2.33 -4.35,5.63 -3.3,13.72 2.33,18.07 5.63,4.34 13.72,3.3 18.06,-2.33 4.35,-5.63 3.31,-13.72 -2.32,-18.07z"/>
    <path id="_181" class="fil44" d="M9.66 4.99c5.62,4.33 6.66,12.4 2.32,18.02 -4.34,5.62 -12.41,6.66 -18.02,2.32 -5.62,-4.33 -6.66,-12.4 -2.32,-18.02 4.33,-5.62 12.4,-6.66 18.02,-2.32zm0.06 -0.07c-5.66,-4.37 -13.79,-3.32 -18.16,2.33 -4.36,5.66 -3.32,13.79 2.34,18.15 5.66,4.37 13.78,3.33 18.15,-2.33 4.37,-5.66 3.32,-13.79 -2.33,-18.15z"/>
    <path id="_182" class="fil44" d="M9.7 4.94c5.64,4.36 6.68,12.47 2.33,18.11 -4.36,5.64 -12.47,6.69 -18.11,2.33 -5.65,-4.36 -6.69,-12.46 -2.33,-18.11 4.36,-5.64 12.46,-6.69 18.11,-2.33zm0.05 -0.07c-5.68,-4.39 -13.85,-3.34 -18.23,2.35 -4.39,5.68 -3.34,13.84 2.34,18.23 5.69,4.39 13.85,3.34 18.24,-2.35 4.39,-5.68 3.34,-13.84 -2.35,-18.23z"/>
    <path id="_183" class="fil45" d="M9.73 4.89c5.67,4.38 6.72,12.53 2.35,18.2 -4.38,5.67 -12.53,6.72 -18.2,2.34 -5.67,-4.38 -6.72,-12.53 -2.34,-18.2 4.38,-5.67 12.52,-6.71 18.19,-2.34zm0.06 -0.07c-5.71,-4.41 -13.91,-3.35 -18.32,2.36 -4.41,5.71 -3.35,13.91 2.36,18.32 5.71,4.41 13.91,3.35 18.32,-2.36 4.4,-5.71 3.35,-13.91 -2.36,-18.32z"/>
    <path id="_184" class="fil45" d="M9.77 4.84c5.7,4.4 6.75,12.59 2.35,18.28 -4.39,5.7 -12.58,6.75 -18.28,2.36 -5.69,-4.4 -6.75,-12.59 -2.35,-18.28 4.4,-5.7 12.58,-6.75 18.28,-2.36zm0.06 -0.07c-5.74,-4.43 -13.98,-3.36 -18.41,2.37 -4.43,5.74 -3.37,13.98 2.37,18.41 5.74,4.43 13.98,3.36 18.4,-2.37 4.43,-5.74 3.37,-13.98 -2.36,-18.41z"/>
    <path id="_185" class="fil45" d="M9.81 4.8c5.72,4.42 6.78,12.64 2.36,18.36 -4.42,5.72 -12.64,6.78 -18.36,2.36 -5.73,-4.42 -6.78,-12.64 -2.37,-18.36 4.42,-5.72 12.64,-6.78 18.37,-2.36zm0.05 -0.07c-5.76,-4.45 -14.04,-3.39 -18.49,2.37 -4.45,5.77 -3.38,14.05 2.38,18.49 5.77,4.45 14.04,3.39 18.49,-2.37 4.45,-5.77 3.39,-14.05 -2.38,-18.49z"/>
    <path id="_186" class="fil45" d="M9.84 4.75c5.75,4.44 6.82,12.7 2.38,18.45 -4.44,5.75 -12.7,6.81 -18.45,2.37 -5.75,-4.44 -6.81,-12.7 -2.37,-18.45 4.44,-5.75 12.69,-6.81 18.44,-2.37zm0.06 -0.07c-5.79,-4.47 -14.11,-3.4 -18.57,2.39 -4.47,5.79 -3.4,14.1 2.39,18.57 5.78,4.47 14.1,3.4 18.57,-2.39 4.47,-5.79 3.4,-14.1 -2.39,-18.57z"/>
    <path id="_187" class="fil45" d="M9.88 4.7c5.78,4.46 6.85,12.76 2.39,18.53 -4.46,5.78 -12.76,6.85 -18.54,2.39 -5.77,-4.46 -6.84,-12.76 -2.38,-18.53 4.46,-5.78 12.76,-6.85 18.53,-2.39zm0.06 -0.07c-5.82,-4.49 -14.17,-3.41 -18.66,2.4 -4.49,5.82 -3.42,14.17 2.4,18.66 5.81,4.49 14.17,3.41 18.66,-2.4 4.49,-5.82 3.41,-14.17 -2.4,-18.66z"/>
    <path id="_188" class="fil45" d="M9.92 4.65c5.8,4.48 6.87,12.82 2.39,18.62 -4.48,5.8 -12.81,6.88 -18.61,2.4 -5.81,-4.48 -6.88,-12.82 -2.4,-18.62 4.48,-5.8 12.82,-6.88 18.62,-2.4zm0.05 -0.07c-5.84,-4.51 -14.23,-3.43 -18.74,2.41 -4.51,5.85 -3.43,14.24 2.41,18.75 5.84,4.51 14.24,3.43 18.75,-2.41 4.51,-5.85 3.43,-14.24 -2.42,-18.75z"/>
    <path id="_189" class="fil45" d="M9.96 4.61c5.82,4.5 6.9,12.87 2.4,18.7 -4.5,5.83 -12.87,6.9 -18.7,2.4 -5.83,-4.5 -6.91,-12.87 -2.41,-18.7 4.5,-5.83 12.88,-6.9 18.71,-2.4zm0.05 -0.08c-5.87,-4.53 -14.3,-3.44 -18.83,2.43 -4.53,5.87 -3.44,14.3 2.43,18.83 5.86,4.53 14.29,3.44 18.82,-2.43 4.53,-5.87 3.45,-14.3 -2.42,-18.83z"/>
    <path id="_190" class="fil45" d="M9.99 4.56c5.86,4.52 6.94,12.93 2.42,18.78 -4.52,5.86 -12.93,6.94 -18.79,2.42 -5.85,-4.52 -6.93,-12.93 -2.41,-18.78 4.52,-5.86 12.93,-6.94 18.78,-2.42zm0.06 -0.07c-5.9,-4.55 -14.37,-3.46 -18.92,2.43 -4.55,5.9 -3.46,14.36 2.44,18.91 5.89,4.55 14.36,3.46 18.91,-2.43 4.55,-5.9 3.46,-14.36 -2.43,-18.91z"/>
    <path id="_191" class="fil45" d="M10.03 4.51c5.88,4.54 6.97,12.99 2.43,18.87 -4.54,5.88 -12.99,6.97 -18.87,2.43 -5.88,-4.54 -6.97,-12.99 -2.43,-18.87 4.54,-5.88 12.99,-6.97 18.87,-2.43zm0.05 -0.07c-5.92,-4.57 -14.42,-3.48 -18.99,2.44 -4.57,5.92 -3.48,14.43 2.44,19 5.92,4.57 14.43,3.48 19,-2.44 4.57,-5.92 3.48,-14.43 -2.45,-19z"/>
    <path id="_192" class="fil46" d="M10.07 4.46c5.9,4.56 7,13.05 2.44,18.96 -4.57,5.91 -13.05,7 -18.96,2.44 -5.91,-4.56 -7,-13.05 -2.44,-18.96 4.56,-5.91 13.05,-7 18.96,-2.44zm0.05 -0.07c-5.95,-4.59 -14.49,-3.49 -19.08,2.46 -4.59,5.94 -3.49,14.49 2.45,19.08 5.95,4.59 14.5,3.49 19.09,-2.46 4.59,-5.94 3.49,-14.49 -2.46,-19.08z"/>
    <path id="_193" class="fil46" d="M10.1 4.42c5.94,4.58 7.03,13.1 2.45,19.03 -4.58,5.94 -13.1,7.04 -19.04,2.46 -5.93,-4.59 -7.03,-13.11 -2.45,-19.04 4.58,-5.94 13.11,-7.04 19.04,-2.45zm0.06 -0.08c-5.98,-4.61 -14.56,-3.5 -19.17,2.47 -4.61,5.97 -3.51,14.56 2.47,19.17 5.97,4.61 14.55,3.5 19.16,-2.47 4.62,-5.97 3.51,-14.55 -2.46,-19.17z"/>
    <path id="_194" class="fil46" d="M10.14 4.37c5.96,4.6 7.06,13.16 2.46,19.12 -4.6,5.96 -13.16,7.06 -19.12,2.46 -5.96,-4.6 -7.07,-13.16 -2.47,-19.12 4.61,-5.96 13.17,-7.06 19.13,-2.46zm0.05 -0.07c-6,-4.64 -14.61,-3.53 -19.25,2.47 -4.63,6 -3.52,14.62 2.48,19.25 6,4.64 14.62,3.53 19.25,-2.47 4.63,-6 3.52,-14.62 -2.48,-19.25z"/>
    <path id="_195" class="fil46" d="M10.18 4.32c5.98,4.62 7.09,13.22 2.47,19.21 -4.62,5.99 -13.22,7.09 -19.21,2.47 -5.99,-4.62 -7.09,-13.22 -2.47,-19.21 4.62,-5.99 13.22,-7.09 19.21,-2.47zm0.05 -0.07c-6.03,-4.65 -14.68,-3.54 -19.33,2.49 -4.66,6.02 -3.54,14.68 2.48,19.33 6.03,4.65 14.69,3.54 19.34,-2.49 4.65,-6.02 3.54,-14.68 -2.49,-19.33z"/>
    <path id="_196" class="fil46" d="M10.21 4.27c6.02,4.64 7.13,13.28 2.49,19.3 -4.65,6.01 -13.28,7.12 -19.3,2.48 -6.01,-4.64 -7.12,-13.28 -2.48,-19.3 4.64,-6.01 13.28,-7.12 19.29,-2.48zm0.06 -0.07c-6.05,-4.67 -14.75,-3.55 -19.42,2.5 -4.67,6.05 -3.56,14.75 2.5,19.42 6.05,4.67 14.74,3.55 19.42,-2.5 4.67,-6.05 3.55,-14.75 -2.5,-19.42z"/>
    <path id="_197" class="fil46" d="M10.25 4.22c6.04,4.67 7.16,13.34 2.49,19.38 -4.66,6.04 -13.33,7.16 -19.37,2.5 -6.04,-4.67 -7.16,-13.34 -2.5,-19.38 4.66,-6.04 13.34,-7.16 19.38,-2.5zm0.06 -0.07c-6.08,-4.69 -14.82,-3.57 -19.51,2.51 -4.69,6.08 -3.57,14.81 2.51,19.51 6.08,4.69 14.81,3.57 19.51,-2.51 4.69,-6.08 3.56,-14.81 -2.51,-19.51z"/>
    <path id="_198" class="fil46" d="M10.29 4.18c6.06,4.68 7.18,13.39 2.5,19.46 -4.68,6.07 -13.4,7.19 -19.46,2.5 -6.07,-4.68 -7.19,-13.39 -2.51,-19.46 4.69,-6.07 13.4,-7.19 19.47,-2.5zm0.05 -0.08c-6.1,-4.71 -14.87,-3.58 -19.59,2.53 -4.71,6.1 -3.58,14.87 2.52,19.59 6.11,4.71 14.88,3.58 19.59,-2.53 4.72,-6.1 3.59,-14.87 -2.52,-19.59z"/>
    <path id="_199" class="fil46" d="M10.32 4.13c6.1,4.7 7.22,13.45 2.52,19.55 -4.7,6.09 -13.46,7.21 -19.55,2.51 -6.09,-4.7 -7.22,-13.45 -2.51,-19.55 4.7,-6.09 13.45,-7.21 19.54,-2.51zm0.06 -0.07c-6.13,-4.74 -14.94,-3.6 -19.68,2.53 -4.73,6.13 -3.6,14.94 2.54,19.67 6.13,4.74 14.94,3.6 19.67,-2.53 4.73,-6.13 3.6,-14.94 -2.53,-19.67z"/>
    <path id="_200" class="fil3" d="M10.36 4.08c6.12,4.72 7.25,13.51 2.53,19.63 -4.73,6.12 -13.52,7.25 -19.64,2.53 -6.11,-4.72 -7.25,-13.51 -2.52,-19.63 4.72,-6.12 13.51,-7.25 19.63,-2.53zm0.06 -0.07c-6.16,-4.75 -15.01,-3.62 -19.76,2.54 -4.76,6.16 -3.62,15.01 2.54,19.76 6.16,4.76 15,3.62 19.76,-2.54 4.75,-6.16 3.61,-15.01 -2.54,-19.76z"/>
    <path id="_201" class="fil3" d="M10.4 4.03c6.14,4.75 7.28,13.57 2.53,19.72 -4.74,6.15 -13.57,7.28 -19.71,2.54 -6.15,-4.75 -7.28,-13.57 -2.54,-19.72 4.74,-6.14 13.57,-7.28 19.72,-2.54zm0.05 -0.07c-6.18,-4.77 -15.07,-3.63 -19.84,2.56 -4.78,6.18 -3.63,15.06 2.55,19.84 6.19,4.77 15.07,3.63 19.85,-2.55 4.77,-6.19 3.63,-15.07 -2.56,-19.85z"/>
    <path id="_202" class="fil3" d="M10.43 3.99c6.18,4.76 7.32,13.63 2.55,19.8 -4.76,6.17 -13.63,7.31 -19.8,2.54 -6.17,-4.76 -7.31,-13.62 -2.55,-19.8 4.77,-6.17 13.63,-7.31 19.8,-2.54zm0.06 -0.08c-6.21,-4.79 -15.13,-3.64 -19.93,2.57 -4.79,6.21 -3.65,15.13 2.57,19.93 6.21,4.79 15.13,3.64 19.92,-2.57 4.8,-6.21 3.65,-15.13 -2.56,-19.93z"/>
    <path id="_203" class="fil3" d="M10.47 3.94c6.2,4.78 7.35,13.69 2.56,19.88 -4.78,6.2 -13.69,7.35 -19.89,2.56 -6.19,-4.78 -7.34,-13.69 -2.55,-19.88 4.78,-6.2 13.68,-7.35 19.88,-2.56zm0.06 -0.07c-6.24,-4.82 -15.2,-3.67 -20.02,2.57 -4.81,6.24 -3.66,15.2 2.58,20.01 6.24,4.82 15.2,3.67 20.01,-2.57 4.82,-6.24 3.66,-15.2 -2.57,-20.01z"/>
    <path id="_204" class="fil3" d="M10.51 3.89c6.22,4.8 7.37,13.75 2.57,19.97 -4.81,6.22 -13.75,7.38 -19.97,2.57 -6.23,-4.8 -7.38,-13.75 -2.57,-19.97 4.8,-6.22 13.74,-7.38 19.97,-2.57zm0.05 -0.07c-6.26,-4.84 -15.26,-3.68 -20.09,2.58 -4.84,6.27 -3.68,15.27 2.58,20.1 6.27,4.84 15.26,3.68 20.1,-2.58 4.84,-6.27 3.68,-15.27 -2.59,-20.1z"/>
    <path id="_205" class="fil3" d="M10.54 3.84c6.26,4.83 7.41,13.81 2.59,20.06 -4.83,6.25 -13.81,7.4 -20.06,2.58 -6.25,-4.83 -7.41,-13.81 -2.58,-20.06 4.83,-6.25 13.8,-7.4 20.05,-2.58zm0.06 -0.07c-6.29,-4.86 -15.33,-3.69 -20.18,2.6 -4.86,6.29 -3.7,15.32 2.6,20.18 6.29,4.86 15.32,3.69 20.18,-2.6 4.85,-6.29 3.69,-15.32 -2.6,-20.18z"/>
    <path id="_206" class="fil3" d="M10.58 3.79c6.28,4.85 7.44,13.87 2.59,20.14 -4.84,6.28 -13.86,7.44 -20.14,2.6 -6.27,-4.85 -7.43,-13.87 -2.59,-20.14 4.85,-6.28 13.86,-7.44 20.14,-2.6zm0.06 -0.07c-6.32,-4.87 -15.39,-3.71 -20.27,2.61 -4.88,6.32 -3.71,15.39 2.61,20.27 6.32,4.87 15.39,3.71 20.27,-2.61 4.87,-6.32 3.7,-15.39 -2.61,-20.27z"/>
    <path id="_207" class="fil3" d="M10.62 3.75c6.3,4.86 7.47,13.92 2.6,20.22 -4.86,6.3 -13.92,7.47 -20.22,2.6 -6.31,-4.86 -7.47,-13.92 -2.61,-20.22 4.87,-6.3 13.93,-7.47 20.23,-2.6zm0.05 -0.08c-6.34,-4.89 -15.45,-3.72 -20.35,2.62 -4.89,6.35 -3.72,15.46 2.62,20.36 6.34,4.89 15.46,3.72 20.35,-2.62 4.9,-6.35 3.73,-15.46 -2.62,-20.36z"/>
    <path id="_208" class="fil3" d="M10.66 3.7c6.33,4.89 7.5,13.98 2.61,20.31 -4.89,6.33 -13.98,7.5 -20.31,2.61 -6.33,-4.88 -7.5,-13.98 -2.61,-20.31 4.88,-6.33 13.98,-7.5 20.31,-2.61zm0.05 -0.07c-6.37,-4.92 -15.52,-3.74 -20.44,2.63 -4.91,6.37 -3.73,15.52 2.63,20.43 6.37,4.92 15.52,3.74 20.44,-2.63 4.92,-6.37 3.74,-15.52 -2.63,-20.43z"/>
    <path id="_209" class="fil3" d="M10.69 3.65c6.36,4.91 7.53,14.04 2.63,20.39 -4.91,6.36 -14.04,7.54 -20.4,2.63 -6.35,-4.91 -7.53,-14.04 -2.62,-20.39 4.91,-6.36 14.04,-7.54 20.39,-2.63zm0.06 -0.07c-6.4,-4.94 -15.59,-3.76 -20.52,2.64 -4.94,6.4 -3.76,15.58 2.64,20.52 6.39,4.94 15.58,3.76 20.52,-2.64 4.94,-6.4 3.75,-15.58 -2.64,-20.52z"/>
    <path id="_210" class="fil3" d="M10.73 3.6c6.38,4.93 7.56,14.1 2.63,20.48 -4.92,6.38 -14.09,7.56 -20.47,2.64 -6.39,-4.93 -7.57,-14.1 -2.64,-20.48 4.93,-6.38 14.1,-7.56 20.48,-2.64zm0.05 -0.07c-6.42,-4.96 -15.64,-3.77 -20.6,2.65 -4.96,6.43 -3.77,15.65 2.65,20.61 6.42,4.96 15.65,3.77 20.61,-2.65 4.95,-6.43 3.77,-15.65 -2.66,-20.61z"/>
    <path id="_211" class="fil3" d="M10.77 3.56c6.41,4.94 7.59,14.15 2.64,20.56 -4.95,6.41 -14.15,7.59 -20.56,2.64 -6.41,-4.94 -7.59,-14.15 -2.65,-20.56 4.95,-6.41 14.16,-7.59 20.57,-2.64zm0.05 -0.08c-6.45,-4.97 -15.71,-3.78 -20.69,2.67 -4.98,6.45 -3.78,15.71 2.66,20.69 6.45,4.97 15.72,3.78 20.69,-2.67 4.98,-6.44 3.79,-15.71 -2.66,-20.69z"/>
    <path id="_212" class="fil3" d="M10.8 3.51c6.44,4.97 7.63,14.21 2.66,20.65 -4.97,6.43 -14.21,7.62 -20.65,2.65 -6.43,-4.97 -7.62,-14.21 -2.65,-20.65 4.96,-6.43 14.21,-7.62 20.64,-2.65zm0.06 -0.07c-6.48,-5 -15.78,-3.81 -20.78,2.67 -4.99,6.47 -3.8,15.78 2.68,20.77 6.47,5 15.77,3.81 20.77,-2.67 5,-6.47 3.8,-15.78 -2.67,-20.77z"/>
    <path id="_213" class="fil3" d="M10.84 3.46c6.46,4.99 7.66,14.27 2.67,20.73 -4.99,6.46 -14.27,7.66 -20.73,2.67 -6.47,-4.99 -7.66,-14.27 -2.67,-20.73 4.99,-6.46 14.27,-7.66 20.73,-2.67zm0.06 -0.07c-6.51,-5.02 -15.85,-3.82 -20.86,2.68 -5.02,6.5 -3.82,15.84 2.68,20.86 6.5,5.02 15.84,3.82 20.86,-2.68 5.02,-6.5 3.82,-15.84 -2.68,-20.86z"/>
    <path id="_214" class="fil3" d="M10.88 3.41c6.48,5.01 7.68,14.33 2.68,20.82 -5.01,6.49 -14.33,7.69 -20.82,2.68 -6.49,-5.01 -7.69,-14.33 -2.68,-20.82 5.01,-6.49 14.33,-7.69 20.82,-2.68zm0.05 -0.07c-6.53,-5.04 -15.9,-3.83 -20.94,2.7 -5.04,6.52 -3.83,15.9 2.69,20.94 6.53,5.04 15.91,3.83 20.95,-2.7 5.04,-6.52 3.83,-15.9 -2.7,-20.94z"/>
    <path id="_215" class="fil3" d="M10.91 3.36c6.52,5.03 7.72,14.39 2.69,20.91 -5.03,6.51 -14.38,7.71 -20.9,2.69 -6.51,-5.03 -7.72,-14.39 -2.69,-20.91 5.03,-6.51 14.39,-7.71 20.9,-2.69zm0.06 -0.07c-6.56,-5.06 -15.97,-3.85 -21.03,2.71 -5.06,6.55 -3.85,15.97 2.71,21.03 6.55,5.06 15.97,3.85 21.03,-2.71 5.05,-6.55 3.84,-15.97 -2.71,-21.03z"/>
    <path id="_216" class="fil3" d="M10.95 3.32c6.54,5.05 7.75,14.44 2.7,20.98 -5.05,6.54 -14.44,7.75 -20.98,2.7 -6.55,-5.05 -7.76,-14.44 -2.71,-20.98 5.05,-6.54 14.45,-7.75 20.99,-2.7zm0.06 -0.07c-6.58,-5.08 -16.04,-3.87 -21.12,2.71 -5.08,6.58 -3.86,16.04 2.72,21.12 6.58,5.08 16.03,3.86 21.11,-2.72 5.08,-6.58 3.87,-16.03 -2.71,-21.11z"/>
    <path id="_217" class="fil3" d="M10.99 3.27c6.56,5.07 7.78,14.5 2.71,21.07 -5.07,6.57 -14.5,7.78 -21.07,2.71 -6.57,-5.07 -7.78,-14.5 -2.71,-21.07 5.07,-6.57 14.5,-7.78 21.07,-2.71zm0.05 -0.07c-6.6,-5.1 -16.09,-3.88 -21.2,2.73 -5.1,6.6 -3.87,16.09 2.73,21.19 6.61,5.1 16.1,3.88 21.2,-2.72 5.1,-6.61 3.88,-16.1 -2.73,-21.2z"/>
    <path id="_218" class="fil3" d="M11.02 3.22c6.6,5.09 7.82,14.56 2.73,21.16 -5.09,6.59 -14.57,7.81 -21.16,2.72 -6.59,-5.09 -7.81,-14.56 -2.72,-21.16 5.09,-6.59 14.56,-7.81 21.15,-2.72zm0.06 -0.07c-6.63,-5.12 -16.16,-3.89 -21.28,2.74 -5.12,6.63 -3.9,16.16 2.74,21.28 6.63,5.12 16.16,3.9 21.28,-2.74 5.12,-6.63 3.89,-16.16 -2.74,-21.28z"/>
    <path id="_219" class="fil3" d="M11.06 3.17c6.62,5.11 7.84,14.62 2.73,21.24 -5.11,6.62 -14.62,7.85 -21.24,2.74 -6.62,-5.11 -7.84,-14.62 -2.73,-21.24 5.11,-6.62 14.62,-7.85 21.24,-2.74zm0.06 -0.07c-6.66,-5.14 -16.23,-3.91 -21.37,2.75 -5.14,6.66 -3.91,16.23 2.75,21.37 6.66,5.14 16.23,3.91 21.37,-2.75 5.14,-6.66 3.91,-16.23 -2.75,-21.37z"/>
    <path id="_220" class="fil3" d="M11.1 3.13c6.64,5.13 7.87,14.67 2.74,21.32 -5.13,6.65 -14.68,7.88 -21.32,2.74 -6.65,-5.13 -7.88,-14.67 -2.75,-21.32 5.13,-6.65 14.68,-7.88 21.33,-2.74zm0.05 -0.08c-6.68,-5.16 -16.29,-3.92 -21.45,2.76 -5.16,6.69 -3.92,16.29 2.76,21.46 6.69,5.16 16.29,3.92 21.45,-2.76 5.17,-6.69 3.93,-16.29 -2.76,-21.46z"/>
    <path id="_221" class="fil3" d="M11.13 3.08c6.68,5.15 7.91,14.73 2.76,21.41 -5.15,6.67 -14.74,7.9 -21.41,2.75 -6.67,-5.15 -7.91,-14.73 -2.75,-21.41 5.15,-6.67 14.73,-7.9 21.4,-2.75zm0.06 -0.07c-6.71,-5.19 -16.35,-3.94 -21.54,2.77 -5.18,6.71 -3.94,16.35 2.78,21.53 6.71,5.19 16.35,3.94 21.53,-2.77 5.18,-6.71 3.94,-16.35 -2.77,-21.53z"/>
    <path id="_222" class="fil3" d="M11.17 3.03c6.7,5.17 7.94,14.79 2.77,21.49 -5.17,6.7 -14.8,7.94 -21.5,2.77 -6.7,-5.17 -7.93,-14.79 -2.76,-21.49 5.17,-6.7 14.79,-7.94 21.49,-2.77zm0.06 -0.07c-6.74,-5.2 -16.42,-3.96 -21.62,2.78 -5.21,6.74 -3.96,16.42 2.78,21.62 6.74,5.2 16.42,3.96 21.62,-2.78 5.2,-6.74 3.96,-16.42 -2.78,-21.62z"/>
    <path id="_223" class="fil3" d="M11.21 2.98c6.72,5.19 7.97,14.86 2.78,21.58 -5.2,6.73 -14.86,7.97 -21.58,2.78 -6.73,-5.19 -7.97,-14.86 -2.78,-21.58 5.19,-6.73 14.85,-7.97 21.58,-2.78zm0.04 -0.05c-6.76,-5.21 -16.46,-3.96 -21.67,2.79 -5.21,6.75 -3.96,16.45 2.79,21.67 6.75,5.21 16.45,3.96 21.66,-2.79 5.22,-6.75 3.97,-16.45 -2.78,-21.67z"/>
   </g>
  </g>
  <path id="path517_36721" class="fil47" d="M10.39 12.55c0.5,-0.31 0.95,-0.68 1.34,-1.09 -0.24,-0.06 -0.53,-0.1 -0.74,-0.34 -0.58,-0.67 -0.9,-1.2 -1.91,-1.44 -0.36,-0.08 -0.79,-0.16 -1.15,-0.25 -0.37,-0.09 -0.67,-0.19 -0.89,-0.26 -0.21,-0.08 -0.34,-0.14 -0.42,-0.2 -0.09,-0.07 -0.13,-0.14 -0.12,-0.23 0,-0.09 0.06,-0.2 0.16,-0.31 0.11,-0.11 0.27,-0.22 0.44,-0.32 0.18,-0.11 0.37,-0.2 0.5,-0.28 0.13,-0.08 0.2,-0.14 0.21,-0.19 0.01,-0.05 -0.04,-0.1 -0.1,-0.14 -0.07,-0.04 -0.16,-0.06 -0.46,-0.11 -0.29,-0.06 -0.81,-0.13 -1.29,-0.19 -0.49,-0.05 -1.11,-0.1 -1.21,-0.12 -1.85,-0.23 -3.64,-0.36 -4.75,-0.28 0,1.23 0.33,2.47 1.03,3.59 1.99,3.18 6.17,4.15 9.36,2.16z"/>
  <path id="path517_36722" class="fil48" d="M0.04 7.53c0.11,0.98 0.43,1.96 0.99,2.86 1.88,3 5.72,4.03 8.82,2.46 -0.1,-0.03 -0.21,-0.07 -0.3,-0.12 -0.19,-0.07 -0.35,-0.16 -0.49,-0.25 -0.14,-0.1 -0.26,-0.21 -0.35,-0.33 -0.09,-0.12 -0.16,-0.24 -0.21,-0.38 -0.05,-0.15 -0.1,-0.3 -0.17,-0.45 -0.07,-0.15 -0.18,-0.3 -0.29,-0.41 -0.11,-0.12 -0.24,-0.2 -0.44,-0.29 -0.21,-0.09 -0.5,-0.18 -0.86,-0.27 -0.36,-0.08 -0.79,-0.16 -1.15,-0.25 -0.37,-0.09 -0.67,-0.18 -0.88,-0.26 -0.22,-0.08 -0.34,-0.14 -0.43,-0.2 -0.08,-0.06 -0.13,-0.13 -0.12,-0.22 0,-0.09 0.06,-0.21 0.17,-0.32 0.1,-0.11 0.26,-0.22 0.44,-0.32 0.17,-0.1 0.36,-0.2 0.49,-0.28 0.13,-0.08 0.2,-0.13 0.21,-0.19 0.01,-0.05 -0.04,-0.1 -0.1,-0.13 -0.07,-0.04 -0.15,-0.07 -0.45,-0.12 -0.3,-0.05 -0.82,-0.13 -1.3,-0.18 -0.49,-0.06 -1.08,-0.11 -1.21,-0.12 -0.08,-0.01 -1.34,-0.13 -2.37,-0.23z"/>
  <path id="path517_36723" class="fil49" d="M0.09 7.88c0.05,0.35 0.14,0.7 0.25,1.05 0.52,0.3 1.05,0.71 1.45,1.34 0.93,1.49 3.95,3.31 6.57,3.13 0.2,-0.05 0.41,-0.11 0.61,-0.18 -0.07,-0.02 -0.14,-0.04 -0.21,-0.06 -0.16,-0.05 -0.37,-0.13 -0.55,-0.2 -0.19,-0.08 -0.35,-0.16 -0.49,-0.26 -0.14,-0.1 -0.26,-0.21 -0.35,-0.33 -0.09,-0.11 -0.16,-0.24 -0.21,-0.38 -0.05,-0.14 -0.1,-0.3 -0.17,-0.45 -0.07,-0.15 -0.17,-0.29 -0.29,-0.41 -0.11,-0.11 -0.23,-0.2 -0.44,-0.29 -0.21,-0.09 -0.5,-0.18 -0.86,-0.26 -0.35,-0.09 -0.78,-0.17 -1.15,-0.26 -0.37,-0.09 -0.67,-0.18 -0.88,-0.26 -0.22,-0.08 -0.34,-0.14 -0.43,-0.2 -0.08,-0.06 -0.13,-0.13 -0.12,-0.22 0.01,-0.09 0.06,-0.2 0.17,-0.31 0.1,-0.11 0.26,-0.22 0.44,-0.33 0.17,-0.1 0.37,-0.2 0.5,-0.28 0.13,-0.07 0.19,-0.13 0.2,-0.18 0.01,-0.06 -0.03,-0.1 -0.1,-0.14 -0.07,-0.04 -0.15,-0.07 -0.45,-0.12 -0.3,-0.05 -0.82,-0.13 -1.3,-0.18 -0.49,-0.05 -1.03,-0.1 -1.21,-0.12 -0.07,-0.01 -0.5,-0.05 -0.98,-0.1z"/>
  <path id="path517_36724" class="fil50" d="M0.12 8.06c0.15,0.8 0.45,1.59 0.91,2.33 1.59,2.54 4.59,3.67 7.36,3 -0.16,-0.05 -0.26,-0.08 -0.39,-0.12 -0.16,-0.05 -0.37,-0.12 -0.55,-0.2 -0.19,-0.08 -0.35,-0.16 -0.49,-0.26 -0.14,-0.1 -0.26,-0.21 -0.35,-0.33 -0.09,-0.11 -0.15,-0.24 -0.21,-0.38 -0.05,-0.14 -0.09,-0.3 -0.17,-0.45 -0.07,-0.15 -0.17,-0.29 -0.29,-0.41 -0.11,-0.11 -0.23,-0.2 -0.44,-0.29 -0.21,-0.09 -0.49,-0.18 -0.85,-0.26 -0.36,-0.09 -0.79,-0.17 -1.16,-0.26 -0.36,-0.08 -0.67,-0.18 -0.88,-0.26 -0.21,-0.07 -0.34,-0.13 -0.43,-0.2 -0.08,-0.06 -0.12,-0.13 -0.12,-0.22 0.01,-0.09 0.06,-0.2 0.17,-0.31 0.11,-0.11 0.26,-0.22 0.44,-0.32 0.18,-0.11 0.37,-0.21 0.5,-0.28 0.13,-0.08 0.2,-0.14 0.21,-0.19 0,-0.05 -0.04,-0.1 -0.11,-0.14 -0.07,-0.04 -0.15,-0.06 -0.45,-0.12 -0.3,-0.05 -0.81,-0.12 -1.3,-0.18 -0.48,-0.05 -0.94,-0.08 -1.2,-0.12 -0.08,-0.01 -0.15,-0.02 -0.2,-0.03z"/>
  <path id="path517_36725" class="fil51" d="M0.05 5.97c0.18,0.01 0.37,-0.01 0.62,-0.01 0.22,0 0.7,0.01 0.84,0.01 0.32,0 0.72,0.03 1.08,0 0.36,-0.03 0.86,-0.07 1,-0.07 0.45,0.01 0.5,0.01 0,-0.45 -0.14,-0.13 -0.62,-0.21 -0.79,-0.32 -0.17,-0.1 -0.55,-0.21 -0.93,-0.23 -0.27,-0.02 -0.4,0.03 -0.75,0.03 -0.35,0 -0.49,-0.08 -0.85,-0.02 -0.1,0.35 -0.17,0.7 -0.22,1.06z"/>
  <path id="path517_36726" class="fil52" d="M13.53 5.99c-0.25,0 -0.51,0 -0.76,-0.01 -0.65,-0.03 -1.52,-0.07 -1.79,-0.07 -0.79,0.01 -0.87,0.01 0.01,-0.46 0.24,-0.12 1.1,-0.2 1.4,-0.31 0.19,-0.07 0.54,-0.14 0.94,-0.18 0.1,0.34 0.16,0.68 0.2,1.03z"/>
 </g>
</svg>
