<?xml version="1.0" encoding="UTF-8" standalone="no"?>
<svg
   id="svg8"
   version="1.1"
   viewBox="0 0 52.916667 52.916666"
   height="200"
   width="200"
   xml:space="preserve"
   sodipodi:docname="pluginIcon.svg"
   inkscape:version="1.3 (0e150ed, 2023-07-21)"
   xmlns:inkscape="http://www.inkscape.org/namespaces/inkscape"
   xmlns:sodipodi="http://sodipodi.sourceforge.net/DTD/sodipodi-0.dtd"
   xmlns:xlink="http://www.w3.org/1999/xlink"
   xmlns="http://www.w3.org/2000/svg"
   xmlns:svg="http://www.w3.org/2000/svg"><sodipodi:namedview
   id="namedview1"
   pagecolor="#ffffff"
   bordercolor="#666666"
   borderopacity="1.0"
   inkscape:showpageshadow="2"
   inkscape:pageopacity="0.0"
   inkscape:pagecheckerboard="0"
   inkscape:deskcolor="#d1d1d1"
   inkscape:document-units="mm"
   inkscape:zoom="2.1804653"
   inkscape:cx="72.920215"
   inkscape:cy="132.31121"
   inkscape:current-layer="svg8" />&#10;    <defs
   id="defs2"><linearGradient
     id="linearGradient1178"><stop
   style="stop-color:#b9d3ef;stop-opacity:1"
   offset="0"
   id="stop1172" /><stop
   id="stop1182"
   offset="0.39268181"
   style="stop-color:#abbedf;stop-opacity:1" /><stop
   id="stop1180"
   offset="0.65048969"
   style="stop-color:#f6c39b;stop-opacity:1" />&#10;            &#10;            <stop
   style="stop-color:#ee8a80;stop-opacity:1"
   offset="1"
   id="stop1176" /></linearGradient><linearGradient
     id="linearGradient1162"><stop
   id="stop1150"
   offset="0"
   style="stop-color:#307eb9;stop-opacity:1" />&#10;            <stop
   style="stop-color:#7dbbc6;stop-opacity:1"
   offset="0.22724211"
   id="stop1152" />&#10;            <stop
   id="stop1154"
   offset="0.49423918"
   style="stop-color:#efdeaa;stop-opacity:1" />&#10;            &#10;            &#10;            <stop
   id="stop1160"
   offset="1"
   style="stop-color:#fef8f7;stop-opacity:1" /></linearGradient><linearGradient
     id="linearGradient22643"><stop
       style="stop-color:#375d9f;stop-opacity:1;"
       offset="0"
       id="stop22639" /><stop
       style="stop-color:#384870;stop-opacity:1;"
       offset="1"
       id="stop22641" /></linearGradient><linearGradient
     id="linearGradient22566"><stop
       style="stop-color:#f2a491;stop-opacity:1;"
       offset="0"
       id="stop22562" /><stop
       style="stop-color:#8eb3cf;stop-opacity:1;"
       offset="0.41778976"
       id="stop22564" /></linearGradient><linearGradient
     id="linearGradient17184"><stop
       style="stop-color:#ffffff;stop-opacity:1;"
       offset="0.50673854"
       id="stop17180" /><stop
       style="stop-color:#efe4be;stop-opacity:1;"
       offset="1"
       id="stop17182" /></linearGradient><linearGradient
     id="linearGradient7816"><stop
       id="stop15177"
       offset="0.2264151"
       style="stop-color:#8fc2c5;stop-opacity:1;" /><stop
       id="stop7812"
       offset="0.43126687"
       style="stop-color:#b5d1c3;stop-opacity:1;" /><stop
       id="stop7814"
       offset="1"
       style="stop-color:#e5e0bf;stop-opacity:1;" /></linearGradient><linearGradient
     id="linearGradient2455"><stop
       id="stop2447"
       offset="0"
       style="stop-color:#fbe8bd;stop-opacity:1;" /><stop
       style="stop-color:#d5dbc1;stop-opacity:1;"
       offset="0.39518833"
       id="stop2449" /><stop
       style="stop-color:#94c6c6;stop-opacity:1;"
       offset="0.65719855"
       id="stop2451" /><stop
       id="stop2453"
       offset="1"
       style="stop-color:#2d7ab8;stop-opacity:1;" /></linearGradient><linearGradient
     id="linearGradient1006"><stop
       id="stop1002"
       offset="0"
       style="stop-color:#ffffff;stop-opacity:1" /><stop
       id="stop1004"
       offset="1"
       style="stop-color:#0c9ca6;stop-opacity:1" /></linearGradient><linearGradient
     id="linearGradient998"><stop
       id="stop994"
       offset="0"
       style="stop-color:#fbecfd;stop-opacity:1" /><stop
       style="stop-color:#fbd4f9;stop-opacity:1"
       offset="0.30084872"
       id="stop960" /><stop
       style="stop-color:#f46cec;stop-opacity:1"
       offset="0.48738721"
       id="stop958" /><stop
       id="stop996"
       offset="1"
       style="stop-color:#2b1562;stop-opacity:1" /></linearGradient><radialGradient
     gradientUnits="userSpaceOnUse"
     gradientTransform="matrix(0.00113747,-1.0167601,1.0243894,0.0011489,-11.090646,-1.315701)"
     r="25.000002"
     fy="42.392902"
     fx="31.438482"
     cy="42.392902"
     cx="31.438482"
     id="radialGradient1000"
     xlink:href="#linearGradient998" /><radialGradient
     gradientTransform="matrix(0.00279899,0.6185787,-0.99998976,0.00452483,68.397857,-39.118526)"
     gradientUnits="userSpaceOnUse"
     r="24.999975"
     fy="35.676865"
     fx="21.644688"
     cy="35.676865"
     cx="21.644688"
     id="radialGradient1008"
     xlink:href="#linearGradient1006" /><linearGradient
     xlink:href="#linearGradient2455"
     id="linearGradient5700"
     x1="24.669399"
     y1="32.672649"
     x2="24.999998"
     y2="1.4757635e-06"
     gradientUnits="userSpaceOnUse" /><linearGradient
     xlink:href="#linearGradient7816"
     id="linearGradient13724"
     x1="25"
     y1="49.999977"
     x2="24.806145"
     y2="29.690369"
     gradientUnits="userSpaceOnUse" /><linearGradient
     xlink:href="#linearGradient17184"
     id="linearGradient17186"
     x1="23.919428"
     y1="9.6647673"
     x2="37.408257"
     y2="32.331436"
     gradientUnits="userSpaceOnUse" /><linearGradient
     xlink:href="#linearGradient22566"
     id="linearGradient22568"
     x1="34.995327"
     y1="25.681305"
     x2="26.002991"
     y2="33.207092"
     gradientUnits="userSpaceOnUse" /><linearGradient
     xlink:href="#linearGradient22643"
     id="linearGradient22645"
     x1="27.734179"
     y1="17.369226"
     x2="17.216543"
     y2="33.688541"
     gradientUnits="userSpaceOnUse" /><linearGradient
     id="linearGradient1046"><stop
   style="stop-color:#fefdfc;stop-opacity:1"
   offset="0"
   id="stop1038" />&#10;            <stop
   id="stop1040"
   offset="0.35899055"
   style="stop-color:#faf2ee;stop-opacity:1" />&#10;            <stop
   id="stop1042"
   offset="0.56921643"
   style="stop-color:#f8f5f4;stop-opacity:1" />&#10;            <stop
   style="stop-color:#f6cdc0;stop-opacity:1"
   offset="1"
   id="stop1044" /></linearGradient><linearGradient
     id="linearGradient1674"><stop
       style="stop-color:#3e2300;stop-opacity:1"
       offset="0"
       id="stop1670" /><stop
       style="stop-color:#9e5600;stop-opacity:1"
       offset="1"
       id="stop1672" /></linearGradient><linearGradient
     id="linearGradient1666"><stop
   id="stop1654"
   offset="0"
   style="stop-color:#bc6001;stop-opacity:1" />&#10;            <stop
   style="stop-color:#ee5015;stop-opacity:1"
   offset="0.22724211"
   id="stop1656" />&#10;            <stop
   id="stop1658"
   offset="0.55937076"
   style="stop-color:#d45d2a;stop-opacity:1" />&#10;            <stop
   id="stop1664"
   offset="1"
   style="stop-color:#ab2504;stop-opacity:1" /></linearGradient><linearGradient
     id="linearGradient1652"><stop
   id="stop1640"
   offset="0"
   style="stop-color:#df7e01;stop-opacity:1" />&#10;            <stop
   id="stop1644"
   offset="0.3771469"
   style="stop-color:#f97b29;stop-opacity:1" />&#10;            <stop
   id="stop1650"
   offset="1"
   style="stop-color:#f9cd2f;stop-opacity:1" /></linearGradient><linearGradient
     id="linearGradient1582"><stop
   style="stop-color:#fea12a;stop-opacity:1"
   offset="0"
   id="stop1578" />&#10;            <stop
   id="stop1588"
   offset="0.22724211"
   style="stop-color:#fdb647;stop-opacity:1" />&#10;            <stop
   style="stop-color:#fa9350;stop-opacity:1"
   offset="0.3771469"
   id="stop1590" />&#10;            <stop
   id="stop1592"
   offset="0.54888839"
   style="stop-color:#f25848;stop-opacity:1" />&#10;            <stop
   style="stop-color:#d83f4d;stop-opacity:1"
   offset="0.7313779"
   id="stop1594" />&#10;            <stop
   style="stop-color:#b51b10;stop-opacity:1"
   offset="1"
   id="stop1580" /></linearGradient><linearGradient
     id="linearGradient927"><stop
   style="stop-color:#5d6b32;stop-opacity:1"
   offset="0"
   id="stop923" />&#10;            <stop
   id="stop937"
   offset="0.39178354"
   style="stop-color:#ece1d0;stop-opacity:1" />&#10;            <stop
   style="stop-color:#afdfe4;stop-opacity:1"
   offset="1"
   id="stop925" /></linearGradient><linearGradient
     id="linearGradient7816-0"><stop
       id="stop7814-5"
       offset="1"
       style="stop-color:#422f2e;stop-opacity:1" /></linearGradient><radialGradient
     gradientUnits="userSpaceOnUse"
     gradientTransform="matrix(0.00113747,-1.0167601,1.0243894,0.0011489,-11.090646,-1.315701)"
     r="25.000002"
     fy="42.392902"
     fx="31.438482"
     cy="42.392902"
     cx="31.438482"
     id="radialGradient1000-9"
     xlink:href="#linearGradient998" /><radialGradient
     gradientTransform="matrix(0.00279899,0.6185787,-0.99998976,0.00452483,68.397857,-39.118526)"
     gradientUnits="userSpaceOnUse"
     r="24.999975"
     fy="35.676865"
     fx="21.644688"
     cy="35.676865"
     cx="21.644688"
     id="radialGradient1008-7"
     xlink:href="#linearGradient1006" /><linearGradient
     xlink:href="#linearGradient7816-0"
     id="linearGradient13724-0"
     x1="25"
     y1="49.999977"
     x2="24.806145"
     y2="29.690369"
     gradientUnits="userSpaceOnUse" /><linearGradient
     xlink:href="#linearGradient927"
     id="linearGradient935"
     x1="25.198191"
     y1="49.72488"
     x2="25.104233"
     y2="0.10423274"
     gradientUnits="userSpaceOnUse" /><clipPath
     id="clipPath1130"
     clipPathUnits="userSpaceOnUse"><path
       id="path1128"
       d="M 0,800 H 800 V 0 H 0 Z" /></clipPath><clipPath
     id="clipPath1138"
     clipPathUnits="userSpaceOnUse"><path
       id="path1136"
       d="M 284.686,41.5688 H 515.314 V 17 H 284.686 Z" /></clipPath><clipPath
     id="clipPath1278"
     clipPathUnits="userSpaceOnUse"><path
       id="path1276"
       d="M 0,800 H 800 V 0 H 0 Z" /></clipPath><linearGradient
     xlink:href="#linearGradient1582"
     id="linearGradient1598"
     gradientUnits="userSpaceOnUse"
     gradientTransform="matrix(0.25320201,0,0,0.25320201,95.927808,56.293442)"
     x1="-332.87836"
     y1="-65.767349"
     x2="-211.17578"
     y2="-131.90941" /><linearGradient
     xlink:href="#linearGradient1652"
     id="linearGradient1602"
     gradientUnits="userSpaceOnUse"
     gradientTransform="matrix(0.12865911,0,0,0.14262707,74.363162,36.786625)"
     x1="-332.87836"
     y1="-65.767349"
     x2="-211.17578"
     y2="-131.90941" /><linearGradient
     xlink:href="#linearGradient1666"
     id="linearGradient1606"
     gradientUnits="userSpaceOnUse"
     gradientTransform="matrix(0.14287792,0,0,0.15551651,52.603028,39.553815)"
     x1="-332.87836"
     y1="-65.767349"
     x2="-211.17578"
     y2="-131.90941" /><linearGradient
     xlink:href="#linearGradient1674"
     id="linearGradient1676"
     x1="16.955727"
     y1="54.643715"
     x2="33.029133"
     y2="19.577152"
     gradientUnits="userSpaceOnUse" /><linearGradient
     xlink:href="#linearGradient1162"
     id="linearGradient1148"
     x1="634.65753"
     y1="206.98183"
     x2="630.98401"
     y2="376.66122"
     gradientUnits="userSpaceOnUse"
     gradientTransform="matrix(0.31489498,0,0,0.3140864,-172.50559,-65.350209)" /><linearGradient
     xlink:href="#linearGradient1178"
     id="linearGradient1170"
     x1="545.29584"
     y1="313.78439"
     x2="708.46521"
     y2="256.67633"
     gradientUnits="userSpaceOnUse"
     gradientTransform="matrix(0.31489498,0,0,0.3140864,-172.50559,-65.350209)" /></defs><g
   id="g2"
   transform="matrix(1.0000685,0,0,1.0001082,-5.7997796e-6,-1.1487371e-6)"><ellipse
     style="fill:url(#linearGradient1148);fill-opacity:1;fill-rule:evenodd;stroke-width:0.278856"
     id="path1132"
     cx="26.454332"
     cy="26.386398"
     rx="26.454327"
     ry="26.386398" /><path
     style="fill:#ffffff;fill-opacity:1;stroke:none;stroke-width:0.0832088px;stroke-linecap:butt;stroke-linejoin:miter;stroke-opacity:1"
     d="M 52.766954,24.186491 52.7625,24.861472 38.490154,48.170401 21.123618,51.688923 2.4192278,37.392284 C 1.1682257,34.951471 0.86173303,33.062539 0.30702571,30.809788 l 7.38529489,-3.180324 2.1507988,-2.46477 2.9848706,-0.03867 2.558468,-1.662597 0.661153,-2.566896 3.124215,-4.336572 0.270795,-4.139838 7.30186,-6.6652907 3.798933,4.8331327 1.860703,3.711845 h 0.852814 l 1.750142,0.686769 4.956135,5.615639 4.14781,4.562475 1.511826,-0.231987 1.705635,-1.971919 z"
     id="path1140" /><path
     id="path1096"
     style="fill:url(#linearGradient1170);fill-opacity:1;stroke-width:0.0832088"
     d="m 26.736869,5.6663208 c -0.03399,0.012281 -0.954361,0.8455158 -2.044836,1.8510498 -1.090474,1.005531 -2.489442,2.2953668 -3.108854,2.8664914 -0.619418,0.571128 -1.354502,1.262938 -1.633492,1.537374 l -0.506946,0.498678 -0.188102,2.077909 -0.187586,2.077393 -1.509985,2.160591 -1.509469,2.160592 -0.313676,1.121895 c -0.172401,0.617035 -0.351001,1.206809 -0.397391,1.310515 -0.08461,0.189183 -1.809612,1.359823 -2.312521,1.569413 -0.185838,0.07745 -0.667195,0.111621 -1.565279,0.111621 -0.911747,0 -1.377684,0.03439 -1.5704467,0.114722 -0.3960398,0.165052 -0.8026899,0.546424 -1.5952514,1.497583 l -0.6991822,0.839225 -1.2335164,0.550871 c -1.4265515,0.585277 -5.95932619,2.500105 -5.95932619,2.500105 l 0.0542603,0.425814 c 0.0993556,0.03803 1.88709919,-0.769504 5.49630529,-2.482536 l 1.7404622,-0.826306 0.6459555,-0.790132 c 0.781578,-0.956473 1.2926605,-1.457588 1.6061035,-1.575098 0.1291381,-0.04841 0.8330461,-0.08785 1.5663131,-0.08785 1.064072,0 1.385305,-0.02703 1.598352,-0.134875 0.56258,-0.284785 2.296247,-1.460296 2.351277,-1.594218 0.03178,-0.07733 0.199641,-0.670256 0.373104,-1.317749 l 0.315743,-1.17719 1.205094,-1.731677 c 0.662883,-0.952218 1.34306,-1.940154 1.511536,-2.195731 l 0.306441,-0.465088 0.19327,-2.096513 c 0.136686,-1.481739 0.227582,-2.127907 0.309542,-2.202966 0.06378,-0.05841 1.662502,-1.532619 3.552755,-3.2762862 1.890255,-1.743671 3.491499,-3.1703492 3.558439,-3.1703492 0.204383,0 0.282746,0.484726 0.422196,2.6174113 0.006,0.091412 0.01819,0.7647336 0.02739,1.4960327 0.0137,1.0852664 0.03557,1.2988954 0.118339,1.1632364 l 0.178284,0.165881 c -0.146777,0.15801 -0.191816,0.274711 -0.152446,0.398426 0.05565,0.174883 0.05625,0.175278 0.21239,-0.01705 0.130668,-0.16095 0.177255,-0.17527 0.284737,-0.0863 0.147546,0.122138 0.1259,0.463682 -0.02739,0.432532 -0.06295,-0.0128 -0.102319,0.07694 -0.102319,0.233577 0,0.14831 -0.03459,0.232542 -0.0832,0.202572 -0.04715,-0.02907 -0.0832,0.04029 -0.0832,0.159163 0,0.151978 0.03407,0.196684 0.124024,0.162264 l 0.08423,0.219108 c -0.118319,0 -0.136264,0.04784 -0.09508,0.253215 0.02933,0.146196 0.01839,0.233449 -0.02584,0.206189 -0.171219,-0.105549 -0.502106,0.411182 -0.910539,1.422135 -0.417078,1.032344 -0.470081,1.115778 -1.576648,2.480986 -0.629799,0.777001 -1.756947,2.026847 -2.504757,2.777091 -0.747808,0.750245 -1.734718,1.828154 -2.193148,2.395203 -0.458427,0.56705 -1.037659,1.258876 -1.287259,1.53789 -0.249602,0.279015 -0.758847,1.015123 -1.131198,1.635559 -1.113111,1.854755 -1.03228,1.765469 -1.957503,2.171961 -0.448545,0.197063 -1.842771,0.771737 -3.098002,1.277441 -1.255227,0.505697 -2.285916,0.956813 -2.290816,1.002523 -0.0049,0.04571 0.366001,0.206012 0.824239,0.356051 1.202382,0.393691 3.519873,1.098641 3.612183,1.098641 0.04331,0 0.745492,-0.915947 1.560628,-2.035535 l 1.48208,-2.036051 0.88005,-0.550871 c 1.124988,-0.704396 4.433052,-2.953969 4.909261,-3.338298 0.200071,-0.161469 0.498211,-0.502177 0.661975,-0.757576 1.035884,-1.615521 3.952946,-5.953936 4.018876,-5.976896 0.04373,-0.01524 0.08086,0.05924 0.08216,0.165881 0.0013,0.106647 0.03643,1.068214 0.07803,2.136304 l 0.07545,1.942 -0.689363,1.174089 c -0.938702,1.59909 -2.200828,3.821122 -2.264978,3.98787 -0.03524,0.09161 -0.0083,0.136426 0.08113,0.136426 0.07469,0 0.545789,-0.549201 1.071252,-1.24902 0.515836,-0.686994 0.948705,-1.197437 0.962215,-1.134297 0.03107,0.14532 -0.387641,2.627357 -0.466121,2.763138 -0.03212,0.05556 -1.164327,1.236534 -2.516126,2.624646 -1.351802,1.38811 -2.787488,2.873345 -3.190503,3.300057 l -0.732771,0.775664 -1.142049,0.207222 c -0.628021,0.114056 -1.171309,0.235491 -1.207679,0.269751 -0.03638,0.03427 -0.340136,0.563931 -0.674894,1.176672 -0.597131,1.092984 -0.625218,1.127739 -1.475362,1.841748 -0.476603,0.40028 -1.035059,0.846403 -1.241268,0.991154 l -0.375171,0.263033 0.206189,-0.242879 c 0.11328,-0.133678 0.450262,-0.495977 0.748792,-0.805119 0.454874,-0.471054 0.605253,-0.706977 0.929142,-1.454691 0.21256,-0.490716 0.361072,-0.919777 0.330212,-0.953947 -0.04825,-0.05346 -2.621651,0.971192 -3.149678,1.254187 -0.250558,0.134288 -0.283392,0.212625 -0.65009,1.542025 -0.31514,1.142482 -0.324645,1.16163 -0.810803,1.68 -0.303089,0.323173 -0.480561,0.581308 -0.463021,0.672828 0.01929,0.100659 0.229155,0.219288 0.652157,0.368453 0.656284,0.231431 2.694446,1.225132 2.52491,1.230932 -0.05431,0.0019 -0.63543,-0.206517 -1.291394,-0.462504 -0.65596,-0.255987 -1.567478,-0.595547 -2.025716,-0.754993 -0.898804,-0.312738 -0.830732,-0.309224 -2.832902,-0.139526 -0.3207643,0.02717 -0.564494,0.02975 -0.541569,0.0062 0.022912,-0.02355 0.5856094,-0.162241 1.2500529,-0.308508 0.6644431,-0.146267 1.2532071,-0.308808 1.3084471,-0.361218 0.05524,-0.05241 0.398324,-0.637438 0.762744,-1.300179 1.02782,-1.869192 1.324107,-2.31182 1.70894,-2.554366 0.364648,-0.229827 1.620443,-0.740408 2.598808,-1.056267 0.74635,-0.240956 0.900382,-0.322961 1.410766,-0.749308 0.51828,-0.432939 0.513428,-0.43078 1.556494,-0.542086 l -1.297078,-0.83044 c -0.21639,0.185388 -0.231005,0.188353 -0.149345,0.03152 0.06693,-0.128514 0.06485,-0.199922 -0.0083,-0.272852 -0.07664,-0.07644 0.02661,-0.216304 0.455786,-0.615466 0.305338,-0.283984 0.752425,-0.815157 0.993738,-1.180807 0.241313,-0.365646 0.896273,-1.287241 1.455208,-2.047937 1.629951,-2.218321 2.284106,-3.262702 2.135787,-3.410644 -0.09686,-0.09661 -3.339899,2.313176 -3.638538,2.703711 -0.11391,0.148958 -0.2885,0.455596 -0.38809,0.681612 -0.09959,0.226013 -0.464399,0.934696 -0.810286,1.574581 -0.619558,1.146172 -0.649679,1.184695 -2.054655,2.617411 -0.784371,0.799855 -1.578714,1.66013 -1.765267,1.911511 -0.506636,0.682714 -1.192425,1.437312 -1.193725,1.313615 -5.79e-4,-0.05979 0.09939,-0.43678 0.222208,-0.838192 0.14715,-0.480884 0.195337,-0.758233 0.141077,-0.812353 -0.04529,-0.04518 -0.331186,-0.105025 -0.635103,-0.133325 l -0.552422,-0.05168 -1.774568,1.160136 -6.7721967,-0.119889 C 2.3224478,35.493951 1.8424814,35.709028 1.784904,35.82417 a 26.458334,26.458334 0 0 0 0.1989542,0.533817 c 0.1103178,0.174974 0.2006913,0.419695 0.2423625,0.65009 a 26.458334,26.458334 0 0 0 0.3240112,0.732772 C 2.4420265,37.489771 2.3812341,37.313946 2.4091553,37.286096 2.5219821,37.17356 4.4361966,38.170287 7.2631226,39.814107 l 0.9704834,0.564307 1.4040486,-0.09405 c 1.6023764,-0.107166 1.1729144,-0.19696 3.9413614,0.822689 1.30914,0.482171 2.682403,0.856027 3.129008,0.851627 0.09165,-9.01e-4 -0.245763,-0.200497 -0.749825,-0.443384 -0.840249,-0.404877 -1.378726,-0.773702 -1.372526,-0.940511 0.0077,-0.211473 2.338546,-1.539948 2.47065,-1.408182 0.02041,0.02036 -0.07565,0.218146 -0.21394,0.439766 -0.336024,0.538484 -0.223841,0.624343 0.383439,0.292489 0.265088,-0.144859 1.613154,-0.843899 2.995683,-1.553394 l 2.513541,-1.29036 2.180229,-1.929598 2.180746,-1.930115 1.381311,-1.768884 c 3.572629,-4.574975 3.0248,-3.750329 -0.646989,-0.554489 -2.997375,2.608861 -2.926685,2.416519 -4.064352,2.611211 l -0.933793,0.160196 -1.479496,1.068669 c -2.8803,2.081622 -5.160125,3.587286 -6.727755,4.44314 -0.504061,0.275194 -1.09521,0.612388 -1.313615,0.749308 -0.359694,0.225496 -0.420252,0.239284 -0.645438,0.146244 -0.136731,-0.05649 -0.248564,-0.139531 -0.248564,-0.185001 0,-0.04548 0.202462,-0.301132 0.450102,-0.567924 l 1.444873,-0.289905 c 0.236454,-0.153133 2.406256,-1.903124 2.954858,-2.383317 0.182639,-0.159867 0.547786,-0.697061 0.890385,-1.309998 0.319345,-0.571325 0.630097,-1.10319 0.690397,-1.18184 0.07852,-0.102407 0.415674,-0.191856 1.188041,-0.316259 0.593139,-0.09553 1.117947,-0.198344 1.166337,-0.227894 0.0484,-0.02955 0.38789,-0.372221 0.754476,-0.76171 0.366591,-0.389491 1.813708,-1.88997 3.215825,-3.334164 1.416005,-1.458501 2.570487,-2.715342 2.597257,-2.827217 0.114432,-0.478065 0.488142,-3.001658 0.450102,-3.039608 -0.02302,-0.02296 -0.437277,0.481488 -0.920874,1.121379 -1.434306,1.897878 -1.398722,1.772911 0.379305,-1.332219 l 1.317749,-2.301151 -0.0739,-2.103231 c -0.04065,-1.156748 -0.05579,-2.133194 -0.03359,-2.169893 0.02219,-0.03665 0.07137,-0.05519 0.109554,-0.04134 0.03819,0.01384 0.678263,0.866587 1.422135,1.894975 0.74387,1.028387 1.522016,2.103922 1.729611,2.390035 0.243032,0.334958 1.076961,1.135094 2.340942,2.247408 1.079673,0.950124 2.075315,1.809031 2.212785,1.908411 0.158902,0.114869 0.629303,0.259478 1.291394,0.396875 0.572797,0.118869 1.134977,0.276119 1.249536,0.349849 0.244693,0.157466 0.287659,0.208071 1.37511,1.630908 l 0.833024,1.090373 0.829407,0.415479 c 0.456264,0.228528 0.845436,0.466466 0.864546,0.529166 0.05113,0.167769 -2.301546,2.445561 -6.192903,5.994983 -4.564538,4.163453 -7.713329,7.16716 -7.615039,7.26519 0.06081,0.06065 2.616422,-2.12746 4.115511,-3.523816 1.559426,-1.452557 8.626982,-7.648112 8.724532,-7.648112 0.107609,0 0.07897,0.188146 -0.217558,1.431437 -0.393133,1.648312 -0.732722,3.29941 -0.699182,3.399793 0.01546,0.04626 0.123202,-0.05883 0.239262,-0.233578 0.116058,-0.174745 0.497195,-0.73602 0.847493,-1.247469 l 0.637171,-0.930176 0.958081,-2.934187 c 0.52696,-1.613882 1.044472,-3.221606 1.1498,-3.572392 0.172448,-0.574333 0.27832,-0.743404 1.066085,-1.699638 1.710413,-2.076209 1.836606,-2.209971 2.030367,-2.155941 0.0976,0.02721 1.114733,0.220701 2.260327,0.429948 1.145593,0.209248 1.602589,0.411969 1.701188,0.450619 0.159327,0.06244 0.185675,0.156346 0.235645,0.844392 0.04635,0.638185 -0.08419,3.023953 -0.185518,4.333069 0.05237,-0.229899 0.107034,-0.457622 0.154512,-0.691947 0.12437,-1.209527 0.146928,-4.365132 0.03204,-4.47983 -0.04616,-0.04609 -0.516137,-0.270953 -1.730127,-0.499711 -1.213989,-0.228759 -2.321154,-0.438825 -2.460315,-0.467155 -0.244729,-0.04984 -0.297496,0.0021 -1.618506,1.594218 l -1.365808,1.646411 -0.320394,1.040763 c -0.452712,1.471663 -1.128252,3.506662 -1.4087,4.242635 -0.226205,0.593617 -0.266487,0.644026 -0.77928,0.980302 -0.297302,0.194962 -0.577678,0.418184 -0.623218,0.496094 -0.128367,0.2196 -0.105102,0.01574 0.117822,-1.034045 0.198514,-0.934861 0.205121,-1.109493 0.04134,-1.109493 -0.04212,0 -0.817904,0.644169 -1.723925,1.431437 -2.821256,2.451466 -3.537541,3.055627 -3.620451,3.055627 -0.149217,0 0.38461,-0.557798 1.720308,-1.797823 3.934682,-3.652852 4.626591,-4.367821 4.626591,-4.778519 0,-0.210488 0.147679,-0.789749 0.553971,-2.175578 0.0488,-0.166441 1.578858,-2.104722 1.811259,-2.294434 0.07992,-0.06524 0.467924,-0.514124 0.861963,-0.997355 0.394044,-0.483231 0.743497,-0.909883 0.776697,-0.948263 0.03319,-0.03838 0.69243,0.08615 1.465027,0.276469 3.049361,0.751171 3.875998,0.951997 4.103625,0.887285 a 26.458334,26.458334 0 0 0 -0.01344,-0.176734 c -0.106112,-0.0084 -0.937507,-0.08345 -3.977019,-0.826306 -0.801914,-0.19599 -1.497549,-0.341958 -1.546159,-0.324528 -0.04861,0.01744 -0.439631,0.46039 -0.86868,0.984436 -0.429048,0.524048 -0.834657,0.952914 -0.901237,0.952914 -0.208515,0 -1.852592,-1.10064 -2.041736,-1.366842 -0.09909,-0.139454 -0.627557,-0.833581 -1.174606,-1.542025 -2.364789,-3.062489 -2.224458,-2.922472 -3.0489,-3.024108 -0.883752,-0.108943 -0.880977,-0.107152 -2.610693,-2.074292 L 35.007166,14.986682 33.855815,14.463717 C 33.22263,14.176181 32.67253,13.910582 32.63315,13.873572 32.59378,13.836552 32.492991,13.426736 32.409391,12.962516 32.23662,12.003077 32.413391,12.272627 30.413131,9.9229085 29.748687,9.1423889 28.663776,7.8603421 28.001908,7.0739868 27.34004,6.2876346 26.770859,5.6540398 26.736869,5.6663208 Z M 52.201982,29.857092 c -3.74617,16.444153 -19.900516,21.597462 -32.756141,19.595703 15.198315,4.820932 29.925204,-1.295684 32.650204,-18.930627 0,0.545693 0.04961,0.06266 0.105937,-0.665076 z M 19.445841,49.452795 C 14.257932,47.807182 9.0157628,44.89313 4.1764893,40.719478 a 26.458334,26.458334 0 0 0 2.1683431,2.907833 c 3.0758842,2.960909 7.8062326,5.001031 13.1010086,5.825484 z M 33.334916,14.386202 c 0.0828,-0.02887 1.359243,0.531286 1.56993,0.688847 0.06446,0.04821 0.872543,0.947605 1.796273,1.998844 1.35316,1.539942 1.773027,2.077423 2.159558,2.765723 0.263863,0.469867 0.465741,0.896266 0.448552,0.947746 -0.03534,0.105731 -1.505017,-1.140865 -2.287716,-1.94045 -0.770361,-0.786985 -3.779687,-4.42825 -3.686597,-4.46071 z M 7.729244,31.608407 c -0.022282,-0.02222 -0.8042441,0.166874 -1.7378784,0.420129 -1.4199451,0.385168 -2.3208435,0.604841 -4.8090088,1.171505 -0.21427331,0.0488 -0.21472913,0.04659 0.039791,0.930692 0.069078,0.239959 0.1697323,0.436352 0.223759,0.436666 0.2966307,0.002 3.9589456,-1.307883 4.3909464,-1.570447 0.6795521,-0.413019 1.9418575,-1.339208 1.8923908,-1.388545 z m 28.403951,2.569352 c -0.02019,-0.02014 -0.430686,0.0782 -0.912089,0.218074 -1.022048,0.296959 -1.196655,0.303898 -2.141471,0.08785 -1.106102,-0.252923 -1.147677,-0.244429 -1.891358,0.376721 -0.357369,0.298491 -0.729139,0.562772 -0.825789,0.587561 -0.09665,0.0248 -0.640403,-0.0083 -1.208195,-0.07338 -0.902312,-0.103478 -1.049862,-0.102908 -1.173572,0.0031 -0.07785,0.06671 -0.900462,1.145319 -1.827795,2.397269 l -1.686202,2.276347 -0.796851,-0.0016 c -0.665661,-0.0016 -0.878968,-0.03713 -1.296562,-0.214457 -0.274944,-0.116751 -0.562814,-0.231502 -0.639754,-0.255282 -0.08528,-0.02634 -0.949803,0.430414 -2.214852,1.169954 -1.374298,0.803405 -2.157426,1.213455 -2.318205,1.214397 -0.187368,9.9e-4 -0.214272,0.01948 -0.117822,0.08165 0.207579,0.133801 0.652799,0.09328 1.024227,-0.09302 0.413145,-0.207225 1.74849,-0.941836 2.66392,-1.465544 0.864325,-0.494471 0.891659,-0.48683 2.249992,0.622184 0.35609,0.290735 0.683564,0.506181 0.727604,0.479041 0.04404,-0.02715 0.688461,-0.767207 1.431954,-1.644861 1.711412,-2.02022 3.228505,-3.715019 3.325895,-3.715019 0.04136,0 0.550537,0.299426 1.131197,0.665076 0.58066,0.365647 1.077092,0.663952 1.103292,0.663009 0.02621,-9.7e-4 0.418413,-0.561814 0.871782,-1.246436 0.453366,-0.684619 0.862665,-1.244885 0.909505,-1.244885 0.04684,0 0.362843,0.172417 0.702283,0.383439 l 0.617016,0.383956 0.764811,-0.522449 c 1.182004,-0.807257 1.566979,-1.092907 1.527039,-1.132747 z m -3.866431,0.250114 c 0.209926,0.01376 0.476901,0.09292 0.905888,0.219108 0.41904,0.12326 0.476676,0.157781 0.271301,0.162781 -0.143313,0.0035 -0.304371,0.05849 -0.3576,0.122473 -0.06565,0.07889 -0.200485,0.10262 -0.419096,0.07338 -0.301543,-0.04034 -0.336156,-0.02227 -0.539502,0.284221 -0.176203,0.265577 -0.307631,0.355742 -0.695048,0.47594 -0.26279,0.08153 -0.810314,0.301328 -1.216464,0.488342 l -0.738456,0.340031 -0.428914,-0.224276 c -0.236108,-0.1233 -0.488796,-0.224276 -0.561206,-0.224276 -0.136781,0 -1.61062,1.630376 -3.418396,3.781165 -1.46132,1.738593 -1.303513,1.637469 -1.862936,1.195793 -0.879293,-0.694222 -1.469656,-1.071253 -1.677933,-1.071253 -0.115065,0 -0.459463,0.145163 -0.765328,0.322461 -0.851494,0.493588 -2.440431,1.385307 -2.738851,1.536857 -0.236947,0.120332 -0.525979,0.188746 -0.434599,0.102836 0.06955,-0.06539 1.977844,-1.196266 3.002401,-1.779219 l 1.051615,-0.598413 0.489893,0.216524 c 0.568626,0.251499 2.016306,0.423768 2.298051,0.273368 0.14222,-0.07592 1.289966,-1.575208 3.06958,-4.009057 l 0.537435,-0.734839 0.541569,0.05168 c 0.297852,0.02853 0.847621,0.0747 1.221114,0.102836 l 0.679028,0.05116 0.730705,-0.60048 c 0.515016,-0.423359 0.705873,-0.582078 1.055749,-0.559139 z M 21.970235,37.25354 c 0.01604,0.016 -0.580075,0.340475 -1.324984,0.721403 -0.744912,0.38093 -1.873993,0.96687 -2.50889,1.301729 -0.634901,0.334859 -1.173467,0.608749 -1.196826,0.608749 -0.02335,0 0.01119,-0.08422 0.077,-0.187069 0.786303,-1.228686 0.85677,-1.459824 0.411345,-1.352372 -0.121014,0.02919 -0.628428,0.201644 -1.12758,0.382922 -0.499149,0.181279 -0.921968,0.315116 -0.939478,0.297656 -0.03882,-0.03872 0.905866,-0.685503 1.959054,-1.341003 0.532207,-0.331245 0.798175,-0.453843 0.839225,-0.387573 0.03656,0.059 0.432775,0.118419 1.012342,0.151928 1.409472,0.08149 1.993285,0.05931 2.402437,-0.09095 0.201901,-0.07415 0.380338,-0.12141 0.396358,-0.10542 z" /><path
     id="path1090"
     style="fill:#556c8f;fill-opacity:1;stroke-width:0.0832088"
     d="M 29.14034,20.397721 29.0866,20.8132 c -0.04186,0.325058 -0.272102,0.795861 -1.058334,2.161108 -0.55275,0.959827 -1.068159,1.866321 -1.145149,2.014864 -0.07698,0.148545 -0.124517,0.270268 -0.105937,0.270268 0.07332,0 0.732313,-0.92971 0.689364,-0.97255 -0.05822,-0.05807 0.05253,-0.273268 0.958081,-1.859318 0.643778,-1.127566 0.737267,-1.341569 0.727087,-1.661914 z m -1.250053,6.291606 c -0.01,0.0033 -0.02453,0.03002 -0.04496,0.0801 -0.03114,0.07635 -1.330658,1.459975 -2.888196,3.074748 -1.557537,1.614773 -3.038773,3.150681 -3.291272,3.413229 l -0.458887,0.47749 -1.139982,0.183451 -1.140499,0.182935 -0.353466,0.669209 c -0.698466,1.322183 -0.836142,1.505521 -1.889291,2.514576 -0.582435,0.558049 -1.018593,1.016125 -0.968933,1.018025 0.262912,0.0098 3.001776,-1.810858 5.742285,-3.817338 0.641532,-0.469702 1.241085,-0.888089 1.332735,-0.929659 0.09165,-0.04157 0.448004,-0.128963 0.791683,-0.194303 0.607105,-0.11544 0.610742,-0.11721 0.125057,-0.07183 -0.27494,0.02569 -0.631301,0.09188 -0.791683,0.147278 -0.160383,0.0554 -1.004171,0.617068 -1.874821,1.247985 -1.911559,1.385205 -3.446169,2.413271 -3.508829,2.350761 -0.02531,-0.02525 0.03428,-0.08899 0.132808,-0.141593 0.13191,-0.07041 0.156354,-0.123135 0.09198,-0.200505 -0.06388,-0.07677 -0.0063,-0.237665 0.214457,-0.596863 0.166199,-0.270391 0.359512,-0.601503 0.429431,-0.735872 l 0.127125,-0.243913 0.401009,-0.761194 c 0.02558,-0.132493 0.201461,-0.1867 1.11311,-0.345198 0.595398,-0.103513 1.14295,-0.217448 1.21698,-0.252698 0.07404,-0.03525 0.522244,-0.475467 0.995805,-0.978235 0.473558,-0.502763 1.687614,-1.773933 2.698026,-2.82515 1.010416,-1.051219 2.090029,-2.176165 2.399337,-2.499589 0.309312,-0.323428 0.559755,-0.641317 0.556555,-0.706417 -0.0021,-0.04271 -0.0076,-0.0627 -0.01757,-0.05943 z m -0.07441,4.064351 c -0.01792,-0.09236 -1.413875,0.83972 -3.339848,2.402438 -0.233451,0.05528 -0.241572,0.06505 -0.05994,0.07235 0.115378,0.0047 0.359091,-0.09138 0.541569,-0.213941 2.052427,-1.49723 2.872161,-2.189012 2.858223,-2.260844 z m 9.620085,5.43326 c -0.440105,0.0677 -4.525929,3.762909 -5.15059,4.489649 -1.759159,1.612486 -5.097399,4.557226 -6.350517,5.601725 -0.240825,0.200737 -0.462466,0.340506 -0.492476,0.310576 3.816445,-4.794833 -7.115332,4.349642 -5.927287,5.367114 0.645369,0.166136 1.296784,0.307831 1.952852,0.42478 l 0.534335,-0.31781 c 0.295676,-0.176005 0.612699,-0.383454 0.704349,-0.460954 0.09165,-0.0775 0.228978,-0.162862 0.305408,-0.189652 0.204083,-0.07153 2.424327,-1.460135 3.837492,-2.400371 0.825181,-0.549026 1.269577,-0.899054 1.358057,-1.069702 0.09986,-0.192603 0.170808,-0.241581 0.294038,-0.202571 0.13264,0.04199 0.162264,0.01144 0.162264,-0.166398 0,-0.170614 0.06373,-0.244138 0.295073,-0.340548 0.162278,-0.06763 0.601797,-0.429963 0.977201,-0.805636 0.375405,-0.375671 0.846025,-0.823969 1.045414,-0.996321 0.199388,-0.172355 0.567778,-0.565253 0.818555,-0.872815 0.250776,-0.30756 0.548254,-0.628405 0.661458,-0.713135 0.113204,-0.08473 0.265621,-0.271678 0.338481,-0.415479 0.07286,-0.1438 0.277892,-0.451957 0.455786,-0.684712 0.17789,-0.23275 0.323495,-0.460609 0.323495,-0.506429 0,-0.04583 0.07475,-0.151365 0.166398,-0.234095 0.09164,-0.08273 0.166915,-0.199009 0.166915,-0.258898 0,-0.05988 0.102911,-0.232122 0.228926,-0.382406 0.246365,-0.293813 0.345825,-0.442658 0.59738,-0.896069 0.08875,-0.159971 0.276184,-0.41449 0.417029,-0.565857 0.140847,-0.151365 0.256315,-0.327481 0.256315,-0.391191 0,-0.0637 0.09369,-0.253298 0.208256,-0.42168 0.11456,-0.168377 0.208256,-0.354551 0.208256,-0.413411 0,-0.05886 0.0937,-0.180388 0.208256,-0.270268 0.14231,-0.111648 0.208256,-0.24533 0.208256,-0.42168 0,-0.141966 0.06875,-0.326324 0.152445,-0.409794 0.926769,-1.027892 1.184882,-1.408529 1.03818,-1.385962 z m 6.666776,0.24288 c -0.286203,0.05116 -1.068371,0.734132 -2.566768,2.298051 -2.651149,2.479652 -2.462699,2.246233 -3.716569,4.606437 -0.607038,1.142651 -1.340883,2.582255 -1.630908,3.199288 l -0.5271,1.121895 1.687236,-1.705322 c 2.854955,-2.884388 4.631322,-4.866358 5.074109,-5.661153 1.256414,-2.274591 2.157006,-3.944469 1.68,-3.859196 z m -19.905245,0.05426 c -0.05656,0.0075 -0.748133,0.335616 -2.574003,1.250053 -2.1931,1.098356 -3.975124,2.100911 -4.086572,2.271696 -0.06121,0.09379 -0.131206,0.412314 -0.155546,0.707967 -0.02873,0.348978 -0.102064,0.615165 -0.208773,0.759127 -0.0904,0.121962 -0.141261,0.244841 -0.113171,0.272851 0.157297,0.156894 0.610284,-0.01986 1.758032,-0.685746 1.192352,-0.691754 1.88685,-1.147196 0.973067,-0.638204 -1.509681,0.840915 -1.645563,0.904646 -1.550293,0.727088 0.05133,-0.09567 0.133792,-0.198824 0.183452,-0.229444 0.123319,-0.07602 1.408699,-1.703264 1.408699,-1.783354 0,-0.03529 -0.06554,-0.08953 -0.145727,-0.120406 -0.186327,-0.07176 0.04584,-0.278455 1.811775,-1.126546 1.123432,-0.539529 2.793329,-1.417539 2.69906,-1.405082 z m -2.554882,2.906283 c -0.130682,-0.0033 -0.810804,0.386381 -0.810804,0.464571 0,0.01677 0.184226,-0.07208 0.409278,-0.197404 l 0.409277,-0.227893 0.384473,0.186035 c 0.2115,0.102492 0.411794,0.185134 0.444934,0.182934 0.120513,-0.0075 -0.693747,-0.404643 -0.837158,-0.408243 z m -0.07597,0.827339 c -0.186437,0 -1.605665,0.804456 -1.488798,0.843876 0.04695,0.01584 -0.377347,0.726382 -0.713651,1.48053 -0.618084,1.386035 -1.032928,2.774222 -1.030428,2.889746 7.71e-4,0.03458 0.08392,-0.06792 0.184485,-0.227893 0.100568,-0.15997 0.203203,-0.309419 0.227893,-0.332279 0.225004,-0.208403 0.915392,-0.998232 1.259871,-1.611271 0.553632,-0.98526 0.61553,-1.32787 0.738456,-1.918746 0.0808,-0.388368 0.20696,-0.561111 0.392224,-0.714685 0.17442,-0.144584 0.317496,-0.325315 0.415996,-0.325562 0.0985,-2.21e-4 0.371605,0.128503 0.606681,0.286287 0.235071,0.15779 0.402824,0.247461 0.373104,0.199471 C 22.441265,40.639972 21.725056,40.2177 21.566642,40.2177 Z m -10.447424,0.08423 c -0.04221,7.01e-4 -0.03692,0.217061 0.01189,0.25063 0.0539,0.03708 -0.01738,1.546736 0.07958,2.651518 0.123969,1.412545 0.06831,2.783228 0.189653,2.790528 l 0.198954,0.0124 0.221692,-0.221175 c 0.121997,-0.121683 0.387434,-0.57355 0.589628,-1.004073 0.202194,-0.430526 0.416113,-0.840379 0.475423,-0.910539 0.226095,-0.267445 0.780831,-1.442745 0.780831,-1.654163 0,-0.31161 0.18326,-0.668581 0.343648,-0.669209 0.07443,-3.58e-4 0.294556,0.05546 0.489376,0.124023 0.194816,0.06856 0.415453,0.123933 0.489893,0.12299 0.150501,-0.0018 -0.707394,-0.318898 -2.406055,-0.889351 C 11.96511,40.69776 11.399826,40.477052 11.327476,40.414582 11.255136,40.352112 11.16144,40.3013 11.11922,40.301928 Z"
     sodipodi:nodetypes="ccscsssccssscccccscsscssssssscccssssscsscccsscsccccsssssssssssssssssssssssscsscsccccsssssscssscscsscscccccssscscssscscscsscccssscscssc" /><path
     id="path1088"
     style="fill:#475a7c;fill-opacity:1;stroke-width:0.0832088"
     d="m 29.082979,17.189132 c -0.04221,0.01423 -0.02928,0.427185 0.0062,2.004012 l 0.04082,1.806608 -0.713652,1.434021 c -1.10454,1.946449 -1.424121,2.560299 -0.770616,1.649868 0.462715,-0.593944 0.857721,-0.929382 0.650727,0.365513 -0.01591,0.363038 -0.0941,0.817446 -0.208795,1.01803 l 0.0186,0.346232 c 0.01037,0.190406 -0.01433,0.325491 -0.05529,0.300241 -0.04108,-0.02525 -0.05887,0.08763 -0.03979,0.25063 0.01908,0.163005 0.0047,0.277612 -0.03152,0.255282 -0.03625,-0.02234 -0.06563,0.02464 -0.06563,0.103869 0,0.07922 -0.253444,0.408315 -0.562756,0.731739 -0.309308,0.323424 -1.388922,1.448372 -2.399337,2.499589 -1.010412,1.051219 -2.224468,2.322383 -2.698026,2.82515 -0.473561,0.502767 -0.921775,0.942985 -0.995805,0.978235 -0.07403,0.03525 -0.621582,0.149183 -1.21698,0.252698 -0.911649,0.158497 -1.054841,0.186555 -1.117761,0.305924 l -0.401009,0.760677 -0.181385,0.328146 c -0.06992,0.13437 -0.205019,0.422214 -0.37207,0.694014 -0.208314,0.338852 -0.310981,0.511331 -0.252181,0.569991 0.05881,0.05865 0.06078,0.141003 -0.06925,0.240813 l -0.06925,-0.0098 c -0.10431,0.08006 -0.110759,0.215583 -0.06873,0.216524 0.118909,0.0029 1.788559,-1.169575 3.530533,-2.431893 0.870651,-0.630914 1.71444,-1.191885 1.874821,-1.246435 0.160386,-0.05455 0.623728,-0.145138 1.029395,-0.201538 0.859819,-0.119535 0.795245,-0.0075 3.81886,-2.443262 2.841027,-2.288654 2.919271,-2.424974 2.862271,-2.424974 l 1.013752,-6.945319 c -0.03885,-0.507723 -1.550824,-2.300977 -1.725738,-2.770568 -0.06505,-0.174647 -0.155394,-0.325387 -0.127124,-0.371037 0.02829,-0.04565 -0.107766,-0.299059 -0.302824,-0.562756 -0.195061,-0.2637 -0.365499,-0.495156 -0.378789,-0.514186 -0.0084,-0.01199 -0.01567,-0.01805 -0.0217,-0.01602 z m 16.82688,9.316744 c -0.0043,-0.0043 -0.0378,0.02066 -0.103869,0.07235 -0.08019,0.06273 -0.145728,0.128487 -0.145728,0.145727 0,0.0684 0.06841,0.02422 0.17725,-0.114205 0.05182,-0.0659 0.07665,-0.09958 0.07235,-0.103869 z m -4.966622,6.453353 c -0.02344,0.01309 -0.220714,0.187354 -0.614949,0.535367 -1.992272,1.758695 -3.748926,3.463647 -3.752226,3.563607 -0.01566,0.471052 -2.876117,4.406722 -6.900354,9.401493 -0.333204,0.413563 -0.554474,0.705957 -0.716752,0.773597 -0.23135,0.09641 -0.295073,0.169933 -0.295073,0.340547 0,0.177838 -0.02961,0.207872 -0.162264,0.165882 -0.12323,-0.03901 -0.194169,0.01 -0.294038,0.202571 -0.08847,0.170649 -0.532876,0.520677 -1.358057,1.069702 -1.413165,0.940236 -3.633409,2.328841 -3.837492,2.400371 -0.07643,0.02679 -0.213758,0.112152 -0.305408,0.189652 -0.09165,0.0775 -0.40473,0.282722 -0.695564,0.455786 -0.308385,0.183512 -0.436472,0.287194 -0.433049,0.347266 0.04941,0.01082 0.09884,0.0215 0.148311,0.03204 0.0018,-0.0032 0.007,-0.0025 0.0083,-0.0062 0.01527,-0.04424 0.06009,-0.0801 0.09973,-0.0801 0.207666,0 9.554816,-6.086029 11.870077,-7.728727 1.039504,-0.737542 1.723056,-1.358798 2.037085,-1.851567 0.08099,-0.127091 0.337848,-0.433467 0.571024,-0.681095 0.575026,-0.610659 0.813379,-0.763748 1.329635,-1.889808 0.733593,-1.531837 1.465371,-3.058851 1.717208,-4.777486 0.02858,-0.02851 0.05219,-0.142709 0.05219,-0.253731 0,-0.204593 0.239509,-0.684713 0.341581,-0.684713 0.05793,0 0.182905,-0.327131 0.166915,-0.436666 -0.005,-0.03454 0.263004,-0.330107 0.595312,-0.656807 0.301094,-0.296011 0.451323,-0.444069 0.427881,-0.430981 z m 3.887618,2.687691 c -0.08401,0 -3.616772,3.258681 -3.836458,3.538802 -0.06874,0.08765 0.399749,-0.331064 1.04128,-0.930176 1.471988,-1.37466 2.574827,-2.352258 2.611727,-2.316138 0.03231,0.03162 -1.634779,3.290753 -2.22467,4.349606 -0.444613,0.798071 -2.240759,2.801009 -5.07721,5.661153 -1.525056,1.5378 -1.671018,1.664585 -1.488281,1.289844 0.27217,-0.558144 0.470534,-1.038697 0.428914,-1.038697 -0.02798,0 -0.927852,1.693585 -1.029394,1.93735 -0.04741,0.11381 0.306545,-0.09705 0.380855,-0.22686 0.03633,-0.06347 0.834636,-0.913506 1.773535,-1.88929 4.802971,-4.991654 4.622696,-4.775646 5.681307,-6.807337 1.361586,-2.613161 1.826615,-3.568257 1.738395,-3.568257 z m -20.374983,0.162264 c -0.112365,-0.0065 -1.897482,1.548946 -2.920752,2.039152 -1.764353,0.845228 -2.034989,1.09553 -1.848466,1.16737 0.08019,0.03088 0.145727,0.08513 0.145727,0.120406 0,0.08009 -1.28538,1.707334 -1.408699,1.783354 -0.04966,0.03061 -0.130811,0.130912 -0.180351,0.223242 -0.107496,0.200344 -0.115819,0.264899 1.193209,-0.529683 l 1.580782,-0.959115 c -0.01282,0.04413 0.175605,0.01798 0.310058,-0.07751 0.318523,-0.226222 0.299011,-0.199999 0.926559,0.09612 0.290515,0.137079 0.667471,0.211983 0.827856,0.211356 0.205674,-8.5e-4 0.256299,-0.02312 0.1726,-0.07596 -0.08867,-0.05598 -0.05701,-0.08214 0.125056,-0.102836 0.188658,-0.02144 0.249401,-0.07427 0.268201,-0.235128 0.01336,-0.114265 0.05493,-0.282727 0.0925,-0.374137 0.149733,-0.36434 0.257865,-0.770416 0.257865,-0.967383 0,-0.114152 0.05553,-0.394373 0.123507,-0.622701 0.08748,-0.293997 0.148798,-0.460939 0.09457,-0.649573 -0.04748,-0.164869 -0.06119,-0.190453 -0.01292,-0.160713 0.04288,0.02643 0.09198,-0.149803 0.09198,-0.243913 0,-0.179327 -0.167222,-0.248576 -0.255282,-0.106454 -0.02833,0.04569 -0.0648,0.08997 -0.119372,0.08837 0.424338,-0.446491 0.572823,-0.622091 0.535368,-0.624251 z m -22.1045943,1.53324 c 1.272118,2.770834 3.0135802,5.300945 5.1474894,7.478613 0.1929763,0.172481 0.3794989,0.347398 0.5823934,0.516247 0.026823,0 0.013166,-0.07664 -0.1152385,-0.210323 C 7.8172351,44.972163 7.70571,44.738451 7.658964,44.483073 7.6185913,44.262531 7.4776228,43.801643 7.3458049,43.458846 7.2139836,43.116051 6.8893227,42.259098 6.6244019,41.554569 6.3594808,40.850036 6.0364505,40.064752 5.9066162,39.809456 5.776782,39.554158 5.6700512,39.313849 5.6694214,39.275639 c -9.635e-4,-0.06327 1.5112017,0.813407 1.5399577,0.829407 0.034291,0.01908 0.4909261,0.246819 0.4909261,0.223759 0,-0.09047 -5.0677663,-2.917043 -5.3490275,-2.986381 z M 25.38243,38.555786 c -0.02291,0 -0.214766,0.22444 -0.426331,0.498678 -0.211561,0.274234 -0.366061,0.498677 -0.343131,0.498677 0.02291,0 0.214766,-0.224443 0.426331,-0.498677 0.211561,-0.274238 0.366061,-0.498678 0.343131,-0.498678 z m 15.442468,0.747758 c -0.02291,0 -0.471358,0.430393 -0.996838,0.956014 -1.461854,1.462253 -0.950503,1.033982 0.0832,0 0.525476,-0.525621 0.936569,-0.956014 0.913639,-0.956014 z m -19.426721,1.034562 c 0.03231,-0.03622 -0.08282,0.04376 -0.255798,0.17725 -0.299326,0.230995 -0.560173,0.788902 -0.560173,1.19786 0,0.392489 -1.341667,2.700547 -1.836063,3.158464 -0.02467,0.02285 -0.127328,0.172309 -0.227893,0.332279 -0.100577,0.159976 -0.183855,0.267058 -0.184485,0.238228 -0.0024,-0.08835 0.380985,-1.068239 0.740523,-1.893424 1.299538,-3.045624 -1.954299,4.092785 -1.86707,4.307747 -0.04821,0.15795 0.02993,0.110294 0.363803,-0.222725 0.233657,-0.233058 0.528761,-0.487777 0.655773,-0.565857 0.386075,-0.237331 2.005998,-2.185722 2.412256,-2.901115 0.451364,-0.794817 1.009192,-2.171711 1.082622,-2.673222 0.02565,-0.175214 -0.03134,-0.39838 -0.172083,-0.675411 -0.115614,-0.227577 -0.183722,-0.443854 -0.151412,-0.480074 z m -1.260905,0.73794 c -0.06522,-0.06504 -1.375433,2.998351 -0.340031,0.811836 0.203557,-0.42987 0.356591,-0.795316 0.340031,-0.811836 z m -8.955009,0.208773 c -0.05218,-0.06191 -0.03073,1.196325 0.15968,3.711401 0.0477,1.051239 0.0934,2.188848 0.101803,2.528011 l 0.01499,0.6165 0.625285,0.436149 c 0.668536,0.466599 0.782273,0.529535 0.564823,0.312642 -0.121907,-0.121595 -0.12412,-0.170212 -0.02067,-0.436149 1.616342,-4.155224 2.391787,-6.231074 2.400887,-6.428031 0.0037,-0.07998 0.04556,-0.148212 0.09302,-0.151412 0.10423,-0.0068 -0.69528,-0.291268 -1.045931,-0.356568 -0.21374,-0.0398 -0.215831,0.0519 -0.304891,0.248564 -0.05729,0.126488 -0.104386,0.329442 -0.104386,0.451135 0,0.211418 -0.644657,1.427544 -0.870748,1.694987 -0.05931,0.07017 -0.273746,0.569931 -0.47594,1.000456 -0.202194,0.430525 -0.379127,0.753067 -0.503328,0.876949 l -0.225826,0.225309 -0.04858,-0.343131 c -0.0268,-0.18876 -0.120409,-1.464822 -0.207739,-2.836003 -0.06378,-1.001075 -0.121136,-1.513664 -0.152446,-1.550809 z m 4.234367,0.605647 c -0.03775,0 -0.07575,0.006 -0.104386,0.01757 -0.05727,0.02305 -0.01017,0.04186 0.104386,0.04186 0.11454,0 0.16115,-0.01881 0.10387,-0.04186 -0.02864,-0.01153 -0.06612,-0.01757 -0.10387,-0.01757 z m 14.491105,0.07235 c -0.02291,0 -0.245128,0.205954 -0.494027,0.457337 -0.248898,0.251381 -0.433757,0.456819 -0.410827,0.456819 0.02291,0 0.245128,-0.205438 0.494027,-0.456819 0.248898,-0.251383 0.433757,-0.457337 0.410827,-0.457337 z m -2.772957,2.675806 c -0.06806,0.04208 -0.280461,0.25463 -0.888835,0.876949 l -0.873332,0.893486 0.895553,-0.871265 c 0.492606,-0.479098 0.896069,-0.881236 0.896069,-0.893486 0,-0.015 -0.0068,-0.01971 -0.02945,-0.0057 z m -3.861263,3.846277 c -0.03563,0.03131 -0.137251,0.126757 -0.310059,0.292488 -0.691231,0.662931 -1.731063,1.66341 -2.31097,2.223121 -0.555659,0.536306 -0.968087,0.955765 -0.977201,0.990637 l 0.0031,5.17e-4 c 0.06584,-0.03728 1.067469,-1.000086 2.285649,-2.198833 0.930835,-0.915988 1.41638,-1.401859 1.309481,-1.30793 z"
     sodipodi:nodetypes="sccccccccscssssssccccccccssssccscsssssssssssscsssssssccsssssccssssssssssssssssssssssssccsscssscscccsccscccssssscsscsssssssssssssscccsssssscscsccccscscscsssccccsssssssssssssccsssssccsssssccss" /><path
     id="path1084"
     style="fill:#34405c;fill-opacity:1;stroke-width:0.0832088"
     d="M 49.179427,24.206791 C 40.574531,41.093907 37.609071,42.626103 23.622847,52.701176 l 0.394292,0.04082 c 0.76566,0.0885 1.534822,0.143503 2.305285,0.164848 0.07263,0.0017 0.145634,0.003 0.218592,0.0041 11.608525,-0.04345 21.832913,-7.648772 25.212931,-18.754411 0.06019,-0.201216 0.114788,-0.405538 0.170532,-0.609265 0.253073,-0.920756 0.456114,-1.854537 0.608232,-2.797245 0.05762,-0.351843 0.108853,-0.706999 0.153479,-1.065051 0.131134,-1.010577 0.203774,-2.027886 0.217558,-3.046843 0.002,-0.107239 0.0084,-0.212688 0.0093,-0.320394 -0.0034,-0.479052 -0.01973,-0.957925 -0.04909,-1.436088 l -0.341065,-0.06976 c -0.432248,-0.08928 -3.244885,-0.604817 -3.343465,-0.605131 z m -11.236007,1.72961 c -1.914061,-6.57e-4 -5.189549,0.762465 -5.334558,0.865581 -1.096813,0.779945 -1.567216,8.055523 -2.971395,8.183996 -0.128339,0.6234 1.17775,0.138574 1.440739,-0.346749 0.703481,-0.586698 0.708758,-0.589425 1.109493,-0.542085 0.221427,0.02616 0.765939,0.127599 1.209746,0.225309 l 0.806669,0.177767 1.201477,-0.378789 c 0.66068,-0.208128 1.232077,-0.35887 1.270207,-0.33538 0.03811,0.0235 0.06976,0.09255 0.06976,0.153479 0,0.140633 -2.698574,2.040619 -2.894914,2.038119 -0.0804,-9.76e-4 -0.406163,-0.169822 -0.723987,-0.375171 -0.317823,-0.205351 -0.601986,-0.344472 -0.631486,-0.309542 -0.02949,0.03493 -0.401132,0.615163 -0.825789,1.289327 -0.488629,0.775717 -0.822682,1.225765 -0.910022,1.225765 -0.07591,0 -0.325517,-0.134014 -0.554488,-0.297656 -0.22897,-0.163642 -0.675915,-0.508893 -0.813387,-0.580843 -0.24194,-0.126632 -0.24613,-0.125815 -0.129191,0.02739 0.06644,0.08705 0.352306,0.404051 0.455269,0.518315 l -2.18488,0.0832 c 0.09545,-0.201508 -0.535029,0.509664 -2.061889,2.325956 -1.524537,1.813526 -1.687471,1.995856 -1.785421,1.995227 -0.03437,-1.91e-4 -0.335551,-0.236321 -0.669727,-0.524516 C 22.68147,41.0669 22.287738,40.76203 22.140767,40.67762 l -0.267167,-0.153479 0.179834,0.199988 c 0.09906,0.109984 0.374497,0.517902 0.611849,0.906405 0.237349,0.388502 0.525586,0.830196 0.640271,0.981335 0.141143,0.185993 0.192023,0.333457 0.157613,0.45682 -0.02796,0.100248 -0.592167,0.740561 -1.25367,1.422652 -0.661502,0.682088 -1.183299,1.271251 -1.159619,1.309481 0.05305,0.08562 -0.304509,0.815971 -0.399459,0.815971 -0.0377,0 -0.06913,0.06523 -0.06976,0.145211 -0.0019,0.227046 -0.240489,0.855269 -0.376205,0.990637 -0.06736,0.06719 -0.122473,0.205095 -0.122473,0.305924 0,0.204813 -0.205077,0.537751 -0.433048,0.7028 -0.08249,0.05972 -0.149862,0.183268 -0.149862,0.274918 0,0.09165 -0.09474,0.366087 -0.210323,0.609782 -0.115583,0.243695 -0.266136,0.630814 -0.334346,0.859896 -0.119596,0.401696 -0.459664,0.863221 -0.692981,0.940511 -0.06194,0.02052 0.163341,0.136329 0.500228,0.257349 0.336889,0.121022 0.636676,0.212938 0.666625,0.204638 0.120066,-0.03333 3.592399,-3.320797 6.02754,-5.707145 4.346997,-4.259889 6.553911,-6.336823 9.661942,-9.141561 2.774401,-2.503664 8.255945,-7.327305 8.050155,-7.417635 -2.217571,-0.973431 -1.757178,-0.762882 -2.532662,-1.688785 -0.240275,-0.28688 -0.590943,-0.825759 -0.789099,-1.041797 -0.58773,-0.640771 -0.686274,-0.767932 -0.850078,-0.835092 -0.241452,-0.09899 -0.610942,-0.139891 -1.052649,-0.140043 z"
     sodipodi:nodetypes="ccccccccccccccssccsccccscsssssssccscscccsssscscsssssssscsscssss" /><path
     id="path1086"
     style="fill:#3d4e6f;fill-opacity:1;stroke-width:0.0832088"
     d="m 29.763041,18.318262 c -0.0049,0.0048 0.817437,1.717027 0.517281,2.016414 -0.11774,0.117431 -0.164949,0.520382 -0.06098,0.520382 0.03076,0 0.124456,-0.06182 0.208256,-0.13746 0.143066,-0.129158 0.152446,-0.126807 0.152446,0.03979 0,0.158299 -0.13427,0.578055 -0.336414,1.053166 -0.03889,0.09141 -0.09575,0.297366 -0.126607,0.457336 -0.03087,0.159973 -0.08875,0.330772 -0.128158,0.379822 -0.03942,0.04905 -0.09355,0.273484 -0.120406,0.498678 -0.04446,0.372873 -0.173832,0.729204 -0.507979,1.398364 -0.301235,0.603256 -0.498117,1.336636 -0.605131,2.252059 -0.06122,0.523654 -0.241536,1.168621 -0.434599,1.554944 -0.03914,0.07833 -0.04784,0.313487 -0.01912,0.522449 0.04388,0.319289 0.02296,0.411004 -0.129708,0.573091 -0.09991,0.106079 -0.20335,0.338295 -0.22996,0.516248 -0.03498,0.233903 -0.132258,0.396357 -0.350883,0.58601 -0.166326,0.144285 -0.282009,0.282445 -0.257349,0.307475 0.03943,0.04005 0.500894,-0.31342 2.641183,-2.024166 0.542874,-0.433922 0.821495,-0.53203 0.751375,-0.264583 -0.02177,0.08301 -0.82204,1.192619 -1.778703,2.465999 l -1.739429,2.315105 -1.691369,1.533756 c -0.930255,0.843472 -1.66552,1.528144 -1.64021,1.553394 0.02532,0.02526 0.0853,0.02773 0.139526,-0.02635 0.146656,-0.146273 0.232027,-0.119439 0.232027,0.07286 0,0.09413 -0.03515,0.14944 -0.07803,0.12299 -0.0482,-0.02976 -0.04898,0.05367 -0.0015,0.218592 0.05424,0.188633 0.0405,0.387097 -0.04703,0.681095 -0.06798,0.228328 -0.165365,0.50855 -0.165365,0.622701 0,0.196967 -0.06627,0.603043 -0.216007,0.967383 -0.03758,0.09141 -0.126693,0.254704 -0.140043,0.36897 -0.01881,0.160865 -0.110558,0.20851 -0.299207,0.22996 -0.182068,0.02069 -0.135188,0.05719 -0.04651,0.113171 l -0.03152,0.03669 c 0.06527,0.04119 0.375145,0.03576 0.650089,0.03256 l 0.499712,-0.0057 1.758032,-2.340942 1.758032,-2.340426 0.491443,0.0041 c 0.270404,0.0024 0.836299,0.03567 1.257287,0.0739 0.694583,0.06307 0.936622,0.05061 1.445907,-0.496611 0.446314,-0.371297 0.78534,-0.586575 0.984436,-0.625285 l 0.303341,-0.05891 -0.33228,-0.06563 c -0.256141,-0.05069 -0.374836,0.129176 -0.971517,0.626835 -0.668553,0.557556 -0.711675,0.579307 -1.112076,0.567407 -0.382231,-0.01137 -0.389505,-0.01491 -0.08372,-0.04289 0.505595,-0.04625 0.58078,-0.08491 0.455786,-0.235128 -0.08642,-0.10388 -0.08209,-0.116874 0.02481,-0.07596 0.0844,0.0323 0.148454,-0.01076 0.184484,-0.124024 0.03035,-0.09536 0.09122,-0.15146 0.134876,-0.12454 0.04365,0.02692 0.07378,0.01804 0.06718,-0.01964 -0.02923,-0.167838 0.01769,-0.266068 0.138493,-0.290938 0.07174,-0.01478 0.227497,-0.269799 0.346232,-0.566891 0.118731,-0.297087 0.322391,-0.670448 0.452686,-0.829406 0.242792,-0.296209 0.301133,-0.534265 0.153479,-0.625285 -0.144304,-0.08895 -0.09022,-0.304433 0.08785,-0.350883 0.139024,-0.03626 0.161155,-0.08847 0.118855,-0.280603 -0.03111,-0.141295 -0.0039,-0.329017 0.06821,-0.467155 0.173765,-0.333067 0.308509,-0.789955 0.308509,-1.046965 0,-0.122449 0.03396,-0.222725 0.07545,-0.222725 0.04239,0 0.05595,-0.282638 0.03101,-0.645439 -0.03665,-0.533303 -0.02058,-0.665947 0.09198,-0.759127 0.07498,-0.06206 0.159216,-0.257194 0.187586,-0.434082 0.05168,-0.322383 0.209587,-0.422201 0.33848,-0.21394 0.03665,0.05921 0.403915,0.386369 0.815971,0.727087 0.412059,0.340717 1.012128,0.856753 1.333252,1.147217 0.778423,0.704098 0.902709,0.758525 1.167887,0.510047 0.114106,-0.106925 0.207223,-0.254359 0.207223,-0.327629 0,-0.07328 0.06553,-0.22536 0.145727,-0.337964 0.369154,-0.518354 0.771013,-1.454252 0.771013,-1.796273 0,-0.194213 0.03738,-0.375869 0.0832,-0.404109 0.04582,-0.02825 0.0832,-0.16266 0.0832,-0.29869 0,-0.136027 0.05779,-0.335212 0.128157,-0.44235 0.115075,-0.175175 0.115075,-0.199873 0,-0.243913 -0.07038,-0.02694 -0.128157,-0.102802 -0.128157,-0.168982 0,-0.06618 -0.04926,-0.131417 -0.10387,-0.158647 0,0 0.396189,-0.145054 0.822172,-0.05684 0.829792,0.171825 0.679768,0.03473 2.135787,1.950785 0.584467,0.769127 0.753029,0.85683 1.170471,1.082105 0.272876,0.147262 0.614605,0.275345 0.660425,0.274402 C 42.273677,29.205381 42.155763,29.195501 41.85791,29.043188 41.351949,28.784455 41.303333,28.765808 40.366528,27.53372 39.81504,26.808408 39.266629,26.168444 39.147998,26.111584 39.029368,26.054722 38.580815,25.937655 38.15116,25.851135 36.797695,25.578581 36.768065,25.564088 35.786963,24.711153 35.282901,24.27294 34.349823,23.465478 33.713188,22.916431 32.362759,21.7518 32.293406,21.67421 30.876152,19.748149 30.283113,18.942207 29.782411,18.298942 29.763041,18.318262 Z m 18.346167,5.616711 c -0.05056,-0.0029 -0.57244,0.583924 -1.159619,1.303797 -0.587181,0.71987 -1.169464,1.420923 -1.293978,1.558044 -0.163968,0.180575 -0.345633,0.638654 -0.659908,1.661914 -0.23864,0.777002 -0.767557,2.422562 -1.175122,3.656624 l -0.74104,2.243791 -0.999422,1.516703 c -0.906055,1.374694 -1.25212,1.759972 -1.25212,1.393714 0,-0.180459 1.021507,-4.483325 1.223698,-5.154208 0.03724,-0.123561 -0.04375,-0.08294 -0.31626,0.15813 -0.740716,0.655256 -1.838562,1.534962 -1.829862,1.595252 -0.497775,0.966329 -0.882006,2.382912 -1.235067,3.606498 -0.14584,0.479913 -0.329297,1.000639 -0.407727,1.157035 -0.07843,0.1564 -0.146062,0.30587 -0.149862,0.33228 -0.01065,0.07333 -0.201021,0.490549 -0.201021,0.578259 0,0.03422 -0.162057,0.303209 -0.359668,0.59738 -0.197616,0.294169 -0.461949,0.751824 -0.587561,1.016992 -0.125615,0.265166 -0.41898,0.684618 -0.652157,0.932243 -0.233176,0.247628 -0.490034,0.554004 -0.571024,0.681095 -0.314029,0.492769 -0.997581,1.114025 -2.037085,1.851567 -2.366255,1.678877 -11.663045,7.728727 -11.876795,7.728727 -0.0888,0 -0.0959,0.04712 -0.05736,0.09612 0.744748,0.130431 1.494745,0.228879 2.247925,0.295072 l -0.394808,-0.04082 0.707967,-0.0021 c 1.007405,-0.0034 1.345451,-0.102538 2.070158,-0.605648 0.577791,-0.401112 1.91775,-1.481753 2.278931,-1.838131 0.07949,-0.07843 0.286007,-0.233743 0.459403,-0.344681 0.1734,-0.110937 0.624994,-0.504872 1.003557,-0.875399 0.378565,-0.37053 0.741452,-0.673344 0.806152,-0.673344 0.160562,0 0.630453,-0.404033 0.630453,-0.542086 0,-0.06142 0.08397,-0.138529 0.187068,-0.171049 0.103103,-0.03253 0.553913,-0.418272 1.001489,-0.857312 0.991634,-0.972715 1.119548,-1.085862 1.169438,-1.036112 0.0215,0.02145 0.114179,-0.05645 0.206189,-0.173116 0.09201,-0.116674 0.231145,-0.212391 0.309025,-0.212391 0.07789,0 0.160698,-0.07243 0.183968,-0.16123 0.02462,-0.09388 0.143293,-0.183707 0.283704,-0.214457 0.132814,-0.02909 0.241329,-0.104965 0.241329,-0.168465 0,-0.06855 0.05093,-0.09554 0.125057,-0.06718 0.06873,0.02631 0.125057,0.0061 0.125057,-0.04444 0,-0.0506 0.06294,-0.09198 0.139526,-0.09198 0.172613,0 0.443901,-0.236136 0.443901,-0.38654 0,-0.06147 0.03117,-0.112138 0.06925,-0.112138 0.03808,0 0.119041,-0.09347 0.180351,-0.207739 0.06193,-0.115415 0.185856,-0.20774 0.278536,-0.20774 0.224443,0 0.471176,-0.23487 0.471806,-0.449068 3.39e-4,-0.103859 0.109595,-0.245951 0.270784,-0.352433 0.311702,-0.205916 0.645705,-0.321189 0.644405,-0.222209 -4.19e-4,0.03736 -0.589082,1.189904 -1.308447,2.561084 -1.958952,3.733962 -2.572349,5.0276 -2.383834,5.0276 0.07322,0 0.838528,-0.819458 0.889868,-0.952913 0.05716,-0.148561 0.313917,-0.174365 0.283187,-0.02842 -0.01146,0.05441 0.05006,0.114545 0.136943,0.133325 0.114311,0.0247 0.144297,-8.31e-4 0.109037,-0.0925 -0.03307,-0.08595 0.02373,-0.152105 0.1757,-0.205155 0.123232,-0.04302 0.386928,-0.214179 0.586011,-0.380339 0.199088,-0.166165 0.39794,-0.30179 0.44235,-0.30179 0.08612,0 0.228574,-0.122393 1.049548,-0.903304 0.286401,-0.272423 0.520382,-0.535864 0.520382,-0.585494 0,-0.04963 0.0401,-0.09043 0.08888,-0.09043 0.04878,0 0.184212,-0.11342 0.301274,-0.252181 0.117059,-0.138757 0.318752,-0.30694 0.448035,-0.37362 0.129281,-0.06668 0.301582,-0.233683 0.382922,-0.371037 0.08135,-0.137353 0.19273,-0.249597 0.24753,-0.249597 0.05479,0 0.217519,-0.121724 0.361735,-0.270268 1.528018,-1.573895 1.835547,-1.950235 1.835547,-2.246375 0,-0.06307 0.149632,-0.279619 0.332279,-0.481624 0.182648,-0.202008 0.332683,-0.444902 0.333313,-0.539502 6.49e-4,-0.09459 0.09473,-0.253083 0.20929,-0.352433 0.114551,-0.09936 0.208256,-0.232329 0.208256,-0.295589 0,-0.06327 0.05233,-0.158417 0.116272,-0.211357 0.06394,-0.05293 0.141296,-0.228135 0.171566,-0.389123 0.03028,-0.16099 0.127971,-0.354902 0.217041,-0.430982 0.08907,-0.07607 0.161747,-0.17092 0.161747,-0.21084 0,-0.03992 0.07003,-0.171683 0.155546,-0.293005 0.08551,-0.12132 0.179393,-0.351627 0.208773,-0.511597 0.02938,-0.159974 0.06435,-0.346918 0.07751,-0.415478 0.01318,-0.06856 0.09145,-0.274511 0.17415,-0.457337 0.0827,-0.182823 0.21724,-0.55885 0.29869,-0.836124 0.08144,-0.277279 0.199596,-0.588333 0.262516,-0.690914 0.10063,-0.164066 0.09569,-0.19994 -0.03772,-0.29869 -0.142517,-0.10548 -0.137085,-0.119042 0.08372,-0.224276 0.14665,-0.06989 0.245106,-0.189673 0.262516,-0.318843 0.01534,-0.113837 0.06245,-0.242878 0.104387,-0.286288 0.04194,-0.04342 0.07596,-0.168099 0.07596,-0.277502 0,-0.129027 0.05883,-0.214163 0.166915,-0.242363 0.102454,-0.02672 0.166398,-0.113241 0.166398,-0.224792 0,-0.09979 0.0367,-0.218187 0.08113,-0.262517 0.101242,-0.100981 0.49648,-1.142073 0.58136,-1.531172 0.109278,-0.50093 0.264925,-1.029236 0.379305,-1.288294 0.06054,-0.137117 0.21127,-0.511013 0.334863,-0.830957 0.123593,-0.31994 0.276768,-0.640975 0.340548,-0.713134 0.06378,-0.07216 0.115755,-0.175284 0.115755,-0.229444 0,-0.05415 0.03606,-0.163509 0.0801,-0.242879 0.176832,-0.318678 0.499124,-1.096435 0.731221,-1.76475 0.384535,-1.107265 0.438733,-1.288141 0.438733,-1.470711 0,-0.094 0.052,-0.213871 0.115755,-0.266651 0.06375,-0.05277 0.14129,-0.266726 0.1726,-0.474906 0.0313,-0.208182 0.124642,-0.590209 0.207222,-0.849044 0.142182,-0.44582 0.142333,-0.473596 0.0052,-0.526066 -0.07964,-0.03047 -0.166363,-0.137622 -0.192753,-0.238229 -0.04492,-0.171335 -0.02717,-0.179348 0.280086,-0.131258 0.958491,0.150004 0.905211,0.104388 -0.130225,-0.111104 -0.641532,-0.133515 -1.207751,-0.245147 -1.258321,-0.248047 z m -5.795512,6.445085 c 0,0 -12.987374,12.169715 -2.235522,2.139921 0.939388,-0.87444 1.945316,-1.837431 2.235522,-2.139921 z m 2.517676,5.266862 c 0.08794,0 -0.37835,0.957058 -1.738912,3.568257 -1.058611,2.031691 -0.878336,1.815683 -5.681307,6.807337 -0.938899,0.975784 -1.737205,1.82582 -1.773535,1.88929 -0.06386,0.111567 -0.391707,0.325332 -0.391707,0.255282 0,-0.01899 0.33181,-0.665565 0.737422,-1.436605 0.405613,-0.77104 1.179783,-2.243247 1.720309,-3.271635 0.540526,-1.028387 1.066287,-2.002925 1.168921,-2.165242 0.271154,-0.42884 5.777448,-5.646684 5.958809,-5.646684 z m -16.066203,0.920357 -0.717785,0.271818 c -0.222436,0.0741 -0.898558,1.376895 -1.015442,1.561662 l -0.465088,0.735355 -0.216008,2.104782 c -0.118774,1.15757 -0.189139,2.17363 -0.156579,2.25826 0.05131,0.133374 0.108745,0.09963 0.433565,-0.254765 0.614444,-0.670392 2.054843,-2.65744 3.058211,-4.219381 l 0.472323,-0.735872 -0.126607,-0.302824 c -0.06981,-0.166688 -0.21123,-0.396816 -0.314193,-0.51108 -0.102965,-0.114265 -0.241552,-0.279433 -0.307992,-0.366903 -0.1145,-0.15072 -0.110073,-0.15336 0.08733,-0.05736 0.200561,0.09754 0.202305,0.09608 0.04186,-0.03462 -0.09165,-0.07466 -0.303379,-0.206258 -0.470255,-0.292488 z m 4.696354,2.017965 c 0.02526,-0.03027 -0.130964,0.106574 -0.45837,0.396875 -1.090819,0.967202 -4.484066,4.211214 -7.506001,7.176306 -1.398003,1.371708 -3.338507,3.237428 -4.311882,4.146 -0.948457,0.885316 -1.684593,1.587103 -1.723926,1.64021 0.03358,0.0073 0.06716,0.01453 0.100769,0.0217 0.166237,-0.102057 0.485244,-0.382805 1.048515,-0.927592 3.290906,-3.182917 4.084174,-3.957478 5.594491,-5.461165 1.548611,-1.541818 4.34648,-4.239466 6.624402,-6.387724 0.399751,-0.376995 0.606747,-0.574349 0.632002,-0.604614 z M 5.6141276,39.195024 c -0.016321,0.01628 0.1723857,0.368481 0.3327962,0.703833 0.1604074,0.335352 0.4803682,1.191011 0.7188192,1.830896 0.2384508,0.639883 0.5476074,1.386296 0.6795451,1.729093 0.1319347,0.342797 0.2721998,0.799508 0.3116089,1.014925 0.043569,0.238134 0.1994375,0.626989 0.3462321,0.79375 0.4530011,0.514618 1.7882607,1.622657 2.5812379,2.233972 v 5.17e-4 c 0.435326,0.335598 0.82324,0.610134 0.86248,0.610299 0.03924,1.51e-4 0.0482,-0.327158 0.01964,-0.727088 -0.05301,-0.742116 -0.165422,-3.113674 -0.265617,-5.609476 l -0.05581,-1.391647 -0.259416,-5.16e-4 c -0.142797,-3.3e-4 -0.823607,0.04084 -1.5125687,0.09198 l -1.2526367,0.09302 -1.2030274,-0.66921 C 6.2557915,39.531205 5.6304386,39.178754 5.6141276,39.195024 Z m 19.5042354,1.078487 c 0.0025,-0.03337 -0.654058,0.694393 -0.932242,1.04128 -0.172209,0.214737 -0.358349,0.408895 -0.413929,0.432015 -0.05558,0.02314 -0.449314,-0.241317 -0.874882,-0.588078 -0.844144,-0.687829 -1.227224,-0.909473 -1.435054,-0.829923 -0.118772,0.04546 -0.109339,0.102581 0.08113,0.47749 0.145832,0.287046 0.204134,0.510808 0.178284,0.687296 -0.07343,0.501515 -0.631257,1.878409 -1.082622,2.673222 -0.406257,0.715394 -2.026182,2.663781 -2.412256,2.901115 -0.127012,0.07808 -0.422116,0.332799 -0.655773,0.565857 -0.333944,0.33309 -0.411983,0.380708 -0.363803,0.222725 0.148206,-0.485959 0.92134,-2.316259 1.837334,-4.390166 0.545057,-1.234063 1.007781,-2.292386 1.036629,-2.34766 0.144323,-0.276533 -0.608462,0.265776 -1.873513,0.943864 -0.497568,0.274107 -0.583008,0.278133 -1.707906,0.07338 -1.530405,-0.278562 -1.463211,-0.273582 -1.470711,-0.111104 -0.0091,0.197227 -0.793076,2.295592 -2.401921,6.430615 -0.109838,0.282307 -0.105451,0.312723 0.06563,0.471289 0.102372,0.09489 0.267509,0.210823 0.458887,0.334864 0.564613,0.336077 1.14155,0.651004 1.72961,0.944128 0.392895,0.190768 0.822864,0.381483 1.253154,0.568958 1.004088,0.435862 2.034256,0.808994 3.084566,1.117244 -0.06944,-0.0386 -0.23249,-0.107219 -0.457336,-0.188102 -0.336887,-0.121187 -0.562168,-0.236839 -0.500228,-0.257349 0.233316,-0.07729 0.5739,-0.538817 0.693497,-0.940511 0.06821,-0.22908 0.218247,-0.616203 0.33383,-0.859896 0.115587,-0.243693 0.210323,-0.518132 0.210323,-0.609782 0,-0.09165 0.06736,-0.215188 0.149862,-0.274918 0.227971,-0.165046 0.433048,-0.497984 0.433048,-0.7028 0,-0.100827 0.05511,-0.238744 0.122473,-0.305924 0.135716,-0.135368 0.374305,-0.763589 0.376205,-0.990637 6.7e-4,-0.07999 0.03206,-0.145211 0.06976,-0.145211 0.09495,0 0.452519,-0.730341 0.399459,-0.815971 -0.02369,-0.03824 0.498117,-0.627393 1.159619,-1.309481 0.661502,-0.68209 1.2257,-1.322406 1.25367,-1.422652 0.03441,-0.123364 -0.01648,-0.270827 -0.157613,-0.45682 -0.114684,-0.151139 -0.402921,-0.592833 -0.640271,-0.981335 -0.237352,-0.388503 -0.512789,-0.795813 -0.611849,-0.904854 -0.16838,-0.185347 -0.169213,-0.192571 -0.01344,-0.111622 0.174738,0.0908 0.606865,0.425767 1.239718,0.960665 0.255575,0.216016 0.413616,0.295831 0.492476,0.249081 0.101825,-0.06035 0.93227,-1.008014 1.30173,-1.485698 0.03027,-0.03914 0.04409,-0.05983 0.04444,-0.0646 z"
     sodipodi:nodetypes="ssscsscccssssssscsscccssscsssscccccccccsccccccscscscssssssssscscssssscssscsscssscsssssssscssssccsssccscsssssssccccssssssssssscsscsssssscscsssssssssssssssscsscsssssssscsssssssssscsssssssssscsccsccscscssssssscscccsscccscssccssssccssssssssssccccccccccssscssscsssssscscssccccscsssssssssssssssssssscc" /></g></svg>
