<?xml version="1.0" encoding="UTF-8" standalone="no"?>
<!-- Created with Inkscape (http://www.inkscape.org/) -->

<svg
   width="500"
   height="500"
   viewBox="0 0 132.29166 132.29167"
   version="1.1"
   id="svg635"
   xml:space="preserve"
   xmlns:xlink="http://www.w3.org/1999/xlink"
   xmlns="http://www.w3.org/2000/svg">&#10;    <defs
   id="defs632"><linearGradient
   id="linearGradient14447"><stop
     style="stop-color:#bcf5d5;stop-opacity:1;"
     offset="0.1175551"
     id="stop16633" /><stop
     style="stop-color:#70aecc;stop-opacity:1;"
     offset="0.39099202"
     id="stop29757" /><stop
     style="stop-color:#c6deed;stop-opacity:1;"
     offset="0.67645293"
     id="stop17361" /><stop
     style="stop-color:#ffd4e3;stop-opacity:1;"
     offset="0.89178365"
     id="stop20271" /></linearGradient>&#10;        <linearGradient
   id="linearGradient11233"><stop
   style="stop-color:#dc719a;stop-opacity:1;"
   offset="0.16032064"
   id="stop11229" />&#10;            <stop
   style="stop-color:#fe95ae;stop-opacity:1;"
   offset="0.51803607"
   id="stop13376" />&#10;            <stop
   style="stop-color:#fdf7f0;stop-opacity:1;"
   offset="1"
   id="stop11231" /></linearGradient>&#10;        <linearGradient
   id="linearGradient3778"><stop
   style="stop-color:#ea6c9e;stop-opacity:1;"
   offset="0.38476956"
   id="stop3774" />&#10;            <stop
   style="stop-color:#feb0c8;stop-opacity:1;"
   offset="0.80460918"
   id="stop8681" />&#10;            <stop
   style="stop-color:#fdedde;stop-opacity:1;"
   offset="1"
   id="stop3776" /></linearGradient>&#10;        <filter
   y="-0.1960436"
   height="1.3920872"
   style="color-interpolation-filters:sRGB"
   id="filter3896"
   x="-0.1960436"
   width="1.3920872"><feGaussianBlur
   stdDeviation="5"
   result="result6"
   id="feGaussianBlur3886" />&#10;            <feComposite
   result="result8"
   in="SourceGraphic"
   operator="atop"
   in2="result6"
   id="feComposite3888" />&#10;            <feComposite
   result="result9"
   operator="over"
   in2="SourceAlpha"
   in="result8"
   id="feComposite3890" />&#10;            <feColorMatrix
   values="1 0 0 0 0 0 1 0 0 0 0 0 1 0 0 0 0 0 1 0 "
   result="result10"
   id="feColorMatrix3892" />&#10;            <feBlend
   in="result10"
   mode="normal"
   in2="result6"
   id="feBlend3894" /></filter>&#10;        <linearGradient
   xlink:href="#linearGradient14447"
   id="linearGradient14449"
   x1="264.58331"
   y1="191.82292"
   x2="132.29166"
   y2="59.531258"
   gradientUnits="userSpaceOnUse"
   gradientTransform="translate(-132.29167,-59.531261)" />&#10;        <radialGradient
   xlink:href="#linearGradient3778"
   id="radialGradient467"
   gradientUnits="userSpaceOnUse"
   gradientTransform="matrix(1.1490556,-0.01647774,0.01623538,1.1321542,-164.24442,-73.710011)"
   cx="200.13557"
   cy="130.6666"
   fx="200.13557"
   fy="130.6666"
   r="55.989567" />&#10;        <radialGradient
   xlink:href="#linearGradient3778"
   id="radialGradient469"
   gradientUnits="userSpaceOnUse"
   gradientTransform="matrix(1.1490556,-0.01647774,0.01623538,1.1321542,-164.24442,-73.710011)"
   cx="200.13557"
   cy="130.6666"
   fx="200.13557"
   fy="130.6666"
   r="55.989567" />&#10;        <radialGradient
   xlink:href="#linearGradient3778"
   id="radialGradient471"
   gradientUnits="userSpaceOnUse"
   gradientTransform="matrix(1.1490556,-0.01647774,0.01623538,1.1321542,-164.24442,-73.710011)"
   cx="200.13557"
   cy="130.6666"
   fx="200.13557"
   fy="130.6666"
   r="55.989567" />&#10;        <radialGradient
   xlink:href="#linearGradient3778"
   id="radialGradient473"
   gradientUnits="userSpaceOnUse"
   gradientTransform="matrix(1.1490556,-0.01647774,0.01623538,1.1321542,-164.24442,-73.710011)"
   cx="200.13557"
   cy="130.6666"
   fx="200.13557"
   fy="130.6666"
   r="55.989567" />&#10;        <radialGradient
   xlink:href="#linearGradient3778"
   id="radialGradient475"
   gradientUnits="userSpaceOnUse"
   gradientTransform="matrix(1.1490556,-0.01647774,0.01623538,1.1321542,-164.24442,-73.710011)"
   cx="200.13557"
   cy="130.6666"
   fx="200.13557"
   fy="130.6666"
   r="55.989567" />&#10;        <radialGradient
   xlink:href="#linearGradient3778"
   id="radialGradient477"
   gradientUnits="userSpaceOnUse"
   gradientTransform="matrix(1.1490556,-0.01647774,0.01623538,1.1321542,-164.24442,-73.710011)"
   cx="200.13557"
   cy="130.6666"
   fx="200.13557"
   fy="130.6666"
   r="55.989567" />&#10;        <radialGradient
   xlink:href="#linearGradient3778"
   id="radialGradient479"
   gradientUnits="userSpaceOnUse"
   gradientTransform="matrix(1.1490556,-0.01647774,0.01623538,1.1321542,-164.24442,-73.710011)"
   cx="200.13557"
   cy="130.6666"
   fx="200.13557"
   fy="130.6666"
   r="55.989567" />&#10;        <radialGradient
   xlink:href="#linearGradient3778"
   id="radialGradient481"
   gradientUnits="userSpaceOnUse"
   gradientTransform="matrix(1.1490556,-0.01647774,0.01623538,1.1321542,-164.24442,-73.710011)"
   cx="200.13557"
   cy="130.6666"
   fx="200.13557"
   fy="130.6666"
   r="55.989567" />&#10;        <radialGradient
   xlink:href="#linearGradient3778"
   id="radialGradient483"
   gradientUnits="userSpaceOnUse"
   gradientTransform="matrix(1.1490556,-0.01647774,0.01623538,1.1321542,-164.24442,-73.710011)"
   cx="200.13557"
   cy="130.6666"
   fx="200.13557"
   fy="130.6666"
   r="55.989567" />&#10;        <radialGradient
   xlink:href="#linearGradient3778"
   id="radialGradient485"
   gradientUnits="userSpaceOnUse"
   gradientTransform="matrix(1.1490556,-0.01647774,0.01623538,1.1321542,-164.24442,-73.710011)"
   cx="200.13557"
   cy="130.6666"
   fx="200.13557"
   fy="130.6666"
   r="55.989567" />&#10;        <radialGradient
   xlink:href="#linearGradient3778"
   id="radialGradient487"
   gradientUnits="userSpaceOnUse"
   gradientTransform="matrix(1.1490556,-0.01647774,0.01623538,1.1321542,-164.24442,-73.710011)"
   cx="200.13557"
   cy="130.6666"
   fx="200.13557"
   fy="130.6666"
   r="55.989567" />&#10;        <radialGradient
   xlink:href="#linearGradient3778"
   id="radialGradient489"
   gradientUnits="userSpaceOnUse"
   gradientTransform="matrix(1.1490556,-0.01647774,0.01623538,1.1321542,-164.24442,-73.710011)"
   cx="200.13557"
   cy="130.6666"
   fx="200.13557"
   fy="130.6666"
   r="55.989567" />&#10;        <radialGradient
   xlink:href="#linearGradient3778"
   id="radialGradient491"
   gradientUnits="userSpaceOnUse"
   gradientTransform="matrix(1.1490556,-0.01647774,0.01623538,1.1321542,-164.24442,-73.710011)"
   cx="200.13557"
   cy="130.6666"
   fx="200.13557"
   fy="130.6666"
   r="55.989567" />&#10;        <radialGradient
   xlink:href="#linearGradient3778"
   id="radialGradient493"
   gradientUnits="userSpaceOnUse"
   gradientTransform="matrix(1.1490556,-0.01647774,0.01623538,1.1321542,-164.24442,-73.710011)"
   cx="200.13557"
   cy="130.6666"
   fx="200.13557"
   fy="130.6666"
   r="55.989567" />&#10;        <radialGradient
   xlink:href="#linearGradient3778"
   id="radialGradient495"
   gradientUnits="userSpaceOnUse"
   gradientTransform="matrix(1.1490556,-0.01647774,0.01623538,1.1321542,-164.24442,-73.710011)"
   cx="200.13557"
   cy="130.6666"
   fx="200.13557"
   fy="130.6666"
   r="55.989567" />&#10;        <radialGradient
   xlink:href="#linearGradient3778"
   id="radialGradient497"
   gradientUnits="userSpaceOnUse"
   gradientTransform="matrix(1.1490556,-0.01647774,0.01623538,1.1321542,-164.24442,-73.710011)"
   cx="200.13557"
   cy="130.6666"
   fx="200.13557"
   fy="130.6666"
   r="55.989567" />&#10;        <radialGradient
   xlink:href="#linearGradient3778"
   id="radialGradient499"
   gradientUnits="userSpaceOnUse"
   gradientTransform="matrix(1.1490556,-0.01647774,0.01623538,1.1321542,-164.24442,-73.710011)"
   cx="200.13557"
   cy="130.6666"
   fx="200.13557"
   fy="130.6666"
   r="55.989567" />&#10;        <radialGradient
   xlink:href="#linearGradient3778"
   id="radialGradient501"
   gradientUnits="userSpaceOnUse"
   gradientTransform="matrix(1.1490556,-0.01647774,0.01623538,1.1321542,-164.24442,-73.710011)"
   cx="200.13557"
   cy="130.6666"
   fx="200.13557"
   fy="130.6666"
   r="55.989567" />&#10;        <radialGradient
   xlink:href="#linearGradient3778"
   id="radialGradient503"
   gradientUnits="userSpaceOnUse"
   gradientTransform="matrix(1.1490556,-0.01647774,0.01623538,1.1321542,-164.24442,-73.710011)"
   cx="200.13557"
   cy="130.6666"
   fx="200.13557"
   fy="130.6666"
   r="55.989567" />&#10;        <radialGradient
   xlink:href="#linearGradient3778"
   id="radialGradient505"
   gradientUnits="userSpaceOnUse"
   gradientTransform="matrix(1.1490556,-0.01647774,0.01623538,1.1321542,-164.24442,-73.710011)"
   cx="200.13557"
   cy="130.6666"
   fx="200.13557"
   fy="130.6666"
   r="55.989567" />&#10;        <radialGradient
   xlink:href="#linearGradient3778"
   id="radialGradient507"
   gradientUnits="userSpaceOnUse"
   gradientTransform="matrix(1.1490556,-0.01647774,0.01623538,1.1321542,-164.24442,-73.710011)"
   cx="200.13557"
   cy="130.6666"
   fx="200.13557"
   fy="130.6666"
   r="55.989567" />&#10;        <radialGradient
   xlink:href="#linearGradient3778"
   id="radialGradient509"
   gradientUnits="userSpaceOnUse"
   gradientTransform="matrix(1.1490556,-0.01647774,0.01623538,1.1321542,-164.24442,-73.710011)"
   cx="200.13557"
   cy="130.6666"
   fx="200.13557"
   fy="130.6666"
   r="55.989567" />&#10;        <radialGradient
   xlink:href="#linearGradient3778"
   id="radialGradient511"
   gradientUnits="userSpaceOnUse"
   gradientTransform="matrix(1.1490556,-0.01647774,0.01623538,1.1321542,-164.24442,-73.710011)"
   cx="200.13557"
   cy="130.6666"
   fx="200.13557"
   fy="130.6666"
   r="55.989567" />&#10;        <radialGradient
   xlink:href="#linearGradient3778"
   id="radialGradient513"
   gradientUnits="userSpaceOnUse"
   gradientTransform="matrix(1.1490556,-0.01647774,0.01623538,1.1321542,-164.24442,-73.710011)"
   cx="200.13557"
   cy="130.6666"
   fx="200.13557"
   fy="130.6666"
   r="55.989567" />&#10;        <radialGradient
   xlink:href="#linearGradient3778"
   id="radialGradient515"
   gradientUnits="userSpaceOnUse"
   gradientTransform="matrix(1.1490556,-0.01647774,0.01623538,1.1321542,-164.24442,-73.710011)"
   cx="200.13557"
   cy="130.6666"
   fx="200.13557"
   fy="130.6666"
   r="55.989567" />&#10;        <radialGradient
   xlink:href="#linearGradient3778"
   id="radialGradient517"
   gradientUnits="userSpaceOnUse"
   gradientTransform="matrix(1.1490556,-0.01647774,0.01623538,1.1321542,-164.24442,-73.710011)"
   cx="200.13557"
   cy="130.6666"
   fx="200.13557"
   fy="130.6666"
   r="55.989567" />&#10;        <radialGradient
   xlink:href="#linearGradient3778"
   id="radialGradient519"
   gradientUnits="userSpaceOnUse"
   gradientTransform="matrix(1.1490556,-0.01647774,0.01623538,1.1321542,-164.24442,-73.710011)"
   cx="200.13557"
   cy="130.6666"
   fx="200.13557"
   fy="130.6666"
   r="55.989567" />&#10;        <radialGradient
   xlink:href="#linearGradient3778"
   id="radialGradient521"
   gradientUnits="userSpaceOnUse"
   gradientTransform="matrix(1.1490556,-0.01647774,0.01623538,1.1321542,-164.24442,-73.710011)"
   cx="200.13557"
   cy="130.6666"
   fx="200.13557"
   fy="130.6666"
   r="55.989567" />&#10;        <radialGradient
   xlink:href="#linearGradient3778"
   id="radialGradient523"
   gradientUnits="userSpaceOnUse"
   gradientTransform="matrix(1.1490556,-0.01647774,0.01623538,1.1321542,-164.24442,-73.710011)"
   cx="200.13557"
   cy="130.6666"
   fx="200.13557"
   fy="130.6666"
   r="55.989567" />&#10;        <radialGradient
   xlink:href="#linearGradient3778"
   id="radialGradient525"
   gradientUnits="userSpaceOnUse"
   gradientTransform="matrix(1.1490556,-0.01647774,0.01623538,1.1321542,-164.24442,-73.710011)"
   cx="200.13557"
   cy="130.6666"
   fx="200.13557"
   fy="130.6666"
   r="55.989567" />&#10;        <radialGradient
   xlink:href="#linearGradient11233"
   id="radialGradient527"
   gradientUnits="userSpaceOnUse"
   gradientTransform="matrix(1,0,0,0.96562361,-132.29167,-54.711872)"
   cx="218.8143"
   cy="140.19473"
   fx="218.8143"
   fy="140.19473"
   r="17.991117" />&#10;        <radialGradient
   xlink:href="#linearGradient11233"
   id="radialGradient529"
   gradientUnits="userSpaceOnUse"
   gradientTransform="matrix(1,0,0,0.96562361,-132.29167,-54.711872)"
   cx="218.8143"
   cy="140.19473"
   fx="218.8143"
   fy="140.19473"
   r="17.991117" />&#10;        <radialGradient
   xlink:href="#linearGradient11233"
   id="radialGradient531"
   gradientUnits="userSpaceOnUse"
   gradientTransform="matrix(1,0,0,0.96562361,-132.29167,-54.711872)"
   cx="218.8143"
   cy="140.19473"
   fx="218.8143"
   fy="140.19473"
   r="17.991117" />&#10;        <radialGradient
   xlink:href="#linearGradient11233"
   id="radialGradient533"
   gradientUnits="userSpaceOnUse"
   gradientTransform="matrix(1,0,0,0.96562361,-132.29167,-54.711872)"
   cx="218.8143"
   cy="140.19473"
   fx="218.8143"
   fy="140.19473"
   r="17.991117" />&#10;        <radialGradient
   xlink:href="#linearGradient11233"
   id="radialGradient535"
   gradientUnits="userSpaceOnUse"
   gradientTransform="matrix(1,0,0,0.96562361,-132.29167,-54.711872)"
   cx="218.8143"
   cy="140.19473"
   fx="218.8143"
   fy="140.19473"
   r="17.991117" />&#10;        <radialGradient
   xlink:href="#linearGradient11233"
   id="radialGradient537"
   gradientUnits="userSpaceOnUse"
   gradientTransform="matrix(1,0,0,1.0085633,-132.29167,-60.419312)"
   cx="233.50929"
   cy="103.70376"
   fx="233.50929"
   fy="103.70376"
   r="15.033118" />&#10;        <radialGradient
   xlink:href="#linearGradient11233"
   id="radialGradient539"
   gradientUnits="userSpaceOnUse"
   gradientTransform="matrix(1,0,0,1.0085633,-132.29167,-60.419312)"
   cx="233.50929"
   cy="103.70376"
   fx="233.50929"
   fy="103.70376"
   r="15.033118" />&#10;        <radialGradient
   xlink:href="#linearGradient11233"
   id="radialGradient541"
   gradientUnits="userSpaceOnUse"
   gradientTransform="matrix(1,0,0,1.0085633,-132.29167,-60.419312)"
   cx="233.50929"
   cy="103.70376"
   fx="233.50929"
   fy="103.70376"
   r="15.033118" />&#10;        <radialGradient
   xlink:href="#linearGradient11233"
   id="radialGradient543"
   gradientUnits="userSpaceOnUse"
   gradientTransform="matrix(1,0,0,1.0085633,-132.29167,-60.419312)"
   cx="233.50929"
   cy="103.70376"
   fx="233.50929"
   fy="103.70376"
   r="15.033118" />&#10;        <radialGradient
   xlink:href="#linearGradient11233"
   id="radialGradient545"
   gradientUnits="userSpaceOnUse"
   gradientTransform="matrix(1,0,0,1.0085633,-132.29167,-60.419312)"
   cx="233.50929"
   cy="103.70376"
   fx="233.50929"
   fy="103.70376"
   r="15.033118" />&#10;        <radialGradient
   xlink:href="#linearGradient11233"
   id="radialGradient547"
   gradientUnits="userSpaceOnUse"
   gradientTransform="matrix(1,0,0,1.0293658,-132.29167,-63.258679)"
   cx="188.42654"
   cy="126.93045"
   fx="188.42654"
   fy="126.93045"
   r="11.709027" />&#10;        <radialGradient
   xlink:href="#linearGradient11233"
   id="radialGradient549"
   gradientUnits="userSpaceOnUse"
   gradientTransform="matrix(1,0,0,1.0293658,-132.29167,-63.258679)"
   cx="188.42654"
   cy="126.93045"
   fx="188.42654"
   fy="126.93045"
   r="11.709027" />&#10;        <radialGradient
   xlink:href="#linearGradient11233"
   id="radialGradient551"
   gradientUnits="userSpaceOnUse"
   gradientTransform="matrix(1,0,0,1.0293658,-132.29167,-63.258679)"
   cx="188.42654"
   cy="126.93045"
   fx="188.42654"
   fy="126.93045"
   r="11.709027" />&#10;        <radialGradient
   xlink:href="#linearGradient11233"
   id="radialGradient553"
   gradientUnits="userSpaceOnUse"
   gradientTransform="matrix(1,0,0,1.0293658,-132.29167,-63.258679)"
   cx="188.42654"
   cy="126.93045"
   fx="188.42654"
   fy="126.93045"
   r="11.709027" />&#10;        <radialGradient
   xlink:href="#linearGradient11233"
   id="radialGradient555"
   gradientUnits="userSpaceOnUse"
   gradientTransform="matrix(1,0,0,1.0293658,-132.29167,-63.258679)"
   cx="188.42654"
   cy="126.93045"
   fx="188.42654"
   fy="126.93045"
   r="11.709027" /><linearGradient
   xlink:href="#linearGradient2"
   id="linearGradient3"
   x1="198.67499"
   y1="58.440071"
   x2="199.41435"
   y2="191.41772"
   gradientUnits="userSpaceOnUse"
   gradientTransform="translate(-132.29167,-58.27285)" /><linearGradient
   id="linearGradient2"><stop
     style="stop-color:#cce6f5;stop-opacity:1;"
     offset="0"
     id="stop2" /><stop
     style="stop-color:#8cc0d5;stop-opacity:1;"
     offset="0.2587142"
     id="stop1" /><stop
     style="stop-color:#f3846f;stop-opacity:1;"
     offset="0.67499316"
     id="stop4" /><stop
     style="stop-color:#fda86c;stop-opacity:1;"
     offset="0.98349178"
     id="stop5" /></linearGradient><linearGradient
   xlink:href="#linearGradient8972"
   id="linearGradient8974"
   x1="198.45442"
   y1="118.63676"
   x2="197.03894"
   y2="215.07739"
   gradientUnits="userSpaceOnUse"
   gradientTransform="translate(-132.29167,-59.860351)" /><linearGradient
   id="linearGradient8972"><stop
     style="stop-color:#001c43;stop-opacity:1;"
     offset="0"
     id="stop8968" /><stop
     style="stop-color:#fdb1a3;stop-opacity:1;"
     offset="1"
     id="stop8970" /></linearGradient><linearGradient
   xlink:href="#linearGradient1510"
   id="linearGradient1512"
   x1="196.12979"
   y1="104.29166"
   x2="235.20459"
   y2="173.68889"
   gradientUnits="userSpaceOnUse"
   gradientTransform="translate(-132.29167,-59.860351)" /><linearGradient
   id="linearGradient1510"><stop
     style="stop-color:#effdff;stop-opacity:1;"
     offset="0"
     id="stop1506" /><stop
     style="stop-color:#fdb5aa;stop-opacity:1;"
     offset="1"
     id="stop1508" /></linearGradient><linearGradient
   xlink:href="#linearGradient11533"
   id="linearGradient21205"
   x1="174.20064"
   y1="148.90096"
   x2="174.27734"
   y2="163.58533"
   gradientUnits="userSpaceOnUse"
   gradientTransform="translate(-132.29167,-58.27285)" /><linearGradient
   id="linearGradient11533"><stop
     style="stop-color:#052b59;stop-opacity:1;"
     offset="0"
     id="stop11529" /><stop
     style="stop-color:#d99ea2;stop-opacity:1;"
     offset="1"
     id="stop11531" /></linearGradient><linearGradient
   xlink:href="#linearGradient11533"
   id="linearGradient11535"
   x1="190.52763"
   y1="142.55429"
   x2="190.08754"
   y2="161.47202"
   gradientUnits="userSpaceOnUse"
   gradientTransform="translate(-132.29167,-58.27285)" /><linearGradient
   xlink:href="#linearGradient11533"
   id="linearGradient21221"
   x1="65.423836"
   y1="158.13153"
   x2="64.75946"
   y2="168.45029"
   gradientUnits="userSpaceOnUse" /><linearGradient
   xlink:href="#linearGradient11533"
   id="linearGradient21229"
   x1="115.70296"
   y1="152.64322"
   x2="115.87896"
   y2="168.65051"
   gradientUnits="userSpaceOnUse" /><linearGradient
   xlink:href="#linearGradient11533"
   id="linearGradient21213"
   x1="201.75922"
   y1="153.63065"
   x2="200.79555"
   y2="170.43169"
   gradientUnits="userSpaceOnUse"
   gradientTransform="translate(-132.29167,-58.27285)" /><linearGradient
   xlink:href="#linearGradient11533"
   id="linearGradient21237"
   x1="203.10797"
   y1="149.65385"
   x2="201.43991"
   y2="193.57469"
   gradientUnits="userSpaceOnUse"
   gradientTransform="translate(-132.29167,-58.27285)" /><linearGradient
   xlink:href="#linearGradient21243"
   id="linearGradient21245"
   x1="200.08911"
   y1="168.61699"
   x2="200.09705"
   y2="189.78365"
   gradientUnits="userSpaceOnUse"
   gradientTransform="translate(-132.29167,-58.27285)" /><linearGradient
   id="linearGradient21243"><stop
     style="stop-color:#04214b;stop-opacity:1;"
     offset="0"
     id="stop21239" /><stop
     style="stop-color:#031c44;stop-opacity:1;"
     offset="1"
     id="stop21241" /></linearGradient></defs>&#10;    &#10;    &#10;    &#10;    &#10;    &#10;    &#10;    &#10;    &#10;    &#10;    &#10;    &#10;    &#10;    &#10;    &#10;    &#10;    &#10;    &#10;    &#10;    &#10;    &#10;    &#10;    &#10;    &#10;    &#10;    &#10;    &#10;    &#10;    &#10;    &#10;    &#10;    &#10;    &#10;    &#10;    &#10;    &#10;    &#10;    &#10;    &#10;    &#10;    &#10;    &#10;    &#10;    &#10;    &#10;    &#10;    &#10;    &#10;    &#10;    &#10;    &#10;    &#10;    &#10;    &#10;    &#10;    &#10;    &#10;    &#10;    &#10;    &#10;    &#10;    &#10;    &#10;    &#10;    &#10;    &#10;    &#10;    &#10;    &#10;    <circle
   style="display:inline;fill:url(#linearGradient3);fill-opacity:1;stroke-width:0.339084"
   id="path517"
   cx="66.145836"
   cy="66.145767"
   r="66.145836" /><path
   id="path1402"
   style="fill:url(#linearGradient8974);fill-opacity:1;stroke-width:0.264583"
   d="m 66.60782,38.979089 c -4.04105,-0.18882 -16.16469,19.8947 -16.39332,19.9223 -1.15079,0.13873 -3.34965,1.62943 -3.90622,2.0221 -2.06782,1.45887 -6.87688,11.11107 -7.13445,11.25771 -1.64227,0.935 -3.16733,-2.09022 -4.2602,-1.81642 -1.69371,0.42433 -4.49673,4.64153 -5.85081,6.36808 -9.34128,11.91081 -6.39342,4.80345 -9.98492,6.61045 -3.56299,1.79266 -6.5404,9.8036 -10.17147,14.05651 a 66.145836,66.145836 0 0 0 0.51005,0.93431 l 117.07915,-6.7846 a 66.145836,66.145836 0 0 0 0.008,-0.0212 c -0.0741,-0.0591 -12.19762,-9.73316 -17.52503,-12.37754 -1.52631,-0.75761 -2.84575,0.57235 -3.58118,-0.36483 -3.75417,-4.78405 -7.14143,-8.62308 -10.01644,-11.81065 -2.09714,-2.32514 -5.32594,2.62965 -6.22805,1.47794 -1.0515,-1.34242 -5.6469,-9.50318 -6.63473,-12.06593 -1.19511,-3.10046 -3.95824,-1.35051 -5.31286,-4.02094 -3.0701,-6.05227 -8.80673,-13.30362 -10.59728,-13.38729 z" /><path
   style="display:inline;fill:url(#linearGradient1512);fill-opacity:1;stroke-width:0.264583"
   d="m 54.91628,106.20539 c 0.15511,-0.17264 4.74739,-2.54115 3.84717,-3.95822 -2.21412,-3.485301 -7.75407,-8.397221 -8.3246,-6.584701 -0.98846,3.1403 -8.93017,-10.6902 -9.10864,-11.6235 -0.40808,-2.13402 20.46774,15.339387 24.6931,11.32467 2.61915,-2.48859 -9.44904,-16.20811 -7.4958,-17.87067 0.92923,-0.79094 19.31974,12.27561 19.54931,12.25162 0.60268,-0.063 -11.12593,-11.62865 -8.80511,-13.09947 0.92453,-0.58592 -1.96075,-0.75277 -4.08842,-3.16585 -0.46389,-0.52612 -2.12896,-9.02428 -1.77167,-9.27274 0.94202,-0.65509 11.02088,8.09498 11.28262,7.9821 1.35346,-0.58368 -8.02467,-11.20743 -6.17026,-12.92533 1.67237,-1.54926 -2.14985,-2.63694 -4.01743,-4.43875 -1.21318,-1.17045 -0.79048,-3.31813 -0.26554,-3.78566 0.8712,-0.77592 1.58494,0.8221 1.73882,0.67641 0.64006,-0.606 0.36114,-2.52627 0.25826,-4.48949 -0.15193,-2.89915 -0.2401,-5.86733 0.97325,-4.63435 5.082,5.16421 3.40053,8.88583 6.79775,10.96768 6.26473,3.8391 6.74627,3.87591 8.42234,8.08893 1.61315,4.05489 4.34432,8.12815 5.54992,9.23271 2.0863,1.91147 6.55868,6.41831 8.02131,6.18323 1.56294,-0.25121 -4.21117,-8.01744 -2.91223,-8.23202 2.10244,-0.34732 8.94839,10.24913 10.744,12.50583 1.53895,1.93413 1.82856,-0.92233 3.69017,0.19192 5.83066,3.48987 9.85424,7.25673 11.33687,8.73917 0.41572,0.41566 -6.61802,21.137931 -6.61802,21.137931"
   id="path1404"/><path
   style="display:inline;fill:url(#linearGradient21205);fill-opacity:1;stroke-width:0.264583"
   d="m 19.2871,102.8119 c 5.06294,-3.92439 21.22987,-18.65968 22.34329,-17.30077 5.57204,6.80052 7.68555,14.05746 9.05727,9.78758 0.38234,-1.19017 12.33239,9.5304 12.33239,9.5304"
   id="path1406"/><path
   style="display:inline;fill:url(#linearGradient11535);fill-opacity:1;stroke-width:0.264583"
   d="m 49.97322,90.77138 c -1.70136,-0.54224 7.77038,-13.06212 8.88381,-11.70321 3.98089,4.33012 10.63368,22.96592 11.24195,24.81709"
   id="path1408"/><g
   id="g1414"
   style="display:inline;fill:#916f6f"
   transform="translate(-22.39987,-58.27285)"><path
     style="display:inline;fill:url(#linearGradient21221);fill-opacity:1;stroke-width:0.264583"
     d="m 49.945709,160.84879 c 5.421379,0.93993 11.830284,-4.40427 15.694792,-3.52644 11.078555,2.51651 27.958546,19.17871 27.958546,19.17871"
     id="path1410"/><path
     style="display:inline;fill:url(#linearGradient21229);fill-opacity:1;stroke-width:0.264583"
     d="m 86.598784,175.24258 c 4.159602,-4.73248 25.236686,-23.38226 28.984386,-23.50166 3.70645,-0.11808 12.46662,8.24266 12.46662,8.24266"
     id="path1412"/></g><path
   style="display:inline;fill:url(#linearGradient21213);fill-opacity:1;stroke-width:0.264583"
   d="m 40.89255,109.85808 c 1.87511,-1.02723 25.0658,-16.71397 26.84824,-17.28762 6.24909,-2.0112 13.0274,9.36549 20.2922,9.76893 22.83224,1.26797 18.98847,7.68555 18.98847,7.68555"
   id="path1416"/><path
   id="path1418"
   style="display:inline;fill:url(#linearGradient21237);fill-opacity:1;stroke-width:0.264583"
   d="m 4.13308,84.7148 c -0.46926,0.0151 -0.941,0.0708 -1.4149,0.17054 A 66.145836,66.145836 0 0 0 14.72261,107.547 c 7.73377,7.7249 17.54468,15.30987 25.63151,19.39623 a 66.145836,66.145836 0 0 0 13.3103,4.00751 c 3.07287,0.35297 5.46311,0.3496 7.30447,0.90847 l 0.008,5.2e-4 c 0.69198,0.0992 9.97462,0.22189 18.26451,-1.04231 a 66.145836,66.145836 0 0 0 50.24217,-45.69127 c -0.60648,-0.0822 -1.30978,-0.0816 -1.79369,0.0506 -0.73293,0.20028 -2.421,-0.39971 -7.06004,5.31182 -1.4782,1.81994 -3.19205,1.73497 -9.91929,3.95635 -4.00768,1.32336 -11.97201,7.68975 -12.24473,7.86154 -1.17024,0.63531 -8.29052,4.53763 -11.39,7.24968 -0.96269,-0.72019 -2.02317,-0.76767 -4.13102,-0.69246 -7.82518,-2.74804 -10.37834,-8.46262 -18.5694,-3.17035 C 51.55142,117.2411 24.28963,96.08796 20.5419,94.47696 17.66695,93.33843 11.21313,84.48678 4.13308,84.71476 Z" /><path
   id="path1420"
   style="display:inline;fill:url(#linearGradient21245);fill-opacity:1;stroke-width:0.264583"
   d="m 55.34029,102.27032 c -0.57054,-0.0194 -1.15133,0.004 -1.74201,0.078 -5.56959,0.69551 -16.42281,7.39925 -19.38332,8.22431 -3.33227,0.92868 -13.62686,-8.67361 -23.24664,-8.14627 -0.0162,0.016 -0.0265,0.033 -0.0424,0.0491 a 66.145836,66.145836 0 0 0 55.21989,29.81627 66.145836,66.145836 0 0 0 55.33409,-29.96923 c 6.8e-4,-0.001 0.001,-0.002 0.002,-0.003 -1.1548,0.0217 -3.03064,0.30717 -3.69177,0.48783 -1.23638,0.33784 -6.2123,1.97567 -7.46156,2.76262 -2.31938,1.46105 -7.21888,4.39926 -9.53688,4.70101 -1.01705,0.13239 -5.02538,-2.79115 -5.81825,-3.38429 -0.96269,-0.72019 -4.46231,-1.85809 -6.57014,-1.78284 -2.00375,0.0715 -3.62424,-0.28044 -13.88133,5.1909 -4.32361,2.3063 -10.62368,-7.73285 -19.18177,-8.02432 z" /></svg>
