<?xml version="1.0" encoding="UTF-8"?>
<!DOCTYPE svg PUBLIC "-//W3C//DTD SVG 1.1//EN" "http://www.w3.org/Graphics/SVG/1.1/DTD/svg11.dtd">
<!-- Creator: CorelDRAW 2026 -->
<svg xmlns="http://www.w3.org/2000/svg" xml:space="preserve" width="500px" height="500px" version="1.1" style="shape-rendering:geometricPrecision; text-rendering:geometricPrecision; image-rendering:optimizeQuality; fill-rule:evenodd; clip-rule:evenodd"
viewBox="0 0 500 500"
 xmlns:xlink="http://www.w3.org/1999/xlink"
 xmlns:xodm="http://www.corel.com/coreldraw/odm/2003">
 <defs>
  <style type="text/css">
   <![CDATA[
    .fil23 {fill:#090C13}
    .fil31 {fill:#282827}
    .fil15 {fill:#2C2C2B}
    .fil22 {fill:#2F302E}
    .fil16 {fill:#343433}
    .fil28 {fill:#3C3A34}
    .fil32 {fill:#44423C}
    .fil33 {fill:#474747}
    .fil24 {fill:#4C443C}
    .fil19 {fill:#50504E}
    .fil27 {fill:#57534A}
    .fil20 {fill:#645C53}
    .fil17 {fill:#67635A}
    .fil29 {fill:#867C72}
    .fil26 {fill:#8C8273}
    .fil21 {fill:#958A7A}
    .fil18 {fill:#9C9383}
    .fil13 {fill:#A69988}
    .fil25 {fill:#AB9C8B}
    .fil30 {fill:#C6B9A8}
    .fil14 {fill:#C8BCB0}
    .fil2 {fill:url(#id0)}
    .fil9 {fill:url(#id1)}
    .fil3 {fill:url(#id2)}
    .fil10 {fill:url(#id3)}
    .fil11 {fill:url(#id4)}
    .fil12 {fill:url(#id5)}
    .fil6 {fill:url(#id6);fill-rule:nonzero}
    .fil7 {fill:url(#id7);fill-rule:nonzero}
    .fil4 {fill:url(#id8);fill-rule:nonzero}
    .fil5 {fill:url(#id9);fill-rule:nonzero}
    .fil1 {fill:url(#id10)}
    .fil8 {fill:url(#id11)}
    .fil0 {fill:url(#id12);fill-rule:nonzero}
   ]]>
  </style>
  <linearGradient id="id0" gradientUnits="userSpaceOnUse" x1="176.5" y1="282.5" x2="204.59" y2="205.45">
   <stop offset="0" style="stop-opacity:1; stop-color:#060709"/>
   <stop offset="0.0901961" style="stop-opacity:1; stop-color:#181C20"/>
   <stop offset="1" style="stop-opacity:1; stop-color:#2A3138"/>
  </linearGradient>
  <linearGradient id="id1" gradientUnits="userSpaceOnUse" x1="324.12" y1="249.11" x2="338.25" y2="204.83">
   <stop offset="0" style="stop-opacity:1; stop-color:#20262C"/>
   <stop offset="1" style="stop-opacity:1; stop-color:#4B535E"/>
  </linearGradient>
  <linearGradient id="id2" gradientUnits="userSpaceOnUse" xlink:href="#id1" x1="170.36" y1="250.79" x2="193.54" y2="194.59">
  </linearGradient>
  <radialGradient id="id3" gradientUnits="userSpaceOnUse" gradientTransform="matrix(0.0231446 0.36412 -2.14182 0.0102631 635 19)" cx="336.68" cy="143.01" r="628.1" fx="336.68" fy="143.01">
   <stop offset="0" style="stop-opacity:0.4; stop-color:#CFD2E3"/>
   <stop offset="0.54902" style="stop-opacity:0.2; stop-color:#CBCEDB"/>
   <stop offset="1" style="stop-opacity:0; stop-color:#C8CBD4"/>
  </radialGradient>
  <radialGradient id="id4" gradientUnits="userSpaceOnUse" gradientTransform="matrix(0.012821 0.614026 -1.56485 0.0230491 282 -139)" cx="256.49" cy="18.46" r="699.67" fx="256.49" fy="18.46">
   <stop offset="0" style="stop-opacity:0.498039; stop-color:#959AA6"/>
   <stop offset="0.839216" style="stop-opacity:0.25098; stop-color:#8D939F"/>
   <stop offset="1" style="stop-opacity:0; stop-color:#868C98"/>
  </radialGradient>
  <radialGradient id="id5" gradientUnits="userSpaceOnUse" gradientTransform="matrix(0.0166705 0.48185 -1.80462 -0.0443926 271 -115)" cx="259.15" cy="9" r="528.26" fx="259.15" fy="9">
   <stop offset="0" style="stop-opacity:0.698039; stop-color:#62697B"/>
   <stop offset="0.631373" style="stop-opacity:0.34902; stop-color:#858A98"/>
   <stop offset="1" style="stop-opacity:0; stop-color:#A7ABB4"/>
  </radialGradient>
  <radialGradient id="id6" gradientUnits="userSpaceOnUse" gradientTransform="matrix(1.27866 -2.22957 2.28538 1.22554 -1454 179)" cx="142.84" cy="618.93" r="452.72" fx="142.84" fy="618.93">
   <stop offset="0" style="stop-opacity:1; stop-color:#CDCDD7"/>
   <stop offset="0.858824" style="stop-opacity:0.501961; stop-color:#D8D8E0"/>
   <stop offset="1" style="stop-opacity:0; stop-color:#F8F2E1"/>
  </radialGradient>
  <radialGradient id="id7" gradientUnits="userSpaceOnUse" gradientTransform="matrix(1.63186 -1.32251 2.19258 1.07226 -1188 40)" cx="58.69" cy="524.78" r="614.62" fx="58.69" fy="524.78">
   <stop offset="0" style="stop-opacity:1; stop-color:#060709"/>
   <stop offset="0.619608" style="stop-opacity:1; stop-color:#2A3138"/>
   <stop offset="1" style="stop-opacity:1; stop-color:#7D838C"/>
  </radialGradient>
  <radialGradient id="id8" gradientUnits="userSpaceOnUse" gradientTransform="matrix(1.33627 -1.31295 1.80588 0.77953 -1013 208)" cx="66.48" cy="548.82" r="656.44" fx="66.48" fy="548.82">
   <stop offset="0" style="stop-opacity:1; stop-color:#D6D9E6"/>
   <stop offset="0.639216" style="stop-opacity:0.94902; stop-color:#78808F"/>
   <stop offset="1" style="stop-opacity:0.898039; stop-color:#8898AD"/>
  </radialGradient>
  <radialGradient id="id9" gradientUnits="userSpaceOnUse" gradientTransform="matrix(0.99443 -1.73402 1.62172 1.11366 -753 217)" cx="155.4" cy="464.85" r="532.15" fx="155.4" fy="464.85">
   <stop offset="0" style="stop-opacity:1; stop-color:white"/>
   <stop offset="0.741176" style="stop-opacity:0.501961; stop-color:#B9B9D4"/>
   <stop offset="1" style="stop-opacity:0; stop-color:#767A83"/>
  </radialGradient>
  <linearGradient id="id10" gradientUnits="userSpaceOnUse" x1="390.54" y1="260.2" x2="341.98" y2="394.85">
   <stop offset="0" style="stop-opacity:1; stop-color:#64758A"/>
   <stop offset="0.25098" style="stop-opacity:1; stop-color:#707D91"/>
   <stop offset="1" style="stop-opacity:1; stop-color:#7D8599"/>
  </linearGradient>
  <linearGradient id="id11" gradientUnits="userSpaceOnUse" x1="321.63" y1="276.11" x2="338.15" y2="213.9">
   <stop offset="0" style="stop-opacity:1; stop-color:#060709"/>
   <stop offset="0.121569" style="stop-opacity:1; stop-color:#181C20"/>
   <stop offset="1" style="stop-opacity:1; stop-color:#2A3138"/>
  </linearGradient>
  <radialGradient id="id12" gradientUnits="userSpaceOnUse" gradientTransform="matrix(-1.29831 1.766 -1.766 -1.29831 896 -451)" cx="340" cy="65" r="205" fx="340" fy="65">
   <stop offset="0" style="stop-opacity:1; stop-color:#EAEBEF"/>
   <stop offset="0.768627" style="stop-opacity:1; stop-color:#F5F5F7"/>
   <stop offset="1" style="stop-opacity:1; stop-color:white"/>
  </radialGradient>
 </defs>
 <g id="Layer_x0020_1">
  <metadata id="CorelCorpID_0Corel-Layer"/>
  <path id="path517" class="fil0" d="M382.43 461.94c117.06,-72.88 152.77,-227.12 79.51,-344.18 -72.88,-117.43 -227.12,-152.77 -344.18,-79.88 -117.43,73.25 -152.77,227.12 -79.88,344.55 73.25,117.06 227.12,152.77 344.55,79.51z"/>
  <path class="fil1" d="M0.44 264.86l499.12 0c-4.66,78.02 -45.79,152.66 -117.13,197.08 -117.43,73.26 -271.3,37.55 -344.55,-79.51 -22.85,-36.81 -35.06,-77.2 -37.44,-117.57z"/>
  <g id="_2161887905376">
   <polygon class="fil2" points="223.82,272.57 221.02,265.8 216.38,263.78 211.84,247.64 207.97,244.16 206.81,240.2 204.4,237.59 201.21,220.01 201.98,218.18 199.08,213.05 198.22,200.3 192.8,198.27 191.26,201.65 189.81,201.85 187.88,197.69 185.56,198.08 184.69,204.74 197.54,216.05 194.45,222.04 195.9,226.58 198.22,229.77 197.15,233.63 193.48,240.69 181.89,236.43 177.06,237.4 175.53,242.83 176.23,254.67 179.03,268.71 184.69,270.35 191.26,271.79 200.92,271.6 202.47,272.95 216.38,272.66 "/>
   <polygon class="fil3" points="193.48,240.69 197.15,233.63 198.22,229.77 195.9,226.58 194.45,222.04 197.54,216.05 184.69,204.74 182.08,203.39 179.67,206.58 177.73,208.61 177.83,210.54 175.9,210.74 176.57,212.86 175.42,216.73 174.55,217.88 177.06,237.4 181.89,236.43 "/>
  </g>
  <path id="path517_36721" class="fil4" d="M473.38 362.36c-12.69,0.19 -24.83,0.16 -35.38,-0.96 -14.74,-1.35 -48.26,-5.55 -63.04,-7.3 -15.19,-1.69 -27.64,-4.15 -36.75,-5.81 -7.18,-1.74 -29.92,-4.72 -30.08,-14.37 -2.4,-18.78 143.56,-51.35 -83,-50.7 -78.79,2.01 -108.98,-3.17 -189.28,13.04 6.26,48.96 102.49,61.43 136.06,102.45 38.83,47.4 90.26,78.38 145.46,92.01 22.39,-6.3 44.3,-15.83 65.06,-28.78 40.37,-25.14 71.06,-59.95 90.95,-99.58z"/>
  <path id="path517_36722" class="fil5" d="M117.95 289.91c9.36,38.45 27.09,75.83 53.96,108.8 36.99,45.09 73.38,77.34 107.83,99.5 35.36,-4.24 70.4,-16.13 102.69,-36.27 31.36,-19.52 56.87,-44.89 76.02,-73.81 -15.31,-6.25 -33.92,-11.04 -56.28,-13.68 -83.39,-25.4 -184.38,-17.44 -87.52,-62.9 4.77,-3.85 7.3,-6.19 7.39,-8.63 0.65,-9.29 -67.41,-11.02 -72.62,-10.9 -19.81,0.11 -43.55,1.12 -48.77,1.38 -3.24,0.01 -41.2,-4.75 -82.7,-3.49l0 0z"/>
  <path id="path517_36723" class="fil6" d="M121.72 303.59c3.77,13.68 9.13,27.15 15.29,40.52 22.23,9.29 45.41,22.91 64.54,45.95 27.84,34.07 88.76,69.11 155.75,85.64 8.53,-4.07 16.92,-8.64 25.13,-13.76 15.05,-9.36 28.74,-20.09 41.03,-31.89 -2.53,-5.04 -5.18,-10.69 -8.48,-15.91 -3.55,-5.61 -8.24,-10.68 -13.63,-14.84 -4.94,-3.82 -10.17,-6.79 -18.99,-9.3 -16.56,-4.72 -170.39,-28.42 -122,-58.83 6.25,-4.85 13.71,-9.85 18.47,-13.69 4.82,-3.45 6.9,-6.15 7.05,-8.19 0.09,-2.44 -1.71,-3.82 -4.7,-5.06 -2.99,-1.23 -6.32,-2.02 -18.52,-2.48 -12.19,-0.47 -33.3,-1 -52.66,-0.55 -19.75,0.5 -41.5,1.26 -48.77,1.38 -2.84,-0.04 -20.15,0.56 -39.51,1.01l0 0z"/>
  <path id="path517_36724" class="fil7" d="M400.84 449.3c-2.37,-3 -4.42,-6.35 -6.49,-9.87 -2.71,-5.31 -5.11,-11.48 -9.06,-17.04 -3.55,-5.62 -8.24,-10.68 -13.63,-14.84 -4.94,-3.82 -10.17,-6.79 -18.99,-9.31 -24.68,-7.03 -155.36,-30.48 -103.48,-72.12 4.77,-3.84 7.25,-6.59 7.39,-8.63 -0.25,-1.99 -2.1,-3.78 -5.09,-5.01 -2.99,-1.24 -6.27,-1.63 -18.52,-2.49 -12.19,-0.46 -32.85,-0.65 -52.66,-0.54 -19.36,0.45 -37.82,1.6 -48.37,1.33 -23.15,-0.22 -73.44,-0.57 -124.37,0.29 6.19,24.58 16.22,48.65 30.31,71.36 73.25,117.06 227.12,152.77 344.55,79.51 6.38,-3.97 12.51,-8.2 18.41,-12.64z"/>
  <g id="_2161887919360">
   <polygon class="fil8" points="320.09,271.44 318.51,265.54 323.63,255.9 324.61,242.33 326.48,234.85 325.79,225.21 322.94,219.51 325,210.86 328.15,204.66 332.77,206.73 335.92,214.89 339.16,222.26 339.85,233.67 338.67,239.97 338.57,246.65 339.56,250.59 352.54,271.54 "/>
   <polygon class="fil9" points="328.15,204.66 325,210.86 327.9,213.57 328.58,216.75 330.96,219.02 331.64,221.97 331.75,225.6 334.36,228.78 334.36,233.09 335.95,236.94 336.75,239.44 338.67,239.97 339.82,233.08 339.16,222.26 335.92,214.89 332.77,206.73 "/>
  </g>
  <path class="fil10" d="M309.07 184.56c-61.65,1.28 -200.59,9.05 -201.49,9.13 -8.03,-13.83 -16.06,-27.66 -24.09,-41.49 37.33,-1.54 74.66,-3.08 112,-4.61 24.2,1.21 72.13,-7.83 109.64,-9.62 46.63,-2.22 81.18,2.52 81.18,2.52 27.65,-0.59 63.46,-7.92 82.56,-10.95 6.57,11.87 12.06,24.08 16.52,36.49 -32.75,9.08 -88.77,16.71 -176.32,18.53z"/>
  <path class="fil11" d="M466.9 126.07c-57.27,9.11 -45.66,26.01 -127.31,14.75 -32.39,0 -91.63,5.04 -134.53,9.52 0,0 0.1,2.38 -36.19,-1.26 -26.76,0.53 -122.9,4.22 -149.66,4.76 19.25,-46.32 52.62,-87.31 98.55,-115.96 117.06,-72.89 271.3,-37.55 344.18,79.88 1.72,2.75 3.36,5.52 4.96,8.31z"/>
  <path class="fil12" d="M96.91 52.38c13.97,9.49 43.24,16.02 80,20.45 27.21,3.27 83.23,-1.19 115.47,0.1 25.36,1.02 106.33,7.8 129.17,8.54 4.76,0.15 9.21,0.27 13.37,0.37 -79.54,-88 -213.05,-108.78 -317.16,-43.96 -7.27,4.53 -14.22,9.38 -20.85,14.5z"/>
  <g id="_2161887923168">
   <g>
    <g>
     <g>
      <polygon class="fil13" points="175.4,328.13 176.26,287.42 168.42,288.01 165.92,326.79 "/>
      <polygon class="fil14" points="176.26,287.42 174.8,283.75 164.52,285.31 166.93,288.06 "/>
      <polygon class="fil15" points="164.52,285.31 160.73,325.34 165.92,326.79 168.42,288.01 "/>
     </g>
     <g>
      <polygon class="fil13" points="184.95,331.6 185.69,288.75 177.86,289.37 175.46,330.18 "/>
      <polygon class="fil14" points="185.69,288.75 184.22,284.89 173.95,286.53 176.36,289.42 "/>
      <polygon class="fil15" points="173.95,286.53 170.27,328.65 175.46,330.18 177.86,289.37 "/>
     </g>
     <g>
      <polygon class="fil13" points="194.28,330.9 195.64,299.52 187.79,299.99 184.81,329.89 "/>
      <polygon class="fil14" points="195.64,299.52 194.22,296.7 183.92,297.92 186.3,300.04 "/>
      <polygon class="fil15" points="183.92,297.92 179.64,328.78 184.81,329.89 187.79,299.99 "/>
     </g>
    </g>
    <g>
     <g>
      <polygon class="fil13" points="203.41,326.57 204.37,287.84 196.53,288.4 193.92,325.3 "/>
      <polygon class="fil14" points="204.37,287.84 202.91,284.35 192.63,285.84 195.04,288.45 "/>
      <polygon class="fil15" points="192.63,285.84 188.74,323.92 193.92,325.3 196.53,288.4 "/>
     </g>
     <g>
      <polygon class="fil13" points="212.95,329.87 213.8,289.1 205.96,289.7 203.46,328.53 "/>
      <polygon class="fil14" points="213.8,289.1 212.34,285.43 202.06,287 204.47,289.75 "/>
      <polygon class="fil15" points="202.06,287 198.27,327.07 203.46,328.53 205.96,289.7 "/>
     </g>
     <g>
      <polygon class="fil13" points="222.27,329.2 223.71,299.34 215.87,299.8 212.81,328.24 "/>
      <polygon class="fil14" points="223.71,299.34 222.31,296.66 212,297.83 214.38,299.84 "/>
      <polygon class="fil15" points="212,297.83 207.64,327.19 212.81,328.24 215.87,299.8 "/>
     </g>
    </g>
    <g>
     <g>
      <polygon class="fil13" points="181.75,330.05 182.96,295.91 175.12,296.42 172.28,328.95 "/>
      <polygon class="fil14" points="182.96,295.91 181.53,292.84 171.24,294.16 173.62,296.46 "/>
      <polygon class="fil15" points="171.24,294.16 167.1,327.73 172.28,328.95 175.12,296.42 "/>
     </g>
     <g>
      <polygon class="fil13" points="191.26,332.94 192.38,297.01 184.54,297.54 181.79,331.77 "/>
      <polygon class="fil14" points="192.38,297.01 190.94,293.78 180.65,295.17 183.05,297.59 "/>
      <polygon class="fil15" points="180.65,295.17 176.61,330.5 181.79,331.77 184.54,297.54 "/>
     </g>
     <g>
      <polygon class="fil13" points="200.6,332.34 202.23,306.02 194.38,306.43 191.14,331.51 "/>
      <polygon class="fil14" points="202.23,306.02 200.84,303.66 190.53,304.71 192.89,306.47 "/>
      <polygon class="fil15" points="190.53,304.71 185.98,330.59 191.14,331.51 194.38,306.43 "/>
     </g>
    </g>
   </g>
   <g>
    <g>
     <g>
      <polygon class="fil13" points="152.86,322.63 153.77,246.96 145.46,248.06 142.8,320.14 "/>
      <polygon class="fil14" points="153.77,246.96 152.22,240.15 141.31,243.05 143.87,248.16 "/>
      <polygon class="fil15" points="141.31,243.05 137.29,317.44 142.8,320.14 145.46,248.06 "/>
     </g>
     <g>
      <polygon class="fil13" points="163,329.07 163.79,249.45 155.47,250.6 152.93,326.44 "/>
      <polygon class="fil14" points="163.79,249.45 162.22,242.27 151.32,245.32 153.88,250.69 "/>
      <polygon class="fil15" points="151.32,245.32 147.42,323.59 152.93,326.44 155.47,250.6 "/>
     </g>
     <g>
      <polygon class="fil13" points="172.9,327.77 174.34,269.45 166.02,270.34 162.85,325.9 "/>
      <polygon class="fil14" points="174.34,269.45 172.84,264.21 161.91,266.49 164.43,270.42 "/>
      <polygon class="fil15" points="161.91,266.49 157.36,323.84 162.85,325.9 166.02,270.34 "/>
     </g>
    </g>
    <g>
     <g>
      <polygon class="fil13" points="182.59,319.74 183.61,247.75 175.29,248.8 172.53,317.38 "/>
      <polygon class="fil14" points="183.61,247.75 182.07,241.26 171.16,244.03 173.71,248.89 "/>
      <polygon class="fil15" points="171.16,244.03 167.02,314.81 172.53,317.38 175.29,248.8 "/>
     </g>
     <g>
      <polygon class="fil13" points="192.72,325.86 193.62,250.1 185.31,251.2 182.65,323.37 "/>
      <polygon class="fil14" points="193.62,250.1 192.07,243.28 181.16,246.18 183.72,251.3 "/>
      <polygon class="fil15" points="181.16,246.18 177.14,320.66 182.65,323.37 185.31,251.2 "/>
     </g>
     <g>
      <polygon class="fil13" points="202.62,324.62 204.15,269.13 195.82,269.97 192.57,322.84 "/>
      <polygon class="fil14" points="204.15,269.13 202.65,264.14 191.72,266.32 194.24,270.05 "/>
      <polygon class="fil15" points="191.72,266.32 187.09,320.89 192.57,322.84 195.82,269.97 "/>
     </g>
    </g>
    <g>
     <g>
      <polygon class="fil13" points="159.6,326.2 160.88,262.75 152.56,263.69 149.55,324.15 "/>
      <polygon class="fil14" points="160.88,262.75 159.37,257.04 148.44,259.5 150.97,263.78 "/>
      <polygon class="fil15" points="148.44,259.5 144.05,321.9 149.55,324.15 152.56,263.69 "/>
     </g>
     <g>
      <polygon class="fil13" points="169.7,331.58 170.89,264.8 162.57,265.79 159.65,329.4 "/>
      <polygon class="fil14" points="170.89,264.8 169.36,258.79 158.44,261.37 160.98,265.88 "/>
      <polygon class="fil15" points="158.44,261.37 154.15,327.03 159.65,329.4 162.57,265.79 "/>
     </g>
     <g>
      <polygon class="fil13" points="179.61,330.45 181.34,281.54 173.01,282.31 169.57,328.92 "/>
      <polygon class="fil14" points="181.34,281.54 179.86,277.15 168.93,279.1 171.43,282.38 "/>
      <polygon class="fil15" points="168.93,279.1 164.09,327.21 169.57,328.92 173.01,282.31 "/>
     </g>
    </g>
   </g>
   <g>
    <g>
     <g>
      <g>
       <path class="fil13" d="M37.03 142.95l0.18 -24.25c-3.99,6.47 -7.67,13.1 -11.03,19.87l-0.03 0.95 10.88 3.43z"/>
       <path class="fil15" d="M25.81 139.31l0.34 0.21 0.03 -0.95c-0.13,0.24 -0.25,0.49 -0.37,0.74z"/>
      </g>
      <g>
       <path class="fil13" d="M48 151.79l0.28 -49.55c-3.68,5.02 -7.15,10.16 -10.42,15.41l-0.74 30.52 10.88 3.62z"/>
       <path class="fil15" d="M31.76 127.98l-0.61 16.28 5.97 3.91 0.74 -30.52c-2.12,3.4 -4.16,6.84 -6.1,10.33z"/>
      </g>
      <g>
       <path class="fil13" d="M58.69 150.03l1.08 -62.31c-3.44,4.04 -6.75,8.17 -9.91,12.38l-2.03 47.35 10.86 2.58z"/>
       <path class="fil15" d="M44.1 108.13l-2.2 36.49 5.93 2.83 2.03 -47.35c-1.98,2.64 -3.89,5.32 -5.76,8.03z"/>
      </g>
     </g>
     <g>
      <g>
       <path class="fil13" d="M69.13 139.06l0.57 -62.28c-3.46,3.6 -6.8,7.28 -10.02,11.05l-1.42 47.98 10.87 3.25z"/>
       <path class="fil15" d="M53.95 94.8l-1.65 37.48 5.96 3.53 1.42 -47.98c-1.95,2.29 -3.86,4.62 -5.73,6.97z"/>
      </g>
      <g>
       <path class="fil13" d="M80.09 147.46l0.6 -81.4c-3.31,3.04 -6.52,6.15 -9.63,9.33l-1.85 68.64 10.88 3.43z"/>
       <path class="fil15" d="M65.65 81.09l-2.4 59.22 5.96 3.72 1.85 -68.64c-1.84,1.88 -3.64,3.78 -5.41,5.7z"/>
      </g>
      <g>
       <polygon class="fil13" points="90.78,145.77 92.28,69.84 83.29,70.98 79.93,143.33 "/>
       <path class="fil14" d="M92.28 69.84l-1.63 -6.84 -9.14 2.3c-0.68,0.62 -1.35,1.25 -2.03,1.88l2.09 3.9 10.71 -1.24z"/>
       <path class="fil15" d="M78.72 67.89l-4.72 72.75 5.93 2.69 3.36 -72.35 -3.57 -4.02c-0.33,0.31 -0.67,0.61 -1,0.93z"/>
      </g>
     </g>
     <g>
      <g>
       <path class="fil13" d="M44.32 147.86l0.57 -40.88c-3.78,5.42 -7.32,10.98 -10.64,16.65l-0.8 21.39 10.87 2.84z"/>
       <path class="fil15" d="M27.87 135.23l-0.36 6.7 5.94 3.09 0.8 -21.39c-2.23,3.81 -4.36,7.68 -6.38,11.6z"/>
      </g>
      <g>
       <path class="fil13" d="M55.25 155.23l0.75 -62.98c-3.5,4.29 -6.84,8.69 -10.02,13.18l-1.6 46.8 10.87 3z"/>
       <path class="fil15" d="M40.16 114.03l-1.73 34.94 5.95 3.26 1.6 -46.8c-2.01,2.83 -3.94,5.7 -5.82,8.6z"/>
      </g>
      <g>
       <path class="fil13" d="M65.94 153.72l1.74 -66.94 -7.88 0.91c-0.4,0.47 -0.79,0.94 -1.19,1.42l-3.51 62.48 10.84 2.13z"/>
       <path class="fil14" d="M67.68 86.78l-1.61 -6.01 -0.15 0.03c-2.06,2.24 -4.08,4.5 -6.05,6.8l7.81 -0.82z"/>
       <path class="fil15" d="M53.32 95.6l-4.14 53.64 5.92 2.35 3.51 -62.48c-1.8,2.14 -3.57,4.3 -5.29,6.49z"/>
      </g>
     </g>
    </g>
    <g>
     <path class="fil13" d="M22.97 152.36l0.05 -7.19c-0.97,2.1 -1.9,4.2 -2.81,6.32l2.76 0.87z"/>
     <g>
      <path class="fil13" d="M33.66 150.68l0.53 -26.95c-4.11,7.04 -7.87,14.26 -11.25,21.63l-0.14 2.87 10.86 2.45z"/>
      <path class="fil15" d="M21.82 147.78l0.98 0.45 0.14 -2.87c-0.38,0.8 -0.76,1.61 -1.12,2.42z"/>
     </g>
    </g>
   </g>
   <g>
    <g>
     <g>
      <g>
       <polygon class="fil13" points="69.48,211.19 70.32,97.33 60.44,98.96 57.52,207.42 "/>
       <path class="fil14" d="M70.32 97.33l-1.86 -10.26 -11.33 3.8c-0.42,0.5 -0.83,1 -1.24,1.51l2.67 6.72 11.76 -1.77z"/>
       <path class="fil15" d="M55.44 92.94l-4.47 110.4 6.55 4.08 2.92 -108.46 -4.41 -6.75c-0.2,0.24 -0.39,0.49 -0.59,0.73z"/>
      </g>
      <g>
       <polygon class="fil13" points="81.54,220.91 82.22,101.09 72.35,102.8 69.57,216.93 "/>
       <polygon class="fil14" points="82.22,101.09 80.34,90.3 67.4,94.85 70.46,102.95 "/>
       <polygon class="fil15" points="67.4,94.85 63.02,212.62 69.57,216.93 72.35,102.8 "/>
      </g>
      <g>
       <polygon class="fil13" points="93.3,218.98 94.83,131.22 84.94,132.53 81.35,216.14 "/>
       <polygon class="fil14" points="94.83,131.22 93.02,123.32 80.05,126.74 83.05,132.65 "/>
       <polygon class="fil15" points="80.05,126.74 74.83,213.02 81.35,216.14 84.94,132.53 "/>
      </g>
     </g>
     <g>
      <g>
       <polygon class="fil13" points="104.78,206.91 105.76,98.58 95.89,100.14 92.82,203.34 "/>
       <polygon class="fil14" points="105.76,98.58 103.91,88.82 90.96,92.96 94,100.28 "/>
       <polygon class="fil15" points="90.96,92.96 86.28,199.46 92.82,203.34 95.89,100.14 "/>
      </g>
      <g>
       <polygon class="fil13" points="116.83,216.15 117.66,102.15 107.79,103.78 104.86,212.37 "/>
       <polygon class="fil14" points="117.66,102.15 115.8,91.87 102.85,96.22 105.9,103.92 "/>
       <polygon class="fil15" points="102.85,96.22 98.31,208.28 104.86,212.37 107.79,103.78 "/>
      </g>
      <g>
       <polygon class="fil13" points="128.58,214.3 130.23,130.8 120.34,132.05 116.65,211.6 "/>
       <polygon class="fil14" points="130.23,130.8 128.43,123.28 115.45,126.54 118.45,132.17 "/>
       <polygon class="fil15" points="115.45,126.54 110.13,208.65 116.65,211.6 120.34,132.05 "/>
      </g>
     </g>
     <g>
      <g>
       <polygon class="fil13" points="77.49,216.58 78.82,121.1 68.94,122.5 65.55,213.47 "/>
       <polygon class="fil14" points="78.82,121.1 77,112.5 64.03,116.19 67.05,122.63 "/>
       <polygon class="fil15" points="64.03,116.19 59.01,210.07 65.55,213.47 68.94,122.5 "/>
      </g>
      <g>
       <polygon class="fil13" points="89.51,224.69 90.7,124.21 80.83,125.68 77.56,221.4 "/>
       <polygon class="fil14" points="90.7,124.21 88.87,115.16 75.91,119.03 78.94,125.81 "/>
       <polygon class="fil15" points="75.91,119.03 71.02,217.81 77.56,221.4 80.83,125.68 "/>
      </g>
      <g>
       <polygon class="fil13" points="101.27,223.03 103.18,149.43 93.29,150.56 89.34,220.69 "/>
       <polygon class="fil14" points="103.18,149.43 101.41,142.81 88.42,145.72 91.4,150.67 "/>
       <polygon class="fil15" points="88.42,145.72 82.83,218.1 89.34,220.69 93.29,150.56 "/>
      </g>
     </g>
    </g>
    <g>
     <g>
      <path class="fil13" d="M6.67 216.58l0.18 -24.63c-1.83,7.69 -3.3,15.47 -4.4,23.3l4.22 1.33z"/>
      <g>
       <path class="fil13" d="M18.73 226.3l0.41 -72.3c-4.72,11.38 -8.58,23.08 -11.57,34.99l-0.81 33.33 11.97 3.98z"/>
       <path class="fil15" d="M1.94 219.15l4.82 3.17 0.81 -33.33c-2.49,9.92 -4.37,20 -5.63,30.16z"/>
      </g>
      <g>
       <path class="fil13" d="M30.48 224.37l1.53 -87.76 -5.21 0.69c-1.79,3.55 -3.49,7.14 -5.11,10.76l-3.15 73.46 11.94 2.85z"/>
       <path class="fil14" d="M32.01 136.61l-1.46 -6.43c-1.28,2.34 -2.53,4.69 -3.72,7.06l5.18 -0.63z"/>
       <path class="fil15" d="M15.32 163.81l-3.3 54.6 6.52 3.11 3.15 -73.46c-2.3,5.18 -4.42,10.44 -6.37,15.75z"/>
      </g>
     </g>
     <g>
      <g>
       <path class="fil13" d="M41.97 212.3l0.93 -102.42c-3.72,5.5 -7.21,11.11 -10.45,16.85l-2.44 82 11.96 3.57z"/>
       <path class="fil15" d="M26.4 138.12l-2.94 66.73 6.55 3.88 2.44 -82c-2.12,3.75 -4.13,7.55 -6.05,11.39z"/>
      </g>
      <g>
       <polygon class="fil13" points="54.02,221.54 54.85,107.53 44.98,109.17 42.05,217.76 "/>
       <path class="fil14" d="M54.85 107.53l-1.86 -10.27 -1.3 0.44c-2.91,3.78 -5.7,7.65 -8.37,11.57l11.53 -1.74z"/>
       <path class="fil15" d="M39.49 115.06l-3.99 98.61 6.55 4.09 2.93 -108.59 -0.78 -1.19c-1.61,2.34 -3.18,4.7 -4.71,7.08z"/>
      </g>
      <g>
       <polygon class="fil13" points="65.77,219.68 67.41,136.19 57.53,137.44 53.84,216.99 "/>
       <polygon class="fil14" points="67.41,136.19 65.62,128.67 52.64,131.93 55.64,137.56 "/>
       <polygon class="fil15" points="52.64,131.93 47.32,214.04 53.84,216.99 57.53,137.44 "/>
      </g>
     </g>
     <g>
      <g>
       <path class="fil13" d="M14.68 221.97l0.81 -58.63c-5.73,15.56 -9.92,31.65 -12.48,48.02l-0.28 7.5 11.95 3.11z"/>
       <path class="fil15" d="M2.02 218.48l0.71 0.38 0.28 -7.5c-0.37,2.37 -0.69,4.74 -0.99,7.12z"/>
      </g>
      <g>
       <path class="fil13" d="M26.7 230.08l1.13 -94.76c-4.01,7.78 -7.62,15.74 -10.78,23.87l-2.3 67.6 11.95 3.29z"/>
       <path class="fil15" d="M10.41 178.64l-2.2 44.56 6.54 3.59 2.3 -67.6c-2.48,6.39 -4.69,12.88 -6.64,19.45z"/>
      </g>
      <g>
       <polygon class="fil13" points="38.46,228.42 40.36,154.82 30.48,155.95 26.53,226.08 "/>
       <polygon class="fil14" points="40.36,154.82 38.6,148.2 25.61,151.11 28.59,156.06 "/>
       <polygon class="fil15" points="25.61,151.11 20.02,223.49 26.53,226.08 30.48,155.95 "/>
      </g>
     </g>
    </g>
    <path class="fil13" d="M3.44 243.21l0.48 -37.21c-2.14,11.98 -3.41,24.12 -3.79,36.33l3.31 0.88z"/>
   </g>
   <g>
    <g>
     <polygon class="fil13" points="103.54,244.98 104.82,147.59 94.94,149.02 91.59,241.79 "/>
     <polygon class="fil14" points="104.82,147.59 102.99,138.82 90.03,142.58 93.05,149.15 "/>
     <polygon class="fil15" points="90.03,142.58 85.06,238.32 91.59,241.79 94.94,149.02 "/>
    </g>
    <g>
     <polygon class="fil13" points="115.57,253.25 116.71,150.77 106.83,152.26 103.61,249.89 "/>
     <polygon class="fil14" points="116.71,150.77 114.87,141.54 101.91,145.48 104.94,152.39 "/>
     <polygon class="fil15" points="101.91,145.48 97.07,246.23 103.61,249.89 106.83,152.26 "/>
    </g>
    <g>
     <polygon class="fil13" points="127.32,251.56 129.19,176.5 119.3,177.65 115.4,249.17 "/>
     <polygon class="fil14" points="129.19,176.5 127.42,169.75 114.43,172.71 117.41,177.76 "/>
     <polygon class="fil15" points="114.43,172.71 108.88,246.53 115.4,249.17 119.3,177.65 "/>
    </g>
   </g>
   <g>
    <polygon class="fil13" points="138.85,241.2 140.25,148.54 130.37,149.91 126.91,238.19 "/>
    <polygon class="fil14" points="140.25,148.54 138.44,140.2 125.47,143.79 128.49,150.04 "/>
    <polygon class="fil15" points="125.47,143.79 120.38,234.89 126.91,238.19 130.37,149.91 "/>
   </g>
   <g>
    <polygon class="fil13" points="150.87,249.06 152.14,160.92 142.26,162.22 138.92,246.18 "/>
    <polygon class="fil14" points="152.14,160.92 150.31,152.99 137.35,156.38 140.37,162.33 "/>
    <polygon class="fil15" points="137.35,156.38 132.38,243.04 138.92,246.18 142.26,162.22 "/>
   </g>
   <g>
    <polygon class="fil13" points="162.63,247.44 164.59,182.65 154.7,183.65 150.7,245.39 "/>
    <polygon class="fil14" points="164.59,182.65 162.82,176.83 149.84,179.4 152.81,183.75 "/>
    <polygon class="fil15" points="149.84,179.4 144.19,243.12 150.7,245.39 154.7,183.65 "/>
   </g>
   <g>
    <g>
     <polygon class="fil13" points="111.53,249.57 113.22,167.89 103.34,169.13 99.6,246.94 "/>
     <polygon class="fil14" points="113.22,167.89 111.43,160.55 98.45,163.74 101.45,169.24 "/>
     <polygon class="fil15" points="98.45,163.74 93.08,244.05 99.6,246.94 103.34,169.13 "/>
    </g>
    <g>
     <polygon class="fil13" points="123.52,256.46 125.1,170.52 115.21,171.8 111.58,253.68 "/>
     <polygon class="fil14" points="125.1,170.52 123.3,162.78 110.32,166.13 113.33,171.92 "/>
     <polygon class="fil15" points="110.32,166.13 105.06,250.64 111.58,253.68 115.21,171.8 "/>
    </g>
    <g>
     <polygon class="fil13" points="135.29,255 137.47,192.05 127.58,193.05 123.37,253.04 "/>
     <polygon class="fil14" points="137.47,192.05 135.73,186.39 122.73,188.92 125.69,193.14 "/>
     <polygon class="fil15" points="122.73,188.92 116.87,250.85 123.37,253.04 127.58,193.05 "/>
    </g>
   </g>
   <g>
    <g>
     <g>
      <polygon class="fil13" points="40.72,249.8 41.99,152.41 32.11,153.84 28.77,246.61 "/>
      <polygon class="fil14" points="41.99,152.41 40.16,143.64 27.2,147.39 30.22,153.96 "/>
      <polygon class="fil15" points="27.2,147.39 22.23,243.14 28.77,246.61 32.11,153.84 "/>
     </g>
     <g>
      <polygon class="fil13" points="52.74,258.07 53.88,155.59 44,157.08 40.78,254.7 "/>
      <polygon class="fil14" points="53.88,155.59 52.04,146.36 39.08,150.29 42.11,157.21 "/>
      <polygon class="fil15" points="39.08,150.29 34.25,251.04 40.78,254.7 44,157.08 "/>
     </g>
     <g>
      <polygon class="fil13" points="64.5,256.38 66.36,181.32 56.47,182.47 52.57,253.99 "/>
      <polygon class="fil14" points="66.36,181.32 64.59,174.57 51.6,177.53 54.59,182.58 "/>
      <polygon class="fil15" points="51.6,177.53 46.06,251.34 52.57,253.99 56.47,182.47 "/>
     </g>
    </g>
    <g>
     <g>
      <polygon class="fil13" points="76.03,246.02 77.43,153.36 67.55,154.73 64.08,243 "/>
      <polygon class="fil14" points="77.43,153.36 75.61,145.02 62.64,148.6 65.66,154.85 "/>
      <polygon class="fil15" points="62.64,148.6 57.55,239.71 64.08,243 67.55,154.73 "/>
     </g>
     <g>
      <polygon class="fil13" points="88.04,253.88 89.31,156.37 79.43,157.8 76.09,250.69 "/>
      <polygon class="fil14" points="89.31,156.37 87.48,147.59 74.52,151.35 77.54,157.93 "/>
      <polygon class="fil15" points="74.52,151.35 69.56,247.21 76.09,250.69 79.43,157.8 "/>
     </g>
     <g>
      <polygon class="fil13" points="99.8,252.26 101.76,180.84 91.87,181.94 87.88,249.99 "/>
      <polygon class="fil14" points="101.76,180.84 100,174.42 87.01,177.25 89.99,182.05 "/>
      <polygon class="fil15" points="87.01,177.25 81.37,247.49 87.88,249.99 91.87,181.94 "/>
     </g>
    </g>
    <g>
     <g>
      <polygon class="fil13" points="48.71,254.38 50.4,172.71 40.51,173.94 36.77,251.75 "/>
      <polygon class="fil14" points="50.4,172.71 48.61,165.36 35.63,168.56 38.62,174.06 "/>
      <polygon class="fil15" points="35.63,168.56 30.25,248.87 36.77,251.75 40.51,173.94 "/>
     </g>
     <g>
      <polygon class="fil13" points="60.69,261.28 62.27,175.33 52.39,176.62 48.75,258.5 "/>
      <polygon class="fil14" points="62.27,175.33 60.47,167.6 47.5,170.95 50.5,176.73 "/>
      <polygon class="fil15" points="47.5,170.95 42.23,255.45 48.75,258.5 52.39,176.62 "/>
     </g>
     <g>
      <polygon class="fil13" points="72.46,259.82 74.64,196.86 64.75,197.86 60.54,257.85 "/>
      <polygon class="fil14" points="74.64,196.86 72.9,191.21 59.9,193.74 62.86,197.96 "/>
      <polygon class="fil15" points="59.9,193.74 54.04,255.66 60.54,257.85 64.75,197.86 "/>
     </g>
    </g>
   </g>
   <g>
    <path class="fil13" d="M2.1 277.29l1.16 -67.39c-3.59,22.1 -4.24,44.72 -1.79,67.23l0.63 0.16z"/>
    <g>
     <g>
      <path class="fil13" d="M13.58 265.16l0.88 -98.97c-5.13,14.47 -8.93,29.38 -11.34,44.53l-1.5 50.85 11.96 3.59z"/>
      <path class="fil15" d="M0.24 260.75l1.38 0.82 1.5 -50.85c-2.62,16.48 -3.59,33.24 -2.88,50.03z"/>
     </g>
     <g>
      <polygon class="fil13" points="25.63,274.44 26.45,159.92 16.58,161.56 13.66,270.65 "/>
      <path class="fil14" d="M26.45 159.92l-1.87 -10.32 -4.16 1.4c-1.48,3.46 -2.89,6.95 -4.22,10.47l10.25 -1.55z"/>
      <path class="fil15" d="M10.68 177.74l-3.57 88.8 6.55 4.11 2.92 -109.09 -0.27 -0.4c-2.07,5.46 -3.95,10.99 -5.63,16.58z"/>
     </g>
     <g>
      <polygon class="fil13" points="37.38,272.59 39.02,188.7 29.13,189.96 25.45,269.88 "/>
      <polygon class="fil14" points="39.02,188.7 37.22,181.16 24.24,184.43 27.24,190.08 "/>
      <polygon class="fil15" points="24.24,184.43 18.93,266.91 25.45,269.88 29.13,189.96 "/>
     </g>
    </g>
    <g>
     <path class="fil13" d="M10.07 281.36l1.9 -73.94 -8.46 0.97c-1.08,6.44 -1.92,12.92 -2.5,19.44l-0.92 16.45c-0.28,11.79 0.28,23.63 1.69,35.44l8.29 1.64z"/>
     <path class="fil14" d="M11.97 207.42l-1.77 -6.65 -5.53 1.24c-0.41,2.1 -0.79,4.2 -1.14,6.3l8.44 -0.89z"/>
     <path class="fil15" d="M0.09 244.28l0.92 -16.45c-0.49,5.47 -0.8,10.95 -0.92,16.45z"/>
    </g>
   </g>
   <path class="fil13" d="M9.06 257.67l1.92 -80.94c-7.81,25.53 -11.51,52.24 -10.9,79.09l8.98 1.85z"/>
   <g>
    <g>
     <g>
      <g>
       <g>
        <polygon class="fil13" points="111.65,327.56 113.87,273.95 104.53,274.83 100.4,325.91 "/>
        <polygon class="fil14" points="113.87,273.95 112.24,269.15 99.96,271.33 102.74,274.92 "/>
        <polygon class="fil15" points="99.96,271.33 94.27,324.06 100.4,325.91 104.53,274.83 "/>
       </g>
       <g>
        <polygon class="fil13" points="122.92,332 125.07,275.6 115.72,276.51 111.67,330.26 "/>
        <polygon class="fil14" points="125.07,275.6 123.43,270.54 111.15,272.82 113.94,276.59 "/>
        <polygon class="fil15" points="111.15,272.82 105.53,328.3 111.67,330.26 115.72,276.51 "/>
       </g>
       <g>
        <polygon class="fil13" points="134.04,330.97 136.59,289.64 127.24,290.37 122.8,329.76 "/>
        <polygon class="fil14" points="136.59,289.64 134.99,285.95 122.69,287.69 125.46,290.44 "/>
        <polygon class="fil15" points="122.69,287.69 116.68,328.36 122.8,329.76 127.24,290.37 "/>
       </g>
      </g>
      <g>
       <g>
        <polygon class="fil13" points="145.04,325.16 147.33,274.16 137.98,275 133.79,323.61 "/>
        <polygon class="fil14" points="147.33,274.16 145.7,269.59 133.42,271.68 136.2,275.09 "/>
        <polygon class="fil15" points="133.42,271.68 127.66,321.85 133.79,323.61 137.98,275 "/>
       </g>
       <g>
        <polygon class="fil13" points="156.3,329.38 158.52,275.71 149.17,276.59 145.05,327.73 "/>
        <polygon class="fil14" points="158.52,275.71 156.89,270.9 144.6,273.08 147.39,276.67 "/>
        <polygon class="fil15" points="144.6,273.08 138.92,325.88 145.05,327.73 149.17,276.59 "/>
       </g>
       <g>
        <polygon class="fil13" points="167.43,328.38 170.02,289.06 160.67,289.76 156.19,327.24 "/>
        <polygon class="fil14" points="170.02,289.06 168.43,285.55 156.13,287.22 158.89,289.83 "/>
        <polygon class="fil15" points="156.13,287.22 150.07,325.92 156.19,327.24 160.67,289.76 "/>
       </g>
      </g>
      <g>
       <g>
        <polygon class="fil13" points="119.15,330.01 121.6,285.05 112.25,285.82 107.91,328.67 "/>
        <polygon class="fil14" points="121.6,285.05 119.99,281.02 107.7,282.9 110.47,285.9 "/>
        <polygon class="fil15" points="107.7,282.9 101.78,327.14 107.91,328.67 112.25,285.82 "/>
       </g>
       <g>
        <polygon class="fil13" points="130.4,333.7 132.79,286.39 123.44,287.18 119.15,332.28 "/>
        <polygon class="fil14" points="132.79,286.39 131.17,282.15 118.88,284.11 121.66,287.27 "/>
        <polygon class="fil15" points="118.88,284.11 113.02,330.66 119.15,332.28 123.44,287.18 "/>
       </g>
       <g>
        <polygon class="fil13" points="141.53,332.79 144.25,298.12 134.89,298.76 130.29,331.81 "/>
        <polygon class="fil14" points="144.25,298.12 142.66,295.03 130.36,296.54 133.11,298.83 "/>
        <polygon class="fil15" points="130.36,296.54 124.18,330.67 130.29,331.81 134.89,298.76 "/>
       </g>
      </g>
     </g>
     <g>
      <g>
       <g>
        <polygon class="fil13" points="52.27,330.77 54.49,277.17 45.14,278.04 41.02,329.12 "/>
        <polygon class="fil14" points="54.49,277.17 52.86,272.36 40.57,274.54 43.36,278.13 "/>
        <polygon class="fil15" points="40.57,274.54 34.88,327.27 41.02,329.12 45.14,278.04 "/>
       </g>
       <g>
        <polygon class="fil13" points="63.54,335.22 65.68,278.81 56.34,279.72 52.29,333.47 "/>
        <polygon class="fil14" points="65.68,278.81 64.04,273.75 51.76,276.03 54.56,279.81 "/>
        <polygon class="fil15" points="51.76,276.03 46.15,331.52 52.29,333.47 56.34,279.72 "/>
       </g>
       <g>
        <polygon class="fil13" points="74.66,334.18 77.21,292.86 67.86,293.58 63.42,332.97 "/>
        <polygon class="fil14" points="77.21,292.86 75.6,289.16 63.31,290.9 66.07,293.65 "/>
        <polygon class="fil15" points="63.31,290.9 57.3,331.58 63.42,332.97 67.86,293.58 "/>
       </g>
      </g>
      <g>
       <g>
        <polygon class="fil13" points="85.66,328.38 87.95,277.37 78.6,278.21 74.41,326.82 "/>
        <polygon class="fil14" points="87.95,277.37 86.32,272.8 74.03,274.89 76.82,278.3 "/>
        <polygon class="fil15" points="74.03,274.89 68.28,325.07 74.41,326.82 78.6,278.21 "/>
       </g>
       <g>
        <polygon class="fil13" points="96.92,332.59 99.14,278.92 89.79,279.8 85.67,330.94 "/>
        <polygon class="fil14" points="99.14,278.92 97.51,274.11 85.22,276.29 88.01,279.89 "/>
        <polygon class="fil15" points="85.22,276.29 79.53,329.09 85.67,330.94 89.79,279.8 "/>
       </g>
       <g>
        <polygon class="fil13" points="108.04,331.6 110.64,292.28 101.29,292.97 96.81,330.46 "/>
        <polygon class="fil14" points="110.64,292.28 109.04,288.76 96.75,290.43 99.51,293.05 "/>
        <polygon class="fil15" points="96.75,290.43 90.68,329.14 96.81,330.46 101.29,292.97 "/>
       </g>
      </g>
      <g>
       <g>
        <polygon class="fil13" points="59.77,333.22 62.22,288.26 52.87,289.03 48.53,331.88 "/>
        <polygon class="fil14" points="62.22,288.26 60.6,284.24 48.31,286.11 51.09,289.11 "/>
        <polygon class="fil15" points="48.31,286.11 42.4,330.35 48.53,331.88 52.87,289.03 "/>
       </g>
       <g>
        <polygon class="fil13" points="71.02,336.91 73.4,289.6 64.05,290.4 59.77,335.49 "/>
        <polygon class="fil14" points="73.4,289.6 71.79,285.36 59.5,287.32 62.27,290.48 "/>
        <polygon class="fil15" points="59.5,287.32 53.64,333.87 59.77,335.49 64.05,290.4 "/>
       </g>
       <g>
        <polygon class="fil13" points="82.14,336 84.86,301.34 75.51,301.98 70.91,335.03 "/>
        <polygon class="fil14" points="84.86,301.34 83.28,298.24 70.98,299.75 73.73,302.05 "/>
        <polygon class="fil15" points="70.98,299.75 64.79,333.88 70.91,335.03 75.51,301.98 "/>
       </g>
      </g>
     </g>
     <g>
      <g>
       <g>
        <path class="fil13" d="M5.66 302.93l0.62 -21.76 -4.27 0.47c0.9,7.12 2.12,14.22 3.65,21.29z"/>
        <path class="fil14" d="M6.28 281.17l-1.67 -5.95 -3.26 0.7c0.19,1.9 0.41,3.79 0.66,5.69l4.27 -0.44z"/>
       </g>
       <g>
        <path class="fil13" d="M15.92 337.83l1.95 -40.11 -9.35 0.81 -1.1 11.95c2.29,9.2 5.12,18.33 8.5,27.35z"/>
        <polygon class="fil14" points="17.87,297.72 16.25,293.37 4.13,295.34 4.18,295.63 6.74,298.61 "/>
        <path class="fil15" d="M7.42 310.48l1.1 -11.95 -4.36 -3.02c0.92,5 2.02,9.99 3.26,14.97z"/>
       </g>
      </g>
      <g>
       <g>
        <path class="fil13" d="M26.48 339.47l2.06 -59.9 -9.35 0.95 -3.87 55.71c0.18,0.49 0.37,0.99 0.55,1.48l10.61 1.76z"/>
        <polygon class="fil14" points="28.54,279.57 26.89,274.19 14.61,276.6 17.41,280.62 "/>
        <path class="fil15" d="M14.61 276.6l-4.2 44.81c1.48,4.97 3.11,9.91 4.91,14.82l3.87 -55.71 -4.58 -3.92z"/>
       </g>
       <g>
        <polygon class="fil13" points="37.77,344.47 39.74,281.44 30.39,282.43 26.51,342.49 "/>
        <polygon class="fil14" points="39.74,281.44 38.08,275.78 25.81,278.29 28.61,282.52 "/>
        <polygon class="fil15" points="25.81,278.29 20.36,340.29 26.51,342.49 30.39,282.43 "/>
       </g>
       <g>
        <polygon class="fil13" points="48.89,343.34 51.3,297.17 41.95,297.95 37.64,341.96 "/>
        <polygon class="fil14" points="51.3,297.17 49.69,293.03 37.4,294.95 40.17,298.03 "/>
        <polygon class="fil15" points="37.4,294.95 31.51,340.38 37.64,341.96 41.95,297.95 "/>
       </g>
      </g>
      <g>
       <g>
        <path class="fil13" d="M12.69 328.66l1.36 -34.78 -9.35 0.9 -0.19 2.51c2.03,10.55 4.75,21.02 8.18,31.37z"/>
        <path class="fil14" d="M14.05 293.88l-1.64 -4.99 -9.11 1.67c0.24,1.4 0.47,2.8 0.73,4.21l10.02 -0.89z"/>
        <path class="fil15" d="M4.51 297.29l0.19 -2.51 -0.78 -0.63c0.19,1.05 0.39,2.1 0.59,3.14z"/>
       </g>
       <g>
        <path class="fil13" d="M23 348.41l2.56 -40.7 -9.35 0.71 -2.63 22.93c1.94,5.63 4.09,11.21 6.45,16.75l2.97 0.31z"/>
        <polygon class="fil14" points="25.56,307.71 23.96,304.07 11.67,305.79 14.43,308.5 "/>
        <path class="fil15" d="M11.67 305.79l-1.99 13.19c1.19,4.14 2.49,8.27 3.9,12.37l2.63 -22.93 -4.54 -2.63z"/>
       </g>
      </g>
     </g>
    </g>
    <g>
     <g>
      <path class="fil13" d="M3.34 290.74l0.38 -10.66 -1.88 0.18c0.43,3.5 0.92,6.99 1.5,10.48z"/>
      <path class="fil14" d="M3.72 280.08l-1.79 -5.69 -0.72 0.14c0.19,1.9 0.4,3.81 0.63,5.72l1.88 -0.17z"/>
     </g>
     <g>
      <path class="fil13" d="M14.15 332.95l2.21 -37.1 -10.24 0.8 -0.61 5.59c2.2,10.33 5.08,20.58 8.64,30.71z"/>
      <path class="fil14" d="M16.36 295.85l-1.76 -4.15 -10.83 1.57c0.2,1.15 0.41,2.3 0.63,3.45l11.96 -0.87z"/>
      <path class="fil15" d="M5.51 302.24l0.61 -5.59 -1.97 -1.18c0.42,2.26 0.87,4.51 1.36,6.77z"/>
     </g>
    </g>
   </g>
   <g>
    <g>
     <polygon class="fil13" points="111.6,308.32 112.68,203.55 102.8,205.07 99.64,304.88 "/>
     <polygon class="fil14" points="112.68,203.55 110.83,194.12 97.87,198.13 100.91,205.21 "/>
     <polygon class="fil15" points="97.87,198.13 93.1,301.13 99.64,304.88 102.8,205.07 "/>
    </g>
    <g>
     <polygon class="fil13" points="123.64,317.25 124.57,206.99 114.69,208.58 111.68,313.6 "/>
     <polygon class="fil14" points="124.57,206.99 122.71,197.06 109.76,201.27 112.81,208.72 "/>
     <polygon class="fil15" points="109.76,201.27 105.13,309.66 111.68,313.6 114.69,208.58 "/>
    </g>
    <g>
     <polygon class="fil13" points="135.39,315.45 137.11,234.69 127.22,235.92 123.46,312.85 "/>
     <polygon class="fil14" points="137.11,234.69 135.32,227.43 122.34,230.59 125.34,236.03 "/>
     <polygon class="fil15" points="122.34,230.59 116.94,310 123.46,312.85 127.22,235.92 "/>
    </g>
   </g>
   <g>
    <polygon class="fil13" points="146.9,304.32 148.12,204.64 138.24,206.09 134.95,301.06 "/>
    <polygon class="fil14" points="148.12,204.64 146.29,195.66 133.32,199.5 136.35,206.22 "/>
    <polygon class="fil15" points="133.32,199.5 128.42,297.5 134.95,301.06 138.24,206.09 "/>
   </g>
   <g>
    <polygon class="fil13" points="158.93,312.8 160.01,207.9 150.13,209.42 146.98,309.35 "/>
    <polygon class="fil14" points="160.01,207.9 158.16,198.45 145.21,202.47 148.24,209.55 "/>
    <polygon class="fil15" points="145.21,202.47 140.43,305.6 146.98,309.35 150.13,209.42 "/>
   </g>
   <g>
    <polygon class="fil13" points="176.22,311.07 178.26,225.1 167.13,226.41 162.78,308.33 "/>
    <polygon class="fil14" points="178.26,225.1 176.26,217.37 161.64,220.75 165,226.53 "/>
    <polygon class="fil15" points="161.64,220.75 155.45,305.3 162.78,308.33 167.13,226.41 "/>
   </g>
   <g>
    <g>
     <polygon class="fil13" points="119.6,313.27 121.12,225.41 111.24,226.72 107.66,310.43 "/>
     <polygon class="fil14" points="121.12,225.41 119.32,217.5 106.35,220.92 109.36,226.84 "/>
     <polygon class="fil15" points="106.35,220.92 101.13,307.31 107.66,310.43 111.24,226.72 "/>
    </g>
    <g>
     <polygon class="fil13" points="131.6,320.71 133,228.25 123.12,229.62 119.65,317.7 "/>
     <polygon class="fil14" points="133,228.25 131.19,219.93 118.22,223.51 121.24,229.74 "/>
     <polygon class="fil15" points="118.22,223.51 113.12,314.41 119.65,317.7 123.12,229.62 "/>
    </g>
    <g>
     <polygon class="fil13" points="143.36,319.16 145.42,251.43 135.53,252.49 131.44,317.03 "/>
     <polygon class="fil14" points="145.42,251.43 143.67,245.35 130.67,248.05 133.64,252.59 "/>
     <polygon class="fil15" points="130.67,248.05 124.93,314.66 131.44,317.03 135.53,252.49 "/>
    </g>
   </g>
   <g>
    <g>
     <g>
      <polygon class="fil13" points="48.78,313.4 49.86,208.63 39.98,210.15 36.82,309.95 "/>
      <polygon class="fil14" points="49.86,208.63 48.01,199.19 35.06,203.2 38.09,210.28 "/>
      <polygon class="fil15" points="35.06,203.2 30.28,306.2 36.82,309.95 39.98,210.15 "/>
     </g>
     <g>
      <polygon class="fil13" points="60.82,322.32 61.75,212.07 51.88,213.66 48.86,318.68 "/>
      <polygon class="fil14" points="61.75,212.07 59.9,202.14 46.94,206.35 49.99,213.79 "/>
      <polygon class="fil15" points="46.94,206.35 42.31,314.73 48.86,318.68 51.88,213.66 "/>
     </g>
     <g>
      <polygon class="fil13" points="72.57,320.52 74.29,239.77 64.4,240.99 60.64,317.93 "/>
      <polygon class="fil14" points="74.29,239.77 72.5,232.5 59.52,235.67 62.52,241.1 "/>
      <polygon class="fil15" points="59.52,235.67 54.12,315.07 60.64,317.93 64.4,240.99 "/>
     </g>
    </g>
    <g>
     <g>
      <polygon class="fil13" points="84.08,309.4 85.3,209.71 75.42,211.17 72.13,306.13 "/>
      <polygon class="fil14" points="85.3,209.71 83.47,200.73 70.5,204.57 73.53,211.29 "/>
      <polygon class="fil15" points="70.5,204.57 65.6,302.57 72.13,306.13 75.42,211.17 "/>
     </g>
     <g>
      <polygon class="fil13" points="96.11,317.87 97.19,212.97 87.31,214.49 84.16,314.42 "/>
      <polygon class="fil14" points="97.19,212.97 95.34,203.52 82.39,207.54 85.42,214.62 "/>
      <polygon class="fil15" points="82.39,207.54 77.61,310.67 84.16,314.42 87.31,214.49 "/>
     </g>
     <g>
      <polygon class="fil13" points="107.87,316.15 109.69,239.31 99.8,240.49 95.94,313.69 "/>
      <polygon class="fil14" points="109.69,239.31 107.91,232.4 94.93,235.43 97.91,240.59 "/>
      <polygon class="fil15" points="94.93,235.43 89.43,310.99 95.94,313.69 99.8,240.49 "/>
     </g>
    </g>
    <g>
     <g>
      <polygon class="fil13" points="56.78,318.35 58.3,230.48 48.42,231.79 44.84,315.5 "/>
      <polygon class="fil14" points="58.3,230.48 56.5,222.57 43.53,225.99 46.53,231.91 "/>
      <polygon class="fil15" points="43.53,225.99 38.31,312.38 44.84,315.5 48.42,231.79 "/>
     </g>
     <g>
      <polygon class="fil13" points="68.78,325.78 70.18,233.32 60.3,234.69 56.83,322.77 "/>
      <polygon class="fil14" points="70.18,233.32 68.37,225 55.4,228.58 58.42,234.81 "/>
      <polygon class="fil15" points="55.4,228.58 50.3,319.49 56.83,322.77 60.3,234.69 "/>
     </g>
     <g>
      <polygon class="fil13" points="80.54,324.23 82.6,256.51 72.71,257.57 68.62,322.1 "/>
      <polygon class="fil14" points="82.6,256.51 80.85,250.42 67.85,253.12 70.82,257.67 "/>
      <polygon class="fil15" points="67.85,253.12 62.11,319.73 68.62,322.1 72.71,257.57 "/>
     </g>
    </g>
   </g>
   <g>
    <g>
     <path class="fil13" d="M10.51 321.75l1.04 -73.69 -9.88 1.4 -0.8 21.4c1.42,17.08 4.62,34.14 9.64,50.89z"/>
     <path class="fil14" d="M11.55 248.06l-1.82 -8.54 -9.6 2.72c-0.07,2.43 -0.11,4.87 -0.11,7.31l11.53 -1.49z"/>
     <path class="fil15" d="M0.87 270.86l0.8 -21.4 -1.65 -2.12c-0.09,7.83 0.19,15.67 0.85,23.52z"/>
    </g>
    <g>
     <g>
      <path class="fil13" d="M21.67 329.89l0.75 -117.09 -9.87 1.67 -2.68 105.15c0.69,2.39 1.43,4.77 2.2,7.15l9.6 3.12z"/>
      <polygon class="fil14" points="22.42,212.8 20.55,202.25 7.61,206.7 10.67,214.62 "/>
      <path class="fil15" d="M7.61 206.7l-3.44 88.85c1.49,8.07 3.39,16.1 5.7,24.07l2.68 -105.15 -4.94 -7.77z"/>
     </g>
     <g>
      <polygon class="fil13" points="33.74,339.89 34.33,216.68 24.46,218.43 21.77,335.79 "/>
      <polygon class="fil14" points="34.33,216.68 32.44,205.57 19.5,210.24 22.57,218.57 "/>
      <polygon class="fil15" points="19.5,210.24 15.21,331.36 21.77,335.79 24.46,218.43 "/>
     </g>
     <g>
      <polygon class="fil13" points="45.49,337.91 46.95,247.67 37.07,249.01 33.55,334.98 "/>
      <polygon class="fil14" points="46.95,247.67 45.15,239.54 32.17,243.05 35.19,249.13 "/>
      <polygon class="fil15" points="32.17,243.05 27.02,331.77 33.55,334.98 37.07,249.01 "/>
     </g>
    </g>
    <g>
     <g>
      <path class="fil13" d="M6.81 308.02l0.61 -67.54 -7.27 1.15c-0.75,22.11 1.43,44.44 6.66,66.39z"/>
      <path class="fil14" d="M7.42 240.48l-1.85 -9.79 -4.92 1.58c-0.22,3.08 -0.39,6.17 -0.5,9.26l7.27 -1.05z"/>
     </g>
     <g>
      <path class="fil13" d="M18.27 343.86l1.67 -76.1 -9.88 1.2 -2.17 43.4c2.73,10.62 6.19,21.14 10.38,31.5z"/>
      <polygon class="fil14" points="19.94,267.76 18.16,260.6 5.18,263.72 8.17,269.07 "/>
      <path class="fil15" d="M5.18 263.72l-1.87 26.89c1.2,7.28 2.72,14.53 4.58,21.75l2.17 -43.4 -4.88 -5.24z"/>
     </g>
    </g>
   </g>
   <g>
    <g>
     <path class="fil13" d="M4.46 297.06l0.74 -96.98 -0.16 0.03c-6.43,31.66 -6.77,64.61 -0.58,96.95z"/>
     <path class="fil14" d="M5.2 200.08l-0.07 -0.41c-0.03,0.14 -0.06,0.29 -0.09,0.44l0.16 -0.03z"/>
    </g>
    <g>
     <path class="fil13" d="M17.14 321.82l1.82 -90.64 -10.83 1.37 -3.16 67.08c1.39,6.9 3.09,13.78 5.08,20.6l7.09 1.59z"/>
     <polygon class="fil14" points="18.96,231.18 17,223.02 2.78,226.57 6.06,232.67 "/>
     <path class="fil15" d="M2.78 226.57l-2.42 36.7c0.64,12.15 2.17,24.3 4.61,36.36l3.16 -67.08 -5.35 -5.98z"/>
    </g>
   </g>
   <g>
    <g>
     <path class="fil16" d="M176.41 328.77c-0.01,2.21 1.95,3.97 3.25,4.7 2.8,1.59 10.62,2.02 13.82,-0.1 1,-0.66 3.54,-3.08 3.88,-4.2 0.51,-1.64 -0.83,-5.29 -1.29,-6.75 -0.68,-2.16 -1.13,-4.2 -1.92,-6.27 -1.09,-2.91 -3.83,-9.36 -6.53,-9.69l-0.95 -0.06c1.61,1.12 1.39,7.57 1.22,9.02 -0.49,4.13 -0.64,4.74 -1.5,8.45 -0.31,1.33 -0.44,2.85 -1.2,3.86 -0.36,0.48 -2.28,2 -2.93,2.14 -1.64,0.34 -4.38,-1.26 -5.2,-2.47 -0.45,-0.66 -0.36,-1.18 -0.83,-1.66 -0.2,1.39 0.33,2.21 0.18,3.03z"/>
     <path class="fil17" d="M176.41 328.77c0.15,-0.82 -0.38,-1.64 -0.18,-3.03 0.47,0.48 0.38,1 0.83,1.66 0.82,1.21 3.56,2.81 5.2,2.47 0.65,-0.14 2.57,-1.66 2.93,-2.14 0.76,-1.01 0.89,-2.53 1.2,-3.86 0.86,-3.71 1.01,-4.32 1.5,-8.45 0.17,-1.45 0.39,-7.9 -1.22,-9.02l0.95 0.06c-1.57,-1.96 -3.95,2.86 -4.42,3.73l-3.05 5.64c-1.01,1.74 -2.19,3.58 -3.06,5.65 -0.51,1.21 -1.94,6.04 -0.68,7.29z"/>
    </g>
    <g>
     <path class="fil18" d="M175.2 309.15l-0.68 -0.19c-0.42,0.56 -0.84,0.73 -1.5,1.06 -0.47,0.24 -1.11,0.59 -1.63,0.85 -0.44,0.22 -0.85,0.43 -1.23,0.63 -0.54,-2.05 -1.03,-4.11 -1.5,-6.17 0.23,0.07 0.46,0.15 0.7,0.25 2.07,0.79 5.13,2.06 5.84,3.57z"/>
     <path class="fil19" d="M170.16 311.5c0.38,-0.2 0.79,-0.41 1.23,-0.63 0.52,-0.26 1.16,-0.61 1.63,-0.85 0.66,-0.33 1.08,-0.5 1.5,-1.06l0.68 0.19c1.45,1.56 2.88,11.4 2.7,14.34 -1.23,0.66 -2.46,1.23 -3.72,1.74 -1.49,-4.55 -2.84,-9.13 -4.02,-13.73z"/>
    </g>
    <g>
     <path class="fil20" d="M184.72 330.56c0.65,1.42 -0.95,6.04 -1.54,7.33l-4.17 0.35c-0.04,-0.1 -0.07,-0.26 -0.09,-0.23 -0.01,0.03 -0.05,-0.13 -0.07,-0.18 -0.02,-0.05 -0.05,-0.12 -0.07,-0.18 -0.2,-0.54 -0.25,-0.83 -0.5,-0.98l-0.22 -0.59c0.01,0 0.03,-0.01 0.04,-0.01 0.11,-1.22 0.21,-1.29 -0.1,-2.54 0.53,0.71 0.4,1.04 0.38,1.86 1.82,-1.59 1.48,0.18 1.81,-1.49 0.09,-0.44 0.19,-1.92 0.21,-2.49l2.91 0.01c-0.23,-0.76 -0.41,-0.76 -0.62,-1.42 0.83,0.34 1.21,0.81 1.51,1.64 0.45,-0.8 -0.03,-0.94 0.52,-1.08z"/>
     <path class="fil21" d="M184.72 330.56c-0.55,0.14 -0.07,0.28 -0.52,1.08 -0.3,-0.83 -0.68,-1.3 -1.51,-1.64 0.21,0.66 0.39,0.66 0.62,1.42l-2.91 -0.01c-0.02,0.57 -0.12,2.05 -0.21,2.49 -0.33,1.67 0.01,-0.1 -1.81,1.49 0.02,-0.82 0.15,-1.15 -0.38,-1.86 -0.24,-0.57 -0.79,-1.13 -1.47,-1.51 -1.19,-3.27 -2.31,-6.56 -3.34,-9.86 5.86,0.44 5.68,-0.97 8.77,4.34 0.65,1.13 0.64,1.01 1.47,1.74 0.63,0.55 1.04,1.37 1.29,2.32z"/>
     <path class="fil22" d="M176.53 332.02c0.68,0.38 1.23,0.94 1.47,1.51 0.31,1.25 0.21,1.32 0.1,2.54 -0.01,0 -0.03,0.01 -0.04,0.01 -0.53,-1.35 -1.04,-2.7 -1.53,-4.06z"/>
    </g>
    <g>
     <path class="fil23" d="M202.41 326.86c0.18,0.21 0.16,0.07 0.34,0.54 0.11,0.31 0.06,0.24 0.11,0.5 0.36,2.14 1.46,3.8 -1.46,5.71 -2.62,1.72 -4.6,1.88 -7.82,2.02 0,0 -0.51,0.11 -0.51,0.11 -1.69,0.12 -2.87,0.3 -4.56,0.37 -1.44,0.07 -3.39,-0.18 -4.43,-0.04 0.04,0.36 0.09,0.58 0.05,0.95 -0.06,0.57 -0.16,0.53 -0.16,0.53 -0.21,0.86 -0.67,-0.6 0.04,0.29 0.03,0.03 0.2,0.17 0.23,0.2l0.31 0.26c1.23,0.43 8.28,0.85 10.18,0.58 1.79,-0.25 -0.07,-0.98 1.49,-0.42l0.27 0.11c1.03,0.31 2.35,-0.05 3.32,-0.3 1.32,-0.34 2.46,-0.67 3.72,-1.07 3.1,-0.99 4.23,-1.18 5.12,-4.32 1.3,-4.61 -0.04,-6.68 -2.51,-10.42 -0.48,-0.72 -1.34,-2.2 -2.15,-2.45l-0.55 0.06c0.04,0.05 0.07,0.11 0.08,0.14 0.02,0.04 0.05,0.1 0.07,0.15l0.09 0.33c0.14,0.8 -0.18,1.12 -0.38,1.5l-0.17 0.44c-0.62,2.36 -2.09,1.29 -0.72,4.23z"/>
     <path class="fil24" d="M184.55 338.3l-0.31 -0.26c-0.03,-0.03 -0.2,-0.17 -0.23,-0.2 -0.71,-0.89 -0.25,0.57 -0.04,-0.29 0,0 0.1,0.04 0.16,-0.53 0.04,-0.37 -0.01,-0.59 -0.05,-0.95 1.04,-0.14 2.99,0.11 4.43,0.04 1.69,-0.07 2.87,-0.25 4.56,-0.37 3.5,-0.78 4.71,0.24 8.33,-2.13 2.92,-1.91 1.82,-3.57 1.46,-5.71 -0.05,-0.26 0,-0.19 -0.11,-0.5 -0.18,-0.47 -0.16,-0.33 -0.34,-0.54 0.04,0.69 0.13,0.37 -0.2,0.72 -0.25,-0.61 -0.6,-1.21 -1.15,-1.63 -1.45,0.3 -2.76,1.02 -4.21,1.45 -2.85,0.84 -8.88,1.37 -9.57,1.68 -0.88,0.41 -0.95,2.48 -1.97,3.36 0.1,-1.43 0.91,-2.27 0.84,-3.53 -1.52,-0.56 -2.1,-0.64 -3.45,-1.64 -0.06,-0.04 -0.36,-0.29 -0.41,-0.34 -0.32,-0.35 -0.07,0.07 -0.37,-0.53 2.67,0.1 2.07,3.02 9.32,1.24 1.78,-0.44 3.36,-0.55 5.14,-1.05 0.89,-0.25 3.83,-1.45 4.32,-1.28 -1.68,0.07 -2.8,0.5 -4.23,0.62 -2.44,0.2 -6.77,0.61 -9.04,0.01 -3.43,-0.9 -1.51,-1.05 -2.7,-1.61 0.51,-0.34 0.1,-0.14 0.68,-0.47l-0.34 -0.12c-0.95,0.11 -3.27,1.73 -3.79,2.72 -0.72,1.38 -1.41,3.18 -1.97,4.69 -0.92,2.47 -1.11,2.93 0.77,4.67 0.75,0.7 3,2.26 4.47,2.48z"/>
     <path class="fil25" d="M185.07 323.74l0.34 0.12c-0.58,0.33 -0.17,0.13 -0.68,0.47 1.19,0.56 -0.73,0.71 2.7,1.61 2.27,0.6 6.6,0.19 9.04,-0.01 1.43,-0.12 2.55,-0.55 4.23,-0.62 -0.49,-0.17 -3.43,1.03 -4.32,1.28 -1.78,0.5 -3.36,0.61 -5.14,1.05 -7.25,1.78 -6.65,-1.14 -9.32,-1.24 0.29,0.6 0.05,0.18 0.37,0.53 0.05,0.05 0.35,0.3 0.41,0.34 1.35,1 1.93,1.08 3.45,1.64 0.07,1.26 -0.74,2.1 -0.84,3.53 1.02,-0.88 1.09,-2.95 1.97,-3.36 0.69,-0.31 6.72,-0.84 9.57,-1.68 1.45,-0.43 2.76,-1.15 4.21,-1.45 0.55,0.42 0.9,1.02 1.15,1.63 0.33,-0.35 0.24,-0.03 0.2,-0.72 -1.37,-2.94 0.1,-1.87 0.72,-4.23l0.17 -0.44c0.2,-0.38 0.52,-0.7 0.38,-1.5l-0.09 -0.33c-0.02,-0.05 -0.05,-0.11 -0.07,-0.14 -0.01,-0.04 -0.04,-0.1 -0.08,-0.14l0.55 -0.08 -5.21 -0.67c-4.76,0.07 -5.62,0.26 -9.71,2.22l-3.56 1.76c-0.44,0.32 -0.19,0.11 -0.44,0.43z"/>
    </g>
    <g>
     <path class="fil26" d="M201.77 325.95c0.79,-0.4 0.18,-0.14 0.44,0 0.74,2.19 4.85,1.29 5.83,1.97 0.26,0.27 0.37,3.78 0.42,4.56 0,0.09 0.04,0.66 0.05,0.71 0.19,0.8 -0.13,0.3 0.36,0.62l0.24 -1.17c0.11,-1.46 -0.13,-3.07 -0.02,-4.08 0.1,-0.94 0.26,-1.17 1.1,-1.5 0.8,-0.3 1.4,-0.59 2.38,-0.64 1.8,-0.1 3.82,0.02 5.6,0.1 1.03,0.05 1.48,-0.04 1.87,0.82 0.36,0.78 0.43,1.49 0.8,2.13 0.33,-3.77 -1.13,-0.46 0.86,-6.63 0.31,-0.96 0.2,-1.33 -0.7,-1.82l0.37 -0.09c-0.32,-0.47 -0.22,-0.43 -0.96,-0.62 -3.22,-0.84 -7.38,-0.25 -10.17,0.78 -2.47,0.92 -7.48,2.92 -8.47,4.86z"/>
     <path class="fil27" d="M201.77 325.95c-0.99,0.56 -2.31,5.29 -2.7,6.7 -1.24,4.41 -1.71,5.72 0.94,6.74 1.87,0.71 5.87,1.47 8.3,1.36 2.84,-0.12 6.46,-2.23 7.78,-2.37 1.94,-0.21 5.32,1.64 8.4,1.28 0.96,-0.12 2.89,-1.26 3.29,-1.71 0.61,-0.69 0.49,-3.23 0.42,-4.32 -0.17,-2.67 -3.13,-7.3 -4.77,-9.88 -0.38,-0.6 -0.58,-0.94 -0.92,-1.47 -0.3,-0.47 -0.67,-1.1 -1.14,-1.35l-0.37 0.09c0.9,0.49 1.01,0.86 0.7,1.82 -1.99,6.17 -0.53,2.86 -0.86,6.63 -0.37,-0.64 -0.44,-1.35 -0.8,-2.13 -0.39,-0.86 -0.84,-0.77 -1.87,-0.82 -1.78,-0.08 -3.8,-0.2 -5.6,-0.1 -0.98,0.05 -1.58,0.34 -2.38,0.64 -0.84,0.33 -1,0.56 -1.1,1.5 -0.11,1.01 0.13,2.62 0.02,4.08l-0.24 1.17c-0.49,-0.32 -0.17,0.18 -0.36,-0.62 -0.01,-0.05 -0.05,-0.62 -0.05,-0.71 -0.05,-0.78 -0.16,-4.29 -0.42,-4.56 -0.98,-0.68 -5.09,0.22 -5.83,-1.97 -0.26,-0.14 0.35,-0.4 -0.44,0z"/>
    </g>
   </g>
   <g>
    <path class="fil16" d="M15.03 335.41c0.54,-1.87 -0.96,-5.95 -1.47,-7.6 -0.77,-2.44 -1.28,-4.74 -2.17,-7.09 -0.62,-1.65 -1.73,-4.34 -3.05,-6.63 1.9,7.16 4.13,14.27 6.69,21.32z"/>
    <g>
     <path class="fil23" d="M20.73 332.84c0.19,0.23 0.17,0.08 0.37,0.61 0.14,0.35 0.08,0.27 0.13,0.56 0.41,2.42 1.66,4.3 -1.64,6.45 -0.77,0.51 -1.49,0.89 -2.2,1.19 0.5,1.26 1.02,2.52 1.54,3.78 1.03,-0.28 2.01,-0.57 3.06,-0.91 3.51,-1.12 4.79,-1.32 5.79,-4.88 1.47,-5.22 -0.04,-7.55 -2.84,-11.78 -0.54,-0.81 -1.51,-2.49 -2.43,-2.77l-0.62 0.07c0.04,0.05 0.07,0.12 0.09,0.16 0.02,0.05 0.06,0.11 0.08,0.17l0.11 0.36c0.14,0.92 -0.21,1.28 -0.44,1.7l-0.19 0.5c-0.71,2.67 -2.37,1.46 -0.81,4.79z"/>
     <path class="fil24" d="M17.4 341.67c0.64,-0.28 1.36,-0.67 2.19,-1.21 3.3,-2.15 2.05,-4.03 1.64,-6.45 -0.05,-0.29 0.01,-0.21 -0.13,-0.56 -0.2,-0.53 -0.18,-0.38 -0.37,-0.61 0.04,0.78 0.14,0.41 -0.23,0.81 -0.28,-0.7 -0.68,-1.37 -1.3,-1.84 -1.64,0.34 -3.12,1.15 -4.75,1.63l-0.11 0.03c0.97,2.74 1.99,5.48 3.06,8.2zm-3.4 -9.16c1.09,-0.33 4.25,-1.61 4.79,-1.43 -1.89,0.08 -3.16,0.56 -4.77,0.7l-0.28 0.02c0.09,0.24 0.17,0.47 0.26,0.71z"/>
     <path class="fil25" d="M13.74 331.8l0.28 -0.02c1.61,-0.14 2.88,-0.62 4.77,-0.7 -0.54,-0.18 -3.7,1.1 -4.79,1.43 0.11,0.32 0.23,0.64 0.34,0.96l0.11 -0.03c1.63,-0.48 3.11,-1.29 4.75,-1.63 0.62,0.47 1.02,1.14 1.3,1.84 0.37,-0.4 0.27,-0.03 0.23,-0.81 -1.56,-3.33 0.1,-2.12 0.81,-4.79l0.19 -0.5c0.23,-0.42 0.58,-0.78 0.44,-1.7l-0.11 -0.36c-0.02,-0.06 -0.06,-0.12 -0.08,-0.17 -0.02,-0.04 -0.05,-0.11 -0.09,-0.16l0.62 -0.08 -5.89 -0.76c-2.37,0.04 -3.88,0.1 -5.23,0.35 0.75,2.38 1.53,4.76 2.35,7.13z"/>
    </g>
    <g>
     <path class="fil26" d="M20 331.81c0.9,-0.46 0.2,-0.16 0.5,-0.01 0.84,2.48 5.49,1.46 6.59,2.23 0.3,0.31 0.42,4.28 0.47,5.15 0.01,0.11 0.05,0.76 0.07,0.81 0.2,0.9 -0.16,0.34 0.39,0.7l0.28 -1.32c0.12,-1.65 -0.15,-3.48 -0.03,-4.62 0.12,-1.05 0.3,-1.32 1.26,-1.69 0.9,-0.34 1.57,-0.66 2.69,-0.73 2.03,-0.11 4.31,0.03 6.33,0.12 1.16,0.05 1.67,-0.05 2.11,0.92 0.4,0.89 0.48,1.7 0.9,2.42 0.37,-4.27 -1.27,-0.52 0.97,-7.5 0.35,-1.08 0.23,-1.5 -0.79,-2.06l0.42 -0.09c-0.36,-0.54 -0.25,-0.5 -1.08,-0.72 -3.64,-0.95 -8.34,-0.27 -11.51,0.9 -2.78,1.03 -8.44,3.3 -9.57,5.49z"/>
     <path class="fil27" d="M20 331.81c-1.12,0.63 -2.61,5.98 -3.05,7.57l-0.19 0.64c0.98,2.52 1.98,5.03 3.04,7.53 2.31,0.59 5.48,1.08 7.6,0.99 3.2,-0.14 7.29,-2.52 8.8,-2.68 2.19,-0.24 6.01,1.85 9.48,1.44 1.09,-0.13 3.27,-1.42 3.72,-1.92 0.7,-0.79 0.56,-3.66 0.48,-4.89 -0.19,-3.02 -3.54,-8.26 -5.39,-11.17 -0.43,-0.67 -0.66,-1.06 -1.04,-1.66 -0.34,-0.53 -0.76,-1.25 -1.29,-1.52l-0.42 0.09c1.02,0.56 1.14,0.98 0.79,2.06 -2.24,6.98 -0.6,3.23 -0.97,7.5 -0.42,-0.72 -0.5,-1.53 -0.9,-2.42 -0.44,-0.97 -0.95,-0.87 -2.11,-0.92 -2.02,-0.09 -4.3,-0.23 -6.33,-0.12 -1.12,0.07 -1.79,0.39 -2.69,0.73 -0.96,0.37 -1.14,0.64 -1.26,1.69 -0.12,1.14 0.15,2.97 0.03,4.62l-0.28 1.32c-0.55,-0.36 -0.19,0.2 -0.39,-0.7 -0.02,-0.05 -0.06,-0.7 -0.07,-0.81 -0.05,-0.87 -0.17,-4.84 -0.47,-5.15 -1.1,-0.77 -5.75,0.25 -6.59,-2.23 -0.3,-0.15 0.4,-0.45 -0.5,0.01z"/>
    </g>
   </g>
   <g>
    <g>
     <path class="fil28" d="M44.15 310.37l-0.78 0.95c-2.05,3.41 -6.71,3.03 -9.2,3.81 -0.28,-0.66 0.67,-7.63 1.08,-6.97l4.13 -0.62c0.89,-0.27 1.18,-0.44 1.76,-0.91 0.31,-0.24 0.45,-0.38 0.63,-0.63l0.51 -0.85c0.9,1.24 1.12,3.63 1.87,5.22z"/>
     <path class="fil29" d="M42.28 305.15l-0.51 0.85c-0.18,0.25 -0.32,0.39 -0.63,0.63 -0.58,0.47 -0.87,0.64 -1.76,0.91l-4.13 0.62c-0.41,-0.66 -1.36,6.31 -1.08,6.97 2.49,-0.78 7.15,-0.4 9.2,-3.81l0.78 -0.95c1.25,0.36 2.97,1.55 3.68,2.21 1.24,1.16 1.32,2.44 1.2,4.5 -0.86,0.83 -0.99,1.82 -2.2,2.15 -0.12,-1.98 0.7,-3.03 -1.18,-3.79l0.04 3.47 -3.98 0.9 0.79 1.02c-1.86,0.02 -3.44,2.25 -7.38,-1.33 -2.11,-1.93 -0.78,-0.55 -1.42,-3.2 -0.38,-1.57 -0.15,-3.01 0.2,-4.36 1.04,-3.99 0.13,-5.37 -1.03,-8.07 -0.78,-1.82 -0.78,-2.84 -1.98,-5.43 -0.34,-0.76 -0.8,-1 -0.4,-1.17 -0.41,-0.55 0.58,-0.82 -0.66,-0.33 0.7,-1.31 3.56,-0.2 4.18,0.24 1.18,0.82 1.8,1.31 2.66,2.64 1.28,1.96 5,4.03 5.61,5.33z"/>
     <path class="fil19" d="M42.5 320.83l3.24 -0.71c-0.06,1.58 -0.68,1.11 -1.14,2.22l0.79 0.6c1.11,-0.81 2.33,-2.98 3.35,-3.67l-0.05 0.91c-0.07,0.88 -0.48,1.68 -1.19,2.25 -1.2,0.96 -1,2.19 -3.03,3.08 -1.76,0.78 -6.09,1.49 -8.36,1.81 -6.8,0.98 -11.82,-0.67 -14.77,-4.5 -1.81,-2.34 -2.03,-4.17 -2.27,-7.39 -0.36,-4.91 -0.73,-4.32 1.9,-7.7 1.79,-2.29 3.7,-3.34 4.72,-5.17 0.77,-1.39 3.15,-5.1 4.14,-5.62 1.24,-0.49 0.25,-0.22 0.66,0.33 -0.4,0.17 0.06,0.41 0.4,1.17 1.2,2.59 1.2,3.61 1.98,5.43 1.16,2.7 2.07,4.08 1.03,8.07 -0.35,1.35 -0.58,2.79 -0.2,4.36 0.64,2.65 -0.69,1.27 1.42,3.2 3.94,3.58 5.52,1.35 7.38,1.33z"/>
    </g>
    <g>
     <path class="fil30" d="M17.08 328.75c0.12,-0.98 0.03,-0.34 -0.13,-0.59 -1.03,0.76 -2.5,1.13 -3.98,1.35 -1.93,-5.76 -3.65,-11.56 -5.14,-17.39l0.26 0.25c4.97,4.56 5.42,4.35 7.86,11.5l1.45 4.1c0,0.99 -0.06,0.53 -0.32,0.78z"/>
     <path class="fil27" d="M17.08 328.75c-0.06,1.18 -2.03,2.89 -3.16,3.55 -0.32,-0.93 -0.64,-1.86 -0.95,-2.79 1.48,-0.22 2.95,-0.59 3.98,-1.35 0.16,0.25 0.25,-0.39 0.13,0.59z"/>
    </g>
    <g>
     <g>
      <path class="fil16" d="M40.46 336.04c0.15,2.55 -2,4.68 -3.45,5.59 -3.13,1.98 -12.13,2.89 -15.94,0.62 -1.2,-0.72 -4.27,-3.37 -4.74,-4.65 -0.68,-1.86 0.64,-6.14 1.08,-7.85 0.65,-2.53 1.05,-4.9 1.83,-7.34 1.08,-3.4 3.85,-10.99 6.94,-11.51l1.09 -0.12c-1.79,1.37 -1.13,8.8 -0.85,10.47 0.82,4.74 1.02,5.43 2.24,9.67 0.44,1.51 0.69,3.26 1.62,4.38 0.45,0.54 2.75,2.19 3.51,2.31 1.91,0.31 4.97,-1.68 5.84,-3.11 0.48,-0.79 0.35,-1.38 0.86,-1.96 0.31,1.59 -0.25,2.57 -0.03,3.5z"/>
      <path class="fil17" d="M40.46 336.04c-0.22,-0.93 0.34,-1.91 0.03,-3.5 -0.51,0.58 -0.38,1.17 -0.86,1.96 -0.87,1.43 -3.93,3.42 -5.84,3.11 -0.76,-0.12 -3.06,-1.77 -3.51,-2.31 -0.93,-1.12 -1.18,-2.87 -1.62,-4.38 -1.22,-4.24 -1.42,-4.93 -2.24,-9.67 -0.28,-1.67 -0.94,-9.1 0.85,-10.47l-1.09 0.12c1.69,-2.34 4.73,3.1 5.33,4.07l3.86 6.35c1.26,1.95 2.74,4.01 3.87,6.34 0.66,1.37 2.61,6.87 1.22,8.38z"/>
     </g>
     <g>
      <path class="fil18" d="M40.66 313.36l0.78 -0.26c0.52,0.62 1.01,0.8 1.8,1.15 0.55,0.24 1.31,0.62 1.92,0.89 1.43,0.63 2.54,1.12 3.8,1.97 1.41,0.93 2.2,1.3 2.02,3.72 -0.11,1.59 -0.04,4.05 0.98,4.91 0.13,-2.33 -0.44,-5.11 0.5,-7.11 1.5,-0.13 7.54,1.79 10.34,2 3.74,0.28 2.57,0.34 4.45,-1.69 0.66,-0.73 1.15,-0.69 1.99,-1.28 1.1,-0.78 0.66,-1.21 1.36,-1.98 -0.78,-1.95 -5.77,-4.28 -7.7,-5.66 -2.03,-1.45 -2.49,-1.56 -6.25,-1.87 -4.06,-0.35 -6.06,-0.72 -9.47,0.77 -2.33,1.03 -5.79,2.65 -6.52,4.44z"/>
      <path class="fil19" d="M70.6 315.68c-0.7,0.77 -0.26,1.2 -1.36,1.98 -0.84,0.59 -1.33,0.55 -1.99,1.28 -1.88,2.03 -0.71,1.97 -4.45,1.69 -2.8,-0.21 -8.84,-2.13 -10.34,-2 -0.94,2 -0.37,4.78 -0.5,7.11 -1.02,-0.86 -1.09,-3.32 -0.98,-4.91 0.18,-2.42 -0.61,-2.79 -2.02,-3.72 -1.26,-0.85 -2.37,-1.34 -3.8,-1.97 -0.61,-0.27 -1.37,-0.65 -1.92,-0.89 -0.79,-0.35 -1.28,-0.53 -1.8,-1.15l-0.78 0.26c-1.57,1.86 -2.62,13.29 -2.23,16.67 3.63,1.75 7.25,2.79 11.16,3.9 6.19,1.78 6.51,1.66 12.38,-0.45 2.09,-0.75 9.82,-3.23 10.43,-4.94 0.76,-2.13 -0.78,-11.5 -1.8,-12.86z"/>
     </g>
     <g>
      <path class="fil28" d="M108.37 310.9c1.32,-0.08 3.79,1.51 5.05,2.31 1.38,0.88 3.2,2.04 3.91,3.92 -0.65,-0.15 -0.71,0.33 -0.49,-0.2 -0.27,0.85 -0.09,1.35 -1.4,2 -0.85,0.43 -2.07,0.62 -3.14,0.84 -3.38,0.71 -4.1,0.1 -7.11,0.21 -2.81,0.11 -8.49,2.22 -13.77,0.29 -2.41,-0.88 -6.07,-2.02 -8.68,-2.29 -2.91,-0.3 -5.34,-0.17 -7.46,-2.92 -0.04,-0.06 -0.1,-0.12 -0.14,-0.18 -0.04,-0.05 -0.08,-0.12 -0.12,-0.18 -0.38,-0.59 0.03,0.08 -0.22,-0.4 -0.49,-0.93 -0.87,-2.05 -0.48,-3.41l0.31 -0.75c0.52,-0.85 0.16,-0.62 1.19,-0.82l-0.94 -0.17c0.55,-0.61 0.56,-0.56 1.55,-0.97 0.67,-0.28 1.22,-0.46 1.92,-0.71 1.17,-0.43 2.82,-1.04 4.29,-1.05 1.32,0.2 3.3,-0.53 5.22,-0.58 -1.61,2.65 -2.75,4.83 -0.36,7.46 4.55,4.99 10.55,2.76 15.52,1.95 2,-0.32 6.29,-0.78 7.24,-2.73 -0.38,-0.82 -0.93,-1.3 -2.5,-1.48l0.61 -0.14z"/>
      <path class="fil29" d="M108.37 310.9l-0.61 0.14c1.57,0.18 2.12,0.66 2.5,1.48 -0.95,1.95 -5.24,2.41 -7.24,2.73 -4.97,0.81 -10.97,3.04 -15.52,-1.95 -2.39,-2.63 -1.25,-4.81 0.36,-7.46 -1.92,0.05 -3.9,0.78 -5.22,0.58 0.61,-0.53 1.98,-0.61 3.16,-0.73 6.34,-0.65 20.98,3.17 22.57,5.21z"/>
      <path class="fil31" d="M117.33 317.13c1.53,1.56 0.62,5.29 -2.72,7.44 -2.4,1.55 -6.36,2.16 -9.46,2.77 -6.66,1.31 -15.51,1.97 -22.55,1.36 -6.87,-0.59 -15.47,-0.98 -17.45,-6.3 -2.63,-7.03 8.07,-13.05 9.73,-13.25l0.94 0.17c-1.03,0.2 -0.67,-0.03 -1.19,0.82l-0.31 0.75c-0.39,1.36 -0.01,2.48 0.48,3.41 0.25,0.48 -0.16,-0.19 0.22,0.4 0.04,0.06 0.08,0.13 0.12,0.18 0.04,0.06 0.1,0.12 0.14,0.18 2.12,2.75 4.55,2.62 7.46,2.92 2.61,0.27 6.27,1.41 8.68,2.29 5.28,1.93 10.96,-0.18 13.77,-0.29 3.01,-0.11 3.73,0.5 7.11,-0.21 1.07,-0.22 2.29,-0.41 3.14,-0.84 1.31,-0.65 1.13,-1.15 1.4,-2 -0.22,0.53 -0.16,0.05 0.49,0.2z"/>
     </g>
     <g>
      <path class="fil30" d="M144.5 323.07c0.13,-1.08 0.03,-0.38 -0.15,-0.65 -2.72,2.02 -8.27,1.56 -10.01,2.12l-0.84 -1.1c-0.36,-0.3 -0.7,-0.36 -1.18,-0.73 -1.35,-1.03 -1.83,-3.69 -6.75,-4.3 -3.01,-0.37 -3.86,-0.41 -4.91,1.73 -0.79,1.62 -1.54,3.88 -3.38,4.58 0.58,-1.95 1.26,-2.41 1.96,-3.53 2.46,-3.93 -0.86,-7.98 -1.9,-10.51 -0.41,-0.98 -0.39,-0.75 -0.68,-0.92 -0.05,0.29 0.01,0.26 -0.13,0.63l-0.48 0.83c0.41,-2.71 3.9,-6.57 6.79,-7.3 1.91,-0.49 4.45,-0.71 6.55,-0.83 3.45,-0.19 3.34,0.21 5.19,1.91 5.48,5.03 5.98,4.8 8.67,12.68l1.6 4.53c0,1.1 -0.07,0.59 -0.35,0.86z"/>
      <path class="fil27" d="M144.5 323.07c-0.08,1.4 -2.57,3.47 -3.75,4.06 -1.81,0.9 -3.15,2.32 -5.07,3.21 -2.92,1.36 -15.53,1.31 -19.3,0.88 -1.43,-0.17 -1.72,-0.79 -2.35,-1.68 -1.63,-2.29 -2.17,-2.75 -1.31,-5.89l3.33 -12.43 0.48 -0.83c0.14,-0.37 0.08,-0.34 0.13,-0.63 0.29,0.17 0.27,-0.06 0.68,0.92 1.04,2.53 4.36,6.58 1.9,10.51 -0.7,1.12 -1.38,1.58 -1.96,3.53 1.84,-0.7 2.59,-2.96 3.38,-4.58 1.05,-2.14 1.9,-2.1 4.91,-1.73 4.92,0.61 5.4,3.27 6.75,4.3 0.48,0.37 0.82,0.43 1.18,0.73l0.84 1.1c1.74,-0.56 7.29,-0.1 10.01,-2.12 0.18,0.27 0.28,-0.43 0.15,0.65z"/>
     </g>
     <g>
      <path class="fil19" d="M157.75 312.1c0.56,2.98 0.48,7.34 0.55,10.54 0.09,3.66 0.1,7.3 0.11,10.92 0.02,4.02 0.28,3.84 -1.69,6.41 -0.3,0.39 -0.92,1.25 -1.27,1.6 -0.79,0.84 -1.14,0.26 -1.96,0.76 -0.4,0.24 -1.57,3.08 -6.19,2.26 -1.98,-0.35 -2.28,-0.38 -2.99,-1.22l-0.27 -0.31c-0.11,-0.12 -0.19,-0.18 -0.37,-0.39 -1.47,-1.7 -2.46,-1.56 -3.03,-2.55 -1.35,-2.34 -0.97,-7.56 -1.02,-10.46 -0.14,-7.32 -0.04,-14.78 -0.21,-21.97l0.4 -1.66c0.01,0.05 0.44,2.52 1.12,4.55 0.95,2.81 2.25,1.21 3.64,1.82 -0.23,1.1 -1.13,0.84 0.01,2.22 0.69,0.83 0.7,1.2 1.93,1.43 1.74,0.33 3.74,0.96 5.66,0.77 -0.39,-1.58 -1.22,-1.49 -1.6,-4.18l3.2 3.13c3.82,-0.09 3.62,-0.59 3.5,-4.16 0.13,0.49 0.26,0.25 0.48,0.49z"/>
      <path class="fil30" d="M157.75 312.1c-0.22,-0.24 -0.35,0 -0.48,-0.49 0.12,3.57 0.32,4.07 -3.5,4.16l-3.2 -3.13c0.38,2.69 1.21,2.6 1.6,4.18 -1.92,0.19 -3.92,-0.44 -5.66,-0.77 -1.23,-0.23 -1.24,-0.6 -1.93,-1.43 -1.14,-1.38 -0.24,-1.12 -0.01,-2.22 -1.39,-0.61 -2.69,0.99 -3.64,-1.82 -0.68,-2.03 -1.11,-4.5 -1.12,-4.55l-0.4 1.66c-0.11,-3.06 -0.05,-5.63 2.35,-6.64 2.13,-0.88 6.14,-0.75 7.81,0.42 0.93,0.65 1.15,1.71 1.92,2.69 1.66,2.1 5.86,5.24 6.26,7.94z"/>
     </g>
     <g>
      <path class="fil23" d="M129.6 345.47c-0.25,0.77 -0.58,1.87 -0.79,2.38l1.24 0.12c1.99,0.11 9.77,-2.34 11.84,-3.01 2.86,-0.92 2.96,-0.83 4.6,-2.76 0.58,-0.68 2.7,-3.4 2.57,-4.38l-0.03 -0.89c-1.59,1.2 -4.4,0.71 -6.27,0.4 -2.92,-0.49 -3.45,0.2 -5.8,1.13 -1.43,0.57 -2.68,0.75 -3.63,1.87 -1.83,2.13 -3.96,2.93 -3.73,5.14z"/>
      <path class="fil30" d="M111.56 324.4l-1.37 0.49 0.41 0.54c0.57,0.58 2.35,1.38 3.13,1.85 -0.3,4.82 -1.34,1.28 0.58,7.22 0.83,2.58 1.07,5.24 1.59,7.85 0.8,-0.68 0.3,0.07 0.61,-0.89 0.48,-1.43 -0.88,-4.76 -0.88,-4.77 -0.36,-1.93 -2.53,-7.62 -0.76,-8.95 1.68,-1.25 5.35,-1.61 7.52,-1.7 1.73,-0.07 6.85,-1.33 8.11,-0.55 -2.81,0.96 -11.14,1.37 -12.43,2.74l0.99 0.82c0.41,0.35 0.56,0.56 0.93,0.89 1.43,1.24 2.05,2.22 3.29,3.52l1.63 1.77c0.97,0.95 -0.18,0.15 1.72,1.69 1.93,1.56 0.86,3.02 1.7,5.11 0.58,1.45 0.59,0.89 0.56,2.71 0.16,1.68 -0.11,0.28 0.71,0.73 -0.23,-2.21 1.9,-3.01 3.73,-5.14 0.95,-1.12 2.2,-1.3 3.63,-1.87 2.35,-0.93 2.88,-1.62 5.8,-1.13 1.87,0.31 4.68,0.8 6.27,-0.4l0.03 0.89c0.66,-0.59 0.68,-0.87 -0.51,-2.03 -3.14,-3.09 -9.77,-7.73 -13.31,-10.1 -2.45,-1.64 -7.21,-1.58 -11.24,-2.07 -2.31,-0.28 -10.22,-0.91 -12.44,0.78z"/>
      <path class="fil28" d="M130.05 347.97l-1.24 -0.12c0.21,-0.51 0.54,-1.61 0.79,-2.38 -0.82,-0.45 -0.55,0.95 -0.71,-0.73 0.03,-1.82 0.02,-1.26 -0.56,-2.71 -0.84,-2.09 0.23,-3.55 -1.7,-5.11 -1.9,-1.54 -0.75,-0.74 -1.72,-1.69l-1.63 -1.77c-1.24,-1.3 -1.86,-2.28 -3.29,-3.52 -0.37,-0.33 -0.52,-0.54 -0.93,-0.89l-0.99 -0.82c1.29,-1.37 9.62,-1.78 12.43,-2.74 -1.26,-0.78 -6.38,0.48 -8.11,0.55 -2.17,0.09 -5.84,0.45 -7.52,1.7 -1.77,1.33 0.4,7.02 0.76,8.95 0,0.01 1.36,3.34 0.88,4.77 -0.31,0.96 0.19,0.21 -0.61,0.89 -0.52,-2.61 -0.76,-5.27 -1.59,-7.85 -1.92,-5.94 -0.88,-2.4 -0.58,-7.22 -0.78,-0.47 -2.56,-1.27 -3.13,-1.85l-0.41 -0.54 1.37 -0.49c-3.8,-0.94 -5.2,6.01 -4.72,7.66 0.58,2.03 2.78,7.87 3.8,9.43 0.61,0.94 2.72,2.06 3.88,2.7 1.94,1.06 2.63,1.64 5.15,1.39 2.76,-0.28 8.46,3.92 10.38,2.39z"/>
     </g>
     <g>
      <path class="fil23" d="M178.9 337.97c0.54,0.56 0.45,1.9 0.67,2.77 0.59,2.35 -0.87,0.34 -1.59,1.3 2.33,0.3 2.74,-0.56 3.34,-0.93 0,0 4.44,-1.62 4.82,-2.73 0.11,-2.19 -2.64,-8.37 -3.86,-9.15 -0.9,-0.42 -0.38,-0.54 -1.47,1.04 -1.44,2.08 -3.18,2.24 -4.25,4.05 1.27,1.33 2.2,0.99 2.34,3.65z"/>
      <path class="fil18" d="M155.81 319.19l-0.32 -1.51c0.67,0.31 0.54,0.64 0.82,0.79 0.01,0 0.05,0.01 0.06,0.01 0.01,0 0.06,0.01 0.07,0.01 0.02,0 0.08,0.01 0.1,0.02 0.97,0.33 1.86,1.39 5.47,2.1 0.7,0.14 2.84,0.24 3.03,0.48 0.86,2.99 -0.16,6.1 -0.27,8.99 -0.05,1.25 0.44,7.76 1.58,8.86 -0.02,-3.98 -1.19,-7.26 -0.53,-11.02 0.33,-1.87 0.83,-3.51 0.54,-5.32l-0.45 -11.37c0.21,-0.64 0.86,-0.9 1.58,-1.34 0.66,-0.4 0.9,-0.74 1.54,-1.47 1.47,-1.7 4.07,-5.36 4.02,-7.61l0.54 -0.01c-1.36,-1.73 -13.14,3.2 -15.11,4.09 -1.43,0.65 -2.04,0.71 -2.55,2.27 -0.64,1.93 -1.27,5.98 -1.28,8.04 -0.01,1.19 0.25,3.1 1.16,3.99z"/>
      <path class="fil20" d="M155.81 319.19c0.1,2.37 1.28,0.65 0.86,7.47 -0.16,2.59 -0.37,5.4 -0.33,8.12 0.02,1.51 -0.06,2.56 1.06,3.31 0.88,0.58 2.15,1.04 3.03,1.33 3.03,1.03 4.23,1.13 7.71,0.86 0.82,1.38 -0.34,1.45 3.79,1.78 0.94,0.08 2.1,0.14 3.04,0.13 1.91,-0.01 1.16,-0.17 2.17,-0.78 0.68,1.12 -0.15,0.15 0.84,0.63 0.72,-0.96 2.18,1.05 1.59,-1.3 -0.22,-0.87 -0.13,-2.21 -0.67,-2.77l-0.03 0.58c-1.1,-1.2 -2.35,-3.56 -4.57,-3.41 -2.35,0.16 -4.57,1.06 -6.89,-0.39 0.14,-1.18 6.14,-8.67 13.58,-6.33l0.04 -1c0.12,-1.11 -1.02,-5.57 -1.24,-7.2 -1.08,-7.87 2.66,-8.55 -4.08,-17.36 -0.63,-0.82 -1.27,-1.95 -2.12,-2.06l-0.54 0.01c0.05,2.25 -2.55,5.91 -4.02,7.61 -0.64,0.73 -0.88,1.07 -1.54,1.47 -0.72,0.44 -1.37,0.7 -1.58,1.34l0.45 11.37c0.29,1.81 -0.21,3.45 -0.54,5.32 -0.66,3.76 0.51,7.04 0.53,11.02 -1.14,-1.1 -1.63,-7.61 -1.58,-8.86 0.11,-2.89 1.13,-6 0.27,-8.99 -0.19,-0.24 -2.33,-0.34 -3.03,-0.48 -3.61,-0.71 -4.5,-1.77 -5.47,-2.1 -0.02,-0.01 -0.08,-0.02 -0.1,-0.02 -0.01,0 -0.06,-0.01 -0.07,-0.01 -0.01,0 -0.05,-0.01 -0.06,-0.01 -0.28,-0.15 -0.15,-0.48 -0.82,-0.79l0.32 1.51z"/>
      <path class="fil32" d="M178.9 337.97c-0.14,-2.66 -1.07,-2.32 -2.34,-3.65 1.07,-1.81 2.81,-1.97 4.25,-4.05 1.09,-1.58 0.57,-1.46 1.47,-1.04 -0.42,-0.79 -0.31,-0.43 -0.68,-0.92 -0.13,-0.18 -0.08,-0.09 -0.29,-0.42 -0.18,-0.28 0.03,-0.05 -0.28,-0.47l-0.04 1c-7.44,-2.34 -13.44,5.15 -13.58,6.33 2.32,1.45 4.54,0.55 6.89,0.39 2.22,-0.15 3.47,2.21 4.57,3.41l0.03 -0.58z"/>
     </g>
     <g>
      <path class="fil28" d="M106.59 328.13l-0.86 1.05c-2.27,3.77 -7.41,3.34 -10.15,4.2 -0.31,-0.73 0.74,-8.42 1.19,-7.68l4.56 -0.68c0.98,-0.3 1.29,-0.49 1.94,-1.01 0.34,-0.27 0.49,-0.41 0.69,-0.69l0.56 -0.95c1,1.38 1.24,4.02 2.07,5.76z"/>
      <path class="fil29" d="M104.52 322.37l-0.56 0.95c-0.2,0.28 -0.35,0.42 -0.69,0.69 -0.65,0.52 -0.96,0.71 -1.94,1.01l-4.56 0.68c-0.45,-0.74 -1.5,6.95 -1.19,7.68 2.74,-0.86 7.88,-0.43 10.15,-4.2l0.86 -1.05c1.37,0.41 3.27,1.71 4.06,2.45 1.37,1.27 1.45,2.69 1.32,4.96 -0.94,0.91 -1.09,2.01 -2.42,2.37 -0.14,-2.19 0.76,-3.34 -1.31,-4.18l0.04 3.83 -4.38 0.98 0.86 1.14c-2.04,0.02 -3.79,2.48 -8.13,-1.47 -2.34,-2.13 -0.87,-0.61 -1.57,-3.53 -0.42,-1.74 -0.16,-3.32 0.22,-4.81 1.15,-4.41 0.15,-5.93 -1.13,-8.9 -0.87,-2.02 -0.87,-3.14 -2.19,-6 -0.38,-0.83 -0.88,-1.1 -0.44,-1.29 -0.45,-0.61 0.64,-0.9 -0.73,-0.35 0.77,-1.45 3.93,-0.23 4.61,0.25 1.31,0.91 1.98,1.45 2.94,2.92 1.41,2.16 5.51,4.45 6.18,5.87z"/>
      <path class="fil19" d="M104.76 339.68l3.59 -0.78c-0.07,1.73 -0.76,1.22 -1.27,2.44l0.87 0.66c1.23,-0.89 2.58,-3.29 3.7,-4.05l-0.05 1.01c-0.09,0.96 -0.53,1.85 -1.31,2.48 -1.34,1.06 -1.11,2.41 -3.35,3.4 -1.94,0.86 -6.71,1.64 -9.22,2 -7.5,1.07 -13.04,-0.75 -16.3,-4.97 -1.99,-2.58 -2.24,-4.6 -2.49,-8.16 -0.4,-5.41 -0.82,-4.76 2.09,-8.49 1.97,-2.53 4.08,-3.68 5.2,-5.7 0.85,-1.53 3.48,-5.62 4.57,-6.19 1.37,-0.55 0.28,-0.26 0.73,0.35 -0.44,0.19 0.06,0.46 0.44,1.29 1.32,2.86 1.32,3.98 2.19,6 1.28,2.97 2.28,4.49 1.13,8.9 -0.38,1.49 -0.64,3.07 -0.22,4.81 0.7,2.92 -0.77,1.4 1.57,3.53 4.34,3.95 6.09,1.49 8.13,1.47z"/>
     </g>
     <g>
      <path class="fil26" d="M79.6 325.28c-0.97,0.35 0.03,0.36 -1.66,2.53 -0.77,0.98 -1.27,1.59 -2.22,2.47 -0.85,0.78 -1.56,1.39 -2.62,2.07 -1.93,1.25 -1.58,0.65 -1.28,3.33 -1.24,-0.51 -0.63,-1.56 -1.88,-2.6 -1.34,-1.11 -6.88,-5.3 -7.18,-6.89 0.54,-0.23 2.02,-0.41 2.57,-0.74 -0.94,-0.39 -2.55,-0.2 -3.73,-0.23 -0.89,-2.44 -0.31,-2.98 1.71,-3.75l-0.97 -0.03c2.09,-1.88 6.38,-0.1 9.06,0.71l7.37 2.43c0.77,0.39 0.42,0.11 0.83,0.7z"/>
      <path class="fil30" d="M93.55 340.06c0.1,-1.15 0.03,-0.31 -0.18,-0.47 -2.43,2.45 -11.54,4.64 -17.46,0.68 -0.99,-0.66 -3.38,-3.18 -3.71,-4.16l1.17 -0.81c3.79,-2.04 2.52,-3.16 6.59,-5.41 0.87,-0.48 0.77,-0.22 0.84,-1.03 2.64,1.78 12.49,7.69 13.14,10.13 0.22,0.84 -0.28,0.97 -0.39,1.07z"/>
      <path class="fil33" d="M79.6 325.28c0.61,0.55 1.13,2.65 1.2,3.58 -0.07,0.81 0.03,0.55 -0.84,1.03 -4.07,2.25 -2.8,3.37 -6.59,5.41l-1.17 0.81c0.33,0.98 2.72,3.5 3.71,4.16 5.92,3.96 15.03,1.77 17.46,-0.68 0.21,0.16 0.28,-0.68 0.18,0.47 -0.12,1.37 -3.21,5.05 -4.1,5.76 -3.02,2.4 -13.35,3.31 -17.53,3.18 -3.17,-0.1 -4.97,-1.37 -7.46,-2.57 -2.09,-1.01 -4.76,-2.62 -6.28,-3.79 -3.03,-2.33 -2.37,-3.02 -2.11,-7.54 0.18,-3.04 0.77,-9.7 2.99,-11.85 0.67,-0.66 2.12,-1.8 3.28,-1.81l0.97 0.03c-2.02,0.77 -2.6,1.31 -1.71,3.75 1.18,0.03 2.79,-0.16 3.73,0.23 -0.55,0.33 -2.03,0.51 -2.57,0.74 0.3,1.59 5.84,5.78 7.18,6.89 1.25,1.04 0.64,2.09 1.88,2.6 -0.3,-2.68 -0.65,-2.08 1.28,-3.33 1.06,-0.68 1.77,-1.29 2.62,-2.07 0.95,-0.88 1.45,-1.49 2.22,-2.47 1.69,-2.17 0.69,-2.18 1.66,-2.53z"/>
     </g>
     <g>
      <path class="fil20" d="M31 338.55c-0.67,1.66 1.46,6.9 2.22,8.36l4.83 0.19c0.04,-0.12 0.07,-0.3 0.09,-0.27 0.01,0.04 0.05,-0.15 0.07,-0.21 0.02,-0.06 0.05,-0.15 0.07,-0.21 0.38,-1.24 0.16,-1.37 2.33,-1.38 -0.88,-0.75 -1.37,-0.4 -1.65,-0.48 -0.19,-1.4 -0.31,-1.48 -0.04,-2.93 -0.56,0.85 -0.39,1.21 -0.32,2.16 -2.19,-1.74 -1.7,0.28 -2.18,-1.62 -0.13,-0.51 -0.33,-2.21 -0.39,-2.86l-3.36 0.15c0.23,-0.88 0.44,-0.88 0.63,-1.66 -0.93,0.44 -1.35,1 -1.63,1.97 -0.58,-0.9 -0.02,-1.08 -0.67,-1.21z"/>
      <path class="fil19" d="M52.03 339.48c-0.38,0.92 -0.17,2.13 -0.14,3.17 -0.76,-0.63 -0.54,-0.62 -0.8,-1.62 -0.08,-0.31 -0.32,-0.75 -0.55,-0.98 -0.82,-0.8 -7.17,-1.68 -8.34,-0.86l0.5 0c0.06,2.22 0.8,5.77 1.47,7.32l2.42 0.02c-0.16,-2.02 -1.7,-2.8 -0.39,-4.99 0.3,0.34 0.14,-0.06 0.29,0.56 0.25,1.05 -0.26,1.26 0.23,2.56 0.5,1.33 0.52,2 1,2.5 1.19,1.21 3.02,2 4.68,2.43 -0.09,-2.41 -0.78,-7.98 -0.37,-10.11z"/>
      <path class="fil21" d="M31 338.55c0.65,0.13 0.09,0.31 0.67,1.21 0.28,-0.97 0.7,-1.53 1.63,-1.97 -0.19,0.78 -0.4,0.78 -0.63,1.66l3.36 -0.15c0.06,0.65 0.26,2.35 0.39,2.86 0.48,1.9 -0.01,-0.12 2.18,1.62 -0.07,-0.95 -0.24,-1.31 0.32,-2.16 0.41,-1.12 1.83,-2.27 3.28,-2.43 1.17,-0.82 7.52,0.06 8.34,0.86 0.23,0.23 0.47,0.67 0.55,0.98 0.26,1 0.04,0.99 0.8,1.62 -0.03,-1.04 -0.24,-2.25 0.14,-3.17 1.48,-0.34 1.36,-1.9 7.1,-0.39 0.58,0.15 2.44,1.04 3.05,1.38 1.18,0.67 0.54,2.09 0.56,3.65 0.73,-0.92 0.7,-2.65 1.25,-3.97 0.64,-1.55 0.4,-2.77 0.78,-4.41l0.28 6.04c0.64,-0.83 0.23,-5.58 0.21,-7 -0.01,-2.13 -0.86,-2.87 -2.75,-4.99 -1.78,-1.98 -2.21,-1.63 -5.06,-2.62 -2.46,-0.86 -4.13,-0.82 -6.8,-0.17 -2.16,0.51 -4.32,0.92 -6.65,1.22 -6.95,0.88 -6.8,-0.87 -10.07,5.5 -0.68,1.34 -0.68,1.19 -1.59,2.08 -0.68,0.67 -1.11,1.63 -1.34,2.75z"/>
      <path class="fil22" d="M52.03 339.48c-0.41,2.13 0.28,7.7 0.37,10.11 -1.66,-0.43 -3.49,-1.22 -4.68,-2.43 -0.48,-0.5 -0.5,-1.17 -1,-2.5 -0.49,-1.3 0.02,-1.51 -0.23,-2.56 -0.15,-0.62 0.01,-0.22 -0.29,-0.56 -1.31,2.19 0.23,2.97 0.39,4.99l-2.42 -0.02c-0.67,-1.55 -1.41,-5.1 -1.47,-7.32l-0.5 0c-1.45,0.16 -2.87,1.31 -3.28,2.43 -0.27,1.45 -0.15,1.53 0.04,2.93 0.28,0.08 0.77,-0.27 1.65,0.48 0.6,0.16 0.38,0.14 0.36,0.95l-1.57 0.12c-0.08,2.44 -0.74,1.39 0.12,2.04 1.16,0.89 4.88,-1.23 6.12,0.52 0.99,0.26 1.1,0.86 2.19,1.44 2.9,1.54 7.04,0.55 9.96,-0.26 2.55,-0.71 3.57,-1.05 4.82,-2.95 0.83,-1.27 2.53,-3.73 2.44,-5.11l-0.28 -6.04c-0.38,1.64 -0.14,2.86 -0.78,4.41 -0.55,1.32 -0.52,3.05 -1.25,3.97 -0.02,-1.56 0.62,-2.98 -0.56,-3.65 -0.61,-0.34 -2.47,-1.23 -3.05,-1.38 -5.74,-1.51 -5.62,0.05 -7.1,0.39z"/>
     </g>
     <g>
      <path class="fil23" d="M18.67 344.82c0.75,0.03 1.55,0.03 2.42,0.03 0,0 0.59,0.11 0.59,0.11 1.96,0.04 3.33,0.18 5.28,0.18 1.67,0.01 3.9,-0.39 5.11,-0.28 -0.02,0.42 -0.06,0.67 0,1.1 0.1,0.66 0.22,0.6 0.22,0.6 0.3,0.98 0.73,-0.73 -0.03,0.34 -0.03,0.04 -0.22,0.21 -0.25,0.24l-0.34 0.32c-1.34,0.54 -8.83,1.34 -11.39,1.22 -0.55,-1.28 -1.08,-2.57 -1.61,-3.86z"/>
      <path class="fil24" d="M31.67 347.46l0.34 -0.32c0.03,-0.03 0.22,-0.2 0.25,-0.24 0.76,-1.07 0.33,0.64 0.03,-0.34 0,0 -0.12,0.06 -0.22,-0.6 -0.06,-0.43 -0.02,-0.68 0,-1.1 -1.21,-0.11 -3.44,0.29 -5.11,0.28 -1.95,0 -3.32,-0.14 -5.28,-0.18 -1.21,-0.22 -2.19,-0.26 -3.06,-0.28 -1.33,-3.23 -2.58,-6.49 -3.76,-9.75 0.64,0.22 1.28,0.43 1.95,0.6 3.34,0.83 10.33,1.11 11.15,1.44 1.04,0.42 1.24,2.82 2.47,3.77 -0.21,-1.65 -1.19,-2.57 -1.18,-4.02 1.71,-0.73 2.38,-0.86 3.87,-2.08 0.07,-0.05 0.41,-0.36 0.46,-0.42 0.35,-0.42 0.09,0.08 0.39,-0.63 -3.07,0.26 -2.21,3.6 -10.67,1.92 -2.08,-0.41 -3.91,-0.46 -5.99,-0.93 -0.55,-0.13 -1.77,-0.53 -2.88,-0.85l-0.09 -0.26c0.96,0.13 1.83,0.3 2.82,0.34 2.83,0.11 7.85,0.36 10.43,-0.45 3.89,-1.22 1.68,-1.29 3.01,-2.01 -0.6,-0.36 -0.13,-0.15 -0.81,-0.5l0.39 -0.16c1.1,0.08 3.87,1.83 4.53,2.94 0.92,1.56 1.83,3.6 2.56,5.31 1.21,2.8 1.45,3.31 -0.6,5.42 -0.82,0.84 -3.33,2.77 -5,3.1z"/>
      <path class="fil25" d="M30.18 330.69l-0.39 0.16c0.68,0.35 0.21,0.14 0.81,0.5 -1.33,0.72 0.88,0.79 -3.01,2.01 -2.58,0.81 -7.6,0.56 -10.43,0.45 -0.99,-0.04 -1.86,-0.21 -2.82,-0.33 -0.8,-2.26 -1.57,-4.52 -2.3,-6.79l2.06 -0.36c5.49,-0.17 6.49,0.01 11.34,2.05l4.2 1.85c0.53,0.34 0.23,0.11 0.54,0.46zm-15.75 3.04c1.11,0.32 2.33,0.72 2.88,0.85 2.08,0.47 3.91,0.52 5.99,0.93 8.46,1.68 7.6,-1.66 10.67,-1.92 -0.3,0.71 -0.04,0.21 -0.39,0.63 -0.05,0.06 -0.39,0.37 -0.46,0.42 -1.49,1.22 -2.16,1.35 -3.87,2.08 -0.01,1.45 0.97,2.38 1.18,4.02 -1.23,-0.95 -1.43,-3.35 -2.47,-3.77 -0.82,-0.33 -7.81,-0.61 -11.15,-1.44 -0.67,-0.17 -1.31,-0.38 -1.95,-0.6 -0.14,-0.4 -0.29,-0.8 -0.43,-1.2z"/>
     </g>
    </g>
   </g>
  </g>
 </g>
</svg>
