<svg
   id="svg8"
   version="1.1"
   viewBox="0 0 50 50"
   height="50mm"
   width="50mm"
   xml:space="preserve"
   xmlns:xlink="http://www.w3.org/1999/xlink"
   xmlns="http://www.w3.org/2000/svg">
    <defs
     id="defs2"><linearGradient
       id="linearGradient22643"><stop
         style="stop-color:#375d9f;stop-opacity:1;"
         offset="0"
         id="stop22639" /><stop
         style="stop-color:#384870;stop-opacity:1;"
         offset="1"
         id="stop22641" /></linearGradient><linearGradient
       id="linearGradient22566"><stop
         style="stop-color:#f2a491;stop-opacity:1;"
         offset="0"
         id="stop22562" /><stop
         style="stop-color:#8eb3cf;stop-opacity:1;"
         offset="0.41778976"
         id="stop22564" /></linearGradient><linearGradient
       id="linearGradient17184"><stop
         style="stop-color:#ffffff;stop-opacity:1;"
         offset="0.50673854"
         id="stop17180" /><stop
         style="stop-color:#efe4be;stop-opacity:1;"
         offset="1"
         id="stop17182" /></linearGradient><linearGradient
       id="linearGradient7816"><stop
         id="stop15177"
         offset="0.2264151"
         style="stop-color:#8fc2c5;stop-opacity:1;" /><stop
         id="stop7812"
         offset="0.43126687"
         style="stop-color:#b5d1c3;stop-opacity:1;" /><stop
         id="stop7814"
         offset="1"
         style="stop-color:#e5e0bf;stop-opacity:1;" /></linearGradient><linearGradient
       id="linearGradient2455"><stop
         id="stop2447"
         offset="0"
         style="stop-color:#fbe8bd;stop-opacity:1;" /><stop
         style="stop-color:#d5dbc1;stop-opacity:1;"
         offset="0.39518833"
         id="stop2449" /><stop
         style="stop-color:#94c6c6;stop-opacity:1;"
         offset="0.65719855"
         id="stop2451" /><stop
         id="stop2453"
         offset="1"
         style="stop-color:#2d7ab8;stop-opacity:1;" /></linearGradient><linearGradient
       id="linearGradient1006"><stop
         id="stop1002"
         offset="0"
         style="stop-color:#ffffff;stop-opacity:1" /><stop
         id="stop1004"
         offset="1"
         style="stop-color:#0c9ca6;stop-opacity:1" /></linearGradient><linearGradient
       id="linearGradient998"><stop
         id="stop994"
         offset="0"
         style="stop-color:#fbecfd;stop-opacity:1" /><stop
         style="stop-color:#fbd4f9;stop-opacity:1"
         offset="0.30084872"
         id="stop960" /><stop
         style="stop-color:#f46cec;stop-opacity:1"
         offset="0.48738721"
         id="stop958" /><stop
         id="stop996"
         offset="1"
         style="stop-color:#2b1562;stop-opacity:1" /></linearGradient><radialGradient
       gradientUnits="userSpaceOnUse"
       gradientTransform="matrix(0.00113747,-1.0167601,1.0243894,0.0011489,-11.090646,-1.315701)"
       r="25.000001"
       fy="42.392902"
       fx="31.438482"
       cy="42.392902"
       cx="31.438482"
       id="radialGradient1000"
       xlink:href="#linearGradient998" /><radialGradient
       gradientTransform="matrix(0.00279899,0.6185787,-0.99998976,0.00452483,68.397857,-39.118526)"
       gradientUnits="userSpaceOnUse"
       r="24.999975"
       fy="35.676865"
       fx="21.644688"
       cy="35.676865"
       cx="21.644688"
       id="radialGradient1008"
       xlink:href="#linearGradient1006" /><linearGradient
       xlink:href="#linearGradient2455"
       id="linearGradient5700"
       x1="24.669399"
       y1="32.672649"
       x2="24.999998"
       y2="1.4757635e-06"
       gradientUnits="userSpaceOnUse" /><linearGradient
       xlink:href="#linearGradient7816"
       id="linearGradient13724"
       x1="25"
       y1="49.999977"
       x2="24.806145"
       y2="29.690369"
       gradientUnits="userSpaceOnUse" /><linearGradient
       xlink:href="#linearGradient17184"
       id="linearGradient17186"
       x1="23.919428"
       y1="9.6647673"
       x2="37.408257"
       y2="32.331436"
       gradientUnits="userSpaceOnUse" /><linearGradient
       xlink:href="#linearGradient22566"
       id="linearGradient22568"
       x1="34.995327"
       y1="25.681305"
       x2="26.002991"
       y2="33.207092"
       gradientUnits="userSpaceOnUse" /><linearGradient
       xlink:href="#linearGradient22643"
       id="linearGradient22645"
       x1="27.734179"
       y1="17.369226"
       x2="17.216543"
       y2="33.688541"
       gradientUnits="userSpaceOnUse" /></defs><circle
     style="fill:url(#linearGradient13724);fill-opacity:1;fill-rule:evenodd;stroke-width:2.2947"
     id="circle5702"
     cx="25"
     cy="25"
     r="24.999975" /><path
     id="path393"
     style="fill:url(#linearGradient5700);fill-opacity:1;fill-rule:evenodd;stroke-width:2.2947"
     d="M 24.982817,1.4757635e-6 C 11.182403,0.00947343 -1.6985847e-5,11.199585 -1.9749516e-7,25.000002 2.2560414e-5,27.76134 0.12011045,29.434581 1.0165075,32.046374 l 39.9499175,-0.331538 7.679654,1.400555 C 49.542476,30.503598 49.999977,27.76134 50,25.000002 50.000014,11.192877 38.807124,-1.2331381e-5 24.999999,1.4757635e-6 h -0.01718 z"/><path
     style="fill:url(#linearGradient17186);fill-opacity:1;stroke-width:5.91799"
     d="m 23.841018,9.5814342 -0.942419,1.8227038 -4.570856,4.776242 9.641709,16.652113 7.897863,-0.163095 7.737711,-0.473355 -12.566883,-15.670248 0.345144,-0.840198 -0.100391,-0.395799 C 30.793349,14.426088 30.31408,14.361341 29.402497,14.143038 28.0319,13.708396 26.909534,11.79168 26.059321,11.62606 25.471425,11.395842 24.964536,11.299978 24.418153,10.720873 Z"
     id="path649"/><path
     style="fill:#8eb3cf;fill-opacity:1;stroke-width:5.91799"
     d="M 1.202987,32.661653 16.669402,32.959331 30.64878,30.451777 30.541597,27.508671 C 26.599852,23.394727 25.396691,17.914467 23.101088,12.799027 L 12.252766,26.804813 5.3972102,29.237757 C 2.2959522,31.407148 0.77594,31.30763 1.202987,32.661653 Z"
     id="path18631" /><path
     style="fill:#f2a491;stroke-width:0.0833333"
     d="m 36.660988,29.304517 c 11.62193,-7.233309 -0.770694,3.895137 -4.106505,1.231387 5.212885,-6.833201 -1.007254,-5.474145 -2.304895,-8.06682 1.284442,1.402362 3.190156,-0.538137 0.312621,-0.828144 -1.671765,-1.416611 1.29433,0.462978 0.05467,-1.60281 0.02604,-0.06787 0.10174,-0.123396 0.168214,-0.123396 0.14106,0 0.663177,-0.262735 0.703812,-0.354167 0.01528,-0.03438 0.07689,-0.0625 0.136918,-0.0625 0.06003,0 0.130725,-0.05625 0.157107,-0.125 0.0732,-0.190757 0.310055,-0.149613 0.569471,0.09892 0.12855,0.123159 0.233727,0.182534 0.233727,0.131944 0,-0.05059 -0.04687,-0.109488 -0.104167,-0.130888 -0.06824,-0.02549 -0.04972,-0.06129 0.05372,-0.103817 0.104745,-0.04306 0.188886,-0.02283 0.25,0.06011 0.05066,0.06876 0.136708,0.109991 0.19121,0.09162 0.0545,-0.01837 0.260751,0.06164 0.458333,0.1778 0.197582,0.116161 0.471739,0.273291 0.609239,0.349179 4.690056,4.764005 7.107652,5.418857 11.481739,6.283483 2.058297,0.100124 2.736853,2.466587 4.160541,2.613589 0,0 -1.040664,4.170384 -1.040661,4.170384 0,0 -11.614921,0.01112 -11.985091,-3.810874 z M 26.8917,16.783503 c 0.03038,-0.07916 0.0878,-0.09246 0.181896,-0.0421 0.07563,0.04047 0.325003,0.100189 0.55417,0.132708 0.229167,0.03252 0.585417,0.135491 0.791667,0.228825 0.728771,0.263931 0.617284,0.167404 0.125,-0.200115 l 0.291666,0.05285 c 0.538262,0.09753 0.75,0.103395 0.75,0.02077 0,-0.04514 0.05625,-0.0354 0.125,0.02166 0.189143,0.156974 0.150657,0.249847 -0.104166,0.251371 -0.221318,0.0013 -0.217973,0.0078 0.09769,0.1875 0.343785,0.19577 0.559907,0.495818 0.229932,0.319221 -0.244923,-0.131079 -0.325145,-0.112731 -0.135215,0.03092 0.15614,0.118097 0.154494,0.122441 -0.04736,0.125 0.328448,0.256913 -1.897099,-0.174888 -2.86028,-1.12861 z m 0.944399,-0.160402 c -0.199499,-0.114044 -0.200671,-0.119219 -0.02765,-0.122047 0.233559,-0.0038 0.444316,0.07807 0.444316,0.172629 0,0.107837 -0.177163,0.08633 -0.416667,-0.05058 z m -1.378321,-0.07546 c -0.149906,-0.109615 -0.145647,-0.114346 0.06643,-0.0738 0.124635,0.02382 0.206085,0.07653 0.180997,0.117123 -0.05862,0.09486 -0.05842,0.09489 -0.247432,-0.04332 z m -0.52382,-0.159081 c -0.207874,-0.221272 -0.245305,-0.380745 -0.05164,-0.22002 0.126579,0.105052 0.322596,0.412891 0.262908,0.412891 -0.01654,0 -0.111609,-0.08679 -0.211266,-0.192871 z m 1.164078,0.03534 c -0.06952,-0.04405 -0.08091,-0.09151 -0.02957,-0.123245 0.04592,-0.02838 0.105001,0.0044 0.131282,0.07292 0.05522,0.143899 0.05002,0.146473 -0.101716,0.05033 z m -0.517486,-0.163544 -0.19068,-0.154403 0.258869,0.03799 c 0.178626,0.02622 0.245023,0.07408 0.214199,0.154403 -0.05627,0.14665 -0.05398,0.146958 -0.282388,-0.03799 z m 2.55213,-0.128027 c -0.297182,-0.2495 -0.541485,-0.311164 -0.838247,-0.211577 -0.04583,0.01538 -0.282233,-0.0214 -0.525332,-0.08174 -0.440398,-0.109305 -0.663593,-0.06836 -0.430588,0.079 0.06742,0.04264 0.103836,0.08097 0.08092,0.08518 -0.02292,0.0042 -0.107143,0.02019 -0.18717,0.03552 -0.08003,0.01533 -0.166614,-0.0063 -0.192418,-0.04804 -0.0258,-0.04175 -0.156487,-0.07591 -0.290409,-0.07591 -0.248804,0 -0.249929,-0.0018 -0.368651,-0.603262 -0.02598,-0.131598 -0.01231,-0.133514 0.148562,-0.02083 0.09744,0.06825 0.260363,0.124095 0.362043,0.124095 0.10168,0 0.204941,0.03247 0.229469,0.07216 0.02453,0.03969 0.142979,0.05335 0.263224,0.03036 l 0.218628,-0.04179 -0.264486,-0.16746 c -0.179282,-0.113513 -0.232022,-0.187524 -0.163714,-0.229741 0.07116,-0.04398 0.05009,-0.0894 -0.07168,-0.15457 -0.228303,-0.122184 -0.266737,-0.116762 -0.266737,0.03763 0,0.07145 -0.0375,0.106741 -0.08333,0.07841 -0.04583,-0.02833 -0.08333,-0.13402 -0.08333,-0.234873 0,-0.100853 -0.075,-0.230208 -0.166667,-0.287455 -0.09167,-0.05725 -0.166667,-0.151648 -0.166667,-0.209782 0,-0.05813 -0.153756,-0.254691 -0.34168,-0.436794 -0.651663,-0.631478 -0.826101,-0.828326 -0.877483,-0.990217 -0.07899,-0.248869 -0.513758,-0.818011 -0.736503,-0.964129 -0.256066,-0.167978 -0.50453,-0.487596 -0.584394,-0.75175 -0.03464,-0.114584 -0.115336,-0.268129 -0.17932,-0.34121 -0.101242,-0.11564 -0.08538,-0.17183 0.122299,-0.433157 l 0.238631,-0.300279 0.0073,0.256591 c 0.0054,0.191064 0.109728,0.357488 0.408392,0.651671 0.601966,0.592934 0.64794,0.65442 1.023728,1.36913 0.191175,0.363594 0.419916,0.753027 0.508313,0.865405 0.0884,0.112379 0.160721,0.267179 0.160721,0.343999 0,0.09789 0.125163,0.171753 0.41842,0.246912 0.276025,0.07074 0.537817,0.218575 0.769265,0.434397 0.33736,0.314583 0.600629,0.428071 1.228982,0.52978 0.310998,0.05034 0.572733,0.140136 1.155713,0.396504 0.368287,0.161955 1.01805,0.313331 1.461343,0.340449 0.159715,0.0098 0.249337,0.06442 0.26346,0.160641 0.01177,0.08021 -0.03153,0.145833 -0.09622,0.145833 -0.140341,0 -0.145518,0.04217 -0.03136,0.255479 0.05947,0.11111 0.05947,0.161188 0,0.161188 -0.04745,0 -0.08627,-0.04003 -0.08627,-0.08895 0,-0.04972 -0.07041,-0.0666 -0.159654,-0.03828 -0.08781,0.02787 -0.183772,0.01165 -0.213251,-0.03605 -0.09476,-0.153328 -0.223451,-0.09237 -0.168762,0.07994 0.06522,0.20548 -0.08307,0.22032 -0.208172,0.02083 -0.07737,-0.12337 -0.08305,-0.115345 -0.03688,0.0521 0.05839,0.211773 -0.02126,0.197507 -0.317448,-0.05686 -0.107704,-0.09249 -0.145833,-0.09757 -0.145833,-0.01941 0,0.07778 -0.05445,0.07016 -0.205402,-0.02875 -0.29181,-0.191202 -0.405863,-0.175818 -0.290778,0.03922 0.143687,0.268483 0.06331,0.257538 -0.290573,-0.03957 z M 26.836099,15.66476 c 0,-0.04583 -0.08438,-0.08276 -0.1875,-0.08206 -0.15162,10e-4 -0.16358,0.01673 -0.0625,0.08206 0.161564,0.10441 0.25,0.10441 0.25,0 z m 0.709174,0.415307 c 0.02879,-0.04658 0.08725,-0.06312 0.129918,-0.03675 0.115587,0.07144 0.09403,0.121441 -0.05234,0.121441 -0.07146,0 -0.106364,-0.03811 -0.07757,-0.08469 z m -1.605007,-0.247719 c -0.253685,-0.154675 -0.310082,-0.148347 -0.276982,0.03108 0.0075,0.04051 -0.105272,0.04989 -0.250548,0.02083 -0.145275,-0.02905 -0.296949,-0.05283 -0.337053,-0.05283 -0.04011,0 -0.07292,-0.0375 -0.07292,-0.08333 0,-0.04583 0.09734,-0.08333 0.216302,-0.08333 0.118967,0 0.330154,-0.08107 0.469305,-0.180154 0.317513,-0.226089 0.522726,-0.127262 0.522726,0.251736 v 0.261439 c 0,-1.66e-4 -0.121875,-0.07462 -0.270833,-0.165441 z m 0.145833,-0.250914 c 0,-0.04583 -0.01654,-0.08333 -0.03675,-0.08333 -0.02021,0 -0.05992,0.0375 -0.08825,0.08333 -0.02833,0.04583 -0.01179,0.08333 0.03675,0.08333 0.04854,0 0.08825,-0.0375 0.08825,-0.08333 z"
     id="path368" /><path
     style="fill:#8eb3cf;stroke-width:0.0833333"
     d="m 31.502762,25.549969 c 0,-0.0173 0.06563,-0.08293 0.145833,-0.145833 0.132172,-0.103656 0.135119,-0.100709 0.03146,0.03146 -0.108861,0.138815 -0.177293,0.18296 -0.177293,0.114373 z"
     id="path366" /><path
     style="fill:url(#linearGradient22568);fill-opacity:1;stroke-width:5.91799"
     d="M 26.00299,31.285116 25.63998,22.95102 c 1.319683,-3.645485 4.5249,2.917199 7.434817,0.883637 l 1.529433,2.550304 11.01418,5.710883 -14.933214,1.111247 z"
     id="path22560" /><path
     style="fill:#4c68a1;stroke-width:0.0833333"
     d="m 23.334742,15.70728 c 0.04658,-0.02879 0.08469,-0.01538 0.08469,0.0298 0.309569,0.297952 -0.01635,0.142595 -0.08469,-0.0298 z m -3.448788,-0.0096 c -0.05711,-0.148836 0.04401,-0.211289 0.1712,-0.10573 0.06126,0.05084 0.184169,0.07341 0.273119,0.05015 0.08895,-0.02326 0.177997,4.17e-4 0.19788,0.05267 -0.193628,0.167375 -0.419118,0.08795 -0.642199,0.0029 z m 1.533479,0.0553 c 0,-0.04313 0.03707,-0.101326 0.08238,-0.129328 0.04724,-0.0292 0.06121,0.0043 0.03275,0.07841 -0.0554,0.144368 -0.11513,0.170782 -0.11513,0.05091 z m -1.280136,-0.296585 c -0.02638,-0.06875 -0.01164,-0.125 0.03275,-0.125 0.0444,0 0.08072,0.05625 0.08072,0.125 0,0.06875 -0.01474,0.125 -0.03275,0.125 -0.01801,0 -0.05434,-0.05625 -0.08072,-0.125 z m -0.510963,-0.04075 c -0.02904,-0.04699 0.0152,-0.106654 0.09832,-0.132592 0.08311,-0.02594 0.21674,-0.08224 0.296948,-0.125118 0.228853,-0.122335 0.170764,-0.02231 -0.09832,0.16929 -0.151511,0.107885 -0.264183,0.141435 -0.296949,0.08842 z m 0.909652,-0.288603 c -0.03118,-0.124224 -0.09223,-0.189597 -0.148276,-0.158778 -0.0524,0.02881 0.0067,-0.05383 0.131364,-0.183657 0.264936,-0.275927 0.356571,-0.246119 0.195833,0.0637 -0.07372,0.142099 -0.08457,0.245981 -0.03127,0.29929 0.05331,0.05331 0.05105,0.100557 -0.0065,0.136127 -0.0497,0.03072 -0.11127,-0.03763 -0.141151,-0.156685 z m 1.142549,0.162683 c 0.09715,-0.253506 0.671155,-1.303854 0.697918,-1.277091 0.04101,0.04101 -0.524614,1.167826 -0.64105,1.277091 -0.0592,0.05556 -0.07816,0.05556 -0.05687,0 z m 1.338898,-0.225 c -0.13697,-0.13697 -0.125515,-0.358417 0.025,-0.483334 0.07547,-0.06263 0.125,-0.06943 0.125,-0.01715 0,0.04763 -0.04687,0.105507 -0.104167,0.128625 -0.07692,0.03104 -0.07425,0.04375 0.0102,0.04861 0.08893,0.0051 0.09267,0.03273 0.01679,0.12416 -0.07463,0.08993 -0.07434,0.131944 0.0012,0.178651 0.05595,0.03458 0.157108,-0.0089 0.233213,-0.100349 0.07392,-0.08878 0.206048,-0.216049 0.29362,-0.282818 0.150609,-0.114832 0.153034,-0.111462 0.04482,0.06231 -0.06292,0.10104 -0.131206,0.166904 -0.151746,0.146363 -0.02054,-0.02054 -0.08971,0.03741 -0.153714,0.12879 -0.134482,0.192 -0.201381,0.205004 -0.340249,0.06614 z m -0.605606,-0.587202 c 0.316158,-0.580231 0.812571,-1.226943 0.943106,-1.228652 0.15182,-0.002 0.03604,0.236296 -0.283048,0.582552 -0.190051,0.20623 -0.472453,0.571838 -0.627561,0.812463 -0.155107,0.240625 -0.299905,0.4375 -0.321772,0.4375 -0.02187,0 0.108306,-0.271738 0.289275,-0.603863 z m -0.826452,0.244312 c -6.67e-4,-0.03734 0.07687,-0.249545 0.172387,-0.471574 0.138019,-0.320836 0.154521,-0.439454 0.0804,-0.577948 -0.105924,-0.197921 -0.250897,-0.222129 -0.419757,-0.07009 -0.06445,0.05803 -0.05286,0.01189 0.02616,-0.104167 0.598334,-0.878771 0.753889,-1.073999 0.822135,-1.03182 0.04285,0.02648 0.15054,-0.01759 0.239319,-0.09793 0.08878,-0.08034 0.162047,-0.112141 0.16282,-0.07066 7.5e-4,0.04148 0.08122,-0.04924 0.178762,-0.201597 0.185664,-0.289985 0.323169,-0.24135 0.311979,0.110346 -0.0029,0.09167 -0.02351,0.121899 -0.04578,0.06718 -0.05457,-0.13413 -0.279704,-0.0396 -0.279704,0.117435 0,0.09185 0.0554,0.111214 0.208334,0.07283 0.14924,-0.03746 0.208333,-0.0186 0.208333,0.0665 0,0.07786 -0.05757,0.103731 -0.167111,0.07509 -0.09191,-0.02404 -0.230359,0.0076 -0.307662,0.0703 -0.09606,0.07792 -0.120745,0.08103 -0.07797,0.0098 0.04356,-0.0725 -0.0023,-0.104167 -0.15067,-0.104167 -0.117288,0 -0.213252,0.03497 -0.213252,0.07772 0,0.04275 -0.07095,0.100236 -0.157669,0.12776 -0.08672,0.02752 -0.176504,0.122067 -0.199525,0.210098 -0.03938,0.150577 -0.03004,0.152313 0.157669,0.02932 0.109739,-0.0719 0.199525,-0.16667 0.199525,-0.210593 0,-0.04392 0.05823,-0.06773 0.129402,-0.05292 0.153682,0.032 0.165361,0.191467 0.01411,0.192732 -0.118336,9.92e-4 -0.560181,0.327832 -0.560181,0.414379 0,0.0309 0.117257,-0.02731 0.260571,-0.129362 l 0.260571,-0.185543 -0.156178,0.238359 c -0.153567,0.234373 -0.153474,0.237321 0.0056,0.176283 0.149714,-0.05745 0.151957,-0.05094 0.03011,0.08734 -0.07241,0.08218 -0.22818,0.336919 -0.346148,0.566086 -0.24992,0.485497 -0.384773,0.694381 -0.38657,0.598782 z m 0.498724,-1.145367 c 0,-0.04313 -0.0375,-0.07841 -0.08333,-0.07841 -0.04583,0 -0.08333,0.05846 -0.08333,0.129918 0,0.07146 0.0375,0.106742 0.08333,0.07841 0.04583,-0.02833 0.08333,-0.08679 0.08333,-0.129918 z m -0.581391,0.312009 c 0.207915,-0.35239 0.278238,-0.397321 0.167982,-0.107326 -0.04177,0.10987 -0.05022,0.231745 -0.01877,0.270834 0.03145,0.03909 0.02313,0.04327 -0.01849,0.0093 -0.04162,-0.03398 -0.128821,-0.01766 -0.19379,0.03626 -0.06497,0.05392 -0.03659,-0.04016 0.06306,-0.209056 z m 2.081391,0.151243 c 0,-0.06875 0.01474,-0.125 0.03275,-0.125 0.01801,0 0.05434,0.05625 0.08072,0.125 0.02638,0.06875 0.01164,0.125 -0.03275,0.125 -0.0444,0 -0.08072,-0.05625 -0.08072,-0.125 z m -1.166666,-0.19845 c 0,-0.04583 0.0375,-0.106509 0.08333,-0.134836 0.04583,-0.02833 0.08333,-0.014 0.08333,0.03183 0,0.04583 -0.0375,0.106509 -0.08333,0.134836 -0.04583,0.02833 -0.08333,0.014 -0.08333,-0.03183 z m 0.165235,-0.427387 c -0.0931,-0.05754 -0.05004,-0.104265 0.187619,-0.203566 0.422537,-0.176548 0.53816,-0.164076 0.355016,0.03829 -0.08321,0.09195 -0.169948,0.148523 -0.192748,0.125723 -0.0228,-0.0228 -0.08366,-0.0064 -0.13525,0.03639 -0.05591,0.0464 -0.142607,0.04768 -0.214637,0.0032 z m 0.251431,-0.447245 c 0,-0.01731 0.06563,-0.08293 0.145834,-0.145834 0.132171,-0.103656 0.135119,-0.100708 0.03146,0.03146 -0.108864,0.138812 -0.177297,0.182956 -0.177297,0.11437 z m 0.380358,-0.110776 c -0.04522,-0.118767 -0.03565,-0.128339 0.04665,-0.04665 0.05695,0.05653 0.08256,0.12377 0.0569,0.149427 -0.02566,0.02566 -0.07225,-0.02059 -0.103548,-0.102777 z m -0.87039,-0.686527 c 0.161191,-0.254033 0.323366,-0.315531 0.323366,-0.122623 0,0.08021 -0.02508,0.120751 -0.05574,0.0901 -0.03066,-0.03065 -0.132504,0.01 -0.226331,0.09028 -0.168351,0.144097 -0.168894,0.143337 -0.0413,-0.05775 z m 0.156699,-0.393079 c 0,-0.08282 0.417087,-0.778155 0.466764,-0.778155 0.02369,0 0.0215,0.03491 -0.0049,0.07757 -0.02637,0.04267 -0.0098,0.10113 0.03675,0.129918 0.111819,0.06911 0.109101,0.292507 -0.0036,0.292507 -0.04854,0 -0.06508,-0.0375 -0.03675,-0.08333 0.08383,-0.135645 -0.01181,-0.09498 -0.13563,0.05766 -0.07771,0.09581 -0.08098,0.120938 -0.0102,0.07841 0.05729,-0.03442 0.104167,-0.02419 0.104167,0.02274 0,0.04693 -0.07254,0.124139 -0.161188,0.171585 -0.186817,0.100024 -0.255413,0.108372 -0.255413,0.0311 z m 0.666667,-1.033073 c 0,-0.04854 0.04152,-0.06259 0.09226,-0.03123 0.06152,0.03802 0.07427,3.33e-4 0.03828,-0.113069 -0.03116,-0.09818 -0.01134,-0.196448 0.0469,-0.23244 0.06939,-0.04289 0.08428,-0.01906 0.04767,0.07632 -0.02927,0.07627 -0.01689,0.13867 0.0275,0.13867 0.114147,0 0.100198,-0.195671 -0.02345,-0.328931 -0.08482,-0.09141 -0.07836,-0.103225 0.03477,-0.0636 0.08255,0.02892 0.158645,-0.0027 0.1875,-0.07789 0.07665,-0.1997415 0.05699,-0.2946323 -0.04765,-0.2299648 -0.05961,0.03684 -0.07359,0.02286 -0.03675,-0.036748 0.0327,-0.052915 0.112569,-0.096209 0.17748,-0.096209 0.09188,0 0.100236,0.046774 0.03771,0.2112242 -0.04417,0.1161736 -0.07137,0.2429076 -0.06044,0.2816306 0.01093,0.03872 -0.06563,0.187423 -0.170125,0.330443 -0.189664,0.259584 -0.351671,0.338721 -0.351671,0.171785 z"
     id="path360" /><path
     style="fill:url(#linearGradient22645);fill-opacity:1;stroke-width:0.0833333"
     d="m 1.202987,32.661653 c 21.308005,-0.747 20.914016,-3.652404 24.383082,-3.159702 0,0.03605 0.0573,-0.02128 0,0 2.308162,0.95036 1.677094,0.454006 3.937864,-1.13708 0.180795,-2.674464 2.219926,-3.600103 3.550864,-4.530214 0,0 1.528207,2.484016 4.988349,3.008747 0.670166,0.441369 2.684676,1.531611 2.312294,1.799436 -1.058233,0.761104 -3.616427,1.105268 -3.616427,1.105268 -0.135517,0.04796 -6.9185,1.315228 -2.861543,2.025392 2.175287,0.139939 4.254333,0.877967 7.529749,-0.498111 1.884322,-0.791647 6.007438,0.656699 7.218863,1.840002 -9.833097,1.991976 -39.3416667,-0.167942 -47.44309,-0.453737 z m 27.289108,-7.744618 -0.99713,1.175544 c -5.848878,-0.205778 -3.364337,2.492475 -14.41488,4.920911 5.871359,-2.021913 5.353912,-3.253203 8.207255,-7.616099 -0.32482,0.492804 4.79308,-3.159334 4.817599,-2.205555 0.0259,1.007445 1.549403,1.849114 2.387156,3.725199 z M 18.420127,16.499151 c -0.143971,-0.08978 -0.07343,-0.170708 0.280111,-0.321384 0.192683,-0.08212 0.231193,-0.08115 0.198227,0.005 -0.02891,0.07555 0.05421,0.107404 0.283241,0.10856 0.216394,0.0011 0.311539,-0.03124 0.286202,-0.09727 -0.05864,-0.152809 0.187622,-0.206073 0.270236,-0.05845 0.06603,0.117989 0.07811,0.117653 0.124588,-0.0035 0.02921,-0.07612 0.0094,-0.134122 -0.04592,-0.134122 -0.149066,0 0.02922,-0.138585 0.269281,-0.209319 0.114584,-0.03376 0.180447,-0.03197 0.146364,0.004 -0.07287,0.07687 0.256975,0.329765 0.332109,0.254633 0.02806,-0.02807 -0.02124,-0.105698 -0.109556,-0.172517 -0.08832,-0.06682 -0.1183,-0.122681 -0.06662,-0.124139 0.05168,-0.0015 0.142207,0.05548 0.201174,0.126533 0.08865,0.106816 0.08268,0.153706 -0.03448,0.270833 -0.104301,0.104274 -0.157929,0.115383 -0.203238,0.0421 -0.07585,-0.122672 -0.36953,-0.08913 -0.415041,0.0474 -0.02222,0.06666 0.03875,0.08689 0.182983,0.06074 0.118966,-0.02157 0.216302,-0.0042 0.216302,0.03859 0,0.0428 0.02812,0.07337 0.0625,0.06795 -0.01371,1.817102 0.317354,0.97208 1.694365,-0.102259 0.390734,-0.302058 0.846497,-0.971214 0.661495,-0.971214 -0.04676,0 -0.08503,-0.04187 -0.08503,-0.09305 0,-0.05205 0.0735,-0.07383 0.166781,-0.04944 0.100464,0.02627 0.146019,0.01002 0.114564,-0.04087 -0.03236,-0.05236 0.01246,-0.06396 0.117872,-0.0305 0.09355,0.02969 0.194587,0.01435 0.224528,-0.0341 0.02994,-0.04845 0.08892,-0.06677 0.131058,-0.04073 0.04249,0.02626 0.05257,-0.01953 0.02263,-0.102808 -0.0297,-0.08259 -0.02541,-0.12443 0.0095,-0.09298 0.03493,0.03145 0.152223,-0.04355 0.260644,-0.166666 0.139061,-0.157911 0.197905,-0.185801 0.199762,-0.09468 0.0014,0.07104 -0.04237,0.174167 -0.09737,0.229167 -0.07778,0.07778 -0.05964,0.1 0.08164,0.1 0.771042,0.991102 2.20116,4.746255 1.608181,5.830397 -0.930087,1.700478 -5.525169,6.083203 -8.150757,6.78672 -1.414229,0.378937 -2.150606,-1.442604 -3.374072,-1.102278 -1.502852,0.418043 -4.7323336,1.544991 -5.1636226,1.882869 2.0751276,-2.778959 7.9945846,-7.323186 9.5993686,-11.813216 z m 0.555378,-0.0071 c -12.6503367,-10.99469 -6.325168,-5.497345 0,0 z m 3.319915,-3.215485 0.145155,-0.221536 -0.260571,0.185543 c -0.33093,0.235643 -0.333931,0.114456 -0.0036,-0.146575 0.193343,-0.152795 0.273179,-0.17464 0.363698,-0.09952 0.09237,0.07666 0.111496,0.06562 0.09396,-0.05423 -0.02252,-0.153939 -0.297933,-0.269039 -0.297933,-0.124512 0,0.04392 -0.08979,0.138689 -0.199525,0.210593 -0.184287,0.12075 -0.196667,0.119807 -0.162109,-0.01234 0.04066,-0.1555 0.466584,-0.432557 0.664973,-0.432557 0.07434,0 0.09985,0.04129 0.06435,0.104167 -0.04705,0.08333 -0.03636,0.08333 0.05342,0 0.175256,-0.162673 0.387822,-0.122689 0.443034,0.08333 0.07295,0.272209 0.0652,0.3125 -0.06006,0.3125 -0.06192,0 -0.288909,0.09375 -0.50441,0.208334 -0.490808,0.260965 -0.519266,0.25986 -0.340348,-0.0132 z m 0.835478,-0.378819 c 0.02729,-0.02729 0.01388,-0.07172 -0.02981,-0.09872 -0.04369,-0.027 -0.123278,0.0037 -0.176862,0.0683 -0.07687,0.09262 -0.07058,0.11345 0.02981,0.09872 0.06998,-0.01027 0.149569,-0.04101 0.176861,-0.0683 z m -0.878132,-0.470064 c 0,-0.120571 0.301548,-0.349969 0.373233,-0.28393 0.03742,0.03448 0.04824,-0.01796 0.02404,-0.11652 -0.03199,-0.130288 0.0206,-0.226958 0.192655,-0.354166 0.295671,-0.2186 0.322425,-0.218148 0.26421,0.0045 -0.02581,0.09869 -0.195569,0.323687 -0.377247,0.5 -0.321549,0.312021 -0.476891,0.393504 -0.476891,0.250116 z m 0.5,-0.877712 c 0,-0.0173 0.06563,-0.08293 0.145833,-0.145833 0.132172,-0.103656 0.135119,-0.100709 0.03146,0.03146 -0.108861,0.138815 -0.177293,0.18296 -0.177293,0.114373 z m 0.50265,-0.858418 c 0.0045,-0.117205 0.24735,-0.398705 0.24735,-0.28676 0,0.05787 -0.05625,0.161463 -0.125,0.230213 -0.06875,0.06875 -0.123808,0.0942 -0.12235,0.05655 z m 0.20624,-0.525885 c -0.03413,-0.05522 -0.0014,-0.160788 0.07292,-0.2350881 0.112445,-0.1124459 0.134647,-0.1145792 0.133584,-0.012837 -0.0022,0.2058401 -0.13439,0.3646031 -0.206501,0.2479251 z"
     id="path358" /><path
     style="fill:#254232;stroke-width:5.91799"
     d="M 23.299973,10.598884 21.5047,13.888538"
     id="path556" /><path
     style="fill:#254232;stroke-width:5.91799"
     d="m 22.586099,28.203824 13.892886,3.429105"
     id="path558" /><path
     style="fill:#254232;stroke-width:5.91799"
     d="M 31.722988,16.963849 28.502766,14.788007"
     id="path560" /><path
     style="fill:#8eb3cf;fill-opacity:1;stroke-width:5.91799"
     d="m 23.649364,19.332627 c -1.323797,0.125424 -1.70866,0.586567 -2.489407,1.5625 -0.431427,1.365949 -1.16941,2.044175 -2.224576,2.913135 2.195028,-0.191387 2.360184,-0.420819 3.678924,-2.015387 0.606213,-0.856168 1.274529,-1.550016 2.120864,-2.142452 z"
     id="path22517" /></svg>
