<?xml version="1.0" encoding="UTF-8" standalone="no"?>
<svg
   xmlns:dc="http://purl.org/dc/elements/1.1/"
   xmlns:cc="http://creativecommons.org/ns#"
   xmlns:rdf="http://www.w3.org/1999/02/22-rdf-syntax-ns#"
   xmlns:svg="http://www.w3.org/2000/svg"
   xmlns="http://www.w3.org/2000/svg"
   xmlns:xlink="http://www.w3.org/1999/xlink"
   xmlns:sodipodi="http://sodipodi.sourceforge.net/DTD/sodipodi-0.dtd"
   xmlns:inkscape="http://www.inkscape.org/namespaces/inkscape"
   inkscape:version="1.0 (4035a4f, 2020-05-01)"
   sodipodi:docname="pluginIcon.svg"
   xml:space="preserve"
   width="50mm"
   height="50mm"
   viewBox="0 0 50 50"
   version="1.1"
   id="svg8"><metadata
   id="metadata883"><rdf:RDF><cc:Work
       rdf:about=""><dc:format>image/svg+xml</dc:format><dc:type
         rdf:resource="http://purl.org/dc/dcmitype/StillImage" /></cc:Work></rdf:RDF></metadata><sodipodi:namedview
   inkscape:current-layer="svg8"
   inkscape:window-maximized="0"
   inkscape:window-y="0"
   inkscape:window-x="1680"
   inkscape:cy="91.758054"
   inkscape:cx="128.21835"
   inkscape:zoom="43.224227"
   showgrid="false"
   id="namedview881"
   inkscape:window-height="1544"
   inkscape:window-width="2159"
   inkscape:pageshadow="2"
   inkscape:pageopacity="0"
   guidetolerance="10"
   gridtolerance="10"
   objecttolerance="10"
   borderopacity="1"
   bordercolor="#666666"
   pagecolor="#ffffff" />
    <defs
   id="defs2"><linearGradient
     id="linearGradient1178"><stop
   id="stop1172"
   offset="0"
   style="stop-color:#b9d3ef;stop-opacity:1" /><stop
   style="stop-color:#abbedf;stop-opacity:1"
   offset="0.39268181"
   id="stop1182" /><stop
   style="stop-color:#f6c39b;stop-opacity:1"
   offset="0.65048969"
   id="stop1180" />
            
            <stop
   id="stop1176"
   offset="1"
   style="stop-color:#ee8a80;stop-opacity:1" /></linearGradient><linearGradient
     id="linearGradient1162"><stop
   style="stop-color:#307eb9;stop-opacity:1"
   offset="0"
   id="stop1150" />
            <stop
   id="stop1152"
   offset="0.22724211"
   style="stop-color:#7dbbc6;stop-opacity:1" />
            <stop
   style="stop-color:#efdeaa;stop-opacity:1"
   offset="0.49423918"
   id="stop1154" />
            
            
            <stop
   style="stop-color:#fef8f7;stop-opacity:1"
   offset="1"
   id="stop1160" /></linearGradient><linearGradient
     id="linearGradient22643"><stop
       id="stop22639"
       offset="0"
       style="stop-color:#375d9f;stop-opacity:1;" /><stop
       id="stop22641"
       offset="1"
       style="stop-color:#384870;stop-opacity:1;" /></linearGradient><linearGradient
     id="linearGradient22566"><stop
       id="stop22562"
       offset="0"
       style="stop-color:#f2a491;stop-opacity:1;" /><stop
       id="stop22564"
       offset="0.41778976"
       style="stop-color:#8eb3cf;stop-opacity:1;" /></linearGradient><linearGradient
     id="linearGradient17184"><stop
       id="stop17180"
       offset="0.50673854"
       style="stop-color:#ffffff;stop-opacity:1;" /><stop
       id="stop17182"
       offset="1"
       style="stop-color:#efe4be;stop-opacity:1;" /></linearGradient><linearGradient
     id="linearGradient7816"><stop
       style="stop-color:#8fc2c5;stop-opacity:1;"
       offset="0.2264151"
       id="stop15177" /><stop
       style="stop-color:#b5d1c3;stop-opacity:1;"
       offset="0.43126687"
       id="stop7812" /><stop
       style="stop-color:#e5e0bf;stop-opacity:1;"
       offset="1"
       id="stop7814" /></linearGradient><linearGradient
     id="linearGradient2455"><stop
       style="stop-color:#fbe8bd;stop-opacity:1;"
       offset="0"
       id="stop2447" /><stop
       id="stop2449"
       offset="0.39518833"
       style="stop-color:#d5dbc1;stop-opacity:1;" /><stop
       id="stop2451"
       offset="0.65719855"
       style="stop-color:#94c6c6;stop-opacity:1;" /><stop
       style="stop-color:#2d7ab8;stop-opacity:1;"
       offset="1"
       id="stop2453" /></linearGradient><linearGradient
     id="linearGradient1006"><stop
       style="stop-color:#ffffff;stop-opacity:1"
       offset="0"
       id="stop1002" /><stop
       style="stop-color:#0c9ca6;stop-opacity:1"
       offset="1"
       id="stop1004" /></linearGradient><linearGradient
     id="linearGradient998"><stop
       style="stop-color:#fbecfd;stop-opacity:1"
       offset="0"
       id="stop994" /><stop
       id="stop960"
       offset="0.30084872"
       style="stop-color:#fbd4f9;stop-opacity:1" /><stop
       id="stop958"
       offset="0.48738721"
       style="stop-color:#f46cec;stop-opacity:1" /><stop
       style="stop-color:#2b1562;stop-opacity:1"
       offset="1"
       id="stop996" /></linearGradient><radialGradient
     xlink:href="#linearGradient998"
     id="radialGradient1000"
     cx="31.438482"
     cy="42.392902"
     fx="31.438482"
     fy="42.392902"
     r="25.000001"
     gradientTransform="matrix(0.00113747,-1.0167601,1.0243894,0.0011489,-11.090646,-1.315701)"
     gradientUnits="userSpaceOnUse" /><radialGradient
     xlink:href="#linearGradient1006"
     id="radialGradient1008"
     cx="21.644688"
     cy="35.676865"
     fx="21.644688"
     fy="35.676865"
     r="24.999975"
     gradientUnits="userSpaceOnUse"
     gradientTransform="matrix(0.00279899,0.6185787,-0.99998976,0.00452483,68.397857,-39.118526)" /><linearGradient
     gradientUnits="userSpaceOnUse"
     y2="1.4757635e-06"
     x2="24.999998"
     y1="32.672649"
     x1="24.669399"
     id="linearGradient5700"
     xlink:href="#linearGradient2455" /><linearGradient
     gradientUnits="userSpaceOnUse"
     y2="29.690369"
     x2="24.806145"
     y1="49.999977"
     x1="25"
     id="linearGradient13724"
     xlink:href="#linearGradient7816" /><linearGradient
     gradientUnits="userSpaceOnUse"
     y2="32.331436"
     x2="37.408257"
     y1="9.6647673"
     x1="23.919428"
     id="linearGradient17186"
     xlink:href="#linearGradient17184" /><linearGradient
     gradientUnits="userSpaceOnUse"
     y2="33.207092"
     x2="26.002991"
     y1="25.681305"
     x1="34.995327"
     id="linearGradient22568"
     xlink:href="#linearGradient22566" /><linearGradient
     gradientUnits="userSpaceOnUse"
     y2="33.688541"
     x2="17.216543"
     y1="17.369226"
     x1="27.734179"
     id="linearGradient22645"
     xlink:href="#linearGradient22643" /><linearGradient
     id="linearGradient1046"><stop
   id="stop1038"
   offset="0"
   style="stop-color:#fefdfc;stop-opacity:1" />
            <stop
   style="stop-color:#faf2ee;stop-opacity:1"
   offset="0.35899055"
   id="stop1040" />
            <stop
   style="stop-color:#f8f5f4;stop-opacity:1"
   offset="0.56921643"
   id="stop1042" />
            <stop
   id="stop1044"
   offset="1"
   style="stop-color:#f6cdc0;stop-opacity:1" /></linearGradient><linearGradient
     id="linearGradient1674"><stop
       id="stop1670"
       offset="0"
       style="stop-color:#3e2300;stop-opacity:1" /><stop
       id="stop1672"
       offset="1"
       style="stop-color:#9e5600;stop-opacity:1" /></linearGradient><linearGradient
     id="linearGradient1666"><stop
   style="stop-color:#bc6001;stop-opacity:1"
   offset="0"
   id="stop1654" />
            <stop
   id="stop1656"
   offset="0.22724211"
   style="stop-color:#ee5015;stop-opacity:1" />
            <stop
   style="stop-color:#d45d2a;stop-opacity:1"
   offset="0.55937076"
   id="stop1658" />
            <stop
   style="stop-color:#ab2504;stop-opacity:1"
   offset="1"
   id="stop1664" /></linearGradient><linearGradient
     id="linearGradient1652"><stop
   style="stop-color:#df7e01;stop-opacity:1"
   offset="0"
   id="stop1640" />
            <stop
   style="stop-color:#f97b29;stop-opacity:1"
   offset="0.3771469"
   id="stop1644" />
            <stop
   style="stop-color:#f9cd2f;stop-opacity:1"
   offset="1"
   id="stop1650" /></linearGradient><linearGradient
     id="linearGradient1582"><stop
   id="stop1578"
   offset="0"
   style="stop-color:#fea12a;stop-opacity:1" />
            <stop
   style="stop-color:#fdb647;stop-opacity:1"
   offset="0.22724211"
   id="stop1588" />
            <stop
   id="stop1590"
   offset="0.3771469"
   style="stop-color:#fa9350;stop-opacity:1" />
            <stop
   style="stop-color:#f25848;stop-opacity:1"
   offset="0.54888839"
   id="stop1592" />
            <stop
   id="stop1594"
   offset="0.7313779"
   style="stop-color:#d83f4d;stop-opacity:1" />
            <stop
   id="stop1580"
   offset="1"
   style="stop-color:#b51b10;stop-opacity:1" /></linearGradient><linearGradient
     id="linearGradient927"><stop
   id="stop923"
   offset="0"
   style="stop-color:#5d6b32;stop-opacity:1" />
            <stop
   style="stop-color:#ece1d0;stop-opacity:1"
   offset="0.39178354"
   id="stop937" />
            <stop
   id="stop925"
   offset="1"
   style="stop-color:#afdfe4;stop-opacity:1" /></linearGradient><linearGradient
     id="linearGradient7816-0"><stop
       style="stop-color:#422f2e;stop-opacity:1"
       offset="1"
       id="stop7814-5" /></linearGradient><radialGradient
     xlink:href="#linearGradient998"
     id="radialGradient1000-9"
     cx="31.438482"
     cy="42.392902"
     fx="31.438482"
     fy="42.392902"
     r="25.000001"
     gradientTransform="matrix(0.00113747,-1.0167601,1.0243894,0.0011489,-11.090646,-1.315701)"
     gradientUnits="userSpaceOnUse" /><radialGradient
     xlink:href="#linearGradient1006"
     id="radialGradient1008-7"
     cx="21.644688"
     cy="35.676865"
     fx="21.644688"
     fy="35.676865"
     r="24.999975"
     gradientUnits="userSpaceOnUse"
     gradientTransform="matrix(0.00279899,0.6185787,-0.99998976,0.00452483,68.397857,-39.118526)" /><linearGradient
     gradientUnits="userSpaceOnUse"
     y2="29.690369"
     x2="24.806145"
     y1="49.999977"
     x1="25"
     id="linearGradient13724-0"
     xlink:href="#linearGradient7816-0" /><linearGradient
     gradientUnits="userSpaceOnUse"
     y2="0.10423274"
     x2="25.104233"
     y1="49.72488"
     x1="25.198191"
     id="linearGradient935"
     xlink:href="#linearGradient927" /><clipPath
     clipPathUnits="userSpaceOnUse"
     id="clipPath1130"><path
       d="M 0,800 H 800 V 0 H 0 Z"
       id="path1128" /></clipPath><clipPath
     clipPathUnits="userSpaceOnUse"
     id="clipPath1138"><path
       d="M 284.686,41.5688 H 515.314 V 17 H 284.686 Z"
       id="path1136" /></clipPath><clipPath
     clipPathUnits="userSpaceOnUse"
     id="clipPath1278"><path
       d="M 0,800 H 800 V 0 H 0 Z"
       id="path1276" /></clipPath><linearGradient
     y2="-131.90941"
     x2="-211.17578"
     y1="-65.767349"
     x1="-332.87836"
     gradientTransform="matrix(0.25320201,0,0,0.25320201,95.927808,56.293442)"
     gradientUnits="userSpaceOnUse"
     id="linearGradient1598"
     xlink:href="#linearGradient1582" /><linearGradient
     y2="-131.90941"
     x2="-211.17578"
     y1="-65.767349"
     x1="-332.87836"
     gradientTransform="matrix(0.12865911,0,0,0.14262707,74.363162,36.786625)"
     gradientUnits="userSpaceOnUse"
     id="linearGradient1602"
     xlink:href="#linearGradient1652" /><linearGradient
     y2="-131.90941"
     x2="-211.17578"
     y1="-65.767349"
     x1="-332.87836"
     gradientTransform="matrix(0.14287792,0,0,0.15551651,52.603028,39.553815)"
     gradientUnits="userSpaceOnUse"
     id="linearGradient1606"
     xlink:href="#linearGradient1666" /><linearGradient
     gradientUnits="userSpaceOnUse"
     y2="19.577152"
     x2="33.029133"
     y1="54.643715"
     x1="16.955727"
     id="linearGradient1676"
     xlink:href="#linearGradient1674" /><linearGradient
     gradientTransform="matrix(0.29693336,0,0,0.29589666,-162.66587,-61.56557)"
     gradientUnits="userSpaceOnUse"
     y2="376.66122"
     x2="630.98401"
     y1="206.98183"
     x1="634.65753"
     id="linearGradient1148"
     xlink:href="#linearGradient1162"
     inkscape:collect="always" /><linearGradient
     gradientTransform="matrix(0.29693336,0,0,0.29589666,-162.66587,-61.56557)"
     gradientUnits="userSpaceOnUse"
     y2="256.67633"
     x2="708.46521"
     y1="313.78439"
     x1="545.29584"
     id="linearGradient1170"
     xlink:href="#linearGradient1178"
     inkscape:collect="always" /></defs><ellipse
   ry="24.858278"
   rx="24.945372"
   cy="24.858278"
   cx="24.945377"
   id="path1132"
   style="fill:url(#linearGradient1148);fill-opacity:1;fill-rule:evenodd;stroke-width:0.262828" /><path
   id="path1140"
   d="m 49.757126,22.785774 -0.0042,0.635891 L 36.294675,45.3807 19.918726,48.695453 2.281235,35.226778 0.28951296,29.025495 7.2535504,26.029354 l 2.0281172,-2.322028 2.8146134,-0.03643 2.412533,-1.566311 0.623441,-2.418239 2.94601,-4.085427 0.255348,-3.900087 6.885362,-6.2792823 3.582242,4.5532311 1.754568,3.4968802 h 0.80417 l 1.650314,0.646996 4.673437,5.290419 3.911218,4.298248 1.425592,-0.218552 1.608345,-1.857719 z"
   style="fill:#ffffff;fill-opacity:1;stroke:none;stroke-width:0.0784262px;stroke-linecap:butt;stroke-linejoin:miter;stroke-opacity:1" /><path
   id="path1096"
   style="fill:url(#linearGradient1170);fill-opacity:1;stroke-width:0.0784262"
   d="m 49.890731,22.67886 c 0,0.287047 -0.03399,0.281167 -3.956485,-0.684193 -0.728529,-0.179298 -1.350213,-0.296411 -1.381515,-0.260253 -0.03131,0.03616 -0.360926,0.43822 -0.732494,0.893466 -0.371564,0.455246 -0.737235,0.878009 -0.812599,0.939472 -0.219146,0.178725 -1.662058,2.004552 -1.708071,2.161354 -0.383118,1.305573 -0.522216,1.851588 -0.522216,2.049886 0,0.386914 -0.652571,1.060233 -4.362822,4.501541 -1.259511,1.168212 -1.763074,1.694014 -1.622369,1.694014 0.07818,0 0.75362,-0.569625 3.413953,-2.879122 0.854342,-0.741676 1.58584,-1.348501 1.625555,-1.348501 0.154438,0 0.148304,0.164918 -0.03889,1.045639 -0.210208,0.988993 -0.232068,1.180755 -0.111023,0.973873 0.04294,-0.0734 0.307453,-0.283726 0.587797,-0.467398 0.483544,-0.316802 0.521263,-0.364219 0.734566,-0.923458 0.264451,-0.693351 0.901739,-2.610531 1.328628,-3.996966 l 0.301892,-0.980484 1.287877,-1.550797 c 1.245662,-1.499959 1.295702,-1.549202 1.526472,-1.502252 0.131224,0.02669 1.175203,0.224866 2.319947,0.440377 1.144746,0.21551 2.116971,0.42736 2.160499,0.470777 0.108336,0.108056 0.08702,3.08082 -0.03026,4.2203 C 45.174363,50.773541 13.98818,50.787424 5.0008358,40.058303 3.6830129,38.323358 2.2285383,35.736318 2.1154839,34.926201 2.0807931,34.677606 1.9724184,34.386355 1.8480865,34.207565 1.733099,34.042221 1.6512642,33.843577 1.6662326,33.766132 1.6864536,33.661429 2.1364266,33.458583 3.4211028,32.97502 l 6.3862289,0.112805 1.6731513,-1.09285 0.521062,0.04849 c 0.286582,0.02666 0.556007,0.08331 0.598718,0.125874 0.05117,0.05099 0.0058,0.311923 -0.13291,0.764958 -0.11581,0.378165 -0.210119,0.733658 -0.209573,0.789988 0.0012,0.116533 0.647618,-0.594438 1.125357,-1.237614 0.175912,-0.236824 0.924989,-1.047119 1.66462,-1.800653 1.324837,-1.349744 1.353577,-1.38632 1.937796,-2.466115 0.326158,-0.602827 0.669852,-1.270261 0.763766,-1.483185 0.09391,-0.212927 0.258632,-0.501956 0.366045,-0.642288 0.281605,-0.367918 3.339479,-2.638235 3.430818,-2.547215 0.139859,0.139374 -0.476777,1.123271 -2.013757,3.213125 -0.527054,0.716641 -1.144456,1.584828 -1.372004,1.929299 -0.227549,0.344474 -0.649299,0.845211 -0.93722,1.112749 -0.404697,0.376046 -0.502281,0.507575 -0.430013,0.579591 0.06895,0.06871 0.07103,0.136242 0.0079,0.257314 -0.077,0.147747 -0.06289,0.144759 0.141162,-0.02989 l 1.223,0.78212 c -0.983571,0.10486 -0.978953,0.103253 -1.46767,0.51112 -0.481273,0.401656 -0.6268,0.478855 -1.330579,0.705858 -0.92256,0.297566 -2.106597,0.778211 -2.450446,0.994728 -0.362882,0.2285 -0.642106,0.645516 -1.6113,2.406459 -0.343635,0.62436 -0.667408,1.175595 -0.719496,1.224968 -0.05209,0.04937 -0.6073326,0.202512 -1.2338768,0.340308 -0.6265442,0.137796 -1.1568494,0.268692 -1.1784543,0.290878 -0.021617,0.02219 0.2081948,0.01938 0.510663,-0.0062 1.8879681,-0.15987 1.8236281,-0.163042 2.6711651,0.131585 0.4321,0.150212 1.291719,0.470425 1.910264,0.711587 0.618548,0.241162 1.166527,0.437028 1.217736,0.435258 0.159866,-0.0055 -1.761923,-0.941534 -2.380773,-1.159563 -0.398874,-0.140527 -0.596994,-0.252328 -0.615184,-0.347157 -0.01654,-0.08622 0.151021,-0.32933 0.436822,-0.633787 0.458429,-0.488351 0.467034,-0.506173 0.764199,-1.582491 0.345782,-1.252412 0.376919,-1.326179 0.613186,-1.45269 0.497909,-0.266606 2.924588,-1.23228 2.97009,-1.181918 0.0291,0.03219 -0.111109,0.436773 -0.311545,0.89907 -0.305414,0.704412 -0.447321,0.92629 -0.87625,1.370064 -0.281502,0.291239 -0.599218,0.632565 -0.706037,0.758501 l -0.194218,0.228977 0.353535,-0.247944 c 0.194447,-0.136369 0.721239,-0.556481 1.170657,-0.93358 0.801652,-0.672659 0.827984,-0.705504 1.391055,-1.735191 0.315664,-0.577256 0.602003,-1.075969 0.636308,-1.108255 0.0343,-0.03228 0.546895,-0.146614 1.139093,-0.254065 l 1.076719,-0.195366 0.690961,-0.730909 c 0.380027,-0.402 1.733891,-1.800866 3.008588,-3.108587 1.274693,-1.307724 2.3424,-2.420506 2.372684,-2.472847 0.074,-0.127919 0.468763,-2.466133 0.439465,-2.603038 -0.01274,-0.05948 -0.421117,0.421389 -0.90753,1.068598 -0.495492,0.65929 -0.939663,1.176742 -1.010093,1.176742 -0.08433,0 -0.109396,-0.04234 -0.07616,-0.128644 0.06049,-0.157091 1.250463,-2.250471 2.135622,-3.756955 l 0.65004,-1.106331 -0.07134,-1.82952 c -0.03923,-1.006235 -0.07236,-1.911724 -0.07361,-2.012195 -0.0012,-0.100469 -0.03602,-0.170931 -0.07726,-0.156577 -0.06217,0.02163 -2.813081,4.108703 -3.789879,5.630665 -0.154423,0.240608 -0.435129,0.561931 -0.623789,0.714049 -0.449046,0.362071 -3.568762,2.481327 -4.629583,3.144929 l -0.829768,0.519062 -1.397529,1.91773 c -0.768642,1.05475 -1.430945,1.917727 -1.471786,1.917727 -0.08704,0 -2.272276,-0.663883 -3.406075,-1.034775 -0.4321,-0.14135 -0.781837,-0.29223 -0.777193,-0.335289 0.0046,-0.04306 0.976869,-0.468085 2.160499,-0.944496 1.183633,-0.476418 2.498115,-1.018107 2.921076,-1.203758 0.872449,-0.38295 0.796446,-0.298714 1.846067,-2.046055 0.351112,-0.584505 0.830953,-1.2778 1.066318,-1.540657 0.235364,-0.262856 0.78162,-0.915001 1.213899,-1.449213 0.432281,-0.534209 1.362909,-1.549578 2.068063,-2.256375 0.705155,-0.706796 1.767995,-1.883997 2.361871,-2.616001 1.04345,-1.286145 1.093463,-1.364776 1.486751,-2.337335 0.385137,-0.952406 0.697146,-1.439304 0.858598,-1.339868 0.04171,0.02568 0.05203,-0.0565 0.02438,-0.194226 -0.03883,-0.193481 -0.02183,-0.238762 0.08974,-0.238762 l -0.0794,-0.206302 c -0.08482,0.03243 -0.117182,-0.0099 -0.117182,-0.153077 0,-0.11199 0.0341,-0.176884 0.07856,-0.149501 0.04584,0.02823 0.07856,-0.05138 0.07856,-0.191102 0,-0.147567 0.03698,-0.231977 0.09634,-0.219917 0.144544,0.02935 0.164872,-0.292452 0.02574,-0.407517 -0.101353,-0.08382 -0.145314,-0.07055 -0.268529,0.08108 -0.147231,0.181193 -0.147368,0.181204 -0.199839,0.01645 -0.03712,-0.116551 0.0049,-0.226538 0.143309,-0.375398 l -0.168002,-0.156245 c -0.07805,0.127803 -0.09853,-0.07363 -0.111451,-1.0960489 -0.0087,-0.688948 -0.02043,-1.3230901 -0.02607,-1.4092078 -0.131497,-2.0091768 -0.205234,-2.4661152 -0.397959,-2.4661152 -0.06312,0 -1.573129,1.3440188 -3.355566,2.9867098 -1.782435,1.6426881 -3.290004,3.0317331 -3.350151,3.0867641 -0.07728,0.07071 -0.16285,0.679409 -0.29174,2.075337 l -0.182385,1.975279 -0.288845,0.437782 c -0.158866,0.240777 -0.800265,1.171747 -1.425337,2.06882 l -1.136489,1.631045 -0.297396,1.109083 c -0.163569,0.609996 -0.321909,1.168688 -0.351872,1.241538 -0.05189,0.126167 -1.686914,1.233602 -2.217406,1.501894 -0.200894,0.101602 -0.503858,0.127162 -1.507237,0.127162 -0.691442,0 -1.3551951,0.03723 -1.4769675,0.08284 -0.2955645,0.110704 -0.7772082,0.582653 -1.5142057,1.483735 L 7.2535,26.029354 5.6119009,26.807782 c -3.4033403,1.613826 -5.0888944,2.374413 -5.18258281,2.338586 l -0.0511171,-0.401096 m 49.27553001,0.0095 c 0.205591,-1.424118 0.34259,-3.77349 0.274586,-4.708938 -0.04712,-0.6482 -0.07183,-0.736726 -0.222065,-0.795553 -0.09298,-0.03641 -1.052887,-0.22748 -2.133136,-0.424609 -1.08025,-0.197129 -2.039389,-0.379393 -2.13142,-0.405029 -0.182709,-0.0509 -0.301753,0.0754 -1.914606,2.031366 -0.742832,0.900857 -0.84289,1.060197 -1.005502,1.601268 -0.09932,0.330472 -0.587145,1.844839 -1.084048,3.365257 l -0.903464,2.764396 -0.600583,0.876059 c -0.330318,0.481829 -0.690121,1.01075 -0.799559,1.175375 -0.10944,0.164625 -0.210909,0.263659 -0.225488,0.220076 -0.03163,-0.09457 0.288563,-1.650263 0.659272,-3.203117 0.279619,-1.171289 0.306522,-1.348179 0.205051,-1.348179 -0.09199,0 -6.756152,5.836618 -8.226631,7.205054 -1.413581,1.315489 -3.823421,3.37706 -3.880765,3.319919 -0.09268,-0.09235 2.876257,-2.922535 7.180437,-6.844873 3.669398,-3.343867 5.887915,-5.489319 5.839699,-5.647372 -0.01802,-0.05907 -0.384772,-0.283546 -0.815011,-0.49884 l -0.782253,-0.39148 -0.785635,-1.026986 c -1.025424,-1.340438 -1.065566,-1.388016 -1.296301,-1.536363 -0.108025,-0.06946 -0.63833,-0.217905 -1.178455,-0.32989 -0.624326,-0.12944 -1.067897,-0.265608 -1.217735,-0.373824 -0.129629,-0.09362 -1.068675,-0.902576 -2.086765,-1.797676 -1.191884,-1.047897 -1.977819,-1.801975 -2.206989,-2.117534 -0.195754,-0.269544 -0.929824,-1.282759 -1.631263,-2.25159 -0.701443,-0.968831 -1.304809,-1.772175 -1.340818,-1.785215 -0.036,-0.01305 -0.08258,0.0046 -0.103505,0.03914 -0.02093,0.03457 -0.0067,0.954471 0.03164,2.044229 l 0.06969,1.981377 -1.242545,2.167955 c -1.67661,2.925305 -1.710181,3.043108 -0.357686,1.25514 0.456013,-0.602833 0.846875,-1.078363 0.868584,-1.05673 0.03587,0.03575 -0.316448,2.413523 -0.424353,2.863901 -0.02524,0.105396 -1.114112,1.289453 -2.44935,2.66349 -1.322141,1.360557 -2.686719,2.773958 -3.0324,3.140893 -0.345677,0.366933 -0.665846,0.689928 -0.711482,0.717765 -0.04563,0.02784 -0.540585,0.124247 -1.099891,0.214247 -0.728312,0.117199 -1.046257,0.20187 -1.120303,0.298347 -0.05686,0.07409 -0.349761,0.575081 -0.65089,1.11332 -0.323057,0.57744 -0.667156,1.083251 -0.839377,1.23386 -0.517311,0.452384 -2.563301,2.101407 -2.786268,2.245672 l -1.362749,0.272888 c -0.233515,0.251343 -0.424573,0.492043 -0.424573,0.534889 0,0.04284 0.105488,0.121442 0.23442,0.174659 0.212343,0.08765 0.269689,0.07467 0.608867,-0.137767 0.205947,-0.12899 0.763339,-0.446647 1.238649,-0.705905 1.478214,-0.806289 3.628214,-2.224865 6.344225,-4.185935 L 21.5297,31.694873 22.410377,31.5443 c 1.072776,-0.183417 0.930503,-0.0921 3.832718,-2.460037 1.940727,-1.583456 2.456233,-1.97016 2.222018,-1.666837 -0.04156,0.05382 -0.714401,0.943387 -1.495199,1.976806 l -1.419636,1.878944 -2.05602,1.81809 -2.056023,1.818089 -2.370309,1.215286 c -1.303671,0.668407 -2.574828,1.326946 -2.824795,1.463416 -0.572642,0.312636 -0.678475,0.232093 -0.361618,-0.275207 0.130405,-0.208785 0.221355,-0.395294 0.202111,-0.414471 -0.124569,-0.124135 -2.32255,1.127484 -2.329855,1.326711 -0.0058,0.157148 0.501687,0.504611 1.294009,0.886042 0.47531,0.22882 0.793492,0.416726 0.707073,0.417575 -0.421132,0.0041 -1.715779,-0.347859 -2.950247,-0.802107 -2.610537,-0.960599 -2.205502,-0.876121 -3.7164805,-0.775161 l -1.324403,0.0885 -0.9146586,-0.531371 C 4.1833812,35.959945 2.3781957,35.020518 2.2718044,35.126537 2.1725277,35.225468 3.1621888,37.165189 3.9104312,38.338226 21.84515,53.815628 46.205283,51.050844 49.653731,28.75474 Z M 27.322035,40.697325 c 0.05329,-0.0535 0.116686,-0.07756 0.140874,-0.05345 0.0242,0.02412 -0.01942,0.06788 -0.09689,0.09728 -0.111968,0.04249 -0.120992,0.0335 -0.04398,-0.04382 z M 16.108388,39.610987 c -0.09095,-0.05857 -0.0656,-0.07616 0.11108,-0.07709 0.151608,-8.88e-4 0.889814,-0.387193 2.185724,-1.14407 1.192891,-0.696712 2.008288,-1.126982 2.0887,-1.102168 0.07255,0.0224 0.344024,0.130695 0.603286,0.240685 0.393775,0.167058 0.595087,0.20029 1.22278,0.20184 l 0.751396,0.0018 1.589891,-2.144446 c 0.874439,-1.179447 1.649949,-2.195867 1.723357,-2.25871 0.116653,-0.09987 0.256087,-0.100217 1.106932,-0.0027 0.535406,0.06131 1.048035,0.09237 1.139172,0.06901 0.09114,-0.02335 0.441422,-0.272541 0.778408,-0.553746 0.701262,-0.585178 0.740478,-0.592977 1.783489,-0.354701 0.890925,0.203536 1.055892,0.196754 2.019643,-0.08301 0.453945,-0.131774 0.840933,-0.224067 0.859975,-0.205091 0.03766,0.03753 -0.325469,0.306623 -1.440052,1.06713 l -0.720931,0.491908 -0.581963,-0.361453 C 31.009196,33.197374 30.71117,33.03472 30.666998,33.03472 c -0.04417,0 -0.430099,0.527708 -0.857606,1.172679 -0.427509,0.644975 -0.797509,1.173426 -0.822223,1.17434 -0.02471,8.88e-4 -0.492918,-0.280181 -1.040457,-0.624652 -0.54754,-0.344474 -1.02744,-0.626316 -1.066445,-0.626316 -0.09184,0 -1.522565,1.596475 -3.136359,3.4997 -0.701086,0.826827 -1.308683,1.52425 -1.35021,1.549824 -0.04153,0.02557 -0.350232,-0.177594 -0.686011,-0.451491 -1.280854,-1.04479 -1.306578,-1.051898 -2.121603,-0.586062 -0.863215,0.493378 -2.122584,1.185596 -2.512163,1.38082 -0.350242,0.175511 -0.769794,0.213516 -0.965533,0.08746 z M 16.99613,39.48342 c 0.281398,-0.142773 1.779866,-0.982678 2.582792,-1.44768 0.28842,-0.167031 0.613173,-0.303696 0.721675,-0.303696 0.196398,0 0.75289,0.354895 1.582029,1.008913 0.527514,0.416098 0.378631,0.511561 1.756598,-1.126346 1.704662,-2.026232 3.094607,-3.562164 3.223586,-3.562164 0.06828,0 0.306307,0.09504 0.528948,0.2112 l 0.4048,0.211202 0.696336,-0.320335 c 0.382984,-0.176183 0.899081,-0.38318 1.146881,-0.459992 0.36532,-0.113237 0.489311,-0.198023 0.655463,-0.448221 0.191747,-0.288739 0.22444,-0.305958 0.508783,-0.267953 0.206143,0.02755 0.333219,0.0054 0.395126,-0.06895 0.05019,-0.06027 0.201829,-0.112266 0.336969,-0.11556 0.19366,-0.0047 0.139508,-0.0372 -0.25563,-0.153325 -1.078714,-0.31702 -1.072805,-0.318044 -1.849829,0.320101 l -0.689141,0.565971 -0.640343,-0.04818 c -0.352189,-0.02651 -0.870142,-0.07017 -1.151005,-0.09704 l -0.510666,-0.04886 -0.50697,0.692703 c -1.678107,2.2929 -2.760497,3.705109 -2.894604,3.77663 -0.265675,0.14169 -1.630675,-0.02048 -2.166868,-0.257415 l -0.461812,-0.204074 -0.991618,0.563689 c -0.966117,0.549193 -2.765726,1.61461 -2.831313,1.676213 -0.08617,0.08093 0.186382,0.01654 0.409813,-0.09682 z m 0.105676,-2.481531 c 0.598683,-0.315467 1.663224,-0.867196 2.365647,-1.226065 0.702419,-0.358867 1.264755,-0.664815 1.249632,-0.679888 -0.01511,-0.01506 -0.183264,0.02975 -0.373649,0.09961 -0.385814,0.141559 -0.936477,0.162361 -2.265554,0.08559 -0.546509,-0.03157 -0.920256,-0.08764 -0.954733,-0.143223 -0.03871,-0.06243 -0.289189,0.05325 -0.791039,0.365308 -0.993115,0.617539 -1.884039,1.226713 -1.847436,1.263192 0.01651,0.01645 0.4151,-0.109834 0.885778,-0.280614 0.470681,-0.17078 0.949148,-0.333011 1.063259,-0.360512 0.420019,-0.101229 0.353764,0.116498 -0.387688,1.274028 -0.06206,0.09689 -0.09481,0.176153 -0.07279,0.176153 0.02203,0 0.529884,-0.258111 1.12857,-0.573578 z M 4.7952273,35.933087 C 4.6057689,35.787041 3.1874549,35.017251 2.8754076,34.891101 2.7244378,34.83007 2.7244348,34.831206 2.875173,35.000583 c 0.1246912,0.140086 1.9427311,1.08998 2.0771558,1.085278 0.021617,-8.88e-4 -0.049104,-0.0695 -0.1571283,-0.152774 z M 0.37820101,28.745283 c 0,0 4.27410039,-1.803907 5.61928269,-2.35529 h 8.9e-6 l 1.1629841,-0.518781 0.6595484,-0.790789 c 0.7473545,-0.896076 1.1305648,-1.255611 1.5040149,-1.411105 0.1817678,-0.07568 0.6215617,-0.107641 1.481303,-0.107641 0.846859,0 1.300571,-0.03239 1.475809,-0.105351 0.474223,-0.197452 2.100578,-1.300288 2.180367,-1.478516 0.04374,-0.0977 0.212542,-0.653248 0.37511,-1.234549 l 0.295582,-1.056904 1.423585,-2.035524 1.423581,-2.03552 0.177097,-1.957235 0.177094,-1.957232 0.478324,-0.470079 c 0.263077,-0.258543 0.956209,-0.9103 1.540295,-1.4483525 0.584082,-0.5380496 1.903283,-1.7533386 2.931557,-2.700637 1.028275,-0.9473013 1.895813,-1.7318358 1.927867,-1.7434054 0.03205,-0.01157 0.568912,0.5850795 1.193028,1.3258923 0.624115,0.7408157 1.647383,1.9485564 2.273927,2.6838744 1.886192,2.2136412 1.719256,1.9596642 1.882172,2.8635402 0.07883,0.437335 0.173697,0.823687 0.210822,0.858559 0.03713,0.03487 0.556017,0.285034 1.153085,0.555918 l 1.085576,0.492515 1.533887,1.742813 c 1.631055,1.853219 1.628857,1.851476 2.462201,1.954111 0.777416,0.09575 0.644749,-0.03575 2.874662,2.849378 0.515845,0.667416 1.014342,1.320974 1.107775,1.452352 0.178356,0.250785 1.728856,1.287775 1.925477,1.287775 0.06278,0 0.445171,-0.403934 0.849746,-0.897632 0.404577,-0.493698 0.773101,-0.911072 0.818942,-0.927497 0.04584,-0.01642 0.702039,0.121205 1.458213,0.305845 3.062143,0.747695 3.849607,0.793053 3.849607,0.793053 M 36.643997,18.690537 c -0.364483,-0.648439 -0.760129,-1.154725 -2.036105,-2.605485 -0.871042,-0.99036 -1.633445,-1.837811 -1.694225,-1.883226 -0.198669,-0.148436 -1.402303,-0.675754 -1.480376,-0.648558 -0.08778,0.03058 2.749962,3.460825 3.476383,4.202233 0.738055,0.753279 2.123893,1.92766 2.157212,1.828052 0.01621,-0.0485 -0.174077,-0.45036 -0.422889,-0.893016 z M 1.1525795,32.153933 c -0.24000237,-0.832905 -0.23991032,-0.830786 -0.037859,-0.87676 2.3462427,-0.533847 3.1958907,-0.74059 4.5348434,-1.103451 0.8803807,-0.238588 1.617883,-0.416661 1.638894,-0.395724 0.046645,0.04648 -1.1436893,0.919135 -1.7844804,1.308236 -0.4073599,0.247358 -3.8606236,1.481206 -4.1403348,1.479339 -0.050945,-2.96e-4 -0.145925,-0.185578 -0.2110632,-0.41164 z"
   sodipodi:nodetypes="cssssssssssssssscssssccssscccssscsssssssssssccsssssssssssssssssssscssssscsssssssscscsssscssssssssssssssccsssssssccscsssscsscsssssscsccsssssssscsssssssssscsssssssssscsssssssssssccssssscsssscccssssssssscssccsssssssssscssssssssscsssssssssssssssssssscsssssssscsscssscsssssssssssssssssssssssscssssssscccccssssssssscsssssssscsssssssssssssssscs" /><path
   style="fill:#556c8f;fill-opacity:1;stroke-width:0.0784262"
   d="m 19.60447,49.312042 c -0.47531,-0.122459 -0.952586,-0.226115 -1.060611,-0.230346 -0.181328,-0.0071 -0.184149,-0.01264 -0.03675,-0.07219 0.08781,-0.03547 2.120648,-1.995661 4.517408,-4.355969 2.396762,-2.360311 3.583127,-3.509053 2.636367,-2.552766 -0.94676,0.956291 -1.698218,1.761793 -1.669909,1.790007 0.0283,0.0282 0.237274,-0.103434 0.464362,-0.292545 1.181641,-0.98401 4.329494,-3.758008 5.988312,-5.277112 0.735069,-0.854397 10.732577,-9.572222 7.839317,-7.001489 -1.592024,0.942455 -2.964609,3.055216 -3.961462,4.077257 -0.07892,0.07864 -0.143488,0.252415 -0.143488,0.38616 0,0.166137 -0.06222,0.291947 -0.196409,0.397129 -0.108024,0.08468 -0.196407,0.199328 -0.196407,0.254782 0,0.05545 -0.08838,0.230613 -0.196409,0.38924 -0.108027,0.15863 -0.19641,0.337524 -0.19641,0.39754 0,0.06002 -0.108665,0.225799 -0.241478,0.368398 -0.132812,0.142601 -0.309948,0.382579 -0.393638,0.533285 -0.237206,0.427154 -0.330668,0.567281 -0.56298,0.844078 -0.118827,0.141581 -0.216049,0.303581 -0.216049,0.359997 0,0.05642 -0.07071,0.166341 -0.157128,0.244277 -0.08642,0.07794 -0.157125,0.177026 -0.157125,0.220201 0,0.04317 -0.137249,0.2579 -0.304992,0.477171 -0.167747,0.219275 -0.361202,0.50952 -0.429901,0.644993 -0.0687,0.135473 -0.212248,0.311624 -0.318995,0.391448 -0.106748,0.07982 -0.387563,0.3822 -0.624035,0.671948 -0.236472,0.289751 -0.58378,0.659666 -0.771795,0.82204 -0.188016,0.16237 -0.63148,0.584786 -0.985472,0.938702 -0.353992,0.353916 -0.768823,0.695612 -0.921844,0.759327 -0.218151,0.09083 -0.278221,0.160101 -0.278221,0.320835 0,0.167543 -0.02797,0.196153 -0.153042,0.156592 -0.116202,-0.03675 -0.182896,0.0091 -0.277063,0.190587 -0.08343,0.160766 -0.502631,0.490664 -1.280745,1.007895 -1.332559,0.885784 -3.425839,2.194153 -3.618281,2.261544 -0.07207,0.02524 -0.201748,0.105626 -0.288168,0.178639 -0.08642,0.07301 -0.385247,0.268413 -0.664059,0.434225 l -0.50693,0.301474 0.231958,0.0986 c 0.35667,0.151617 0.08008,0.108292 -0.86793,-0.135956 z m 14.519812,-5.47344 c 0.273482,-0.581298 0.96558,-1.937658 1.537994,-3.014136 1.18235,-2.223519 1.004602,-2.003425 3.504532,-4.339476 3.767814,-3.92893 2.73196,-1.957603 0.83636,1.470979 -0.41753,0.748767 -2.092587,2.615845 -4.784698,5.333191 l -1.591429,1.606349 z M 7.5046195,42.644692 6.4057819,41.52907 7.5253128,42.624071 c 1.7703855,1.757157 0.9778308,1.033812 -0.020693,0.02062 z m 3.3919465,0.49366 c -0.02254,-0.112293 -0.103006,-1.295385 -0.178822,-2.629092 -0.08371,-1.472628 -0.17071,-2.447513 -0.221533,-2.482443 -0.04603,-0.03163 -0.05111,-0.05806 -0.01131,-0.05872 0.03981,-5.92e-4 0.128192,0.04695 0.19641,0.105804 0.06822,0.05885 0.601304,0.267135 1.184639,0.462853 1.601771,0.537417 2.410499,0.836089 2.268583,0.837805 -0.07019,8.88e-4 -0.277915,-0.0513 -0.461619,-0.115888 -0.183707,-0.06459 -0.391435,-0.11716 -0.461618,-0.116823 -0.15124,5.92e-4 -0.32402,0.336932 -0.32402,0.630497 0,0.199174 -0.523208,1.306286 -0.736407,1.558242 -0.05593,0.0661 -0.25769,0.452032 -0.448351,0.857624 -0.190661,0.405591 -0.44078,0.831236 -0.555818,0.945872 l -0.20916,0.20843 z m 6.391601,-0.337606 c -0.0024,-0.108834 0.565296,-1.492556 1.148125,-2.798322 0.317122,-0.710474 0.540363,-1.303984 0.49609,-1.318903 -0.110201,-0.03714 1.228202,-0.794909 1.404005,-0.794909 0.149378,0 0.824842,0.397952 0.910849,0.53663 0.02803,0.04521 -0.130381,-0.03942 -0.352044,-0.188069 -0.221667,-0.148647 -0.479025,-0.270104 -0.571906,-0.269896 -0.09288,2.33e-4 -0.297753,0.11834 -0.45527,0.262522 -0.226979,0.207758 -0.306343,0.357926 -0.38253,0.723802 -0.115914,0.556658 -0.28176,0.942661 -0.803814,1.870863 -0.32483,0.577537 -0.792862,1.252018 -1.005033,1.448352 -0.02328,0.02154 -0.119893,0.16245 -0.214725,0.313156 -0.09483,0.150706 -0.17302,0.247355 -0.173747,0.214774 z M 6.1651471,41.235484 5.9344002,40.981042 6.1897303,41.210987 c 0.2380069,0.214338 0.291446,0.278935 0.2307498,0.278935 -0.01351,0 -0.1284207,-0.114497 -0.255333,-0.254438 z M 5.7698071,40.76575 5.6201438,40.5896 5.7969141,40.738737 c 0.1661164,0.140158 0.2125331,0.203163 0.1496634,0.203163 -0.014906,0 -0.094455,-0.07927 -0.1767704,-0.17615 z M 5.1269493,39.943708 C 4.5136632,39.136493 3.8843396,38.201774 3.9541457,38.201774 c 0.017816,0 0.2023423,0.255418 0.410059,0.567595 0.2077198,0.312179 0.585707,0.840633 0.839977,1.174339 0.25427,0.33371 0.444631,0.606742 0.4230261,0.606742 -0.021617,0 -0.2467219,-0.273032 -0.5002585,-0.606742 z M 28.717848,39.062954 c 0.473837,-0.47365 0.879195,-0.86118 0.9008,-0.86118 0.02162,0 -0.348401,0.38753 -0.822238,0.86118 -0.473834,0.473651 -0.879196,0.861184 -0.900801,0.861184 -0.02162,0 0.348404,-0.387533 0.822239,-0.861184 z M 16.086412,39.32812 c -0.02649,-0.02639 0.02159,-0.142004 0.106834,-0.256903 0.100622,-0.135624 0.169635,-0.38656 0.19673,-0.715327 0.02295,-0.278531 0.08895,-0.578712 0.146667,-0.667073 0.105091,-0.160894 1.789879,-1.096581 3.853462,-2.140108 1.083851,-0.548092 1.127958,-0.580901 3.0247,-2.250063 1.058644,-0.931625 1.80107,-1.568288 1.649836,-1.414806 -0.151237,0.153481 -1.017401,0.93308 -1.924808,1.732445 -1.621853,1.428734 -1.670494,1.463993 -2.867575,2.078763 -1.642935,0.84374 -1.884455,0.993757 -1.708756,1.061366 0.07562,0.02909 0.137486,0.0801 0.137486,0.113343 0,0.07545 -1.21188,1.608134 -1.328165,1.679753 -0.04683,0.02885 -0.124739,0.12617 -0.173142,0.216297 -0.08984,0.167276 0.03845,0.107165 1.462025,-0.685051 0.861662,-0.479515 0.206889,-0.05032 -0.917452,0.601377 -1.082281,0.627319 -1.509518,0.793794 -1.657842,0.645987 z m 5.946064,-0.206454 -0.149663,-0.176153 0.176767,0.149141 c 0.16612,0.140154 0.212536,0.203162 0.149663,0.203162 -0.01491,0 -0.09445,-0.07927 -0.176767,-0.17615 z m 0.361,0.151653 c 0,-0.01346 0.114901,-0.127972 0.255333,-0.254441 l 0.255333,-0.229942 -0.23075,0.254439 c -0.21509,0.237176 -0.279916,0.290425 -0.279916,0.229944 z m -0.870146,-0.582247 -0.190462,-0.215297 0.216049,0.189797 c 0.201933,0.177396 0.252079,0.240795 0.190465,0.240795 -0.01407,0 -0.111297,-0.09688 -0.216052,-0.215295 z m 1.498656,-0.137006 c 0.101486,-0.10765 0.202193,-0.195723 0.223798,-0.195723 0.02162,0 -0.04375,0.08807 -0.145236,0.195723 -0.101483,0.107648 -0.202193,0.195721 -0.223798,0.195721 -0.02162,0 0.04375,-0.08807 0.145236,-0.195721 z m 0.471381,-0.548024 c 0.101486,-0.10765 0.202194,-0.195724 0.223799,-0.195724 0.02162,0 -0.04375,0.08807 -0.145236,0.195724 -0.101483,0.107647 -0.202194,0.195724 -0.223799,0.195724 -0.02162,0 0.04375,-0.08808 0.145236,-0.195724 z M 3.7739012,37.966894 c -0.04625,-0.08612 -0.066415,-0.15658 -0.04481,-0.15658 0.021617,0 0.077123,0.07046 0.1233729,0.15658 0.04625,0.08612 0.066415,0.156577 0.04481,0.156577 -0.021617,0 -0.077123,-0.07046 -0.1233729,-0.156577 z m 4.7334563,0.100501 c 0.1188268,-0.01793 0.3132736,-0.01793 0.4321004,0 0.1188268,0.01793 0.021617,0.03262 -0.2160487,0.03262 -0.2376566,0 -0.3348785,-0.01468 -0.2160517,-0.03262 z M 7.2653565,37.92343 C 7.1189119,37.806512 7.119874,37.805068 7.289616,37.88704 c 0.097222,0.04695 0.1767674,0.101735 0.1767674,0.12175 0,0.05991 -0.040742,0.04261 -0.2010328,-0.08536 z M 9.60833,37.989 c 0.1194206,-0.01799 0.296188,-0.01752 0.392816,0.0012 0.09663,0.01858 -0.00119,0.03331 -0.2171295,0.03272 C 9.5679678,38.022328 9.4889063,38.00712 9.60833,37.98914 Z m 20.720072,-0.452701 c 0.632185,-0.638254 0.549316,-0.474446 0.07856,0 -0.278366,0.279883 -0.5238,0.50888 -0.545404,0.50888 -0.02162,0 0.188472,-0.228997 0.466841,-0.50888 z m -11.234598,0.318666 c 0,-0.02154 0.07071,-0.07685 0.157128,-0.122945 0.08642,-0.04609 0.157128,-0.06618 0.157128,-0.04465 0,0.02154 -0.07071,0.07686 -0.157128,0.122945 -0.08642,0.04609 -0.157128,0.06618 -0.157128,0.04465 z M 3.5382104,37.575446 c -0.04625,-0.08612 -0.066415,-0.156579 -0.04481,-0.156579 0.021617,0 0.077123,0.07046 0.1233728,0.156579 0.04625,0.08612 0.066415,0.156577 0.04481,0.156577 -0.021617,0 -0.077122,-0.07046 -0.1233728,-0.156577 z m 3.1772018,0.03482 c -0.1464446,-0.116914 -0.1454825,-0.118361 0.024259,-0.03639 0.097222,0.04695 0.1767674,0.101738 0.1767674,0.121753 0,0.05991 -0.040745,0.04261 -0.2010328,-0.08536 z M 25.227485,37.340578 c -0.0044,-0.39812 0.03403,-0.492582 0.510081,-1.252628 0.283182,-0.452121 0.58647,-0.892501 0.67397,-0.978619 l 0.159097,-0.156577 -0.115783,0.274013 c -0.28432,0.672883 -0.64828,1.390516 -0.82277,1.622294 -0.10444,0.138729 -0.237122,0.402952 -0.294846,0.587169 l -0.104957,0.33494 -0.0048,-0.430592 z m -3.442877,0.257081 c 0.11883,-0.01793 0.313274,-0.01793 0.4321,0 0.118827,0.01793 0.02162,0.03262 -0.216048,0.03262 -0.237657,0 -0.334879,-0.01468 -0.216052,-0.03262 z m 1.394506,-0.257081 c 0.136889,-0.172235 0.266569,-0.313156 0.288174,-0.313156 0.02162,0 -0.07272,0.140921 -0.209611,0.313156 -0.136893,0.172236 -0.266572,0.313157 -0.288177,0.313157 -0.02162,0 0.07272,-0.140921 0.209614,-0.313157 z m 0.746354,0.156577 c 0.07821,-0.08612 0.159875,-0.156577 0.18148,-0.156577 0.02162,0 -0.02471,0.07046 -0.102918,0.156577 -0.07821,0.08612 -0.159874,0.15658 -0.181479,0.15658 -0.02162,0 0.02471,-0.07046 0.102917,-0.15658 z m -4.281717,0.04953 c 0,-0.07366 0.641082,-0.440566 0.76431,-0.437433 0.135232,0.0034 0.903063,0.377295 0.789424,0.38437 -0.03125,0.0021 -0.219995,-0.07546 -0.419431,-0.172017 l -0.362606,-0.175552 -0.38585,0.214676 c -0.212215,0.118069 -0.385847,0.201751 -0.385847,0.185956 z M 6.1654649,37.297114 c -0.1464446,-0.116918 -0.1454796,-0.118362 0.024259,-0.03639 0.097225,0.04695 0.1767704,0.101738 0.1767704,0.121752 0,0.05991 -0.040745,0.04261 -0.2010358,-0.08536 z M 3.1846726,36.949131 C 3.0751933,36.733836 3.0032938,36.557683 3.0248987,36.557683 c 0.021617,0 0.1288572,0.176153 0.2383395,0.391448 0.1094793,0.215297 0.1813788,0.391447 0.1597739,0.391447 -0.021617,0 -0.1288572,-0.17615 -0.2383395,-0.391447 z m 21.1336144,0.07829 c 0.07821,-0.08612 0.159875,-0.15658 0.18148,-0.15658 0.02162,0 -0.0247,0.07046 -0.102917,0.15658 -0.07821,0.08612 -0.159875,0.156577 -0.18148,0.156577 -0.02162,0 0.02471,-0.07046 0.102917,-0.156577 z M 5.1684042,36.787533 c -0.248456,-0.127798 -0.4517396,-0.249918 -0.4517396,-0.271376 0,-0.02145 0.2121203,0.06769 0.4713818,0.198106 0.2592584,0.130416 0.4713817,0.254231 0.4713817,0.275139 0,0.0522 0.014579,0.05819 -0.4910239,-0.201869 z m 18.3249628,0.132041 c 0,-0.01624 0.06187,-0.07791 0.137486,-0.137006 0.124609,-0.09738 0.127385,-0.09461 0.02966,0.02956 -0.102635,0.130407 -0.16715,0.17188 -0.16715,0.107446 z m 1.257017,-0.401023 c 0.101486,-0.107647 0.202194,-0.195724 0.223799,-0.195724 0.02162,0 -0.04375,0.08808 -0.145233,0.195724 -0.101486,0.107647 -0.202194,0.195724 -0.223799,0.195724 -0.02162,0 0.04375,-0.08808 0.145233,-0.195724 z m -1.021326,0.08787 c 0,-0.01624 0.06187,-0.07791 0.137486,-0.137006 0.124608,-0.09738 0.127385,-0.09461 0.02966,0.02956 -0.102635,0.130411 -0.16715,0.171884 -0.16715,0.107449 z M 3.5920206,35.921115 C 3.0382845,35.616596 2.5672413,35.385367 2.5452593,35.407269 c -0.021973,0.0219 0.015678,0.14704 0.083676,0.278081 0.068001,0.131041 0.1219921,0.266428 0.1199789,0.300862 -0.00208,0.03443 -0.09283,-0.108186 -0.2018197,-0.316926 -0.1089864,-0.208743 -0.1797486,-0.397878 -0.157247,-0.420304 0.039724,-0.03958 2.0553549,1.021652 2.205042,1.160963 0.1414977,0.131689 5.939e-4,0.06302 -1.0028689,-0.48883 z m 20.5459834,0.147273 c 0.105545,-0.139941 0.396854,-0.527474 0.64735,-0.861183 0.250499,-0.333707 0.473039,-0.606742 0.49454,-0.606742 0.0215,0 -0.04727,0.1145 -0.152817,0.254441 -0.105545,0.139942 -0.396854,0.527475 -0.647353,0.861181 -0.250496,0.333709 -0.473039,0.606742 -0.494537,0.606742 -0.0215,0 0.04727,-0.114497 0.152817,-0.254439 z m 0.926637,0.07337 c 0,-0.01346 0.114898,-0.127972 0.25533,-0.254442 l 0.255333,-0.229941 -0.23075,0.254439 c -0.21509,0.237176 -0.279913,0.290425 -0.279913,0.229944 z M 15.732097,35.12575 c 0.993078,-0.950618 1.123043,-1.123428 1.781668,-2.36904 l 0.333257,-0.630269 1.075131,-0.17265 1.075133,-0.172649 0.432902,-0.44971 c 0.238096,-0.247343 1.634565,-1.694378 3.103262,-3.215636 1.468698,-1.521258 2.694392,-2.824775 2.723761,-2.896704 0.03853,-0.09436 0.05494,-0.09973 0.05892,-0.01926 0.003,0.06133 -0.233114,0.360801 -0.524783,0.665498 -0.291665,0.304694 -1.30985,1.364267 -2.262632,2.354607 -0.952779,0.990339 -2.097685,2.18815 -2.544232,2.661797 -0.446549,0.473651 -0.869026,0.888359 -0.938838,0.921567 -0.06981,0.03321 -0.586286,0.140176 -1.147724,0.237694 -0.859649,0.149319 -1.02532,0.200707 -1.049443,0.325528 -0.02681,0.138778 -0.02025,0.139847 0.103288,0.01675 0.163165,-0.162598 0.513526,-0.175328 0.513526,-0.01867 0,0.06205 -0.03535,0.134585 -0.07857,0.161198 -0.04321,0.0266 -0.07856,0.134701 -0.07856,0.2402 0,0.190768 -0.376286,0.660128 -0.529228,0.660128 -0.04406,0 -0.13152,-0.07715 -0.194349,-0.171443 l -0.114233,-0.171445 -0.119872,0.23016 c -0.06593,0.126588 -0.248096,0.438578 -0.404815,0.69331 -0.208192,0.338396 -0.262738,0.489815 -0.202506,0.562138 0.0607,0.07289 0.0379,0.122744 -0.08649,0.189081 -0.09291,0.04955 -0.149399,0.109553 -0.125529,0.133337 0.05909,0.05889 1.506489,-0.909947 3.309014,-2.214931 0.820988,-0.59438 1.616445,-1.12339 1.76768,-1.175583 0.151234,-0.05219 0.487095,-0.114695 0.746353,-0.138897 0.457982,-0.04275 0.454632,-0.04082 -0.117843,0.06793 -0.324077,0.06156 -0.659935,0.143975 -0.746354,0.183133 -0.08642,0.03916 -0.652081,0.433244 -1.25702,0.875745 -2.584193,1.89028 -5.166394,3.60535 -5.41431,3.59613 -0.04683,-0.0018 0.364216,-0.433314 0.91343,-0.959046 z m 13.068841,0.343196 c -0.0242,-0.03904 0.02396,-0.05327 0.107092,-0.03161 1.317263,-1.118825 0.202848,0.0187 -0.107092,0.03161 z m -2.548365,-0.614 c 1.631704,-0.702094 0.81814,-0.747059 0.03628,0.03202 l -0.616029,0.613829 z m -0.952241,-0.362328 c 0,-0.01624 0.06187,-0.07791 0.137486,-0.137006 0.124605,-0.09738 0.127384,-0.09461 0.02966,0.02956 -0.102632,0.130411 -0.167146,0.171884 -0.167146,0.107449 z m 0.23569,-0.313156 c 0,-0.01624 0.06187,-0.07791 0.137487,-0.137006 0.124605,-0.09738 0.127384,-0.09461 0.02966,0.02956 -0.102632,0.130411 -0.167147,0.171883 -0.167147,0.107446 z m 0.496473,-0.655473 c 0.25699,-0.346466 0.300482,-0.372368 0.636542,-0.379088 0.379324,-0.0078 0.417508,-0.01227 0.0172,0.02345 -0.301921,0.02693 -0.373904,0.07283 -0.594615,0.379091 -0.138109,0.19164 -0.269974,0.348439 -0.293034,0.348439 -0.02307,0 0.0822,-0.167341 0.233909,-0.371874 z m -0.653601,-1.928072 c 0,-0.01625 0.06187,-0.07791 0.137486,-0.137006 0.124608,-0.09738 0.127385,-0.09461 0.02966,0.02956 -0.102635,0.130411 -0.16715,0.171884 -0.16715,0.107446 z m -2.299057,-0.359798 c 0.29797,-0.07051 0.402963,-0.146593 2.24971,-1.630178 0.772243,-0.620383 1.382507,-1.093187 1.356145,-1.050676 -0.06596,0.106351 -2.764937,2.287637 -3.151639,2.547123 -0.17207,0.115459 -0.401866,0.206323 -0.510663,0.201914 -0.171268,-0.0069 -0.16369,-0.0161 0.05645,-0.06818 z m 2.652592,-0.08038 c 0.07821,-0.08612 0.159878,-0.156579 0.181483,-0.156579 0.02162,0 -0.02471,0.07046 -0.102917,0.156579 -0.07821,0.08612 -0.159875,0.156577 -0.18148,0.156577 -0.02162,0 0.0247,-0.07046 0.102914,-0.156577 z m 0.19641,-0.264422 c 0,-0.01624 0.06187,-0.07791 0.137486,-0.137006 0.124608,-0.09738 0.127387,-0.09461 0.02966,0.02956 -0.102632,0.130411 -0.167149,0.171884 -0.167149,0.107446 z m 0.353537,-0.440176 c 0.07821,-0.08612 0.159875,-0.156579 0.18148,-0.156579 0.02162,0 -0.02471,0.07046 -0.102917,0.156579 -0.07821,0.08612 -0.159875,0.156577 -0.18148,0.156577 -0.02162,0 0.0247,-0.07046 0.102917,-0.156577 z m 0.19641,-0.2644 c 0,-0.01625 0.06187,-0.07791 0.137486,-0.137007 0.124605,-0.09738 0.127384,-0.09461 0.02966,0.02956 -0.102632,0.13041 -0.167147,0.17188 -0.167147,0.107446 z m 0.474577,-0.628665 c 0.147626,-0.204852 0.302328,-0.393344 0.343783,-0.418874 0.04145,-0.02554 -0.04542,0.121187 -0.193048,0.326036 -0.147627,0.204853 -0.302329,0.393345 -0.343784,0.418875 -0.04145,0.02554 0.04542,-0.121188 0.193049,-0.326037 z m 0.389621,-0.545716 c 0,-0.01625 0.06187,-0.07791 0.137486,-0.137006 0.124608,-0.09738 0.127387,-0.09461 0.02966,0.02956 -0.102632,0.13041 -0.167149,0.171883 -0.167149,0.107446 z m 0.235691,-0.313157 c 0,-0.01624 0.06187,-0.07791 0.137486,-0.137009 0.124608,-0.09738 0.127387,-0.09461 0.02966,0.02956 -0.102632,0.130411 -0.167149,0.171884 -0.167149,0.107449 z m -0.667792,-0.361887 c 0.07821,-0.08612 0.159878,-0.156577 0.181483,-0.156577 0.02162,0 -0.0247,0.07046 -0.102917,0.156577 -0.07821,0.08612 -0.159875,0.156579 -0.18148,0.156579 -0.02162,0 0.02471,-0.07046 0.102914,-0.156579 z m 1.021329,-0.07829 c 0.07821,-0.08612 0.159875,-0.156579 0.18148,-0.156579 0.02162,0 -0.02471,0.07046 -0.102917,0.156579 -0.07821,0.08612 -0.159875,0.15658 -0.18148,0.15658 -0.02162,0 0.02471,-0.07046 0.102917,-0.15658 z m -0.746354,-0.110458 c 0,-0.08443 1.678428,-1.36867 1.739567,-1.331014 0.07488,0.04612 -0.119252,0.462555 -0.254448,0.54582 -0.048,0.02956 -0.02577,-0.03976 0.04936,-0.154056 0.07515,-0.114296 0.11975,-0.224633 0.09911,-0.2452 -0.02064,-0.02057 -0.39664,0.245786 -0.835558,0.591897 -0.438921,0.346113 -0.798036,0.61276 -0.798036,0.592553 z m 0.942764,-0.153967 c 0,-0.01624 0.06187,-0.07791 0.137486,-0.137009 0.124605,-0.09738 0.127384,-0.09461 0.02966,0.02956 -0.102632,0.130411 -0.167147,0.171884 -0.167147,0.107449 z m 0.235691,-0.313158 c 0,-0.01625 0.06187,-0.07791 0.137486,-0.137006 0.124605,-0.09738 0.127384,-0.09461 0.02966,0.02956 -0.102632,0.130411 -0.167146,0.171884 -0.167146,0.107449 z m -2.029094,-2.788861 c -0.0024,-0.107647 0.02473,-0.336644 0.06049,-0.50888 0.0417,-0.200884 0.06662,-0.242987 0.06951,-0.117435 0.0024,0.10765 -0.02473,0.336644 -0.06049,0.508883 -0.0417,0.200881 -0.06662,0.242984 -0.06951,0.117432 z m 0.158883,-1.056891 c 0.0015,-0.12918 0.01921,-0.172546 0.03913,-0.09637 0.01992,0.07617 0.01862,0.181864 -0.003,0.234868 -0.02153,0.053 -0.03782,-0.0093 -0.03622,-0.138494 z m -1.14437,-0.293586 c 0.0726,-0.139941 0.558458,-0.994275 1.07968,-1.898517 0.741386,-1.286183 0.958661,-1.729288 0.998129,-2.035521 l 0.05045,-0.391447 0.01108,0.346424 c 0.0096,0.301794 -0.07872,0.503521 -0.685776,1.565787 -0.853898,1.494199 -0.958394,1.696769 -0.9035,1.751472 0.0405,0.04036 -0.581046,0.916241 -0.650183,0.916241 -0.01752,0 0.02755,-0.114497 0.10014,-0.254439 z m 1.222932,-0.176146 c 0.0015,-0.12918 0.01921,-0.172546 0.03913,-0.09637 0.01992,0.07617 0.01862,0.181864 -0.003,0.234868 -0.02153,0.053 -0.03782,-0.0093 -0.03622,-0.138494 z m 0.07856,-0.469736 c 0.0015,-0.12918 0.01921,-0.172546 0.03913,-0.09637 0.01992,0.07617 0.01862,0.181864 -0.003,0.234867 -0.02153,0.053 -0.03782,-0.0093 -0.03622,-0.138494 z M 26.04771,22.641782 c 0.243821,-0.410886 0.563363,-0.748714 0.654877,-0.692351 0.04975,0.03064 0.08451,0.203355 0.07724,0.383813 l -0.01321,0.328111 -0.03082,-0.293586 c -0.01695,-0.161473 -0.0641,-0.293585 -0.104769,-0.293585 -0.04067,0 -0.200947,0.17615 -0.356163,0.391447 -0.305806,0.424171 -0.432754,0.522613 -0.227163,0.176151 z"
   id="path1090"
   sodipodi:nodetypes="ssssssscccssssssssssssssssssssssscsssssscccsssssccssssssscscssssssssssscsssssssssssssssssssssssssssssssssssssscsssssssssssssssssssssssssssssssssssssssssssssssssscscsssssssssssssssscsssssssscsscssscssscsssssssssssssssssssssssssssssscssscssscscscscsssscscscscscscscscscssssssscssssssssssssssssssssssccsscscsscssssssssssscccssscsssssssssssssssssssssssssssssssssssssssssssssssscsssssssssssssssssssssssssssssssscscscsssssssscssscsssssssssssssss" /><path
   style="fill:#475a7c;fill-opacity:1;stroke-width:0.0784262"
   d="m 20.362861,49.404907 c -0.07587,-0.04698 0.03527,-0.149384 0.392819,-0.361956 0.274245,-0.163042 0.569332,-0.356183 0.655751,-0.429195 0.08642,-0.07301 0.216096,-0.153402 0.288168,-0.178639 0.192442,-0.06739 2.285722,-1.37576 3.618281,-2.261544 0.778114,-0.51723 1.197319,-0.847129 1.280745,-1.007895 0.09417,-0.181459 0.160861,-0.22734 0.277063,-0.190587 0.125083,0.03956 0.153042,0.01095 0.153042,-0.156592 0,-0.160734 0.06007,-0.230003 0.278221,-0.320834 0.153021,-0.06372 0.567852,-0.405411 0.921844,-0.759327 0.353992,-0.353917 0.797456,-0.776333 0.985472,-0.938703 0.188015,-0.162373 0.535323,-0.532289 0.771795,-0.822039 0.236472,-0.289748 0.517287,-0.592128 0.624035,-0.671949 0.106747,-0.07982 0.250294,-0.255974 0.318995,-0.391448 0.0687,-0.135473 0.262154,-0.425718 0.429901,-0.644992 0.167743,-0.219272 0.304992,-0.434001 0.304992,-0.477175 0,-0.04317 0.07071,-0.142261 0.157125,-0.220198 0.08642,-0.07794 0.157128,-0.187858 0.157128,-0.244277 0,-0.05642 0.09722,-0.218416 0.216049,-0.359997 0.232312,-0.276796 0.325774,-0.416924 0.56298,-0.844078 0.08369,-0.150706 0.260826,-0.390684 0.393638,-0.533285 0.132813,-0.142599 0.241478,-0.308378 0.241478,-0.368398 0,-0.06002 0.08838,-0.238909 0.19641,-0.39754 0.108024,-0.158627 0.196409,-0.333786 0.196409,-0.38924 0,-0.05545 0.08838,-0.170105 0.196407,-0.254782 0.134187,-0.105182 0.196409,-0.230991 0.196409,-0.397129 0,-0.133745 0.06457,-0.307516 0.143488,-0.386159 0.195242,-0.194558 0.273416,-0.420109 0.168091,-0.484978 -0.08028,-0.04944 1.659777,-1.700397 3.538412,-3.357241 0.743497,-0.655718 0.744085,-0.656047 0.176245,-0.09831 -0.313354,0.30778 -0.565845,0.586224 -0.561089,0.618764 0.01508,0.103191 -0.103068,0.411465 -0.157698,0.411465 -0.09625,0 -0.32203,0.452175 -0.32203,0.644919 0,0.104593 -0.02206,0.212143 -0.04901,0.239004 -0.05632,0.05612 -0.290258,0.75264 -0.649744,1.934493 -0.137521,0.452121 -0.310553,0.94259 -0.38451,1.089929 -0.07396,0.147342 -0.137436,0.288263 -0.141056,0.313159 -0.0036,0.02489 -0.04781,0.144442 -0.0982,0.265656 -0.05039,0.121217 -0.09162,0.246772 -0.09162,0.279016 0,0.03224 -0.152464,0.285366 -0.338804,0.5625 -0.186344,0.277134 -0.435717,0.70827 -0.554164,0.958081 -0.11845,0.24981 -0.39526,0.645069 -0.615136,0.878354 -0.219876,0.233288 -0.462263,0.522119 -0.538637,0.64185 -0.296117,0.464232 -0.94051,1.049418 -1.920722,1.744246 -2.1832,1.547566 -10.997011,7.280999 -11.192832,7.280999 -0.03738,0 -0.07974,0.0341 -0.09414,0.07578 -0.01494,0.04322 -0.07165,0.04763 -0.131996,0.01027 z m -0.888427,-1.357929 c 0.546829,-0.527297 1.527526,-1.469704 2.17933,-2.094242 0.651802,-0.624534 0.227558,-0.194126 -0.942763,0.956463 -1.170324,1.150588 -2.151021,2.092995 -2.179331,2.094241 -0.0283,0.0012 0.395934,-0.429166 0.942764,-0.956462 z m -8.079863,-2.283311 -0.589228,-0.41087 -0.01437,-0.580946 c -0.0079,-0.319521 -0.05118,-1.391241 -0.09616,-2.381601 -0.163791,-3.606007 -0.166784,-4.550456 -0.0064,-2.03552 0.08235,1.291772 0.17041,2.494172 0.195679,2.672 l 0.04595,0.32332 0.21294,-0.212196 c 0.117116,-0.116708 0.368934,-0.544045 0.559595,-0.949636 0.190661,-0.405592 0.392421,-0.791521 0.448351,-0.857624 0.213195,-0.251956 0.736404,-1.359068 0.736404,-1.558242 0,-0.114645 0.04419,-0.305943 0.09821,-0.425106 0.08398,-0.185279 0.132346,-0.210309 0.333895,-0.17281 0.33065,0.06152 1.038243,0.268299 0.939958,0.274681 -0.04475,0.003 -0.08423,0.06694 -0.08772,0.142291 -0.0086,0.185551 -0.73973,2.141306 -2.263877,6.055892 -0.09755,0.250536 -0.09535,0.296468 0.0196,0.411021 0.205047,0.204332 0.09764,0.144924 -0.532764,-0.294654 z m 21.851237,-0.412983 c 0.09575,-0.229648 0.944328,-1.825238 0.970711,-1.825238 0.03925,0 -0.147953,0.452796 -0.404599,0.978616 -0.172313,0.35304 -0.03461,0.233841 1.403462,-1.214902 2.674663,-2.694506 4.368534,-4.581338 4.787786,-5.333191 0.556245,-0.997532 2.127848,-4.068265 2.097386,-4.098053 -0.0348,-0.03403 -1.074338,0.887291 -2.462365,2.182341 -0.604939,0.564417 -1.046859,0.958661 -0.982044,0.876091 0.207155,-0.263898 3.538397,-3.333645 3.617619,-3.333645 0.08319,0 -0.35545,0.899336 -1.639372,3.361164 -0.998228,1.914031 -0.828302,1.710611 -5.357316,6.413187 -0.885346,0.919274 -1.637751,1.720331 -1.672008,1.780123 -0.07007,0.122294 -0.403966,0.320726 -0.35926,0.213507 z M 16.225811,45.084851 c 0.201445,-0.659335 1.997723,-4.879706 2.05332,-4.824299 0.01583,0.01577 -0.115943,0.360476 -0.292808,0.766023 -0.33903,0.777397 -0.700389,1.700781 -0.698156,1.784017 5.94e-4,0.02716 0.07891,-0.07391 0.173747,-0.224618 0.09483,-0.150706 0.19146,-0.291627 0.214725,-0.313156 0.466197,-0.431397 1.731421,-2.605678 1.731421,-2.975437 0,-0.385275 0.246093,-0.910923 0.528346,-1.128541 0.163114,-0.125762 0.271643,-0.200739 0.241175,-0.166616 -0.03047,0.03412 0.0338,0.237454 0.142825,0.451852 0.132717,0.260987 0.186287,0.471286 0.162096,0.636352 -0.06924,0.472467 -0.594918,1.769785 -1.020536,2.518572 -0.383086,0.673964 -1.910989,2.509458 -2.275042,2.733044 -0.119768,0.07356 -0.39803,0.313384 -0.61836,0.532945 -0.314833,0.313733 -0.388217,0.358665 -0.342753,0.209862 z m -6.6482255,-0.60036 c -0.097721,-0.124173 -0.094945,-0.126942 0.029664,-0.02956 0.075617,0.0591 0.1374861,0.12075 0.1374861,0.137006 0,0.06443 -0.064515,0.02296 -0.1671497,-0.107449 z m -0.5081064,-0.430592 -0.1496634,-0.17615 0.1767704,0.149138 c 0.1661164,0.140157 0.212533,0.203163 0.1496633,0.203163 -0.014906,0 -0.094454,-0.07927 -0.1767703,-0.176151 z M 8.2493432,43.310151 7.8199271,42.859986 8.2716666,43.287903 c 0.248459,0.235353 0.4517426,0.43793 0.4517426,0.450165 0,0.05811 -0.075124,-0.0097 -0.474066,-0.427917 z M 24.748983,42.87956 c 0.764897,-0.781706 0.865602,-0.87718 0.865602,-0.82064 0,0.01154 -0.380051,0.390258 -0.844559,0.84161 l -0.844558,0.82064 z M 6.8740726,41.940357 C 6.0041053,41.028602 4.6811069,39.30435 3.9402403,38.116718 3.3579035,37.183218 2.474987,35.477299 2.5404282,35.412084 c 0.056741,-0.05654 4.6902702,2.44315 4.6902702,2.530304 0,0.02172 -0.1856071,-0.06393 -0.4124582,-0.190297 -1.2610107,-0.702444 -1.4729795,-0.810577 -1.4720709,-0.750968 5.939e-4,0.036 0.1011622,0.262235 0.2235908,0.502749 0.1224286,0.240511 0.4269872,0.980344 0.6767973,1.644076 0.24981,0.663728 0.5558978,1.471008 0.6802001,1.79395 0.1242992,0.322945 0.2571442,0.757161 0.2952141,0.964931 0.04408,0.240588 0.1491526,0.460909 0.2893586,0.606742 0.1210805,0.125939 0.1994531,0.228983 0.1741603,0.228983 -0.025299,0 -0.3904347,-0.360988 -0.8114179,-0.802197 z M 35.120782,41.72479 c 0.08818,-0.172235 0.177997,-0.313156 0.199604,-0.313156 0.02162,0 -0.03286,0.140921 -0.121041,0.313156 -0.08817,0.172239 -0.177997,0.31316 -0.199602,0.31316 -0.02162,0 0.03286,-0.140921 0.121039,-0.31316 z m 0.785635,-1.487496 c 0.08818,-0.172235 0.178,-0.313156 0.199605,-0.313156 0.02162,0 -0.03286,0.140921 -0.121039,0.313156 -0.08818,0.172236 -0.178,0.313156 -0.199605,0.313156 -0.02162,0 0.03287,-0.14092 0.121039,-0.313156 z m -8.170614,-0.274012 c 0.234702,-0.236824 0.444408,-0.430592 0.466013,-0.430592 0.02162,0 -0.152749,0.193768 -0.387451,0.430592 -0.234702,0.236824 -0.444408,0.430592 -0.466013,0.430592 -0.02162,0 0.152749,-0.193768 0.387451,-0.430592 z m -9.422189,0.179497 c -0.0083,-0.08427 0.642529,-1.477968 0.675043,-1.445571 0.01562,0.01556 -0.12865,0.359645 -0.320596,0.764621 -0.19195,0.404976 -0.351451,0.711404 -0.354447,0.68095 z M 14.43891,39.48084 c 0.05401,-0.02172 0.142398,-0.02172 0.19641,0 0.05401,0.02172 0.0098,0.03949 -0.09821,0.03949 -0.108024,0 -0.152217,-0.01778 -0.09821,-0.03949 z m 22.017454,-0.261306 c 0.04625,-0.08612 0.101768,-0.15658 0.123373,-0.15658 0.02162,0 0.0015,0.07046 -0.04481,0.15658 -0.04625,0.08612 -0.101768,0.156577 -0.123373,0.156577 -0.02162,0 -0.0015,-0.07046 0.04481,-0.156577 z m -19.25361,-0.459451 c 0.04671,-0.08698 0.123242,-0.181739 0.170069,-0.210575 0.116285,-0.07162 1.328165,-1.604301 1.328165,-1.679752 0,-0.03324 -0.06187,-0.08425 -0.137486,-0.113343 -0.175883,-0.06768 0.06763,-0.218821 1.708756,-1.060594 1.143199,-0.58637 1.29468,-0.69204 2.474756,-1.726394 0.929731,-0.814926 1.052465,-0.907427 0.471381,-0.355275 -0.4321,0.410587 -0.74353,0.747631 -0.692068,0.748983 0.05146,0.0015 0.115418,-0.03277 0.142124,-0.07583 0.08304,-0.133893 0.196406,-0.08603 0.196406,0.08291 0,0.08866 -0.03308,0.140823 -0.07351,0.115923 -0.04552,-0.02802 -0.04601,0.05029 -0.0012,0.20566 0.05114,0.17771 0.03821,0.365063 -0.04433,0.642034 -0.0641,0.215105 -0.11655,0.479086 -0.11655,0.586627 0,0.18556 -0.102115,0.568009 -0.243307,0.911249 -0.03543,0.08612 -0.07472,0.244653 -0.08732,0.352301 -0.01773,0.151546 -0.07476,0.201612 -0.252655,0.221813 -0.17168,0.0195 -0.201463,0.04392 -0.117846,0.09666 0.07893,0.04978 0.03087,0.07091 -0.16307,0.07171 -0.151237,5.91e-4 -0.499107,-0.104526 -0.773051,-0.23367 -0.591753,-0.278968 -0.664846,-0.284363 -0.9652,-0.07124 -0.126785,0.08996 -0.220628,0.129546 -0.208536,0.08797 0.01208,-0.04158 -0.08207,-0.192978 -0.209246,-0.33644 l -0.231222,-0.260836 -0.08303,0.197455 c -0.04567,0.1086 -0.204483,0.353735 -0.352926,0.544742 -0.148443,0.19101 -0.307237,0.396386 -0.352876,0.456394 -0.05028,0.06611 0.04833,0.04234 0.250253,-0.06031 0.635066,-0.322856 0.329266,-0.105872 -0.511322,0.362813 -1.260898,0.703036 -1.226421,0.687747 -1.125057,0.499006 z m 20.353499,-0.832324 c 0.495508,-0.495181 0.918596,-0.900325 0.940201,-0.900325 0.02162,0 -0.366131,0.405144 -0.861635,0.900325 -0.495505,0.49518 -0.918596,0.900327 -0.940201,0.900327 -0.02162,0 0.366131,-0.405147 0.861635,-0.900327 z m -12.449929,0.502906 c -0.02334,-0.0613 -0.01167,-0.42853 0.02589,-0.816063 0.05954,-0.614139 0.07035,-0.649318 0.08419,-0.274012 l 0.01586,0.430592 0.104957,-0.33494 c 0.05772,-0.184217 0.190405,-0.448441 0.294846,-0.587169 0.171455,-0.227746 0.510924,-0.894711 0.823895,-1.618732 0.105179,-0.243322 0.10474,-0.260386 -0.0044,-0.170135 -0.06671,0.05518 -0.232986,0.273761 -0.369492,0.485747 -0.136509,0.211987 -0.264277,0.385429 -0.283925,0.385429 -0.04513,0 0.008,-0.08978 0.380045,-0.641592 0.165315,-0.245228 0.300571,-0.469136 0.300571,-0.497577 0,-0.02844 0.08838,-0.156385 0.19641,-0.284316 0.108024,-0.127933 0.19695,-0.185864 0.197612,-0.128735 8.91e-4,0.07839 0.01915,0.0756 0.07434,-0.01136 0.06255,-0.09857 0.08072,-0.09555 0.125549,0.02089 0.06419,0.16669 0.02857,0.325302 -0.237932,1.059005 -0.366749,1.00975 -1.641881,3.210419 -1.728435,2.98299 z M 7.4224847,38.078533 c -0.083878,-0.06778 -0.099473,-0.09434 -0.034658,-0.05903 0.064815,0.03532 0.3299672,0.08541 0.5892256,0.111302 l 0.4713817,0.04709 -0.4367236,0.01192 C 7.7165408,38.1979 7.5255562,38.161801 7.4224847,38.078521 Z m 1.7934419,-0.0093 c 0.07644,-0.01985 0.1825012,-0.01855 0.2356908,0.003 0.05319,0.02145 -0.00935,0.03768 -0.1389826,0.03609 -0.1296292,-0.0015 -0.1731478,-0.01914 -0.096708,-0.03899 z m 0.9805484,-0.07589 c 0.05401,-0.02172 0.142397,-0.02172 0.196409,0 0.05401,0.02172 0.0098,0.03949 -0.0982,0.03949 -0.108025,0 -0.152217,-0.01775 -0.09821,-0.03949 z m 9.054457,-0.296432 c 0,-0.02154 0.106062,-0.0938 0.235691,-0.160598 0.129629,-0.0668 0.235691,-0.103842 0.235691,-0.08231 0,0.02154 -0.106062,0.0938 -0.235691,0.160601 -0.129629,0.0668 -0.235691,0.103839 -0.235691,0.08231 z m 3.280947,-0.09854 c 0.09773,-0.01873 0.239142,-0.01802 0.314254,0.0015 0.07512,0.01959 -0.0048,0.03492 -0.177682,0.03405 -0.172842,-8.88e-4 -0.234298,-0.0169 -0.136572,-0.03563 z m 1.00077,-0.805809 c 0.199497,-0.258356 0.380398,-0.469739 0.402003,-0.469739 0.02162,0 -0.123943,0.211383 -0.323438,0.469739 -0.199497,0.258353 -0.380398,0.469736 -0.402003,0.469736 -0.02162,0 0.123943,-0.211383 0.323438,-0.469736 z m 1.692069,0.03914 c 2.96e-4,-0.04306 0.07284,-0.166365 0.161196,-0.274015 0.106706,-0.129999 0.133385,-0.143143 0.07945,-0.03914 -0.132435,0.255362 -0.241225,0.396933 -0.240643,0.313159 z m 0.389867,-0.66546 c 0.04625,-0.08612 0.101768,-0.156579 0.123373,-0.156579 0.02162,0 0.0015,0.07046 -0.04481,0.156579 -0.04625,0.08612 -0.101768,0.156577 -0.123373,0.156577 -0.02162,0 -0.0015,-0.07046 0.04481,-0.156577 z M 24.121877,35.9801 c 0,-0.01624 0.06187,-0.07791 0.137486,-0.137004 0.124606,-0.09738 0.127385,-0.09461 0.02966,0.02956 -0.102632,0.130407 -0.167147,0.17188 -0.167147,0.107446 z m 0.235691,-0.313157 c 0,-0.01624 0.06187,-0.07791 0.137486,-0.137006 0.124605,-0.09738 0.127385,-0.09461 0.02966,0.02956 -0.102632,0.130411 -0.167147,0.171884 -0.167147,0.107449 z M 38.577582,35.17094 c 0.06482,-0.02391 0.170876,-0.08278 0.235691,-0.130825 0.102403,-0.0759 0.103716,-0.0694 0.01001,0.04966 -0.0593,0.07535 -0.165366,0.134225 -0.235691,0.130825 -0.106962,-0.0052 -0.108601,-0.01329 -0.01001,-0.04966 z M 16.640739,34.772997 c 0.12261,-0.09403 0.153396,-0.162471 0.09794,-0.217727 -0.05545,-0.05526 0.0091,-0.226923 0.205531,-0.546151 0.157523,-0.25606 0.340345,-0.569133 0.406273,-0.695721 l 0.119872,-0.23016 0.114233,0.171442 c 0.06283,0.09429 0.150284,0.171443 0.194349,0.171443 0.152942,0 0.529228,-0.469357 0.529228,-0.660125 0,-0.105499 0.03535,-0.21359 0.07856,-0.240203 0.04321,-0.0266 0.07857,-0.09915 0.07857,-0.161198 0,-0.156669 -0.350361,-0.143939 -0.513526,0.01864 -0.12353,0.123099 -0.130107,0.122034 -0.103288,-0.01675 0.02411,-0.124818 0.189794,-0.176206 1.049443,-0.325524 0.561438,-0.09752 1.077915,-0.204483 1.147724,-0.237694 0.06981,-0.03321 0.492289,-0.447917 0.938838,-0.921567 0.446547,-0.473651 1.591453,-1.671461 2.544232,-2.661801 0.952782,-0.990339 1.970967,-2.049913 2.262632,-2.354607 0.291669,-0.304693 0.530306,-0.615053 0.530306,-0.689687 0,-0.07464 0.02797,-0.118477 0.06215,-0.09743 0.03418,0.02104 0.04742,-0.08737 0.02943,-0.240934 -0.01799,-0.153562 -0.0012,-0.259744 0.03751,-0.23596 0.03862,0.02379 0.06222,-0.103522 0.05244,-0.282901 l -0.01776,-0.326143 0.08629,0.3523 0.08629,0.352304 0.10398,-0.246994 c 0.08666,-0.205855 0.08612,-0.303652 -0.0033,-0.587171 -0.09612,-0.304866 -0.10806,-0.316474 -0.115023,-0.111831 -0.0043,0.125587 -0.02809,0.208095 -0.05292,0.183349 -0.02482,-0.02474 0.01648,-0.430133 0.09179,-0.900857 0.195187,-1.219905 0.0917,-1.399041 -0.407119,-0.704749 -0.616229,0.857706 -0.521281,0.639814 0.520257,-1.193911 l 0.689248,-1.213484 -0.05504,-1.8398 c -0.05078,-1.697396 -0.04873,-1.962792 0.01446,-1.872419 0.01253,0.01793 0.173296,0.235877 0.357231,0.4843 0.183933,0.248426 0.3126,0.486872 0.285923,0.529883 -0.02666,0.04301 0.02723,0.20031 0.119798,0.349558 0.09256,0.149247 0.233021,0.542079 0.31213,0.872966 0.123418,0.516209 0.128193,0.617193 0.03364,0.711421 -0.111017,0.110627 -0.15551,0.490076 -0.05746,0.490076 0.02901,0 0.117386,-0.0583 0.196406,-0.129567 0.134927,-0.121679 0.143674,-0.119392 0.143674,0.03756 0,0.149129 -0.126372,0.54474 -0.316985,0.992334 -0.03667,0.08612 -0.0905,0.279885 -0.119611,0.430592 -0.0291,0.150706 -0.08334,0.311815 -0.120504,0.35802 -0.03716,0.0462 -0.08829,0.257587 -0.113604,0.469736 -0.04192,0.351279 -0.164038,0.687072 -0.479126,1.31748 -0.284055,0.568316 -0.469929,1.259123 -0.570839,2.121531 -0.05773,0.493331 -0.227724,1.101135 -0.409774,1.465088 -0.03691,0.07379 -0.04496,0.295237 -0.01788,0.4921 0.04137,0.300797 0.02188,0.386935 -0.122069,0.539636 -0.09422,0.09994 -0.191831,0.31887 -0.216922,0.486516 -0.03298,0.22036 -0.124631,0.373288 -0.330783,0.551957 -0.15684,0.135932 -0.266151,0.26644 -0.242916,0.29002 0.03719,0.03773 0.472404,-0.295539 2.490612,-1.907214 0.269613,-0.215303 0.512745,-0.391459 0.540294,-0.391459 0.05375,0 -0.04745,0.08312 -2.726427,2.239233 -2.851151,2.294687 -2.690062,2.188789 -3.500838,2.301401 -0.382528,0.05313 -0.819243,0.138646 -0.97048,0.190037 -0.151234,0.05139 -0.946691,0.57975 -1.76768,1.174127 -1.642614,1.189214 -3.194058,2.238257 -3.306186,2.235549 -0.03963,-8.87e-4 0.0084,-0.06346 0.106765,-0.138882 z m 11.00177,-1.556926 c 0.05671,-0.02261 0.124475,-0.01982 0.150581,0.0062 0.0261,0.02601 -0.02031,0.04452 -0.103116,0.04112 -0.09152,-0.0038 -0.110138,-0.02231 -0.04746,-0.0473 z m -3.363506,-0.61198 c 0.146584,-0.150709 0.284192,-0.274012 0.305796,-0.274012 0.02162,0 -0.08065,0.123303 -0.227231,0.274012 -0.146584,0.150707 -0.284192,0.274013 -0.305797,0.274013 -0.02162,0 0.08065,-0.123306 0.227232,-0.274013 z m 0.785638,-0.704603 c 0.146581,-0.150709 0.284189,-0.274013 0.305794,-0.274013 0.02162,0 -0.08065,0.123304 -0.227232,0.274013 -0.146581,0.150706 -0.284192,0.274012 -0.305796,0.274012 -0.02162,0 0.08065,-0.123306 0.227234,-0.274012 z m 0.549944,-0.538441 c 0,-0.01624 0.06187,-0.07791 0.137486,-0.137006 0.124608,-0.09738 0.127385,-0.09461 0.02966,0.02956 -0.102635,0.130411 -0.16715,0.171884 -0.16715,0.107446 z M 39.127526,30.57815 c 0,-0.01625 0.06187,-0.07791 0.137487,-0.137006 0.124608,-0.09738 0.127387,-0.09461 0.02966,0.02956 -0.102635,0.130411 -0.16715,0.171881 -0.16715,0.107446 z m 3.928182,-5.401963 c 0,-0.01624 0.06187,-0.07791 0.137486,-0.137006 0.124606,-0.09738 0.127385,-0.09461 0.02966,0.02956 -0.102632,0.13041 -0.167147,0.171883 -0.167147,0.107449 z"
   id="path1088"
   sodipodi:nodetypes="sssssssssssssssssssssssssssssssssssssssssssssssscssscssssscssssssssssscsssssssssssssssscssssssssssssssssssssssssssssscsssssscssssssssssssssssssssssssssssssssssscsssssssssscssssssssssscsssssccsssssssscsssssssssssssssssscssssssssssssssssssssssssssssssssssssssssssssssssssscssscssssssssssssssssscccssssssscssssssssssssssssssssssssssssssssssssssssssssssssssssssssssssssssss" /><path
   style="fill:#3d4e6f;fill-opacity:1;stroke-width:0.0784262"
   d="m 24.694332,49.88723 c 0.250033,-0.01559 0.638924,-0.01545 0.864198,2.96e-4 0.225274,0.01577 0.0207,0.02852 -0.454608,0.02835 -0.47531,-1.57e-4 -0.659626,-0.01308 -0.40959,-0.02864 z m -1.868756,-0.07387 c -0.378412,-0.03274 -1.892834,-0.254139 -2.140857,-0.312973 -0.172055,-0.04081 -0.25133,-0.181535 -0.102269,-0.181535 0.201558,0 8.968094,-5.699349 11.199379,-7.280999 0.980212,-0.694828 1.624605,-1.280014 1.920722,-1.744246 0.07637,-0.119731 0.318761,-0.408562 0.538637,-0.64185 0.219876,-0.233285 0.496686,-0.628544 0.615136,-0.878354 0.118447,-0.249811 0.36782,-0.680947 0.554164,-0.958081 0.18634,-0.277134 0.338804,-0.530259 0.338804,-0.5625 0,-0.03224 0.04123,-0.157799 0.09162,-0.279016 0.05039,-0.121214 0.09458,-0.240762 0.0982,-0.265656 0.0036,-0.02488 0.0671,-0.165817 0.141056,-0.313159 0.07396,-0.147339 0.246989,-0.637808 0.38451,-1.089929 0.359486,-1.181853 0.593428,-1.87837 0.649744,-1.934493 0.02696,-0.02687 0.04901,-0.134411 0.04901,-0.239004 0,-0.192744 0.225785,-0.644919 0.32203,-0.644919 0.05437,0 0.172738,-0.307889 0.157924,-0.410787 -0.0082,-0.0568 1.013208,-1.054239 1.711675,-1.671547 0.256967,-0.22711 0.333305,-0.265201 0.298187,-0.148795 -0.190658,0.63203 -1.154237,4.68542 -1.154237,4.855428 0,0.345048 0.326387,-0.01787 1.180762,-1.312953 l 0.942582,-1.428778 0.698762,-2.113812 c 0.384318,-1.162596 0.882875,-2.712728 1.107903,-3.444732 0.296348,-0.964001 0.467996,-1.395667 0.622612,-1.565784 0.117411,-0.12918 0.666491,-0.789745 1.22018,-1.467926 0.553688,-0.678183 1.045719,-1.230811 1.093394,-1.228065 0.04768,0.0027 0.581636,0.107904 1.186576,0.233687 0.976376,0.203012 1.026602,0.245721 0.122782,0.104404 -0.289727,-0.0453 -0.306453,-0.03745 -0.264096,0.123966 0.02488,0.09478 0.106662,0.195813 0.181756,0.224515 0.129341,0.04943 0.129074,0.07554 -0.005,0.495538 -0.07787,0.243845 -0.165718,0.603818 -0.195233,0.799944 -0.02952,0.196124 -0.102846,0.397268 -0.162963,0.446985 -0.06012,0.04972 -0.109307,0.162853 -0.109307,0.251406 0,0.171998 -0.05087,0.342467 -0.413474,1.385607 -0.218858,0.629612 -0.522731,1.362364 -0.689476,1.662587 -0.04153,0.07477 -0.0755,0.177686 -0.0755,0.228704 0,0.05102 -0.0492,0.148378 -0.109342,0.216357 -0.06014,0.06798 -0.204694,0.370211 -0.321238,0.671623 -0.116543,0.301415 -0.258605,0.653716 -0.315693,0.782892 -0.107856,0.244056 -0.254404,0.741568 -0.357449,1.213487 -0.08004,0.366566 -0.453025,1.347759 -0.548492,1.442893 -0.0419,0.04176 -0.07618,0.15284 -0.07618,0.246855 0,0.105091 -0.06052,0.186705 -0.157129,0.21188 -0.101919,0.02657 -0.157125,0.106786 -0.157125,0.22834 0,0.103067 -0.03236,0.220863 -0.07191,0.261771 -0.03955,0.0409 -0.08374,0.162119 -0.09821,0.269364 -0.01642,0.12169 -0.109589,0.234652 -0.247874,0.300498 -0.208207,0.09914 -0.212946,0.11189 -0.07856,0.211261 0.125805,0.09303 0.130034,0.126898 0.03514,0.281463 -0.05933,0.09664 -0.170709,0.389435 -0.247508,0.650656 -0.0768,0.261217 -0.203438,0.615864 -0.281419,0.7881 -0.07798,0.172238 -0.151947,0.366003 -0.164373,0.430592 -0.01241,0.06459 -0.04526,0.240738 -0.07297,0.391447 -0.0277,0.150706 -0.116353,0.367527 -0.196985,0.481821 -0.08064,0.114296 -0.146608,0.238578 -0.146608,0.276187 0,0.03761 -0.06872,0.127013 -0.152713,0.198676 -0.08399,0.07167 -0.176076,0.254392 -0.204629,0.406059 -0.02854,0.151665 -0.101245,0.316554 -0.16154,0.366418 -0.06029,0.04987 -0.109625,0.13943 -0.109625,0.199032 0,0.0596 -0.08839,0.184944 -0.19641,0.278545 -0.108027,0.0936 -0.196908,0.243094 -0.19752,0.332209 -5.94e-4,0.08912 -0.142023,0.31774 -0.314253,0.508049 -0.17223,0.190306 -0.313146,0.394631 -0.313146,0.45405 0,0.27899 -0.289911,0.633465 -1.730771,2.116212 -0.13599,0.139941 -0.289525,0.254442 -0.341192,0.254442 -0.05167,0 -0.156697,0.105868 -0.233404,0.235267 -0.0767,0.129399 -0.239207,0.286668 -0.361115,0.349489 -0.121909,0.06282 -0.311968,0.22118 -0.42235,0.351901 -0.110385,0.130725 -0.238333,0.237682 -0.284334,0.237682 -0.046,0 -0.08363,0.03826 -0.08363,0.08501 0,0.04676 -0.22096,0.294998 -0.491024,0.551644 -0.774147,0.735687 -0.908031,0.850839 -0.989243,0.850839 -0.04188,0 -0.229737,0.128075 -0.41747,0.284617 -0.187727,0.156538 -0.4364,0.317775 -0.552602,0.358301 -0.143306,0.04998 -0.196484,0.112089 -0.165303,0.193061 0.03325,0.08636 0.0048,0.110479 -0.102982,0.08721 -0.08192,-0.01769 -0.140111,-0.07411 -0.129309,-0.125374 0.02898,-0.137491 -0.213165,-0.113503 -0.267065,0.02645 -0.04841,0.125727 -0.769986,0.898091 -0.839029,0.898091 -0.177762,0 0.400655,-1.218784 2.247871,-4.736504 0.678333,-1.291772 1.233657,-2.377476 1.234052,-2.412673 0.0012,-0.09325 -0.313689,0.015 -0.607611,0.208989 -0.151995,0.100315 -0.25501,0.234335 -0.25533,0.332179 -5.94e-4,0.201793 -0.23355,0.423153 -0.44519,0.423153 -0.08739,0 -0.204025,0.08699 -0.26242,0.195724 -0.05781,0.107647 -0.134493,0.195721 -0.170402,0.195721 -0.03591,0 -0.06529,0.04739 -0.06529,0.105301 0,0.141693 -0.255877,0.364435 -0.418644,0.364435 -0.07222,0 -0.131301,0.039 -0.131301,0.08667 0,0.04766 -0.05303,0.06639 -0.117846,0.0416 -0.0699,-0.02672 -0.117844,-8.88e-4 -0.117844,0.06369 0,0.05982 -0.102466,0.131183 -0.227704,0.158591 -0.132402,0.02897 -0.244406,0.113498 -0.267617,0.201944 -0.02194,0.08366 -0.100007,0.152106 -0.173451,0.152106 -0.07344,0 -0.204521,0.08993 -0.291282,0.199848 -0.08676,0.109914 -0.174345,0.183311 -0.194622,0.163101 -0.04704,-0.04687 -0.167592,0.05986 -1.102665,0.976243 -0.422047,0.413614 -0.846905,0.777099 -0.944127,0.807745 -0.09722,0.03064 -0.176767,0.103055 -0.176767,0.160915 0,0.130058 -0.442962,0.510563 -0.594366,0.510563 -0.06101,0 -0.402995,0.285606 -0.759968,0.634678 -0.35697,0.349069 -0.782817,0.720186 -0.946326,0.824699 -0.163507,0.104514 -0.358613,0.25048 -0.433568,0.324371 -0.340579,0.335739 -1.60401,1.354035 -2.148844,1.731919 -0.683371,0.473973 -1.00202,0.567071 -1.951963,0.570302 l -0.667791,0.0024 0.942763,0.09757 c 0.716076,0.07411 0.819973,0.09712 0.432101,0.09568 -0.280867,-0.0012 -0.652078,-0.01414 -0.82492,-0.02909 z m 10.779492,-4.676188 c 0.03426,-0.05979 0.786662,-0.860849 1.672008,-1.780123 4.529014,-4.702576 4.359088,-4.499156 5.357316,-6.413187 1.282957,-2.459979 1.722576,-3.361164 1.639651,-3.361164 -0.171016,0 -5.362872,4.915654 -5.618561,5.319659 -0.09678,0.152917 -0.592985,1.070705 -1.10268,2.039536 -0.509695,0.968831 -1.239655,2.355829 -1.622132,3.082217 -0.382477,0.726387 -0.695415,1.335349 -0.695415,1.353244 0,0.06599 0.309592,-0.135076 0.369813,-0.240182 z M 46.255539,22.809765 c -0.0261,-0.02601 -0.09387,-0.02879 -0.15058,-0.0062 -0.06267,0.025 -0.04406,0.04354 0.04746,0.0473 0.08282,0.0034 0.12922,-0.01512 0.103116,-0.04112 z M 18.308169,48.97662 c 0,-0.01601 0.750971,-0.729403 1.668824,-1.585358 0.917854,-0.855955 2.747406,-2.613593 4.065668,-3.905863 2.849566,-2.793377 6.049287,-5.849865 7.077888,-6.761055 0.617461,-0.546977 0.590419,-0.5146 -0.16348,0.195724 -2.147992,2.023847 -4.786271,4.565682 -6.246551,6.018209 -1.42417,1.416606 -2.172171,2.146074 -5.275366,5.144661 -0.813448,0.786026 -1.126983,1.034656 -1.126983,0.893682 z m -1.217736,-0.39117 c -2.025881,-0.71686 -4.509616,-1.925518 -5.12183,-2.492435 -0.161321,-0.149383 -0.165261,-0.177712 -0.06169,-0.44367 1.517077,-3.895554 2.256102,-5.872531 2.264696,-6.058336 0.0071,-0.153068 -0.05629,-0.157847 1.386827,0.104584 1.060735,0.192895 1.141367,0.189451 1.610555,-0.06878 1.448351,-0.797157 1.541407,-0.832544 0.549947,-0.209122 -0.302471,0.190188 -0.488078,0.346714 -0.412461,0.347835 0.07562,0.0012 0.137486,0.03727 0.137486,0.08033 0,0.04306 -0.03535,0.07829 -0.07856,0.07829 -0.144675,0 -0.08054,0.223692 0.07856,0.274012 0.08642,0.02734 0.157128,0.08492 0.157128,0.127987 0,0.04306 -0.07071,0.05592 -0.157128,0.02858 -0.189271,-0.05986 -0.205903,0.02548 -0.02995,0.153697 0.09981,0.07273 0.108651,0.125126 0.04109,0.2435 -0.04735,0.08295 -0.121556,0.292923 -0.164902,0.466596 -0.04335,0.173671 -0.175517,0.432083 -0.293706,0.574253 -0.383825,0.46169 -0.902579,2.340347 -0.542527,1.964745 0.06044,-0.06305 0.453673,-0.889702 0.873848,-1.837004 0.420176,-0.947301 0.915324,-2.033106 1.100334,-2.412901 0.247622,-0.508336 0.302083,-0.678704 0.206402,-0.645694 -0.09658,0.03332 -0.09079,0.01462 0.02254,-0.07278 0.185426,-0.143022 0.311825,-0.152872 0.253602,-0.01977 -0.02355,0.05382 -0.463323,1.049075 -0.977291,2.21167 -0.863746,1.953803 -1.567882,3.645992 -1.707634,4.103809 -0.04543,0.148833 0.02791,0.103937 0.342807,-0.209862 0.22033,-0.219561 0.498592,-0.459385 0.61836,-0.532942 0.364053,-0.223589 1.891956,-2.059083 2.275041,-2.733047 0.425619,-0.748784 0.951298,-2.046102 1.020537,-2.518572 0.02438,-0.166267 -0.03026,-0.377096 -0.167774,-0.647519 -0.179606,-0.353197 -0.188754,-0.406775 -0.07676,-0.4496 0.195976,-0.07494 0.557151,0.133707 1.353146,0.781702 0.401294,0.326679 0.772508,0.576129 0.82492,0.55433 0.05241,-0.02178 0.228151,-0.205145 0.390538,-0.407446 0.29979,-0.373484 1.065647,-1.215103 0.837263,-0.920097 -0.348386,0.45002 -1.131443,1.343167 -1.22746,1.400026 -0.07436,0.04404 -0.223466,-0.03136 -0.464463,-0.234868 -0.596756,-0.503921 -1.004214,-0.819314 -1.168985,-0.904858 -0.146893,-0.07626 -0.146065,-0.06941 0.01271,0.1052 0.09341,0.102727 0.352958,0.486233 0.576772,0.852236 0.223811,0.366004 0.49541,0.781957 0.603553,0.924343 0.133079,0.175221 0.181129,0.314372 0.14868,0.430592 -0.02637,0.09444 -0.5583,0.697461 -1.182071,1.34005 -0.623771,0.642587 -1.115849,1.197814 -1.093507,1.233836 0.05003,0.08067 -0.286835,0.768539 -0.376366,0.768539 -0.03555,0 -0.06515,0.06165 -0.06578,0.137006 -0.0018,0.2139 -0.22678,0.805907 -0.354755,0.933435 -0.06352,0.06329 -0.115484,0.192804 -0.115484,0.287792 0,0.192954 -0.193544,0.506667 -0.408512,0.662155 -0.07779,0.05627 -0.141435,0.172946 -0.141435,0.259288 0,0.08634 -0.08917,0.344829 -0.198161,0.57441 -0.10899,0.22958 -0.250784,0.593997 -0.3151,0.80981 -0.112775,0.378431 -0.433541,0.813378 -0.65355,0.886192 -0.05841,0.01932 0.15371,0.128561 0.471381,0.24273 0.317674,0.114169 0.524557,0.207974 0.459739,0.208459 -0.06481,5.92e-4 -0.542087,-0.149241 -1.060607,-0.332721 z M 9.9804261,44.750748 C 9.2326796,44.174835 7.9427239,43.010245 7.5155615,42.52543 7.37714,42.368327 7.2614073,42.122396 7.2203236,41.898053 7.1831624,41.695112 7.0509647,41.264843 6.9265555,40.941898 6.8021434,40.618954 6.5163837,39.861505 6.2915339,39.258678 6.066684,38.655851 5.7589572,37.904137 5.6076993,37.588205 5.4564385,37.272274 5.3452726,37.001235 5.3606626,36.985899 c 0.015381,-0.01533 0.5384293,0.255897 1.1623071,0.602744 l 1.134321,0.630633 1.1812098,-0.0876 c 0.6496635,-0.04818 1.2913815,-0.08735 1.4260345,-0.08704 l 0.24483,5.92e-4 0.05269,1.311346 c 0.09448,2.351265 0.200285,4.585389 0.250273,5.284527 0.02693,0.376769 0.01871,0.684918 -0.01829,0.684776 -0.037,-1.56e-4 -0.403122,-0.258933 -0.8136179,-0.575095 z M 24.699906,40.980196 c -0.0307,-0.07973 0.03581,-1.03723 0.147813,-2.127763 l 0.20364,-1.982792 0.43874,-0.692904 c 0.463349,-0.73177 0.525299,-0.877609 0.301253,-0.70922 -0.07562,0.05684 0.03715,-0.07896 0.250597,-0.301764 0.213445,-0.222808 0.402458,-0.390776 0.42003,-0.373265 0.01758,0.01752 -0.07237,0.184045 -0.199874,0.370072 -0.127503,0.186027 -0.418608,0.637687 -0.646896,1.00369 -0.395801,0.63456 -0.418329,0.699817 -0.485148,1.405418 -0.09365,0.988883 -0.04824,1.071634 0.299532,0.545837 0.728799,-1.101866 1.526724,-2.767847 1.655062,-3.455587 l 0.03967,-0.212561 0.286098,0.147715 c 0.157357,0.08124 0.356807,0.20526 0.443227,0.275595 0.151296,0.123134 0.149838,0.124339 -0.03928,0.03245 -0.186147,-0.09044 -0.190459,-0.0876 -0.08249,0.0544 0.06265,0.0824 0.193354,0.237898 0.290446,0.345545 0.09709,0.107647 0.230387,0.324208 0.296215,0.481243 l 0.119684,0.28552 -0.445646,0.693096 c -0.946137,1.471485 -2.304046,3.343455 -2.883443,3.975023 -0.306292,0.333872 -0.360839,0.365897 -0.409224,0.240247 z m -6.111685,-3.017051 c 0.046,-0.06252 0.205092,-0.269956 0.353535,-0.460966 0.148443,-0.191007 0.3067,-0.434778 0.351682,-0.54171 l 0.08179,-0.194421 0.249671,0.266212 c 0.137317,0.146418 0.224253,0.289129 0.193185,0.317139 -0.154281,0.139095 -1.302074,0.711883 -1.22986,0.613746 z m 5.760781,-0.876996 c 0.316486,-0.376769 0.591749,-0.685031 0.611694,-0.685031 0.05139,0 -0.907692,1.148005 -1.060583,1.269503 -0.0696,0.05531 0.132402,-0.207704 0.448889,-0.584472 z m -2.420963,0.416338 c -0.08362,-0.05274 -0.05383,-0.07717 0.117847,-0.09666 0.177889,-0.02021 0.234915,-0.07027 0.252654,-0.221813 0.01259,-0.107648 0.05189,-0.266183 0.08732,-0.352301 0.141192,-0.34324 0.243308,-0.725689 0.243308,-0.911249 0,-0.107541 0.05245,-0.371522 0.116552,-0.586627 0.08254,-0.276971 0.09548,-0.464324 0.04433,-0.642034 -0.04472,-0.155375 -0.04422,-0.233693 0.0012,-0.20566 0.04043,0.02492 0.07351,-0.02725 0.07351,-0.115923 0,-0.181166 -0.08038,-0.206367 -0.218668,-0.06856 -0.05114,0.05096 -0.112508,0.07317 -0.136388,0.04938 -0.02387,-0.02379 0.674286,-0.693419 1.55148,-1.488044 l 1.594898,-1.444774 1.64017,-2.181158 c 0.902096,-1.199636 1.65696,-2.245143 1.677484,-2.323342 0.06612,-0.251959 -0.196635,-0.159515 -0.708545,0.249278 -2.018209,1.611672 -2.453424,1.944943 -2.490609,1.907211 -0.02325,-0.02358 0.08607,-0.154089 0.242912,-0.290018 0.206155,-0.178671 0.297803,-0.331599 0.330784,-0.551956 0.02509,-0.167647 0.122708,-0.386581 0.216922,-0.486517 0.143959,-0.1527 0.163444,-0.238839 0.122069,-0.539638 -0.02708,-0.19686 -0.01903,-0.418306 0.01788,-0.4921 0.18205,-0.36395 0.35205,-0.971757 0.409774,-1.465085 0.10091,-0.862409 0.286787,-1.553215 0.57084,-2.121535 0.315088,-0.630408 0.437204,-0.966197 0.479125,-1.317477 0.02533,-0.212152 0.07644,-0.423531 0.113607,-0.469736 0.03716,-0.04621 0.09139,-0.207314 0.120502,-0.358023 0.0291,-0.150706 0.08294,-0.344471 0.11961,-0.430589 0.190614,-0.447596 0.316986,-0.843204 0.316986,-0.992336 0,-0.15695 -0.0088,-0.15924 -0.143675,-0.03756 -0.07902,0.07126 -0.167402,0.12957 -0.196409,0.12957 -0.09804,0 -0.05355,-0.379449 0.05747,-0.490079 0.09456,-0.09423 0.08978,-0.195209 -0.03364,-0.711421 -0.07912,-0.330891 -0.22113,-0.726221 -0.315584,-0.878519 -0.09445,-0.152298 -0.156805,-0.291783 -0.138555,-0.309969 0.01826,-0.0182 0.490718,0.588151 1.04993,1.347418 1.336416,1.814519 1.401575,1.887215 2.674977,2.984399 0.600322,0.517251 1.480385,1.278227 1.955695,1.691062 0.925141,0.80354 0.953079,0.816997 2.229343,1.073767 0.405148,0.08151 0.828156,0.192031 0.94002,0.2456 0.111864,0.05357 0.628863,0.656465 1.148895,1.339773 0.88337,1.160735 0.979066,1.259526 1.45617,1.503271 0.280863,0.143492 0.47531,0.261611 0.4321,0.262489 -0.04321,8.88e-4 -0.289091,-0.111908 -0.546402,-0.250642 -0.393632,-0.212229 -0.571733,-0.388835 -1.122862,-1.11342 -1.37297,-1.805091 -1.231525,-1.676015 -2.013986,-1.837889 -0.401686,-0.0831 -0.775237,0.05341 -0.775237,0.05341 0.05149,0.02565 0.09821,0.08703 0.09821,0.14938 0,0.06235 0.0543,0.134133 0.120665,0.159509 0.108511,0.04149 0.108511,0.06463 0,0.229657 -0.06636,0.100934 -0.120665,0.288367 -0.120665,0.416516 0,0.128153 -0.03535,0.254776 -0.07856,0.281389 -0.04321,0.0266 -0.07857,0.198085 -0.07857,0.38105 0,0.322214 -0.378614,1.203823 -0.726712,1.692159 -0.07562,0.106082 -0.137486,0.249355 -0.137486,0.318388 0,0.06903 -0.08804,0.207926 -0.195632,0.308659 -0.250053,0.234089 -0.367259,0.182964 -1.101281,-0.480359 -0.302807,-0.273642 -0.868465,-0.760156 -1.25702,-1.081141 -0.388552,-0.320986 -0.734729,-0.629251 -0.769283,-0.685034 -0.121541,-0.1962 -0.270512,-0.102143 -0.319248,0.201571 -0.02675,0.166643 -0.106465,0.35083 -0.177168,0.409299 -0.106142,0.08778 -0.121253,0.212353 -0.0867,0.714771 0.02352,0.34179 0.01069,0.608461 -0.02928,0.608461 -0.03912,0 -0.07113,0.09438 -0.07113,0.209738 0,0.242126 -0.126888,0.672611 -0.290742,0.986389 -0.06796,0.130138 -0.09389,0.306877 -0.06455,0.439989 0.03989,0.181006 0.019,0.230309 -0.112093,0.26447 -0.167916,0.04376 -0.218629,0.24686 -0.08256,0.330658 0.139232,0.08575 0.08412,0.309852 -0.144823,0.588906 -0.122863,0.149753 -0.31499,0.501275 -0.426949,0.781158 -0.111962,0.279886 -0.258914,0.520272 -0.326561,0.534194 -0.11391,0.02343 -0.157916,0.115974 -0.130351,0.274092 0.0062,0.0355 -0.02245,0.04379 -0.06361,0.01843 -0.04117,-0.02536 -0.09827,0.02743 -0.126889,0.117275 -0.03398,0.106701 -0.09431,0.147212 -0.173896,0.116779 -0.100794,-0.03854 -0.104829,-0.02616 -0.02334,0.0717 0.117865,0.141521 0.04692,0.178109 -0.429835,0.221685 -0.288346,0.02636 -0.28187,0.02969 0.07856,0.0404 0.377563,0.01121 0.41829,-0.0096 1.048709,-0.534866 0.562647,-0.468839 0.696671,-0.545254 0.942764,-0.537531 l 0.286873,0.009 -0.286294,0.05561 c -0.187739,0.03647 -0.507207,0.239232 -0.928063,0.589026 l -0.641768,0.533416 -0.721773,-0.06548 c -0.396976,-0.03602 -0.930396,-0.06733 -1.185376,-0.06958 l -0.463602,-0.0041 -1.657616,2.205152 -1.657615,2.205152 -0.471382,0.0053 c -0.259262,0.003 -0.521739,-0.02642 -0.583284,-0.06525 z m 3.372293,-1.531961 c 0.146581,-0.150706 0.284189,-0.274012 0.305793,-0.274012 0.02162,0 -0.08065,0.123306 -0.227231,0.274012 -0.146581,0.150707 -0.284192,0.274013 -0.305797,0.274013 -0.02162,0 0.08065,-0.123306 0.227235,-0.274013 z m 3.367295,-0.513525 -0.18547,-0.161225 0.216188,0.131174 c 0.118904,0.07214 0.286882,0.112754 0.373287,0.09024 0.0864,-0.02252 0.137284,-0.009 0.113069,0.03005 -0.07533,0.121469 -0.32331,0.07819 -0.517074,-0.09024 z m 0.629356,-0.191078 c 0.04243,-0.08612 0.134713,-0.227039 0.205077,-0.313157 l 0.127937,-0.156579 -0.07714,0.156579 c -0.04243,0.08612 -0.134713,0.227039 -0.205077,0.313157 l -0.127937,0.156579 z m 0.717166,-1.135196 c 0.04625,-0.08612 0.101768,-0.15658 0.123373,-0.15658 0.02162,0 0.0015,0.07046 -0.04481,0.15658 -0.04625,0.08612 -0.101768,0.156579 -0.123373,0.156579 -0.02162,0 -0.0015,-0.07046 0.04481,-0.156579 z m 2.246915,-0.453243 c 0.660686,-0.470875 0.817066,-0.573761 0.817066,-0.537576 0,0.05073 -0.995244,0.755951 -1.066834,0.755951 -0.03115,0 0.08125,-0.09827 0.249768,-0.218375 z m -1.854099,-0.17307 c 0.04625,-0.08612 0.101771,-0.156579 0.123376,-0.156579 0.02162,0 0.0015,0.07046 -0.04481,0.156579 -0.04625,0.08612 -0.101771,0.156577 -0.123375,0.156577 -0.02162,0 -0.0015,-0.07046 0.04481,-0.156577 z m 7.384979,-2.867886 c 0.885806,-0.8238 1.834454,-1.730978 2.108108,-2.01595 0,0 -12.246684,11.464896 -2.108108,2.01595 z m -4.399561,2.291376 c 0,-0.02154 0.106062,-0.114403 0.235691,-0.206385 0.129629,-0.09198 0.235691,-0.149626 0.235691,-0.128097 0,0.02154 -0.106062,0.114406 -0.235691,0.206385 -0.129629,0.09198 -0.235691,0.149626 -0.235691,0.128097 z m -1.271747,-0.416442 c 0.05671,-0.02261 0.124474,-0.01983 0.15058,0.0062 0.0261,0.02601 -0.02031,0.04452 -0.103116,0.04112 -0.09152,-0.0038 -0.110138,-0.02231 -0.04746,-0.0473 z m 1.97882,-0.101442 c 0.108024,-0.09165 0.259781,-0.218532 0.337239,-0.281957 0.177073,-0.144998 0.111305,-0.26378 -0.121268,-0.219023 -0.173115,0.03331 -0.172966,0.03237 0.0073,-0.04665 0.101215,-0.04436 0.216114,-0.06089 0.255333,-0.03673 0.157915,0.09726 0.0523,0.274477 -0.301869,0.506507 -0.205249,0.134471 -0.284794,0.169502 -0.176767,0.07785 z m -2.376551,0.0248 c 0.05401,-0.02172 0.142398,-0.02172 0.19641,0 0.05401,0.02172 0.0098,0.03949 -0.09821,0.03949 -0.108024,0 -0.152217,-0.01778 -0.09821,-0.03949 z m 0.711984,-0.0015 c 0.05671,-0.02261 0.124474,-0.01982 0.150581,0.0062 0.0261,0.02601 -0.02031,0.04452 -0.103116,0.04112 -0.09152,-0.0038 -0.110139,-0.02231 -0.04747,-0.0473 z m -1.517261,-0.14403 c -0.216049,-0.05534 -0.322111,-0.103319 -0.235691,-0.106624 0.08642,-0.0033 0.333896,0.04301 0.549947,0.102919 0.493135,0.13674 0.217795,0.139986 -0.314256,0.0037 z m 2.474755,-0.154793 c 0.151234,-0.05804 0.328002,-0.105522 0.392819,-0.105522 0.06482,0 -0.0059,0.04749 -0.157128,0.105522 -0.151234,0.05804 -0.328004,0.105523 -0.392819,0.105523 -0.06482,0 0.0059,-0.04749 0.157128,-0.105523 z m -6.78567,-7.661011 c -0.03108,-0.122948 -0.03094,-0.387174 2.97e-4,-0.587171 l 0.05682,-0.36363 0.101058,0.340177 c 0.08243,0.277483 0.08238,0.385696 -2.97e-4,0.587169 l -0.101364,0.246993 z"
   id="path1086"
   sodipodi:nodetypes="sssssssssssssssssssssssssscsssssssssssssssssssssssssssssssssssssssssssssssssssssssssssscscsssssssssssssssssssssscssssssssssssssssssssssssssssssssssssssssssssssssssssssssssssssssssssssssssssssssssssssscsscsssssssssssssssssscsssssscssssssssssssssssssssscsssscssssssssssssssssssssssssssssssssssssssssssssssssssssssssssssssssssscsscsscccsccssssssssssssscsssssssssssssssssssssssscccsssssssssssssssssssssssssssssssssssssssssssss" /><path
   style="fill:#34405c;fill-opacity:1;stroke-width:0.0784262"
   d="m 23.218395,49.746783 -0.942763,-0.09758 0.667791,-0.0024 c 0.949943,-0.0032 1.268591,-0.09633 1.951963,-0.5703 0.544834,-0.377884 1.808265,-1.396179 2.148844,-1.731921 0.07496,-0.07389 0.270061,-0.219855 0.433567,-0.324368 0.16351,-0.104514 0.589357,-0.475631 0.946327,-0.824703 0.356973,-0.349069 0.698957,-0.634674 0.759968,-0.634674 0.151404,0 0.594366,-0.380506 0.594366,-0.510564 0,-0.05786 0.07954,-0.130272 0.176767,-0.160918 0.09722,-0.03065 0.52208,-0.394128 0.944127,-0.807741 0.935072,-0.916383 1.055627,-1.023116 1.102665,-0.976243 0.02028,0.02021 0.107858,-0.05319 0.194622,-0.163104 0.08676,-0.109914 0.217839,-0.199846 0.291282,-0.199846 0.07344,0 0.151499,-0.06845 0.173451,-0.152106 0.02322,-0.08845 0.135215,-0.172966 0.267617,-0.201946 0.125238,-0.0274 0.227703,-0.09878 0.227703,-0.158592 0,-0.06451 0.04795,-0.09042 0.117844,-0.06369 0.06482,0.0248 0.117847,0.0061 0.117847,-0.0416 0,-0.04767 0.06523,-0.08666 0.144951,-0.08666 0.157678,0 0.404994,-0.230856 0.404994,-0.378038 0,-0.05044 0.0294,-0.0917 0.06529,-0.0917 0.03591,0 0.112589,-0.08808 0.170401,-0.195724 0.06268,-0.116716 0.174125,-0.195724 0.276071,-0.195724 0.205146,0 0.430797,-0.228379 0.431539,-0.436755 2.97e-4,-0.08273 0.115196,-0.226086 0.255331,-0.318574 0.293922,-0.193984 0.608662,-0.302238 0.607611,-0.208989 -2.97e-4,0.0352 -0.555719,1.120898 -1.234052,2.412673 -1.847216,3.51772 -2.425634,4.736504 -2.247871,4.736504 0.06904,0 0.790617,-0.772364 0.839029,-0.898091 0.0539,-0.139962 0.296037,-0.163953 0.267065,-0.02645 -0.01081,0.05127 0.04739,0.107686 0.129309,0.125374 0.107757,0.02326 0.136236,-8.87e-4 0.102982,-0.08721 -0.03118,-0.08097 0.022,-0.143081 0.165303,-0.193061 0.116202,-0.04053 0.364875,-0.20176 0.552602,-0.358301 0.187733,-0.156538 0.375594,-0.284614 0.41747,-0.284614 0.08121,0 0.215096,-0.115154 0.989243,-0.850839 0.270064,-0.256646 0.491024,-0.504886 0.491024,-0.551643 0,-0.04676 0.03764,-0.08502 0.08363,-0.08502 0.046,0 0.173949,-0.106955 0.284331,-0.237679 0.110382,-0.130725 0.30044,-0.28908 0.422349,-0.351901 0.121909,-0.06282 0.284412,-0.220091 0.361116,-0.34949 0.07671,-0.129398 0.181738,-0.23527 0.233404,-0.23527 0.05167,0 0.205205,-0.114497 0.341192,-0.254439 1.44086,-1.48275 1.730771,-1.837222 1.730771,-2.116211 0,-0.05942 0.140915,-0.263745 0.313146,-0.454054 0.17223,-0.190306 0.313644,-0.418927 0.314253,-0.508045 5.94e-4,-0.08912 0.0895,-0.238614 0.19752,-0.332212 0.108025,-0.0936 0.19641,-0.218943 0.19641,-0.278546 0,-0.0596 0.04933,-0.149164 0.109625,-0.199029 0.0603,-0.04987 0.13299,-0.214756 0.161543,-0.36642 0.02857,-0.151665 0.120632,-0.33439 0.204626,-0.406056 0.08399,-0.07167 0.152713,-0.161072 0.152713,-0.19868 0,-0.03761 0.06597,-0.161891 0.146608,-0.276184 0.08063,-0.114296 0.169275,-0.331115 0.196988,-0.481824 0.0277,-0.150706 0.06054,-0.326856 0.07297,-0.391444 0.01241,-0.06459 0.08639,-0.258356 0.16437,-0.430592 0.07798,-0.172236 0.204617,-0.526882 0.281419,-0.788103 0.0768,-0.261221 0.188178,-0.554013 0.247508,-0.650656 0.09489,-0.154562 0.09066,-0.188436 -0.03514,-0.281463 -0.134383,-0.09937 -0.129641,-0.112121 0.07857,-0.211258 0.138285,-0.06585 0.231462,-0.178808 0.247871,-0.300501 0.01446,-0.107242 0.05865,-0.228456 0.09821,-0.269364 0.03955,-0.0409 0.07191,-0.158701 0.07191,-0.261768 0,-0.121554 0.05521,-0.201783 0.157128,-0.228343 0.0966,-0.02518 0.157126,-0.106786 0.157126,-0.21188 0,-0.09401 0.03428,-0.205098 0.07619,-0.246852 0.09547,-0.09514 0.468448,-1.076327 0.548489,-1.442895 0.103045,-0.471917 0.249593,-0.969429 0.357451,-1.213484 0.05709,-0.129177 0.199148,-0.48148 0.315691,-0.782893 0.116543,-0.301415 0.2611,-0.603644 0.321237,-0.671626 0.06014,-0.06798 0.109346,-0.165338 0.109346,-0.216356 0,-0.05102 0.03397,-0.153935 0.0755,-0.228705 0.166746,-0.300223 0.470619,-1.032972 0.68948,-1.662584 0.362603,-1.043139 0.413473,-1.213611 0.413473,-1.385607 0,-0.08856 0.04919,-0.201686 0.109305,-0.251406 0.06012,-0.04972 0.13345,-0.250864 0.162966,-0.446987 0.02952,-0.196124 0.117368,-0.5561 0.19523,-0.799942 0.134113,-0.420005 0.13438,-0.446103 0.005,-0.495538 -0.158393,-0.06054 -0.268864,-0.378612 -0.131289,-0.378011 0.09296,2.96e-4 2.658679,0.43361 3.066273,0.517718 l 0.225699,0.04658 -0.04118,2.085908 c -0.04462,2.259822 -0.174021,3.387635 -0.604215,5.265943 -1.397267,6.100768 -5.124256,11.469132 -10.412084,14.99759 -2.883838,1.924326 -6.164895,3.198634 -9.82045,3.814105 -1.690742,0.284662 -3.86634,0.34677 -5.656581,0.16148 z M 17.691301,48.709428 C 17.37363,48.595416 17.16151,48.486316 17.21992,48.466982 c 0.22001,-0.07281 0.540775,-0.507761 0.65355,-0.886193 0.06432,-0.215815 0.20611,-0.580229 0.3151,-0.80981 0.108989,-0.229583 0.198161,-0.488066 0.198161,-0.574409 0,-0.08634 0.06365,-0.203024 0.141436,-0.259288 0.214967,-0.155491 0.408512,-0.469204 0.408512,-0.662155 0,-0.09499 0.05197,-0.224497 0.115483,-0.287792 0.127975,-0.127528 0.35297,-0.719538 0.354755,-0.933436 5.94e-4,-0.07535 0.03023,-0.137006 0.06578,-0.137006 0.08953,0 0.426393,-0.687874 0.376366,-0.768538 -0.02233,-0.03602 0.469736,-0.591249 1.093507,-1.233836 0.623771,-0.64259 1.155701,-1.245612 1.182071,-1.340054 0.03245,-0.116219 -0.01559,-0.25537 -0.14868,-0.430591 -0.108143,-0.142386 -0.379742,-0.558337 -0.603553,-0.92434 -0.223813,-0.366004 -0.48336,-0.750234 -0.576772,-0.853848 l -0.16984,-0.188389 0.251977,0.144578 c 0.138588,0.07952 0.509802,0.36672 0.82492,0.638229 0.315115,0.271505 0.599455,0.493795 0.631862,0.493975 0.09236,5.92e-4 0.245995,-0.171013 1.683574,-1.879514 1.43977,-1.711106 2.034183,-2.381045 1.944177,-2.191207 -0.03062,0.06459 -0.248112,0.425425 -0.483313,0.801859 l -0.427634,0.684424 -0.20364,1.982792 c -0.112,1.090536 -0.178516,2.048028 -0.147813,2.127763 0.04838,0.12565 0.102932,0.09363 0.409224,-0.240247 0.579397,-0.631568 1.937306,-2.503538 2.883443,-3.975023 l 0.445646,-0.693096 -0.119684,-0.28552 c -0.06583,-0.157035 -0.199124,-0.373596 -0.296215,-0.481243 -0.09709,-0.107647 -0.227793,-0.262819 -0.290446,-0.344826 -0.110269,-0.14433 -0.106367,-0.145158 0.121773,-0.02586 0.129632,0.06778 0.412348,0.249379 0.628257,0.403544 0.215912,0.154165 0.451134,0.2803 0.522716,0.2803 0.08236,0 0.397454,-0.423976 0.858211,-1.154769 0.400436,-0.635122 0.75082,-1.18169 0.778631,-1.214597 0.02782,-0.03291 0.295772,0.09845 0.595467,0.291908 0.299695,0.193457 0.606932,0.352496 0.682748,0.353416 0.185141,0.0024 2.729723,-1.787748 2.729723,-1.920236 0,-0.0574 -0.02943,-0.122489 -0.06537,-0.144631 -0.03596,-0.02213 -0.575097,0.120163 -1.198093,0.316239 l -1.132724,0.356502 -0.760894,-0.167368 c -0.418492,-0.09205 -0.93173,-0.18753 -1.140527,-0.212175 -0.377878,-0.0446 -0.382715,-0.04224 -1.04607,0.510478 -0.641486,0.534496 -0.681138,0.554847 -1.059253,0.543612 -0.360433,-0.01071 -0.366909,-0.01403 -0.07856,-0.04039 0.476759,-0.04358 0.5477,-0.08016 0.429835,-0.221688 -0.08149,-0.09785 -0.07746,-0.110243 0.02334,-0.0717 0.07959,0.03043 0.139912,-0.01009 0.173896,-0.116779 0.02862,-0.08986 0.08572,-0.142634 0.126889,-0.117278 0.04117,0.02536 0.06979,0.01707 0.06361,-0.01843 -0.02756,-0.158115 0.01645,-0.250648 0.13035,-0.274092 0.06765,-0.01391 0.2146,-0.254308 0.326562,-0.534191 0.111958,-0.279886 0.304086,-0.631408 0.426948,-0.781158 0.228945,-0.279054 0.284056,-0.503155 0.144824,-0.588906 -0.136067,-0.0838 -0.08535,-0.286901 0.08256,-0.330661 0.13109,-0.03416 0.151985,-0.08346 0.112092,-0.264467 -0.02934,-0.133115 -0.0034,-0.309854 0.06455,-0.439992 0.163853,-0.313778 0.290742,-0.744263 0.290742,-0.986389 0,-0.115356 0.03201,-0.209738 0.07113,-0.209738 0.03996,0 0.05279,-0.266668 0.02928,-0.608458 -0.03456,-0.502418 -0.01945,-0.626987 0.0867,-0.714771 0.0707,-0.05847 0.150426,-0.242659 0.177168,-0.409302 0.04874,-0.303711 0.197707,-0.397771 0.319248,-0.201568 0.03455,0.05578 0.380731,0.364045 0.769283,0.685031 0.388555,0.320985 0.954213,0.807499 1.25702,1.081141 0.734022,0.663326 0.851228,0.714448 1.101281,0.480359 0.107597,-0.10073 0.195632,-0.239626 0.195632,-0.308659 0,-0.06903 0.06187,-0.212306 0.137486,-0.318385 0.348098,-0.488336 0.726711,-1.369945 0.726711,-1.692159 0,-0.182968 0.03536,-0.35444 0.07857,-0.381053 0.04321,-0.0266 0.07856,-0.153236 0.07856,-0.281386 0,-0.128152 0.0543,-0.315585 0.120664,-0.416516 0.108512,-0.16503 0.108512,-0.188163 0,-0.229657 -0.06636,-0.02539 -0.120664,-0.100093 -0.120664,-0.166033 0,-0.06594 -0.04419,-0.12043 -0.09821,-0.12109 -0.06547,-8.88e-4 -0.05892,-0.02648 0.01963,-0.07709 0.09703,-0.06249 0.09819,-0.0761 0.0065,-0.07709 -0.06121,-5.92e-4 -0.09613,-0.0163 -0.07759,-0.03479 0.04574,-0.04558 1.160805,0.168431 1.410576,0.270731 0.206538,0.0846 0.320109,0.218422 1.426503,1.680954 0.647036,0.855307 0.656556,0.863672 1.395561,1.226263 0.409245,0.200793 0.754237,0.395437 0.766649,0.432539 0.0481,0.143794 -3.167875,3.178208 -7.327324,6.913652 -2.935887,2.636611 -5.011781,4.598859 -9.11083,8.612049 -2.296242,2.248149 -5.570274,5.345651 -5.683491,5.377049 -0.02824,0.0078 -0.311225,-0.07905 -0.628899,-0.193064 z m -1.34555,-5.108487 c 0.0024,-0.398037 0.402472,-1.509529 0.650747,-1.808168 0.118189,-0.142167 0.25036,-0.400582 0.293706,-0.574253 0.04335,-0.173671 0.117553,-0.383639 0.164902,-0.466596 0.06756,-0.118374 0.05872,-0.170774 -0.04109,-0.2435 -0.175951,-0.128209 -0.159319,-0.213557 0.02995,-0.153694 0.08642,0.02734 0.157128,0.01447 0.157128,-0.02858 0,-0.04306 -0.07071,-0.100655 -0.157128,-0.127987 -0.1591,-0.05032 -0.223238,-0.274012 -0.07856,-0.274012 0.12745,0 0.08968,-0.142821 -0.04506,-0.170413 -0.10159,-0.0208 1.26591,-0.925639 1.398939,-0.925639 0.02191,0 -0.110308,0.308265 -0.293831,0.685034 -0.183522,0.376765 -0.677456,1.460093 -1.097632,2.407394 -0.420175,0.947301 -0.813407,1.773954 -0.873848,1.837003 -0.09513,0.09924 -0.109669,0.0782 -0.10822,-0.156576 z M 46.104959,22.803584 c 0.05671,-0.02261 0.124474,-0.01983 0.15058,0.0062 0.0261,0.02601 -0.02031,0.04452 -0.103116,0.04112 -0.09152,-0.0038 -0.110138,-0.02231 -0.04746,-0.0473 z"
   id="path1084"
   sodipodi:nodetypes="ccsssssssssssssssssssssssscsssssssssssssssssssssssssssssssssssssssssssssssssssssscsssssccssssssssssssssscsssssscsssscssssssssssssscsssssssssssssssssssssssssssssssssssssssssssssccsssssssssssssscssssss" /></svg>
