<?xml version="1.0" encoding="UTF-8" standalone="no"?>
<!-- Created with Inkscape (http://www.inkscape.org/) -->

<svg
        width="500"
        height="500"
        viewBox="0 0 132.29166 132.29167"
        version="1.1"
        id="svg635"
        xml:space="preserve"
        xmlns:xlink="http://www.w3.org/1999/xlink"
        xmlns="http://www.w3.org/2000/svg">&#10;    <defs
        id="defs632"><linearGradient
   id="linearGradient14447"><stop
     style="stop-color:#bcf5d5;stop-opacity:1;"
     offset="0.1175551"
     id="stop16633" /><stop
        style="stop-color:#70aecc;stop-opacity:1;"
        offset="0.39099202"
        id="stop29757"/><stop
        style="stop-color:#c6deed;stop-opacity:1;"
        offset="0.67645293"
        id="stop17361"/><stop
        style="stop-color:#ffd4e3;stop-opacity:1;"
        offset="0.89178365"
        id="stop20271"/></linearGradient>&#10;
    <linearGradient
            id="linearGradient11233"><stop
   style="stop-color:#dc719a;stop-opacity:1;"
   offset="0.16032064"
   id="stop11229" />&#10; <stop
            style="stop-color:#fe95ae;stop-opacity:1;"
            offset="0.51803607"
            id="stop13376"/>&#10;
        <stop
                style="stop-color:#fdf7f0;stop-opacity:1;"
                offset="1"
                id="stop11231"/></linearGradient>&#10;
    <linearGradient
            id="linearGradient3778"><stop
   style="stop-color:#ea6c9e;stop-opacity:1;"
   offset="0.38476956"
   id="stop3774" />&#10; <stop
            style="stop-color:#feb0c8;stop-opacity:1;"
            offset="0.80460918"
            id="stop8681"/>&#10;
        <stop
                style="stop-color:#fdedde;stop-opacity:1;"
                offset="1"
                id="stop3776"/></linearGradient>&#10;
    <filter
            y="-0.1960436"
            height="1.3920872"
            style="color-interpolation-filters:sRGB"
            id="filter3896"
            x="-0.1960436"
            width="1.3920872"><feGaussianBlur
   stdDeviation="5"
   result="result6"
   id="feGaussianBlur3886" />&#10; <feComposite
            result="result8"
            in="SourceGraphic"
            operator="atop"
            in2="result6"
            id="feComposite3888"/>&#10; <feComposite
            result="result9"
            operator="over"
            in2="SourceAlpha"
            in="result8"
            id="feComposite3890"/>&#10; <feColorMatrix
            values="1 0 0 0 0 0 1 0 0 0 0 0 1 0 0 0 0 0 1 0 "
            result="result10"
            id="feColorMatrix3892"/>&#10;
        <feBlend
                in="result10"
                mode="normal"
                in2="result6"
                id="feBlend3894"/></filter>&#10; <linearGradient
            xlink:href="#linearGradient14447"
            id="linearGradient14449"
            x1="264.58331"
            y1="191.82292"
            x2="132.29166"
            y2="59.531258"
            gradientUnits="userSpaceOnUse"
            gradientTransform="translate(-132.29167,-59.531261)"/>&#10; <radialGradient
            xlink:href="#linearGradient3778"
            id="radialGradient467"
            gradientUnits="userSpaceOnUse"
            gradientTransform="matrix(1.1490556,-0.01647774,0.01623538,1.1321542,-164.24442,-73.710011)"
            cx="200.13557"
            cy="130.6666"
            fx="200.13557"
            fy="130.6666"
            r="55.989567"/>&#10; <radialGradient
            xlink:href="#linearGradient3778"
            id="radialGradient469"
            gradientUnits="userSpaceOnUse"
            gradientTransform="matrix(1.1490556,-0.01647774,0.01623538,1.1321542,-164.24442,-73.710011)"
            cx="200.13557"
            cy="130.6666"
            fx="200.13557"
            fy="130.6666"
            r="55.989567"/>&#10; <radialGradient
            xlink:href="#linearGradient3778"
            id="radialGradient471"
            gradientUnits="userSpaceOnUse"
            gradientTransform="matrix(1.1490556,-0.01647774,0.01623538,1.1321542,-164.24442,-73.710011)"
            cx="200.13557"
            cy="130.6666"
            fx="200.13557"
            fy="130.6666"
            r="55.989567"/>&#10; <radialGradient
            xlink:href="#linearGradient3778"
            id="radialGradient473"
            gradientUnits="userSpaceOnUse"
            gradientTransform="matrix(1.1490556,-0.01647774,0.01623538,1.1321542,-164.24442,-73.710011)"
            cx="200.13557"
            cy="130.6666"
            fx="200.13557"
            fy="130.6666"
            r="55.989567"/>&#10; <radialGradient
            xlink:href="#linearGradient3778"
            id="radialGradient475"
            gradientUnits="userSpaceOnUse"
            gradientTransform="matrix(1.1490556,-0.01647774,0.01623538,1.1321542,-164.24442,-73.710011)"
            cx="200.13557"
            cy="130.6666"
            fx="200.13557"
            fy="130.6666"
            r="55.989567"/>&#10; <radialGradient
            xlink:href="#linearGradient3778"
            id="radialGradient477"
            gradientUnits="userSpaceOnUse"
            gradientTransform="matrix(1.1490556,-0.01647774,0.01623538,1.1321542,-164.24442,-73.710011)"
            cx="200.13557"
            cy="130.6666"
            fx="200.13557"
            fy="130.6666"
            r="55.989567"/>&#10; <radialGradient
            xlink:href="#linearGradient3778"
            id="radialGradient479"
            gradientUnits="userSpaceOnUse"
            gradientTransform="matrix(1.1490556,-0.01647774,0.01623538,1.1321542,-164.24442,-73.710011)"
            cx="200.13557"
            cy="130.6666"
            fx="200.13557"
            fy="130.6666"
            r="55.989567"/>&#10; <radialGradient
            xlink:href="#linearGradient3778"
            id="radialGradient481"
            gradientUnits="userSpaceOnUse"
            gradientTransform="matrix(1.1490556,-0.01647774,0.01623538,1.1321542,-164.24442,-73.710011)"
            cx="200.13557"
            cy="130.6666"
            fx="200.13557"
            fy="130.6666"
            r="55.989567"/>&#10; <radialGradient
            xlink:href="#linearGradient3778"
            id="radialGradient483"
            gradientUnits="userSpaceOnUse"
            gradientTransform="matrix(1.1490556,-0.01647774,0.01623538,1.1321542,-164.24442,-73.710011)"
            cx="200.13557"
            cy="130.6666"
            fx="200.13557"
            fy="130.6666"
            r="55.989567"/>&#10; <radialGradient
            xlink:href="#linearGradient3778"
            id="radialGradient485"
            gradientUnits="userSpaceOnUse"
            gradientTransform="matrix(1.1490556,-0.01647774,0.01623538,1.1321542,-164.24442,-73.710011)"
            cx="200.13557"
            cy="130.6666"
            fx="200.13557"
            fy="130.6666"
            r="55.989567"/>&#10; <radialGradient
            xlink:href="#linearGradient3778"
            id="radialGradient487"
            gradientUnits="userSpaceOnUse"
            gradientTransform="matrix(1.1490556,-0.01647774,0.01623538,1.1321542,-164.24442,-73.710011)"
            cx="200.13557"
            cy="130.6666"
            fx="200.13557"
            fy="130.6666"
            r="55.989567"/>&#10; <radialGradient
            xlink:href="#linearGradient3778"
            id="radialGradient489"
            gradientUnits="userSpaceOnUse"
            gradientTransform="matrix(1.1490556,-0.01647774,0.01623538,1.1321542,-164.24442,-73.710011)"
            cx="200.13557"
            cy="130.6666"
            fx="200.13557"
            fy="130.6666"
            r="55.989567"/>&#10; <radialGradient
            xlink:href="#linearGradient3778"
            id="radialGradient491"
            gradientUnits="userSpaceOnUse"
            gradientTransform="matrix(1.1490556,-0.01647774,0.01623538,1.1321542,-164.24442,-73.710011)"
            cx="200.13557"
            cy="130.6666"
            fx="200.13557"
            fy="130.6666"
            r="55.989567"/>&#10; <radialGradient
            xlink:href="#linearGradient3778"
            id="radialGradient493"
            gradientUnits="userSpaceOnUse"
            gradientTransform="matrix(1.1490556,-0.01647774,0.01623538,1.1321542,-164.24442,-73.710011)"
            cx="200.13557"
            cy="130.6666"
            fx="200.13557"
            fy="130.6666"
            r="55.989567"/>&#10; <radialGradient
            xlink:href="#linearGradient3778"
            id="radialGradient495"
            gradientUnits="userSpaceOnUse"
            gradientTransform="matrix(1.1490556,-0.01647774,0.01623538,1.1321542,-164.24442,-73.710011)"
            cx="200.13557"
            cy="130.6666"
            fx="200.13557"
            fy="130.6666"
            r="55.989567"/>&#10; <radialGradient
            xlink:href="#linearGradient3778"
            id="radialGradient497"
            gradientUnits="userSpaceOnUse"
            gradientTransform="matrix(1.1490556,-0.01647774,0.01623538,1.1321542,-164.24442,-73.710011)"
            cx="200.13557"
            cy="130.6666"
            fx="200.13557"
            fy="130.6666"
            r="55.989567"/>&#10; <radialGradient
            xlink:href="#linearGradient3778"
            id="radialGradient499"
            gradientUnits="userSpaceOnUse"
            gradientTransform="matrix(1.1490556,-0.01647774,0.01623538,1.1321542,-164.24442,-73.710011)"
            cx="200.13557"
            cy="130.6666"
            fx="200.13557"
            fy="130.6666"
            r="55.989567"/>&#10; <radialGradient
            xlink:href="#linearGradient3778"
            id="radialGradient501"
            gradientUnits="userSpaceOnUse"
            gradientTransform="matrix(1.1490556,-0.01647774,0.01623538,1.1321542,-164.24442,-73.710011)"
            cx="200.13557"
            cy="130.6666"
            fx="200.13557"
            fy="130.6666"
            r="55.989567"/>&#10; <radialGradient
            xlink:href="#linearGradient3778"
            id="radialGradient503"
            gradientUnits="userSpaceOnUse"
            gradientTransform="matrix(1.1490556,-0.01647774,0.01623538,1.1321542,-164.24442,-73.710011)"
            cx="200.13557"
            cy="130.6666"
            fx="200.13557"
            fy="130.6666"
            r="55.989567"/>&#10; <radialGradient
            xlink:href="#linearGradient3778"
            id="radialGradient505"
            gradientUnits="userSpaceOnUse"
            gradientTransform="matrix(1.1490556,-0.01647774,0.01623538,1.1321542,-164.24442,-73.710011)"
            cx="200.13557"
            cy="130.6666"
            fx="200.13557"
            fy="130.6666"
            r="55.989567"/>&#10; <radialGradient
            xlink:href="#linearGradient3778"
            id="radialGradient507"
            gradientUnits="userSpaceOnUse"
            gradientTransform="matrix(1.1490556,-0.01647774,0.01623538,1.1321542,-164.24442,-73.710011)"
            cx="200.13557"
            cy="130.6666"
            fx="200.13557"
            fy="130.6666"
            r="55.989567"/>&#10; <radialGradient
            xlink:href="#linearGradient3778"
            id="radialGradient509"
            gradientUnits="userSpaceOnUse"
            gradientTransform="matrix(1.1490556,-0.01647774,0.01623538,1.1321542,-164.24442,-73.710011)"
            cx="200.13557"
            cy="130.6666"
            fx="200.13557"
            fy="130.6666"
            r="55.989567"/>&#10; <radialGradient
            xlink:href="#linearGradient3778"
            id="radialGradient511"
            gradientUnits="userSpaceOnUse"
            gradientTransform="matrix(1.1490556,-0.01647774,0.01623538,1.1321542,-164.24442,-73.710011)"
            cx="200.13557"
            cy="130.6666"
            fx="200.13557"
            fy="130.6666"
            r="55.989567"/>&#10; <radialGradient
            xlink:href="#linearGradient3778"
            id="radialGradient513"
            gradientUnits="userSpaceOnUse"
            gradientTransform="matrix(1.1490556,-0.01647774,0.01623538,1.1321542,-164.24442,-73.710011)"
            cx="200.13557"
            cy="130.6666"
            fx="200.13557"
            fy="130.6666"
            r="55.989567"/>&#10; <radialGradient
            xlink:href="#linearGradient3778"
            id="radialGradient515"
            gradientUnits="userSpaceOnUse"
            gradientTransform="matrix(1.1490556,-0.01647774,0.01623538,1.1321542,-164.24442,-73.710011)"
            cx="200.13557"
            cy="130.6666"
            fx="200.13557"
            fy="130.6666"
            r="55.989567"/>&#10; <radialGradient
            xlink:href="#linearGradient3778"
            id="radialGradient517"
            gradientUnits="userSpaceOnUse"
            gradientTransform="matrix(1.1490556,-0.01647774,0.01623538,1.1321542,-164.24442,-73.710011)"
            cx="200.13557"
            cy="130.6666"
            fx="200.13557"
            fy="130.6666"
            r="55.989567"/>&#10; <radialGradient
            xlink:href="#linearGradient3778"
            id="radialGradient519"
            gradientUnits="userSpaceOnUse"
            gradientTransform="matrix(1.1490556,-0.01647774,0.01623538,1.1321542,-164.24442,-73.710011)"
            cx="200.13557"
            cy="130.6666"
            fx="200.13557"
            fy="130.6666"
            r="55.989567"/>&#10; <radialGradient
            xlink:href="#linearGradient3778"
            id="radialGradient521"
            gradientUnits="userSpaceOnUse"
            gradientTransform="matrix(1.1490556,-0.01647774,0.01623538,1.1321542,-164.24442,-73.710011)"
            cx="200.13557"
            cy="130.6666"
            fx="200.13557"
            fy="130.6666"
            r="55.989567"/>&#10; <radialGradient
            xlink:href="#linearGradient3778"
            id="radialGradient523"
            gradientUnits="userSpaceOnUse"
            gradientTransform="matrix(1.1490556,-0.01647774,0.01623538,1.1321542,-164.24442,-73.710011)"
            cx="200.13557"
            cy="130.6666"
            fx="200.13557"
            fy="130.6666"
            r="55.989567"/>&#10; <radialGradient
            xlink:href="#linearGradient3778"
            id="radialGradient525"
            gradientUnits="userSpaceOnUse"
            gradientTransform="matrix(1.1490556,-0.01647774,0.01623538,1.1321542,-164.24442,-73.710011)"
            cx="200.13557"
            cy="130.6666"
            fx="200.13557"
            fy="130.6666"
            r="55.989567"/>&#10; <radialGradient
            xlink:href="#linearGradient11233"
            id="radialGradient527"
            gradientUnits="userSpaceOnUse"
            gradientTransform="matrix(1,0,0,0.96562361,-132.29167,-54.711872)"
            cx="218.8143"
            cy="140.19473"
            fx="218.8143"
            fy="140.19473"
            r="17.991117"/>&#10; <radialGradient
            xlink:href="#linearGradient11233"
            id="radialGradient529"
            gradientUnits="userSpaceOnUse"
            gradientTransform="matrix(1,0,0,0.96562361,-132.29167,-54.711872)"
            cx="218.8143"
            cy="140.19473"
            fx="218.8143"
            fy="140.19473"
            r="17.991117"/>&#10; <radialGradient
            xlink:href="#linearGradient11233"
            id="radialGradient531"
            gradientUnits="userSpaceOnUse"
            gradientTransform="matrix(1,0,0,0.96562361,-132.29167,-54.711872)"
            cx="218.8143"
            cy="140.19473"
            fx="218.8143"
            fy="140.19473"
            r="17.991117"/>&#10; <radialGradient
            xlink:href="#linearGradient11233"
            id="radialGradient533"
            gradientUnits="userSpaceOnUse"
            gradientTransform="matrix(1,0,0,0.96562361,-132.29167,-54.711872)"
            cx="218.8143"
            cy="140.19473"
            fx="218.8143"
            fy="140.19473"
            r="17.991117"/>&#10; <radialGradient
            xlink:href="#linearGradient11233"
            id="radialGradient535"
            gradientUnits="userSpaceOnUse"
            gradientTransform="matrix(1,0,0,0.96562361,-132.29167,-54.711872)"
            cx="218.8143"
            cy="140.19473"
            fx="218.8143"
            fy="140.19473"
            r="17.991117"/>&#10; <radialGradient
            xlink:href="#linearGradient11233"
            id="radialGradient537"
            gradientUnits="userSpaceOnUse"
            gradientTransform="matrix(1,0,0,1.0085633,-132.29167,-60.419312)"
            cx="233.50929"
            cy="103.70376"
            fx="233.50929"
            fy="103.70376"
            r="15.033118"/>&#10; <radialGradient
            xlink:href="#linearGradient11233"
            id="radialGradient539"
            gradientUnits="userSpaceOnUse"
            gradientTransform="matrix(1,0,0,1.0085633,-132.29167,-60.419312)"
            cx="233.50929"
            cy="103.70376"
            fx="233.50929"
            fy="103.70376"
            r="15.033118"/>&#10; <radialGradient
            xlink:href="#linearGradient11233"
            id="radialGradient541"
            gradientUnits="userSpaceOnUse"
            gradientTransform="matrix(1,0,0,1.0085633,-132.29167,-60.419312)"
            cx="233.50929"
            cy="103.70376"
            fx="233.50929"
            fy="103.70376"
            r="15.033118"/>&#10; <radialGradient
            xlink:href="#linearGradient11233"
            id="radialGradient543"
            gradientUnits="userSpaceOnUse"
            gradientTransform="matrix(1,0,0,1.0085633,-132.29167,-60.419312)"
            cx="233.50929"
            cy="103.70376"
            fx="233.50929"
            fy="103.70376"
            r="15.033118"/>&#10; <radialGradient
            xlink:href="#linearGradient11233"
            id="radialGradient545"
            gradientUnits="userSpaceOnUse"
            gradientTransform="matrix(1,0,0,1.0085633,-132.29167,-60.419312)"
            cx="233.50929"
            cy="103.70376"
            fx="233.50929"
            fy="103.70376"
            r="15.033118"/>&#10; <radialGradient
            xlink:href="#linearGradient11233"
            id="radialGradient547"
            gradientUnits="userSpaceOnUse"
            gradientTransform="matrix(1,0,0,1.0293658,-132.29167,-63.258679)"
            cx="188.42654"
            cy="126.93045"
            fx="188.42654"
            fy="126.93045"
            r="11.709027"/>&#10; <radialGradient
            xlink:href="#linearGradient11233"
            id="radialGradient549"
            gradientUnits="userSpaceOnUse"
            gradientTransform="matrix(1,0,0,1.0293658,-132.29167,-63.258679)"
            cx="188.42654"
            cy="126.93045"
            fx="188.42654"
            fy="126.93045"
            r="11.709027"/>&#10; <radialGradient
            xlink:href="#linearGradient11233"
            id="radialGradient551"
            gradientUnits="userSpaceOnUse"
            gradientTransform="matrix(1,0,0,1.0293658,-132.29167,-63.258679)"
            cx="188.42654"
            cy="126.93045"
            fx="188.42654"
            fy="126.93045"
            r="11.709027"/>&#10; <radialGradient
            xlink:href="#linearGradient11233"
            id="radialGradient553"
            gradientUnits="userSpaceOnUse"
            gradientTransform="matrix(1,0,0,1.0293658,-132.29167,-63.258679)"
            cx="188.42654"
            cy="126.93045"
            fx="188.42654"
            fy="126.93045"
            r="11.709027"/>&#10;
    <radialGradient
            xlink:href="#linearGradient11233"
            id="radialGradient555"
            gradientUnits="userSpaceOnUse"
            gradientTransform="matrix(1,0,0,1.0293658,-132.29167,-63.258679)"
            cx="188.42654"
            cy="126.93045"
            fx="188.42654"
            fy="126.93045"
            r="11.709027"/>
    <linearGradient

            xlink:href="#linearGradient18590"
            id="linearGradient17998"
            gradientUnits="userSpaceOnUse"
            gradientTransform="translate(-28.40347,105.15703)"
            x1="245.1261"
            y1="215.77026"
            x2="144.07825"
            y2="38.951504"/>
    <linearGradient
            id="linearGradient18590"><stop
     style="stop-color:#d77a43;stop-opacity:1;"
     offset="0.18123434"
     id="stop18582" />
        <stop
                style="stop-color:#bdcc70;stop-opacity:1;"
                offset="0.39806747"
                id="stop18584"/>
        <stop
                style="stop-color:#edde6d;stop-opacity:1;"
                offset="0.61984915"
                id="stop18586"/>
        <stop
                style="stop-color:#fffaff;stop-opacity:1;"
                offset="0.80687797"
                id="stop18588"/></linearGradient>
    <linearGradient

            xlink:href="#linearGradient138185"
            id="linearGradient138142"
            x1="463.53543"
            y1="109.65894"
            x2="409.1929"
            y2="-42.344177"
            gradientUnits="userSpaceOnUse"/>
    <linearGradient
            id="linearGradient138185"><stop
     style="stop-color:#66001b;stop-opacity:1;"
     offset="0.02857143"
     id="stop138201" />
        <stop
                style="stop-color:#8c1700;stop-opacity:1;"
                offset="0.12905054"
                id="stop138203"/>
        <stop
                style="stop-color:#bf4000;stop-opacity:1;"
                offset="0.26526037"
                id="stop138205"/>
        <stop
                style="stop-color:#bf7f00;stop-opacity:1;"
                offset="0.41954482"
                id="stop138207"/>
        <stop
                style="stop-color:#bf8f00;stop-opacity:1;"
                offset="0.53891665"
                id="stop138209"/>
        <stop
                style="stop-color:#688c00;stop-opacity:1;"
                offset="0.61134958"
                id="stop138211"/></linearGradient>
    <radialGradient

            xlink:href="#linearGradient189453"
            id="radialGradient189455"
            cx="797.55902"
            cy="369.76877"
            fx="797.55902"
            fy="369.76877"
            r="50.934883"
            gradientTransform="matrix(2.6135185,-0.01439958,0.01026021,1.8622274,-1290.6703,-313.03447)"
            gradientUnits="userSpaceOnUse"/>
    <linearGradient

            id="linearGradient189453"><stop
     style="stop-color:#33110a;stop-opacity:1;"
     offset="0"
     id="stop189449" />
        <stop
                style="stop-color:#4d280f;stop-opacity:0.69999999;"
                offset="0.07143919"
                id="stop189457"/>
        <stop
                style="stop-color:#33250a;stop-opacity:0;"
                offset="1"
                id="stop189451"/></linearGradient>
    <linearGradient

            xlink:href="#linearGradient138185-1"
            id="linearGradient138162"
            x1="80.284431"
            y1="113.0012"
            x2="63.185387"
            y2="18.427872"
            gradientUnits="userSpaceOnUse"/>
    <linearGradient
            id="linearGradient138185-1"><stop
     style="stop-color:#891031;stop-opacity:1;"
     offset="0.04445831"
     id="stop138175" />
        <stop
                style="stop-color:#bf1f00;stop-opacity:1;"
                offset="0.12292809"
                id="stop138177"/>
        <stop
                style="stop-color:#ec5f13;stop-opacity:1;"
                offset="0.31423995"
                id="stop138179"/>
        <stop
                style="stop-color:#e59f1a;stop-opacity:1;"
                offset="0.49301422"
                id="stop138181"/>
        <stop
                style="stop-color:#e2b736;stop-opacity:1;"
                offset="0.65116155"
                id="stop138187"/>
        <stop
                style="stop-color:#639111;stop-opacity:1;"
                offset="1"
                id="stop138183"/></linearGradient>
    <linearGradient

            xlink:href="#linearGradient138185"
            id="linearGradient20652"
            gradientUnits="userSpaceOnUse"
            x1="463.53543"
            y1="109.65894"
            x2="409.1929"
            y2="-42.344177"/>
    <linearGradient

            xlink:href="#linearGradient138185"
            id="linearGradient20654"
            gradientUnits="userSpaceOnUse"
            x1="463.53543"
            y1="109.65894"
            x2="409.1929"
            y2="-42.344177"/>
    <linearGradient

            xlink:href="#linearGradient138185-1"
            id="linearGradient20656"
            gradientUnits="userSpaceOnUse"
            x1="80.284431"
            y1="113.0012"
            x2="63.185387"
            y2="18.427872"/>
    <linearGradient

            xlink:href="#linearGradient138185-1"
            id="linearGradient20658"
            gradientUnits="userSpaceOnUse"
            x1="80.284431"
            y1="113.0012"
            x2="63.185387"
            y2="18.427872"/>
    <linearGradient

            xlink:href="#linearGradient138185-1"
            id="linearGradient20660"
            gradientUnits="userSpaceOnUse"
            x1="80.284431"
            y1="113.0012"
            x2="63.185387"
            y2="18.427872"/>
    <linearGradient

            xlink:href="#linearGradient138185-1"
            id="linearGradient20662"
            gradientUnits="userSpaceOnUse"
            x1="80.284431"
            y1="113.0012"
            x2="63.185387"
            y2="18.427872"/>
    <linearGradient

            xlink:href="#linearGradient138185-1"
            id="linearGradient20664"
            gradientUnits="userSpaceOnUse"
            x1="80.284431"
            y1="113.0012"
            x2="63.185387"
            y2="18.427872"/>
    <linearGradient

            xlink:href="#linearGradient138185-1"
            id="linearGradient20666"
            gradientUnits="userSpaceOnUse"
            x1="80.284431"
            y1="113.0012"
            x2="63.185387"
            y2="18.427872"/>
    <linearGradient

            xlink:href="#linearGradient138185-1"
            id="linearGradient20668"
            gradientUnits="userSpaceOnUse"
            x1="80.284431"
            y1="113.0012"
            x2="63.185387"
            y2="18.427872"/>
    <linearGradient

            xlink:href="#linearGradient138185-1"
            id="linearGradient20670"
            gradientUnits="userSpaceOnUse"
            x1="80.284431"
            y1="113.0012"
            x2="63.185387"
            y2="18.427872"/>
    <linearGradient

            xlink:href="#linearGradient138185-1"
            id="linearGradient20672"
            gradientUnits="userSpaceOnUse"
            x1="80.284431"
            y1="113.0012"
            x2="63.185387"
            y2="18.427872"/>
    <linearGradient

            xlink:href="#linearGradient138185-1"
            id="linearGradient20674"
            gradientUnits="userSpaceOnUse"
            x1="80.284431"
            y1="113.0012"
            x2="63.185387"
            y2="18.427872"/>
    <linearGradient

            xlink:href="#linearGradient138185-1"
            id="linearGradient20676"
            gradientUnits="userSpaceOnUse"
            x1="80.284431"
            y1="113.0012"
            x2="63.185387"
            y2="18.427872"/>
    <linearGradient

            xlink:href="#linearGradient138185-1"
            id="linearGradient20678"
            gradientUnits="userSpaceOnUse"
            x1="80.284431"
            y1="113.0012"
            x2="63.185387"
            y2="18.427872"/>
    <linearGradient

            xlink:href="#linearGradient138185-1"
            id="linearGradient20680"
            gradientUnits="userSpaceOnUse"
            x1="80.284431"
            y1="113.0012"
            x2="63.185387"
            y2="18.427872"/>
    <linearGradient

            xlink:href="#linearGradient138185-1"
            id="linearGradient20682"
            gradientUnits="userSpaceOnUse"
            x1="80.284431"
            y1="113.0012"
            x2="63.185387"
            y2="18.427872"/>
    <linearGradient

            xlink:href="#linearGradient138185-1"
            id="linearGradient20684"
            gradientUnits="userSpaceOnUse"
            x1="80.284431"
            y1="113.0012"
            x2="63.185387"
            y2="18.427872"/>
    <linearGradient

            xlink:href="#linearGradient138185-1"
            id="linearGradient20686"
            gradientUnits="userSpaceOnUse"
            x1="80.284431"
            y1="113.0012"
            x2="63.185387"
            y2="18.427872"/>
    <linearGradient

            xlink:href="#linearGradient138185-1"
            id="linearGradient20688"
            gradientUnits="userSpaceOnUse"
            x1="80.284431"
            y1="113.0012"
            x2="63.185387"
            y2="18.427872"/>
    <linearGradient

            xlink:href="#linearGradient138185-1"
            id="linearGradient20690"
            gradientUnits="userSpaceOnUse"
            x1="80.284431"
            y1="113.0012"
            x2="63.185387"
            y2="18.427872"/>
    <linearGradient

            xlink:href="#linearGradient138185-1"
            id="linearGradient20692"
            gradientUnits="userSpaceOnUse"
            x1="80.284431"
            y1="113.0012"
            x2="63.185387"
            y2="18.427872"/>
    <linearGradient

            xlink:href="#linearGradient138185-1"
            id="linearGradient20694"
            gradientUnits="userSpaceOnUse"
            x1="80.284431"
            y1="113.0012"
            x2="63.185387"
            y2="18.427872"/>
    <linearGradient

            xlink:href="#linearGradient138185-1"
            id="linearGradient20696"
            gradientUnits="userSpaceOnUse"
            x1="80.284431"
            y1="113.0012"
            x2="63.185387"
            y2="18.427872"/>
    <linearGradient

            xlink:href="#linearGradient138185-1"
            id="linearGradient20698"
            gradientUnits="userSpaceOnUse"
            x1="80.284431"
            y1="113.0012"
            x2="63.185387"
            y2="18.427872"/>
    <linearGradient

            xlink:href="#linearGradient138185-1"
            id="linearGradient20700"
            gradientUnits="userSpaceOnUse"
            x1="80.284431"
            y1="113.0012"
            x2="63.185387"
            y2="18.427872"/>
    <linearGradient

            xlink:href="#linearGradient138185-1"
            id="linearGradient20702"
            gradientUnits="userSpaceOnUse"
            x1="80.284431"
            y1="113.0012"
            x2="63.185387"
            y2="18.427872"/>
    <linearGradient

            xlink:href="#linearGradient138185-1"
            id="linearGradient20704"
            gradientUnits="userSpaceOnUse"
            x1="80.284431"
            y1="113.0012"
            x2="63.185387"
            y2="18.427872"/>
    <linearGradient

            xlink:href="#linearGradient138185-1"
            id="linearGradient20706"
            gradientUnits="userSpaceOnUse"
            x1="80.284431"
            y1="113.0012"
            x2="63.185387"
            y2="18.427872"/></defs>&#10; &#10; &#10; &#10; &#10; &#10; &#10; &#10; &#10; &#10; &#10; &#10; &#10; &#10;
    &#10; &#10; &#10; &#10; &#10; &#10; &#10; &#10; &#10; &#10; &#10; &#10; &#10; &#10; &#10; &#10; &#10; &#10; &#10;
    &#10; &#10; &#10; &#10; &#10; &#10; &#10; &#10; &#10; &#10; &#10; &#10; &#10; &#10; &#10; &#10; &#10; &#10; &#10;
    &#10; &#10; &#10; &#10; &#10; &#10; &#10; &#10; &#10; &#10; &#10; &#10; &#10; &#10; &#10; &#10; &#10;
    <g
            id="g20776"
            transform="translate(-103.88824,-164.6883)"><circle
     style="fill:url(#linearGradient17998);fill-opacity:1;stroke-width:0.350021"
     id="circle17996"
     cx="170.03407"
     cy="230.83414"
     r="66.145836" />
        <g
                id="g190595"
                transform="translate(-627.44134,-96.323867)"><g
       id="g38243"
       transform="matrix(1.1012958,0,0,1.1012958,318.87627,255.12904)"
       style="fill:url(#linearGradient138142);fill-opacity:1"><path
         id="path38239"
         style="fill:url(#linearGradient20652);fill-opacity:1;stroke-width:0.264583"
         d="m 434.56228,11.87111 v 89.58265 l 0.88676,-0.005 c 0,0 5.63149,5.60324 14.9686,5.71696 2.55872,0.0312 9.85756,-0.0911 12.23956,-1.44125 5.17216,-2.93171 -2.98606,-2.20008 -1.52652,-3.60857 0.65845,-0.6354 2.50071,0.44394 7.03781,-1.68568 2.37382,-1.114218 5.46946,-3.370024 6.5195,-4.823483 1.14845,-1.589687 9.20688,-8.562631 10.59677,-9.754443 0.89156,-0.764498 0.004,-1.526601 -0.78858,-2.170927 -1.54075,-1.252055 -11.11769,-4.722564 -12.73049,-4.662764 -1.05534,0.03913 5.88022,-4.087169 7.34994,-9.202539 0.15374,-0.535114 5.8744,-12.114281 3.83646,-11.863359 -5.46021,0.672287 2.20234,-9.083774 2.18694,-14.532963 -0.009,-3.292142 -2.38154,0.245923 -5.51904,0.744141 -3.25019,0.51611 -7.41312,3.467137 -11.6489,5.902998 -1.72472,0.991832 1.87442,-3.819034 -0.17622,-3.586861 -2.83667,0.321167 -7.45098,2.466593 -13.79037,9.393742 -0.69242,0.756614 1.80636,-6.028137 0.43047,-14.662671 -0.59605,-3.740534 -2.37414,1.280743 -3.07579,0.749825 -0.47814,-0.361789 -0.19214,-4.511111 -1.40043,-7.62124 -1.86921,-4.811354 -2.66319,-7.143659 -4.27674,-7.439856 -1.48671,-0.272916 0.30981,1.552534 -1.58802,2.265495 -0.292,0.109696 -4.50223,-13.995312 -9.13277,-17.168978 -0.11808,-0.08093 -0.25249,-0.120247 -0.39894,-0.125057 z" /><path
                id="path38241"
                style="fill:url(#linearGradient20654);fill-opacity:1;stroke-width:0.264583"
                d="m 434.59411,11.87111 v 89.58265 l -0.88676,-0.005 c 0,0 -5.63149,5.60324 -14.9686,5.71696 -2.55872,0.0312 -9.85756,-0.0911 -12.23956,-1.44125 -5.17216,-2.93171 2.98606,-2.20008 1.52652,-3.60857 -0.65845,-0.6354 -2.50071,0.44394 -7.03781,-1.68568 -2.37382,-1.114218 -5.46946,-3.370024 -6.5195,-4.823483 -1.14845,-1.589687 -9.20688,-8.562631 -10.59677,-9.754443 -0.89156,-0.764498 -0.004,-1.526601 0.78858,-2.170927 1.54075,-1.252055 11.11769,-4.722564 12.73049,-4.662764 1.05534,0.03913 -5.88022,-4.087169 -7.34994,-9.202539 -0.15374,-0.535114 -5.8744,-12.114281 -3.83646,-11.863359 5.46021,0.672287 -2.20234,-9.083774 -2.18694,-14.532963 0.009,-3.292142 2.38154,0.245923 5.51904,0.744141 3.25019,0.51611 7.41312,3.467137 11.6489,5.902998 1.72472,0.991832 -1.87442,-3.819034 0.17622,-3.586861 2.83667,0.321167 7.45098,2.466593 13.79037,9.393742 0.69242,0.756614 -1.80636,-6.028137 -0.43047,-14.662671 0.59605,-3.740534 2.37414,1.280743 3.07579,0.749825 0.47814,-0.361789 0.19214,-4.511111 1.40043,-7.62124 1.86921,-4.811354 2.66319,-7.143659 4.27674,-7.439856 1.48671,-0.272916 -0.30981,1.552534 1.58802,2.265495 0.292,0.109696 4.50223,-13.995312 9.13277,-17.168978 0.11808,-0.08093 0.25249,-0.120247 0.39894,-0.125057 z"/></g>
            <path
                    style="fill:url(#radialGradient189455);fill-opacity:1;stroke-width:0.264583"
                    d="m 799.19601,366.45992 5.53921,-2.90067 34.54453,-1.91686 3.60149,-5.61266 1.73056,-3.74176 3.78854,-2.29185 -5.98683,-2.3386 -14.21874,-1.1693 -1.63703,-1.26285 12.90913,-7.06261 6.78196,-13.14296 1.07574,-13.79781 -3.74177,-2.80633 -15.48159,4.25627 -7.90448,10.1028 -3.41436,1.87089 -6.26748,8.93348 -3.32084,2.33859 -8.22865,17.56212 -0.49884,-10.51507 18.12872,-38.43115 -4.06919,-1.73059 -3.1805,-11.88011 -3.04019,-0.32742 -6.87552,-13.18974 -3.55468,-0.60804 -6.2207,14.17195 -4.30305,0.56129 -3.27406,12.30106 -3.74176,0.74838 18.04604,38.33759 -0.33261,10.71618 -8.26545,-17.85675 -2.85311,-1.12253 -6.96904,-10.19635 h -2.47894 l -9.12056,-12.02044 -3.13375,0.93546 -12.95588,-5.37882 -2.24506,2.29184 2.29184,10.1028 -1.30963,3.60146 6.59487,11.27209 0.3742,3.32082 12.04071,6.53216 -1.02526,1.48828 -16.20718,1.75493 -4.25625,1.91767 6.64165,3.55468 3.22726,7.95129 34.284,1.82411 5.37881,2.99342 z"
                    id="path189447"/>
            <g
                    id="g1992"
                    transform="matrix(1.1012958,0,0,1.1012958,724.60375,255.40619)"
                    style="fill:url(#linearGradient138162);fill-opacity:1"><path
         style="fill:url(#linearGradient20656);fill-opacity:1;stroke-width:0.264583"
         d="m 72.69427,98.226561 c 5.43963,-3.540889 10.814412,-5.715118 14.744156,-6.291125 6.504602,-0.95342 8.777413,3.890006 16.229824,4.177302 1.97058,0.07597 -1.47751,2.555805 -6.752559,3.234043 -8.113195,1.043149 -9.37704,-1.65241 -11.181542,-1.284317 -1.478438,0.301579 5.000691,3.705906 1.701965,3.789886 C 76.462338,102.13171 72.6948,98.228508 72.6948,98.228508"
         id="path1940"/>
                <path
                        style="fill:url(#linearGradient20658);fill-opacity:1;stroke-width:0.264583"
                        d="m 60.123389,98.226561 c -5.43963,-3.540889 -10.814412,-5.715118 -14.744156,-6.291125 -6.504602,-0.95342 -8.777413,3.890006 -16.229824,4.177302 -1.97058,0.07597 1.47751,2.555805 6.752559,3.234043 8.113195,1.043149 9.37704,-1.65241 11.181542,-1.284317 1.478438,0.301579 -5.000691,3.705906 -1.701965,3.789886 10.973776,0.27936 14.741314,-3.623842 14.741314,-3.623842"
                        id="path1942"/>
                <path
                        style="fill:url(#linearGradient20660);fill-opacity:1;stroke-width:0.264583"
                        d="m 93.965285,90.948478 c 9.144845,-3.02957 17.041495,-5.45985 18.529285,-4.99431 0.66286,0.207413 -2.8557,2.610844 -4.3367,4.570659 -0.71452,0.945537 -2.29768,3.514454 -5.1206,3.433395 -2.0299,-0.05829 -4.399977,-0.53462 -6.105193,-1.598885 -1.347881,-0.841243 -2.990174,-1.364086 -2.990174,-1.364086"
                        id="path1944"
                />
                <path
                        style="fill:url(#linearGradient20662);fill-opacity:1;stroke-width:0.264583"
                        d="m 38.372748,90.948478 c -9.144845,-3.02957 -17.041495,-5.45985 -18.529285,-4.99431 -0.66286,0.207413 2.8557,2.610844 4.3367,4.570659 0.71452,0.945537 2.29768,3.514454 5.1206,3.433395 2.0299,-0.05829 4.399977,-0.53462 6.105193,-1.598885 1.347881,-0.841243 2.990174,-1.364086 2.990174,-1.364086"
                        id="path1946"
                />
                <path
                        style="fill:url(#linearGradient20664);fill-opacity:1;stroke-width:0.264583"
                        d="m 109.00256,84.61536 c -9.645603,3.081077 -17.208425,4.752804 -18.238608,4.974216 -3.000346,0.644848 -2.116045,-0.422561 -0.450377,-2.228053 1.37166,-1.486804 3.263682,-4.571488 3.646169,-4.647738 6.398666,-1.275602 8.357866,-0.773238 11.765136,0.386317 3.33247,1.1341 3.30234,1.469149 3.30234,1.469149"
                        id="path1948"
                />
                <path
                        style="fill:url(#linearGradient20666);fill-opacity:1;stroke-width:0.264583"
                        d="m 23.562759,84.61536 c 9.645603,3.081077 17.208425,4.752804 18.238608,4.974216 3.000346,0.644848 2.116045,-0.422561 0.450377,-2.228053 -1.37166,-1.486804 -3.263682,-4.571488 -3.646169,-4.647738 -6.398666,-1.275602 -8.357866,-0.773238 -11.765136,0.386317 -3.33247,1.1341 -3.30234,1.469149 -3.30234,1.469149"
                        id="path1950"
                />
                <path
                        style="fill:url(#linearGradient20668);fill-opacity:1;stroke-width:0.264583"
                        d="m 70.08151,96.96979 c 1.719549,-3.57971 5.018072,-7.936617 7.870839,-11.6923 3.020476,-3.976475 5.577269,-7.250938 6.56906,-7.174693 4.46849,0.343519 12.069555,0.884799 19.654081,-3.072765 1.68857,-0.881089 -4.362837,4.700974 -11.245929,6.629116 -1.347257,0.377403 -5.299824,7.351715 -7.466464,8.357432 -4.726899,2.194148 -15.315442,6.986283 -15.315442,6.986283"
                        id="path1952"/>
                <path
                        style="fill:url(#linearGradient20670);fill-opacity:1;stroke-width:0.264583"
                        d="m 62.226202,96.96979 c -1.719549,-3.57971 -5.018072,-7.936617 -7.870839,-11.6923 -3.020476,-3.976475 -5.577269,-7.250938 -6.56906,-7.174693 -4.46849,0.343519 -12.069555,0.884799 -19.654081,-3.072765 -1.68857,-0.881089 4.362837,4.700974 11.245929,6.629116 1.347257,0.377403 5.299824,7.351715 7.466464,8.357432 4.726899,2.194148 15.315442,6.986283 15.315442,6.986283"
                        id="path1954"/>
                <path
                        style="fill:url(#linearGradient20672);fill-opacity:1;stroke-width:0.264583"
                        d="m 109.83016,47.794047 c -6.16918,8.02944 -13.581861,15.397522 -14.302114,16.166637 -2.097693,2.239997 -1.722264,1.25648 -1.640013,-1.573981 0.05876,-2.022025 0.724751,-4.6293 1.445891,-6.43498 2.004285,-5.018575 8.016796,-7.036228 11.477326,-8.025571 3.38456,-0.967623 3.03628,-0.160661 3.03628,-0.160661"
                        id="path1956"
                />
                <path
                        style="fill:url(#linearGradient20674);fill-opacity:1;stroke-width:0.264583"
                        d="m 111.55963,49.432617 c -7.39557,6.916378 -14.012678,15.006511 -14.708578,15.797727 -2.02676,2.304385 -1.08413,1.835651 1.72512,1.480209 2.006878,-0.253962 4.537578,-1.16881 6.265098,-2.061101 4.80136,-2.479964 6.22843,-8.659339 6.87866,-12.199291 0.63596,-3.462239 -0.13356,-3.037593 -0.13356,-3.037593"
                        id="path1958"
                />
                <path
                        style="fill:url(#linearGradient20676);fill-opacity:1;stroke-width:0.264583"
                        d="m 111.43546,61.935424 c -1.54111,-0.501834 -4.91376,3.079574 -8.74518,4.767172 -5.794138,2.552104 -8.600334,2.53654 -9.511564,2.757639 -1.46408,0.355241 -6.931143,7.083869 -6.177121,7.191561 2.049088,0.292659 8.225224,-0.140947 10.267445,-0.91004 3.00842,-1.132959 7.6576,-1.880889 9.77731,-4.78964 1.7178,-2.357225 4.38945,-9.015869 4.38945,-9.015869"
                        id="path1960"/>
                <path
                        style="fill:url(#linearGradient20678);fill-opacity:1;stroke-width:0.264583"
                        d="m 23.123343,47.794047 c 6.16918,8.02944 13.581861,15.397522 14.302114,16.166637 2.097693,2.239997 1.722264,1.25648 1.640013,-1.573981 -0.05876,-2.022025 -0.724751,-4.6293 -1.445891,-6.43498 -2.004285,-5.018575 -8.016796,-7.036228 -11.477326,-8.025571 -3.38456,-0.967623 -3.03628,-0.160661 -3.03628,-0.160661"
                        id="path1962"
                />
                <path
                        style="fill:url(#linearGradient20680);fill-opacity:1;stroke-width:0.264583"
                        d="m 21.393873,49.432617 c 7.39557,6.916378 14.012678,15.006511 14.708578,15.797727 2.02676,2.304385 1.08413,1.835651 -1.72512,1.480209 -2.006878,-0.253962 -4.537578,-1.16881 -6.265098,-2.061101 -4.80136,-2.479964 -6.22843,-8.659339 -6.87866,-12.199291 -0.63596,-3.462239 0.13356,-3.037593 0.13356,-3.037593"
                        id="path1964"
                />
                <path
                        style="fill:url(#linearGradient20682);fill-opacity:1;stroke-width:0.264583"
                        d="m 21.518043,61.935424 c 1.54111,-0.501834 4.91376,3.079574 8.74518,4.767172 5.794138,2.552104 8.600334,2.53654 9.511564,2.757639 1.46408,0.355241 6.931143,7.083869 6.177121,7.191561 -2.049088,0.292659 -8.225224,-0.140947 -10.267445,-0.91004 -3.00842,-1.132959 -7.6576,-1.880889 -9.77731,-4.78964 -1.7178,-2.357225 -4.38945,-9.015869 -4.38945,-9.015869"
                        id="path1966"/>
                <path
                        style="fill:url(#linearGradient20684);fill-opacity:1;stroke-width:0.264583"
                        d="m 67.169869,79.508791 c 1.609109,-0.193977 4.796507,-6.45302 7.56065,-9.597425 4.180126,-4.755189 6.609364,-8.362135 7.957902,-12.221627 2.550157,-7.298509 0.958016,-13.74675 0.958016,-13.74675 -1.432656,1.493958 -2.607847,7.091285 -6.356439,12.119122 -4.393132,5.892333 -9.740669,10.500484 -10.086056,12.527168 -0.456812,2.680511 -0.183555,10.935444 -0.183555,10.935444"
                        id="path1968"/>
                <path
                        style="fill:url(#linearGradient20686);fill-opacity:1;stroke-width:0.264583"
                        d="m 65.057629,79.508791 c -1.609109,-0.193977 -4.796507,-6.45302 -7.56065,-9.597425 -4.180126,-4.755189 -6.609364,-8.362135 -7.957902,-12.221627 -2.550157,-7.298509 -0.958016,-13.74675 -0.958016,-13.74675 1.432656,1.493958 2.607847,7.091285 6.356439,12.119122 4.393132,5.892333 9.740669,10.500484 10.086056,12.527168 0.456812,2.680511 0.183555,10.935444 0.183555,10.935444"
                        id="path1970"/>
                <path
                        style="fill:url(#linearGradient20688);fill-opacity:1;stroke-width:0.325432"
                        d="m 65.018185,19.366666 c 0.792378,13.565068 0.04295,27.588088 0.0099,29.003745 -0.09645,4.123021 -0.514021,2.803393 -2.557169,-0.09667 -1.459582,-2.071755 -2.844094,-5.273947 -3.583859,-7.725374 -2.056045,-6.813315 1.506339,-14.23496 3.685001,-18.33486 2.130834,-4.009894 2.439519,-2.890964 2.439519,-2.890964"
                        id="path1972"/>
                <path
                        style="fill:url(#linearGradient20690);fill-opacity:1;stroke-width:0.302747"
                        d="m 67.63736,19.861482 c -0.839391,11.082288 -0.0455,22.538708 -0.01049,23.69526 0.102173,3.368396 0.544518,2.290296 2.708888,-0.07897 1.54618,-1.692568 3.012837,-4.308669 3.796493,-6.311418 2.178032,-5.566293 -1.595712,-11.629573 -3.903636,-14.979078 -2.257258,-3.275973 -2.584257,-2.361838 -2.584257,-2.361838"
                        id="path1974"/>
                <path
                        style="fill:url(#linearGradient20692);fill-opacity:1;stroke-width:0.264583"
                        d="m 67.269088,64.94287 c 0.88414,-0.872173 4.589072,-4.411497 7.189512,-7.789763 3.861913,-5.017062 5.343881,-8.954445 5.650134,-12.574081 0.647347,-7.651053 -2.944588,-12.523052 -2.944588,-12.523052 -1.994896,-0.391198 -0.09431,5.272275 -3.842898,10.300112 -4.393132,5.892333 -5.771919,4.778869 -6.117306,6.805553 -0.456812,2.680511 -0.08434,15.664871 -0.08434,15.664871"
                        id="path1976"/>
                <path
                        style="fill:url(#linearGradient20694);fill-opacity:1;stroke-width:0.264583"
                        d="M 65.09079,65.106573 C 64.20665,64.2344 60.501718,60.695076 57.901278,57.31681 54.039365,52.299748 52.640569,48.883988 52.180986,45.280609 51.112689,36.904587 54.798169,32.07936 54.798169,32.07936 c 1.994896,-0.391198 0.160342,7.313746 3.398562,13.05967 3.608505,6.40296 6.574437,9.057857 6.818888,10.336852 0.406214,2.125354 0.224657,9.514331 0.224657,9.514331"
                        id="path1978"/>
                <path
                        style="fill:url(#linearGradient20696);fill-opacity:1;stroke-width:0.264583"
                        d="m 67.445464,97.239337 c -0.218432,-2.232286 -0.130638,-8.740043 0.108469,-10.549446 0.992299,-7.509069 8.678785,-16.297776 7.74191,-13.666981 -2.085098,5.855059 -0.404061,12.612161 -0.67365,13.199015 -0.204559,0.445293 -7.153343,11.064183 -7.153343,11.064183"
                        id="path1980"/>
                <path
                        style="fill:url(#linearGradient20698);fill-opacity:1;stroke-width:0.264583"
                        d="m 64.997176,97.239337 c 0.218432,-2.232286 0.130638,-8.740043 -0.108469,-10.549446 -0.992299,-7.509069 -8.678785,-16.297776 -7.74191,-13.666981 2.085098,5.855059 0.404061,12.612161 0.67365,13.199015 0.204559,0.445293 7.153343,11.064183 7.153343,11.064183"
                        id="path1982"/>
                <path
                        style="fill:url(#linearGradient20700);fill-opacity:1;stroke-width:0.212318"
                        d="m 76.734831,84.214806 c -0.387963,-3.510819 -0.746852,-7.510591 0.100861,-10.378212 1.797573,-6.080783 4.272737,-9.457725 5.808988,-10.74735 0.764438,-0.641715 1.880456,-0.981374 1.413377,-0.09049 -2.235544,4.263991 -0.207181,12.543963 -0.520391,13.032107 -0.211255,0.329246 -6.787857,8.222773 -6.787857,8.222773"
                        id="path1984"/>
                <path
                        style="fill:url(#linearGradient20702);fill-opacity:1;stroke-width:0.212318"
                        d="m 55.781057,84.214806 c 0.387963,-3.510819 0.746852,-7.510591 -0.100861,-10.378212 -1.797573,-6.080783 -4.272737,-9.457725 -5.808988,-10.74735 -0.764438,-0.641715 -1.880456,-0.981374 -1.413377,-0.09049 2.235544,4.263991 0.207181,12.543963 0.520391,13.032107 0.211255,0.329246 6.787857,8.222773 6.787857,8.222773"
                        id="path1986"/>
                <path
                        style="fill:url(#linearGradient20704);fill-opacity:1;stroke-width:0.212318"
                        d="m 85.614526,74.369784 c -0.60598,-3.027784 -0.99729,-7.998105 -0.0315,-10.828144 2.047955,-6.001089 4.814168,-8.538854 6.083896,-9.869072 2.803864,-2.937442 3.287784,-2.336468 2.87112,-1.420923 -3.898561,8.566411 -2.545705,14.90586 -2.87887,15.380609 -0.224714,0.320211 -6.031289,6.776942 -6.031289,6.776942"
                        id="path1988"/>
                <path
                        style="fill:url(#linearGradient20706);fill-opacity:1;stroke-width:0.212318"
                        d="m 46.813223,74.369784 c 0.60598,-3.027784 0.99729,-7.998105 0.0315,-10.828144 -2.047955,-6.001089 -4.814168,-8.538854 -6.083896,-9.869072 -2.803864,-2.937442 -3.287784,-2.336468 -2.87112,-1.420923 3.898561,8.566411 2.545705,14.90586 2.87887,15.380609 0.224714,0.320211 6.031289,6.776942 6.031289,6.776942"
                        id="path1990"/></g>
            <path
                    style="fill:#40170a;fill-opacity:1;stroke-width:0.327129"
                    d="m 799.26466,366.45425 c -0.0528,10.80741 0.22663,16.76758 -0.99397,16.8107 -0.57938,0.0205 -2.37679,-0.548 -2.38843,-1.99834 -0.0605,-7.53346 -0.13242,-14.83796 -0.13242,-14.83796"
                    id="path152350"/></g></g></svg>
