<?xml version="1.0" encoding="UTF-8" standalone="no"?>
<svg
   xml:space="preserve"
   width="200"
   height="200"
   viewBox="0 0 52.916667 52.916666"
   version="1.1"
   id="svg8"
   sodipodi:docname="pluginIcon.svg"
   inkscape:version="1.3 (0e150ed, 2023-07-21)"
   xmlns:inkscape="http://www.inkscape.org/namespaces/inkscape"
   xmlns:sodipodi="http://sodipodi.sourceforge.net/DTD/sodipodi-0.dtd"
   xmlns:xlink="http://www.w3.org/1999/xlink"
   xmlns="http://www.w3.org/2000/svg"
   xmlns:svg="http://www.w3.org/2000/svg"><sodipodi:namedview
   id="namedview1"
   pagecolor="#ffffff"
   bordercolor="#666666"
   borderopacity="1.0"
   inkscape:showpageshadow="2"
   inkscape:pageopacity="0.0"
   inkscape:pagecheckerboard="0"
   inkscape:deskcolor="#d1d1d1"
   inkscape:document-units="mm"
   inkscape:zoom="1.2488333"
   inkscape:cx="94.488189"
   inkscape:cy="94.087815"
   inkscape:current-layer="svg8" />&#10;    <metadata
   id="metadata883">&#10;    </metadata>&#10;    <defs
   id="defs2"><linearGradient
   id="linearGradient1321"><stop
   id="stop1317"
   offset="0"
   style="stop-color:#fffdf9;stop-opacity:1" />&#10;            <stop
   id="stop1319"
   offset="1"
   style="stop-color:#c1f0fd;stop-opacity:1" /></linearGradient>&#10;        <linearGradient
   id="linearGradient1285"><stop
   id="stop1277"
   offset="0"
   style="stop-color:#e76c23;stop-opacity:1" />&#10;            <stop
   style="stop-color:#db5624;stop-opacity:1"
   offset="0.30084872"
   id="stop1279" />&#10;            <stop
   style="stop-color:#d7502a;stop-opacity:1"
   offset="0.48738721"
   id="stop1281" />&#10;            <stop
   id="stop1283"
   offset="1"
   style="stop-color:#ab2d28;stop-opacity:1" /></linearGradient>&#10;        <linearGradient
   id="linearGradient1265"><stop
   id="stop1257"
   offset="0"
   style="stop-color:#e76b24;stop-opacity:1" />&#10;            <stop
   style="stop-color:#eb9423;stop-opacity:1"
   offset="0.3604376"
   id="stop1259" />&#10;            <stop
   style="stop-color:#fdbf47;stop-opacity:1"
   offset="0.67468154"
   id="stop1261" />&#10;            <stop
   id="stop1263"
   offset="1"
   style="stop-color:#fecc68;stop-opacity:1" /></linearGradient>&#10;        <linearGradient
   id="linearGradient1155"><stop
   id="stop1151"
   offset="0"
   style="stop-color:#ffffff;stop-opacity:1" />&#10;            <stop
   style="stop-color:#f4dea7;stop-opacity:1"
   offset="0.36173224"
   id="stop1177" />&#10;            <stop
   style="stop-color:#ffffff;stop-opacity:1"
   offset="0.36849755"
   id="stop1175" />&#10;            <stop
   id="stop1153"
   offset="1"
   style="stop-color:#fff1c7;stop-opacity:1" /></linearGradient>&#10;        <linearGradient
   id="linearGradient1046"><stop
   id="stop1038"
   offset="0"
   style="stop-color:#578e99;stop-opacity:1" />&#10;            <stop
   style="stop-color:#9bc0c7;stop-opacity:1"
   offset="0.31922862"
   id="stop1040" />&#10;            <stop
   id="stop1021"
   offset="0.34002915"
   style="stop-color:#fefefe;stop-opacity:1" />&#10;            <stop
   id="stop1019"
   offset="0.52491242"
   style="stop-color:#fefefe;stop-opacity:1" />&#10;            <stop
   style="stop-color:#ffc55a;stop-opacity:1"
   offset="0.77182168"
   id="stop1042" />&#10;            <stop
   id="stop1044"
   offset="1"
   style="stop-color:#f98e1f;stop-opacity:1" /></linearGradient>&#10;        <linearGradient
   id="linearGradient1674"><stop
   id="stop1670"
   offset="0"
   style="stop-color:#3e2300;stop-opacity:1" />&#10;            <stop
   id="stop1672"
   offset="1"
   style="stop-color:#9e5600;stop-opacity:1" /></linearGradient>&#10;        <linearGradient
   id="linearGradient1666"><stop
   style="stop-color:#bc6001;stop-opacity:1"
   offset="0"
   id="stop1654" />&#10;            <stop
   id="stop1656"
   offset="0.22724211"
   style="stop-color:#ee5015;stop-opacity:1" />&#10;            <stop
   style="stop-color:#d45d2a;stop-opacity:1"
   offset="0.55937076"
   id="stop1658" />&#10;            <stop
   style="stop-color:#ab2504;stop-opacity:1"
   offset="1"
   id="stop1664" /></linearGradient>&#10;        <linearGradient
   id="linearGradient1652"><stop
   style="stop-color:#df7e01;stop-opacity:1"
   offset="0"
   id="stop1640" />&#10;            <stop
   style="stop-color:#f97b29;stop-opacity:1"
   offset="0.3771469"
   id="stop1644" />&#10;            <stop
   style="stop-color:#f9cd2f;stop-opacity:1"
   offset="1"
   id="stop1650" /></linearGradient>&#10;        <linearGradient
   id="linearGradient1582"><stop
   id="stop1578"
   offset="0"
   style="stop-color:#fea12a;stop-opacity:1" />&#10;            <stop
   style="stop-color:#fdb647;stop-opacity:1"
   offset="0.22724211"
   id="stop1588" />&#10;            <stop
   id="stop1590"
   offset="0.3771469"
   style="stop-color:#fa9350;stop-opacity:1" />&#10;            <stop
   style="stop-color:#f25848;stop-opacity:1"
   offset="0.54888839"
   id="stop1592" />&#10;            <stop
   id="stop1594"
   offset="0.7313779"
   style="stop-color:#d83f4d;stop-opacity:1" />&#10;            <stop
   id="stop1580"
   offset="1"
   style="stop-color:#b51b10;stop-opacity:1" /></linearGradient>&#10;        <linearGradient
   id="linearGradient927"><stop
   id="stop923"
   offset="0"
   style="stop-color:#5d6b32;stop-opacity:1" />&#10;            <stop
   style="stop-color:#ece1d0;stop-opacity:1"
   offset="0.39178354"
   id="stop937" />&#10;            <stop
   id="stop925"
   offset="1"
   style="stop-color:#afdfe4;stop-opacity:1" /></linearGradient>&#10;        <linearGradient
   id="linearGradient22643"><stop
   id="stop22639"
   offset="0"
   style="stop-color:#375d9f;stop-opacity:1;" />&#10;            <stop
   id="stop22641"
   offset="1"
   style="stop-color:#384870;stop-opacity:1;" /></linearGradient>&#10;        <linearGradient
   id="linearGradient22566"><stop
   id="stop22562"
   offset="0"
   style="stop-color:#f2a491;stop-opacity:1;" />&#10;            <stop
   id="stop22564"
   offset="0.41778976"
   style="stop-color:#8eb3cf;stop-opacity:1;" /></linearGradient>&#10;        <linearGradient
   id="linearGradient17184"><stop
   id="stop17180"
   offset="0.50673854"
   style="stop-color:#ffffff;stop-opacity:1;" />&#10;            <stop
   id="stop17182"
   offset="1"
   style="stop-color:#efe4be;stop-opacity:1;" /></linearGradient>&#10;        <linearGradient
   id="linearGradient7816"><stop
     style="stop-color:#422f2e;stop-opacity:1"
     offset="1"
     id="stop7814" /></linearGradient>&#10;        <linearGradient
   id="linearGradient2455"><stop
   style="stop-color:#fbe8bd;stop-opacity:1;"
   offset="0"
   id="stop2447" />&#10;            <stop
   id="stop2449"
   offset="0.39518833"
   style="stop-color:#d5dbc1;stop-opacity:1;" />&#10;            <stop
   id="stop2451"
   offset="0.65719855"
   style="stop-color:#94c6c6;stop-opacity:1;" />&#10;            <stop
   style="stop-color:#2d7ab8;stop-opacity:1;"
   offset="1"
   id="stop2453" /></linearGradient>&#10;        <linearGradient
   id="linearGradient1006"><stop
   style="stop-color:#ffffff;stop-opacity:1"
   offset="0"
   id="stop1002" />&#10;            <stop
   style="stop-color:#0c9ca6;stop-opacity:1"
   offset="1"
   id="stop1004" /></linearGradient>&#10;        <linearGradient
   id="linearGradient998"><stop
   style="stop-color:#fbecfd;stop-opacity:1"
   offset="0"
   id="stop994" />&#10;            <stop
   id="stop960"
   offset="0.30084872"
   style="stop-color:#fbd4f9;stop-opacity:1" />&#10;            <stop
   id="stop958"
   offset="0.48738721"
   style="stop-color:#f46cec;stop-opacity:1" />&#10;            <stop
   style="stop-color:#2b1562;stop-opacity:1"
   offset="1"
   id="stop996" /></linearGradient>&#10;        <radialGradient
   xlink:href="#linearGradient998"
   id="radialGradient1000"
   cx="31.438482"
   cy="42.392902"
   fx="31.438482"
   fy="42.392902"
   r="25.000002"
   gradientTransform="matrix(0.00113747,-1.0167601,1.0243894,0.0011489,-11.090646,-1.315701)"
   gradientUnits="userSpaceOnUse" />&#10;        <radialGradient
   xlink:href="#linearGradient1006"
   id="radialGradient1008"
   cx="21.644688"
   cy="35.676865"
   fx="21.644688"
   fy="35.676865"
   r="24.999975"
   gradientUnits="userSpaceOnUse"
   gradientTransform="matrix(0.00279899,0.6185787,-0.99998976,0.00452483,68.397857,-39.118526)" />&#10;        <linearGradient
   gradientUnits="userSpaceOnUse"
   y2="1.4757635e-06"
   x2="24.999998"
   y1="32.672649"
   x1="24.669399"
   id="linearGradient5700"
   xlink:href="#linearGradient2455" />&#10;        <linearGradient
   gradientUnits="userSpaceOnUse"
   y2="29.690369"
   x2="24.806145"
   y1="49.999977"
   x1="25"
   id="linearGradient13724"
   xlink:href="#linearGradient7816" />&#10;        <linearGradient
   gradientUnits="userSpaceOnUse"
   y2="32.331436"
   x2="37.408257"
   y1="9.6647673"
   x1="23.919428"
   id="linearGradient17186"
   xlink:href="#linearGradient17184" />&#10;        <linearGradient
   gradientUnits="userSpaceOnUse"
   y2="33.207092"
   x2="26.002991"
   y1="25.681305"
   x1="34.995327"
   id="linearGradient22568"
   xlink:href="#linearGradient22566" />&#10;        <linearGradient
   gradientUnits="userSpaceOnUse"
   y2="33.688541"
   x2="17.216543"
   y1="17.369226"
   x1="27.734179"
   id="linearGradient22645"
   xlink:href="#linearGradient22643" />&#10;        <linearGradient
   gradientUnits="userSpaceOnUse"
   y2="0.10423274"
   x2="25.104233"
   y1="49.72488"
   x1="25.198191"
   id="linearGradient935"
   xlink:href="#linearGradient927" />&#10;        <clipPath
   clipPathUnits="userSpaceOnUse"
   id="clipPath1130"><path
     d="M 0,800 H 800 V 0 H 0 Z"
     id="path1128" /></clipPath>&#10;        <clipPath
   clipPathUnits="userSpaceOnUse"
   id="clipPath1138"><path
     d="M 284.686,41.5688 H 515.314 V 17 H 284.686 Z"
     id="path1136" /></clipPath>&#10;        <clipPath
   clipPathUnits="userSpaceOnUse"
   id="clipPath1278"><path
     d="M 0,800 H 800 V 0 H 0 Z"
     id="path1276" /></clipPath>&#10;        <linearGradient
   y2="-131.90941"
   x2="-211.17578"
   y1="-65.767349"
   x1="-332.87836"
   gradientTransform="matrix(0.25320201,0,0,0.25320201,95.927808,56.293442)"
   gradientUnits="userSpaceOnUse"
   id="linearGradient1598"
   xlink:href="#linearGradient1582" />&#10;        <linearGradient
   y2="-131.90941"
   x2="-211.17578"
   y1="-65.767349"
   x1="-332.87836"
   gradientTransform="matrix(0.12865911,0,0,0.14262707,74.363162,36.786625)"
   gradientUnits="userSpaceOnUse"
   id="linearGradient1602"
   xlink:href="#linearGradient1652" />&#10;        <linearGradient
   y2="-131.90941"
   x2="-211.17578"
   y1="-65.767349"
   x1="-332.87836"
   gradientTransform="matrix(0.14287792,0,0,0.15551651,52.603028,39.553815)"
   gradientUnits="userSpaceOnUse"
   id="linearGradient1606"
   xlink:href="#linearGradient1666" />&#10;        <linearGradient
   gradientUnits="userSpaceOnUse"
   y2="19.577152"
   x2="33.029133"
   y1="54.643715"
   x1="16.955727"
   id="linearGradient1676"
   xlink:href="#linearGradient1674" />&#10;        <radialGradient
   xlink:href="#linearGradient1265"
   id="radialGradient1255"
   cx="23.352879"
   cy="22.871805"
   fx="23.352879"
   fy="22.871805"
   r="23.67145"
   gradientTransform="matrix(1,0,0,0.86303769,0.1,5.1553571)"
   gradientUnits="userSpaceOnUse" />&#10;        <radialGradient
   xlink:href="#linearGradient1285"
   id="radialGradient1275"
   cx="24.697308"
   cy="18.392132"
   fx="24.697308"
   fy="18.392132"
   r="23.421312"
   gradientTransform="matrix(1,0,0,0.75547236,0.1,8.3975893)"
   gradientUnits="userSpaceOnUse" />&#10;        <linearGradient
   xlink:href="#linearGradient1321"
   id="linearGradient1301"
   x1="50.15641"
   y1="49.881355"
   x2="0.0010701913"
   y2="0.1973808"
   gradientUnits="userSpaceOnUse" /></defs>&#10;&#10;&#10;    <g
   id="g1"
   transform="scale(1.0583333)"><g
     id="g944"><circle
   r="25"
   cy="25"
   cx="25"
   id="path1293"
   style="opacity:1;fill:url(#linearGradient1301);fill-opacity:1;fill-rule:evenodd;stroke-width:0.364389" />&#10;        <path
   id="path1287"
   d="m 3.9334026,38.474665 c 2.3989486,3.540032 4.8460241,5.827029 7.8887424,7.774444 2.463253,1.53134 4.828551,2.444762 7.327248,3.048527 l 10.911425,-0.610674 10.603712,-6.191427 6.719146,-6.305806 1.459042,-3.462715 -4.670845,-2.468463 -10.009568,0.537233 -6.423476,1.567119 -4.260851,0.881074 -1.95706,0.249079 -4.234368,0.747241 -6.058578,1.02743 7.161649,0.822883 1.4589,0.391412 -1.174237,1.530064 L 13.0166,39.008409 7.9969166,37.960578 2.8617363,36.268524 Z"
   style="fill:#b4e5c8;fill-opacity:1;stroke:none;stroke-width:0.264583;stroke-linecap:butt;stroke-linejoin:miter;stroke-miterlimit:4;stroke-dasharray:none;stroke-opacity:1" />&#10;        <path
   id="path1289"
   d="m 17.199482,28.13805 -0.210483,-0.224045 0.498521,-0.163057 c 0.566797,-0.18539 1.457182,-0.744654 1.594736,-1.001678 0.229987,-0.429729 -0.03953,-0.635387 -0.402366,-0.307029 -0.137829,0.124734 -0.215946,0.137837 -0.344204,0.05774 -0.216382,-0.135133 -0.711827,0.06397 -0.863255,0.346922 -0.08182,0.15288 -0.139095,0.177737 -0.23196,0.100666 -0.06782,-0.05629 -0.194726,-0.07494 -0.282006,-0.04144 -0.130353,0.05002 -0.148138,0.01882 -0.09957,-0.174698 0.06998,-0.278822 -0.106355,-0.35222 -0.853619,-0.355308 -0.987161,-0.0041 -2.892178,-0.584612 -4.025211,-1.226637 -1.620383,-0.918181 -2.8298088,-1.99403 -3.4890489,-3.103691 -0.5082348,-0.855486 -0.6686613,-1.393681 -0.6686613,-2.2432 0,-1.118155 0.4089019,-1.942115 1.2178814,-2.454109 l 0.3424309,-0.216719 2.86e-4,-1.091509 c 2.825e-4,-1.070804 0.0059,-1.099324 0.2954422,-1.503502 0.205445,-0.286777 0.4893137,-0.512243 0.9340197,-0.741848 0.568732,-0.293642 0.718081,-0.329495 1.360356,-0.326564 0.692828,0.0032 1.646337,0.232635 1.765099,0.424792 0.02889,0.04675 -0.136439,0.266992 -0.367409,0.489418 -0.789911,0.760699 -0.831186,1.899174 -0.122698,3.384319 0.385658,0.80842 1.409089,1.852678 2.213549,2.258595 0.325187,0.164084 0.59125,0.275591 0.59125,0.247793 0,-0.0278 -0.106424,-0.21913 -0.236498,-0.425183 -0.265223,-0.420138 -0.294541,-0.567601 -0.112848,-0.567601 0.06801,0 0.32603,0.275619 0.573376,0.612487 0.247345,0.336869 0.713186,0.847336 1.035197,1.134372 0.584757,0.521243 1.637607,1.158458 1.741845,1.054218 0.03032,-0.03032 -0.135677,-0.236626 -0.368886,-0.458452 -0.921523,-0.876544 -1.516677,-1.981044 -1.500023,-2.783783 0.01891,-0.911769 0.04891,-1.119746 0.161499,-1.119746 0.193539,0 0.617326,0.732557 0.680901,1.176997 0.05371,0.375487 0.08985,0.427786 0.29675,0.429386 0.187604,0.0014 0.241822,0.05617 0.266171,0.268645 0.0168,0.146755 -0.01123,0.386701 -0.06228,0.533214 -0.08331,0.238975 -0.05725,0.300369 0.253224,0.596598 0.190346,0.181616 0.472552,0.388657 0.627118,0.46009 0.154567,0.07143 0.329148,0.226416 0.387961,0.344405 0.05881,0.117989 0.136803,0.244401 0.173319,0.280917 0.09926,0.09926 -0.05077,-0.278324 -0.19583,-0.492843 -0.06939,-0.102629 -0.126167,-0.266024 -0.126167,-0.363099 0,-0.09708 -0.127711,-0.452419 -0.283801,-0.789654 -0.271136,-0.585792 -0.360411,-1.184789 -0.211405,-1.418429 0.03823,-0.05994 0.265709,-0.138367 0.505514,-0.174292 0.386366,-0.05788 0.466935,-0.114236 0.707584,-0.494952 0.399716,-0.632368 0.787959,-0.769419 2.112514,-0.745719 l 1.059336,0.01895 0.349184,-0.297102 c 0.515883,-0.438935 0.70758,-0.515619 1.288969,-0.515619 0.289586,0 0.526519,-0.03597 0.526519,-0.07994 0,-0.218728 -0.41804,-0.425761 -0.969323,-0.480055 l -0.591582,-0.05826 0.325129,-0.117814 c 0.1845,-0.06686 0.286793,-0.151193 0.236501,-0.194982 -0.456294,-0.397284 -0.613993,-0.459692 -1.054605,-0.417354 -0.529963,0.05092 -1.441479,-0.157312 -1.098215,-0.250885 0.168814,-0.04602 0.185973,-0.08267 0.0946,-0.202054 -0.132753,-0.173458 -0.879699,-0.469061 -1.185249,-0.469061 -0.31742,0 -0.581871,-0.170591 -0.581871,-0.375355 0,-0.282704 0.829217,-0.399653 1.039252,-0.146571 0.06457,0.07779 0.158396,0.116099 0.208517,0.08512 0.05012,-0.03098 0.178389,0.03735 0.285045,0.151828 l 0.193917,0.208147 0.138431,-0.285825 c 0.256062,-0.528709 0.567984,-0.455482 0.930977,0.218558 0.119076,0.221108 0.234928,0.318206 0.364091,0.305147 0.123016,-0.01244 0.233519,0.07059 0.315157,0.2368 0.06915,0.140774 0.248636,0.343476 0.398873,0.450452 0.384492,0.273786 1.680873,0.879027 1.798687,0.839756 0.05391,-0.01797 -0.05386,-0.245496 -0.239476,-0.505615 -0.185623,-0.260119 -0.484029,-0.750901 -0.66313,-1.090628 -0.266192,-0.50493 -0.398891,-0.651715 -0.726934,-0.804102 -0.462777,-0.214977 -0.609642,-0.587718 -0.266882,-0.677351 0.248068,-0.06487 0.251003,-0.18284 0.0078,-0.313004 -0.133218,-0.07129 -0.185691,-0.190789 -0.178018,-0.405379 0.006,-0.167357 -0.02042,-0.400069 -0.05864,-0.517137 -0.0502,-0.153701 -0.03204,-0.212851 0.06534,-0.212851 0.244292,0 0.431237,0.229519 0.591238,0.725871 0.08676,0.269154 0.219268,0.54043 0.294463,0.602835 0.07519,0.06241 0.136714,0.197535 0.136714,0.300286 0,0.429049 0.801711,1.686347 1.94719,3.05372 0.653802,0.780452 1.366477,1.704615 1.583724,2.053694 0.217247,0.349081 0.433437,0.636429 0.480418,0.638552 0.12174,0.0055 -0.0078,-2.007571 -0.173216,-2.692246 -0.07543,-0.312181 -0.31003,-0.940862 -0.521328,-1.39707 -0.211294,-0.456207 -0.384178,-0.84998 -0.384178,-0.875052 0,-0.02507 0.06386,-0.04558 0.141902,-0.04558 0.160649,0 0.190275,-0.148137 0.0473,-0.236501 -0.05203,-0.03216 -0.0946,-0.159866 -0.0946,-0.2838 0,-0.123934 -0.04257,-0.251645 -0.0946,-0.283801 -0.194901,-0.120455 -0.102215,-0.522088 0.141902,-0.614902 0.166891,-0.06345 0.236502,-0.160887 0.236502,-0.331039 0,-0.375054 1.186739,-1.950896 1.347852,-1.789781 0.02424,0.02424 -0.03465,0.372985 -0.130854,0.774994 -0.20793,0.868857 -0.232311,2.758721 -0.05136,3.980919 l 0.117021,0.790387 0.257371,-0.62671 c 0.141555,-0.344691 0.257371,-0.686952 0.257371,-0.760579 0,-0.07363 0.04575,-0.253708 0.101668,-0.400178 0.09702,-0.254135 0.107685,-0.258112 0.233347,-0.08699 0.124973,0.170185 0.163545,0.152117 0.7573,-0.354751 0.344094,-0.293738 0.664786,-0.53407 0.712658,-0.53407 0.214262,0 0.04804,0.33635 -0.400686,0.810816 -0.268244,0.283628 -0.465712,0.537692 -0.438821,0.564585 0.104918,0.104917 0.607553,-0.175282 1.039924,-0.579715 0.386195,-0.361239 0.481745,-0.409209 0.643104,-0.322853 0.261541,0.139974 0.237095,0.271788 -0.07064,0.380854 -0.423146,0.14997 -0.545695,0.249842 -0.514545,0.419332 0.04585,0.249488 -0.145836,0.410334 -0.752728,0.631618 -0.338876,0.123561 -0.656411,0.318525 -0.803527,0.493358 -0.214072,0.254412 -0.238474,0.354814 -0.203557,0.837539 0.02181,0.301662 0.005,0.548476 -0.03731,0.548476 -0.04234,0 -0.07887,-0.05321 -0.08117,-0.118251 -0.0081,-0.229135 -0.379404,0.596105 -0.531518,1.181325 -0.08469,0.325837 -0.184103,0.954276 -0.220908,1.396532 -0.06199,0.744889 -0.06795,0.762305 -0.08084,0.2365 -0.02485,-1.013578 0.599848,-3.66382 0.983636,-4.172977 0.13793,-0.182989 0.42965,-0.376297 0.771001,-0.510904 0.534643,-0.21083 0.93382,-0.471832 0.721618,-0.471832 -0.0575,0 -0.290112,0.08421 -0.516924,0.187123 -0.226808,0.102918 -0.465594,0.188058 -0.530631,0.189201 -0.166691,0.0029 -0.146865,-0.291461 0.03826,-0.568125 0.09752,-0.145745 0.0054,-0.09128 -0.244295,0.144501 -0.477497,0.450799 -0.651038,0.755628 -0.8617,1.513604 -0.08676,0.312181 -0.194357,0.559382 -0.239093,0.549336 -0.07094,-0.01593 -0.291327,-0.762344 -0.462458,-1.566288 -0.03046,-0.143083 -0.100006,-0.260151 -0.154549,-0.260151 -0.05454,0 -0.07497,0.07627 -0.04538,0.169489 0.246777,0.777522 0.343549,4.276722 0.118275,4.276722 -0.06846,0 -0.214609,-0.159638 -0.324768,-0.354751 -0.4236,-0.750277 -3.025968,-3.958783 -3.128083,-3.856668 -0.02538,0.02539 0.108854,0.279618 0.29831,0.564961 0.189456,0.285343 0.355549,0.573332 0.369093,0.639978 0.03171,0.15598 -0.331268,0.116938 -0.804096,-0.08649 -0.195641,-0.08417 -0.387138,-0.121617 -0.425549,-0.08321 -0.117725,0.117724 0.239011,0.309442 0.69109,0.371407 0.867438,0.118895 1.039928,0.430409 0.250142,0.451757 -0.422492,0.01142 -0.414598,0.01577 0.164653,0.09075 0.373286,0.04832 0.673509,0.14422 0.776832,0.248155 0.40611,0.408498 1.691792,2.989108 1.556569,3.12433 -0.02817,0.02817 -0.09683,-0.06875 -0.152586,-0.215392 -0.415083,-1.091754 -1.464304,-2.846185 -1.747679,-2.922346 -0.408666,-0.109834 -1.517829,-0.05081 -1.798358,0.09569 -0.158768,0.08292 -0.394987,0.126065 -0.536177,0.09794 -0.169176,-0.0337 -0.332749,0.01294 -0.496182,0.141499 l -0.243806,0.191779 0.496182,0.457663 0.496182,0.457664 0.805222,-0.0056 c 0.917333,-0.0063 1.427774,0.166917 2.017557,0.684754 0.781395,0.686074 1.168977,1.943615 1.056869,3.429086 -0.12046,1.596087 -0.380617,3.175048 -0.554855,3.367582 -0.273428,0.302135 -0.921002,0.42816 -1.837924,0.35768 -0.995389,-0.07651 -1.358371,-0.240664 -2.229449,-1.008233 -0.880195,-0.775599 -2.018723,-1.530684 -2.331728,-1.546426 -0.334776,-0.01684 -0.53484,-0.19012 -0.678641,-0.587787 -0.064,-0.176997 -0.143293,-0.321812 -0.176197,-0.321812 -0.135771,0 -0.17746,0.132761 -0.07896,0.251446 0.162643,0.195972 -0.140447,0.162001 -0.586949,-0.06579 -0.313119,-0.159742 -1.412342,-0.613429 -1.979661,-0.817076 -0.07805,-0.02801 -0.0032,0.06343 0.166458,0.203207 0.330282,0.272212 0.327947,0.426922 -0.0065,0.430316 -0.113996,0.0011 -0.313692,0.08966 -0.443766,0.196679 l -0.236502,0.194577 0.520302,-0.05309 c 0.286164,-0.0292 0.719944,-0.08057 0.963954,-0.114157 0.400818,-0.05517 0.43984,-0.04392 0.404164,0.116557 -0.03918,0.176266 0.127683,0.322278 1.574682,1.377863 0.262999,0.191858 0.531754,0.328273 0.597238,0.303146 0.06548,-0.02513 0.17366,0.0201 0.240395,0.100518 0.06674,0.08041 0.105487,0.147443 0.08611,0.148956 -0.01938,0.0015 -0.418363,0.0159 -0.886635,0.03197 -0.989629,0.03396 -1.83172,0.179871 -2.200095,0.381211 -0.142731,0.07801 -0.35448,0.185259 -0.470556,0.238328 -0.133096,0.06085 -0.190747,0.149375 -0.156094,0.239684 0.06128,0.15968 0.291227,0.07801 0.504753,-0.179274 0.146986,-0.177109 0.351366,-0.191533 0.408283,-0.02881 0.03032,0.08667 0.09125,0.07404 0.228181,-0.0473 0.315504,-0.279583 1.378934,-0.197131 2.254256,0.17478 l 0.377273,0.160299 -0.520302,0.112833 c -0.973825,0.211184 -2.306049,0.853688 -3.661485,1.76586 -0.374871,0.252276 -0.697368,0.458684 -0.716661,0.458684 -0.01931,0 -0.1298,-0.10082 -0.245562,-0.224045 z m 0.04795,-1.622575 c -0.03207,-0.08359 -0.103259,-0.124203 -0.158181,-0.09026 -0.06858,0.04238 -0.06457,0.104247 0.0128,0.197482 0.137458,0.165626 0.225228,0.100886 0.14537,-0.107224 z m 0.37378,-3.261793 c 0.07379,0 0.134165,-0.04257 0.134165,-0.0946 0,-0.05203 -0.148996,-0.0946 -0.3311,-0.0946 -0.315304,0 -0.409385,0.07938 -0.265094,0.223676 0.0363,0.0363 0.124926,0.0434 0.196939,0.01577 0.07201,-0.02764 0.1913,-0.05024 0.26509,-0.05024 z m 3.350572,-2.122922 c 0,-0.150663 -0.171639,-0.291178 -0.254482,-0.208336 -0.07782,0.07782 0.04366,0.344654 0.156916,0.344654 0.05366,0 0.09757,-0.06134 0.09757,-0.136318 z m -4.210913,-0.338631 c -0.0371,-0.06002 -0.141337,-0.08981 -0.231642,-0.0662 -0.09031,0.02362 -0.330281,-0.0576 -0.533273,-0.180474 -0.202996,-0.122878 -0.401011,-0.223631 -0.440034,-0.223897 -0.14006,-9.66e-4 -0.06752,0.195942 0.0946,0.256772 0.09105,0.03417 0.20812,0.115798 0.26015,0.181406 0.05203,0.06561 0.264883,0.1321 0.473002,0.147762 0.445683,0.03354 0.465487,0.02749 0.377198,-0.115371 z m 1.296706,-0.758018 c -0.114182,-0.106374 -0.207601,-0.241414 -0.207601,-0.300089 0,-0.05868 -0.02185,-0.08484 -0.04854,-0.05814 -0.02671,0.0267 0.01877,0.209676 0.101071,0.406617 0.11091,0.265444 0.17717,0.330516 0.256141,0.251547 0.07897,-0.07897 0.05282,-0.15656 -0.101071,-0.299935 z M 25.1342,16.915467 c 0.104557,-0.06757 0.04232,-0.0917 -0.236501,-0.0917 -0.27882,0 -0.341058,0.02413 -0.236501,0.0917 0.07804,0.05044 0.184471,0.0917 0.236501,0.0917 0.05203,0 0.158456,-0.04126 0.236501,-0.0917 z m -1.301443,-2.22713 c -0.185959,-0.130251 -0.23648,-0.130658 -0.4704,-0.0038 l -0.262062,0.142136 0.4704,0.0038 c 0.450477,0.0036 0.461575,-0.0024 0.262062,-0.142136 z m 5.463851,-0.947561 c 0,-0.07498 -0.06385,-0.136318 -0.141898,-0.136318 -0.142489,0 -0.194469,0.199701 -0.08141,0.312763 0.08829,0.08829 0.223304,-0.0184 0.223304,-0.176445 z m -3.851112,-0.358972 c -0.162761,-0.439151 -0.329177,-0.528323 -0.390985,-0.209504 -0.02864,0.147704 0.442804,0.762779 0.523101,0.68248 0.01734,-0.01733 -0.04213,-0.230167 -0.132116,-0.472976 z m 6.121518,12.614586 c 0,-0.05241 -0.269202,-0.0939 -0.609316,-0.0939 -0.335126,0 -0.634813,-0.04125 -0.665973,-0.09167 -0.03118,-0.05042 0.340722,-0.508047 0.826403,-1.016953 0.485684,-0.508906 1.204634,-1.351071 1.597668,-1.871478 0.393035,-0.520408 0.788014,-1.007115 0.877732,-1.081574 0.08972,-0.07446 0.246016,-0.297866 0.347329,-0.496459 0.177593,-0.348108 0.498889,-0.49341 0.576458,-0.260697 0.01891,0.05678 0.194672,-0.009 0.404615,-0.151489 0.859075,-0.582983 1.145389,-0.311147 0.485645,0.461089 -0.239222,0.280015 -0.434952,0.537368 -0.434952,0.571896 0,0.03453 -0.110206,0.229312 -0.2449,0.432852 -0.226168,0.341763 -0.235568,0.395883 -0.122899,0.707474 0.0671,0.185571 0.147888,0.337401 0.17952,0.337401 0.144758,0 1.218918,-0.709543 1.548502,-1.022876 0.201809,-0.191855 0.620382,-0.689388 0.930162,-1.105629 0.354809,-0.476741 0.717127,-0.846961 0.979085,-1.000437 0.228714,-0.133999 0.496493,-0.316624 0.595071,-0.405833 0.170134,-0.15397 0.181787,-0.152408 0.22969,0.03079 0.06706,0.256437 0.317639,0.245554 0.457414,-0.01987 0.141866,-0.269389 0.265741,-0.351482 0.53312,-0.353302 0.237967,-0.0016 0.288234,0.164761 0.07455,0.246761 -0.07607,0.02919 -0.165321,0.1382 -0.198344,0.242249 -0.03304,0.104049 -0.224895,0.262987 -0.426386,0.353196 -0.321682,0.144021 -0.750574,0.548884 -0.750574,0.708521 0,0.03082 0.08868,0.05603 0.197082,0.05603 0.115372,0 0.180935,0.04903 0.158138,0.118251 -0.02367,0.07183 -0.284355,0.136817 -0.664113,0.16555 l -0.625159,0.0473 -0.534164,0.591195 c -0.455801,0.504468 -0.508721,0.599399 -0.360727,0.647129 0.09539,0.03076 0.266149,0.100196 0.379462,0.154291 0.195652,0.0934 0.373795,0.07854 0.858228,-0.07161 0.403631,-0.125102 0.227666,0.186213 -0.206067,0.364565 -0.342181,0.140707 -0.483994,0.153701 -0.780097,0.07148 -0.503126,-0.139709 -0.907952,-0.126262 -1.124259,0.03735 -0.174281,0.131817 -0.168689,0.139045 0.109727,0.141901 0.161349,0.0016 0.486857,0.10589 0.723348,0.231633 0.402752,0.214147 0.443741,0.218992 0.647158,0.07651 0.142732,-0.09997 0.454142,-0.158989 0.908509,-0.17217 0.623575,-0.01809 0.691334,-0.0024 0.691334,0.159988 0,0.197952 0.114421,0.226723 0.366068,0.09205 0.09274,-0.04963 0.221416,-0.05278 0.295149,-0.0072 0.108071,0.06679 0.10928,0.106621 0.007,0.229899 -0.102186,0.123126 -0.101124,0.176498 0.0061,0.306261 0.117529,0.142258 0.102941,0.150459 -0.153969,0.08654 -0.15609,-0.03883 -0.411508,-0.07238 -0.567602,-0.07455 -0.156089,-0.0022 -0.20946,-0.02292 -0.118597,-0.04612 0.131373,-0.03353 0.14522,-0.07951 0.06762,-0.224502 -0.113116,-0.211358 -0.374727,-0.245321 -0.374727,-0.04865 0,0.108874 -0.05197,0.114067 -0.280033,0.02798 -0.226289,-0.08541 -0.344919,-0.07476 -0.618111,0.05552 -0.424423,0.202392 -0.838145,0.205622 -1.1384,0.0089 -0.160916,-0.105437 -0.312779,-0.130208 -0.493321,-0.08047 l -0.260843,0.07186 0.331104,0.10504 c 0.516547,0.163873 0.734185,0.316453 0.991495,0.695122 0.380155,0.559446 0.278427,0.625436 -0.272449,0.17674 -0.549427,-0.447516 -1.353501,-0.772583 -1.69748,-0.686249 -0.308021,0.07731 -1.267702,0.71632 -1.842601,1.226915 -0.672183,0.596993 -0.761812,0.554918 -0.111575,-0.05238 0.881972,-0.823722 2.495791,-1.774197 3.016043,-1.77633 0.123935,-4.65e-4 0.374638,0.09135 0.557118,0.20413 0.208727,0.129001 0.316262,0.158478 0.289925,0.07948 -0.07969,-0.23909 -0.675958,-0.473735 -1.203815,-0.473735 -0.506229,0 -0.510606,-0.0024 -0.342131,-0.188576 0.09386,-0.103716 0.334597,-0.260904 0.534965,-0.349306 0.200368,-0.0884 0.364305,-0.19639 0.364305,-0.239974 0,-0.04358 0.234135,-0.35524 0.520299,-0.69257 0.451832,-0.532611 0.613714,-0.799979 0.484368,-0.799979 -0.01977,0 -0.204851,0.223493 -0.411308,0.496651 -0.206456,0.273158 -0.726483,0.752072 -1.155615,1.064253 -0.429131,0.31218 -1.104643,0.833664 -1.501131,1.158852 -0.396492,0.325189 -0.758924,0.591252 -0.805408,0.591252 -0.04648,0 -0.06647,-0.154523 -0.04442,-0.343385 0.0384,-0.328927 0.03386,-0.335158 -0.1079,-0.147985 -0.08139,0.107471 -0.246784,0.357776 -0.367537,0.556236 -0.218334,0.35884 -1.530558,1.438104 -1.530558,1.258837 z m 6.419267,-2.164729 c 0.07797,-0.0494 0.09146,-0.104129 0.03436,-0.139411 -0.05169,-0.03195 -0.14659,0.0053 -0.210887,0.08278 -0.12765,0.15381 -0.02753,0.18593 0.176516,0.05663 z m -3.825652,-1.11182 c 0.03279,-0.08549 0.04019,-0.174895 0.01641,-0.198673 -0.07518,-0.07518 -0.245021,0.07578 -0.245021,0.217797 0,0.18556 0.155038,0.172591 0.228607,-0.01912 z m 4.217602,-1.550332 c 0,-0.05366 -0.06385,-0.122073 -0.141898,-0.152022 -0.07805,-0.02995 -0.141902,-0.14025 -0.141902,-0.245115 0,-0.163564 -0.02138,-0.172917 -0.150441,-0.06581 -0.137525,0.114134 -0.137525,0.134303 0,0.234863 0.08274,0.0605 0.150441,0.158526 0.150441,0.217827 0,0.0593 0.06386,0.107822 0.141902,0.107822 0.07805,0 0.141898,-0.04391 0.141898,-0.09757 z m 0.237027,-0.470613 c 0.09446,-0.104379 0.144959,-0.216571 0.112215,-0.249315 -0.08856,-0.08856 -0.553657,0.243345 -0.488573,0.348651 0.08463,0.136934 0.186985,0.109918 0.376358,-0.09934 z m -8.088844,0.05946 c 0,-0.01964 0.0745,-0.09414 0.16555,-0.16555 0.15004,-0.117671 0.153386,-0.114325 0.03572,0.03572 -0.123582,0.157581 -0.201266,0.207694 -0.201266,0.129834 z m 1.250629,-0.456981 c 0.118619,-0.218955 0.582922,-0.770577 1.031779,-1.225826 0.448858,-0.455251 0.839006,-0.887407 0.866995,-0.960346 0.028,-0.07294 0.256724,-0.184248 0.508299,-0.247351 0.568553,-0.142612 1.923492,-0.86342 1.923617,-1.023338 9.6e-5,-0.177317 -0.07265,-0.148399 -0.504288,0.200345 -0.532787,0.430471 -0.749913,0.532806 -1.130447,0.532806 -0.239176,0 -0.346389,-0.05273 -0.413629,-0.203415 -0.08886,-0.199133 -0.09464,-0.197445 -0.274608,0.08016 -0.277437,0.427949 -0.849718,0.890857 -1.020385,0.825367 -0.103366,-0.03967 -0.1879,0.03763 -0.283518,0.259236 -0.07493,0.173664 -0.40484,0.571174 -0.733138,0.883355 l -0.596902,0.567602 0.615316,-0.66803 c 0.570912,-0.619824 0.634952,-0.734536 0.887471,-1.589626 0.245426,-0.831085 0.260056,-0.955052 0.148967,-1.262258 -0.111239,-0.307629 -0.105497,-0.355296 0.05921,-0.491579 0.10032,-0.08301 0.23668,-0.2777 0.303023,-0.432656 0.107263,-0.25052 0.131022,-0.263164 0.21444,-0.114104 0.06162,0.110099 0.15634,0.147789 0.275992,0.109813 0.263521,-0.08364 0.223626,0.09816 -0.06819,0.310729 -0.1754,0.127769 -0.256123,0.27885 -0.269585,0.504542 -0.01058,0.177188 -0.112408,0.636232 -0.226314,1.020098 -0.113903,0.383865 -0.183989,0.721047 -0.155743,0.749292 0.07976,0.07976 0.522443,-0.363381 0.810982,-0.811812 0.283965,-0.441324 1.10573,-1.213152 1.195774,-1.123109 0.106198,0.106199 -0.184575,0.635102 -0.455039,0.827688 -0.149218,0.106253 -0.271305,0.259466 -0.271305,0.340471 0,0.258722 0.562028,0.06519 1.308962,-0.450728 0.399978,-0.27627 0.889967,-0.525935 1.156409,-0.589227 0.360705,-0.08568 0.485585,-0.165928 0.568052,-0.365024 0.09544,-0.230423 0.345281,-0.421827 0.434349,-0.33276 0.01931,0.0193 -0.05065,0.144081 -0.155439,0.277299 -0.239927,0.305016 -0.24623,0.479301 -0.0147,0.40581 0.102404,-0.0325 0.226861,0.0057 0.297998,0.09138 0.109681,0.132157 0.142443,0.128751 0.320807,-0.03334 0.268902,-0.24437 0.624354,-0.421148 0.624354,-0.310511 0,0.178191 -0.581273,0.573117 -0.925138,0.628552 -0.193582,0.03121 -0.46228,0.116459 -0.597106,0.189446 -0.13483,0.07299 -0.432818,0.159376 -0.662204,0.191975 -0.440019,0.06253 -2.475665,1.017399 -2.751782,1.29079 -0.08917,0.08829 -0.283661,0.22337 -0.43221,0.300187 -0.342356,0.17704 -0.945265,0.829111 -1.400397,1.514592 -0.418112,0.62972 -0.511707,0.68901 -0.210755,0.133509 z m 5.447068,-3.594032 c 0.151116,-0.151117 0.143665,-0.26488 -0.01734,-0.26488 -0.07198,0 -0.153133,0.08514 -0.180345,0.1892 -0.05572,0.213075 0.02817,0.245193 0.197693,0.07568 z M 33.140459,16.27256 c -0.209303,-0.209305 -0.303097,-0.07128 -0.162,0.238391 0.108107,0.23727 0.125745,0.244249 0.214856,0.08502 0.07265,-0.12982 0.05935,-0.211203 -0.05286,-0.323408 z m 3.72417,0.359103 c 0,-0.05203 -0.06134,-0.0946 -0.136318,-0.0946 -0.07497,0 -0.162625,0.04257 -0.194782,0.0946 -0.03214,0.05203 0.02918,0.0946 0.136317,0.0946 0.107131,0 0.194783,-0.04257 0.194783,-0.0946 z m -5.912516,3.594809 c 0.09417,-0.10406 0.192509,-0.1892 0.218524,-0.1892 0.02603,0 -0.02975,0.08514 -0.123921,0.1892 -0.09417,0.10406 -0.192513,0.189201 -0.218528,0.189201 -0.02603,0 0.02975,-0.08514 0.123925,-0.189201 z m 2.506907,-5.203013 c 0,-0.05203 0.04508,-0.0946 0.100184,-0.0946 0.0551,0 0.07387,0.04257 0.04172,0.0946 -0.03214,0.05203 -0.07724,0.0946 -0.100184,0.0946 -0.02295,0 -0.04172,-0.04257 -0.04172,-0.0946 z m 0.129335,-0.421809 c -0.08936,-0.192726 -0.07747,-0.258005 0.07153,-0.39285 0.21674,-0.196146 0.354255,-0.105348 0.149918,0.09899 -0.08024,0.08024 -0.122498,0.229791 -0.09483,0.335606 0.06806,0.260252 0.0036,0.238981 -0.12662,-0.04174 z m 0.106752,-1.092463 c -0.03239,-0.0524 0.0095,-0.121512 0.0931,-0.153587 0.181128,-0.06951 0.28207,0.0071 0.195008,0.147961 -0.07856,0.127103 -0.211423,0.129698 -0.288105,0.0056 z"
   style="fill:url(#radialGradient1275);fill-opacity:1;stroke-width:0.0946001" />&#10;        <path
   style="fill:#313e47;stroke-width:0.0946001"
   d="m 27.919507,35.342249 c -0.416242,-0.0467 -1.203333,-0.06305 -1.749092,-0.03634 -1.230492,0.06022 -2.762369,-0.03145 -2.718623,-0.162684 0.01755,-0.05266 0.368599,-0.20579 0.7801,-0.340283 0.547261,-0.17886 0.761805,-0.295341 0.798897,-0.43373 0.02789,-0.104061 0.134909,-0.313599 0.237813,-0.465642 0.333185,-0.49227 0.614465,-1.5566 0.614469,-2.325065 0,-1.586429 -1.261581,-3.936791 -2.742833,-5.109962 -0.51014,-0.404038 -1.778707,-0.846747 -2.624228,-0.915812 -0.58983,-0.04818 -0.715417,-0.03077 -0.888873,0.123177 -0.145445,0.129091 -0.213575,0.146177 -0.243355,0.06103 -0.05692,-0.162718 -0.261297,-0.148294 -0.408283,0.02882 -0.209854,0.252856 -0.44343,0.339083 -0.502378,0.18546 -0.05082,-0.132433 0.127017,-0.266502 0.695863,-0.524599 0.388014,-0.176049 1.222933,-0.309734 2.128507,-0.340811 0.468269,-0.01607 0.870009,-0.03046 0.892749,-0.03197 0.210354,-0.01399 -2.079463,-1.963065 -2.401085,-2.043786 -0.12493,-0.03136 -0.52594,-0.01065 -0.891132,0.04601 -0.365189,0.05666 -0.762253,0.102074 -0.882362,0.100917 l -0.218381,-0.0021 0.236501,-0.184994 c 0.130075,-0.101746 0.32977,-0.18594 0.44377,-0.187097 0.334436,-0.0034 0.33677,-0.158103 0.0065,-0.430315 -0.169597,-0.13978 -0.244503,-0.231222 -0.166458,-0.203207 0.701752,0.251902 1.735773,0.689043 2.10419,0.889561 0.448676,0.244199 0.668908,0.242107 0.464318,-0.0044 -0.05899,-0.07108 -0.07925,-0.157251 -0.04501,-0.191486 0.119946,-0.119946 0.199957,-0.06002 0.26424,0.197904 0.03994,0.160275 0.563443,0.750453 1.36357,1.537254 1.727028,1.69826 3.099172,3.459025 3.856811,4.949152 0.127418,0.250603 0.282728,0.438997 0.345138,0.418654 0.218756,-0.07131 1.001245,-1.137738 1.325784,-1.806867 0.825055,-1.701094 1.337252,-4.106971 1.271667,-5.973245 -0.03397,-0.966288 -0.08539,-1.268897 -0.345638,-2.033701 -0.336263,-0.988183 -1.126908,-2.570257 -1.513191,-3.027877 -0.209525,-0.248218 -0.339528,-0.304108 -0.861653,-0.370434 -0.578886,-0.07353 -0.588908,-0.07881 -0.171135,-0.09011 0.789783,-0.02135 0.617296,-0.332862 -0.250142,-0.451757 -0.452079,-0.06196 -0.808818,-0.253683 -0.691093,-0.371407 0.03841,-0.03841 0.229911,-9.66e-4 0.425552,0.08321 0.472824,0.203428 0.835792,0.242469 0.804092,0.08649 -0.01355,-0.06665 -0.179633,-0.354635 -0.369089,-0.639978 -0.189459,-0.285343 -0.323699,-0.539575 -0.29831,-0.564961 0.102115,-0.102115 2.704482,3.106391 3.128083,3.856668 0.110159,0.195113 0.256306,0.354751 0.324768,0.354751 0.225274,0 0.128502,-3.4992 -0.118275,-4.276721 -0.02961,-0.09322 -0.0092,-0.16949 0.04538,-0.16949 0.05454,0 0.124093,0.117068 0.154549,0.260151 0.177842,0.835465 0.385693,1.522975 0.46391,1.53446 0.04949,0.0073 0.158699,-0.23391 0.242686,-0.535948 0.205545,-0.739191 0.381854,-1.046914 0.856651,-1.495164 0.249748,-0.235784 0.341823,-0.290245 0.244299,-0.144501 -0.185129,0.276664 -0.204958,0.571054 -0.03826,0.568125 0.06504,-0.0011 0.303823,-0.08628 0.530631,-0.1892 0.226812,-0.102918 0.459427,-0.187124 0.516924,-0.187124 0.212202,0 -0.186975,0.261002 -0.721618,0.471832 -0.341351,0.134607 -0.633071,0.327915 -0.771001,0.510904 -0.364656,0.483774 -0.999268,3.113162 -0.99575,4.125677 0.0021,0.664505 0.206468,1.459088 0.382716,1.489528 0.07466,0.0129 0.26292,-0.157335 0.418355,-0.37829 0.155435,-0.220955 0.589794,-0.723666 0.965244,-1.117137 0.37545,-0.39347 0.727781,-0.834141 0.782961,-0.979269 0.0703,-0.184905 0.145421,-0.246562 0.251025,-0.206037 0.174306,0.06689 0.74293,-0.390794 1.02381,-0.824053 0.17997,-0.277607 0.185751,-0.279295 0.274605,-0.08016 0.06724,0.150689 0.174456,0.203416 0.413632,0.203416 0.380534,0 0.59766,-0.102336 1.130447,-0.532807 0.431638,-0.348744 0.504427,-0.377662 0.504288,-0.200345 -9.7e-5,0.159918 -1.355064,0.880726 -1.92362,1.023338 -0.253127,0.06349 -0.482706,0.182747 -0.514056,0.267024 -0.03118,0.08376 -0.343511,0.419287 -0.694118,0.745616 -0.722208,0.6722 -1.598094,1.936337 -1.998244,2.884008 -0.420332,0.995463 -0.955983,3.282906 -1.241522,5.301783 -0.03616,0.255685 -0.01301,0.374219 0.08003,0.409924 0.125863,0.0483 1.579494,-1.063128 1.817286,-1.389473 0.06257,-0.08588 0.36924,-0.343176 0.681483,-0.571776 0.312243,-0.2286 0.665461,-0.578223 0.784931,-0.77694 0.11947,-0.198717 0.283815,-0.449234 0.36521,-0.556704 0.141756,-0.187173 0.1463,-0.180942 0.1079,0.147985 -0.02206,0.188862 -0.0021,0.343384 0.04442,0.343384 0.04648,0 0.408916,-0.266063 0.805407,-0.591251 0.396488,-0.325188 1.071997,-0.846672 1.501132,-1.158853 0.429132,-0.312181 0.949158,-0.791095 1.155615,-1.064253 0.206453,-0.273158 0.391543,-0.496651 0.411308,-0.496651 0.129345,0 -0.03254,0.267369 -0.484369,0.799979 -0.286164,0.337331 -0.520301,0.648987 -0.520301,0.692571 0,0.04358 -0.163938,0.151572 -0.364302,0.239974 -0.200368,0.0884 -0.441103,0.24559 -0.534965,0.349306 -0.168475,0.186163 -0.164099,0.188576 0.34213,0.188576 0.527857,0 1.124119,0.234644 1.203816,0.47373 0.02631,0.079 -0.0812,0.04953 -0.289925,-0.07947 -0.18248,-0.112781 -0.433187,-0.204639 -0.557119,-0.204131 -0.502936,0.0021 -2.080628,0.920695 -3.017087,1.756739 -0.286739,0.255994 -0.590913,0.508013 -0.675937,0.560043 -0.367216,0.224714 -2.659482,2.238871 -3.450033,3.031462 -0.703576,0.705392 -0.939866,1.019919 -1.277102,1.699962 -0.398801,0.804184 -0.414894,0.870714 -0.444056,1.835513 -0.02732,0.90358 -0.0069,1.053531 0.20925,1.539593 0.208977,0.469859 0.285195,0.551198 0.59786,0.638024 0.197093,0.05473 0.445997,0.09975 0.553121,0.10004 0.203182,5.72e-4 0.596598,0.238006 0.514585,0.310586 -0.122191,0.108132 -0.586001,0.125595 -1.276955,0.04808 z m 9.790258,-11.567223 c 0.0643,-0.07747 0.159196,-0.114721 0.210886,-0.08278 0.05709,0.03528 0.0436,0.09001 -0.03436,0.139411 -0.204054,0.129295 -0.304166,0.09718 -0.176516,-0.05663 z M 17.059187,23.288158 c -0.144291,-0.144292 -0.05021,-0.223676 0.265094,-0.223676 0.182104,0 0.3311,0.04257 0.3311,0.0946 0,0.05203 -0.06037,0.0946 -0.134165,0.0946 -0.07379,0 -0.193081,0.02261 -0.26509,0.05024 -0.07201,0.02763 -0.160634,0.02054 -0.196939,-0.01577 z m 16.772835,-0.549193 c 0,-0.142012 0.169838,-0.292979 0.245022,-0.217797 0.06598,0.06598 -0.06465,0.354114 -0.160545,0.354114 -0.04646,0 -0.08448,-0.06134 -0.08448,-0.136317 z M 20.620631,21.121097 c -0.03082,-0.08029 -0.03232,-0.169692 -0.0032,-0.198673 0.08284,-0.08284 0.254482,0.05767 0.254482,0.208336 0,0.181524 -0.180456,0.174581 -0.251156,-0.0097 z m 17.3738,0.03816 c 0,-0.0593 -0.0677,-0.157324 -0.150441,-0.217827 -0.137525,-0.10056 -0.137525,-0.120729 0,-0.234863 0.12906,-0.107111 0.150441,-0.09776 0.150441,0.06581 0,0.104865 0.06386,0.215166 0.141902,0.245115 0.07805,0.02995 0.141898,0.09836 0.141898,0.152022 0,0.05366 -0.06385,0.09757 -0.141898,0.09757 -0.07805,0 -0.141902,-0.04852 -0.141902,-0.107822 z M 16.283677,20.9075 c -0.208119,-0.01566 -0.420969,-0.08216 -0.473002,-0.147762 -0.05203,-0.06561 -0.169097,-0.14724 -0.26015,-0.181406 -0.162117,-0.06083 -0.234659,-0.257729 -0.0946,-0.256772 0.03902,2.83e-4 0.237038,0.101019 0.440034,0.223897 0.202992,0.122876 0.442968,0.204089 0.533273,0.180474 0.09031,-0.02361 0.194544,0.0062 0.231642,0.0662 0.08829,0.142855 0.06848,0.148911 -0.377198,0.115371 z m 1.518834,-0.825001 c -0.08229,-0.196941 -0.127769,-0.379919 -0.101071,-0.406617 0.02671,-0.0267 0.04854,-5.72e-4 0.04854,0.05814 0,0.05868 0.09342,0.193715 0.207601,0.300089 0.153894,0.143375 0.180038,0.220965 0.101071,0.299935 -0.07897,0.07897 -0.145231,0.0139 -0.256141,-0.251547 z m 6.758687,-3.167032 c -0.104557,-0.06757 -0.04232,-0.0917 0.236501,-0.0917 0.27882,0 0.341058,0.02413 0.236501,0.0917 -0.07804,0.05044 -0.184471,0.0917 -0.236501,0.0917 -0.05203,0 -0.158457,-0.04126 -0.236501,-0.0917 z m 12.36522,-0.283801 c 0.02721,-0.10406 0.108368,-0.1892 0.180345,-0.1892 0.161013,0 0.168464,0.113763 0.01734,0.26488 -0.169516,0.169513 -0.253413,0.137395 -0.197694,-0.07568 z m -4.047959,-0.120712 c -0.141097,-0.309675 -0.0473,-0.447696 0.162,-0.238391 0.112204,0.112205 0.125505,0.193588 0.05286,0.323408 -0.08911,0.159232 -0.106749,0.152253 -0.214856,-0.08502 z M 23.262357,14.68455 c 0.23392,-0.126871 0.284441,-0.126464 0.4704,0.0038 0.199513,0.139744 0.188415,0.145764 -0.262062,0.142137 l -0.4704,-0.0038 z m 5.710947,-0.767329 c -0.113063,-0.113062 -0.06108,-0.312763 0.08141,-0.312763 0.07804,0 0.141898,0.06134 0.141898,0.136318 0,0.158043 -0.135019,0.26473 -0.223304,0.176445 z m -3.789189,-0.304396 c -0.252966,-0.264042 -0.30111,-0.573006 -0.09973,-0.640042 0.08977,-0.02988 0.464529,0.810692 0.393224,0.881997 -0.01734,0.01733 -0.1494,-0.09155 -0.293497,-0.241955 z"
   id="path1209" />&#10;        <path
   style="fill:url(#radialGradient1255);fill-opacity:1;stroke-width:0.0946001"
   d="m 5.6887607,40.816128 c 3.8384803,0.534923 6.5663643,0.605786 10.0327233,0.172458 3.922338,-0.49033 7.174507,-1.71535 7.744883,-2.917327 0.347286,-0.731855 0.08595,-1.31967 -0.781377,-1.757493 -1.371969,-0.97011 -11.287042,-0.250478 -11.457018,-1.046039 0,-0.09432 0.552999,-0.161104 2.790707,-0.337022 1.040601,-0.08181 2.16871,-0.188992 2.506907,-0.238186 0.338194,-0.0492 2.33899,-0.110045 4.446209,-0.135222 3.271215,-0.03908 3.775993,-0.02738 3.452909,0.08002 -0.587889,0.195443 -1.009062,0.441315 -0.968166,0.565198 0.0432,0.130857 1.373842,0.223275 3.522372,0.244644 1.178716,0.01172 1.48703,0.04499 1.820723,0.19646 1.182144,0.536603 1.821387,1.29144 1.821387,2.150755 0,0.706157 -0.281681,1.237994 -1.029152,1.943118 -2.089613,1.971235 -7.052052,3.617752 -12.593283,4.178397 -3.14015,0.585719 -5.91932,0.581758 -8.3481532,0.01149 0,0 -2.2785563,-2.160967 -2.9616711,-3.111243 z m 8.4718103,1.737636 c 5.332979,-0.241995 10.758967,-1.636879 13.008163,-3.344066 1.697813,-1.288676 1.349393,-2.562043 -0.91143,-3.330999 -0.670925,-0.228196 -1.794325,-0.421586 -2.448989,-0.421586 -0.238596,0 -0.409263,-0.05768 -0.489807,-0.16555 -0.10165,-0.136135 -0.304313,-0.170704 -1.140566,-0.194553 -1.068764,-0.03048 -1.385809,0.09834 -0.520302,0.211409 0.728536,0.09517 2.268954,0.498907 2.961768,0.776261 0.643029,0.25742 1.218847,0.784841 1.326904,1.215375 0.130142,0.518527 -0.04372,0.922373 -0.653759,1.518548 -1.525885,1.491211 -5.605518,2.790323 -10.28058,3.273731 -1.238329,0.128045 -4.90948,0.161704 -6.9525092,0.06125 -2.0275269,0.20706 4.0648842,0.486987 6.1011072,0.400175 z m 27.81098,0.474663 c 1.687373,-2.489252 1.563512,-5.099981 -0.329942,-6.954616 -5.16532,-2.775757 -9.130746,-3.527325 -14.142404,-3.340878 v -0.222464 c 0,-0.178527 0.05138,-0.223355 0.260153,-0.226974 0.143082,-0.0025 0.941271,-0.06459 1.773751,-0.138018 2.229539,-0.196656 7.47718,-0.17951 9.121061,0.0298 2.276251,0.289829 4.521543,0.896778 5.90968,1.597507 0.697619,0.352157 2.401389,1.501127 2.704647,1.823931 0.201108,0.214068 0.211966,0.269975 0.115179,0.593014 -1.226755,2.51763 -3.009382,4.892165 -5.038867,6.740802 l -0.787841,0.709501 z M 9.4778606,38.995885 C 5.8807226,38.728579 5.9565853,39.120683 4.2178406,38.004735 3.4266426,37.549564 3.1552763,37.13826 2.8358297,36.505345 2.655171,36.147408 2.4214101,35.709162 2.1628168,35.175335 c 0.069156,-0.05511 0.8212233,0.835784 0.9675054,1.012043 0.2046154,0.246546 1.1080188,0.833776 1.8814764,1.222996 1.6229003,0.816677 1.280486,0.281858 3.3781587,0.56298 1.602105,0.214707 4.7559817,0.218452 6.2976267,0.0075 2.146145,-0.293701 3.943612,-0.884219 4.154481,-1.364864 0.126939,-0.289334 0.461229,-0.272042 0.703855,0.03641 0.258805,0.329019 0.247392,0.55942 -0.04206,0.848869 -0.81396,0.81396 -3.975356,1.444007 -7.519094,1.49851 -1.118649,0.01721 -2.2467587,0.01546 -2.5069074,-0.0039 z M 17.063798,28.191597 c -0.277212,-0.289345 -0.209089,-0.490838 0.166551,-0.492627 0.55168,-0.0026 1.839558,-0.876483 1.86041,-1.262329 0.0082,-0.152312 0.02156,-0.162922 0.05328,-0.04246 0.02328,0.08833 -0.0018,0.243085 -0.0558,0.34391 -0.143057,0.267308 -1.024114,0.824256 -1.603925,1.013904 l -0.501724,0.164106 0.23338,0.23338 0.233379,0.23338 0.696968,-0.467796 c 1.403247,-0.941842 2.966448,-1.689108 3.717348,-1.777025 0.340329,-0.03985 0.324586,-0.02794 -0.135073,0.102136 -0.762788,0.215859 -2.320272,0.981343 -3.337693,1.640432 -0.48911,0.316848 -0.930652,0.576086 -0.981205,0.576086 -0.05055,0 -0.206206,-0.119295 -0.345895,-0.265099 z M 8.8722737,22.83672 C 7.9821781,21.674945 7.6331541,20.818412 7.6331541,19.795816 c 0,-1.109993 0.4134177,-1.972803 1.2068333,-2.518688 l 0.4128921,-0.284075 -0.064315,-0.737296 c -0.1109245,-1.27159 0.3616346,-2.137518 1.4494915,-2.656083 0.605923,-0.288837 1.728894,-0.35998 2.348683,-0.148797 0.247903,0.08447 0.481726,0.153581 0.519605,0.153581 0.03788,0 0.09866,-0.223493 0.135058,-0.496651 0.106577,-0.799712 0.392888,-1.345642 1.000974,-1.908624 0.760114,-0.703731 1.400297,-0.948606 2.450805,-0.937455 0.481787,0.0051 0.966645,0.06887 1.209622,0.159058 l 0.405523,0.150522 0.09113,-0.239687 c 0.05012,-0.131829 0.09116,-0.311414 0.09121,-0.3990797 1.9e-4,-0.3026651 0.556371,-1.3340196 0.949452,-1.7604605 0.377405,-0.4094371 1.374446,-0.9997637 1.69074,-1.0010501 0.08274,-3.933e-4 0.533571,-0.3670753 1.001843,-0.8149752 1.108977,-1.0607329 1.654321,-1.4702287 2.460973,-1.8479277 0.561094,-0.2627192 0.792855,-0.3152174 1.535542,-0.3478254 0.792146,-0.034778 0.921624,-0.015367 1.371704,0.2056659 0.273346,0.1342396 0.637973,0.3734456 0.810285,0.5315699 0.172307,0.1581254 0.358255,0.2874995 0.41321,0.2874995 0.05496,0 0.245082,-0.1274491 0.422496,-0.2832197 1.081195,-0.9493031 2.664187,-1.0106231 3.434705,-0.1330486 0.226605,0.2580854 0.288209,0.4160913 0.288209,0.7391844 0,0.3750671 0.02685,0.4217742 0.307453,0.5351554 0.169097,0.068323 0.456444,0.218255 0.638552,0.3331829 0.182105,0.1149279 0.567037,0.2364308 0.855407,0.270007 0.675798,0.078687 1.420019,0.5006342 1.712351,0.9708416 0.184457,0.296692 0.223633,0.4892632 0.226901,1.1154061 0.0044,0.8338499 -0.02657,0.805452 0.66687,0.6125694 0.523173,-0.1455234 1.077549,0.010394 1.54792,0.4353458 0.4712,0.425702 0.666566,0.851446 0.666566,1.452606 0,0.379816 0.03599,0.496355 0.16555,0.536068 1.494038,0.457946 2.001082,1.703888 1.308787,3.216053 -0.287258,0.627459 -1.067327,1.427334 -1.78942,1.834858 -0.512207,0.289071 -0.672987,0.471926 -0.418069,0.47546 0.06504,9.48e-4 0.503058,0.0422 0.973375,0.09177 1.415167,0.149152 2.099972,0.490574 2.580872,1.286738 0.16383,0.271233 0.408058,0.497104 0.722629,0.668316 1.046385,0.569512 1.755682,1.587809 1.751809,2.51497 -0.0055,1.32693 -1.118809,2.32574 -2.989223,2.681884 -1.161843,0.221225 -1.108612,0.198327 -1.027772,0.442104 0.03861,0.116436 0.08961,0.406365 0.113335,0.644288 0.03634,0.364547 0.0043,0.47879 -0.204061,0.726354 -0.379716,0.451266 -0.956163,0.630511 -1.798669,0.559293 -0.385576,-0.03259 -0.881966,-0.131648 -1.103089,-0.220124 -0.381374,-0.152597 -0.407225,-0.152265 -0.5029,0.0065 -0.305028,0.506028 -0.245222,0.489699 -1.155225,0.315445 -0.460703,-0.08822 -1.502655,-0.318244 -2.31545,-0.511166 l -1.477812,-0.350768 0.264197,-0.195239 c 0.145305,-0.107382 0.512332,-0.397614 0.815608,-0.644961 0.303276,-0.247347 0.77113,-0.564945 1.039674,-0.705773 l 0.488259,-0.256052 0.532369,0.167815 c 0.309433,0.09754 0.748708,0.344027 1.048992,0.588612 0.556231,0.453056 0.659622,0.389176 0.278319,-0.17196 -0.25731,-0.378669 -0.474947,-0.53125 -0.991495,-0.695122 l -0.331104,-0.10504 0.260843,-0.07186 c 0.180542,-0.04974 0.332406,-0.02497 0.493322,0.08047 0.300255,0.196734 0.713976,0.193503 1.138399,-0.0089 0.273193,-0.130277 0.391822,-0.140932 0.618112,-0.05552 0.228067,0.08609 0.280032,0.08089 0.280032,-0.02798 0,-0.196672 0.261612,-0.16271 0.374724,0.04865 0.0776,0.144993 0.06375,0.190968 -0.06762,0.224502 -0.09086,0.02319 -0.03749,0.04395 0.118597,0.04612 0.15609,0.0022 0.411512,0.03571 0.567601,0.07455 0.256907,0.06391 0.271498,0.05571 0.153966,-0.08655 -0.107206,-0.129763 -0.108268,-0.183135 -0.0061,-0.30626 0.102311,-0.123279 0.101106,-0.163106 -0.007,-0.2299 -0.07373,-0.04557 -0.202406,-0.04242 -0.295149,0.0072 -0.251644,0.134676 -0.366068,0.105905 -0.366068,-0.09205 0,-0.1624 -0.06776,-0.17808 -0.691334,-0.159988 -0.454367,0.01318 -0.765777,0.0722 -0.908509,0.17217 -0.203417,0.14248 -0.244403,0.137635 -0.647155,-0.07651 -0.236494,-0.125743 -0.561999,-0.229978 -0.723348,-0.231633 -0.278419,-0.0029 -0.284008,-0.01008 -0.10973,-0.1419 0.216311,-0.163609 0.621133,-0.177056 1.124262,-0.03735 0.296104,0.08222 0.437913,0.06923 0.780097,-0.07148 0.43373,-0.178352 0.609699,-0.489667 0.206067,-0.364564 -0.484436,0.150145 -0.662579,0.165009 -0.858227,0.07161 -0.113317,-0.0541 -0.284073,-0.123526 -0.379462,-0.154291 -0.147995,-0.04773 -0.09508,-0.142661 0.360723,-0.647129 l 0.534164,-0.591195 0.625162,-0.0473 c 0.379755,-0.02873 0.640451,-0.09372 0.66411,-0.16555 0.02281,-0.06922 -0.04276,-0.11825 -0.158135,-0.11825 -0.108396,3e-6 -0.197082,-0.02521 -0.197082,-0.05603 0,-0.159637 0.428893,-0.5645 0.750575,-0.708521 0.201491,-0.09021 0.393363,-0.249147 0.426386,-0.353196 0.03304,-0.104049 0.122276,-0.213061 0.198344,-0.242249 0.213683,-0.082 0.163416,-0.248381 -0.07455,-0.246761 -0.267378,0.0018 -0.391253,0.08391 -0.533119,0.353302 -0.139775,0.265422 -0.390353,0.276306 -0.457414,0.01987 -0.0479,-0.183193 -0.05956,-0.184754 -0.22969,-0.03079 -0.09858,0.08921 -0.366358,0.271834 -0.595072,0.405833 -0.261958,0.153476 -0.624275,0.523696 -0.979084,1.000437 -0.30978,0.416241 -0.728354,0.913774 -0.930162,1.105629 -0.329585,0.313333 -1.403744,1.022876 -1.548503,1.022876 -0.03164,0 -0.112415,-0.15183 -0.179519,-0.337401 -0.11267,-0.311591 -0.10327,-0.365711 0.122898,-0.707474 0.134694,-0.20354 0.2449,-0.398322 0.2449,-0.432852 0,-0.03453 0.195731,-0.291881 0.434953,-0.571896 0.659744,-0.772236 0.37343,-1.044072 -0.485645,-0.461089 -0.209943,0.142473 -0.385687,0.208271 -0.404615,0.151489 -0.07757,-0.232713 -0.398866,-0.08741 -0.576458,0.260697 -0.101314,0.198593 -0.257614,0.422 -0.347329,0.496459 -0.08972,0.07446 -0.484698,0.561166 -0.877732,1.081574 -0.393034,0.520407 -1.111984,1.362572 -1.597668,1.871478 -0.485681,0.508906 -0.857567,0.966534 -0.826403,1.016953 0.03118,0.05042 0.330846,0.09167 0.665972,0.09167 0.382405,0 0.609317,0.039 0.609317,0.104722 0,0.0576 -0.06734,0.07888 -0.149636,0.0473 -0.0823,-0.03158 -0.422861,-0.05742 -0.756803,-0.05742 -0.584574,0 -0.607164,-0.0088 -0.607164,-0.236501 0,-0.130076 0.03951,-0.236501 0.0878,-0.236501 0.04829,0 0.175758,-0.235079 0.283261,-0.522399 0.246273,-0.658226 0.977658,-3.552628 0.913836,-3.616449 -0.114235,-0.114236 0.782615,-1.510483 1.401492,-2.181884 0.208065,-0.225726 0.499843,-0.473262 0.648392,-0.550079 0.148549,-0.07682 0.343042,-0.211902 0.43221,-0.300187 0.276117,-0.273391 2.311763,-1.22826 2.751782,-1.29079 0.229386,-0.0326 0.527374,-0.118987 0.662204,-0.191975 0.134826,-0.07299 0.403524,-0.158238 0.597106,-0.189446 0.343864,-0.05543 0.925138,-0.450361 0.925138,-0.628552 0,-0.110637 -0.355452,0.06614 -0.624354,0.310511 -0.178365,0.162094 -0.211126,0.1655 -0.320807,0.03334 -0.07114,-0.08572 -0.195594,-0.123879 -0.297998,-0.09138 -0.23155,0.07349 -0.225246,-0.100794 0.01469,-0.40581 0.104789,-0.133218 0.174735,-0.258002 0.155438,-0.277299 -0.08907,-0.08907 -0.338905,0.102337 -0.434348,0.33276 -0.08247,0.199096 -0.207347,0.279341 -0.568052,0.365024 -0.266442,0.06329 -0.756431,0.312957 -1.156409,0.589227 -0.746935,0.515921 -1.308962,0.70945 -1.308962,0.450728 0,-0.08101 0.122087,-0.234218 0.271305,-0.340471 0.270464,-0.192586 0.561237,-0.721489 0.455039,-0.827689 -0.09004,-0.09004 -0.911809,0.681786 -1.195774,1.12311 -0.288539,0.448431 -0.731225,0.891569 -0.810982,0.811812 -0.02825,-0.02825 0.04184,-0.365427 0.155742,-0.749292 0.113907,-0.383866 0.215746,-0.84291 0.226315,-1.020098 0.01348,-0.225692 0.09418,-0.376773 0.269585,-0.504542 0.291813,-0.212572 0.331708,-0.394367 0.06819,-0.310729 -0.119652,0.03798 -0.214376,2.83e-4 -0.275992,-0.109813 -0.08342,-0.14906 -0.107177,-0.136416 -0.21444,0.114104 -0.06634,0.154956 -0.202703,0.349651 -0.303023,0.432656 -0.16471,0.136283 -0.170452,0.18395 -0.05921,0.491579 0.110996,0.306954 0.09656,0.430851 -0.145967,1.252096 -0.256953,0.870117 -0.302429,0.947859 -1.003133,1.714959 -0.403686,0.44194 -0.833064,0.949043 -0.954168,1.126898 -0.121104,0.177853 -0.268351,0.323661 -0.32721,0.324016 -0.303991,0.0018 -0.407654,-1.550638 -0.176813,-2.64802 0.153204,-0.728294 0.53406,-1.709065 0.593928,-1.529462 0.09719,0.291586 0.170838,0.0531 0.135305,-0.438157 -0.03493,-0.482725 -0.01051,-0.583127 0.203557,-0.837539 0.147115,-0.174833 0.46465,-0.369797 0.803527,-0.493358 0.606892,-0.221284 0.798579,-0.38213 0.752727,-0.631618 -0.03114,-0.16949 0.0914,-0.269362 0.514546,-0.419332 0.307731,-0.109066 0.332176,-0.24088 0.07064,-0.380854 -0.161359,-0.08636 -0.25691,-0.03839 -0.643104,0.322852 -0.432371,0.404434 -0.935007,0.684633 -1.039924,0.579715 -0.02689,-0.02689 0.170577,-0.280956 0.438821,-0.564584 0.448729,-0.474466 0.614947,-0.810816 0.400685,-0.810816 -0.04787,0 -0.368563,0.240332 -0.712657,0.53407 -0.593756,0.506868 -0.632328,0.524936 -0.7573,0.354751 -0.125662,-0.171122 -0.136328,-0.167145 -0.233348,0.08699 -0.05592,0.146469 -0.101667,0.32655 -0.101667,0.400178 0,0.07363 -0.115816,0.415888 -0.257371,0.760579 l -0.257371,0.62671 -0.117021,-0.790387 c -0.180953,-1.222198 -0.156572,-3.112062 0.05136,-3.980919 0.09621,-0.402009 0.155092,-0.750757 0.130854,-0.774994 -0.161113,-0.161115 -1.347853,1.414727 -1.347853,1.789781 0,0.170152 -0.06961,0.267587 -0.236501,0.331039 -0.244117,0.09281 -0.336803,0.494446 -0.141902,0.614902 0.05203,0.03216 0.0946,0.159867 0.0946,0.283801 0,0.123934 0.04257,0.251644 0.0946,0.2838 0.142974,0.08836 0.113348,0.236501 -0.0473,0.236501 -0.07804,0 -0.141902,0.02051 -0.141902,0.04558 0,0.02507 0.172883,0.418845 0.384181,0.875052 0.211298,0.456208 0.445897,1.084889 0.521328,1.39707 0.16544,0.684675 0.294956,2.697748 0.173216,2.692246 -0.04698,-0.0021 -0.26317,-0.289471 -0.480414,-0.638552 -0.217248,-0.349079 -0.929926,-1.273242 -1.583728,-2.053694 -1.145479,-1.367373 -1.947189,-2.624671 -1.947189,-3.05372 0,-0.102751 -0.06152,-0.23788 -0.136715,-0.300286 -0.0752,-0.06241 -0.207704,-0.333681 -0.294462,-0.602835 -0.160001,-0.496352 -0.346947,-0.725871 -0.591239,-0.725871 -0.09738,0 -0.115533,0.05915 -0.06534,0.212851 0.03824,0.117068 0.06462,0.34978 0.05864,0.517136 -0.0077,0.214591 0.0448,0.334085 0.178018,0.40538 0.243212,0.130164 0.240277,0.248133 -0.0078,0.313004 -0.34276,0.08963 -0.195895,0.462374 0.266881,0.677351 0.328043,0.152387 0.460742,0.299172 0.726934,0.804102 0.179101,0.339727 0.477508,0.830509 0.66313,1.090628 0.185619,0.260119 0.293383,0.487646 0.239476,0.505615 -0.117814,0.03927 -1.414194,-0.565971 -1.798687,-0.839756 -0.150233,-0.106976 -0.329727,-0.309679 -0.398873,-0.450452 -0.08164,-0.166209 -0.19214,-0.249236 -0.315157,-0.2368 -0.129163,0.01306 -0.245014,-0.08404 -0.364091,-0.305147 -0.362993,-0.67404 -0.674915,-0.747267 -0.930977,-0.218558 l -0.13843,0.285825 -0.193918,-0.208148 c -0.106655,-0.114481 -0.234928,-0.182803 -0.285045,-0.151827 -0.05012,0.03098 -0.143951,-0.0073 -0.208513,-0.08512 -0.210043,-0.253082 -1.039259,-0.136133 -1.039259,0.146571 0,0.204763 0.26445,0.375355 0.581871,0.375355 0.30555,0 1.052496,0.295603 1.185248,0.469061 0.09137,0.119389 0.07421,0.156037 -0.0946,0.202054 -0.343264,0.09357 0.568252,0.301807 1.098215,0.250885 0.440612,-0.04234 0.598311,0.02007 1.054605,0.417354 0.05029,0.04379 -0.052,0.128127 -0.236501,0.194982 l -0.32513,0.117814 0.591582,0.05826 c 0.551283,0.05429 0.969324,0.261327 0.969324,0.480055 0,0.04397 -0.236934,0.07994 -0.526519,0.07994 -0.581389,0 -0.773086,0.07668 -1.288969,0.515619 l -0.349185,0.297102 -1.059335,-0.01895 c -1.324555,-0.0237 -1.712798,0.113351 -2.112514,0.745719 -0.240649,0.380716 -0.321218,0.437074 -0.707584,0.494952 -0.239805,0.03592 -0.467285,0.114356 -0.505514,0.174292 -0.149007,0.23364 -0.05973,0.832637 0.211405,1.418429 0.15609,0.337235 0.283801,0.692579 0.283801,0.789654 0,0.09708 0.05678,0.26047 0.126181,0.363099 0.145059,0.214519 0.295092,0.592108 0.195827,0.492843 -0.03652,-0.03652 -0.114507,-0.162928 -0.17332,-0.280917 -0.05881,-0.117989 -0.23339,-0.272972 -0.387957,-0.344405 -0.15457,-0.07143 -0.436772,-0.278474 -0.627122,-0.46009 -0.310469,-0.296229 -0.336527,-0.357623 -0.253223,-0.596598 0.05108,-0.146513 0.07911,-0.386459 0.06229,-0.533214 -0.02435,-0.212472 -0.07857,-0.267195 -0.26617,-0.268645 -0.206897,-0.0016 -0.243041,-0.0539 -0.296755,-0.429386 -0.06357,-0.44444 -0.487361,-1.176997 -0.680897,-1.176997 -0.112587,0 -0.142585,0.207977 -0.161499,1.119746 -0.01666,0.802739 0.578496,1.907239 1.500023,2.783783 0.233209,0.221826 0.399206,0.42813 0.368882,0.458452 -0.104238,0.10424 -1.157084,-0.532975 -1.741841,-1.054218 -0.322015,-0.287036 -0.787852,-0.797503 -1.035197,-1.134372 -0.247349,-0.336868 -0.505368,-0.612487 -0.573376,-0.612487 -0.181693,0 -0.152375,0.147463 0.112844,0.567601 0.130075,0.206053 0.236502,0.397386 0.236502,0.425183 0,0.0278 -0.266063,-0.08371 -0.591253,-0.247793 -0.804457,-0.405917 -1.827888,-1.450175 -2.213546,-2.258595 -0.708492,-1.485145 -0.667217,-2.62362 0.122698,-3.384319 0.23097,-0.222426 0.396302,-0.442664 0.367406,-0.489418 -0.118759,-0.192157 -1.072272,-0.421631 -1.7651,-0.424792 -0.642274,-0.0029 -0.791624,0.03292 -1.360355,0.326564 -0.444703,0.229605 -0.7285747,0.45507 -0.9340197,0.741848 -0.2895503,0.404178 -0.295153,0.432698 -0.2954427,1.503502 l -2.824e-4,1.091509 -0.3424308,0.216719 c -0.8089939,0.511994 -1.2178958,1.335954 -1.2178958,2.454109 0,0.849519 0.1604265,1.387714 0.6686614,2.2432 0.65924,1.109661 1.868665,2.18551 3.489049,3.103691 1.133032,0.642025 3.038049,1.222559 4.025211,1.226637 0.747264,0.0031 0.923601,0.07649 0.853619,0.355308 -0.04857,0.193517 -0.03079,0.224719 0.09957,0.174698 0.08728,-0.03349 0.21177,-0.01685 0.276639,0.03699 0.08604,0.0714 0.158217,0.03643 0.266782,-0.129259 0.165796,-0.253041 0.689166,-0.480701 0.777286,-0.338114 0.03025,0.04892 -0.05224,0.08895 -0.18328,0.08895 -0.137365,0 -0.338659,0.108282 -0.47537,0.255719 -0.176205,0.190028 -0.333581,0.258139 -0.612634,0.265139 -0.36246,0.0091 -0.373673,1.89e-4 -0.322487,-0.255718 0.05077,-0.253877 0.03746,-0.26517 -0.313548,-0.265854 -1.212983,-0.0024 -3.403757,-0.648681 -4.576287,-1.350085 -0.442213,-0.264576 -0.93177,-0.574081 -1.08786,-0.68781 C 9.9652433,24.058324 9.2534337,23.33328 8.8722737,22.83672 Z M 33.600922,15.023462 c 0.03214,-0.05203 0.01337,-0.0946 -0.04172,-0.0946 -0.0551,0 -0.100184,0.04257 -0.100184,0.0946 0,0.05203 0.01877,0.0946 0.04172,0.0946 0.02296,0 0.06803,-0.04257 0.100184,-0.0946 z m 0.114053,-0.380065 c -0.02767,-0.105815 0.01459,-0.255362 0.09483,-0.335606 0.204337,-0.204336 0.06682,-0.295134 -0.149918,-0.09899 -0.149,0.134845 -0.160888,0.200124 -0.07153,0.39285 0.13016,0.280725 0.194679,0.301996 0.12662,0.04174 z m 0.268237,-1.139833 c 0.08706,-0.140873 -0.01387,-0.217466 -0.195008,-0.147961 -0.08359,0.03207 -0.12548,0.101189 -0.0931,0.153587 0.07668,0.124072 0.209549,0.121477 0.288105,-0.0056 z M 17.102066,26.622699 c -0.07738,-0.09323 -0.08139,-0.155097 -0.0128,-0.197481 0.05492,-0.03395 0.126105,0.0067 0.158181,0.09026 0.07986,0.20811 -0.0079,0.27285 -0.145371,0.107223 z m 8.923896,-0.241191 c -0.67145,-0.106156 -1.028848,-0.298053 -1.790464,-0.961345 -0.86299,-0.75158 -1.751981,-1.387193 -2.119239,-1.51522 -0.333575,-0.116285 -0.409242,-0.322289 -0.08022,-0.218397 0.334554,0.105638 1.502583,0.92357 2.213678,1.550164 0.871078,0.767568 1.23406,0.931721 2.229449,1.008232 0.916922,0.07048 1.564495,-0.05554 1.837924,-0.357679 0.174238,-0.192535 0.434395,-1.771496 0.554855,-3.367582 0.112108,-1.485471 -0.275474,-2.743012 -1.056869,-3.429086 -0.589783,-0.517837 -1.100224,-0.69108 -2.017557,-0.684754 l -0.805222,0.0056 -0.496182,-0.457664 -0.496182,-0.457664 0.243806,-0.191778 c 0.163433,-0.128556 0.327006,-0.175203 0.496182,-0.141499 0.14119,0.02813 0.377409,-0.01502 0.536177,-0.09794 0.280529,-0.146508 1.389692,-0.205528 1.798358,-0.09569 0.235417,0.06327 0.744939,0.845901 1.319989,2.027516 0.240552,0.494286 0.482016,0.978905 0.536584,1.076931 0.06843,0.122924 0.06876,0.197051 0.0011,0.23889 -0.06519,0.04029 -0.06888,0.186908 -0.01098,0.436673 0.148259,0.639481 0.100913,2.269367 -0.105157,3.62019 -0.108265,0.709684 -0.239616,1.370254 -0.291889,1.467933 -0.23023,0.430185 -1.487262,0.704031 -2.498111,0.544216 z m -4.657339,-1.874533 c -1.205789,-0.878996 -1.616304,-1.214296 -1.621281,-1.324243 -0.01001,-0.221378 0.156905,-0.118662 1.140273,0.701632 0.540582,0.450934 1.000613,0.834065 1.022294,0.851402 0.02167,0.01734 0.0182,0.05273 -0.0077,0.07866 -0.02592,0.02593 -0.266031,-0.112426 -0.533559,-0.307451 z M 38.2389,20.798232 c -0.06508,-0.105306 0.400017,-0.437207 0.488573,-0.348651 0.06551,0.06551 -0.239354,0.439096 -0.35832,0.439096 -0.0409,0 -0.09951,-0.0407 -0.130253,-0.09045 z m -1.705371,-4.166566 c 0.03214,-0.05203 0.119809,-0.0946 0.194782,-0.0946 0.07497,0 0.136318,0.04257 0.136318,0.0946 0,0.05203 -0.08765,0.0946 -0.194783,0.0946 -0.107131,0 -0.168475,-0.04257 -0.136317,-0.0946 z"
   id="path1215" />&#10;        <path
   style="fill:#e38549;fill-opacity:1;stroke-width:0.0946001"
   d="m 11.137869,45.77374 c -1.088673,-0.656928 -1.4835977,-1.061878 -2.4874372,-1.846366 2.2242972,0.363305 5.1739202,0.299555 8.2481462,-0.01149 3.63207,-0.367482 7.204981,-1.246659 9.819555,-2.416274 1.680726,-0.751861 3.202953,-1.926137 3.604639,-2.78069 0.566955,-1.206146 -0.04039,-2.356857 -1.623147,-3.075306 -0.340156,-0.154404 -0.640916,-0.184254 -1.962621,-0.19479 -1.249416,-0.01 -1.475953,-0.0305 -1.135203,-0.102925 0.24642,-0.05237 0.96355,-0.06208 1.702805,-0.02304 0.702406,0.03709 1.419579,0.06089 1.593717,0.05288 0.653348,-0.03003 1.983413,0.878267 2.451109,1.67387 0.221534,0.37685 0.259137,0.545176 0.257099,1.15091 -0.0032,0.909886 -0.293926,1.499542 -1.169752,2.371332 -2.363585,2.352692 -7.448275,4.206195 -13.348999,4.86606 -1.548485,0.173164 -4.289081,0.408263 -5.949911,0.335829 z M 9.3305611,41.258326 C 8.35542,41.22203 8.9096756,41.594035 7.3321155,41.373555 L 5.9633438,41.188456 5.5847114,40.74096 c -0.4501601,-0.532033 -0.4197393,-0.575338 0.3028754,-0.371691 4.4565562,1.255941 9.7692652,0.56967 13.8489982,-0.866783 2.202076,-0.775339 3.238357,-1.65431 2.901232,-2.460819 -0.151474,-0.362374 -0.252033,-0.453184 -0.926554,-0.836739 l -0.508375,-0.289078 0.409242,0.0567 c 0.602598,0.08349 1.502097,0.56935 1.722112,0.930195 0.344622,0.565205 0.163333,1.258227 -0.464532,1.775804 -1.614198,1.330652 -5.352166,2.278828 -10.038941,2.546487 -1.584336,0.09048 -1.886489,0.09335 -3.5002079,0.03329 z M 48.353159,30.013145 c -2.339537,-0.539699 -7.674748,-0.680831 -9.919707,-0.262406 -0.813731,0.151668 0.174789,-0.26315 3.071763,-1.289019 3.481948,-1.23302 5.091826,-1.824274 6.942543,-2.549766 0.676391,-0.265149 1.309363,-0.482174 1.406604,-0.482278 0.165303,-1.89e-4 0.172311,0.05979 0.107789,0.922164 -0.07591,1.014486 -0.259649,2.314466 -0.451275,3.192758 -0.143693,0.658601 -0.212731,0.686542 -1.157717,0.468547 z"
   id="path1211" />&#10;        <path
   style="fill:#80bd98;fill-opacity:1;stroke-width:0.0946001"
   d="m 18.699711,49.184512 c 0.129155,-0.03596 0.476928,-0.0264 0.772824,0.02125 6.727885,0.06941 16.219433,-3.512406 20.252932,-7.917057 0.567344,-0.83545 0.762624,-1.474573 0.712342,-2.331369 -0.04316,-0.735386 -0.236258,-1.242486 -0.710158,-1.86494 -0.329723,-0.433084 -1.469828,-1.274564 -2.261081,-1.668844 -0.695498,-0.346566 -2.992273,-1.097412 -3.91296,-1.279201 -1.631099,-0.322057 -4.24065,-0.590527 -5.061114,-0.520686 -0.312182,0.02657 -0.620814,0.05265 -0.685852,0.05795 -0.06504,0.0053 -0.11825,0.04205 -0.11825,0.08166 0,0.03962 0.244778,0.09949 0.54395,0.133048 1.657961,0.185993 2.889368,0.35772 3.476559,0.484826 0.693332,0.150082 2.632409,0.742704 2.897314,0.885478 0.08465,0.04562 0.318782,0.110864 0.520298,0.144982 1.212937,0.252409 2.164644,1.745438 2.388317,2.818856 0.479677,2.15263 -1.553637,4.443891 -5.84327,6.584543 -1.17827,0.587989 -3.253878,1.410121 -4.715859,1.867913 -0.471933,0.215052 -0.987876,0.318365 -1.490426,0.446482 -2.525382,0.652012 -4.202664,0.931971 -8.018648,1.338411 -0.30009,0.03196 -0.629869,0.125064 -0.599831,0.173668 -1.258065,-0.450124 -2.112806,-0.796898 -3.304957,-1.416341 l 0.970112,-0.06462 c 6.391769,-0.425755 12.329837,-1.785767 16.249909,-4.455042 1.47389,-1.003607 2.462464,-2.119345 2.893047,-3.265188 0.246874,-0.656967 0.222114,-1.658072 -0.05523,-2.233066 -0.393703,-0.816235 -1.430416,-1.582588 -2.759505,-2.039861 -0.642517,-0.221059 -2.449042,-0.585349 -2.657683,-0.535929 -0.110181,0.0261 -0.07104,0.05955 0.120789,0.103218 0.718356,0.163534 1.040089,0.304888 1.07181,0.470908 0.03018,0.158018 0.01495,0.155829 -0.164516,-0.02365 -0.108787,-0.108785 -0.293573,-0.198029 -0.410644,-0.198319 -0.117067,-2.84e-4 -0.374105,-0.04531 -0.571198,-0.100041 -0.3116,-0.08653 -0.388733,-0.168217 -0.591253,-0.626145 -0.160248,-0.362359 -0.232897,-0.697952 -0.232897,-1.075858 0.02473,-0.371918 -0.148734,-0.590711 0.260149,-0.476667 0.143082,0.03991 1.005128,0.08053 1.915654,0.09026 6.17505,0.06603 10.880596,1.509797 12.613138,3.869987 1.34822,1.836644 1.274344,3.903368 -0.226719,6.342511 -0.54631,0.887726 -1.193726,1.458714 -2.973695,2.622653 -3.218213,2.104421 -6.798858,3.483187 -10.706659,4.122716 -3.26771,0.403998 -7.290733,0.189147 -9.586739,-0.568496 z M 7.9265192,39.759429 C 6.568391,39.605617 6.7140367,39.336065 5.4366457,38.997174 4.9423587,38.86604 4.2534609,38.711057 4.0568295,38.659062 3.684913,38.103795 3.5438691,37.829041 3.0047339,36.854466 c 1.6236341,0.987545 1.4600436,1.353919 2.8783164,1.673265 1.6981491,0.36502 2.9461679,0.469678 5.5814157,0.468054 2.607423,-0.0016 4.096895,-0.156141 6.007114,-0.623242 1.391162,-0.340177 2.270406,-0.839811 2.270406,-1.290168 0,-0.307791 -0.362843,-0.679259 -0.663484,-0.679259 -0.149242,0 -0.295532,-0.03912 -0.325086,-0.08695 -0.134033,-0.21687 -1.710467,-0.434726 -4.489118,-0.620375 -1.165662,-0.07788 -2.271868,-0.132856 -2.302903,-0.16655 -0.08936,-0.09703 5.371837,0.0034 6.303054,0.122062 0.876109,0.111596 2.099607,0.439156 2.592632,0.694109 0.388643,0.200976 0.682309,0.594617 0.682309,0.9146 0,0.924894 -2.133942,1.834157 -5.560303,2.369221 -1.688896,0.26374 -6.2257027,0.33709 -8.0525678,0.130191 z M 24.755797,34.616923 c 0,-0.04953 0.05321,-0.111637 0.11825,-0.138027 0.606706,-0.246179 -3.029232,-0.339972 -6.219964,-0.160451 -0.780451,0.04391 -1.452649,0.04816 -1.493773,0.0095 -0.06915,-0.0651 0.632663,-0.168831 2.675045,-0.395385 0.442933,-0.04913 1.842626,-0.127068 3.110428,-0.173187 1.407548,-0.0512 2.344753,-0.123514 2.406952,-0.185711 0.07274,-0.07274 -0.491506,-0.08783 -1.973995,-0.05279 -1.374064,0.03248 -2.00622,0.01817 -1.869881,-0.04233 3.646315,-0.485622 7.199809,-1.159723 3.84359,0.435054 -0.120039,0.165626 -0.218249,0.366336 -0.218249,0.446022 0,0.07969 -0.08514,0.19045 -0.189202,0.246142 -0.1119,0.05989 -0.189201,0.06447 -0.189201,0.01121 z m 9.128926,-3.77245 c 0.09231,-0.08954 0.619785,-0.201985 2.743405,-0.584841 2.105527,-0.379593 5.991282,-0.475776 9.885725,-0.244697 0.904516,0.07965 2.7743,0.532086 2.820298,0.836177 0.03264,0.272858 -0.919808,3.169131 -1.071839,3.356433 -1.887414,-4.770383 -18.094843,-2.451171 -14.377589,-3.363072 z"
   id="path1213" /></g></g></svg>
