<?xml version="1.0" encoding="UTF-8" standalone="no"?>
<svg
        width="500"
        height="500"
        viewBox="0 0 132.29166 132.29167"
        version="1.1"
        id="svg635"
        xml:space="preserve"
        xmlns:xlink="http://www.w3.org/1999/xlink"
        xmlns="http://www.w3.org/2000/svg">
    <defs
            id="defs632"><linearGradient
       id="linearGradient14447"><stop
         style="stop-color:#bcf5d5;stop-opacity:1;"
         offset="0.1175551"
         id="stop16633" /><stop
            style="stop-color:#70aecc;stop-opacity:1;"
            offset="0.39099202"
            id="stop29757"/><stop
            style="stop-color:#c6deed;stop-opacity:1;"
            offset="0.67645293"
            id="stop17361"/><stop
            style="stop-color:#ffd4e3;stop-opacity:1;"
            offset="0.89178365"
            id="stop20271"/></linearGradient>
        <linearGradient
                id="linearGradient11233"><stop
         style="stop-color:#dc719a;stop-opacity:1;"
         offset="0.16032064"
         id="stop11229" />
            <stop
                    style="stop-color:#fe95ae;stop-opacity:1;"
                    offset="0.51803607"
                    id="stop13376"/>
            <stop
                    style="stop-color:#fdf7f0;stop-opacity:1;"
                    offset="1"
                    id="stop11231"/></linearGradient>
        <linearGradient
                id="linearGradient3778"><stop
         style="stop-color:#ea6c9e;stop-opacity:1;"
         offset="0.38476956"
         id="stop3774" />
            <stop
                    style="stop-color:#feb0c8;stop-opacity:1;"
                    offset="0.80460918"
                    id="stop8681"/>
            <stop
                    style="stop-color:#fdedde;stop-opacity:1;"
                    offset="1"
                    id="stop3776"/></linearGradient>
        <filter
                y="-0.1960436"
                height="1.3920872"
                style="color-interpolation-filters:sRGB"
                id="filter3896"
                x="-0.1960436"
                width="1.3920872"><feGaussianBlur
         stdDeviation="5"
         result="result6"
         id="feGaussianBlur3886" />
            <feComposite
                    result="result8"
                    in="SourceGraphic"
                    operator="atop"
                    in2="result6"
                    id="feComposite3888"/>
            <feComposite
                    result="result9"
                    operator="over"
                    in2="SourceAlpha"
                    in="result8"
                    id="feComposite3890"/>
            <feColorMatrix
                    values="1 0 0 0 0 0 1 0 0 0 0 0 1 0 0 0 0 0 1 0 "
                    result="result10"
                    id="feColorMatrix3892"/>
            <feBlend
                    in="result10"
                    mode="normal"
                    in2="result6"
                    id="feBlend3894"/></filter>
        <linearGradient
                xlink:href="#linearGradient14447"
                id="linearGradient14449"
                x1="264.58331"
                y1="191.82292"
                x2="132.29166"
                y2="59.531258"
                gradientUnits="userSpaceOnUse"
                gradientTransform="translate(-132.29167,-59.531261)"/>
        <radialGradient
                xlink:href="#linearGradient3778"
                id="radialGradient467"
                gradientUnits="userSpaceOnUse"
                gradientTransform="matrix(1.1490556,-0.01647774,0.01623538,1.1321542,-164.24442,-73.710011)"
                cx="200.13557"
                cy="130.6666"
                fx="200.13557"
                fy="130.6666"
                r="55.989567"/>
        <radialGradient
                xlink:href="#linearGradient3778"
                id="radialGradient469"
                gradientUnits="userSpaceOnUse"
                gradientTransform="matrix(1.1490556,-0.01647774,0.01623538,1.1321542,-164.24442,-73.710011)"
                cx="200.13557"
                cy="130.6666"
                fx="200.13557"
                fy="130.6666"
                r="55.989567"/>
        <radialGradient
                xlink:href="#linearGradient3778"
                id="radialGradient471"
                gradientUnits="userSpaceOnUse"
                gradientTransform="matrix(1.1490556,-0.01647774,0.01623538,1.1321542,-164.24442,-73.710011)"
                cx="200.13557"
                cy="130.6666"
                fx="200.13557"
                fy="130.6666"
                r="55.989567"/>
        <radialGradient
                xlink:href="#linearGradient3778"
                id="radialGradient473"
                gradientUnits="userSpaceOnUse"
                gradientTransform="matrix(1.1490556,-0.01647774,0.01623538,1.1321542,-164.24442,-73.710011)"
                cx="200.13557"
                cy="130.6666"
                fx="200.13557"
                fy="130.6666"
                r="55.989567"/>
        <radialGradient
                xlink:href="#linearGradient3778"
                id="radialGradient475"
                gradientUnits="userSpaceOnUse"
                gradientTransform="matrix(1.1490556,-0.01647774,0.01623538,1.1321542,-164.24442,-73.710011)"
                cx="200.13557"
                cy="130.6666"
                fx="200.13557"
                fy="130.6666"
                r="55.989567"/>
        <radialGradient
                xlink:href="#linearGradient3778"
                id="radialGradient477"
                gradientUnits="userSpaceOnUse"
                gradientTransform="matrix(1.1490556,-0.01647774,0.01623538,1.1321542,-164.24442,-73.710011)"
                cx="200.13557"
                cy="130.6666"
                fx="200.13557"
                fy="130.6666"
                r="55.989567"/>
        <radialGradient
                xlink:href="#linearGradient3778"
                id="radialGradient479"
                gradientUnits="userSpaceOnUse"
                gradientTransform="matrix(1.1490556,-0.01647774,0.01623538,1.1321542,-164.24442,-73.710011)"
                cx="200.13557"
                cy="130.6666"
                fx="200.13557"
                fy="130.6666"
                r="55.989567"/>
        <radialGradient
                xlink:href="#linearGradient3778"
                id="radialGradient481"
                gradientUnits="userSpaceOnUse"
                gradientTransform="matrix(1.1490556,-0.01647774,0.01623538,1.1321542,-164.24442,-73.710011)"
                cx="200.13557"
                cy="130.6666"
                fx="200.13557"
                fy="130.6666"
                r="55.989567"/>
        <radialGradient
                xlink:href="#linearGradient3778"
                id="radialGradient483"
                gradientUnits="userSpaceOnUse"
                gradientTransform="matrix(1.1490556,-0.01647774,0.01623538,1.1321542,-164.24442,-73.710011)"
                cx="200.13557"
                cy="130.6666"
                fx="200.13557"
                fy="130.6666"
                r="55.989567"/>
        <radialGradient
                xlink:href="#linearGradient3778"
                id="radialGradient485"
                gradientUnits="userSpaceOnUse"
                gradientTransform="matrix(1.1490556,-0.01647774,0.01623538,1.1321542,-164.24442,-73.710011)"
                cx="200.13557"
                cy="130.6666"
                fx="200.13557"
                fy="130.6666"
                r="55.989567"/>
        <radialGradient
                xlink:href="#linearGradient3778"
                id="radialGradient487"
                gradientUnits="userSpaceOnUse"
                gradientTransform="matrix(1.1490556,-0.01647774,0.01623538,1.1321542,-164.24442,-73.710011)"
                cx="200.13557"
                cy="130.6666"
                fx="200.13557"
                fy="130.6666"
                r="55.989567"/>
        <radialGradient
                xlink:href="#linearGradient3778"
                id="radialGradient489"
                gradientUnits="userSpaceOnUse"
                gradientTransform="matrix(1.1490556,-0.01647774,0.01623538,1.1321542,-164.24442,-73.710011)"
                cx="200.13557"
                cy="130.6666"
                fx="200.13557"
                fy="130.6666"
                r="55.989567"/>
        <radialGradient
                xlink:href="#linearGradient3778"
                id="radialGradient491"
                gradientUnits="userSpaceOnUse"
                gradientTransform="matrix(1.1490556,-0.01647774,0.01623538,1.1321542,-164.24442,-73.710011)"
                cx="200.13557"
                cy="130.6666"
                fx="200.13557"
                fy="130.6666"
                r="55.989567"/>
        <radialGradient
                xlink:href="#linearGradient3778"
                id="radialGradient493"
                gradientUnits="userSpaceOnUse"
                gradientTransform="matrix(1.1490556,-0.01647774,0.01623538,1.1321542,-164.24442,-73.710011)"
                cx="200.13557"
                cy="130.6666"
                fx="200.13557"
                fy="130.6666"
                r="55.989567"/>
        <radialGradient
                xlink:href="#linearGradient3778"
                id="radialGradient495"
                gradientUnits="userSpaceOnUse"
                gradientTransform="matrix(1.1490556,-0.01647774,0.01623538,1.1321542,-164.24442,-73.710011)"
                cx="200.13557"
                cy="130.6666"
                fx="200.13557"
                fy="130.6666"
                r="55.989567"/>
        <radialGradient
                xlink:href="#linearGradient3778"
                id="radialGradient497"
                gradientUnits="userSpaceOnUse"
                gradientTransform="matrix(1.1490556,-0.01647774,0.01623538,1.1321542,-164.24442,-73.710011)"
                cx="200.13557"
                cy="130.6666"
                fx="200.13557"
                fy="130.6666"
                r="55.989567"/>
        <radialGradient
                xlink:href="#linearGradient3778"
                id="radialGradient499"
                gradientUnits="userSpaceOnUse"
                gradientTransform="matrix(1.1490556,-0.01647774,0.01623538,1.1321542,-164.24442,-73.710011)"
                cx="200.13557"
                cy="130.6666"
                fx="200.13557"
                fy="130.6666"
                r="55.989567"/>
        <radialGradient
                xlink:href="#linearGradient3778"
                id="radialGradient501"
                gradientUnits="userSpaceOnUse"
                gradientTransform="matrix(1.1490556,-0.01647774,0.01623538,1.1321542,-164.24442,-73.710011)"
                cx="200.13557"
                cy="130.6666"
                fx="200.13557"
                fy="130.6666"
                r="55.989567"/>
        <radialGradient
                xlink:href="#linearGradient3778"
                id="radialGradient503"
                gradientUnits="userSpaceOnUse"
                gradientTransform="matrix(1.1490556,-0.01647774,0.01623538,1.1321542,-164.24442,-73.710011)"
                cx="200.13557"
                cy="130.6666"
                fx="200.13557"
                fy="130.6666"
                r="55.989567"/>
        <radialGradient
                xlink:href="#linearGradient3778"
                id="radialGradient505"
                gradientUnits="userSpaceOnUse"
                gradientTransform="matrix(1.1490556,-0.01647774,0.01623538,1.1321542,-164.24442,-73.710011)"
                cx="200.13557"
                cy="130.6666"
                fx="200.13557"
                fy="130.6666"
                r="55.989567"/>
        <radialGradient
                xlink:href="#linearGradient3778"
                id="radialGradient507"
                gradientUnits="userSpaceOnUse"
                gradientTransform="matrix(1.1490556,-0.01647774,0.01623538,1.1321542,-164.24442,-73.710011)"
                cx="200.13557"
                cy="130.6666"
                fx="200.13557"
                fy="130.6666"
                r="55.989567"/>
        <radialGradient
                xlink:href="#linearGradient3778"
                id="radialGradient509"
                gradientUnits="userSpaceOnUse"
                gradientTransform="matrix(1.1490556,-0.01647774,0.01623538,1.1321542,-164.24442,-73.710011)"
                cx="200.13557"
                cy="130.6666"
                fx="200.13557"
                fy="130.6666"
                r="55.989567"/>
        <radialGradient
                xlink:href="#linearGradient3778"
                id="radialGradient511"
                gradientUnits="userSpaceOnUse"
                gradientTransform="matrix(1.1490556,-0.01647774,0.01623538,1.1321542,-164.24442,-73.710011)"
                cx="200.13557"
                cy="130.6666"
                fx="200.13557"
                fy="130.6666"
                r="55.989567"/>
        <radialGradient
                xlink:href="#linearGradient3778"
                id="radialGradient513"
                gradientUnits="userSpaceOnUse"
                gradientTransform="matrix(1.1490556,-0.01647774,0.01623538,1.1321542,-164.24442,-73.710011)"
                cx="200.13557"
                cy="130.6666"
                fx="200.13557"
                fy="130.6666"
                r="55.989567"/>
        <radialGradient
                xlink:href="#linearGradient3778"
                id="radialGradient515"
                gradientUnits="userSpaceOnUse"
                gradientTransform="matrix(1.1490556,-0.01647774,0.01623538,1.1321542,-164.24442,-73.710011)"
                cx="200.13557"
                cy="130.6666"
                fx="200.13557"
                fy="130.6666"
                r="55.989567"/>
        <radialGradient
                xlink:href="#linearGradient3778"
                id="radialGradient517"
                gradientUnits="userSpaceOnUse"
                gradientTransform="matrix(1.1490556,-0.01647774,0.01623538,1.1321542,-164.24442,-73.710011)"
                cx="200.13557"
                cy="130.6666"
                fx="200.13557"
                fy="130.6666"
                r="55.989567"/>
        <radialGradient
                xlink:href="#linearGradient3778"
                id="radialGradient519"
                gradientUnits="userSpaceOnUse"
                gradientTransform="matrix(1.1490556,-0.01647774,0.01623538,1.1321542,-164.24442,-73.710011)"
                cx="200.13557"
                cy="130.6666"
                fx="200.13557"
                fy="130.6666"
                r="55.989567"/>
        <radialGradient
                xlink:href="#linearGradient3778"
                id="radialGradient521"
                gradientUnits="userSpaceOnUse"
                gradientTransform="matrix(1.1490556,-0.01647774,0.01623538,1.1321542,-164.24442,-73.710011)"
                cx="200.13557"
                cy="130.6666"
                fx="200.13557"
                fy="130.6666"
                r="55.989567"/>
        <radialGradient
                xlink:href="#linearGradient3778"
                id="radialGradient523"
                gradientUnits="userSpaceOnUse"
                gradientTransform="matrix(1.1490556,-0.01647774,0.01623538,1.1321542,-164.24442,-73.710011)"
                cx="200.13557"
                cy="130.6666"
                fx="200.13557"
                fy="130.6666"
                r="55.989567"/>
        <radialGradient
                xlink:href="#linearGradient3778"
                id="radialGradient525"
                gradientUnits="userSpaceOnUse"
                gradientTransform="matrix(1.1490556,-0.01647774,0.01623538,1.1321542,-164.24442,-73.710011)"
                cx="200.13557"
                cy="130.6666"
                fx="200.13557"
                fy="130.6666"
                r="55.989567"/>
        <radialGradient
                xlink:href="#linearGradient11233"
                id="radialGradient527"
                gradientUnits="userSpaceOnUse"
                gradientTransform="matrix(1,0,0,0.96562361,-132.29167,-54.711872)"
                cx="218.8143"
                cy="140.19473"
                fx="218.8143"
                fy="140.19473"
                r="17.991117"/>
        <radialGradient
                xlink:href="#linearGradient11233"
                id="radialGradient529"
                gradientUnits="userSpaceOnUse"
                gradientTransform="matrix(1,0,0,0.96562361,-132.29167,-54.711872)"
                cx="218.8143"
                cy="140.19473"
                fx="218.8143"
                fy="140.19473"
                r="17.991117"/>
        <radialGradient
                xlink:href="#linearGradient11233"
                id="radialGradient531"
                gradientUnits="userSpaceOnUse"
                gradientTransform="matrix(1,0,0,0.96562361,-132.29167,-54.711872)"
                cx="218.8143"
                cy="140.19473"
                fx="218.8143"
                fy="140.19473"
                r="17.991117"/>
        <radialGradient
                xlink:href="#linearGradient11233"
                id="radialGradient533"
                gradientUnits="userSpaceOnUse"
                gradientTransform="matrix(1,0,0,0.96562361,-132.29167,-54.711872)"
                cx="218.8143"
                cy="140.19473"
                fx="218.8143"
                fy="140.19473"
                r="17.991117"/>
        <radialGradient
                xlink:href="#linearGradient11233"
                id="radialGradient535"
                gradientUnits="userSpaceOnUse"
                gradientTransform="matrix(1,0,0,0.96562361,-132.29167,-54.711872)"
                cx="218.8143"
                cy="140.19473"
                fx="218.8143"
                fy="140.19473"
                r="17.991117"/>
        <radialGradient
                xlink:href="#linearGradient11233"
                id="radialGradient537"
                gradientUnits="userSpaceOnUse"
                gradientTransform="matrix(1,0,0,1.0085633,-132.29167,-60.419312)"
                cx="233.50929"
                cy="103.70376"
                fx="233.50929"
                fy="103.70376"
                r="15.033118"/>
        <radialGradient
                xlink:href="#linearGradient11233"
                id="radialGradient539"
                gradientUnits="userSpaceOnUse"
                gradientTransform="matrix(1,0,0,1.0085633,-132.29167,-60.419312)"
                cx="233.50929"
                cy="103.70376"
                fx="233.50929"
                fy="103.70376"
                r="15.033118"/>
        <radialGradient
                xlink:href="#linearGradient11233"
                id="radialGradient541"
                gradientUnits="userSpaceOnUse"
                gradientTransform="matrix(1,0,0,1.0085633,-132.29167,-60.419312)"
                cx="233.50929"
                cy="103.70376"
                fx="233.50929"
                fy="103.70376"
                r="15.033118"/>
        <radialGradient
                xlink:href="#linearGradient11233"
                id="radialGradient543"
                gradientUnits="userSpaceOnUse"
                gradientTransform="matrix(1,0,0,1.0085633,-132.29167,-60.419312)"
                cx="233.50929"
                cy="103.70376"
                fx="233.50929"
                fy="103.70376"
                r="15.033118"/>
        <radialGradient
                xlink:href="#linearGradient11233"
                id="radialGradient545"
                gradientUnits="userSpaceOnUse"
                gradientTransform="matrix(1,0,0,1.0085633,-132.29167,-60.419312)"
                cx="233.50929"
                cy="103.70376"
                fx="233.50929"
                fy="103.70376"
                r="15.033118"/>
        <radialGradient
                xlink:href="#linearGradient11233"
                id="radialGradient547"
                gradientUnits="userSpaceOnUse"
                gradientTransform="matrix(1,0,0,1.0293658,-132.29167,-63.258679)"
                cx="188.42654"
                cy="126.93045"
                fx="188.42654"
                fy="126.93045"
                r="11.709027"/>
        <radialGradient
                xlink:href="#linearGradient11233"
                id="radialGradient549"
                gradientUnits="userSpaceOnUse"
                gradientTransform="matrix(1,0,0,1.0293658,-132.29167,-63.258679)"
                cx="188.42654"
                cy="126.93045"
                fx="188.42654"
                fy="126.93045"
                r="11.709027"/>
        <radialGradient
                xlink:href="#linearGradient11233"
                id="radialGradient551"
                gradientUnits="userSpaceOnUse"
                gradientTransform="matrix(1,0,0,1.0293658,-132.29167,-63.258679)"
                cx="188.42654"
                cy="126.93045"
                fx="188.42654"
                fy="126.93045"
                r="11.709027"/>
        <radialGradient
                xlink:href="#linearGradient11233"
                id="radialGradient553"
                gradientUnits="userSpaceOnUse"
                gradientTransform="matrix(1,0,0,1.0293658,-132.29167,-63.258679)"
                cx="188.42654"
                cy="126.93045"
                fx="188.42654"
                fy="126.93045"
                r="11.709027"/>
        <radialGradient
                xlink:href="#linearGradient11233"
                id="radialGradient555"
                gradientUnits="userSpaceOnUse"
                gradientTransform="matrix(1,0,0,1.0293658,-132.29167,-63.258679)"
                cx="188.42654"
                cy="126.93045"
                fx="188.42654"
                fy="126.93045"
                r="11.709027"/></defs>
    <circle
            style="fill:url(#linearGradient14449);fill-opacity:1;stroke-width:0.350021"
            id="path13280"
            cx="66.145828"
            cy="66.145836"
            r="66.145836"/>
    <path
            id="circle708"
            style="fill:#182034;fill-opacity:1;stroke-width:0.350021"
            d="m 74.43886,79.065449 c -1.33768,-0.0128 -2.8652,0.14461 -4.53719,0.5209 -14.18435,3.19224 -40.1526,12.72006 -58.47395,22.305611 0,0 -0.27015,0.16033 -0.64389,0.38551 a 66.145836,66.145836 0 0 0 5.87975,7.70444 c 0.57087,-0.4336 0.94937,-0.69036 1.03663,-0.65423 20.4246,-15.401131 51.21965,-20.286861 59.7085,-24.465691 5.05572,-2.48879 2.82676,-5.74098 -2.96985,-5.79654 z"/>
    <path
            id="path13384"
            style="fill:#182034;fill-opacity:1;stroke-width:5.29167;stroke-dasharray:none"
            d="m 115.55263,22.172279 -0.0904,5.585706 c 1.15662,26.748124 -22.46954,47.931544 -18.88825,44.553354 4.40888,-4.15885 1.91052,8.999 4.73046,5.6689 18.26247,-21.56633 20.41043,-41.449036 20.45095,-47.644634 a 66.145836,66.145836 0 0 0 -6.20276,-8.163326 z"/>
    <path
            style="display:inline;fill:#182034;fill-opacity:1;stroke-width:5.29167"
            d="m 67.14901,80.247359 c 2.96537,-0.0621 5.19068,-0.51378 4.45671,-0.97829 -0.6683,-0.42295 -2.57447,-1.94705 -3.15769,-2.27161 -0.78185,-0.4351 -1.46184,-0.9816 -2.10205,-1.26401 -1.00772,-0.44452 -1.6533,-1.3566 -2.35119,-1.51091 -0.6035,-0.13344 -2.54661,-2.26417 -2.95348,-2.25572 -0.23407,0.005 -0.77199,2.58583 -0.94946,2.61948 -0.3152,0.0598 -0.546,0.15451 -0.70973,0.24703 -0.24876,0.14056 1.54825,1.66644 1.54825,1.66644"
            id="path13376"/>
    <path
            style="display:inline;fill:#182034;fill-opacity:1;stroke-width:5.29167;stroke-dasharray:none"
            d="m 53.08735,109.38405 c 0.94735,-0.57504 -1.88611,4.75841 -4.74358,5.0445 -13.37075,1.33867 -6.13152,-4.07196 -3.10611,-6.78746 2.9193,-2.62026 9.40863,-2.58991 9.72098,-2.77411 9.94133,-5.862521 24.65277,-13.848411 25.38325,-16.050811 0.60606,-1.82724 2.065,1.15178 2.06473,1.89335 -3.9e-4,1.02361 -3.08085,3.21235 -3.08085,3.21235"
            id="path13380"/>
    <path
            style="fill:#182034;fill-opacity:1;stroke-width:5.29167;stroke-dasharray:none"
            d="m 71.53936,100.45689 c 0.40523,-0.585211 -0.88386,6.16584 -0.51906,5.88867 0.7834,-0.59521 1.49941,-0.77177 2.259,-1.78201 0.37622,-0.50036 0.98516,-1.16766 1.31651,-1.75158 0.73434,-1.29411 1.26646,-3.410271 2.21798,-4.999661 1.60188,-2.67576 3.4915,-4.61555 2.919,-4.19175 -0.40702,0.30131 -5.3328,3.21139 -5.3328,3.21139"
            id="path13382"/>
    <path
            style="fill:#182034;fill-opacity:1;stroke-width:5.29167;stroke-dasharray:none"
            d="m 91.02529,85.282909 c 0.5588,0.44385 1.79244,-0.10683 2.28689,0.31452 1.22386,1.04293 1.98072,2.33214 2.84787,3.24128 1.1883,1.24583 2.38307,2.19543 3.29416,2.84519 1.96822,1.40365 3.66049,1.11771 5.89386,2.91255 1.07815,0.86644 3.02388,2.71645 3.02275,7.095411 -2.3e-4,0.8754 0.23015,1.31649 -0.14953,1.36193 -8.83119,1.05706 -9.27538,-5.777461 -9.46228,-6.604591 -0.57435,-2.54176 -4.70551,-6.52566 -4.70551,-6.52566"
            id="path13386"/>
    <path
            style="fill:#182034;fill-opacity:1;stroke-width:5.29167"
            d="m 102.37123,31.404469 c 4.78457,1.553565 1.96785,-0.326128 2.48321,-1.886565 0.22743,-0.688614 -1.7686,-1.420417 -2.33805,-1.711486 -1.36779,-0.699131 -2.21326,-1.082951 -2.87521,-1.697917 -0.45034,-0.41837 -0.66455,-2.683549 -0.82962,-3.178339 -0.416,-1.246929 -0.66263,-2.082086 -1.28069,-1.960708 -2.35758,0.462994 -4.71808,0.518106 -5.20374,0.408368 -2.05802,-0.465019 1.94267,4.501157 1.94267,4.501157"
            id="path13388"/>
    <path
            style="fill:#182034;fill-opacity:1;stroke-width:5.29167"
            d="m 104.11331,74.516799 c 0.14275,-1.36903 1.20881,-2.49291 2.01219,-2.68353 0.72409,-0.1718 2.14882,-0.199 4.392,-0.28215 0.44599,-0.0165 1.57604,0.35204 2.09331,-0.0733 0.60106,-0.49426 0.55118,-1.24125 0.84111,-1.8473 0.37868,-0.79154 2.03831,-1.69413 2.46214,-1.88352 0.83706,-0.37404 1.20927,-0.43228 1.59775,-0.51067 0.77804,-0.157 1.90957,-0.17832 2.28796,0.38006 0.30303,0.44719 1.41522,2.67559 -2.46799,5.6099 -1.95615,1.47814 -3.74578,1.22958 -3.74578,1.22958"
            id="path13390"/>
    <path
            style="fill:#182034;fill-opacity:1;stroke-width:5.29167"
            d="m 56.41263,83.371389 c 4.5418,-0.89411 8.93373,-1.6161 7.07357,-2.14032 -1.25169,-0.35275 -8.50788,-1.76082 -9.67136,-2.07138 -4.56077,-0.58231 -10.14041,-1.25736 -13.14993,-1.91422 -0.67921,-1.87766 -3.29586,0.0813 -7.19298,-1.51035 -0.62995,-0.0586 -2.96101,-1.77909 -3.92057,-2.47142 -1.37539,-0.99235 -4.69416,-2.33493 -5.23437,-5.81312 -0.22389,-1.44152 -2.28766,-4.51527 -3.03455,-4.73845 -0.50252,-0.15017 -3.86908,-2.63332 -3.39629,-1.30113 0.32782,0.9237 -0.34381,5.9727 1.49425,6.33254 2.46185,0.48196 4.61635,3.53276 4.28177,3.55314 -0.7035,0.0429 -3.59343,1.86105 -4.40123,0.12433 -0.65339,-1.40471 -2.88934,-2.34137 -4.36039,-2.48897 -2.6098,-0.26185 -4.33054,1.1982 -5.11701,1.64318 -1.52484,0.86275 4.72743,4.6249 5.59722,4.441 10.34046,-2.18634 11.46144,-0.24915 13.56624,1.48635 3.40031,2.8037 8.38775,3.62623 8.38775,3.62623"
            id="path13392"/>
    <path
            style="fill:#182034;fill-opacity:1;stroke-width:5.29167"
            d="m 37.43626,76.414849 c 1.66095,2.22071 3.71264,1.86212 3.22865,0.83062 -0.33111,-0.70566 -2.17971,-4.75176 -2.48716,-5.37237 -0.43746,-0.88309 -0.43411,-1.37693 -0.82497,-2.10116 -0.34469,-0.6387 -0.36565,-0.9962 -0.6752,-1.52282 -0.29144,-0.49582 -0.4563,-1.52834 -0.71748,-1.93406 -0.33017,-0.51289 -0.66434,-1.93064 -0.94768,-2.31582 -0.02,-0.0272 -0.28715,-0.82629 -0.7311,-2.32816 -0.36563,-1.23689 -0.85121,-2.95049 -1.41754,-5.10229 -0.79015,-3.00225 0.74799,-3.60226 0.68145,-4.3389 -0.12194,-1.34985 -0.0318,-2.66424 -0.24255,-3.55923 -0.19232,-0.8169 -1.31968,-2.04886 -1.48093,-2.50361 -0.10627,-0.2997 -2.01043,2.78163 -2.24723,3.76899 -0.26827,1.1186 0.41473,3.70169 0.46171,3.90391 0.0642,0.27641 0.96478,4.15232 0.96478,4.15232 0.13869,0.59693 -0.31214,0.49336 -0.59451,0.003 -1.52603,-2.64943 -3.25621,-4.46259 -3.37074,-4.59526 -0.17419,-0.20177 -2.08154,-3.06399 -4.21261,-5.77717 -0.63343,-0.80646 -1.17696,-1.90152 -1.67005,-2.525 -0.70861,-0.896 -1.25381,-1.17355 -1.31133,-1.22473 -0.0781,-0.0695 -4.56239,-2.46564 -5.59323,-1.84085 -0.75298,0.45638 1.84131,3.86066 1.88007,4.33579 0.0889,1.08997 3.93907,1.81614 3.84979,1.76595 -0.43598,-0.24505 11.68339,15.11486 11.68339,15.11486"
            id="path13394"/>
    <path
            style="fill:#182034;fill-opacity:1;stroke-width:0.264583"
            d="m 85.87341,68.549139 c -1.92906,4.09256 -7.11759,-5.7176 -7.77768,-7.24019 -0.12716,-0.29331 -2.01444,-3.80765 -2.22316,-4.01446 -1.88882,-1.87158 -0.15841,-1.91069 -8.4005,-5.30934 -0.63544,-0.26202 -19.68042,-8.21536 -19.99927,-8.11625 -1.35977,0.42266 -1.59963,1.12159 -3.84136,1.37972 -1.78431,0.20547 -3.99563,-0.44115 -5.74113,-0.76734 -1.36958,-0.25594 -2.31758,-2.45137 -3.01849,-2.76662 -0.91531,-0.41169 2.47736,-1.81638 3.70033,-2.06766 0.88644,-0.18213 3.68694,-0.16012 4.71394,0.17683 3.41,1.1188 8.21585,4.11565 6.89028,2.21725 -2.83841,-4.06502 -6.48452,-8.588156 -6.87968,-9.271084 -0.40316,-0.696773 -1.11844,-1.186345 -1.58617,-1.354613 -1.22615,-0.441114 -2.73131,-1.840625 -2.55127,-3.024221 0.14402,-0.946734 0.0789,-1.775818 -0.21902,-2.286736 -0.42945,-0.736391 3.9833,0.09049 5.34398,2.409593 1.28297,2.186653 3.62785,6.543658 7.11339,10.760751 1.00899,1.22074 1.82471,3.52291 2.65472,3.87154 3.80394,1.59775 12.44597,5.20269 15.84029,6.21141 0.36381,0.10811 2.85947,1.61408 3.03303,0.88239 0.29909,-1.26093 -1.95984,-5.1777 -2.62442,-5.57468 -1.48885,-0.88936 -0.23145,-6.55432 0.19569,-6.78744 1.23454,-0.67376 4.04577,4.52114 4.09402,5.44019 0.22901,4.36187 1.70628,8.30054 1.70628,8.30054"
            id="path13396"/>
    <path
            style="fill:#182034;fill-opacity:1;stroke-width:0.264583"
            d="m 96.33448,65.422609 c -0.46873,-1.28375 1.95409,9.95559 3.235,11.27593 0.95633,0.98577 0.87583,-7.80446 0.64179,-8.53168 -1.58422,-4.92267 -4.46118,-14.1319 -5.53241,-15.00964 -0.94161,-0.77154 -3.18164,0.6245 -3.18164,0.6245"
            id="path13398"/>
    <path
            style="fill:#182034;fill-opacity:1;stroke-width:0.264583"
            d="m 88.90162,46.152219 c -0.40581,-0.7208 -1.38007,3.62878 -1.85548,2.86564 -0.84603,-1.35808 -3.22577,-5.27293 -3.89779,-6.39523 C 79.09978,35.861348 76.11533,29.576058 73.17252,23.690953 72.67751,22.701019 71.32686,20.919226 70.23872,19.035847 68.69404,16.362275 67.3572,13.32728 66.18815,13.164922 64.81596,12.974353 64.2386,12.368027 63.41263,10.923363 62.60432,9.509579 63.07435,6.746294 63.20072,6.588725 63.39099,6.35147 64.83315,6.2154 66.58494,7.544103 c 0.8385,0.635993 1.68732,1.910752 2.61767,3.101013 1.00827,1.289958 1.60609,4.322063 2.66849,5.894834 2.1713,3.214404 4.02943,7.553671 5.89106,10.466141 2.06249,3.226715 3.5795,6.851611 4.0783,7.288321 0.45185,0.395608 6.03865,10.835297 6.03865,10.835297"
            id="path13400"/>
    <path
            style="fill:#182034;fill-opacity:1;stroke-width:0.264583"
            d="m 72.58732,17.711607 c 0.52845,-0.38753 0.88612,-1.193771 1.37892,-1.578615 0.68039,-0.531338 1.43566,-0.574407 1.60649,-0.443089 0.25588,0.196705 -0.30543,1.85814 -0.47139,2.384733 -0.0909,0.288426 -1.09497,2.149219 -1.09497,2.149219"
            id="path13402"/>
    <path
            style="fill:#182034;fill-opacity:1;stroke-width:0.264583"
            d="m 63.47486,21.786303 c 0.75969,0.140521 2.18767,0.537594 3.03328,0.770903 1.19867,0.330723 2.34415,0.333421 2.50307,-0.110522 0.22553,-0.630012 -0.13618,-2.186729 -0.83866,-3.254081 C 67.50783,18.182626 66.506,17.64282 66.506,17.64282"
            id="path13404"/>
    <path
            style="fill:#182034;fill-opacity:1;stroke-width:0.264583"
            d="m 82.00544,24.396718 c -0.14052,0.759688 -0.53759,2.187675 -0.7709,3.033278 -0.33072,1.198672 -0.33342,2.344149 0.11052,2.503071 0.63001,0.225531 2.18673,-0.13618 3.25408,-0.838658 1.00998,-0.664716 1.54979,-1.66655 1.54979,-1.66655"
            id="path13406"/>
    <path
            style="fill:#182034;fill-opacity:1;stroke-width:0.273557"
            d="m 21.97746,41.437359 c 0.22843,1.24062 1.36361,2.71474 1.85169,3.51794 0.7013,1.15406 1.34531,3.87033 1.5165,3.42978 0.24294,-0.6252 1.63122,-4.30168 2.20345,-5.4709 0.81773,-1.67083 0.0925,-1.26266 0.0925,-1.26266"
            id="path13408"/>
    <path
            style="fill:#182034;fill-opacity:1;stroke-width:0.164277"
            d="m 48.31852,31.861552 c 0.12229,0.463834 0.2775,1.370914 0.37044,1.90757 0.13174,0.76073 0.4336,1.40471 0.725,1.376379 0.41352,-0.0402 1.19193,-0.655624 1.60528,-1.3328 0.39112,-0.640775 0.42893,-1.346341 0.42893,-1.346341"
            id="path13410"/>
    <path
            style="fill:#182034;fill-opacity:1;stroke-width:0.164277"
            d="m 34.59328,56.559119 c 0.12229,0.46383 -0.19443,1.60687 -0.10149,2.14353 0.13174,0.76073 -0.0383,1.91597 0.25307,1.88764 0.41353,-0.0402 2.41108,-1.20621 2.82443,-1.88339 0.39112,-0.64078 0.97951,-2.36885 0.97951,-2.36885"
            id="path13412"/>
    <path
            style="fill:#182034;fill-opacity:1;stroke-width:0.164277"
            d="m 34.8787,69.640079 c -0.46844,0.10321 -1.31948,-0.42686 -2.74937,-0.96774 -0.72211,-0.27316 -2.58015,0.0721 -2.8141,1.20454 -0.24656,1.19342 1.78114,1.95132 2.5727,1.89801 1.65316,-0.11135 3.91188,0.40821 3.91188,0.40821"
            id="path13414"/>
    <path
            style="fill:#182034;fill-opacity:1;stroke-width:0.264583"
            d="m 98.73345,69.040729 c -7.1218,0.23739 -13.99119,-1.98791 -18.35103,0.71655 -5.40459,3.35253 -7.3327,12.00107 -5.5974,15.35121 0.65533,1.26518 6.37022,6.34703 10.23798,7.31235 2.69388,0.67235 3.84372,-2.59619 4.4833,-2.38396 1.19798,0.39754 11.50814,-11.71491 11.50814,-11.71491"
            id="path13416"/>
    <path
            style="fill:#182034;fill-opacity:1;stroke-width:0.264583"
            d="m 92.04781,45.876929 c 1.60872,-1.35697 -0.75186,-4.30697 0.43368,-6.35988 1.28118,-2.21851 6.10302,-3.508175 7.75957,-3.928919 3.16409,-0.803642 7.87103,4.220129 8.71837,5.865779 0.97196,1.88768 -3.07026,8.1629 -3.95304,9.93896 -1.00808,2.02814 -9.49778,1.24835 -9.49778,1.24835"
            id="path13418"/>
    <path
            style="display:inline;fill:#182034;fill-opacity:1;stroke-width:0.264583"
            d="m 61.45114,72.698169 c -0.99567,-2.28114 1.31489,-9.21211 -0.79112,-11.4036 -3.00858,-3.13071 -10.87871,-1.67991 -10.7681,-0.5836 0.10032,0.99429 -4.17924,6.55077 -2.00475,9.62476 2.63246,3.7214 12.7381,5.27266 12.7381,5.27266"
            id="path13420"/>
    <path
            style="display:inline;fill:url(#radialGradient467);fill-opacity:1;stroke-width:0.264583"
            d="m 99.88378,93.866109 c 0.53195,0.48587 4.0714,-0.78136 6.78136,2.90369 1.99878,2.71798 1.78073,5.721581 1.71101,6.619381 -0.0247,0.31855 -5.27385,-0.21935 -7.30436,-2.31156 -1.81913,-1.874391 -1.21751,-6.955891 -1.21751,-6.955891"
            id="path13426"/>
    <path
            style="display:inline;fill:url(#radialGradient469);fill-opacity:1;stroke-width:0.220936"
            d="m 73.00789,100.5055 c -0.35168,0.48808 1.0409,3.30159 -1.75418,5.90488 -2.06156,1.92009 -4.57391,2.02901 -5.32531,2.0578 -0.2666,0.0105 -0.32687,-4.3955 1.21259,-6.28155 1.37919,-1.6897 5.65203,-1.68094 5.65203,-1.68094"
            id="path13428"/>
    <path
            style="display:inline;fill:url(#radialGradient471);fill-opacity:1;stroke-width:0.119833"
            d="m 82.14294,105.60094 c 0.16504,0.28148 1.86614,0.20744 2.54486,2.16484 0.50059,1.44371 0.004,2.71398 -0.14663,3.09307 -0.0532,0.13456 -2.2523,-0.8015 -2.85047,-1.97873 -0.53589,-1.05467 0.40523,-3.17253 0.40523,-3.17253"
            id="path13430"/>
    <path
            style="display:inline;fill:url(#radialGradient473);fill-opacity:1;stroke-width:0.119833"
            d="m 58.50551,109.00809 c 0.13508,0.29703 1.83473,0.39911 2.30761,2.41615 0.34877,1.4877 -0.27658,2.69986 -0.46537,3.06138 -0.0669,0.12834 -2.15745,-1.02988 -2.63081,-2.26261 -0.42408,-1.10439 0.73079,-3.11369 0.73079,-3.11369"
            id="path13432"/>
    <path
            style="display:inline;fill:url(#radialGradient475);fill-opacity:1;stroke-width:0.165851"
            d="m 56.65729,101.01211 c -0.4521,-0.11716 -2.13937,1.52643 -4.79764,0.27861 -1.96064,-0.92037 -2.71537,-2.596601 -2.93835,-3.098851 -0.0793,-0.17814 3.13266,-1.31429 4.92811,-0.73942 1.60853,0.51499 2.74999,3.414021 2.74999,3.414021"
            id="path13434"/>
    <path
            style="display:inline;fill:url(#radialGradient477);fill-opacity:1;stroke-width:0.142313"
            d="m 63.97491,95.243929 c -0.39473,-0.006 -1.45169,1.73284 -3.88446,1.22471 -1.79433,-0.37481 -2.74946,-1.63788 -3.03305,-2.01699 -0.10076,-0.13442 2.3099,-1.75804 3.89945,-1.64159 1.42406,0.10428 2.94139,2.32254 2.94139,2.32254"
            id="path13436"/>
    <path
            style="display:inline;fill:url(#radialGradient479);fill-opacity:1;stroke-width:0.133173"
            d="m 116.44341,82.481159 c -0.34189,0.0584 -1.00698,1.94622 -3.18132,1.84126 -1.60373,-0.0774 -2.60916,-1.16801 -2.90826,-1.49585 -0.10623,-0.11621 1.74486,-2.11091 3.1348,-2.25501 1.24522,-0.12914 2.87266,1.81225 2.87266,1.81225"
            id="path13438"/>
    <path
            style="display:inline;fill:url(#radialGradient481);fill-opacity:1;stroke-width:0.190597"
            d="m 113.1737,72.753509 c 0.36733,-0.3334 -0.32906,-3.08374 2.38598,-4.6398 2.00252,-1.14771 4.08671,-0.63278 4.70942,-0.47557 0.22099,0.0556 -0.43299,3.84907 -2.00064,5.09397 -1.40435,1.11533 -4.91796,0.0733 -4.91796,0.0733"
            id="path13440"/>
    <path
            style="display:inline;fill:url(#radialGradient483);fill-opacity:1;stroke-width:0.264583"
            d="m 97.69631,26.357199 c -0.43682,-0.57291 -4.14547,0.0431 -6.15518,-4.06596 -1.4823,-3.03073 -0.73235,-5.94736 -0.50372,-6.81836 0.0811,-0.30904 5.1503,1.1559 6.77536,3.57654 1.45588,2.16863 -0.0419,7.06151 -0.0419,7.06151"
            id="path13442"/>
    <path
            style="display:inline;fill:url(#radialGradient485);fill-opacity:1;stroke-width:0.216426"
            d="m 82.61258,28.593169 c 0.20033,-0.49175 -2.10834,-2.82016 -0.10872,-5.57894 1.47486,-2.03478 3.98453,-2.50471 4.73634,-2.64184 0.26674,-0.0487 1.73447,3.91126 0.77751,5.8381 -0.85733,1.72625 -5.18757,2.3507 -5.18757,2.3507"
            id="path13444"/>
    <path
            style="display:inline;fill:url(#radialGradient487);fill-opacity:1;stroke-width:0.197688"
            d="m 68.80632,13.493869 c -0.38603,-0.37515 -3.05863,0.48936 -4.99723,-2.32534 -1.42984,-2.07604 -1.19753,-4.31412 -1.1247,-4.98299 0.0258,-0.23732 3.93349,0.28579 5.4015,1.89524 1.31519,1.44188 0.74837,5.22287 0.74837,5.22287"
            id="path13446"/>
    <path
            style="display:inline;fill:url(#radialGradient489);fill-opacity:1;stroke-width:0.173088"
            d="m 68.1492,20.908899 c -0.44062,-0.123 -2.04573,1.754 -4.64711,0.40277 -1.91869,-0.99663 -2.68228,-2.86454 -2.90799,-3.42431 -0.0801,-0.19861 3.01298,-1.53443 4.76493,-0.92263 1.56956,0.5481 2.7313,3.78175 2.7313,3.78175"
            id="path13448"/>
    <path
            style="display:inline;fill:url(#radialGradient491);fill-opacity:1;stroke-width:0.196009"
            d="m 68.45005,37.671249 c -0.3798,-0.37499 -3.03641,0.46118 -4.93642,-2.34469 -1.40139,-2.06955 -1.15352,-4.28674 -1.07607,-4.94934 0.0274,-0.2351 3.89773,0.31418 5.34062,1.92141 1.29268,1.43991 0.70106,5.18425 0.70106,5.18425"
            id="path13450"/>
    <path
            style="display:inline;fill:url(#radialGradient493);fill-opacity:1;stroke-width:0.193806"
            d="m 72.91926,47.610039 c -0.14777,-0.51188 -2.81648,-1.06442 -3.11614,-4.43917 -0.22101,-2.48916 1.03916,-4.3101 1.41864,-4.85266 0.13463,-0.19252 3.18707,2.15958 3.66213,4.2641 0.42561,1.88543 -1.85061,4.87695 -1.85061,4.87695"
            id="path13452"/>
    <path
            style="display:inline;fill:url(#radialGradient495);fill-opacity:1;stroke-width:0.154568"
            d="m 77.19362,50.305639 c 0.20495,-0.37223 -0.99037,-2.1876 0.74164,-4.26159 1.27751,-1.52973 3.01476,-1.84781 3.53465,-1.94032 0.18445,-0.0328 0.58261,3.01462 -0.33479,4.47033 -0.82189,1.30417 -3.79219,1.71069 -3.79219,1.71069"
            id="path13454"/>
    <path
            style="display:inline;fill:url(#radialGradient497);fill-opacity:1;stroke-width:0.224072"
            d="m 75.83113,32.313569 c -0.49937,-0.35681 -3.27009,1.10168 -5.96232,-1.7463 -1.98573,-2.10065 -2.17382,-4.68208 -2.22628,-5.45418 -0.0186,-0.27393 4.38685,-0.37831 6.32206,1.18597 1.73376,1.40143 1.85957,5.79365 1.85957,5.79365"
            id="path13456"/>
    <path
            style="display:inline;fill:url(#radialGradient499);fill-opacity:1;stroke-width:0.108119"
            d="m 65.94323,61.818409 c 0.13634,-0.27376 -0.65887,-1.60889 0.49339,-3.13424 0.8499,-1.12505 2.00565,-1.35899 2.35152,-1.42703 0.12271,-0.0241 0.3876,2.21714 -0.22272,3.28776 -0.54679,0.95916 -2.52286,1.25815 -2.52286,1.25815"
            id="path13458"/>
    <path
            style="display:inline;fill:url(#radialGradient501);fill-opacity:1;stroke-width:0.134674"
            d="m 51.58178,53.339229 c -0.14833,-0.33615 -2.14882,-0.68829 -2.63197,-2.9073 -0.35634,-1.63669 0.42582,-2.8401 0.66181,-3.19868 0.0838,-0.12719 2.50609,1.40723 3.01876,2.78979 0.45929,1.23863 -0.97674,3.2165 -0.97674,3.2165"
            id="path13460"/>
    <path
            style="display:inline;fill:url(#radialGradient503);fill-opacity:1;stroke-width:0.129402"
            d="m 49.27822,34.231549 c 0.0165,-0.31486 -1.7572,-1.17622 -1.16725,-3.11184 0.43516,-1.42766 1.76857,-2.17657 2.16874,-2.39888 0.14199,-0.0788 1.76089,1.86117 1.59874,3.12813 -0.14528,1.13506 -2.48291,2.32259 -2.48291,2.32259"
            id="path13462"/>
    <path
            style="display:inline;fill:url(#radialGradient505);fill-opacity:1;stroke-width:0.187847"
            d="m 44.53386,32.327089 c -0.36399,-0.35937 -2.90997,0.44198 -4.73086,-2.24705 -1.34304,-1.98338 -1.1055,-4.10823 -1.03127,-4.74324 0.0263,-0.22531 3.73543,0.30109 5.11823,1.8414 1.23886,1.37994 0.67187,4.96837 0.67187,4.96837"
            id="path13464"/>
    <path
            style="display:inline;fill:url(#radialGradient507);fill-opacity:1;stroke-width:0.238447"
            d="m 45.9735,42.747499 c -0.64848,0.0322 -2.08308,3.10159 -6.16099,2.49809 -3.00778,-0.44514 -4.79187,-2.49037 -5.32226,-3.1046 -0.18822,-0.21793 3.48644,-3.23633 6.11383,-3.20852 2.35385,0.0249 5.22454,3.63398 5.22454,3.63398"
            id="path13466"/>
    <path
            style="display:inline;fill:url(#radialGradient509);fill-opacity:1;stroke-width:0.208686"
            d="m 25.53722,45.441199 c -0.17195,-0.52062 -3.21219,-1.06495 -3.57843,-4.50209 -0.27012,-2.53517 1.14986,-4.39978 1.57751,-4.95537 0.15172,-0.19714 3.64201,2.17843 4.19826,4.31983 0.49836,1.91846 -2.06876,4.98317 -2.06876,4.98317"
            id="path13468"/>
    <path
            style="display:inline;fill:url(#radialGradient511);fill-opacity:1;stroke-width:0.189613"
            d="m 31.30266,55.244229 c -0.0244,-0.52969 -2.40451,-1.81323 -1.93252,-5.11412 0.34813,-2.43466 1.9366,-3.81241 2.41365,-4.22178 0.16926,-0.14526 2.50777,2.96194 2.48377,5.10214 -0.0215,1.91739 -2.82429,4.12242 -2.82429,4.12242"
            id="path13470"/>
    <path
            style="display:inline;fill:url(#radialGradient513);fill-opacity:1;stroke-width:0.13764"
            d="m 35.37377,58.771449 c 0.10528,-0.31713 -1.44225,-1.80902 -0.30159,-3.59079 0.84134,-1.3142 2.39812,-1.6242 2.86463,-1.71474 0.16548,-0.0321 1.25305,2.51245 0.73251,3.75561 -0.46633,1.11374 -3.16024,1.52869 -3.16024,1.52869"
            id="path13472"/>
    <path
            style="display:inline;fill:url(#radialGradient515);fill-opacity:1;stroke-width:0.208834"
            d="m 21.44303,47.965959 c -0.49567,-0.29015 -2.98566,1.26089 -5.72806,-1.1533 -2.02273,-1.78068 -2.39469,-4.13972 -2.50239,-4.84558 -0.0382,-0.25045 4.08856,-0.68054 6.02327,0.61084 1.73329,1.15695 2.18392,5.18552 2.18392,5.18552"
            id="path13474"/>
    <path
            style="display:inline;fill:url(#radialGradient517);fill-opacity:1;stroke-width:0.232945"
            d="m 24.33359,68.205649 c -0.53712,-0.33316 -3.23531,1.44779 -6.20703,-1.32426 -2.19186,-2.04464 -2.59492,-4.75336 -2.71163,-5.56386 -0.0414,-0.28757 4.43043,-0.78141 6.52692,0.70139 1.87822,1.32845 2.36653,5.95419 2.36653,5.95419"
            id="path13476"/>
    <path
            style="display:inline;fill:url(#radialGradient519);fill-opacity:1;stroke-width:0.232945"
            d="m 19.60298,72.162719 c -0.63056,0.0434 -1.7799,3.06517 -5.81122,2.55157 -2.97343,-0.37886 -4.88306,-2.34176 -5.4513,-2.93136 -0.20163,-0.20919 3.13917,-3.22257 5.70695,-3.24397 2.30047,-0.0192 5.39926,3.44976 5.39926,3.44976"
            id="path13478"/>
    <path
            style="display:inline;fill:url(#radialGradient521);fill-opacity:1;stroke-width:0.201107"
            d="m 31.95645,80.117809 c -0.48994,0.24024 -0.42375,3.03056 -3.8139,3.93405 -2.50053,0.66637 -4.66697,-0.28035 -5.31342,-0.56646 -0.22938,-0.10151 1.45908,-3.59946 3.50484,-4.45357 1.83279,-0.76523 5.4408,0.99784 5.4408,0.99784"
            id="path13480"/>
    <path
            style="display:inline;fill:url(#radialGradient523);fill-opacity:1;stroke-width:0.119833"
            d="m 37.65084,83.252259 c -0.1221,0.3026 0.97545,1.60438 -0.15998,3.33725 -0.83746,1.27811 -2.14672,1.66052 -2.53877,1.77293 -0.13906,0.04 -0.74088,-2.27296 -0.17403,-3.46558 0.50784,-1.06846 2.75962,-1.61669 2.75962,-1.61669"
            id="path13482"/>
    <path
            style="display:inline;fill:url(#radialGradient525);fill-opacity:1;stroke-width:0.296482"
            d="m 39.58104,114.81405 c 0.64956,-0.47554 0.0812,-4.68682 4.70514,-6.82807 3.41048,-1.57932 6.62481,-0.63922 7.58456,-0.3532 0.34064,0.10112 -1.44347,5.78454 -4.18115,7.54456 -2.45267,1.5768 -7.8375,-0.27117 -7.8375,-0.27117"
            id="path13484"/>
    <path
            style="fill:url(#radialGradient527);fill-opacity:1;stroke-width:0.264583"
            d="m 83.34412,79.489199 c -3.52264,-0.92029 -8.26391,-2.46219 -10.09399,-1.04145 -0.5605,0.43513 -4.84318,2.35198 -4.71584,7.60959 0.0134,0.55544 1.02291,0.51098 2.47765,0.48808 0.73546,-0.0116 -0.78933,1.92799 -0.27872,2.56012 1.25645,0.86597 4.6805,0.88745 6.42275,0.71682 2.56118,-0.25083 3.45744,-1.22352 4.63047,-3.05244 0.3468,-0.83247 0.73507,-2.3863 1.33045,-3.39566 0.33095,-0.56104 1.11565,-1.10877 1.1457,-1.47777 0.006,-0.0728 -0.23865,-0.66785 -0.60735,-0.55488 -0.66956,0.20515 -1.76315,0.42857 -2.74937,0.94819 -0.45244,0.23837 -0.24228,0.49214 -0.58722,0.73902 -0.43422,0.31078 -0.80405,0.4194 -1.23706,0.1845 -0.0998,-0.0541 -0.78868,-0.78485 0.11728,-1.35501 0.27484,-0.17297 0.45103,0.16985 0.82387,0.027 0.68007,-0.2606 1.39776,-0.71817 2.08157,-0.99746 0.79266,-0.32374 1.50634,-0.45572 1.5318,-0.52266"
            id="path13486"/>
    <path
            style="fill:url(#radialGradient529);fill-opacity:1;stroke-width:0.272739"
            d="m 85.63566,77.343149 c -0.13829,-3.59617 -0.42919,-8.27207 -2.45682,-9.60212 -0.39586,-0.25967 -0.62245,-1.4637 -2.83301,-2.36923 -1.25719,-0.51499 -3.81456,-1.38498 -5.76353,-0.801 -0.56795,0.17017 -0.5446,0.50156 -0.0725,1.87244 0.23872,0.69307 -1.89546,-0.36772 -2.3891,0.29491 -0.50452,1.43508 0.22322,4.84998 0.93617,6.45122 1.04806,2.35388 2.71558,3.28829 4.96101,3.88054 0.96435,0.0924 2.35077,0.49235 3.57397,0.76997 0.6799,0.15433 1.45819,1.13136 1.84752,1.05523 0.0768,-0.015 0.61428,-0.41526 0.38424,-0.73233 -0.41775,-0.57581 -0.7904,-1.74258 -1.62968,-2.52906 -0.38502,-0.36083 -0.44256,-0.17333 -0.80319,-0.42995 -0.45399,-0.32304 -0.65209,-0.33653 -0.54366,-0.81308 0.0249,-0.10983 0.8989,-1.13607 1.7655,-0.43988 0.26289,0.21119 -0.008,0.66985 0.25402,0.98236 0.47811,0.57004 0.72575,1.00863 1.22425,1.57692 0.57785,0.65874 0.65576,1.35267 0.73255,1.35782"
            id="path13488"/>
    <path
            style="fill:url(#radialGradient531);fill-opacity:1;stroke-width:0.264583"
            d="m 88.01513,78.593989 c 3.44351,-1.18247 6.03136,-2.07574 7.47027,-3.89157 0.95369,-1.2035 3.02792,-3.20342 1.09433,-9.06591 -0.17403,-0.52764 -0.28926,-0.135 -2.19624,-0.25484 -0.73411,-0.0461 0.82956,-1.84608 0.0545,-2.09012 -1.52574,-0.0262 -4.31115,0.67064 -5.66802,1.77675 -1.99464,1.62604 -3.52049,4.42661 -3.48568,6.5991 0.17173,0.88532 0.70803,2.39446 0.77056,3.56467 0.0348,0.65044 -0.31585,1.54087 -0.13671,1.86487 0.0353,0.0639 0.56831,0.42427 0.81292,0.12617 0.44423,-0.54135 1.23157,-1.33254 1.76557,-2.31105 0.24498,-0.44889 -0.0705,-0.544 0.0802,-0.9405 0.18975,-0.49913 0.18208,-0.59758 0.67274,-0.6415 0.11306,-0.0101 0.38333,0.51234 0.77001,1.1936 0.1603,0.28241 -0.33202,-0.0885 -0.56356,0.2367 -0.4223,0.59336 -0.76696,1.37161 -1.18203,1.98259 -0.48115,0.70825 -1.00261,1.21306 -0.98678,1.28292"
            id="path13490"/>
    <path
            style="fill:url(#radialGradient533);fill-opacity:1;stroke-width:0.264583"
            d="m 88.2354,81.094779 c 2.40131,2.73673 4.50568,4.96104 6.64495,5.85057 0.65511,0.2724 3.23718,1.61279 7.9266,-2.4018 0.42206,-0.36132 -0.19347,-1.1114 0.0832,-1.34991 0.55714,-0.48025 1.68911,-0.48957 1.62062,-1.29929 -0.55503,-1.42145 -3.32786,-4.33163 -4.86629,-5.16695 -2.26159,-1.22794 -3.72155,-1.10351 -5.71815,-0.2465 -0.75383,0.495 -2.05759,1.43897 -3.11645,1.9411 -0.58854,0.2791 -1.76788,0.29282 -1.99961,0.58155 -0.0457,0.0569 -0.48263,0.67294 -0.11398,0.78606 0.66948,0.20544 1.92282,0.31363 3.0308,0.43614 0.50829,0.0562 0.94925,-0.1188 1.37329,-0.1299 0.5338,-0.0139 0.96962,0.23399 1.19649,0.67081 0.0523,0.10076 -0.1894,0.43791 -0.67284,1.0543 -0.2004,0.25551 -0.86453,-0.50762 -1.25329,-0.59836 -0.70927,-0.1654 -1.36544,-0.13315 -2.08826,-0.28519 -0.83789,-0.17623 -2.00344,-0.42527 -2.06206,-0.38411"
            id="path13492"/>
    <path
            style="fill:url(#radialGradient535);fill-opacity:1;stroke-width:0.264583"
            d="m 85.52601,82.282799 c -1.80781,3.16035 -3.2275,5.87336 -3.37353,8.18558 -0.0447,0.70808 1.51771,6.62364 6.06165,7.56136 0.54413,0.11229 1.09424,-1.28963 1.41674,-1.46118 0.53201,-0.28298 0.96383,0.99874 1.70734,0.67082 1.16392,-0.98684 2.28641,-2.49308 2.57643,-4.21946 0.42632,-2.53789 -0.35489,-5.15441 -1.81424,-6.76413 -0.71311,-0.55205 -1.5707,-1.45742 -2.38968,-2.29562 -0.45521,-0.46589 -1.6718,-1.68799 -2.02017,-1.81331 -0.0687,-0.0247 -0.79326,-0.23774 -0.78043,0.14766 0.65423,1.42987 0.33418,2.17198 0.71885,3.36987 -0.14976,0.60167 -0.87648,0.59402 -0.87994,0.57083 -0.60499,-0.8425 -0.16051,-1.60006 -0.25162,-2.33305 -0.10564,-0.84969 -0.4062,-1.76745 -0.46418,-1.80951"
            id="path13494"/>
    <path
            style="fill:url(#radialGradient537);fill-opacity:1;stroke-width:0.227536"
            d="m 98.00412,44.682369 c -3.12903,-0.11337 -7.39726,-0.52049 -8.66756,1.01447 -0.38906,0.47011 -3.6252,2.8804 -2.53458,7.26971 0.11522,0.4637 0.95422,0.23751 2.17101,-0.0539 0.61516,-0.14735 -0.30181,1.766 0.24506,2.20106 1.21667,0.49179 4.09477,-0.13084 5.52525,-0.60005 2.10288,-0.68975 2.67318,-1.67391 3.3156,-3.42855 0.13533,-0.76364 0.17051,-2.14055 0.48141,-3.09918 0.17281,-0.53285 0.72899,-1.13943 0.68517,-1.45478 -0.009,-0.0622 -0.32527,-0.51593 -0.61362,-0.35212 -0.52363,0.29748 -1.39977,0.68963 -2.13035,1.31032 -0.33517,0.28474 -0.11129,0.45842 -0.35462,0.73019 -0.30633,0.34211 -0.59644,0.50248 -1.00385,0.38633 -0.0939,-0.0267 -0.80886,-0.51122 -0.15509,-1.15932 0.19833,-0.19661 0.41036,0.0582 0.69659,-0.13148 0.52208,-0.34599 1.03888,-0.86435 1.5606,-1.22673 0.60477,-0.42005 1.17913,-0.66437 1.18797,-0.72532"
            id="path13498"/>
    <path
            style="fill:url(#radialGradient539);fill-opacity:1;stroke-width:0.23455"
            d="m 99.52605,42.452249 c -0.78894,-2.992677 -1.90801,-6.863106 -3.85882,-7.600142 -0.38086,-0.143894 -0.79634,-1.112137 -2.82127,-1.458611 -1.15162,-0.197046 -3.46101,-0.448798 -4.98767,0.406048 -0.44488,0.249103 -0.36328,0.522897 0.28952,1.585248 0.33006,0.537083 -1.65981,0.04599 -1.95018,0.694556 -0.15497,1.298976 1.09483,4.029211 1.99287,5.239861 1.32014,1.77971 2.89466,2.25203 4.89025,2.32902 0.82674,-0.10288 2.06531,-0.0266 3.14398,-0.0224 0.59957,0.002 1.43567,0.67681 1.74822,0.54006 0.0616,-0.027 0.43792,-0.4635 0.1855,-0.6866 -0.45839,-0.40516 -0.9895,-1.3148 -1.84113,-1.81792 -0.39069,-0.23083 -0.4039,-0.0627 -0.75463,-0.21061 -0.44151,-0.18621 -0.61031,-0.16046 -0.60846,-0.58076 3.9e-4,-0.0969 0.54195,-1.121784 1.39961,-0.69956 0.26019,0.128078 0.11854,0.56377 0.39703,0.77704 0.50797,0.38903 0.7979,0.71084 1.32266,1.09457 0.6083,0.44482 0.80353,1.01271 0.86895,1.00267"
            id="path13500"/>
    <path
            style="fill:url(#radialGradient541);fill-opacity:1;stroke-width:0.227536"
            d="m 101.75737,43.056969 c 2.66917,-1.63684 4.67423,-2.870841 5.54227,-4.664242 0.57532,-1.188634 1.94219,-3.25543 -0.77773,-7.814503 -0.2448,-0.410328 -0.26806,-0.05919 -1.89117,0.197024 -0.62482,0.09866 0.35091,-1.70478 -0.34534,-1.7646 -1.28558,0.263484 -3.49322,1.369565 -4.42518,2.55189 -1.37003,1.738076 -2.12679,4.374316 -1.69108,6.191348 0.30979,0.710988 1.04232,1.877385 1.31376,2.847943 0.15087,0.53946 0.0232,1.35247 0.23418,1.59091 0.0416,0.047 0.55641,0.24979 0.70596,-0.0462 0.27158,-0.53752 0.78442,-1.34894 1.04956,-2.270197 0.12165,-0.422628 -0.16095,-0.443434 -0.10862,-0.804451 0.0659,-0.454463 0.041,-0.535665 0.44466,-0.664337 0.093,-0.02963 0.41762,0.358326 0.86966,0.857811 0.1874,0.207056 -0.29525,-0.01216 -0.42875,0.304127 -0.24345,0.57707 -0.38713,1.294807 -0.62122,1.885317 -0.27135,0.68451 -0.6146,1.20581 -0.58824,1.26149"
            id="path13502"/>
    <path
            style="fill:url(#radialGradient543);fill-opacity:1;stroke-width:0.227536"
            d="m 102.41018,45.114869 c 2.52767,1.84786 4.71022,3.32116 6.67231,3.66754 0.60086,0.10608 3.01899,0.74805 6.20405,-3.49914 0.28666,-0.38225 -0.37035,-0.89668 -0.18274,-1.14865 0.37779,-0.50736 1.3262,-0.72698 1.11721,-1.39383 -0.73184,-1.08929 -3.60382,-3.013221 -5.05144,-3.426522 -2.12808,-0.607552 -3.33026,-0.229941 -4.84583,0.862994 -0.54013,0.556538 -1.45786,1.592828 -2.25269,2.212428 -0.44179,0.34439 -1.42913,0.57657 -1.56962,0.86228 -0.0277,0.0563 -0.2792,0.65516 0.0514,0.68113 0.60038,0.0472 1.67265,-0.0965 2.62559,-0.20099 0.43717,-0.0479 0.77456,-0.27733 1.12841,-0.36599 0.44546,-0.11154 0.85766,0.015 1.12983,0.33919 0.0627,0.0748 -0.0771,0.40301 -0.36751,1.01085 -0.12041,0.25197 -0.82065,-0.26432 -1.16395,-0.26775 -0.62629,-0.006 -1.17103,0.14372 -1.8062,0.15135 -0.73628,0.009 -1.76122,0.0179 -1.80272,0.0634"
            id="path13504"/>
    <path
            style="fill:url(#radialGradient545);fill-opacity:1;stroke-width:0.227536"
            d="m 100.35825,46.619009 c -0.92611,2.99099 -1.61016,5.53387 -1.3001,7.50203 0.095,0.60271 2.51326,5.27578 6.50281,5.21268 0.47774,-0.008 0.67719,-1.28723 0.91579,-1.49156 0.39361,-0.33707 0.99588,0.65798 1.55862,0.24362 0.79233,-1.04611 1.45269,-2.52045 1.37312,-4.0238 -0.11702,-2.21002 -1.26231,-4.26011 -2.78845,-5.33822 -0.70186,-0.32996 -1.59111,-0.92945 -2.43537,-1.47978 -0.46927,-0.30588 -1.71912,-1.10406 -2.03498,-1.14407 -0.0623,-0.008 -0.71033,-0.0511 -0.62745,0.26997 0.81669,1.07779 0.68689,1.76059 1.23391,2.6941 -0.0131,0.53305 -0.62455,0.6626 -0.6318,0.64378 -0.66545,-0.59398 -0.4341,-1.31302 -0.64773,-1.91123 -0.24765,-0.69345 -0.67166,-1.40756 -0.72819,-1.43202"
            id="path13506"/>
    <path
            style="fill:url(#radialGradient547);fill-opacity:1;stroke-width:0.176186"
            d="m 55.14146,69.050219 c -0.95249,2.22952 -2.43421,5.20052 -1.67846,6.54551 0.23146,0.41193 1.07278,3.42101 4.54798,3.85412 0.36713,0.0458 0.43711,-0.62344 0.56508,-1.58378 0.0647,-0.48552 1.19216,0.70943 1.65869,0.4353 0.69388,-0.74235 1.04472,-2.99532 1.10366,-4.15955 0.0867,-1.71146 -0.46584,-2.39739 -1.55502,-3.34979 -0.51417,-0.31026 -1.49935,-0.71876 -2.10557,-1.21014 -0.33696,-0.27312 -0.62053,-0.84379 -0.8606,-0.89987 -0.0474,-0.011 -0.46331,0.0915 -0.42517,0.34544 0.0693,0.46115 0.10889,1.20336 0.35413,1.90398 0.1125,0.32142 0.3003,0.20796 0.42898,0.45941 0.16198,0.31654 0.19715,0.57079 -1.3e-4,0.83287 -0.0454,0.0604 -0.59446,0.44226 -0.88088,-0.21047 -0.0869,-0.19802 0.15621,-0.28035 0.0988,-0.53995 -0.10475,-0.47352 -0.33554,-0.99119 -0.45224,-1.46901 -0.13527,-0.55388 -0.15202,-1.03689 -0.1936,-1.06024"
            id="path13510"/>
    <path
            style="fill:url(#radialGradient549);fill-opacity:1;stroke-width:0.181617"
            d="m 53.9534,67.329979 c -2.38205,-0.26254 -5.49021,-0.53074 -6.56556,0.67388 -0.20995,0.23518 -1.0252,0.26602 -1.83896,1.63285 -0.46279,0.77735 -1.28724,2.37609 -1.09427,3.71711 0.0562,0.39079 0.27677,0.408 1.22607,0.23185 0.47993,-0.0891 -0.42857,1.21219 -0.0407,1.60246 0.89554,0.47339 3.21616,0.32989 4.34084,0.0178 1.65333,-0.45879 2.4327,-1.46514 3.04356,-2.88575 0.15568,-0.62604 0.55541,-1.49981 0.85853,-2.27811 0.1685,-0.43261 0.88851,-0.84912 0.87665,-1.11302 -0.002,-0.052 -0.21309,-0.4454 -0.44453,-0.32507 -0.42031,0.21851 -1.22539,0.34921 -1.82589,0.82463 -0.27551,0.21809 -0.15768,0.27442 -0.36215,0.4867 -0.25739,0.26723 -0.28576,0.39637 -0.58895,0.2781 -0.0699,-0.0272 -0.65983,-0.70373 -0.11611,-1.20601 0.16495,-0.15238 0.44037,0.0712 0.67197,-0.0707 0.42244,-0.25882 0.73565,-0.37879 1.15894,-0.65123 0.49067,-0.3158 0.95535,-0.29887 0.9663,-0.34894"
            id="path13512"/>
    <path
            style="fill:url(#radialGradient551);fill-opacity:1;stroke-width:0.176186"
            d="m 55.01118,65.885849 c -0.44017,-2.38417 -0.77401,-4.17638 -1.82843,-5.3026 -0.69885,-0.74644 -1.81204,-2.30919 -5.86322,-1.61219 -0.36462,0.0627 -0.11736,0.17723 -0.3838,1.42139 -0.10255,0.47895 -1.13426,-0.72788 -1.3712,-0.2414 -0.16729,1.00228 0.0178,2.90528 0.61283,3.90768 0.87477,1.47356 2.56919,2.75388 4.00342,2.94457 0.59996,-0.026 1.64662,-0.23086 2.42347,-0.15697 0.4318,0.0411 0.98376,0.35953 1.21477,0.27341 0.0455,-0.0169 0.3353,-0.33257 0.16303,-0.52299 -0.31285,-0.3458 -0.75651,-0.94214 -1.34845,-1.39005 -0.27155,-0.20548 -0.36521,-0.007 -0.61153,-0.14532 -0.31007,-0.17405 -0.37566,-0.17869 -0.35634,-0.50615 0.004,-0.0755 0.37512,-0.20208 0.86182,-0.38977 0.20176,-0.0778 -0.0909,0.20997 0.10048,0.39444 0.34926,0.33648 0.82793,0.63999 1.18951,0.97344 0.41914,0.38653 0.70033,0.77961 0.7479,0.77605"
            id="path13514"/>
    <path
            style="fill:url(#radialGradient553);fill-opacity:1;stroke-width:0.176186"
            d="m 56.67986,65.986689 c 2.03854,-1.3124 3.7104,-2.47963 4.50661,-3.80108 0.24382,-0.40467 1.3805,-1.97343 -0.8024,-5.45665 -0.19646,-0.3135 -0.75099,0.0181 -0.88087,-0.18753 -0.26151,-0.41416 -0.15634,-1.1606 -0.69636,-1.19511 -0.99074,0.22577 -3.18005,1.7658 -3.88147,2.69688 -1.03111,1.36874 -1.09272,2.3425 -0.72462,3.74174 0.25188,0.54515 0.74538,1.49663 0.97197,2.24337 0.12594,0.41506 0.019,1.19312 0.18638,1.37413 0.033,0.0357 0.39575,0.38404 0.5065,0.15237 0.20113,-0.42072 0.39563,-1.23553 0.58526,-1.95321 0.087,-0.32923 0.0151,-0.63686 0.0495,-0.91722 0.0433,-0.35293 0.24945,-0.61559 0.55945,-0.72205 0.0715,-0.0245 0.26978,0.1678 0.6282,0.5468 0.14857,0.15711 -0.41933,0.51947 -0.51732,0.76659 -0.17868,0.45086 -0.22196,0.88618 -0.39317,1.34728 -0.19846,0.53451 -0.47708,1.27766 -0.45574,1.32031"
            id="path13516"/>
    <path
            style="fill:url(#radialGradient555);fill-opacity:1;stroke-width:0.176186"
            d="m 57.19588,67.887919 c 1.90365,1.50139 3.55084,2.70317 5.05931,3.02671 0.46195,0.0991 4.51158,-0.34825 5.57598,-3.24869 0.12746,-0.34733 -0.74175,-0.84749 -0.82303,-1.07675 -0.13405,-0.37821 0.75255,-0.53657 0.60969,-1.05849 -0.53548,-0.8636 -1.41712,-1.75099 -2.5256,-2.11175 -1.62954,-0.53033 -3.4296,-0.27311 -4.63326,0.52973 -0.43371,0.41537 -1.11431,0.89116 -1.74688,1.34812 -0.3516,0.25399 -1.27611,0.93507 -1.3929,1.15218 -0.023,0.0428 -0.23458,0.49907 0.0205,0.52852 1.00604,-0.29028 1.46333,-0.007 2.29009,-0.14208 0.38153,0.1578 0.30503,0.63566 0.28942,0.63566 -0.61436,0.31561 -1.06959,-0.0516 -1.56129,-0.0637 -0.57,-0.014 -1.20399,0.0937 -1.23739,0.12778"
            id="path13518"/></svg>
