<?xml version="1.0" encoding="UTF-8" standalone="no"?>
<svg
        xmlns:dc="http://purl.org/dc/elements/1.1/"
        xmlns:cc="http://creativecommons.org/ns#"
        xmlns:rdf="http://www.w3.org/1999/02/22-rdf-syntax-ns#"
        xmlns="http://www.w3.org/2000/svg"
        xmlns:xlink="http://www.w3.org/1999/xlink"
        xml:space="preserve"
        width="50mm"
        height="50mm"
        viewBox="0 0 50 50"
        version="1.1"
        id="svg8"><metadata
   id="metadata883"><rdf:RDF><cc:Work
       rdf:about=""><dc:format>image/svg+xml</dc:format><dc:type
        rdf:resource="http://purl.org/dc/dcmitype/StillImage"/></cc:Work></rdf:RDF></metadata>
    <defs
            id="defs2"><linearGradient
     id="linearGradient1674"><stop
       id="stop1670"
       offset="0"
       style="stop-color:#3e2300;stop-opacity:1" /><stop
            id="stop1672"
            offset="1"
            style="stop-color:#9e5600;stop-opacity:1"/></linearGradient>
        <linearGradient
                id="linearGradient1666"><stop
       style="stop-color:#bc6001;stop-opacity:1"
       offset="0"
       id="stop1654" />
            <stop
                    id="stop1656"
                    offset="0.22724211"
                    style="stop-color:#ee5015;stop-opacity:1"/>
            <stop
                    style="stop-color:#d45d2a;stop-opacity:1"
                    offset="0.55937076"
                    id="stop1658"/>
            <stop
                    style="stop-color:#ab2504;stop-opacity:1"
                    offset="1"
                    id="stop1664"/></linearGradient>
        <linearGradient
                id="linearGradient1652"><stop
       style="stop-color:#df7e01;stop-opacity:1"
       offset="0"
       id="stop1640" />
            <stop
                    style="stop-color:#f97b29;stop-opacity:1"
                    offset="0.3771469"
                    id="stop1644"/>
            <stop
                    style="stop-color:#f9cd2f;stop-opacity:1"
                    offset="1"
                    id="stop1650"/></linearGradient>
        <linearGradient
                id="linearGradient1582"><stop
       id="stop1578"
       offset="0"
       style="stop-color:#fea12a;stop-opacity:1" />
            <stop
                    style="stop-color:#fdb647;stop-opacity:1"
                    offset="0.22724211"
                    id="stop1588"/>
            <stop
                    id="stop1590"
                    offset="0.3771469"
                    style="stop-color:#fa9350;stop-opacity:1"/>
            <stop
                    style="stop-color:#f25848;stop-opacity:1"
                    offset="0.54888839"
                    id="stop1592"/>
            <stop
                    id="stop1594"
                    offset="0.7313779"
                    style="stop-color:#d83f4d;stop-opacity:1"/>
            <stop
                    id="stop1580"
                    offset="1"
                    style="stop-color:#b51b10;stop-opacity:1"/></linearGradient>
        <linearGradient
                id="linearGradient927"><stop
       id="stop923"
       offset="0"
       style="stop-color:#5d6b32;stop-opacity:1" />
            <stop
                    style="stop-color:#ece1d0;stop-opacity:1"
                    offset="0.39178354"
                    id="stop937"/>
            <stop
                    id="stop925"
                    offset="1"
                    style="stop-color:#afdfe4;stop-opacity:1"/></linearGradient>
        <linearGradient
                id="linearGradient22643"><stop
       id="stop22639"
       offset="0"
       style="stop-color:#375d9f;stop-opacity:1;" />
            <stop
                    id="stop22641"
                    offset="1"
                    style="stop-color:#384870;stop-opacity:1;"/></linearGradient>
        <linearGradient
                id="linearGradient22566"><stop
       id="stop22562"
       offset="0"
       style="stop-color:#f2a491;stop-opacity:1;" />
            <stop
                    id="stop22564"
                    offset="0.41778976"
                    style="stop-color:#8eb3cf;stop-opacity:1;"/></linearGradient>
        <linearGradient
                id="linearGradient17184"><stop
       id="stop17180"
       offset="0.50673854"
       style="stop-color:#ffffff;stop-opacity:1;" />
            <stop
                    id="stop17182"
                    offset="1"
                    style="stop-color:#efe4be;stop-opacity:1;"/></linearGradient>
        <linearGradient
                id="linearGradient7816"><stop
       style="stop-color:#422f2e;stop-opacity:1"
       offset="1"
       id="stop7814" /></linearGradient>
        <linearGradient
                id="linearGradient2455"><stop
       style="stop-color:#fbe8bd;stop-opacity:1;"
       offset="0"
       id="stop2447" />
            <stop
                    id="stop2449"
                    offset="0.39518833"
                    style="stop-color:#d5dbc1;stop-opacity:1;"/>
            <stop
                    id="stop2451"
                    offset="0.65719855"
                    style="stop-color:#94c6c6;stop-opacity:1;"/>
            <stop
                    style="stop-color:#2d7ab8;stop-opacity:1;"
                    offset="1"
                    id="stop2453"/></linearGradient>
        <linearGradient
                id="linearGradient1006"><stop
       style="stop-color:#ffffff;stop-opacity:1"
       offset="0"
       id="stop1002" />
            <stop
                    style="stop-color:#0c9ca6;stop-opacity:1"
                    offset="1"
                    id="stop1004"/></linearGradient>
        <linearGradient
                id="linearGradient998"><stop
       style="stop-color:#fbecfd;stop-opacity:1"
       offset="0"
       id="stop994" />
            <stop
                    id="stop960"
                    offset="0.30084872"
                    style="stop-color:#fbd4f9;stop-opacity:1"/>
            <stop
                    id="stop958"
                    offset="0.48738721"
                    style="stop-color:#f46cec;stop-opacity:1"/>
            <stop
                    style="stop-color:#2b1562;stop-opacity:1"
                    offset="1"
                    id="stop996"/></linearGradient>
        <radialGradient
                xlink:href="#linearGradient998"
                id="radialGradient1000"
                cx="31.438482"
                cy="42.392902"
                fx="31.438482"
                fy="42.392902"
                r="25.000001"
                gradientTransform="matrix(0.00113747,-1.0167601,1.0243894,0.0011489,-11.090646,-1.315701)"
                gradientUnits="userSpaceOnUse"/>
        <radialGradient
                xlink:href="#linearGradient1006"
                id="radialGradient1008"
                cx="21.644688"
                cy="35.676865"
                fx="21.644688"
                fy="35.676865"
                r="24.999975"
                gradientUnits="userSpaceOnUse"
                gradientTransform="matrix(0.00279899,0.6185787,-0.99998976,0.00452483,68.397857,-39.118526)"/>
        <linearGradient
                gradientUnits="userSpaceOnUse"
                y2="1.4757635e-06"
                x2="24.999998"
                y1="32.672649"
                x1="24.669399"
                id="linearGradient5700"
                xlink:href="#linearGradient2455"/>
        <linearGradient
                gradientUnits="userSpaceOnUse"
                y2="29.690369"
                x2="24.806145"
                y1="49.999977"
                x1="25"
                id="linearGradient13724"
                xlink:href="#linearGradient7816"/>
        <linearGradient
                gradientUnits="userSpaceOnUse"
                y2="32.331436"
                x2="37.408257"
                y1="9.6647673"
                x1="23.919428"
                id="linearGradient17186"
                xlink:href="#linearGradient17184"/>
        <linearGradient
                gradientUnits="userSpaceOnUse"
                y2="33.207092"
                x2="26.002991"
                y1="25.681305"
                x1="34.995327"
                id="linearGradient22568"
                xlink:href="#linearGradient22566"/>
        <linearGradient
                gradientUnits="userSpaceOnUse"
                y2="33.688541"
                x2="17.216543"
                y1="17.369226"
                x1="27.734179"
                id="linearGradient22645"
                xlink:href="#linearGradient22643"/>
        <linearGradient
                gradientUnits="userSpaceOnUse"
                y2="0.10423274"
                x2="25.104233"
                y1="49.72488"
                x1="25.198191"
                id="linearGradient935"
                xlink:href="#linearGradient927"/>
        <clipPath
                clipPathUnits="userSpaceOnUse"
                id="clipPath1130"><path
       d="M 0,800 H 800 V 0 H 0 Z"
       id="path1128" /></clipPath>
        <clipPath
                clipPathUnits="userSpaceOnUse"
                id="clipPath1138"><path
       d="M 284.686,41.5688 H 515.314 V 17 H 284.686 Z"
       id="path1136" /></clipPath>
        <clipPath
                clipPathUnits="userSpaceOnUse"
                id="clipPath1278"><path
       d="M 0,800 H 800 V 0 H 0 Z"
       id="path1276" /></clipPath>
        <linearGradient
                y2="-131.90941"
                x2="-211.17578"
                y1="-65.767349"
                x1="-332.87836"
                gradientTransform="matrix(0.25320201,0,0,0.25320201,95.927808,56.293442)"
                gradientUnits="userSpaceOnUse"
                id="linearGradient1598"
                xlink:href="#linearGradient1582"/>
        <linearGradient
                y2="-131.90941"
                x2="-211.17578"
                y1="-65.767349"
                x1="-332.87836"
                gradientTransform="matrix(0.12865911,0,0,0.14262707,74.363162,36.786625)"
                gradientUnits="userSpaceOnUse"
                id="linearGradient1602"
                xlink:href="#linearGradient1652"/>
        <linearGradient
                y2="-131.90941"
                x2="-211.17578"
                y1="-65.767349"
                x1="-332.87836"
                gradientTransform="matrix(0.14287792,0,0,0.15551651,52.603028,39.553815)"
                gradientUnits="userSpaceOnUse"
                id="linearGradient1606"
                xlink:href="#linearGradient1666"/>
        <linearGradient
                gradientUnits="userSpaceOnUse"
                y2="19.577152"
                x2="33.029133"
                y1="54.643715"
                x1="16.955727"
                id="linearGradient1676"
                xlink:href="#linearGradient1674"/></defs>
    <circle
            r="25"
            cy="25"
            cx="25"
            id="path921"
            style="fill:url(#linearGradient935);fill-rule:evenodd;stroke-width:0.340633;fill-opacity:1"/>
    <path
            style="fill:url(#linearGradient1602);fill-opacity:1;stroke-width:0.0358413"
            d="m 38.096439,31.001281 c -0.21322,-0.105505 -0.359437,-0.376785 -0.355579,-0.659709 0.0011,-0.07474 0.104788,-0.818085 0.230595,-1.65189 0.125807,-0.833804 0.213058,-1.504572 0.193885,-1.490595 -0.01918,0.01397 -0.147259,0.107853 -0.284636,0.208617 -0.769651,0.564536 -2.347226,1.120964 -3.482322,1.228256 -0.447733,0.04232 -0.999122,-0.0026 -1.159323,-0.09443 -0.185695,-0.106452 -0.190576,-0.331198 -0.01181,-0.54344 0.118072,-0.140173 0.2223,-0.347321 0.222443,-0.442093 2.59e-4,-0.129182 -0.185311,-0.333242 -0.382919,-0.421208 -0.09824,-0.04374 -0.39309,-0.148213 -0.655206,-0.232171 -0.533122,-0.170763 -0.870671,-0.304113 -1.123353,-0.443777 -0.439517,-0.242934 -1.099567,-0.820124 -1.748697,-1.529171 -0.484266,-0.528965 -0.617157,-0.713288 -0.617157,-0.856013 0,-0.201036 0.103486,-0.250625 1.259519,-0.603545 1.128681,-0.344572 1.27864,-0.412292 1.381409,-0.623836 0.122592,-0.25236 -0.0023,-0.504456 -0.78268,-1.578744 -0.254099,-0.349842 -0.515329,-0.733393 -0.580507,-0.852336 -0.223887,-0.408569 -0.405807,-1.138278 -0.645111,-2.587621 -0.165213,-1.000625 -0.181803,-1.207368 -0.104476,-1.302089 0.03362,-0.04116 0.104089,-0.07484 0.156633,-0.07484 0.05254,0 0.526625,0.179018 1.053509,0.397816 0.52688,0.218798 1.01309,0.40135 1.080461,0.40567 0.115944,0.0074 0.131225,-0.0062 0.285986,-0.256302 0.224717,-0.36308 0.30388,-0.433973 0.484608,-0.433973 0.310701,0 0.805233,0.496393 1.278234,1.28305 0.47502,0.790005 0.858356,1.302029 1.062378,1.419021 0.303136,0.173828 0.560616,-0.06259 0.620719,-0.569945 0.03061,-0.258239 -0.02083,-0.617215 -0.221459,-1.545758 -0.195257,-0.903731 -0.243586,-1.340763 -0.198099,-1.791463 0.05862,-0.580889 0.256171,-0.903414 0.574077,-0.937277 0.09525,-0.01014 0.262511,0.0026 0.371706,0.02826 0.178882,0.04208 0.213517,0.03936 0.349905,-0.02752 0.208083,-0.102035 0.278921,-0.23017 1.048297,-1.896195 0.359432,-0.778321 0.690533,-1.469171 0.735782,-1.535221 0.114621,-0.167316 0.204184,-0.190933 0.309393,-0.08159 0.04682,0.04866 0.396595,0.776222 0.777284,1.616808 0.380685,0.840586 0.73978,1.601007 0.797983,1.689824 0.05821,0.08882 0.158325,0.189237 0.222488,0.223155 0.106661,0.05638 0.137182,0.05668 0.3562,0.0034 0.471481,-0.11469 0.736316,0.05504 0.884839,0.567093 0.07202,0.248296 0.07706,0.317511 0.06037,0.827749 -0.01655,0.505164 -0.03448,0.630278 -0.193776,1.349266 -0.137245,0.619542 -0.17978,0.884771 -0.19493,1.215443 -0.01846,0.403451 -0.01519,0.432446 0.07121,0.628207 0.150241,0.340423 0.3535,0.396411 0.634334,0.174729 0.163149,-0.128783 0.607746,-0.745712 0.969127,-1.344768 0.511651,-0.848167 0.956879,-1.296268 1.287958,-1.296268 0.156275,0 0.317307,0.15131 0.483179,0.454002 0.06664,0.121609 0.15194,0.231938 0.18956,0.245174 0.09208,0.0324 0.40603,-0.0769 1.368207,-0.476335 0.445229,-0.184828 0.852069,-0.336051 0.904091,-0.336051 0.151181,0 0.218183,0.07852 0.216009,0.253141 -0.0039,0.309748 -0.321966,2.163519 -0.482754,2.813227 -0.150478,0.608049 -0.332514,0.98207 -0.739126,1.518647 -0.628566,0.829483 -0.923087,1.284059 -0.995391,1.536335 -0.03369,0.117555 -0.03083,0.161869 0.01786,0.275624 0.0961,0.2245 0.298879,0.314031 1.580373,0.697773 1.064762,0.318841 1.149385,0.37435 1.018332,0.667981 -0.09053,0.202853 -1.060329,1.25317 -1.534522,1.661939 -0.652176,0.562192 -0.961181,0.726354 -1.975084,1.049279 -0.716877,0.228325 -0.914732,0.330325 -0.980098,0.505272 -0.05927,0.158624 -0.02801,0.256736 0.168748,0.5296 0.252201,0.349751 0.216847,0.545597 -0.117039,0.648317 -0.206556,0.06355 -1.002795,0.05337 -1.449445,-0.01854 -1.099706,-0.177061 -2.611833,-0.778421 -3.19011,-1.268705 -0.0983,-0.08334 -0.178716,-0.135921 -0.178716,-0.116854 0,0.01906 0.08563,0.591932 0.190289,1.273035 0.309404,2.013489 0.298537,1.923011 0.252724,2.104402 -0.09431,0.37343 -0.457945,0.572768 -0.766406,0.420135 z"
            id="path1600"/>
    <path
            id="path1604"
            d="m 12.328272,33.245639 c -0.236783,-0.115038 -0.39916,-0.410835 -0.394875,-0.719327 0.0013,-0.08149 0.116368,-0.892017 0.256079,-1.801174 0.13971,-0.909156 0.236604,-1.640541 0.215312,-1.625303 -0.02129,0.01524 -0.163533,0.1176 -0.316092,0.22747 -0.85471,0.615554 -2.6066327,1.222268 -3.8671735,1.339255 -0.497214,0.04615 -1.109539,-0.0029 -1.287445,-0.102963 -0.206218,-0.116073 -0.211638,-0.36113 -0.01312,-0.592551 0.131121,-0.152842 0.246868,-0.378709 0.247026,-0.482047 2.88e-4,-0.140856 -0.20579,-0.363357 -0.425237,-0.459273 -0.109103,-0.04769 -0.436532,-0.161607 -0.727617,-0.253153 -0.59204,-0.186195 -0.966894,-0.331594 -1.2475,-0.483881 -0.488091,-0.264888 -1.221085,-0.894239 -1.941954,-1.667364 -0.537785,-0.576771 -0.685364,-0.777749 -0.685364,-0.933374 0,-0.219203 0.114924,-0.273273 1.398716,-0.658087 1.253418,-0.375712 1.41995,-0.449552 1.534076,-0.680215 0.136139,-0.275165 -0.0024,-0.550043 -0.869178,-1.721416 -0.282181,-0.381458 -0.572281,-0.799671 -0.644662,-0.929364 -0.24863,-0.445492 -0.450656,-1.241145 -0.716405,-2.821468 -0.183472,-1.091053 -0.201896,-1.31648 -0.116022,-1.419759 0.03734,-0.04488 0.115592,-0.08161 0.173942,-0.08161 0.05836,0 0.584825,0.195196 1.169938,0.433768 0.585109,0.238571 1.125052,0.43762 1.199868,0.44233 0.128758,0.0081 0.145728,-0.0068 0.317592,-0.279464 0.249553,-0.395893 0.337464,-0.473193 0.538165,-0.473193 0.345039,0 0.894223,0.541254 1.419498,1.399003 0.527517,0.861399 0.953219,1.419695 1.179788,1.547261 0.336637,0.189537 0.622572,-0.06825 0.689317,-0.621453 0.03399,-0.281577 -0.02314,-0.672994 -0.245933,-1.685451 -0.216836,-0.985402 -0.270505,-1.461929 -0.219992,-1.95336 0.0651,-0.633385 0.284482,-0.985057 0.6375208,-1.02198 0.105771,-0.01105 0.291523,0.0029 0.412787,0.03082 0.1986497,0.04588 0.2371127,0.04291 0.3885737,-0.03001 0.23108,-0.111256 0.309746,-0.25097 1.16415,-2.067557 0.399155,-0.848658 0.766847,-1.601942 0.817097,-1.673962 0.127288,-0.182436 0.22675,-0.208188 0.343586,-0.08896 0.05199,0.05305 0.440425,0.846372 0.863186,1.762922 0.422757,0.916551 0.821537,1.745693 0.886173,1.842535 0.06464,0.09685 0.175822,0.206341 0.247076,0.243324 0.118448,0.06148 0.152342,0.0618 0.395565,0.0038 0.523588,-0.125054 0.81769,0.06002 0.982627,0.618342 0.07998,0.270735 0.08558,0.346206 0.06705,0.902554 -0.01837,0.550817 -0.0383,0.687238 -0.215191,1.471201 -0.152413,0.675532 -0.199649,0.96473 -0.216472,1.325285 -0.0205,0.439912 -0.01686,0.471527 0.07908,0.684979 0.166845,0.371188 0.392566,0.432235 0.704438,0.190519 0.181178,-0.140421 0.67491,-0.813102 1.076229,-1.466297 0.568197,-0.924817 1.062629,-1.413412 1.430296,-1.413412 0.173547,0 0.352376,0.164984 0.536579,0.49503 0.07401,0.132599 0.168732,0.252898 0.210509,0.26733 0.102256,0.03532 0.450902,-0.08385 1.519415,-0.519381 0.494432,-0.201532 0.946236,-0.366421 1.004007,-0.366421 0.167889,0 0.242296,0.08562 0.239882,0.276019 -0.0042,0.33774 -0.357549,2.359038 -0.536106,3.067461 -0.167109,0.662999 -0.369263,1.070822 -0.820811,1.65589 -0.698033,0.904444 -1.025102,1.400101 -1.105397,1.675177 -0.03741,0.128178 -0.03425,0.176496 0.01983,0.300532 0.106723,0.244787 0.331909,0.342411 1.755027,0.760832 1.182436,0.347654 1.27641,0.40818 1.130875,0.728347 -0.100539,0.221185 -1.177513,1.366421 -1.70411,1.812131 -0.724253,0.612998 -1.067407,0.791995 -2.193362,1.144105 -0.796102,0.248958 -1.015825,0.360176 -1.088414,0.550933 -0.06582,0.17296 -0.03111,0.279938 0.187398,0.577462 0.280072,0.381358 0.240812,0.594903 -0.129974,0.706906 -0.229384,0.06929 -1.113619,0.05819 -1.609631,-0.02021 -1.22124,-0.193046 -2.900479,-0.848752 -3.542665,-1.383344 -0.109161,-0.09086 -0.198466,-0.148204 -0.198466,-0.127415 0,0.02079 0.09509,0.645426 0.211319,1.38808 0.343597,2.195452 0.33153,2.0968 0.280653,2.294581 -0.104735,0.407178 -0.508555,0.62453 -0.851105,0.458104 z"
            style="fill:url(#linearGradient1606);fill-opacity:1;stroke-width:0.0394395"/>
    <path
            style="fill:url(#linearGradient1598);fill-opacity:1;stroke-width:0.0669929"
            d="m 24.554638,46.022875 c -0.419617,-0.187296 -0.707375,-0.668895 -0.699783,-1.171163 0.0023,-0.132674 0.206225,-1.452323 0.453813,-2.932555 0.247589,-1.480229 0.4193,-2.671026 0.381566,-2.646214 -0.03775,0.02481 -0.289806,0.19147 -0.560164,0.370354 -1.514679,1.002203 -4.619357,1.990019 -6.853234,2.180488 -0.881143,0.07514 -1.966279,-0.0047 -2.281555,-0.167638 -0.36545,-0.188982 -0.375055,-0.587967 -0.02323,-0.964755 0.232367,-0.248845 0.437486,-0.616589 0.437767,-0.784837 5.11e-4,-0.229332 -0.364694,-0.591594 -0.753586,-0.747758 -0.193348,-0.07764 -0.773604,-0.263118 -1.289451,-0.412169 -1.049187,-0.303149 -1.713488,-0.539881 -2.210768,-0.787825 -0.864972,-0.431273 -2.1639521,-1.455941 -3.4414451,-2.714693 -0.953037,-0.93906 -1.214568,-1.266282 -1.214568,-1.519661 0,-0.356891 0.203663,-0.444926 2.478742,-1.071455 2.2212531,-0.61171 2.5163721,-0.731931 2.7186231,-1.10748 0.241261,-0.448007 -0.0044,-0.895548 -1.540318,-2.802703 -0.5000711,-0.621064 -1.0141731,-1.301974 -1.1424431,-1.51313 -0.440612,-0.725321 -0.798633,-2.020752 -1.269582,-4.593733 -0.325142,-1.776382 -0.35779,-2.143407 -0.20561,-2.311563 0.06616,-0.07306 0.204847,-0.132862 0.308255,-0.132862 0.103409,0 1.0364,0.317805 2.073312,0.70623 1.0369031,0.388428 1.9937681,0.712508 2.1263531,0.720176 0.228181,0.01319 0.258255,-0.01119 0.562823,-0.455007 0.442247,-0.644567 0.59804,-0.770421 0.953713,-0.770421 0.611462,0 1.584703,0.881234 2.515574,2.277766 0.934843,1.402473 1.689249,2.311456 2.090766,2.519149 0.596575,0.308594 1.103298,-0.111117 1.22158,-1.011809 0.06024,-0.458443 -0.041,-1.095724 -0.435833,-2.744142 -0.384266,-1.604369 -0.479379,-2.380221 -0.389862,-3.180336 0.115378,-1.031236 0.504149,-1.603805 1.12979,-1.663922 0.187443,-0.018 0.516624,0.0047 0.731521,0.05016 0.352039,0.07472 0.420202,0.06989 0.688615,-0.04887 0.409501,-0.181127 0.548913,-0.408601 2.063049,-3.36625 0.707365,-1.381733 1.358974,-2.608184 1.448026,-2.725441 0.225575,-0.297031 0.401835,-0.338958 0.608888,-0.14484 0.09215,0.08638 0.7805,1.37801 1.529698,2.870281 0.749192,1.492267 1.455893,2.842223 1.570437,2.999897 0.114549,0.157677 0.311585,0.335948 0.437858,0.396163 0.20991,0.1001 0.269975,0.100618 0.701003,0.006 0.927879,-0.203607 1.449077,0.09771 1.74137,1.006743 0.141733,0.440793 0.151664,0.563671 0.118811,1.469481 -0.03256,0.896808 -0.06785,1.118917 -0.381352,2.395316 -0.2701,1.099858 -0.353808,1.570712 -0.383623,2.157747 -0.03633,0.716232 -0.0299,0.767707 0.140134,1.115236 0.295674,0.604344 0.695689,0.703739 1.248372,0.310193 0.321081,-0.228626 1.19605,-1.323843 1.907249,-2.387332 1.006934,-1.505726 1.883147,-2.301229 2.53471,-2.301229 0.307551,0 0.624464,0.268616 0.950901,0.805977 0.131143,0.215891 0.299018,0.411754 0.373056,0.43525 0.18121,0.05752 0.799069,-0.136521 2.692641,-0.845622 0.876212,-0.328122 1.676876,-0.596585 1.779257,-0.596585 0.297524,0 0.429384,0.139401 0.425106,0.449395 -0.0075,0.549888 -0.633631,3.840837 -0.950063,4.994246 -0.296142,1.079455 -0.654389,1.743443 -1.454604,2.696014 -1.237021,1.472557 -1.816644,2.279557 -1.958938,2.727414 -0.0663,0.208693 -0.06068,0.287363 0.03515,0.489309 0.189129,0.398549 0.588197,0.557491 3.110184,1.238739 2.095461,0.566028 2.261997,0.664571 2.004086,1.185846 -0.17817,0.36012 -2.086735,2.224721 -3.019949,2.950397 -1.283486,0.998045 -1.891611,1.289477 -3.88698,1.862758 -1.410819,0.405339 -1.800199,0.586416 -1.928842,0.896996 -0.116637,0.281601 -0.05513,0.455776 0.332099,0.940185 0.496332,0.620901 0.426759,0.968584 -0.230333,1.150939 -0.406504,0.112821 -1.973508,0.09474 -2.852518,-0.0329 -2.164228,-0.314307 -5.140104,-1.381885 -6.278158,-2.252275 -0.19345,-0.147944 -0.351715,-0.241295 -0.351715,-0.207448 0,0.03384 0.168521,1.050841 0.374492,2.259986 0.608911,3.574491 0.587523,3.413871 0.497363,3.735887 -0.185606,0.662941 -0.90124,1.016821 -1.508291,0.745856 z"
            id="path1596"/>
    <path
            id="path1668"
            d="m 24.554638,46.022875 c -0.419617,-0.187296 -0.707375,-0.668895 -0.699783,-1.171163 0.0023,-0.132674 0.206225,-1.452323 0.453813,-2.932555 0.247589,-1.480229 0.4193,-2.671026 0.381566,-2.646214 l 0.03416,-0.840084 -11.128135,-4.937482 11.139067,4.329971 0.06263,-5.067872 -11.154738,-6.685188 11.166175,6.049566 0.236379,-14.723764 0.09674,14.750983 11.2174,-5.165124 -11.21273,5.800622 0.02558,5.068021 11.935798,-4.607293 -11.931332,5.214967 0.01381,0.820877 c 0,0.03384 0.168521,1.050841 0.374492,2.259986 0.608911,3.574491 0.587523,3.413871 0.497363,3.735887 -0.185606,0.662941 -0.90124,1.016821 -1.508291,0.745856 z"
            style="fill:url(#linearGradient1676);fill-opacity:1;stroke:none;stroke-width:0.0669929;stroke-opacity:1"/></svg>
