<?xml version="1.0" encoding="UTF-8" standalone="no"?>
<svg
        xml:space="preserve"
        width="50mm"
        height="50mm"
        viewBox="0 0 50 50"
        version="1.1"
        id="svg8"
        xmlns:xlink="http://www.w3.org/1999/xlink"
        xmlns="http://www.w3.org/2000/svg">&#10;    <metadata
        id="metadata883">&#10;    </metadata>&#10;
    <defs
            id="defs2"><linearGradient
   id="linearGradient46"><stop
     style="stop-color:#ffa0d4;stop-opacity:1;"
     offset="0"
     id="stop47" /><stop
            style="stop-color:#dd6ba3;stop-opacity:1;"
            offset="1"
            id="stop46"/></linearGradient>
        <linearGradient
                id="linearGradient43"><stop
     style="stop-color:#3c3b41;stop-opacity:1;"
     offset="0"
     id="stop44" />
            <stop
                    style="stop-color:#794f30;stop-opacity:1;"
                    offset="1"
                    id="stop45"/></linearGradient>
        <linearGradient
                id="linearGradient35"><stop
     style="stop-color:#f8e2ed;stop-opacity:1;"
     offset="0"
     id="stop42" />
            <stop
                    style="stop-color:#e4a9c9;stop-opacity:1;"
                    offset="1"
                    id="stop43"/></linearGradient>
        <linearGradient
                id="linearGradient35-1"><stop
     style="stop-color:#fddeef;stop-opacity:1;"
     offset="0"
     id="stop36" />
            <stop
                    style="stop-color:#fffafd;stop-opacity:1;"
                    offset="1"
                    id="stop35"/></linearGradient>
        <linearGradient
                id="linearGradient2"><stop
   id="stop10"
   offset="0"
   style="stop-color:#548a2e;stop-opacity:1;" />
            <stop
                    id="stop11"
                    offset="0.44414601"
                    style="stop-color:#8bbb56;stop-opacity:1;"/>&#10;
            <stop
                    id="stop12"
                    offset="1"
                    style="stop-color:#d5ebb0;stop-opacity:1;"/></linearGradient>
        <linearGradient
                id="linearGradient4"><stop
   style="stop-color:#ffffff;stop-opacity:1"
   offset="0"
   id="stop3" />
            <stop
                    style="stop-color:#9edcfb;stop-opacity:1;"
                    offset="0.84215528"
                    id="stop7"/>&#10;
            <stop
                    style="stop-color:#9ed1fd;stop-opacity:1;"
                    offset="1"
                    id="stop4"/></linearGradient>
        <linearGradient
                id="linearGradient2-1"><stop
   id="stop1"
   offset="0"
   style="stop-color:#4c7d29;stop-opacity:1;" />
            <stop
                    id="stop6"
                    offset="0.44414604"
                    style="stop-color:#6c963d;stop-opacity:1;"/>&#10;
            <stop
                    id="stop2"
                    offset="1"
                    style="stop-color:#587f35;stop-opacity:1;"/></linearGradient>
        <linearGradient
                id="linearGradient1321"><stop
   id="stop1317"
   offset="0"
   style="stop-color:#fffdf9;stop-opacity:1" />&#10;
            <stop
                    id="stop1319"
                    offset="1"
                    style="stop-color:#c1f0fd;stop-opacity:1"/></linearGradient>&#10;
        <linearGradient
                id="linearGradient1285"><stop
   id="stop1277"
   offset="0"
   style="stop-color:#e76c23;stop-opacity:1" />&#10; <stop
                style="stop-color:#db5624;stop-opacity:1"
                offset="0.30084872"
                id="stop1279"/>&#10; <stop
                style="stop-color:#d7502a;stop-opacity:1"
                offset="0.48738721"
                id="stop1281"/>&#10;
            <stop
                    id="stop1283"
                    offset="1"
                    style="stop-color:#ab2d28;stop-opacity:1"/></linearGradient>&#10;
        <linearGradient
                id="linearGradient1265"><stop
   id="stop1257"
   offset="0"
   style="stop-color:#e76b24;stop-opacity:1" />&#10; <stop
                style="stop-color:#eb9423;stop-opacity:1"
                offset="0.3604376"
                id="stop1259"/>&#10; <stop
                style="stop-color:#fdbf47;stop-opacity:1"
                offset="0.67468154"
                id="stop1261"/>&#10;
            <stop
                    id="stop1263"
                    offset="1"
                    style="stop-color:#fecc68;stop-opacity:1"/></linearGradient>&#10;
        <linearGradient
                id="linearGradient1155"><stop
   id="stop1151"
   offset="0"
   style="stop-color:#ffffff;stop-opacity:1" />&#10; <stop
                style="stop-color:#f4dea7;stop-opacity:1"
                offset="0.36173224"
                id="stop1177"/>&#10; <stop
                style="stop-color:#ffffff;stop-opacity:1"
                offset="0.36849755"
                id="stop1175"/>&#10;
            <stop
                    id="stop1153"
                    offset="1"
                    style="stop-color:#fff1c7;stop-opacity:1"/></linearGradient>&#10;
        <linearGradient
                id="linearGradient1046"><stop
   id="stop1038"
   offset="0"
   style="stop-color:#578e99;stop-opacity:1" />&#10; <stop
                style="stop-color:#9bc0c7;stop-opacity:1"
                offset="0.31922862"
                id="stop1040"/>&#10; <stop
                id="stop1021"
                offset="0.34002915"
                style="stop-color:#fefefe;stop-opacity:1"/>&#10; <stop
                id="stop1019"
                offset="0.52491242"
                style="stop-color:#fefefe;stop-opacity:1"/>&#10; <stop
                style="stop-color:#ffc55a;stop-opacity:1"
                offset="0.77182168"
                id="stop1042"/>&#10;
            <stop
                    id="stop1044"
                    offset="1"
                    style="stop-color:#f98e1f;stop-opacity:1"/></linearGradient>&#10;
        <linearGradient
                id="linearGradient1674"><stop
   id="stop1670"
   offset="0"
   style="stop-color:#3e2300;stop-opacity:1" />&#10;
            <stop
                    id="stop1672"
                    offset="1"
                    style="stop-color:#9e5600;stop-opacity:1"/></linearGradient>&#10;
        <linearGradient
                id="linearGradient1666"><stop
   style="stop-color:#bc6001;stop-opacity:1"
   offset="0"
   id="stop1654" />&#10; <stop
                id="stop1656"
                offset="0.22724211"
                style="stop-color:#ee5015;stop-opacity:1"/>&#10; <stop
                style="stop-color:#d45d2a;stop-opacity:1"
                offset="0.55937076"
                id="stop1658"/>&#10;
            <stop
                    style="stop-color:#ab2504;stop-opacity:1"
                    offset="1"
                    id="stop1664"/></linearGradient>&#10;
        <linearGradient
                id="linearGradient1652"><stop
   style="stop-color:#df7e01;stop-opacity:1"
   offset="0"
   id="stop1640" />&#10; <stop
                style="stop-color:#f97b29;stop-opacity:1"
                offset="0.3771469"
                id="stop1644"/>&#10;
            <stop
                    style="stop-color:#f9cd2f;stop-opacity:1"
                    offset="1"
                    id="stop1650"/></linearGradient>&#10;
        <linearGradient
                id="linearGradient1582"><stop
   id="stop1578"
   offset="0"
   style="stop-color:#fea12a;stop-opacity:1" />&#10; <stop
                style="stop-color:#fdb647;stop-opacity:1"
                offset="0.22724211"
                id="stop1588"/>&#10; <stop
                id="stop1590"
                offset="0.3771469"
                style="stop-color:#fa9350;stop-opacity:1"/>&#10; <stop
                style="stop-color:#f25848;stop-opacity:1"
                offset="0.54888839"
                id="stop1592"/>&#10; <stop
                id="stop1594"
                offset="0.7313779"
                style="stop-color:#d83f4d;stop-opacity:1"/>&#10;
            <stop
                    id="stop1580"
                    offset="1"
                    style="stop-color:#b51b10;stop-opacity:1"/></linearGradient>&#10;
        <linearGradient
                id="linearGradient927"><stop
   id="stop923"
   offset="0"
   style="stop-color:#5d6b32;stop-opacity:1" />&#10; <stop
                style="stop-color:#ece1d0;stop-opacity:1"
                offset="0.39178354"
                id="stop937"/>&#10;
            <stop
                    id="stop925"
                    offset="1"
                    style="stop-color:#afdfe4;stop-opacity:1"/></linearGradient>&#10;
        <linearGradient
                id="linearGradient22643"><stop
   id="stop22639"
   offset="0"
   style="stop-color:#375d9f;stop-opacity:1;" />&#10;
            <stop
                    id="stop22641"
                    offset="1"
                    style="stop-color:#384870;stop-opacity:1;"/></linearGradient>&#10;
        <linearGradient
                id="linearGradient22566"><stop
   id="stop22562"
   offset="0"
   style="stop-color:#f2a491;stop-opacity:1;" />&#10;
            <stop
                    id="stop22564"
                    offset="0.41778976"
                    style="stop-color:#8eb3cf;stop-opacity:1;"/></linearGradient>&#10;
        <linearGradient
                id="linearGradient17184"><stop
   id="stop17180"
   offset="0.50673854"
   style="stop-color:#ffffff;stop-opacity:1;" />&#10;
            <stop
                    id="stop17182"
                    offset="1"
                    style="stop-color:#efe4be;stop-opacity:1;"/></linearGradient>&#10;
        <linearGradient
                id="linearGradient7816"><stop
     style="stop-color:#422f2e;stop-opacity:1"
     offset="1"
     id="stop7814" /></linearGradient>&#10;
        <linearGradient
                id="linearGradient2455"><stop
   style="stop-color:#fbe8bd;stop-opacity:1;"
   offset="0"
   id="stop2447" />&#10; <stop
                id="stop2449"
                offset="0.39518833"
                style="stop-color:#d5dbc1;stop-opacity:1;"/>&#10; <stop
                id="stop2451"
                offset="0.65719855"
                style="stop-color:#94c6c6;stop-opacity:1;"/>&#10;
            <stop
                    style="stop-color:#2d7ab8;stop-opacity:1;"
                    offset="1"
                    id="stop2453"/></linearGradient>&#10;
        <linearGradient
                id="linearGradient1006"><stop
   style="stop-color:#ffffff;stop-opacity:1"
   offset="0"
   id="stop1002" />&#10;
            <stop
                    style="stop-color:#0c9ca6;stop-opacity:1"
                    offset="1"
                    id="stop1004"/></linearGradient>&#10;
        <linearGradient
                id="linearGradient998"><stop
   style="stop-color:#fbecfd;stop-opacity:1"
   offset="0"
   id="stop994" />&#10; <stop
                id="stop960"
                offset="0.30084872"
                style="stop-color:#fbd4f9;stop-opacity:1"/>&#10; <stop
                id="stop958"
                offset="0.48738721"
                style="stop-color:#f46cec;stop-opacity:1"/>&#10;
            <stop
                    style="stop-color:#2b1562;stop-opacity:1"
                    offset="1"
                    id="stop996"/></linearGradient>&#10; <radialGradient
                xlink:href="#linearGradient998"
                id="radialGradient1000"
                cx="31.438482"
                cy="42.392902"
                fx="31.438482"
                fy="42.392902"
                r="25.000001"
                gradientTransform="matrix(0.00113747,-1.0167601,1.0243894,0.0011489,-11.090646,-1.315701)"
                gradientUnits="userSpaceOnUse"/>&#10; <radialGradient
                xlink:href="#linearGradient1006"
                id="radialGradient1008"
                cx="21.644688"
                cy="35.676865"
                fx="21.644688"
                fy="35.676865"
                r="24.999975"
                gradientUnits="userSpaceOnUse"
                gradientTransform="matrix(0.00279899,0.6185787,-0.99998976,0.00452483,68.397857,-39.118526)"/>&#10;
        <linearGradient
                gradientUnits="userSpaceOnUse"
                y2="1.4757635e-06"
                x2="24.999998"
                y1="32.672649"
                x1="24.669399"
                id="linearGradient5700"
                xlink:href="#linearGradient2455"/>&#10; <linearGradient
                gradientUnits="userSpaceOnUse"
                y2="29.690369"
                x2="24.806145"
                y1="49.999977"
                x1="25"
                id="linearGradient13724"
                xlink:href="#linearGradient7816"/>&#10; <linearGradient
                gradientUnits="userSpaceOnUse"
                y2="32.331436"
                x2="37.408257"
                y1="9.6647673"
                x1="23.919428"
                id="linearGradient17186"
                xlink:href="#linearGradient17184"/>&#10; <linearGradient
                gradientUnits="userSpaceOnUse"
                y2="33.207092"
                x2="26.002991"
                y1="25.681305"
                x1="34.995327"
                id="linearGradient22568"
                xlink:href="#linearGradient22566"/>&#10; <linearGradient
                gradientUnits="userSpaceOnUse"
                y2="33.688541"
                x2="17.216543"
                y1="17.369226"
                x1="27.734179"
                id="linearGradient22645"
                xlink:href="#linearGradient22643"/>&#10; <linearGradient
                gradientUnits="userSpaceOnUse"
                y2="0.10423274"
                x2="25.104233"
                y1="49.72488"
                x1="25.198191"
                id="linearGradient935"
                xlink:href="#linearGradient927"/>&#10;
        <clipPath
                clipPathUnits="userSpaceOnUse"
                id="clipPath1130"><path
     d="M 0,800 H 800 V 0 H 0 Z"
     id="path1128" /></clipPath>&#10;
        <clipPath
                clipPathUnits="userSpaceOnUse"
                id="clipPath1138"><path
     d="M 284.686,41.5688 H 515.314 V 17 H 284.686 Z"
     id="path1136" /></clipPath>&#10;
        <clipPath
                clipPathUnits="userSpaceOnUse"
                id="clipPath1278"><path
     d="M 0,800 H 800 V 0 H 0 Z"
     id="path1276" /></clipPath>&#10; <linearGradient
                y2="-131.90941"
                x2="-211.17578"
                y1="-65.767349"
                x1="-332.87836"
                gradientTransform="matrix(0.25320201,0,0,0.25320201,95.927808,56.293442)"
                gradientUnits="userSpaceOnUse"
                id="linearGradient1598"
                xlink:href="#linearGradient1582"/>&#10; <linearGradient
                y2="-131.90941"
                x2="-211.17578"
                y1="-65.767349"
                x1="-332.87836"
                gradientTransform="matrix(0.12865911,0,0,0.14262707,74.363162,36.786625)"
                gradientUnits="userSpaceOnUse"
                id="linearGradient1602"
                xlink:href="#linearGradient1652"/>&#10; <linearGradient
                y2="-131.90941"
                x2="-211.17578"
                y1="-65.767349"
                x1="-332.87836"
                gradientTransform="matrix(0.14287792,0,0,0.15551651,52.603028,39.553815)"
                gradientUnits="userSpaceOnUse"
                id="linearGradient1606"
                xlink:href="#linearGradient1666"/>&#10; <linearGradient
                gradientUnits="userSpaceOnUse"
                y2="19.577152"
                x2="33.029133"
                y1="54.643715"
                x1="16.955727"
                id="linearGradient1676"
                xlink:href="#linearGradient1674"/>&#10; <radialGradient
                xlink:href="#linearGradient1265"
                id="radialGradient1255"
                cx="23.352879"
                cy="22.871805"
                fx="23.352879"
                fy="22.871805"
                r="23.67145"
                gradientTransform="matrix(1,0,0,0.86303769,0.1,5.1553571)"
                gradientUnits="userSpaceOnUse"/>&#10; <radialGradient
                xlink:href="#linearGradient1285"
                id="radialGradient1275"
                cx="24.697308"
                cy="18.392132"
                fx="24.697308"
                fy="18.392132"
                r="23.421312"
                gradientTransform="matrix(1,0,0,0.75547236,0.1,8.3975893)"
                gradientUnits="userSpaceOnUse"/>&#10; <linearGradient
                xlink:href="#linearGradient1321"
                id="linearGradient1301"
                x1="50.15641"
                y1="49.881355"
                x2="0.0010701913"
                y2="0.1973808"
                gradientUnits="userSpaceOnUse"/>&#10; &#10; &#10; &#10; &#10; &#10;
        <radialGradient
                xlink:href="#linearGradient4"
                id="radialGradient3"
                cx="24.915762"
                cy="28.959179"
                fx="24.915762"
                fy="28.959179"
                r="25"
                gradientUnits="userSpaceOnUse"
                gradientTransform="matrix(1,0,0,1.1448891,8.0623803e-8,-4.1958703)"/>
        <radialGradient
                xlink:href="#linearGradient2"
                id="radialGradient6"
                cx="25.459032"
                cy="23.922304"
                fx="25.459032"
                fy="23.922304"
                r="22.088179"
                gradientTransform="matrix(2.0372695,0.0032477,-0.00111806,0.70136311,-26.38113,19.652602)"
                gradientUnits="userSpaceOnUse"/>
        <linearGradient
                xlink:href="#linearGradient35"
                id="linearGradient36"
                x1="5.3284249"
                y1="7.4892635"
                x2="44.631962"
                y2="32.741718"
                gradientUnits="userSpaceOnUse"/>
        <linearGradient
                xlink:href="#linearGradient43"
                id="linearGradient45"
                x1="13.418696"
                y1="38.200928"
                x2="35.588284"
                y2="22.554234"
                gradientUnits="userSpaceOnUse"/>
        <radialGradient
                xlink:href="#linearGradient46"
                id="radialGradient47"
                cx="25.253494"
                cy="19.853943"
                fx="25.253494"
                fy="19.853943"
                r="18.552183"
                gradientTransform="matrix(1,0,0,0.604367,0,7.854875)"
                gradientUnits="userSpaceOnUse"/>
        <radialGradient
                xlink:href="#linearGradient35-1"
                id="radialGradient48"
                cx="24.737165"
                cy="26.976995"
                fx="24.737165"
                fy="26.976995"
                r="19.16415"
                gradientTransform="matrix(1.0234256,0.00529526,-0.00455084,0.87954966,-0.45671596,0.19896266)"
                gradientUnits="userSpaceOnUse"/></defs>&#10;&#10;&#10;
    <circle
            r="25"
            cy="25"
            cx="25"
            id="path1293"
            style="fill:url(#radialGradient3);fill-opacity:1;fill-rule:evenodd;stroke-width:0.364389"/>
    <path
            style="fill:url(#radialGradient6);fill-rule:nonzero;stroke:none;stroke-width:0.264583px;stroke-linecap:butt;stroke-linejoin:miter;stroke-opacity:1"
            d="m 47.196901,36.504851 -4.461079,-0.422921 -4.321601,0.617371 -7.32832,-0.905634 c -4.147726,-0.425095 -6.966611,-0.347212 -10.371217,0.09713 -3.984579,0.04621 -7.918942,0.529948 -11.8656935,1.014297 H 4.3216001 3.0134697 C 3.0680239,36.905091 9.0523949,49.993689 25,50 40.947605,50.006311 47.196901,36.504851 47.196901,36.504851 Z"
            id="path5"/>
    <g
            id="g48"
            transform="matrix(1.0609226,0,0,1.0609226,-1.5071535,-1.280526)"><path
     style="fill:url(#linearGradient36);fill-opacity:1;stroke:none;stroke-width:0.264583px;stroke-linecap:butt;stroke-linejoin:miter;stroke-opacity:1"
     d="m 10.158614,30.596779 5.482427,-0.08062 c 0,0 3.889344,-1.582615 5.925858,-2.05591 2.030912,-0.471993 4.210822,-1.364669 6.208043,-0.765929 1.25091,0.375006 1.810993,1.963802 2.983084,2.539656 1.109356,0.545032 2.451829,0.386225 3.628076,0.765926 1.454189,0.469423 2.664597,1.827765 4.192444,1.854351 2.200477,0.03829 5.343203,-0.402682 6.127419,-2.459031 0.593581,-1.556471 -2.6337,-2.863086 -2.220759,-4.476908 0.320687,-1.253284 1.830438,-0.892441 2.006578,-2.174055 0.151429,-1.101814 -1.260337,-1.962711 -1.978382,-2.812027 -1.458708,-1.725385 -1.659638,-2.770535 -2.846322,-4.69318 -0.648765,-1.051118 -0.252248,-2.752893 -1.034598,-3.708756 -1.484747,-1.81404 -4.60646,-3.0002784 -6.786034,-3.8632205 -2.672198,-1.0579827 -5.632551,-1.4762979 -8.505823,-1.4109187 -2.321258,0.052818 -4.554195,0.9126348 -6.812721,1.4512306 -1.207558,0.2879691 -2.62183,0.18787 -3.600691,0.9513837 -1.045573,0.8155489 -1.280477,2.3224449 -1.922048,3.4829319 -0.96615,1.747592 -1.6241008,3.706502 -2.9024609,5.240555 -0.867937,1.041538 -1.8556143,1.520662 -2.4857745,2.721085 -0.5264525,1.002865 -0.573328,2.454049 -0.094024,3.480284 0.612115,1.310596 2.4993744,0.831731 2.7007345,2.264142 0.098448,0.700331 -0.8876807,1.101203 -1.3302945,1.652791 -0.5384889,0.671068 -1.1151847,0.920226 -1.0950399,1.780398 0.028184,1.203425 2.8357542,1.629092 4.3603083,0.315821 z"
     id="path35" />
        <path
                style="fill:url(#linearGradient45);stroke-width:0.976955"
                d="m 14.968534,37.191249 c -0.205953,-0.0094 0.26912,-0.368933 0.457546,-0.461685 1.489493,-0.733196 4.865269,-0.525698 4.865269,-0.525698 0.178515,-0.09184 0.546683,-0.217027 0.818151,-0.278207 0.65695,-0.148051 1.450972,-0.574312 1.68507,-0.904611 0.527741,-0.74461 0.605819,-2.411847 0.158597,-3.386601 -0.502655,-1.095576 -1.740116,-1.589685 -3.125494,-2.14615 L 17.61774,28.600633 c -0.155394,-0.06242 0.283376,-0.178524 0.425065,-0.267786 1.453974,0.675077 3.177513,0.731702 4.51791,1.717001 l 0.419944,0.320666 v -0.245641 l -1.61122,-4.22676 -0.109649,-0.514607 -0.584457,0.03052 -2.68493,0.256181 -0.349627,-0.307908 c -0.08487,-0.07474 0.483215,-0.294119 0.909362,-0.356979 l 2.965079,-0.437377 0.02598,-1.872803 c 0.004,-0.29063 0.418017,-0.314614 0.449508,0.116308 l 0.1701,2.327669 c 0,0 0.461996,1.95003 1.06037,3.035867 l 0.977587,1.773974 c 0.06289,0.114123 0.358369,-0.856061 0.358369,-1.34517 0,-0.701098 -0.706836,-1.907652 -0.911426,-2.984181 -0.06104,-0.321177 -0.243151,-0.776042 0.350434,-0.483313 0.165765,0.314736 1.093396,2.236449 1.120735,2.237565 0.01869,7.57e-4 0.159515,0.2993 0.372768,0.02595 0.850587,-1.090284 2.853378,-4.297103 2.853378,-4.438778 0,-0.0971 0.517435,0.308532 0.428179,0.270366 l -3.257491,6.1666 c 0.827584,-0.04569 1.327936,-0.384798 1.99772,-0.842903 1.130105,-0.775373 3.458608,-2.774849 3.662344,-2.647956 l 0.235426,0.232897 -3.887391,3.143207 c -1.096485,0.886579 -1.725346,2.237516 -1.785627,3.695236 0,0.605991 0.220894,1.509601 0.48515,1.98461 0.450079,0.80903 1.507522,1.28018 2.341078,1.04308 0.344397,-0.09795 0.62894,-0.09852 1.30119,-0.0027 0.219738,0.03136 4.041942,0.386441 5.207852,0.665754 1.344959,0.32221 0.04219,0.571737 0.08317,0.566608 0,0 -15.198585,0.183018 -20.186087,-0.04462 z"
                id="path29"/>
        <path
                style="fill:url(#radialGradient48);stroke-width:0.883081"
                d="m 43.231207,31.100606 c -0.04619,-0.04566 -0.193509,-0.102702 -0.327499,-0.126752 -0.420912,-0.07555 -0.599647,-0.153324 -0.547236,-0.238121 0.04575,-0.07409 -0.07542,-0.119466 -0.246777,-0.0924 -0.03638,0.0057 -0.06623,-0.02803 -0.06623,-0.07508 0,-0.04705 -0.05564,-0.06422 -0.123525,-0.03813 -0.06791,0.02607 -0.14977,0.005 -0.181835,-0.04693 -0.08256,-0.133551 -0.248694,-0.117893 -0.170364,0.01606 0.03551,0.06071 -0.01492,0.04085 -0.112124,-0.04416 -0.203922,-0.178371 -0.38354,-0.20159 -0.38354,-0.04958 0,0.106376 -0.388096,-0.264106 -0.408425,-0.389889 -0.0061,-0.03757 -0.01598,-0.103531 -0.02208,-0.146588 -0.01537,-0.109142 -0.53746,-0.175318 -0.598896,-0.07592 -0.02763,0.0447 -0.135155,0.05636 -0.238953,0.02592 -0.103806,-0.03044 -0.304954,-0.07264 -0.446998,-0.09376 -0.362089,-0.05382 -0.50981,-0.219501 -0.195725,-0.219501 0.139942,0 0.220416,-0.03759 0.189067,-0.0883 -0.03003,-0.04856 0.02853,-0.0883 0.130025,-0.0883 0.101527,0 0.207383,-0.05938 0.235235,-0.131956 0.02781,-0.07257 0.08575,-0.11025 0.128673,-0.08373 0.04293,0.02653 0.05441,-0.01344 0.02543,-0.08882 -0.07242,-0.188632 0.07514,-0.171647 0.343633,0.03957 0.12349,0.09714 0.267936,0.176617 0.320983,0.176617 0.05307,0 0.09645,0.04398 0.09645,0.09775 0,0.05376 0.06323,0.0735 0.140436,0.04387 0.07728,-0.02963 0.186516,-0.0249 0.242849,0.01055 0.05633,0.03543 0.221625,0.07183 0.367334,0.08086 0.655007,0.04064 0.927234,0.142276 0.927234,0.346172 0,0.07104 0.08328,0.127249 0.18845,0.127249 0.362036,0 0.880536,0.201641 0.83353,0.324153 -0.02482,0.06457 -0.0079,0.117388 0.03771,0.117388 0.04548,0 0.05987,0.0596 0.03197,0.132461 -0.02791,0.07286 -0.0071,0.132463 0.04688,0.132463 0.05378,0 0.09775,-0.06448 0.09775,-0.143275 0,-0.113325 0.02605,-0.12166 0.124602,-0.03986 0.135871,0.112763 0.254045,0.0095 0.15657,-0.136714 -0.0332,-0.04987 -0.231896,-0.191727 -0.441513,-0.315265 -0.323579,-0.190706 -0.356906,-0.235155 -0.22077,-0.294459 0.08822,-0.03842 0.196441,-0.06144 0.240559,-0.05116 0.04416,0.01027 0.107887,-0.0261 0.141709,-0.08081 0.04318,-0.06983 0.102914,-0.05807 0.200476,0.03948 0.07648,0.07643 0.183292,0.138987 0.237451,0.138987 0.161322,0 0.539951,0.39707 0.553489,0.580442 0.0071,0.09359 -0.05978,0.280297 -0.148154,0.41489 -0.137416,0.20924 -0.202084,0.236953 -0.446079,0.191179 -0.213539,-0.04006 -0.298887,-0.01831 -0.339086,0.08644 -0.05978,0.155871 -0.244313,0.18406 -0.372747,0.05695 z m -1.540975,-1.062208 c 0,-0.04705 -0.0596,-0.06266 -0.132462,-0.03471 -0.07286,0.02796 -0.132462,0.06645 -0.132462,0.08554 0,0.0191 0.0596,0.03471 0.132462,0.03471 0.07286,0 0.132462,-0.03849 0.132462,-0.08554 z m -0.618156,0.527054 c 0.07286,-0.04708 0.1722,-0.0856 0.22077,-0.0856 0.04857,0 0.0287,0.03852 -0.04416,0.0856 -0.07286,0.04708 -0.1722,0.0856 -0.220769,0.0856 -0.04856,0 -0.0287,-0.03852 0.04416,-0.0856 z m -2.275513,-0.529823 c 0.06067,-0.09714 0.13723,-0.176617 0.170143,-0.176617 0.03293,0 0.122695,-0.02412 0.199523,-0.05361 0.07682,-0.02948 0.139686,-0.0095 0.139686,0.04416 0,0.05376 -0.04468,0.08782 -0.09934,0.07569 -0.05466,-0.01215 -0.115825,0.02239 -0.135959,0.07673 -0.02304,0.06217 0.05476,0.08734 0.209733,0.06788 0.243333,-0.03055 0.243641,-0.02998 0.0256,0.04692 -0.121423,0.04283 -0.310517,0.08183 -0.420214,0.08666 -0.177834,0.0079 -0.187496,-0.01033 -0.08913,-0.167813 z m 1.127508,0.136967 c 0,-0.0337 0.0596,-0.120884 0.132462,-0.193737 0.07286,-0.07286 0.132463,-0.09475 0.132463,-0.04866 0,0.04608 -0.0596,0.133272 -0.132463,0.193736 -0.07286,0.06046 -0.132462,0.08236 -0.132462,0.04867 z m 2.221566,-1.753963 c -0.0741,-0.08928 -0.22349,-0.120704 -0.463768,-0.09756 -0.325043,0.0313 -0.363882,0.01176 -0.467846,-0.235509 -0.06235,-0.148308 -0.138538,-0.269972 -0.169287,-0.270362 -0.03073,-3.9e-4 -0.172395,-0.04468 -0.314775,-0.09842 l -0.258875,-0.09771 0.220496,-0.173441 c 0.278163,-0.2188 0.810986,-0.279089 0.879885,-0.09956 0.02711,0.07075 0.08769,0.128622 0.134519,0.128622 0.09816,0 0.376289,0.261369 0.392671,0.369001 0.0061,0.03989 0.01598,0.112278 0.02208,0.160846 0.0061,0.04856 0.09051,0.0883 0.187654,0.0883 0.205423,0 0.221998,0.08079 0.06155,0.300174 -0.101045,0.138185 -0.12832,0.1413 -0.224337,0.0256 z M 38.82933,27.067015 c 0.256054,-0.371575 1.14756,-0.718183 1.14756,-0.718183 0.211566,-0.132405 0.300468,0.0083 0.300468,0.154539 0,0.330109 0.546928,0.08452 0.277023,0.255525 -0.101629,0.06439 -0.101629,0.08375 0,0.124388 0.09871,0.03947 0.09653,0.06498 -0.0121,0.1418 -0.73216,-0.284562 -1.838582,0.490808 -0.516342,0.578255 0.177297,0.0022 0.304098,0.03363 0.281791,0.07005 -0.02234,0.03643 -0.0808,0.06624 -0.129962,0.06624 -0.11639,0 -0.292071,0.180163 -0.365967,0.375309 -0.06146,0.162196 -0.41729,0.21868 -0.41729,0.06624 0,-0.04856 -0.139086,-0.0883 -0.309078,-0.0883 -0.215861,0 -0.309079,0.03995 -0.309079,0.132462 0,0.07917 -0.08132,0.132462 -0.202172,0.132462 0,0 0.0063,-0.929643 0.255148,-1.290787 z m -28.64925,1.403234 c -0.140261,-0.02687 -0.218389,-0.119572 -0.2549892,-0.302571 -0.030643,-0.153233 -0.085562,-0.231044 -0.1309979,-0.185609 -0.1390481,0.139048 -0.6039493,0.0173 -0.6039493,-0.158163 0,-0.08758 0.033592,-0.17248 0.074647,-0.188671 0.041054,-0.01619 0.1022561,-0.142048 0.1360015,-0.279683 0.034581,-0.141058 0.026926,-0.228967 -0.017547,-0.201478 -0.4360343,-0.165588 -0.6617857,-0.344318 -0.7955383,-0.733332 0.061792,-0.516624 -0.3001221,-1.033686 -0.4739685,-1.277247 0.057762,-0.03569 0.1050177,-0.02559 0.1050177,0.02245 0,0.05481 0.097362,0.05943 0.2612628,0.01242 0.2149074,-0.06163 0.2703437,-0.04632 0.3124401,0.08632 0.028143,0.08868 0.1092715,0.183537 0.1802773,0.210784 0.156881,0.0602 0.1613335,0.01361 0.022722,-0.237722 -0.2028171,-0.367743 -0.1819852,-0.583381 0.067334,-0.696977 0.2068518,-0.09425 0.2501201,-0.0822 0.3985085,0.110873 0.091554,0.11913 0.1673455,0.166926 0.1684255,0.106214 0.00282,-0.159763 0.4435038,-0.140581 0.4435038,0.0193 0,0.07929 0.05174,0.109838 0.133144,0.07861 0.07323,-0.0281 0.233306,0.01453 0.355727,0.09475 0.122421,0.08022 0.261199,0.121975 0.308397,0.0928 0.0472,-0.02917 0.08581,-0.0122 0.08581,0.03772 0,0.04991 0.05961,0.06788 0.132462,0.03991 0.08388,-0.03219 0.132462,0.0012 0.132462,0.09108 0,0.07804 0.0446,0.141911 0.09912,0.141911 0.06848,0 0.06515,0.04094 -0.01081,0.132462 -0.06046,0.07286 -0.07526,0.136684 -0.03289,0.141849 0.191203,-0.0074 0.312781,0.04055 0.451986,0.145204 -0.357025,0.03368 0.05546,0.268378 -0.231834,0.55894 -0.161347,0.132227 -0.238212,0.148879 -0.331155,0.07174 -0.0887,-0.07362 -0.121036,-0.07397 -0.121036,-0.0013 0,0.05451 -0.06447,0.09912 -0.143274,0.09912 -0.111967,0 -0.121124,0.0267 -0.0419,0.12215 0.153443,0.184887 -0.154243,0.270958 -0.346534,0.09693 -0.7923279,0.05602 0.370804,0.782675 0.586345,0.876381 -0.06505,0.05319 -0.141659,0.164202 -0.170258,0.246723 -0.03863,0.111476 -0.01538,0.135991 0.09046,0.09538 0.09488,-0.03641 0.121129,-0.02016 0.0786,0.04866 -0.03512,0.05683 -0.121115,0.103316 -0.191103,0.103316 -0.06998,0 -0.12725,0.0453 -0.12725,0.100655 0,0.0986 -0.26612,0.344242 -0.353233,0.326056 -0.02428,-0.0051 -0.150341,0.01207 -0.246376,-0.04795 z m 0.120222,-2.40984 c 0,-0.108426 -0.05888,-0.176616 -0.152482,-0.176616 -0.1776921,0 -0.2855224,0.137966 -0.2070581,0.264923 0.099537,0.161054 0.3595401,0.09719 0.3595401,-0.0883 z m -1.1101584,0 c 0,-0.04856 -0.059608,-0.0883 -0.1324621,-0.0883 -0.072854,0 -0.132462,0.03974 -0.132462,0.0883 0,0.04856 0.059608,0.0883 0.132462,0.0883 0.072854,0 0.1324621,-0.03974 0.1324621,-0.0883 z M 41.040736,26.39792 c -0.03003,-0.112029 -0.0551,-0.2931 -0.05572,-0.402382 -8.48e-4,-0.139419 -0.05386,-0.198693 -0.177826,-0.198693 -0.09714,0 -0.176616,0.03556 -0.176616,0.07903 0,0.04347 -0.158955,0.0942 -0.353232,0.112718 -0.194279,0.01853 -0.353233,0.009 -0.353233,-0.0212 0,-0.107185 0.325291,-0.347176 0.470576,-0.347176 0.08116,0 0.14758,-0.03706 0.14758,-0.08236 0,-0.128008 0.339271,-0.204843 0.648411,-0.146847 0.382868,0.07183 0.566743,0.464172 0.39713,0.847361 -0.06446,0.145709 -0.144056,0.264924 -0.176793,0.264924 -0.03276,0 -0.117167,0.02211 -0.18761,0.04915 -0.08239,0.03163 -0.147536,-0.02348 -0.182629,-0.154539 z M 36.71728,26.076584 c -0.06976,-0.141305 -0.05183,-0.549593 0.02217,-0.503868 0.04485,0.02775 0.108027,0.0077 0.140303,-0.04453 0.06676,-0.108005 0.498605,-0.08094 0.583707,0.03657 0.0309,0.04267 0.153966,0.07758 0.273482,0.07758 0.196936,0 0.208221,0.01958 0.120426,0.209042 -0.05325,0.114975 -0.156473,0.21135 -0.229327,0.214172 -0.07286,0.0029 -0.301042,0.01971 -0.507074,0.03754 -0.20604,0.01781 -0.387707,0.0059 -0.40371,-0.02653 z m 1.128435,-0.612199 c -0.06297,-0.04471 -0.06287,-0.150323 5.31e-4,-0.339721 0.07762,-0.231842 0.121554,-0.263897 0.281083,-0.204882 0.269366,0.09965 0.307225,0.202931 0.154354,0.421179 -0.137972,0.19699 -0.276881,0.236315 -0.435968,0.123424 z m -25.408641,0.610287 c -0.07833,0.04178 0.01377,-0.10886 -0.04877,-0.0702 -0.130863,0.08088 -0.548917,0.268707 -0.548917,-0.632864 0,-0.262962 -0.02102,-0.282586 -0.30277,-0.282586 -0.315938,0 -0.622029,-0.214284 -0.526615,-0.368668 0.03042,-0.04922 0.150954,-0.07123 0.267843,-0.04888 0.11689,0.02235 0.233792,0.0062 0.259784,-0.03583 0.08326,-0.134715 0.466338,-0.08175 0.564775,0.07807 0.07955,0.12917 0.09114,0.111048 0.07061,-0.110386 -0.02007,-0.216577 0.01171,-0.270073 0.174137,-0.293143 0.10928,-0.01551 0.198693,0.01429 0.198693,0.06624 0,0.05195 0.0596,0.09444 0.132462,0.09444 0.20267,0 0.157849,-0.133184 -0.08935,-0.265479 -0.143527,-0.0768 -0.205523,-0.17002 -0.175665,-0.264095 0.03766,-0.118682 -0.01722,-0.144226 -0.29878,-0.139063 -0.198692,0.0036 -0.418309,0.07274 -0.518027,0.162995 -0.180744,0.163581 -0.463572,0.126269 -0.463572,-0.06115 0,-0.0585 0.07948,-0.191671 0.176617,-0.295938 0.09714,-0.104267 0.176615,-0.230976 0.176615,-0.281575 0,-0.0506 -0.07948,-0.09199 -0.176615,-0.09199 -0.09714,0 -0.176617,0.05727 -0.176617,0.12725 0,0.182418 -0.183029,0.270184 -0.269995,0.129468 -0.04049,-0.06552 -0.101939,-0.09084 -0.136537,-0.05624 -0.0346,0.03459 -0.116026,0.01883 -0.180947,-0.03505 -0.06492,-0.05387 -0.205597,-0.07507 -0.312609,-0.04708 -0.2443523,0.0639 -0.4245289,-0.08003 -0.4245289,-0.339113 0,-0.10953 -0.060102,-0.249022 -0.133551,-0.309982 -0.1028063,-0.08532 -0.1100741,-0.139126 -0.03157,-0.233717 0.1493802,-0.179992 0.02319,-0.251072 -0.2360473,-0.132957 -0.3067151,0.139749 -0.4819121,0.128912 -0.4819121,-0.02982 0,-0.194576 -0.1649507,-0.162311 -0.5080184,0.09935 l -0.3039165,0.2318 -0.1842178,-0.184218 c -0.1663897,-0.16639 -0.1698321,-0.189737 -0.03557,-0.241259 0.2047024,-0.07856 0.186964,-0.214761 -0.027967,-0.214761 -0.1159537,0 -0.176616,0.05888 -0.176616,0.171404 0,0.09427 -0.039739,0.195964 -0.088308,0.225982 -0.04857,0.03002 -0.088308,0.13171 -0.088308,0.225982 0,0.09427 -0.059608,0.171405 -0.1324619,0.171405 -0.072854,0 -0.1324622,-0.0596 -0.1324622,-0.132463 v -0.198692 c 0,-0.03643 0.037751,-0.06624 0.083893,-0.06624 0.04614,0 0.1355528,-0.05203 0.1986931,-0.115618 0.094377,-0.09505 0.086727,-0.104925 -0.043023,-0.05551 -0.096894,0.03689 -0.2234759,6.87e-4 -0.3278666,-0.09379 C 7.0655444,22.046071 6.933728,21.998044 6.8661389,22.02398 6.6758561,22.097 6.2578837,21.664545 6.3223688,21.461371 c 0.034326,-0.10815 0.011675,-0.170609 -0.062514,-0.1724 -0.078109,-0.0018 -0.06556,-0.04135 0.038202,-0.120121 0.084997,-0.06451 0.1545392,-0.162604 0.1545392,-0.217961 0,-0.05536 0.079477,-0.100655 0.176616,-0.100655 0.09812,0 0.1766161,-0.05888 0.1766161,-0.132462 0,-0.166032 0.3199577,-0.174572 0.4150752,-0.01107 0.075469,0.129716 0.7329293,0.243522 0.7329293,0.126867 0,-0.119421 0.8876804,0.0087 1.0272371,0.148213 0.072907,0.0729 0.136006,0.253869 0.1402218,0.40214 0.00601,0.210939 0.038335,0.256873 0.1486444,0.211163 0.3480229,-0.14421 0.4500576,-0.14474 0.4500576,-0.0024 0,0.07972 0.1020141,0.183733 0.2266991,0.231138 0.1733034,0.06589 0.2135014,0.127774 0.1706654,0.262739 -0.03364,0.105975 -0.01583,0.176546 0.04453,0.176546 0.177307,0 0.343848,-0.236213 0.295877,-0.419656 -0.02957,-0.113058 0.01453,-0.221813 0.121036,-0.298555 0.190449,-0.137218 0.380805,-0.408526 0.214531,-0.305763 -0.05608,0.03466 -0.101952,0.01537 -0.101952,-0.04284 0,-0.05822 -0.06036,-0.149998 -0.134136,-0.203944 -0.119507,-0.08739 -0.118508,-0.120393 0.0092,-0.302669 0.07881,-0.112522 0.19751,-0.183782 0.263769,-0.158356 0.06626,0.02542 0.145151,0.0063 0.175315,-0.04252 0.03532,-0.05715 0.101588,-0.04995 0.186175,0.02025 0.105244,0.08735 0.148871,0.08381 0.219632,-0.01778 0.06735,-0.09671 0.09892,-0.100604 0.133089,-0.0164 0.02464,0.06071 0.112869,0.110385 0.196073,0.110385 0.182986,0 0.199839,0.346104 0.02699,0.554312 -0.09844,0.118584 -0.08825,0.154729 0.06702,0.237835 0.221637,0.118616 0.174727,0.414778 -0.139659,0.881741 l -0.20542,0.305113 0.18935,0.201556 c 0.145677,0.155068 0.216955,0.178646 0.309032,0.102223 0.149407,-0.123994 1.130087,-0.0467 1.310851,0.103328 0.08974,0.07449 0.10289,0.149517 0.04396,0.250923 -0.06485,0.111592 -0.01999,0.198062 0.196172,0.378197 0.258729,0.215611 0.271871,0.251877 0.171287,0.472635 -0.08889,0.195105 -0.149164,0.229011 -0.327499,0.184252 -0.12544,-0.03148 -0.218554,-0.01651 -0.218554,0.03514 0,0.0495 0.05588,0.09 0.124195,0.09 0.08028,0 0.108034,0.0618 0.07848,0.174765 -0.02513,0.09612 0.0352,0.311888 0.134087,0.479482 0.175842,0.298031 0.174017,0.670373 -0.0032,0.670373 -0.04809,0 -0.06535,0.05758 -0.03835,0.127965 0.03275,0.08536 0.0068,0.11168 -0.07836,0.07905 -0.0701,-0.0269 -0.10168,-0.09063 -0.07017,-0.141609 0.03459,-0.05598 0.01451,-0.06627 -0.05069,-0.02596 -0.05939,0.0367 -0.08585,0.124382 -0.05881,0.194847 0.02746,0.07155 0.01061,0.104293 -0.03813,0.07416 -0.04801,-0.02967 -0.0873,-0.113559 -0.0873,-0.186414 -1.475999,-1.037221 -0.309914,0.04186 -0.279718,0.197586 -0.01615,0.08333 -0.114877,0.157781 -0.219384,0.165462 -0.134944,0.0099 -0.05123,-0.164685 -0.139532,-0.11759 z m 0.373699,-2.795974 c 0,-0.186852 0.09079,-0.161756 -0.125239,-0.07885 -0.07682,0.02948 -0.139685,0.08908 -0.139685,0.132462 0,0.12215 0.264924,0.137163 0.264924,-0.0536 z m -2.207701,-0.673664 c 0,-0.03323 -0.07948,-0.03964 -0.176616,-0.01423 -0.09734,0.02546 -0.176616,0.120454 -0.176616,0.211638 0,0.156989 0.009,0.157718 0.176616,0.01423 0.09714,-0.08317 0.176616,-0.17841 0.176616,-0.211638 z m 0.484986,-0.167492 c 0.126836,0.06342 -0.08871,-0.16444 -0.154445,-0.09871 -0.06574,0.06573 -0.0594,0.13449 0.02135,0.231794 0.147193,0.177357 -0.09809,-0.248677 0.133089,-0.133087 z m -2.8693028,0.0023 c 0,-0.04856 -0.042088,-0.0883 -0.09352,-0.0883 -0.05144,0 -0.06896,0.03974 -0.038944,0.0883 0.030016,0.04856 0.072104,0.0883 0.09352,0.0883 0.021414,0 0.038944,-0.03974 0.038944,-0.0883 z m 3.0619618,-0.309076 c -0.313981,0 -0.04786,-0.397386 -0.169873,-0.397386 -0.186468,-2e-6 -0.191314,0.07641 -0.01927,0.303877 0.07131,0.09428 0.129654,0.243299 0.129654,0.331155 0,0.08786 0.01683,0.159738 0.03741,0.159738 0.02058,0 0.240804,-0.397384 0.02208,-0.397384 z M 8.6095694,21.409498 c 0,-0.07797 -0.019206,-0.117744 -0.1234501,-0.117744 -0.1685748,0 -0.2995922,0.114953 -0.220809,0.193735 0.08534,0.08534 0.3442591,0.04591 0.3442591,-0.07598 z m -1.5018875,0.0052 c -0.027246,0.209582 0.1736172,-0.211322 -0.03693,-0.211322 -0.09812,0 -0.1766161,0.05888 -0.1766161,0.132462 0,0.148627 0.2408008,-0.130792 0.2135474,0.07885 z m 4.2086251,-0.547579 c -0.04136,-0.04136 -0.168022,-0.0079 -0.250055,0.0236 -0.125832,0.04828 -0.129291,0.0695 -0.02212,0.135741 0.07893,0.04878 0.173608,0.03985 0.250056,-0.0236 0.08486,-0.07042 0.074,-0.08386 0.02212,-0.13574 z m 27.088602,4.069729 c -0.08274,-0.01898 -0.17486,-0.111623 -0.20477,-0.205853 -0.04699,-0.148067 -0.134466,-0.170347 -0.644383,-0.164131 -0.686772,0.0084 -1.314298,-0.03897 -1.379398,-0.104071 -0.02508,-0.02505 -0.05882,-0.132541 -0.07506,-0.238876 -0.03576,-0.23463 -0.416028,-0.623784 -0.416028,-0.425803 0,0.08416 -0.06015,0.111902 -0.176617,0.08145 -0.09714,-0.02541 -0.176616,-0.0879 -0.176616,-0.138913 0,-0.05099 -0.02658,-0.06614 -0.05908,-0.03366 -0.0785,0.07854 -0.38248,-0.201483 -0.38248,-0.352393 0,-0.06532 -0.04238,-0.118776 -0.09426,-0.118776 -0.05713,0 -0.06995,-0.07816 -0.03249,-0.198693 0.05757,-0.185187 0.143959,-0.267852 0.258734,-0.247612 0.0264,0.0047 0.103418,-0.04202 0.171034,-0.103761 0.104152,-0.09509 0.09376,-0.144777 -0.06799,-0.325078 -0.15083,-0.168158 -0.159405,-0.201541 -0.04089,-0.159036 0.106438,0.03817 0.135827,0.01676 0.101126,-0.07367 -0.02694,-0.0701 -0.09123,-0.101301 -0.142971,-0.06932 -0.05987,0.03699 -0.07259,0.0022 -0.03488,-0.09604 0.03249,-0.08479 0.05916,-0.205019 0.05916,-0.267165 0,-0.07291 0.07833,-0.09802 0.22077,-0.07079 0.121424,0.02322 0.22077,0.09261 0.22077,0.154213 0,0.172892 0.43361,0.425066 0.557833,0.324421 0.05748,-0.04656 0.372713,-0.07223 0.700557,-0.05706 0.457603,0.02118 0.596079,-3.47e-4 0.596079,-0.09267 0,-0.06614 0.04592,-0.148613 0.101956,-0.183269 0.06747,-0.0417 0.0778,-0.0239 0.03046,0.05259 -0.05183,0.08394 -0.03744,0.09446 0.05263,0.03845 0.167229,-0.104025 0.522157,-0.05033 0.67454,0.102069 0.08734,0.08735 0.170806,0.09905 0.281995,0.03954 0.203683,-0.109008 0.676837,-0.128777 1.054134,-0.04403 0.286869,0.06442 0.293465,0.05994 0.19154,-0.130517 -0.05801,-0.10848 -0.08283,-0.219981 -0.05502,-0.24778 0.07656,-0.07655 -0.132481,-0.293076 -0.226722,-0.234833 -0.04521,0.02793 -0.141001,0.0019 -0.212902,-0.05771 -0.07188,-0.05968 -0.154857,-0.08437 -0.184351,-0.05486 -0.09654,0.09654 -0.383647,-0.119051 -0.383647,-0.288092 0,-0.143219 0.04971,-0.158471 0.375309,-0.115064 0.342265,0.04563 0.364642,0.03712 0.254116,-0.09671 -0.106164,-0.128541 -0.09858,-0.146752 0.06102,-0.146752 0.100225,0 0.20718,-0.04039 0.23769,-0.08975 0.03046,-0.04936 0.08971,-0.06857 0.131571,-0.04272 0.04186,0.02587 0.09978,0.0088 0.128735,-0.03812 0.06438,-0.104137 0.802278,0.379539 0.877296,0.575031 0.02949,0.07692 0.05369,0.246971 0.05369,0.377899 0,0.130929 0.05633,0.318468 0.125168,0.416751 0.171503,0.244863 0.277065,0.831988 0.149585,0.831988 -0.05396,0 -0.09813,0.0596 -0.09813,0.132463 0,0.197328 -0.235578,0.160058 -0.391019,-0.06186 -0.105395,-0.150472 -0.111506,-0.209949 -0.02711,-0.263571 0.08459,-0.05374 0.0831,-0.06956 -0.0061,-0.0706 -0.06358,-7.45e-4 -0.09104,-0.04109 -0.06102,-0.08967 0.092,-0.14887 -0.36738,-0.09841 -0.494093,0.05427 -0.10128,0.122032 -0.09011,0.165442 0.07745,0.301158 0.200609,0.162438 0.273878,0.32138 0.09806,0.212723 -0.06526,-0.04033 -0.07868,-2.1e-4 -0.04026,0.120695 0.07772,0.24496 -0.162541,0.378373 -0.4457,0.247458 -0.181324,-0.08383 -0.206817,-0.149607 -0.183195,-0.472692 0.03038,-0.414848 0.03152,-0.413274 -0.210244,-0.283894 -0.109917,0.05882 -0.170814,0.18476 -0.170814,0.353232 0,0.144 -0.03974,0.261818 -0.0883,0.261818 -0.04857,0 -0.08957,0.06955 -0.09112,0.154538 -0.0027,0.137995 -0.01731,0.135631 -0.138511,-0.02207 -0.07462,-0.09714 -0.167485,-0.231869 -0.206331,-0.299399 -0.03921,-0.06819 -0.117953,-0.09354 -0.177058,-0.05701 -0.07586,0.04689 -0.05386,0.102577 0.07665,0.194022 0.166293,0.116476 0.273923,0.361405 0.115894,0.263739 -0.03699,-0.02285 -0.143907,0.01456 -0.237645,0.0831 -0.09375,0.06855 -0.127526,0.124632 -0.07506,0.124632 0.05246,0 0.08986,0.0688 0.08311,0.152881 -0.01395,0.174183 0.30341,0.226457 0.627969,0.103426 0.247827,-0.09395 0.260243,0.016 0.01881,0.166759 -0.09892,0.06178 -0.173692,0.160747 -0.166151,0.219936 0.05334,0.418755 -0.202658,0.853724 -0.466699,0.793102 z M 37.84922,23.941701 c 0.03021,-0.04891 -0.0089,-0.11343 -0.08689,-0.143373 -0.169084,-0.06488 -0.263317,0.0067 -0.182038,0.138121 0.07329,0.118649 0.19736,0.12107 0.268942,0.0051 z M 36.921597,23.35819 c 0,-0.06727 -0.05166,-0.122306 -0.1148,-0.122306 -0.164483,0 -0.326739,0.185198 -0.326739,0.372929 0,0.151426 0.01316,0.152396 0.220771,0.01634 0.121422,-0.07956 0.220768,-0.199692 0.220768,-0.266959 z m -0.971388,0.09846 c 0.09374,-0.112934 0.06932,-0.132462 -0.165798,-0.132462 -0.295311,0 -0.376828,0.137249 -0.121203,0.20405 0.08495,0.02221 0.159608,0.04499 0.165807,0.05063 0.0061,0.0056 0.06076,-0.04936 0.121194,-0.122218 z M 37.27483,23.4022 c 0,-0.05423 0.07444,-0.07914 0.165418,-0.05535 0.127226,0.03328 0.15544,0.0051 0.122166,-0.122162 -0.05281,-0.201828 -0.142874,-0.209207 -0.325432,-0.02665 -0.157455,0.157453 -0.181667,0.30277 -0.05042,0.30277 0.04856,0 0.0883,-0.04438 0.0883,-0.09861 z m 0.51292,-0.967712 c -0.01739,-0.0522 -0.0694,-0.09494 -0.115534,-0.09494 -0.04619,0 -0.09812,0.04273 -0.115533,0.09494 -0.01739,0.05221 0.03461,0.09493 0.115533,0.09493 0.08098,0 0.132939,-0.04273 0.115534,-0.09493 z m 2.445399,-1.228481 c 0,-0.18177 -0.280775,-0.218741 -0.441398,-0.05812 -0.180635,0.180638 -0.173517,0.189372 0.154397,0.189372 0.195064,0 0.287001,-0.04205 0.287001,-0.131252 z m 2.378772,3.628399 c 0.02694,-0.04363 -0.06482,-0.201178 -0.203913,-0.350102 -0.183415,-0.196344 -0.241177,-0.332317 -0.210137,-0.494672 0.02516,-0.131534 0.0017,-0.2239 -0.05581,-0.2239 -0.05421,0 -0.0986,-0.06448 -0.0986,-0.143276 0,-0.115427 -0.02499,-0.12253 -0.128594,-0.03655 -0.07073,0.0587 -0.170073,0.08109 -0.220771,0.04975 -0.05069,-0.03133 -0.09217,-0.01005 -0.09217,0.04737 0,0.07914 -0.03108,0.07857 -0.128594,-0.0024 -0.07073,-0.0587 -0.165905,-0.08366 -0.211516,-0.05547 -0.04557,0.0282 -0.106959,-0.01138 -0.136329,-0.08792 -0.102213,-0.266363 -0.05228,-0.567392 0.123207,-0.742889 0.09714,-0.09714 0.176616,-0.212045 0.176616,-0.25535 0,-0.103711 0.42749,-0.219305 0.706464,-0.19103 0.334485,0.03391 0.702138,0.515882 0.643617,0.843767 -0.02596,0.145708 -0.104592,0.310954 -0.17464,0.367212 -0.10634,0.0854 -0.108318,0.132765 -0.012,0.287001 0.06341,0.101598 0.181024,0.184713 0.261286,0.184713 0.171292,0 0.286323,0.233986 0.154946,0.315182 -0.0498,0.03075 -0.0672,0.11654 -0.03876,0.190638 0.02843,0.07411 0.0061,0.189293 -0.04892,0.255991 -0.110068,0.132627 -0.384697,0.170349 -0.305335,0.04193 z m -0.39184,-1.741284 c 0,-0.07143 -0.09168,-0.122163 -0.220771,-0.122163 -0.238529,0 -0.245788,0.0087 -0.170911,0.203789 0.06155,0.160274 0.391682,0.09147 0.391682,-0.08162 z M 6.4921998,23.712141 c -0.01812,-0.07418 0.3061676,-0.118147 0.5603994,-0.142576 0.3595311,-0.03455 0.5020029,-0.0099 0.6411949,0.110794 0.16468,0.243558 -0.044596,0.193422 0.2600051,0.338158 0,0.169089 -0.248807,0.306513 -0.645311,0.247699 0,0 -0.5305984,0.05561 -0.7065439,-0.104802 C 6.4880222,24.057552 6.4921998,23.712141 6.4921998,23.712141 Z M 30.991684,22.411208 c -0.0962,-0.315937 0.291495,-0.183598 0.134634,-0.300828 -0.400796,-0.299533 -0.655811,-0.327292 -0.368652,-0.04013 0.08239,0.08242 0.07259,0.105969 -0.04416,0.105969 -0.09269,0 -0.150124,-0.06957 -0.150124,-0.181827 0,-0.100009 -0.03974,-0.157268 -0.0883,-0.12725 -0.04856,0.03002 -0.0883,0.01249 -0.0883,-0.03894 0,-0.05144 0.02977,-0.09355 0.06624,-0.09357 0.144666,-1.37e-4 0.08761,-0.436799 -0.06331,-0.484707 -0.241956,-0.07679 -0.444455,0.04288 -0.444455,0.262633 0,0.110281 -0.05847,0.248991 -0.129813,0.308244 -0.105767,0.08778 -0.19063,0.0576 -0.458106,-0.16287 -0.247764,-0.204229 -0.356719,-0.247012 -0.44419,-0.174417 -0.152594,0.126643 -0.380823,-0.0559 -0.380823,-0.304606 0,-0.09951 -0.06088,-0.248184 -0.13526,-0.330387 -0.121778,-0.134563 -0.119577,-0.17709 0.02208,-0.426645 0.08653,-0.15245 0.223208,-0.298461 0.303718,-0.324471 0.08051,-0.026 0.16964,-0.107903 0.19807,-0.181985 0.02842,-0.07409 0.08896,-0.111662 0.134518,-0.08351 0.04556,0.02816 0.107789,0.0108 0.138298,-0.03856 0.03046,-0.04936 0.132126,-0.08975 0.22583,-0.08975 0.12175,0 0.16436,-0.05391 0.149329,-0.188958 -0.01157,-0.103927 0.02596,-0.205688 0.08336,-0.226136 0.126148,-0.04493 0.342715,0.326248 0.235862,0.404248 -0.09448,0.06898 -0.09067,0.620539 0.0062,0.830291 0.06923,0.150641 0.07709,0.150641 0.188882,0 0.08945,-0.120504 0.153921,-0.136054 0.276554,-0.06672 0.09171,0.05186 0.367078,0.06689 0.645611,0.03522 0.267132,-0.03037 0.520893,-0.02394 0.563909,0.01428 0.04301,0.03822 0.136638,0.01106 0.208054,-0.06034 0.07559,-0.07557 0.17205,-0.09943 0.230863,-0.05708 0.05554,0.04003 0.230175,0.06472 0.388026,0.05488 0.15786,-0.0098 0.28701,0.01468 0.28701,0.05448 0,0.0398 0.07806,0.05195 0.173454,0.02699 0.205776,-0.05382 0.425672,0.137927 0.39532,0.344715 -0.01183,0.08067 0.08717,0.255368 0.220003,0.38821 0.231075,0.231073 0.320327,0.269957 0.786488,0.342632 0.113573,0.01771 0.215454,0.04523 0.226414,0.06119 0.01096,0.01595 0.104441,0.140638 0.207734,0.277086 l 0.187806,0.248091 -0.177288,0.177283 c -0.13202,0.132021 -0.152834,0.206731 -0.08151,0.292641 0.233301,0.281114 -0.07762,0.461525 -0.918447,0.53286 -0.641629,0.05444 -1.398676,-0.38476 -1.211596,-0.70292 0.02818,-0.04787 0.04001,-0.216759 0.02632,-0.375309 -0.01368,-0.15855 0.01695,-0.288273 0.068,-0.288273 0.132038,0 0.361594,-0.476366 0.287399,-0.596407 -0.03409,-0.05514 -0.140463,-0.08564 -0.236401,-0.06776 -0.09593,0.01788 -0.20658,0.03555 -0.245876,0.03926 -0.0393,0.0037 -0.04856,0.04375 -0.02066,0.08896 0.02791,0.04521 0.0098,0.107567 -0.04035,0.138564 -0.05015,0.031 -0.06429,0.103285 -0.03145,0.160641 0.03285,0.05736 0.02826,0.07588 -0.01015,0.04115 -0.0385,-0.03472 -0.154107,-0.01634 -0.257002,0.04085 -0.102897,0.05717 -0.213079,0.09679 -0.244844,0.08803 -0.0318,-0.0088 -0.103205,0.03883 -0.158751,0.105744 -0.07877,0.09488 -0.05908,0.151047 0.08941,0.255044 0.111277,0.07794 0.163476,0.176923 0.125609,0.238187 -0.0454,0.07351 -0.01475,0.07281 0.115463,0.04762 0.08196,-0.01586 -0.936894,0.106086 -0.96665,0.0084 z m 2.773978,-0.06768 c -0.05307,-0.202863 -0.395646,-0.224457 -0.553003,-0.03486 -0.08195,0.09871 -0.08336,0.132461 -0.0052,0.132461 0.0574,0 0.08187,0.03635 0.0544,0.08077 -0.07586,0.122676 0.147907,0.168146 0.359952,0.07316 0.125998,-0.05645 0.173561,-0.139387 0.144234,-0.251532 z m -2.18776,-0.940011 c -0.01626,-0.08499 -0.03259,-0.206467 -0.03639,-0.269932 -0.0052,-0.08949 -0.05015,-0.08502 -0.199955,0.01994 -0.291011,0.203829 -0.28278,0.404541 0.0166,0.404541 0.189827,0 0.242238,-0.03687 0.219712,-0.154539 z m -2.332119,-0.801909 c -0.247428,-0.03637 -0.353488,0.05668 -0.184008,0.161425 0.07929,0.04902 0.174947,0.03893 0.254857,-0.02689 0.107869,-0.08883 0.09677,-0.109912 -0.07083,-0.134546 z m 11.303421,2.347299 c -0.0035,-0.08499 -0.04672,-0.154539 -0.09528,-0.154539 -0.04856,0 -0.0883,-0.04826 -0.0883,-0.107231 0,-0.06947 0.05024,-0.05697 0.142716,0.03548 0.0785,0.07848 0.121362,0.196289 0.09527,0.261771 -0.0325,0.08153 -0.04963,0.07036 -0.0544,-0.03549 z M 34.713897,21.78827 c 0,-0.0191 0.0596,-0.05757 0.132462,-0.08554 0.07286,-0.02796 0.132461,-0.01234 0.132461,0.03471 0,0.04704 -0.0596,0.08554 -0.132461,0.08554 -0.07286,0 -0.132462,-0.01562 -0.132462,-0.03471 z m -0.02359,-1.771478 c -0.07471,-0.05461 -0.21262,-0.236827 -0.306535,-0.404934 -0.18489,-0.33095 -0.339183,-0.384688 -0.564588,-0.196631 -0.125125,0.104393 -0.166727,0.08913 -0.316117,-0.115941 -0.149311,-0.20497 -0.197333,-0.22261 -0.36368,-0.133586 -0.135146,0.07232 -0.191654,0.07409 -0.191654,0.0059 0,-0.05315 -0.03311,-0.07615 -0.07355,-0.05115 -0.04045,0.02502 -0.07356,-0.01238 -0.07356,-0.0831 0,-0.07071 0.05299,-0.128578 0.117749,-0.128578 0.06473,0 0.117742,-0.07947 0.117742,-0.176616 0,-0.09812 0.05891,-0.176616 0.132462,-0.176616 0.07286,0 0.132462,-0.06196 0.132462,-0.137674 0,-0.07573 0.03948,-0.113284 0.08769,-0.08348 0.164323,0.101557 0.965552,0.282153 0.919215,0.207188 -0.02543,-0.04107 0.06552,-0.115395 0.202005,-0.165162 0.136489,-0.04975 0.370197,-0.154243 0.519358,-0.232172 0.196803,-0.102822 0.317917,-0.117565 0.44154,-0.05375 0.198657,0.102558 0.41752,0.04935 0.336462,-0.08179 -0.03647,-0.05903 0.04725,-0.06847 0.2423,-0.02731 0.391557,0.08264 0.484625,0.179408 0.325539,0.338502 -0.113061,0.113055 -0.141576,0.108725 -0.231419,-0.03514 -0.09727,-0.155761 -0.115622,-0.156535 -0.361773,-0.01526 -0.142618,0.08186 -0.239818,0.180342 -0.216011,0.218872 0.02385,0.03853 0.08027,0.04719 0.125504,0.01924 0.04521,-0.02794 0.08222,-0.0034 0.08222,0.05443 0,0.05788 0.08204,0.176398 0.18233,0.263371 0.193121,0.167496 0.264738,0.675022 0.10951,0.776153 -0.04883,0.0318 -0.104635,0.107379 -0.124055,0.167951 -0.02375,0.0742 -0.120903,0.03659 -0.297572,-0.115256 -0.215912,-0.185563 -0.239323,-0.239896 -0.132462,-0.307475 0.09351,-0.05913 0.03726,-0.08246 -0.201368,-0.08344 -0.276528,-0.0011 -0.331155,0.02882 -0.331155,0.181571 0,0.100604 0.0596,0.242533 0.132462,0.315388 0.07286,0.07286 0.132462,0.164728 0.132462,0.204166 0,0.119677 -0.408486,0.15825 -0.553435,0.05226 z m -1.036109,-1.117417 c 0,-0.100901 -0.239466,-0.10318 -0.301467,-0.0029 -0.02588,0.0418 -0.02428,0.09867 0.0035,0.126379 0.06888,0.06892 0.298039,-0.02605 0.298039,-0.12351 z m 1.695514,0.963175 c -0.141408,-0.141407 -0.134731,-0.252758 0.01175,-0.196537 0.06473,0.02486 0.11775,0.103081 0.11775,0.173845 0,0.155158 0.0027,0.154718 -0.129522,0.02269 z m -22.275574,0.279645 0.438718,-0.496136 c 0.08146,-0.09212 0.259108,-0.360143 0.153436,-0.465802 -0.06836,-0.06837 -0.04911,-0.129286 0.06787,-0.214819 0.08981,-0.06567 0.144715,-0.15523 0.12202,-0.199026 -0.05611,-0.108274 0.297586,-0.433179 0.469767,-0.431528 0.0763,7.33e-4 0.193791,0.04703 0.261085,0.102875 0.0673,0.05585 0.162092,0.09905 0.210662,0.09598 0.04856,-0.0031 0.16309,0.122244 0.254491,0.278453 0.212484,0.363147 0.100061,0.51251 -0.28478,0.378354 -0.321284,-0.112001 -0.586363,0.03296 -0.495113,0.270758 0.03202,0.08343 0.09379,0.129715 0.137268,0.102843 0.04348,-0.02688 0.07905,0.03029 0.07905,0.127017 0,0.09673 -0.0758,0.199938 -0.168457,0.229345 -0.09265,0.02941 -0.189075,0.107192 -0.214273,0.172858 -0.05037,0.131253 -0.546208,0.403733 -0.734688,0.403733 -0.06588,0 -0.781136,0.19253 -0.297056,-0.354905 z m 25.47539,0.142043 c -0.120629,0.0057 0.145161,-0.163769 0.114588,-0.194338 -0.08983,-0.08983 0.176202,-0.303427 0.312691,-0.251051 0.06871,0.02634 0.17568,-0.01329 0.237778,-0.08812 0.09259,-0.111566 0.08717,-0.175275 -0.03002,-0.354145 -0.208293,-0.317895 -0.175946,-0.541999 0.107346,-0.743723 0.353462,-0.251683 0.859573,-0.08033 0.882084,0.298634 0.0079,0.127832 0.393676,0.207656 0.522862,0.108104 0.07276,-0.0561 0.212902,-0.03569 0.415711,0.06055 0.385579,0.182968 0.401245,0.211226 0.323878,0.584156 -0.0521,0.251014 -0.09903,0.301866 -0.257842,0.279269 -0.114562,-0.01631 -0.195276,0.0199 -0.196856,0.0883 -0.0017,0.06385 -0.05007,0.03657 -0.10808,-0.06068 -0.105096,-0.176111 -0.122227,-0.224466 -0.143121,-0.403861 -0.0061,-0.05213 -0.08063,-0.0814 -0.165578,-0.06503 -0.08495,0.01637 -0.144603,0.05902 -0.132462,0.09478 0.02526,0.07432 -0.350486,0.470683 -0.423199,0.446445 -0.02632,-0.0088 -0.21034,-0.03463 -0.408892,-0.05744 -0.321485,-0.03693 -0.356182,-0.02302 -0.31692,0.12712 0.03744,0.143238 -6.53e-4,0.166266 -0.253417,0.153109 -0.163627,-0.0085 -0.376978,0.01425 -0.474118,0.05058 -0.173454,0.06489 0.209382,-0.08285 -0.0062,-0.07267 z m 1.198605,-1.018451 c -0.06251,0.08335 -0.172226,-0.215649 -0.23549,-0.152393 -0.06323,0.06325 0.04822,0.235489 0.152393,0.235489 0.04575,0 0.110526,-0.119668 0.0831,-0.0831 z m -20.840778,-0.07744 c -0.130645,-0.04326 -0.10836,-0.191335 0.0288,-0.191335 0.12571,0 0.139911,-0.23904 0.02521,-0.424608 -0.03822,-0.06183 -0.138947,-0.09037 -0.22385,-0.06344 -0.346571,0.109998 -0.712746,-0.827775 -0.447853,-1.146951 0.06182,-0.0745 0.08688,-0.160972 0.05567,-0.192178 -0.03121,-0.03121 -0.05673,-0.0054 -0.05673,0.05709 0,0.08522 -0.0298,0.08911 -0.118509,0.01548 -0.06518,-0.0541 -0.143418,-0.07345 -0.173861,-0.04301 -0.11113,0.111131 -0.488691,-0.234967 -0.547267,-0.501659 -0.04256,-0.193803 -0.0987,-0.259382 -0.191513,-0.223763 -0.07222,0.02772 -0.147918,0.05039 -0.16823,0.05039 -0.02032,0 -0.03693,0.06059 -0.03693,0.134648 0,0.186789 -0.403878,0.32196 -0.761516,0.254867 -0.337184,-0.06325 -0.394467,-0.186447 -0.106405,-0.228834 0.215771,-0.03174 0.334926,-0.24899 0.13657,-0.24899 -0.07036,0 -0.231003,0.08109 -0.357003,0.180203 l -0.229092,0.180205 -0.180204,-0.180205 c -0.229111,-0.229111 -0.230662,-0.448466 -0.0036,-0.507847 0.09714,-0.02541 0.176615,-0.08058 0.176615,-0.122606 0,-0.08962 0.885998,-0.08752 1.015543,0.0024 0.07998,0.05551 0.275951,0.05989 0.331156,0.0074 0.01215,-0.01155 0.367957,-0.03538 0.790702,-0.05296 0.592049,-0.02462 0.798542,-0.002 0.898849,0.09827 0.165567,0.165566 0.269389,0.164493 0.409419,-0.0042 0.06138,-0.07394 0.180749,-0.112506 0.265278,-0.08568 0.192168,0.06099 0.294915,-0.173225 0.174607,-0.398024 -0.04823,-0.0901 -0.06524,-0.22229 -0.03781,-0.293749 0.07201,-0.187637 -0.10207,-0.260532 -0.310827,-0.130165 -0.153522,0.09587 -0.206211,0.08493 -0.367542,-0.0764 -0.233829,-0.23383 -0.153573,-0.382761 0.206267,-0.382761 0.150936,0 0.248283,-0.02615 0.216324,-0.05811 -0.03196,-0.03196 -0.01678,-0.107899 0.03372,-0.168754 0.05426,-0.0654 0.05861,-0.131183 0.0106,-0.160847 -0.103088,-0.06371 -0.91491,0.342105 -0.838075,0.41894 0.0314,0.0314 0.01396,0.05708 -0.03873,0.05708 -0.0527,0 -0.150122,0.02084 -0.216511,0.04632 -0.06639,0.02548 -0.19879,-0.0242 -0.294224,-0.110385 -0.19197,-0.173372 -0.754873,-0.236017 -0.695544,-0.0774 0.03723,0.09953 -0.346198,0.318086 -0.558045,0.318086 -0.06469,0 -0.140503,-0.0596 -0.168458,-0.132462 -0.02796,-0.07286 -0.145927,-0.132462 -0.262153,-0.132462 -0.12897,0 -0.211323,0.05162 -0.211323,0.132462 0,0.07286 -0.0421,0.132462 -0.09352,0.132462 -0.05143,0 -0.0734,0.03254 -0.04882,0.07233 0.02459,0.03978 -0.07242,0.05513 -0.215558,0.03413 -0.341155,-0.05007 -0.332423,-0.184752 0.0165,-0.254537 l 0.276763,-0.05535 -0.236945,-0.124147 c -0.175202,-0.0918 -0.222758,-0.168842 -0.182503,-0.295673 0.06336,-0.199633 0.03887,-0.206302 -0.259098,-0.07054 -0.142106,0.06475 -0.214896,0.163893 -0.202847,0.276298 0.01277,0.119141 -0.07253,0.221184 -0.266208,0.318478 -0.274252,0.13777 -0.39499,0.29918 -0.18966,0.253551 0.05464,-0.01215 0.117569,0.02762 0.139842,0.08836 0.026,0.07094 -0.0097,0.09115 -0.10003,0.05652 -0.106958,-0.04105 -0.135086,-0.0044 -0.117764,0.153257 0.0157,0.14304 -0.03876,0.234544 -0.175937,0.295572 -0.109281,0.04862 -0.199302,0.128644 -0.200046,0.17784 -7.43e-4,0.0492 -0.04124,0.02984 -0.08998,-0.04301 -0.07756,-0.115911 -0.103309,-0.113323 -0.206074,0.0207 -0.06458,0.08425 -0.143723,0.126881 -0.17585,0.09476 -0.03212,-0.03212 -0.117707,0.01816 -0.190178,0.111758 -0.104804,0.135348 -0.121102,0.139452 -0.07964,0.02005 0.03885,-0.111881 -0.03132,-0.184981 -0.275491,-0.287001 -0.395081,-0.165075 -0.399702,-0.165429 -0.346685,-0.02651 0.02766,0.0725 -0.05158,0.11374 -0.230928,0.120162 -0.150179,0.0053 -0.225748,-0.01947 -0.16793,-0.0552 0.08112,-0.05013 0.08117,-0.07977 2.32e-4,-0.129796 -0.06233,-0.03852 -0.08251,-0.154018 -0.04972,-0.284605 0.03978,-0.158508 0.02331,-0.208138 -0.05908,-0.17802 -0.06282,0.02297 -0.103318,0.08942 -0.08997,0.147668 0.01335,0.05825 -0.01652,0.0807 -0.0664,0.04988 -0.04987,-0.03082 -0.130794,0.04953 -0.179848,0.178547 l -0.08919,0.234577 -0.161594,-0.199561 c -0.144678,-0.178668 -0.148513,-0.225783 -0.03663,-0.450034 0.06873,-0.13776 0.181651,-0.250473 0.250946,-0.250473 0.0693,0 0.125995,-0.03511 0.125995,-0.07801 0,-0.04292 0.09397,-0.09598 0.208827,-0.117933 0.229092,-0.04379 0.533416,0.126694 0.430034,0.240913 -0.03567,0.03941 -0.01273,0.04155 0.05097,0.0048 0.0637,-0.0368 0.151847,-0.161618 0.195865,-0.277395 0.05665,-0.14901 0.12364,-0.193774 0.229298,-0.153229 0.123894,0.04754 0.114107,-0.0052 -0.05758,-0.310764 -0.228252,-0.406061 -0.335449,-0.439321 -0.707572,-0.219503 -0.243974,0.144118 -0.256683,0.142161 -0.43015,-0.06624 -0.216416,-0.259988 -0.228513,-0.3472 -0.04816,-0.3472 0.107469,0 0.124449,-0.06404 0.07992,-0.3014 -0.08103,-0.431877 0.0168,-0.669988 0.27526,-0.669988 0.161688,0 0.214819,-0.04749 0.214819,-0.192008 V 12.25486 l 0.198694,0.184808 c 0.181887,0.169175 1.459835,0.512895 1.554601,0.41813 0.02061,-0.02061 -0.06739,-0.175011 -0.195588,-0.343086 -0.128198,-0.168073 -0.233085,-0.334294 -0.233085,-0.369377 0,-0.140978 0.459387,-0.654461 0.585513,-0.654461 0.104897,0 0.121634,-0.06078 0.07509,-0.2727 -0.0564,-0.256738 -0.04893,-0.266837 0.127271,-0.172532 0.217108,0.116192 0.393499,0.0414 0.324769,-0.137704 -0.03273,-0.08527 0.02011,-0.12353 0.170596,-0.12353 0.119899,0 0.217998,-0.03494 0.217998,-0.07764 0,-0.0427 0.284314,-0.119838 0.631807,-0.171414 0.347494,-0.05157 0.66096,-0.140944 0.696591,-0.198597 2.781469,-2.2882083 3.639508,3.078572 3.489993,-1.1729426 -0.02117,-0.2257612 -0.0059,-0.4104743 0.03391,-0.4104743 0.03981,0 0.09443,-0.084343 0.121396,-0.1874365 0.03921,-0.1499116 0.101003,-0.1798075 0.308668,-0.1493279 0.183807,0.026978 0.288797,-0.00856 0.35942,-0.1216418 0.05496,-0.088007 0.203535,-0.1597501 0.330826,-0.1597501 0.208393,0 0.225984,0.025371 0.179326,0.2586675 -0.169949,0.8497245 1.807749,-0.2244757 1.929578,0.2932993 0.03715,0.1578506 0.07641,0.3068705 0.08726,0.3311552 0.01085,0.024284 0.07051,0.1650645 0.132573,0.3128428 0.145322,0.3460367 0.463791,0.5097749 0.642983,0.3305829 0.09504,-0.095033 0.233116,-0.1121486 0.53706,-0.066567 0.360849,0.054115 0.409137,0.087345 0.409137,0.2815455 0,0.168483 0.03428,0.20704 0.145939,0.164189 0.185865,-0.071327 0.733265,0.105955 0.749245,0.242648 0.0067,0.05694 0.01183,0.17308 0.01151,0.258076 -3.31e-4,0.08499 0.02403,0.157076 0.05412,0.160175 0.655359,0.06751 0.62873,0.07601 0.62873,-0.200787 0,-0.188657 0.04989,-0.275971 0.176616,-0.309111 0.236219,-0.06177 0.222671,-0.152882 -0.04054,-0.2728106 -0.119452,-0.05442 -0.326371,-0.2639451 -0.459823,-0.4656045 -0.224458,-0.3391761 -0.231344,-0.3749135 -0.0919,-0.4768801 0.08291,-0.060624 0.150746,-0.1555193 0.150746,-0.2108761 0,-0.05536 0.0596,-0.1006499 0.132462,-0.1006499 0.07286,0 0.132461,-0.064474 0.132461,-0.1432745 0,-0.1040409 0.03024,-0.1184794 0.110386,-0.052729 0.24576,0.2015959 0.861003,0.1217707 0.861003,-0.1117123 0,-0.178595 0.210561,-0.31031 0.354177,-0.2215507 0.08326,0.051457 0.177399,0.033619 0.271377,-0.05143 0.126924,-0.114864 0.157079,-0.1143369 0.255677,0.0045 0.06148,0.074082 0.186394,0.13469 0.277586,0.13469 0.09119,0 0.165803,0.045294 0.165803,0.1006489 0,0.05536 0.06561,0.1485933 0.145699,0.2071918 0.135288,0.098923 0.135315,0.1273623 4.5e-4,0.3977129 -0.13603,0.2726784 -0.135473,0.298604 0.0088,0.4081572 0.08478,0.064341 0.180643,0.118248 0.213097,0.1197925 0.03241,0.00159 0.116646,0.024929 0.18709,0.05196 0.07842,0.030078 0.145294,-0.016673 0.172439,-0.1204963 0.02994,-0.114563 0.15559,-0.1898234 0.386921,-0.2317936 0.188406,-0.034184 0.423738,-0.081553 0.522969,-0.1052605 0.223163,-0.05333 0.658504,0.3264712 0.658504,0.5744941 0,0.1791108 0.215419,0.4520647 0.356774,0.4520647 0.04362,0 0.05634,-0.05961 0.02843,-0.1324619 -0.028,-0.072854 -0.0071,-0.1324621 0.04688,-0.1324621 0.05378,0 0.09775,-0.079477 0.09775,-0.1766161 0,-0.097138 0.05537,-0.176616 0.123013,-0.176616 0.06764,0 0.145504,-0.058611 0.172987,-0.1302447 0.06729,-0.1753675 0.798878,-0.1218219 1.01563,0.074338 0.08761,0.079319 0.205907,0.1442177 0.262796,0.1442177 0.156076,0 0.129768,0.5891531 -0.02905,0.6500901 -0.07286,0.02796 -0.132462,0.09737 -0.132462,0.154252 0,0.05688 -0.06641,0.151985 -0.147589,0.211338 -0.08274,0.0605 -0.159423,0.258239 -0.174524,0.450027 -0.01484,0.188157 -0.07259,0.452372 -0.128444,0.587143 -0.08966,0.216431 -0.07569,0.270847 0.119587,0.466122 0.256182,0.256182 0.377058,0.718946 0.233107,0.892404 -0.05421,0.06528 -0.07674,0.175522 -0.05007,0.244975 0.05193,0.13538 -0.110357,0.229203 -0.396512,0.229203 -0.198816,0 -0.176996,0.219381 0.02217,0.223104 0.06871,0.0013 0.181041,0.03744 0.249709,0.08038 0.08822,0.05516 0.189253,0.0032 0.344437,-0.177238 0.26934,-0.313123 0.773807,-0.505694 1.00317,-0.382944 0.124303,0.06652 0.161242,0.05452 0.161242,-0.05238 0,-0.117358 0.03055,-0.121857 0.198693,-0.02926 0.10928,0.06017 0.258301,0.111248 0.331155,0.113493 0.08886,0.0028 0.126987,0.08402 0.115834,0.24693 -0.02137,0.31227 0.174081,0.319597 0.314333,0.01179 0.08914,-0.19566 0.0816,-0.248365 -0.04911,-0.343958 -0.137345,-0.100429 -0.110844,-0.124576 0.240047,-0.21874 0.216938,-0.05822 0.454256,-0.136132 0.527368,-0.173144 0.275494,-0.139467 0.835173,0.372301 0.694543,0.635079 -0.04565,0.08537 -0.140031,0.155214 -0.209653,0.155214 -0.07621,0 -0.106367,0.05269 -0.07577,0.13246 0.06094,0.158782 -0.06729,0.174554 -0.21533,0.0265 -0.07833,-0.07831 -0.10597,-0.07924 -0.10597,-0.0035 0,0.165636 0.465904,0.551911 0.569252,0.471962 0.196494,-0.151997 0.553002,-0.180866 1.020292,-0.08262 0.721549,0.151706 0.85333,0.314755 0.666038,0.824047 -0.175238,0.476509 -0.380255,0.778658 -0.609529,0.898317 -0.138909,0.0725 -0.228753,0.09329 -0.199664,0.04622 0.02905,-0.04707 -0.0061,-0.134702 -0.0786,-0.194722 -0.10846,-0.09002 -0.131729,-0.08017 -0.132842,0.05623 -8.82e-4,0.131429 -0.01757,0.139767 -0.08027,0.04065 -0.08451,-0.133472 0.07762,-0.360988 0.25717,-0.360988 0.05493,0 0.07523,-0.03974 0.04521,-0.0883 -0.03003,-0.04856 -0.145162,-0.0883 -0.255865,-0.0883 -0.189086,0 -0.200053,0.03162 -0.180916,0.521211 0.01934,0.49565 0.0044,0.536267 -0.301273,0.828225 -0.176898,0.168859 -0.44086,0.344206 -0.586568,0.389661 -0.145708,0.04545 -0.300088,0.160056 -0.343076,0.254671 -0.04301,0.09461 -0.172131,0.24292 -0.287002,0.329564 -0.179415,0.135335 -0.208849,0.138287 -0.208849,0.02096 0,-0.07513 -0.03974,-0.136585 -0.0883,-0.136585 -0.04856,0 -0.0883,-0.141929 -0.0883,-0.315398 0,-0.27496 -0.02552,-0.312475 -0.198693,-0.292606 -0.249162,0.02858 -0.59608,-0.08358 -0.59608,-0.192719 0,-0.04529 0.06949,-0.08296 0.154539,-0.08371 0.120727,-0.001 0.12825,-0.018 0.03435,-0.07748 -0.06605,-0.04188 -0.205175,-0.05489 -0.309078,-0.02895 -0.185005,0.04622 -0.185553,0.04337 -0.02606,-0.137331 0.08955,-0.101485 0.218703,-0.163083 0.287001,-0.136876 0.06827,0.0262 0.124161,0.0036 0.124161,-0.05011 0,-0.05377 0.06446,-0.09776 0.14328,-0.09776 0.118148,0 0.123746,-0.02352 0.03189,-0.134168 -0.10695,-0.128861 -0.251025,-0.127522 -0.925822,0.0086 -0.09714,0.0196 -0.126695,0.01273 -0.0657,-0.01525 0.06102,-0.02798 0.08743,-0.08897 0.05864,-0.135515 -0.02879,-0.04655 -0.0052,-0.140762 0.05122,-0.20936 0.109653,-0.132117 0.04001,-0.34422 -0.08725,-0.265598 -0.04125,0.0255 -0.273853,0.06288 -0.516867,0.08309 -0.331827,0.02756 -0.454221,0.0044 -0.491576,-0.09289 -0.03735,-0.09744 -0.09101,-0.107506 -0.216046,-0.04059 -0.09147,0.04895 -0.181473,0.07455 -0.2,0.05688 -0.01855,-0.01768 -0.08495,0.02347 -0.147554,0.09142 -0.111516,0.120997 -0.105952,0.134221 0.06588,0.156671 0.04644,0.006 0.137055,0.08291 0.201289,0.170751 0.111922,0.15306 0.125521,0.15214 0.326387,-0.02208 0.258205,-0.223937 0.268933,-0.224242 0.226987,-0.0065 -0.01855,0.09643 0.03339,0.225584 0.115454,0.287001 0.08204,0.06142 0.160898,0.181211 0.175168,0.266208 0.02145,0.12756 -0.04142,0.154538 -0.359909,0.154538 -0.29698,0 -0.433441,0.05065 -0.592396,0.219845 -0.19494,0.207497 -0.198163,0.229099 -0.0574,0.384615 0.145495,0.160778 0.118844,0.455238 -0.04125,0.455238 -0.04336,0 -0.07885,0.05536 -0.07885,0.123013 0,0.333302 -0.473755,0.193283 -0.488529,-0.144387 -0.0052,-0.114573 -0.04089,-0.259772 -0.07984,-0.322661 -0.08256,-0.133641 0.110077,-0.539046 0.256182,-0.539046 0.05476,0 0.09772,-0.10274 0.09547,-0.228308 -0.0035,-0.172116 -0.07471,-0.258009 -0.291107,-0.34897 -0.157851,-0.06636 -0.287001,-0.166569 -0.287001,-0.22268 0,-0.05777 -0.06207,-0.07821 -0.143104,-0.0471 -0.110111,0.04226 -0.132356,0.01382 -0.09648,-0.123383 0.06163,-0.235801 -0.358918,-0.367338 -0.480403,-0.150246 -0.04328,0.07733 -0.135518,0.197422 -0.204991,0.266892 -0.06949,0.06947 -0.09839,0.15728 -0.06429,0.195134 0.03409,0.03785 0.0106,0.03916 -0.05218,0.003 -0.06287,-0.03624 -0.179009,-0.01283 -0.258159,0.05208 -0.126722,0.103901 -0.137796,0.09428 -0.09273,-0.08062 0.02817,-0.109235 0.01519,-0.22086 -0.02887,-0.24806 -0.04398,-0.02719 -0.08001,-0.0087 -0.08001,0.0413 0,0.04992 -0.06949,0.06913 -0.154539,0.0427 -0.147174,-0.04577 -0.147174,-0.04332 0,0.05132 0.105979,0.06814 0.150759,0.20206 0.14252,0.426131 -0.0079,0.205315 -0.02623,0.252918 -0.05034,0.128074 -0.02101,-0.109281 -0.06976,-0.198693 -0.108194,-0.198693 -0.03842,0 -0.05095,0.09934 -0.02773,0.220771 0.02464,0.128872 8.84e-4,0.220769 -0.05644,0.220769 -0.05422,0 -0.0986,-0.04399 -0.0986,-0.09775 0,-0.05376 -0.0596,-0.07489 -0.132463,-0.04692 -0.0965,0.03703 -0.132461,-0.01059 -0.132461,-0.175437 0,-0.148526 -0.05802,-0.241435 -0.168846,-0.270419 -0.163502,-0.04275 -0.162981,-0.05089 0.01651,-0.257359 0.12636,-0.145319 0.239879,-0.195911 0.356527,-0.158888 0.112697,0.03577 0.150502,0.02093 0.110711,-0.04346 -0.0332,-0.05377 -0.137558,-0.09777 -0.231826,-0.09777 -0.09428,0 -0.171406,-0.04209 -0.171406,-0.09352 0,-0.05143 0.03974,-0.06896 0.0883,-0.03894 0.04856,0.03002 0.0883,0.0082 0.0883,-0.04839 0,-0.05928 0.06163,-0.07931 0.145232,-0.04724 0.0808,0.03101 0.215472,-0.0079 0.303515,-0.08751 0.08707,-0.07878 0.20007,-0.117416 0.251139,-0.08585 0.05625,0.03478 0.07215,0.0034 0.04027,-0.07965 -0.07162,-0.186668 -0.270364,-0.172092 -0.539448,0.03957 -0.237919,0.187152 -0.46563,0.232483 -0.46563,0.0927 0,-0.04617 0.06949,-0.124425 0.154539,-0.17393 0.144612,-0.08423 0.14395,-0.09018 -0.01033,-0.0927 -0.127464,-0.0022 -0.152764,-0.04775 -0.111595,-0.201379 0.02932,-0.109281 0.05378,-0.230842 0.05448,-0.270137 6.63e-4,-0.0393 0.04301,-0.04558 0.09421,-0.01397 0.05114,0.03161 0.168254,-0.0293 0.260235,-0.135359 0.09198,-0.106059 0.202472,-0.171063 0.245522,-0.144455 0.04301,0.02661 0.07824,-0.0094 0.07824,-0.08021 0,-0.07071 -0.03311,-0.128577 -0.07356,-0.128577 -0.04045,0 -0.07355,-0.06386 -0.07355,-0.141912 0,-0.09197 -0.04822,-0.123403 -0.137045,-0.08932 -0.07541,0.02892 -0.11465,0.01634 -0.08725,-0.02796 0.05325,-0.08615 -0.400521,-0.44728 -0.56201,-0.44728 -0.05325,0 -0.09676,-0.03974 -0.09676,-0.0883 0,-0.04856 -0.0596,-0.0883 -0.132454,-0.0883 -0.07286,0 -0.132462,-0.04038 -0.132462,-0.08971 0,-0.04933 -0.111351,-0.08123 -0.247446,-0.07086 -0.172129,0.01311 -0.251287,0.06984 -0.260065,0.186371 -0.01041,0.138334 0.02883,0.157904 0.225368,0.112328 0.177459,-0.04114 0.204298,-0.03239 0.105527,0.03445 -0.105064,0.07109 -0.08224,0.08991 0.110384,0.09099 0.160501,8.83e-4 0.242839,0.04804 0.242839,0.139025 0,0.07573 -0.02981,0.119287 -0.06624,0.09681 -0.03643,-0.02247 -0.07395,0.08447 -0.08339,0.237635 -0.02936,0.476139 -0.155379,0.966633 -0.247757,0.964246 -0.168158,-0.0043 -0.485695,0.149176 -0.485695,0.234822 0,0.0473 -0.12915,0.210724 -0.287,0.363145 -0.242493,0.234149 -0.256812,0.268357 -0.09234,0.220574 0.115533,-0.03357 0.279937,-6.84e-4 0.404434,0.08088 0.115373,0.07559 0.236401,0.110813 0.268951,0.07827 0.03254,-0.03254 0.05918,0.0056 0.05918,0.08495 0,0.07927 0.117721,0.264565 0.261606,0.411756 0.252608,0.25841 0.256061,0.27295 0.100286,0.422507 -0.08872,0.08519 -0.206987,0.242691 -0.262798,0.350005 -0.138489,0.266281 -0.621299,0.479549 -1.036249,0.457734 -0.188821,-0.0099 -0.512198,0.01151 -0.718619,0.04763 -0.311541,0.05451 -0.375309,0.04185 -0.375309,-0.07455 0,-0.07713 -0.03974,-0.140225 -0.0883,-0.140225 -0.04856,0 -0.0883,0.04438 -0.0883,0.0986 0,0.05755 -0.0919,0.08104 -0.22077,0.05641 -0.121423,-0.02321 -0.220769,-0.0056 -0.220769,0.03906 0,0.0447 -0.03389,0.06033 -0.07531,0.03475 -0.04142,-0.02559 -0.150169,0.0082 -0.241675,0.07513 -0.157778,0.11537 -0.158513,0.130348 -0.01423,0.289794 0.119673,0.132235 0.129175,0.191123 0.04451,0.275794 -0.08467,0.08468 -0.06556,0.118664 0.08951,0.159216 0.208029,0.0544 0.230456,0.106392 0.143568,0.332817 -0.0612,0.159476 -0.347836,0.187706 -0.437232,0.04306 -0.03284,-0.05315 -0.14894,-0.07957 -0.257991,-0.05872 -0.239994,0.04587 -0.47243,-0.248265 -0.318122,-0.402575 0.122035,-0.122034 0.124826,-0.265363 0.0037,-0.19051 -0.05955,0.03681 -0.07171,-0.02346 -0.03457,-0.171405 0.06423,-0.255895 -0.0135,-0.283719 -0.263712,-0.09439 -0.135409,0.102459 -0.195839,0.106322 -0.301362,0.01927 -0.104696,-0.08638 -0.139625,-0.08621 -0.168908,7.91e-4 -0.02561,0.07611 -0.08459,0.08415 -0.192689,0.02632 -0.190085,-0.101731 -0.672189,-0.06788 -0.660358,0.04637 0.0047,0.0454 0.06078,0.311284 0.124608,0.590831 0.127153,0.556856 0.08316,0.69594 -0.154693,0.489028 -0.18542,-0.161304 -0.489508,-0.175186 -0.429813,-0.01962 0.0536,0.139672 -0.357477,0.103628 -0.504161,-0.0442 -0.08033,-0.08096 -0.06374,-0.09072 0.07244,-0.04262 0.145084,0.05125 0.156908,0.04114 0.06624,-0.05658 -0.06071,-0.06542 -0.110385,-0.155622 -0.110385,-0.200426 0,-0.04479 0.04968,-0.04032 0.110385,0.0099 0.08352,0.06915 0.114894,0.02879 0.128907,-0.165804 0.01995,-0.276897 -0.0583,-0.313012 -0.345335,-0.159395 -0.146261,0.07828 -0.158323,0.113033 -0.06042,0.174102 0.09166,0.05717 0.09859,0.114353 0.02771,0.228099 -0.160207,0.257022 -0.29647,0.235539 -0.598667,-0.09438 -0.159855,-0.174522 -0.337497,-0.317312 -0.39476,-0.317312 -0.05728,0 -0.104116,-0.05727 -0.104116,-0.12725 0,-0.06999 -0.0338,-0.148145 -0.07514,-0.173684 -0.0976,-0.06032 -0.584517,0.311779 -0.596013,0.455472 -0.01946,0.243188 -0.03911,0.287001 -0.128843,0.287001 -0.05143,0 -0.06478,-0.04649 -0.02966,-0.103314 0.04303,-0.06962 0.01557,-0.08478 -0.08418,-0.0465 -0.122615,0.04706 -0.139236,0.0155 -0.09678,-0.183685 0.04935,-0.231538 0.04623,-0.233917 -0.08419,-0.06388 -0.07451,0.09714 -0.176563,0.224612 -0.226788,0.283273 -0.05023,0.05866 -0.09133,0.159996 -0.09133,0.225186 0,0.06519 -0.04968,0.172045 -0.110385,0.237452 -0.0883,0.09514 -0.0883,0.106461 0,0.05661 0.06071,-0.03428 0.110385,-0.02023 0.110385,0.0312 0,0.05143 -0.0596,0.09352 -0.132462,0.09352 -0.07286,0 -0.132462,0.03554 -0.132462,0.07897 0,0.07412 -0.332394,0.08924 -0.529245,0.02407 z m 0.410728,-1.025757 c -0.03496,-0.09113 -0.0059,-0.112241 0.100942,-0.07333 0.12998,0.04732 0.127548,0.02902 -0.01818,-0.13696 -0.227968,-0.25963 -0.331614,-0.240897 -0.283597,0.05125 0.02195,0.133567 0.04318,0.252784 0.04718,0.264925 0.004,0.01215 0.05125,0.02208 0.105017,0.02208 0.05376,0 0.07567,-0.05758 0.04866,-0.127966 z m 6.017049,-0.424219 c 0.06429,-0.07746 0.05807,-0.173734 -0.02076,-0.321009 -0.07377,-0.137842 -0.134247,-0.17531 -0.175423,-0.108685 -0.03456,0.05592 -0.105974,0.07502 -0.158692,0.04245 -0.06377,-0.03941 -0.06958,-0.01773 -0.01733,0.06479 0.07703,0.121666 0.09216,0.167276 0.114343,0.344799 0.01525,0.122042 0.147543,0.110583 0.257856,-0.02233 z M 20.143068,17.49578 c 0,-0.04856 -0.05727,-0.0883 -0.127251,-0.0883 -0.06999,0 -0.151811,0.03974 -0.181828,0.0883 -0.03002,0.04856 0.02725,0.0883 0.12725,0.0883 0.100009,0 0.181829,-0.03974 0.181829,-0.0883 z m -1.236313,-0.132462 c 0,-0.07286 -0.06448,-0.132462 -0.143275,-0.132462 -0.117344,0 -0.123378,0.02398 -0.03334,0.132462 0.06047,0.07286 0.124937,0.132462 0.143275,0.132462 0.01835,0 0.03334,-0.0596 0.03334,-0.132462 z m -0.488082,-0.823704 c -0.131944,-0.01594 -0.282744,0.01386 -0.33511,0.06624 -0.06808,0.06808 -0.06502,0.09521 0.01076,0.09521 0.05829,0 0.105968,0.05935 0.105968,0.131879 0,0.09995 0.05547,0.08392 0.229142,-0.06624 l 0.229139,-0.198109 z m 1.332207,0.296713 c 0.164727,-0.124593 0.162308,-0.129764 -0.06199,-0.132462 -0.128369,-0.0014 -0.256272,0.0568 -0.28423,0.129653 -0.0652,0.169905 0.123269,0.171434 0.346212,0.0029 z m 16.851758,-0.803648 c 0.03983,-0.103675 0.0052,-0.13146 -0.138175,-0.110386 -0.105237,0.01549 -0.207701,0.07783 -0.227694,0.138547 -0.05378,0.163212 0.302968,0.135755 0.365869,-0.02817 z m -1.888741,-0.567881 c 0,-0.04856 -0.01749,-0.0883 -0.03894,-0.0883 -0.02137,0 -0.06349,0.03974 -0.09352,0.0883 -0.03003,0.04857 -0.01255,0.0883 0.03894,0.0883 0.05149,0 0.09352,-0.03974 0.09352,-0.0883 z m -4.238786,-0.0883 c 0,-0.04856 -0.04212,-0.0883 -0.09353,-0.0883 -0.05149,0 -0.06897,0.03974 -0.03894,0.0883 0.03002,0.04856 0.07206,0.0883 0.09353,0.0883 0.02145,0 0.03894,-0.03974 0.03894,-0.0883 z M 13.784888,15.028479 c 0,-0.152991 -0.155431,-0.181298 -0.265732,-0.04839 -0.09082,0.109423 -0.07767,0.131489 0.0783,0.131489 0.103085,0 0.187428,-0.03739 0.187428,-0.0831 z m 1.005528,-0.43055 c 0.02451,-0.03966 -0.07249,-0.141251 -0.215557,-0.225763 -0.148274,-0.08759 -0.260123,-0.228644 -0.260123,-0.328053 0,-0.09592 -0.0596,-0.197268 -0.132462,-0.225225 -0.07286,-0.02796 -0.132461,-0.106187 -0.132461,-0.173845 0,-0.155132 -0.215272,-0.159618 -0.369002,-0.0077 -0.06419,0.06344 -0.186235,0.141659 -0.271232,0.173845 -0.215107,0.08146 -0.203151,0.417294 0.01486,0.417294 0.259542,0 0.448762,0.0946 0.448762,0.224352 0,0.158538 0.827966,0.289501 0.917221,0.145083 z m 23.367494,-0.0698 c 0,-0.09312 -0.04804,-0.123481 -0.139686,-0.0883 -0.07682,0.02948 -0.178515,0.05361 -0.225979,0.05361 -0.04751,0 -0.06173,0.03974 -0.0317,0.0883 0.08895,0.143924 0.397388,0.102315 0.397388,-0.05361 z m -3.235465,-0.07885 c -0.02799,-0.07286 -0.106181,-0.132463 -0.173844,-0.132463 -0.152957,0 -0.161894,0.146206 -0.01263,0.20644 0.194993,0.07868 0.238441,0.06144 0.186472,-0.07397 z m 1.064191,0.07905 c 0.07656,-0.02938 0.117194,-0.08898 0.0903,-0.132461 -0.077,-0.124549 -0.279371,-0.09231 -0.335288,0.0534 -0.05421,0.141332 0.02014,0.165332 0.244975,0.07905 z m -1.136648,-1.000426 c -0.03197,-0.0518 -0.10047,-0.09419 -0.152119,-0.09419 -0.05855,0 -0.05183,0.05068 0.01784,0.134597 0.121115,0.145938 0.229362,0.11337 0.134317,-0.04041 z M 28.83569,13.354664 c 0.02688,-0.04348 -0.0162,-0.104024 -0.09574,-0.13454 -0.171922,-0.06597 -0.248052,-0.01157 -0.167102,0.119412 0.07097,0.114832 0.196742,0.122073 0.262837,0.01513 z m 7.532146,-0.06262 c -0.02931,-0.02935 -0.105511,-0.03247 -0.16926,-0.007 -0.07047,0.02819 -0.04954,0.04911 0.05334,0.05336 0.09309,0.0038 0.145248,-0.01704 0.115905,-0.04638 z M 12.926692,13.080486 c 0.07204,0 0.07169,-0.02706 -0.0013,-0.10003 -0.115638,-0.115638 -0.37683,-0.04168 -0.37683,0.106711 0,0.05539 0.06272,0.07645 0.139685,0.04692 0.07682,-0.02948 0.18412,-0.05361 0.238432,-0.05361 z m 18.343192,-2.560939 c 0,-0.04857 -0.03736,-0.08831 -0.08311,-0.08831 -0.04575,0 -0.107657,0.03974 -0.137681,0.08831 -0.03003,0.04857 0.0071,0.08831 0.08311,0.08831 0.07577,0 0.137681,-0.03974 0.137681,-0.08831 z m -2.296013,-0.220761 c 0,-0.07285 -0.0596,-0.132462 -0.132461,-0.132462 -0.07286,0 -0.132462,0.05961 -0.132462,0.132462 0,0.07285 0.0596,0.132462 0.132462,0.132462 0.07286,0 0.132461,-0.05961 0.132461,-0.132462 z M 28.377079,9.8585468 c 0.03735,-0.195378 0.01208,-0.2220753 -0.210226,-0.2220753 -0.138973,0 -0.252678,-0.047333 -0.252678,-0.1051863 0,-0.057851 -0.0621,-0.028047 -0.13801,0.06623 -0.09789,0.1215825 -0.151373,0.1393263 -0.183974,0.06103 -0.07092,-0.17031 -0.207865,-0.1305669 -0.207865,0.060323 0,0.1332278 0.05935,0.1690225 0.270258,0.1630256 0.14864,-0.00423 0.334177,0.056235 0.412303,0.1343612 0.173813,0.173815 0.254675,0.132701 0.310192,-0.1577134 z m 4.60493,0.1692262 c 0.03974,-0.1036734 0.0052,-0.1314585 -0.138176,-0.1103847 -0.105237,0.015489 -0.2077,0.077834 -0.227694,0.1385467 -0.05378,0.163213 0.302968,0.135755 0.36587,-0.02816 z M 29.705921,9.7247796 c -0.05078,-0.1943368 -0.24372,-0.2354496 -0.343943,-0.073305 -0.04292,0.069471 -0.01571,0.084838 0.08311,0.046926 0.09596,-0.036816 0.146954,-0.011383 0.146954,0.073304 0,0.071327 0.03603,0.1296901 0.08001,0.1296901 0.04397,0 0.05926,-0.079477 0.03383,-0.1766161 z m 1.034113,0.0083 c 0,-0.044022 -0.07947,-0.059255 -0.176615,-0.033857 -0.09714,0.025407 -0.176616,0.061418 -0.176616,0.080043 0,0.018623 0.07947,0.033857 0.176616,0.033857 0.09714,0 0.176615,-0.036021 0.176615,-0.080043 z M 22.973589,9.3274318 c -0.007,-0.1310748 -0.204489,-0.106995 -0.250322,0.030511 -0.02476,0.074276 0.01561,0.1073808 0.107689,0.088308 0.08102,-0.016778 0.145199,-0.070249 0.142633,-0.118819 z m 4.360864,-0.0349 c 0.02688,-0.043483 -0.0067,-0.1003496 -0.07447,-0.1263777 -0.129486,-0.049691 -0.228897,0.0076 -0.228897,0.1318421 0,0.098619 0.241723,0.094265 0.303359,-0.00547 z M 21.070302,9.0183524 c 0.06907,-0.1117628 -0.04784,-0.1117628 -0.22077,0 -0.114155,0.073772 -0.111824,0.085791 0.01687,0.086957 0.08212,7.435e-4 0.173888,-0.038387 0.203905,-0.086957 z m 7.550337,-0.1324621 c 0,-0.072854 -0.05727,-0.1324621 -0.12725,-0.1324621 -0.170725,0 -0.255283,0.1501617 -0.116148,0.2062558 0.19278,0.077721 0.243398,0.062371 0.243398,-0.073791 z M 16.853593,19.112905 c -0.08499,-0.02221 -0.154539,-0.09318 -0.154539,-0.157734 0,-0.06454 -0.119216,-0.158906 -0.264924,-0.209701 -0.181738,-0.06336 -0.264925,-0.150996 -0.264925,-0.279113 0,-0.124985 -0.05113,-0.18156 -0.154539,-0.171041 -0.279659,0.02844 -0.345925,-0.0024 -0.437486,-0.203312 -0.119263,-0.261768 0.0078,-0.596078 0.226499,-0.596078 0.09351,0 0.191938,-0.05713 0.218732,-0.12696 0.04941,-0.128751 0.373425,-0.138324 0.569993,-0.01684 0.05865,0.03624 0.10665,0.03755 0.10665,0.0029 0,-0.03468 0.07276,0.0029 0.161705,0.08329 0.08894,0.08048 0.186434,0.121612 0.216658,0.09139 0.09801,-0.09801 0.504717,0.05405 0.504717,0.188711 0,0.07192 0.03871,0.13078 0.08604,0.13078 0.04732,0 0.145621,0.115218 0.218443,0.256041 0.103462,0.200071 0.108784,0.275064 0.02434,0.343063 -0.157517,0.126849 -0.537305,-0.03548 -0.473293,-0.202286 0.03608,-0.09403 -0.0092,-0.131895 -0.157938,-0.131895 -0.185979,0 -0.315755,0.14475 -0.315755,0.352189 0,0.04005 0.08941,0.05322 0.198694,0.02927 0.113008,-0.02477 0.160611,-0.01168 0.110384,0.03034 -0.0963,0.08058 -0.309078,0.438181 -0.309078,0.519446 0,0.02781 0.03974,0.026 0.0883,-0.004 0.04856,-0.03002 0.0883,-0.01249 0.0883,0.03894 0,0.09703 -0.02833,0.100245 -0.287001,0.03265 z M 16.30196,17.93699 c 0.102049,-0.165119 -0.10507,-0.08818 -0.273606,0.101629 -0.167059,0.18815 -0.166881,0.18876 0.02554,0.08783 0.106577,-0.05589 0.218202,-0.141158 0.248059,-0.189466 z m 21.728548,1.097106 c -0.143244,-0.104742 -0.147686,-0.125242 -0.02711,-0.125242 0.07929,0 0.17032,0.04237 0.202332,0.09419 0.0936,0.15145 0.0098,0.16631 -0.175186,0.03106 z m 0.01474,-0.225467 c -0.08372,-0.04686 -0.152261,-0.142842 -0.152261,-0.213283 0,-0.167196 -0.08854,-0.161656 -0.35566,0.02226 -0.20242,0.139364 -0.20959,0.139471 -0.09836,0.0014 0.105643,-0.131072 0.08982,-0.160846 -0.132462,-0.249159 -0.138847,-0.05517 -0.205007,-0.117998 -0.147024,-0.139631 0.137293,-0.05122 0.04433,-0.292846 -0.112681,-0.292846 -0.09239,0 -0.101075,-0.05196 -0.03691,-0.220771 0.06119,-0.160934 0.05458,-0.221136 -0.02429,-0.222123 -0.14614,-0.0018 0.119428,-0.172118 0.271212,-0.173911 0.06297,-7.43e-4 0.182189,0.117612 0.264924,0.263014 0.08274,0.145401 0.219976,0.264617 0.304971,0.264924 0.08495,3.07e-4 0.15454,0.06016 0.15454,0.133021 0,0.07286 0.0596,0.132461 0.132462,0.132461 0.08169,0 0.132463,0.08291 0.132463,0.216382 0,0.119011 0.06597,0.253297 0.146581,0.298414 0.133196,0.07454 0.130979,0.09038 -0.02437,0.173517 -0.11156,0.05971 -0.223835,0.06189 -0.323199,0.0063 z m -20.567979,-0.22506 c 0.06376,-0.02552 0.139914,-0.02238 0.169258,0.007 0.02934,0.02935 -0.02282,0.05021 -0.115905,0.04638 -0.102874,-0.0042 -0.123799,-0.02515 -0.05336,-0.05336 z m 14.057539,-0.415923 c 0,-0.06766 -0.0596,-0.145886 -0.132462,-0.173845 -0.07286,-0.02796 -0.132461,-0.113486 -0.132461,-0.190065 0,-0.110773 -0.06199,-0.127612 -0.303092,-0.08237 -0.276139,0.0518 -0.298781,0.04039 -0.254626,-0.128461 0.02667,-0.101926 0.08778,-0.185319 0.135922,-0.185319 0.04812,0 0.06455,-0.0596 0.03664,-0.132462 -0.031,-0.08069 -1.42e-4,-0.132462 0.07885,-0.132462 0.07232,0 0.129689,0.08094 0.129689,0.183025 v 0.183026 l 0.226404,-0.178091 c 0.251281,-0.197659 0.4994,-0.164507 0.414995,0.05545 -0.03921,0.102223 -0.01563,0.125802 0.08654,0.08658 0.08319,-0.03191 0.161479,7.97e-4 0.191955,0.08021 0.09864,0.257071 0.04998,0.389536 -0.17463,0.474916 -0.124346,0.04727 -0.201475,0.125769 -0.171396,0.17443 0.03011,0.04866 0.01263,0.08847 -0.03885,0.08847 -0.05148,0 -0.09353,-0.05536 -0.09353,-0.123013 z m 6.784063,-0.958759 c -0.06058,-0.109281 -0.101731,-0.228497 -0.09141,-0.264924 0.01033,-0.03643 -0.0786,-0.06623 -0.197626,-0.06623 -0.263794,0 -0.421335,-0.239978 -0.30287,-0.461337 0.10247,-0.191451 0.370152,-0.204008 0.519252,-0.02435 0.0605,0.07286 0.180299,0.132462 0.266293,0.132462 0.08601,0 0.180475,0.06285 0.209952,0.139684 0.08266,0.215299 0.06349,0.478472 -0.03471,0.478472 -0.04856,0 -0.0883,0.0596 -0.0883,0.132462 0,0.196883 -0.154963,0.160304 -0.280581,-0.06623 z m -7.130327,-0.02943 c 0.0044,-0.102875 0.02516,-0.123799 0.05334,-0.05336 0.02552,0.06374 0.02235,0.139912 -0.0071,0.169257 -0.02932,0.02935 -0.05025,-0.02282 -0.04636,-0.115904 z M 9.3694857,16.338871 c -0.10642,-0.07601 -0.0934,-0.08606 0.06623,-0.05107 0.161558,0.03541 0.1986933,0.0051 0.1986933,-0.161732 0,-0.297026 0.08912,-0.484649 0.230218,-0.484649 0.06766,0 0.123014,-0.0596 0.123014,-0.132463 0,-0.07358 0.0785,-0.132462 0.176617,-0.132462 0.09714,0 0.176707,-0.02981 0.176817,-0.06624 1.1e-4,-0.03643 0.119327,-0.07046 0.264925,-0.07563 0.145597,-0.0051 0.264723,0.02463 0.264723,0.06624 0,0.0416 0.06977,0.07563 0.15506,0.07563 0.08903,0 0.20754,0.118563 0.278294,0.278409 0.112003,0.253032 0.107931,0.289843 -0.04468,0.403857 -0.309144,0.230965 -0.476326,0.300822 -0.488027,0.203921 -0.006,-0.05029 -0.016,-0.140544 -0.02208,-0.200591 -0.02136,-0.211241 -0.306256,-0.16252 -0.610207,0.104351 -0.320813,0.281677 -0.5460203,0.332134 -0.7696065,0.172429 z m 19.9010593,-0.04967 c 0.0317,-0.05656 0.0079,-0.120666 -0.05325,-0.142451 -0.06102,-0.02179 -0.08045,-0.0722 -0.04328,-0.112039 0.03726,-0.03984 0.11473,-0.02541 0.172201,0.03207 0.08045,0.08046 0.07718,0.129891 -0.01439,0.214882 -0.07648,0.07095 -0.09832,0.07365 -0.06129,0.0075 z m 1.911031,-0.427006 c 0,-0.07286 0.03974,-0.132462 0.0883,-0.132462 0.04856,0 0.0883,0.0596 0.0883,0.132462 0,0.07286 -0.03974,0.132462 -0.0883,0.132462 -0.04856,0 -0.0883,-0.0596 -0.0883,-0.132462 z M 31.071189,15.58294 c 0.06076,-0.02449 0.160059,-0.02449 0.220771,0 0.06076,0.0245 0.01104,0.04455 -0.110384,0.04455 -0.121424,0 -0.171097,-0.02004 -0.110387,-0.04455 z M 16.866103,15.297997 c -0.116162,-0.09418 -0.187029,-0.195507 -0.157482,-0.225187 0.02955,-0.02967 0.148762,0.02308 0.264924,0.11726 0.116161,0.09418 0.187028,0.195506 0.157481,0.225186 -0.02955,0.02967 -0.148762,-0.02308 -0.264923,-0.117259 z M 13.137296,11.87361 c -0.03238,-0.03238 -0.05888,-0.155847 -0.05888,-0.274372 0,-0.153186 -0.03748,-0.201116 -0.129634,-0.165755 -0.15447,0.05928 -0.267501,-0.0816 -0.132442,-0.165072 0.06583,-0.04068 0.06418,-0.0941 -0.0055,-0.178077 -0.05475,-0.06598 -0.110532,-0.258273 -0.123945,-0.427321 -0.02067,-0.260564 0.0079,-0.315459 0.18764,-0.360573 0.116614,-0.02927 0.251677,-0.02871 0.300141,0.0012 0.04846,0.02995 0.144242,0.0079 0.212842,-0.04905 0.151189,-0.125476 0.319414,-0.04138 0.254679,0.127312 -0.02696,0.07026 0.02618,0.144784 0.125805,0.176401 0.197274,0.06261 0.341035,0.576505 0.187774,0.671227 -0.05287,0.03268 -0.08314,0.130472 -0.06726,0.217325 0.04229,0.231426 -0.588287,0.589626 -0.751196,0.426717 z m 0.340905,-0.981662 c -0.05402,-0.140185 -0.06541,-0.139172 -0.151065,0.01343 -0.06911,0.123108 -0.06198,0.184107 0.02801,0.240017 0.144082,0.08951 0.206028,-0.03807 0.123044,-0.253446 z m 0.637842,-0.840377 C 13.840729,9.9427803 13.83252,9.918266 13.998247,9.6998007 14.132075,9.5233843 14.491071,9.4617691 14.88874,9.5469642 l 0.264922,0.056756 -0.331155,0.201714 c -0.182134,0.1109432 -0.331155,0.2375278 -0.331155,0.2812998 0,0.09572 -0.05777,0.09031 -0.375309,-0.03516 z M 25.396057,9.3849255 c -0.03164,-0.031641 -0.08402,-0.060968 -0.116406,-0.065162 -0.03238,-0.00423 -0.118479,-0.032753 -0.191333,-0.063458 -0.07286,-0.030705 -0.20644,-0.047148 -0.296858,-0.036524 -0.09042,0.010615 -0.209632,-0.060174 -0.264923,-0.1573127 -0.05529,-0.097138 -0.140066,-0.2048443 -0.188386,-0.2393462 -0.166607,-0.1189598 -0.132052,-0.4908984 0.05003,-0.5385131 0.112975,-0.029549 0.152702,-0.092453 0.117051,-0.1853568 -0.04582,-0.119396 0.06134,-0.191399 0.176428,-0.1185571 0.01919,0.012143 0.108598,-0.041425 0.198692,-0.1190392 0.249259,-0.2147254 0.449146,-0.258823 0.561198,-0.1238079 0.05567,0.067079 0.160295,0.099296 0.232495,0.071592 0.08374,-0.032135 0.148501,0.015498 0.178862,0.1316027 0.02617,0.1000872 0.103279,0.2033479 0.171346,0.2294677 0.06807,0.026122 0.123761,0.1050353 0.123761,0.1753664 0,0.070328 0.04678,0.1434653 0.103943,0.1625222 0.06726,0.022421 0.07588,0.079556 0.0244,0.1618978 -0.04375,0.069984 -0.08058,0.1731862 -0.08187,0.2293298 -0.0027,0.1164174 -0.464907,0.5023271 -0.630864,0.5266842 -0.06053,0.00889 -0.135938,-0.00974 -0.167583,-0.04138 z m 0.07743,-0.67569 c 0.03652,-0.095159 -0.0091,-0.132462 -0.161957,-0.132462 -0.238273,0 -0.372583,0.1373553 -0.201682,0.2062558 0.203404,0.082003 0.312337,0.059899 0.363639,-0.07379 z"
                id="path41"/>
        <path
                style="fill:url(#radialGradient47);stroke-width:1.09575"
                d="m 6.7033299,30.414794 c -0.029275,0.08364 0.2654347,-0.18948 0.5275757,-0.234232 0.628821,-0.10735 0.7790462,-0.26418 0.39347,-0.410776 -0.1644032,-0.0625 -0.3450126,-0.113647 -0.4013561,-0.113647 -0.1183422,0 -0.1306059,-0.127832 -0.03593,-0.37455 0.1000748,-0.260802 0.5215139,-0.21312 0.6471375,0.07321 0.077591,0.176853 0.201089,0.246545 0.4368902,0.246545 0.2771543,0 0.3341645,-0.04727 0.3633969,-0.301332 0.039302,-0.341627 0.3404807,-0.411103 0.57213,-0.131982 0.077308,0.09314 0.2066113,0.143999 0.2873549,0.113015 0.081617,-0.03132 0.1468077,0.01511 0.1468077,0.104589 0,0.09111 -0.1011816,0.160923 -0.2332053,0.160923 -0.1282632,0 -0.4857528,0.141426 -0.7944203,0.314279 -0.3086674,0.172854 -0.7890822,0.3692 -1.0675881,0.436326 -0.278505,0.06713 -0.593414,0.155447 -0.6997962,0.19627 -0.1367365,0.05247 -0.1048373,-0.186151 -0.1424662,-0.07864 z m 4.5811031,-0.315155 c 0,-0.08929 0.656809,-0.331427 0.903995,-0.333265 0.185861,-0.0015 0.06324,0.191994 -0.196912,0.310526 -0.337924,0.153969 -0.707083,0.16584 -0.707083,0.02274 z m 31.622447,0.617837 c 0,-0.367439 -0.465694,-0.276673 -0.465694,-0.443278 0,-0.193175 0.04116,-0.217385 0.246544,-0.145003 0.135599,0.04779 0.406797,0.07927 0.602663,0.06997 0.300323,-0.01427 0.356119,0.02133 0.356119,0.227304 0,0.134329 0.05917,0.303404 0.13149,0.375724 0.21277,0.212771 -0.871122,0.506701 -0.871122,-0.08471 z M 13.996417,29.401538 c -0.338826,-0.277419 -0.373475,-0.425717 -0.143973,-0.616188 0.11604,-0.0963 0.216083,-0.09917 0.38101,-0.01085 0.167378,0.08958 0.314186,0.08186 0.583454,-0.03064 0.238879,-0.09981 0.525121,-0.124962 0.85171,-0.07485 l 0.491908,0.07548 -0.383513,0.172339 c -0.210931,0.09479 -0.503053,0.299917 -0.649157,0.455846 -0.327377,0.349388 -0.72753,0.35961 -1.131439,0.02891 z M 12.92806,29.217837 c 0,-0.156535 0.07306,-0.21915 0.255674,-0.21915 0.329791,0 0.431265,0.106376 0.277834,0.29125 -0.190115,0.229076 -0.533508,0.182668 -0.533508,-0.0721 z m -2.794166,-0.197246 c 0,-0.08775 0.257501,-0.150477 0.438301,-0.192655 0.229482,-0.05354 0.295644,-0.04168 0.219149,0.03928 -0.06026,0.06378 -0.257501,0.150479 -0.4383,0.192659 -0.229482,0.05354 -0.21915,0.0721 -0.21915,-0.03928 z m 28.592986,0.550137 c -0.292391,-0.438588 -1.056029,-0.586189 -1.780597,-0.817332 -0.612889,-0.195517 -1.114345,-0.401312 -1.114345,-0.457322 0,-0.180712 0.567464,-0.108929 1.508474,0.190827 0.876119,0.279081 0.933058,0.284221 1.226743,0.110736 0.266932,-0.157679 0.325452,-0.160876 0.439062,-0.02398 0.0721,0.08687 0.09999,0.255925 0.06198,0.375679 -0.08367,0.263631 0.206964,0.450231 0.701247,0.450231 0.387806,0 0.397423,0.02344 0.158964,0.38737 -0.236555,0.361028 -0.670796,0.579889 -1.201524,-0.216203 z m -22.4521,-0.893199 c -0.08103,-0.131117 0.125094,-0.261033 0.271046,-0.170829 0.122545,0.07574 0.0421,0.272833 -0.111362,0.272833 -0.05316,0 -0.12501,-0.0459 -0.159684,-0.102004 z m -3.983623,-3.793422 c 0.02636,-0.0791 0.112656,-0.165389 0.191757,-0.191757 0.08218,-0.0274 0.123272,0.0137 0.09588,0.09588 -0.02636,0.0791 -0.112658,0.16539 -0.191757,0.191756 -0.08218,0.0274 -0.123272,-0.0137 -0.09588,-0.09588 z m 24.232975,2.599394 c 0,0.130887 1.213519,-1.413357 1.469753,-1.553261 0.128213,-0.07 0.417022,-0.161783 0.641796,-0.203951 0.334486,-0.06275 0.408679,-0.04462 0.408679,0.09989 0,0.0971 -0.07297,0.176557 -0.162137,0.176557 -0.08917,0 -0.261299,0.194378 -0.382501,0.431953 -0.300295,0.588628 -0.877196,1.006796 -1.483201,1.0751 -0.270814,0.03053 -0.492389,-0.07127 -0.492389,-0.02629 z m -4.602155,-0.449632 c 0,-0.275448 0.07373,-0.453045 0.245995,-0.592538 0.135298,-0.109553 0.282734,-0.17649 0.327635,-0.14874 0.08036,0.04966 -0.41754,1.13462 -0.52069,1.13462 -0.02911,0 -0.05294,-0.177003 -0.05294,-0.393342 z m 8.409891,-0.601611 c 0,0.268254 -0.247078,-0.356776 -0.03661,-0.53145 0.12359,-0.102573 0.169016,-0.08507 0.223322,0.08604 0.0375,0.118138 0.14026,0.242458 0.228366,0.276268 0.08811,0.0338 0.160191,0.112328 0.160191,0.174485 0,0.143501 -0.575269,-0.29517 -0.575269,-0.0054 z M 13.33496,25.590721 c -0.109787,-0.177641 0.128783,-0.231622 0.270261,-0.06115 0.110097,0.132659 0.103384,0.163156 -0.03591,0.163156 -0.09422,0 -0.199681,-0.0459 -0.234355,-0.102003 z m 22.65216,-1.149424 c 0.102295,-0.102295 -0.07034,-0.302592 -0.0443,-0.371095 0.02603,-0.0685 -0.10804,-0.235196 -0.29795,-0.370427 -0.320385,-0.228135 -0.418976,-0.240464 -1.366552,-0.170909 -0.613941,0.04507 -1.046938,0.03341 -1.085649,-0.02922 -0.103055,-0.166751 0.04397,-0.707484 0.266912,-0.981594 0.157037,-0.193082 0.341273,-0.261296 0.785638,-0.290883 0.31927,-0.02126 0.739169,-0.08876 0.933106,-0.15002 0.496527,-0.156823 0.905501,0.04369 0.906646,0.444503 9.37e-4,0.327951 0.131299,0.38948 0.967695,0.456752 0.585163,0.04706 0.816985,0.236619 0.539818,0.441394 -0.255404,0.188695 -0.241914,0.281874 0.0408,0.281874 0.196548,0 0.210972,0.02602 0.09313,0.168013 -0.07669,0.0924 -0.193673,0.14856 -0.259962,0.124786 -0.17583,-0.06306 -0.904301,0.326636 -0.980171,0.524348 -0.09628,0.250923 -0.712027,0.135344 -0.499173,-0.07751 z m 4.31869,-0.07124 c -0.325772,-0.325771 -0.493088,-0.08933 -0.493088,-0.385317 0,-0.175778 0.06681,-0.341865 0.148467,-0.369084 0.106804,-0.0356 0.128118,0.01462 0.07596,0.178976 -0.07494,0.236129 0.0313,0.292333 0.698382,0.369451 0.145946,0.01688 0.285654,0.09231 0.310464,0.167644 0.0248,0.07533 -0.02063,0.129564 -0.100996,0.120512 -0.08035,-0.0091 -0.445725,0.111282 -0.639187,-0.08218 z m -1.480604,-1.720253 c 0,-0.12409 0.04931,-0.225617 0.109575,-0.225617 0.06027,0 0.109576,0.07105 0.109576,0.157897 0,0.08683 -0.04931,0.188369 -0.109576,0.225616 -0.06026,0.03725 -0.109575,-0.0338 -0.109575,-0.157896 z m -25.873923,1.355027 c -0.08338,0 0.112657,-0.165389 0.191757,-0.191756 0.08218,-0.0274 0.123273,0.0137 0.09588,0.09588 -0.02636,0.0791 -0.112657,0.16539 -0.191756,0.191756 -0.08218,0.0274 -0.0093,-0.09588 -0.09588,-0.09588 z m 28.650719,-2.56994 c -0.02076,-0.268199 0.289639,-0.300086 0.626218,-0.06721 0.327568,0.226647 0.339098,0.25525 0.164363,0.407761 -0.103351,0.09022 -0.516926,0.07304 -0.597298,0.29544 -0.02943,0.08143 -0.193283,-0.635991 -0.193283,-0.635991 z m -31.010316,1.630532 c 0,-0.122315 -0.0268,-0.446793 0.322316,-0.218043 0.153761,0.100743 0.279565,0.23135 0.279565,0.290228 0,0.171966 -0.601881,-0.348533 -0.601881,-0.07219 z m 3.690032,-4.310669 c -0.03725,-0.06026 0.0092,-0.109575 0.10311,-0.109575 0.09396,0 0.17083,0.04931 0.17083,0.109575 0,0.06027 -0.04639,0.109576 -0.10311,0.109576 -0.05671,0 -0.133583,-0.04931 -0.17083,-0.109576 z m 12.524965,-2.464101 c 0,-0.351265 0.152395,-0.441582 0.262213,-0.1554 0.112686,0.29365 0.07418,0.484125 -0.09785,0.484125 -0.109575,0 -0.164362,-0.109574 -0.164363,-0.328725 z M 9.5412543,25.332837 c -0.0452,-0.04558 -0.082183,-0.183142 -0.082183,-0.305683 0,-0.161271 0.033101,-0.189703 0.119852,-0.102957 0.06592,0.06592 0.102902,0.203475 0.08218,0.305684 -0.02072,0.102212 -0.07466,0.148536 -0.119851,0.102957 z M 21.468617,17.842963 c -0.24069,-0.04513 0.02188,-0.377911 0.169268,-0.230526 0.06224,0.06224 0.06385,0.166826 0.0041,0.263562 -0.08406,0.136027 -6.4e-4,-6.49e-4 -0.173336,-0.03303 z M 7.5971893,21.581424 c 0,0.05682 -0.073057,-0.124003 -0.073057,-0.186278 0,-0.06866 0.051041,-0.0622 0.1296633,0.01644 0.071312,0.07131 0.1041846,0.155139 0.073057,0.186277 -0.031142,0.03114 -0.1296633,-0.07326 -0.1296633,-0.01644 z M 16.398385,18.35119 c -0.03725,-0.06027 0.0092,-0.109576 0.10311,-0.109576 0.09396,0 0.17083,0.04931 0.17083,0.109576 0,0.06026 -0.04639,0.109575 -0.10311,0.109575 -0.05671,0 -0.133583,-0.04931 -0.17083,-0.109575 z m -4.163855,0.648381 c 0.03224,-0.419111 -0.665749,-0.171625 -0.617267,-0.413198 0.0476,-0.23715 0.390457,-0.25723 0.490429,-0.268198 0.377532,-0.276996 0.681461,-0.238809 0.563863,0.06766 -0.03492,0.09099 0.01272,0.228686 0.10586,0.305987 0.178899,0.148474 0.225262,0.399988 0.08717,0.472894 -0.0452,0.02387 -0.654784,0.156335 -0.630056,-0.165132 z m 16.710207,-2.604553 c 0,-0.130149 0.581978,-0.564043 0.756547,-0.564043 0.134297,0 0.166133,0.398246 0.03787,0.473736 -0.21373,0.125791 -0.794419,0.191802 -0.794419,0.09031 z m -18.735453,2.547473 c 0.0011,-0.0452 0.122015,-0.19609 0.268833,-0.335311 0.227266,-0.215512 0.302926,-0.233873 0.509082,-0.123542 l 0.242144,0.129591 -0.264432,0.203286 c -0.261936,0.201368 -0.759274,0.284281 -0.755627,0.125976 z m 1.313008,-1.184399 c 0,-0.09396 0.04931,-0.140355 0.109575,-0.10311 0.06027,0.03724 0.109575,0.114121 0.109575,0.17083 0,0.05671 -0.04931,0.103111 -0.109575,0.103111 -0.06026,0 -0.109575,-0.07687 -0.109575,-0.170831 z m 0.406286,-0.382204 c 0,0.608209 -0.724746,-0.589507 -0.579202,-0.735052 0.04033,-0.04033 0.169014,-0.01354 0.285988,0.05951 0.359285,0.224377 0.450414,0.163095 0.372786,-0.250693 -0.0614,-0.32727 -0.04188,-0.383514 0.13304,-0.383514 0.37904,0 0.932597,1.194188 0.689395,1.487227 -0.183117,0.220642 -0.902007,-0.880431 -0.902007,-0.177482 z m 24.159929,-1.947146 c 0,-0.109575 0.109576,-0.164362 0.328727,-0.164362 0.351264,0 0.441581,0.152396 0.1554,0.262213 -0.29365,0.112686 -0.484127,0.07418 -0.484127,-0.09785 z m -25.771541,2.061882 c 0,-0.06026 0.04931,-0.109574 0.109574,-0.109574 0.06027,0 0.109576,0.04931 0.109576,0.109574 0,0.06027 -0.04931,0.109576 -0.109576,0.109576 -0.06026,0 -0.109574,-0.04931 -0.109574,-0.109576 z m 24.541837,-4.690341 c 0.171087,0.146645 -0.129429,-0.304119 -0.296533,-0.136969 -0.04519,0.0452 -0.301508,0.08829 -0.569604,0.09576 -0.375329,0.01041 -0.523254,-0.03755 -0.643131,-0.208697 -0.2099,-0.299675 -0.0318,-0.626692 0.341322,-0.626692 0.302109,0 0.823614,-0.253172 1.215166,-0.589918 0.200341,-0.1723 0.272937,-0.184703 0.410906,-0.0702 0.09217,0.07649 0.167576,0.250272 0.167576,0.386178 0,0.292637 0.174795,0.457932 0.539292,0.509983 0.373892,0.05339 0.403777,0.271391 0.04939,0.360334 -0.163601,0.04106 -0.418943,0.170218 -0.567425,0.287015 -0.367424,0.289016 -0.876185,-0.203274 -0.646966,-0.0068 z m -19.521909,0.728831 c -0.03751,-0.06069 0.0089,-0.139931 0.10311,-0.176086 0.224977,-0.08634 0.532759,0.03527 0.445724,0.176086 -0.08824,0.142772 -0.460593,0.142772 -0.548834,0 z m 15.213665,-0.309187 c -0.336584,-0.05298 -0.227742,-0.344192 0.0051,-0.514372 0.141304,-0.103317 0.240611,-0.106243 0.410907,-0.01209 0.344626,0.19056 0.393936,0.320539 0.202041,0.532579 -0.223792,0.247288 -0.282534,0.04669 -0.61794,-0.0061 z m -15.95835,-0.603971 c 0,-0.237625 0.09672,-0.441982 0.300531,-0.363775 0.143599,0.05511 0.156174,0.113919 0.06199,0.289905 -0.136505,0.25506 -0.362521,0.299622 -0.362521,0.07388 z M 30.5908,10.872692 c 0.0013,-0.07533 0.09886,-0.260241 0.216713,-0.410907 0.117853,-0.150666 0.215374,-0.345436 0.216714,-0.432822 0.0018,-0.116542 0.03489,-0.1264294 0.124222,-0.037099 0.08933,0.089329 0.06911,0.241177 -0.07588,0.56979 -0.185387,0.420193 -0.487181,0.615032 -0.481773,0.311037 z m -3.064333,0.436037 c 0.008,-0.586345 0.03324,-0.654356 0.259153,-0.697543 0.324767,-0.06209 0.337295,-0.02912 0.272588,0.717176 -0.04865,0.561172 -0.0812,0.630057 -0.297597,0.630057 -0.224584,0 -0.242303,-0.04917 -0.234144,-0.64969 z M 24.402048,8.8257297 c -0.03467,-0.056102 -0.01293,-0.1329749 0.04832,-0.1708297 0.06125,-0.037858 0.111361,0.008 0.111361,0.1020034 0,0.1924709 -0.06575,0.2208115 -0.159683,0.068824 z m -7.367013,2.7728793 c 0.141304,-0.103317 0.240611,-0.106243 0.410907,-0.01209 0.344626,0.19056 0.236632,0.178965 0.04474,0.391005 -0.138553,0.135859 -1.227511,0.185221 -0.455647,-0.378915 z m 5.820838,-1.058333 c 0.291992,-0.213495 0.761822,0.08448 0.424183,0.457567 -0.261811,0.256718 -1.050404,1.27e-4 -0.424183,-0.457567 z m 3.986758,3.451447 c 0.208351,-0.152339 0.654101,-0.113688 0.330357,0.244042 -0.253165,0.290665 -0.91279,0.181648 -0.330357,-0.244042 z"
                id="path45"/></g></svg>
