<?xml version="1.0" encoding="UTF-8" standalone="no"?>
<svg
        width="500"
        height="500"
        viewBox="0 0 132.29166 132.29167"
        version="1.1"
        id="svg1"
        xmlns:xlink="http://www.w3.org/1999/xlink"
        xmlns="http://www.w3.org/2000/svg">
    <defs
            id="defs1">
        <linearGradient
                xlink:href="#linearGradient220"
                id="linearGradient236"
                gradientUnits="userSpaceOnUse"
                gradientTransform="matrix(1.0583333,0,0,1.0583333,199.70237,-111.4296)"
                x1="56.521057"
                y1="28.951525"
                x2="106.59054"
                y2="29.004498"/>
        <linearGradient
                id="linearGradient220">
            <stop
                    style="stop-color:#5e4a7f;stop-opacity:1;"
                    offset="0"
                    id="stop215"/>
            <stop
                    style="stop-color:#ed6a80;stop-opacity:1;"
                    offset="0.25"
                    id="stop216"/>
            <stop
                    id="stop217"
                    offset="0.34999999"
                    style="stop-color:#fd896b;stop-opacity:1;"/>
            <stop
                    style="stop-color:#fcad61;stop-opacity:1;"
                    offset="0.44999999"
                    id="stop218"/>
            <stop
                    id="stop219"
                    offset="0.64999998"
                    style="stop-color:#fedd81;stop-opacity:1;"/>
            <stop
                    id="stop220"
                    offset="0.99999994"
                    style="stop-color:#340312;stop-opacity:1;"/>
        </linearGradient>
        <linearGradient
                xlink:href="#linearGradient220"
                id="linearGradient213"
                gradientUnits="userSpaceOnUse"
                gradientTransform="matrix(1.0583333,0,0,1.0583333,200.23154,-111.4296)"
                x1="56.521057"
                y1="28.951525"
                x2="106.59054"
                y2="29.004498"/>
        <radialGradient
                xlink:href="#linearGradient133"
                id="radialGradient213"
                gradientUnits="userSpaceOnUse"
                gradientTransform="matrix(1.6797217,0,0,1.6797217,-68.275001,-92.958389)"
                cx="94.946419"
                cy="223.17397"
                fx="94.946419"
                fy="223.17397"
                r="3.96875"/>
        <linearGradient
                id="linearGradient133">
            <stop
                    style="stop-color:#f76a02;stop-opacity:1;"
                    offset="0.49801582"
                    id="stop132"/>
            <stop
                    style="stop-color:#fa8827;stop-opacity:0.49803922;"
                    offset="0.7410714"
                    id="stop167"/>
            <stop
                    style="stop-color:#fc9c3a;stop-opacity:0.14772727;"
                    offset="0.85565478"
                    id="stop168"/>
            <stop
                    style="stop-color:#fec34d;stop-opacity:0;"
                    offset="1"
                    id="stop133"/>
        </linearGradient>
        <radialGradient
                xlink:href="#linearGradient128"
                id="radialGradient214"
                gradientUnits="userSpaceOnUse"
                gradientTransform="matrix(0.98420974,0,0,0.98420974,-2.2386379,62.808766)"
                cx="94.946419"
                cy="223.17397"
                fx="94.946419"
                fy="223.17397"
                r="3.96875"/>
        <linearGradient
                id="linearGradient128">
            <stop
                    style="stop-color:#fffadb;stop-opacity:1;"
                    offset="0.05357143"
                    id="stop129"/>
            <stop
                    style="stop-color:#feec8e;stop-opacity:0.90625;"
                    offset="1"
                    id="stop131"/>
        </linearGradient>
        <linearGradient
                xlink:href="#linearGradient122"
                id="linearGradient214"
                gradientUnits="userSpaceOnUse"
                gradientTransform="matrix(0.44975452,0,0,0.61248751,-17.712399,-555.19477)"
                x1="160.87518"
                y1="1362.5927"
                x2="277.37753"
                y2="1399.5332"/>
        <linearGradient
                id="linearGradient122">
            <stop
                    style="stop-color:#763434;stop-opacity:1;"
                    offset="0"
                    id="stop123"/>
            <stop
                    style="stop-color:#612430;stop-opacity:1;"
                    offset="0.50396824"
                    id="stop124"/>
            <stop
                    style="stop-color:#4e1e3a;stop-opacity:1;"
                    offset="1"
                    id="stop122"/>
        </linearGradient>
        <linearGradient
                xlink:href="#linearGradient126"
                id="linearGradient215"
                gradientUnits="userSpaceOnUse"
                gradientTransform="matrix(1.0334202,0,0,1.0334202,-17.55015,123.70954)"
                x1="77.336517"
                y1="168.91341"
                x2="124.54729"
                y2="187.26048"/>
        <linearGradient
                id="linearGradient126">
            <stop
                    style="stop-color:#31070e;stop-opacity:1;"
                    offset="0"
                    id="stop125"/>
            <stop
                    style="stop-color:#340213;stop-opacity:1;"
                    offset="0.5"
                    id="stop128"/>
            <stop
                    style="stop-color:#2c0616;stop-opacity:1;"
                    offset="1"
                    id="stop126"/>
        </linearGradient>
    </defs>
    <g id="layer1">
        <g
                id="g1"
                transform="matrix(2.4999999,0,0,2.4752451,-58.869799,32.745452)">
            <g
                    id="g238"
                    transform="translate(-30.44082,-272.78021)">
                <circle
                        style="fill:url(#linearGradient236);fill-rule:evenodd;stroke-width:0.281447"
                        id="circle235"
                        cx="286.00937"
                        cy="-80.447075"
                        r="26.458334"
                        transform="rotate(90)"/>
                <circle
                        style="fill:url(#linearGradient213);fill-rule:evenodd;stroke-width:0.281447"
                        id="circle200"
                        cx="286.53854"
                        cy="-80.447075"
                        r="26.458334"
                        transform="rotate(90)"/>
                <circle
                        style="opacity:0.845652;fill:url(#radialGradient213);fill-rule:evenodd;stroke-width:0.186008"
                        id="circle201"
                        cx="91.208549"
                        cy="281.91193"
                        r="6.6663961"/>
                <circle
                        style="opacity:0.845652;fill:url(#radialGradient214);fill-rule:evenodd;stroke-width:0.108989"
                        id="circle202"
                        cx="91.208549"
                        cy="282.45877"
                        r="3.9060826"/>
                <path
                        id="path202"
                        style="fill:#d49255;fill-opacity:1;stroke-width:0.118443"
                        d="m 59.576426,285.09506 c -0.541894,0.0745 -0.703433,0.56248 -1.117761,0.67851 -2.449141,-0.35732 -1.219991,0.76528 -3.300057,1.34669 -0.240601,0.0857 -0.655775,0.21639 -1.101225,0.38189 a 26.458334,26.458334 0 0 0 1.872754,8.8222 c 5.232728,-2.91584 13.094232,-7.47201 13.636377,-8.86406 0.730224,-3.00705 -8.463026,-1.75511 -9.990088,-2.36523 z"/>
                <path
                        id="path203"
                        style="fill:#d49255;fill-opacity:1;stroke-width:0.114319"
                        d="m 103.67089,285.43199 c -0.21781,0.087 -1.47648,-0.0505 -2.17558,0.51986 -4.031302,3.28876 -13.784837,13.8682 -13.184204,16.34164 0.301004,0.77289 3.983635,2.37128 8.389152,4.0473 a 28.579935,28.579935 0 0 0 6.721552,-6.80992 26.458334,26.458334 0 0 0 3.46077,-12.67468 c -0.56729,-0.5116 -0.40606,-1.02078 -2.13217,-0.76894 -0.3999,-0.112 -0.55651,-0.58337 -1.07952,-0.65526 z"/>
                <path
                        id="path204"
                        style="fill:url(#linearGradient214);fill-opacity:1;stroke-width:0.138867"
                        d="m 67.340293,278.64016 c -0.439843,-0.003 -0.154019,0.48162 -0.579809,0.50126 -0.58816,0.0272 -0.969185,-0.34012 -1.578199,-0.3421 -1.069248,-0.003 -2.587254,0.66654 -2.986381,0.68161 -0.351176,0.0534 -0.954333,-0.4205 -1.097607,-0.0584 -0.459055,1.15979 0.07177,1.28752 -0.276986,3.96978 -0.03648,1.31208 -0.373645,3.90737 -0.609265,4.88187 -0.08454,0.34945 -0.362961,0.0922 -0.12454,-1.97869 0.105976,-0.92039 -0.228226,-2.30079 -0.09663,-2.98535 0.03017,-0.15676 -0.237079,-0.31537 -0.126091,-0.59582 0.189602,-0.47915 0.46222,-0.4309 0.404627,-1.24489 -0.03741,-0.5284 0.0084,-0.77853 -0.737939,-0.53795 -0.207025,0.0666 -0.539526,-0.14386 -0.765845,0.13953 -0.318169,0.39839 0.0156,0.39831 -0.04082,0.74 -0.121963,0.7387 0.435047,2.52446 -0.02429,3.27525 -0.365748,0.59788 0.05766,1.23569 -0.287837,2.13476 -0.09414,0.24501 -0.269399,0.94313 -0.54777,0.96221 -0.977584,0.0669 0.298551,1.35519 -1.593701,2.58176 -1.010312,0.65489 -1.202191,2.51635 -1.107943,2.86907 0.360332,1.34845 7.049766,-0.40264 8.260477,1.36013 1.514817,0.2431 10.865081,7.74459 13.275676,8.16126 3.509036,0.60659 12.30559,-3.63537 13.132015,-3.406 4.079701,-2.03904 5.385298,-0.99768 8.546248,-2.31975 0.104053,0 4.593187,-1.81358 7.361307,-3.18379 a 26.458334,26.458334 0 0 0 0.69557,-3.01687 c -0.43314,-0.27961 -0.92814,-0.66461 -1.41335,-1.15807 -1.38553,-2.1058 -1.41541,-5.27758 -2.16421,-5.9986 l -2.15594,-1.55442 c -0.64679,-0.57313 -0.867376,0.49759 -1.782841,-0.0584 -0.559886,-0.29646 -2.148932,0.21551 -3.601331,-0.1881 -0.912292,-0.25351 -1.240933,0.58858 -2.174027,0.38654 -1.575004,-0.34105 -0.678316,0.40351 -2.442745,0.0486 -1.391541,-0.27988 -1.053778,0.093 -2.240174,-0.49196 -0.829474,-0.40901 -2.949135,-0.11926 -3.843693,-0.79323 -0.900097,-0.67815 -2.984547,-0.72728 -3.923274,-1.25987 -0.577527,-0.32765 -0.669919,0.45146 -1.302763,0.22634 -0.735424,-0.26162 -1.818099,-0.94681 -2.57142,-0.93327 -1.930996,0.0347 -3.429209,-0.23801 -3.654557,-0.2651 -1.426675,-0.0901 -2.292675,-0.47334 -3.449402,-0.092 -0.811348,0.32746 -1.51609,-0.45052 -2.374532,-0.45733 z"/>
                <path
                        id="path206"
                        style="fill:#2c050e;fill-opacity:1;stroke-width:0.0866116"
                        d="m 67.236255,296.61299 c -0.116818,-6.5e-4 -2.520419,-1.67937 -2.671825,-1.9915 -0.184682,-0.38074 1.986037,-1.32214 1.001467,-2.09812 -0.214796,-0.16928 -0.868001,-0.0233 -1.091726,-0.13533 -0.369107,-0.1848 -0.603331,0.27107 -1.051981,0.14281 -0.913956,-0.26128 -1.083716,-0.24855 -1.40916,7.4e-4 -0.317777,0.24342 -0.55133,0.44491 -0.898963,0.6614 -0.957298,0.59617 -0.328059,1.41506 -0.771499,1.83975 -0.512432,0.49079 0.607237,1.54188 0.357946,1.68057 -0.41741,0.23229 0.09259,0.26781 -0.86209,0.93212 1.638188,0.18277 -0.545698,0.47207 1.524025,0.55079 2.061416,0.0617 0.349111,-0.26014 0.673884,-0.15588 0.5569,0.1787 1.967136,0.75411 3.081907,0.0143 1.480344,-0.84622 0.187338,-0.6877 0.07936,-0.68832 z"
                />
                <path
                        id="path207"
                        style="fill:#310119;fill-opacity:1;stroke-width:0.0866116"
                        d="m 58.38455,292.38525 c -0.03885,-10e-4 -0.07794,-7.3e-4 -0.116272,5.2e-4 -0.204432,0.006 -0.399922,0.0489 -0.573092,0.15038 -0.812215,0.47596 -1.451321,-0.0412 -1.637109,-0.10439 -0.224633,-0.0764 -0.784317,0.0636 -1.275891,0.28061 a 26.458334,26.458334 0 0 0 2.125968,5.78569 c 0.684913,-0.006 1.317767,-0.009 2.097547,-0.12816 1.134321,-0.64842 1.452329,-0.65775 1.490865,-0.62683 l 0.771012,-0.65733 c -0.116808,-6.5e-4 -0.378287,-1.39836 -0.529683,-1.71049 -0.314851,-0.64909 1.162078,-2.16875 -0.580843,-2.66702 -0.05715,-0.0163 -0.121644,-0.0245 -0.192753,-0.0269 -0.367041,-0.0108 -0.997024,-0.27911 -1.579749,-0.29611 z m 2.112016,5.35782 -0.02687,0.0227 c 0.02521,1.3e-4 0.03865,-0.0133 0.02687,-0.0227 z"/>
                <path
                        id="path208"
                        style="fill:#3d011f;fill-opacity:1;stroke-width:0.0879608"
                        d="m 83.035242,292.12429 v 5.1e-4 5.2e-4 c -0.04899,0.004 -0.09963,0.0138 -0.152963,0.0295 -0.645111,0.19079 -0.262682,2.21423 1.083138,2.94969 2.337127,1.2772 6.148072,2.59383 7.029029,2.54765 0.351817,-0.0185 2.428056,0.59155 2.30942,0.59221 l 5.219319,-0.11007 c -0.109656,6.1e-4 -0.162392,-1.3157 1.341004,-0.45631 1.132141,0.75135 3.072981,0.95148 3.638541,0.76998 0.0482,-0.0155 0.27065,-0.0332 0.53898,-0.0517 a 26.458334,26.458334 0 0 0 1.79317,-4.40749 c -0.19372,-0.0849 -0.28776,-0.15277 -1.15341,-0.33951 -1.13439,-0.24472 -1.11022,-0.49597 -2.30839,-0.88677 -1.26853,-0.41375 -1.31675,0.15336 -3.535185,0.16175 -1.108579,0.004 -2.167732,-0.0656 -3.116606,0.004 -0.709369,0.0524 -1.356794,0.27542 -1.916679,0.1633 -0.226485,-0.0453 -1.205988,-0.30686 -1.539957,-0.20464 -0.717689,0.21964 -1.222998,1.134 -2.020032,1.01131 -1.24224,-0.1912 -1.355681,-0.69744 -2.228805,-0.66301 -1.126602,0.0444 -2.087284,0.0139 -2.483052,-0.20619 -0.271376,-0.15085 -0.754327,-0.17381 -1.196827,0.0124 -0.311306,0.13115 -0.566401,-0.98524 -1.300695,-0.91725 z"/>
                <path
                        id="path209"
                        style="fill:#330310;fill-opacity:1;stroke-width:0.0866116"
                        d="m 96.06132,295.58609 v 5.2e-4 c -0.342289,-0.006 -0.6283,10e-4 -0.794784,0.0284 -0.736641,0.11883 -4.560142,0.32991 -4.633308,0.35088 -1.742942,0.49825 6.940032,2.69265 8.306986,2.62103 0.346433,-0.0182 2.131216,0.49803 4.313436,0.49868 l 0.39842,0.0238 a 26.458334,26.458334 0 0 0 1.5136,-3.32538 c -1.21117,-0.18237 -2.6662,0.37986 -4.04368,-0.0481 -0.48562,-0.15085 -0.77474,0.47563 -2.161105,0.0992 -0.338807,-0.092 -1.87272,-0.23083 -2.899565,-0.24908 z"/>
                <path
                        id="path210"
                        style="fill:#3e0915;fill-opacity:1;stroke-width:0.0866116"
                        d="m 82.08549,297.08572 c 0.116808,-6.5e-4 -7.56943,-2.50665 -7.418034,-2.81878 0.314852,-0.64911 -2.077092,-2.19017 -0.334156,-2.68842 0.07317,-0.021 0.710734,0.20655 1.447366,0.0877 0.665936,-0.1074 1.404336,-0.45545 1.856075,-0.33286 1.386384,0.37623 1.202983,-0.34758 1.628133,-0.0686 1.089606,0.71509 0.990873,0.0607 2.271022,0.46779 1.182626,0.37606 1.629322,1.21326 1.975445,1.48938 0.591437,0.47181 1.938821,0.5038 3.133754,1.35348 1.014457,0.72134 3.184309,1.65563 6.870136,2.00385 0.79965,0.0756 2.607009,0.40894 2.856301,0.54763 0.417409,0.2323 3.927938,0.92122 4.150508,1.728 -0.929782,0.10374 -3.365687,-0.0552 -5.172716,-0.009 -1.376794,0.0351 -3.8359,-0.34397 -4.730925,-0.30992 -2.061414,0.0617 -3.008224,-0.12718 -3.332997,-0.0229 -0.556889,0.1787 -1.967126,0.75411 -3.081896,0.0143 -1.480343,-0.84621 -1.428259,-0.76157 -1.320287,-0.76217 z"
                />
                <path
                        id="path211"
                        style="fill:#340213;fill-opacity:1;stroke-width:0.0866116"
                        d="m 77.128443,297.08572 c 0.116817,-6.5e-4 -7.569421,-2.50665 -7.418025,-2.81878 0.314853,-0.64911 0.920912,-2.24239 2.663837,-2.74064 0.139367,-0.0399 0.519066,0.14036 0.963541,0.22492 0.359774,0.0685 0.359702,-0.13103 0.855123,-0.0163 1.058274,0.24502 1.387832,1.16797 2.667981,1.57505 1.182626,0.37608 1.443275,0.77145 1.850091,0.94619 0.362235,0.15562 0.873994,0.0873 1.734988,0.43231 1.406672,0.56358 2.494749,0.69247 2.819419,0.94207 0.986854,0.75868 3.888326,-0.34291 4.331756,0.0817 0.512442,0.4908 4.696213,1.27598 4.945505,1.41467 0.417409,0.23228 0.703428,0.18117 1.155807,1.51026 -1.638188,0.18277 -4.504285,0.30776 -6.574008,0.38647 -2.732002,0.16327 -2.093783,-0.41167 -4.796093,-0.51063 -0.55689,0.17871 -1.702952,0.0835 -3.081897,0.0143 -1.480343,-0.84621 -1.428259,-0.76156 -1.320287,-0.76216 z"
                />
                <path
                        id="path212"
                        style="fill:#3d0108;fill-opacity:1;stroke-width:0.0866116"
                        d="m 71.457983,298.11721 c -0.03318,-1.9e-4 7.781747,0.96866 13.896659,1.03248 2.658029,0.0277 6.438787,-0.11762 7.66739,-0.41949 0.400759,-0.0985 -0.260794,-0.27864 -0.392163,-0.43795 -0.173088,-0.20988 -0.852159,-0.86824 -1.983557,-0.88674 -0.665884,-0.0109 -3.892677,-0.33403 -5.688099,-0.44635 -1.506851,-0.0942 -2.009031,0.31399 -3.281016,-0.17974 -1.825899,-0.70873 -3.094474,-0.41215 -4.931202,-1.28047 -1.97094,-0.93175 -3.738378,-2.90992 -4.722927,-3.68589 -0.143873,-0.1134 -1.972458,-0.0494 -3.004049,0.0716 -0.508649,0.0596 -0.332814,0.33142 -0.636505,0.21085 -0.383657,-0.1523 -0.958486,-0.0841 -1.407136,-0.21235 -0.913946,-0.26129 -1.417986,0.39909 -1.743431,0.64838 -0.317777,0.24343 -0.551329,0.44491 -0.898962,0.66141 -0.957298,0.59617 -1.017505,1.37326 -1.460925,1.79797 -0.221059,0.21171 -1.111806,0.75172 -2.23966,1.33227 -1.486698,0.76529 -2.588107,1.62741 -2.729851,1.70626 l 6.678819,0.16673 c 2.061415,0.0617 0.34911,-0.26014 0.673883,-0.15589 0.5569,0.17871 1.967125,0.75411 3.081897,0.0143 1.480343,-0.84621 0.187338,-0.68771 0.07936,-0.68831 z"
                />
                <path
                        id="path213"
                        style="fill:#31070e;fill-opacity:1;stroke-width:0.0866116"
                        d="m 74.401836,298.37009 c 1.506168,-0.0208 0.96511,-0.12495 0.737799,-0.95372 -0.105522,-0.38474 -0.629239,-0.63432 -0.678419,-0.73572 -0.314852,-0.6491 2.822973,-0.62251 -0.351063,-3.27264 -0.729667,-0.60923 -1.832833,-1.9567 -2.129879,-1.67415 -1.824606,1.73548 -3.782959,1.69467 -4.872856,2.78868 -1.590257,1.59629 -2.499678,1.57756 -2.943108,2.00226 -0.512431,0.49079 -3.440524,0.61118 -3.689805,0.74987 -0.41741,0.2323 -1.355176,0.47464 -1.246192,0.97644 1.638188,0.18278 5.703209,0.20616 7.772942,0.28488 2.061415,0.0617 1.524801,-0.0865 1.849575,0.0177 0.556889,0.17871 1.142404,0.0388 2.643261,-0.17261 1.053613,-0.013 0.700473,0.0974 2.096242,0.21868 z"/>
                <path
                        id="path205"
                        style="fill:url(#linearGradient215);stroke-width:0.178759"
                        d="m 56.784648,297.61439 c -0.08069,0.0693 -0.168225,0.12895 -0.258899,0.18345 a 26.458334,26.458334 0 0 0 23.921537,15.19908 26.458334,26.458334 0 0 0 23.313304,-14.08597 z"/>
            </g>
        </g>
    </g>
</svg>
