<?xml version="1.0" encoding="UTF-8"?>
<!DOCTYPE svg PUBLIC "-//W3C//DTD SVG 1.1//EN" "http://www.w3.org/Graphics/SVG/1.1/DTD/svg11.dtd">
<!-- Creator: CorelDRAW -->
<svg xmlns="http://www.w3.org/2000/svg" xml:space="preserve" width="1563px" height="1563px" version="1.1" style="shape-rendering:geometricPrecision; text-rendering:geometricPrecision; image-rendering:optimizeQuality; fill-rule:evenodd; clip-rule:evenodd"
viewBox="0 0 1562.97 1562.97"
 xmlns:xlink="http://www.w3.org/1999/xlink"
 xmlns:xodm="http://www.corel.com/coreldraw/odm/2003">
 <defs>
  <style type="text/css">
   <![CDATA[
    .fil2 {fill:#382626}
    .fil1 {fill:#BB2525}
    .fil0 {fill:url(#id0)}
   ]]>
  </style>
  <linearGradient id="id0" gradientUnits="userSpaceOnUse" x1="126.09" y1="1709.46" x2="1653.7" y2="-49.71">
   <stop offset="0" style="stop-opacity:1; stop-color:#E0C7D6"/>
   <stop offset="0.34902" style="stop-opacity:1; stop-color:#ECDDE8"/>
   <stop offset="1" style="stop-opacity:1; stop-color:#F8F3FA"/>
  </linearGradient>
 </defs>
 <g id="Layer_x0020_1">
  <metadata id="CorelCorpID_0Corel-Layer"/>
  <g id="_53643674656">
   <circle class="fil0" cx="781.48" cy="781.48" r="781.48"/>
   <circle class="fil1" cx="781.48" cy="781.48" r="407.99"/>
   <path class="fil2" d="M1529.01 1009.93l-0.02 0.07c-0.78,2.57 -1.58,5.13 -2.4,7.69 -1.14,3.62 -2.31,7.23 -3.51,10.85 -0.78,2.31 -1.55,4.62 -2.34,6.92 -1.37,3.96 -2.75,7.92 -4.18,11.86 -0.66,1.83 -1.34,3.67 -2.02,5.5 -1.57,4.26 -3.19,8.5 -4.82,12.72 -0.65,1.65 -1.3,3.3 -1.95,4.94l-0.03 0.05c3.4,-65.71 5.65,-63.51 21.27,-60.6l0 0zm-27.63 76.15c-118.73,280.26 -396.35,476.89 -719.9,476.89 -389.31,0 -712.08,-284.69 -771.61,-657.25 4.44,-6.35 10.68,-11.11 19.36,-13.78 33.34,-10.23 78.87,-10.8 111.35,-0.28 2.01,0.65 4.03,1.56 5.83,2.23 1.78,0.67 4.21,2.08 5.64,2.68 28.71,12.03 14.13,163.22 15.26,201.5l31.29 22.57c45.83,-50.74 8.32,-42.77 28.03,-94.1 31.53,-10.31 36.42,-4.5 70,-2.14l2.64 68.21 45.61 -4.56 2.75 -73.3c127.63,0.91 107.72,-5.87 112.05,67.8 23.82,1.36 36.84,-4.91 52.46,-13.7l2.34 -205.12c28.88,-15.66 10.74,2.38 28.21,-23.09 32.28,11.33 52.67,25.61 72.36,-17.18 18.35,31.4 7.22,14.99 41.04,43.39 11.88,9.99 4.83,186.06 4.88,213.83 21.91,3.2 57.81,6.31 77.57,-2.34 11.4,-71.72 11.7,-170.02 16.06,-244.95 3.58,-61.49 13.22,-71.37 -8.39,-122.97 -17.08,-40.77 -15.76,-59.59 19.86,-78.25 2.33,-44.42 -12,-141.92 -6.03,-164.82 0.38,-1.47 1.38,-3.29 1.86,-4.75 0.51,-1.56 1.65,-3.28 2.22,-4.86 15.24,-43.37 22.66,-260.63 18.09,-295.03 -4.01,-30.26 -21.43,-43.56 3.71,-56.36 20.1,7.76 16.21,-9.89 8.26,49.87 -11.2,84.23 2.34,178.09 9.6,264.21 5.95,70.56 16.63,12.92 13.06,61.01 -2.98,39.98 -9.71,96.91 -2.78,141.81l30.49 25.91c3.52,56.83 -19.7,61.55 -23.77,100.5l17.79 342.39 68.97 27.2 1.68 -238.41c21.75,-3.95 113.72,-14.86 127.08,0.28 11.52,25.85 3.62,178.25 5.73,221.02 54.32,-29.09 23.49,-79.05 30.09,-167.37 2.61,-34.83 2.48,-20.61 22.03,-46.47 112.4,-10.77 8.19,64.1 125.66,58.86 31.01,-1.38 16.38,-0.75 49.84,5.07 6.27,99.98 -17.71,126.05 24.19,131.92 17.98,-24.55 1.67,-36.91 8.95,-69.01 5.66,-24.98 18.86,-20.15 41.12,-43.59 27.53,10.58 8.65,14.14 49.66,16.07 24.45,1.14 42.1,-1.99 67.6,1.96l3.03 96.69 38.22 -2.7c-0.35,0.82 -0.69,1.67 -1.04,2.51z"/>
  </g>
 </g>
</svg>
