<?xml version="1.0" encoding="UTF-8" standalone="no"?>
<svg
   xml:space="preserve"
   width="40"
   height="40"
   version="1.1"
   style="clip-rule:evenodd;fill-rule:evenodd;image-rendering:optimizeQuality;shape-rendering:geometricPrecision;text-rendering:geometricPrecision"
   viewBox="0 0 40 40"
   id="svg223"
   xmlns:xlink="http://www.w3.org/1999/xlink"
   xmlns="http://www.w3.org/2000/svg">
 <defs
   id="defs83"><linearGradient
   id="linearGradient270"><stop
     style="stop-color:#39308a;stop-opacity:1;"
     offset="0"
     id="stop270" /><stop
     style="stop-color:#ea3030;stop-opacity:1;"
     offset="1"
     id="stop271" /></linearGradient><linearGradient
   id="linearGradient225"><stop
     style="stop-color:#322a70;stop-opacity:1;"
     offset="0"
     id="stop225" /><stop
     style="stop-color:#e96b70;stop-opacity:1;"
     offset="1"
     id="stop226" /></linearGradient>
  <style
   type="text/css"
   id="style1">
   <![CDATA[
    .fil15 {fill:white}
    .fil22 {fill:#2B2B2A}
    .fil27 {fill:#FDF1F7}
    .fil12 {fill:#B72146}
    .fil11 {fill:#D4D4EC}
    .fil28 {fill:#B83A8C}
    .fil32 {fill:#262A4D}
    .fil56 {fill:black}
    .fil39 {fill:#01272E}
    .fil44 {fill:#08262E}
    .fil21 {fill:#13133C}
    .fil20 {fill:#232247}
    .fil19 {fill:#33335C}
    .fil47 {fill:#362C00}
    .fil18 {fill:#611949}
    .fil24 {fill:#6E2E6D}
    .fil53 {fill:#FB184A}
    .fil6 {fill:#2A3051;fill-opacity:0.639216}
    .fil5 {fill:#738CD5;fill-opacity:0.639216}
    .fil2 {fill:#A7B7E9;fill-opacity:0.639216}
    .fil4 {fill:#B5C9F9;fill-opacity:0.639216}
    .fil3 {fill:#F9FEFF;fill-opacity:0.639216}
    .fil46 {fill:url(#id2)}
    .fil31 {fill:url(#id3)}
    .fil43 {fill:url(#id4)}
    .fil38 {fill:url(#id5)}
    .fil13 {fill:url(#id6)}
    .fil14 {fill:url(#id7)}
    .fil35 {fill:url(#id8)}
    .fil17 {fill:url(#id9)}
    .fil33 {fill:url(#id10)}
    .fil7 {fill:url(#id11)}
    .fil49 {fill:url(#id12)}
    .fil51 {fill:url(#id13)}
    .fil41 {fill:url(#id14)}
    .fil55 {fill:url(#id15)}
    .fil40 {fill:url(#id16)}
    .fil16 {fill:url(#id17)}
    .fil50 {fill:url(#id18)}
    .fil29 {fill:url(#id19)}
    .fil30 {fill:url(#id20)}
    .fil54 {fill:url(#id21)}
    .fil36 {fill:url(#id22)}
    .fil10 {fill:url(#id23)}
    .fil37 {fill:url(#id24)}
    .fil23 {fill:url(#id25)}
    .fil52 {fill:url(#id26)}
    .fil9 {fill:url(#id27)}
    .fil42 {fill:url(#id28)}
    .fil8 {fill:url(#id29)}
    .fil48 {fill:url(#id30)}
    .fil45 {fill:url(#id31)}
    .fil34 {fill:url(#id32)}
    .fil57 {fill:url(#id33)}
    .fil26 {fill:url(#id34)}
    .fil25 {fill:url(#id35)}
    .fil0 {fill:url(#id36);fill-rule:nonzero}
    .fil1 {fill:url(#id37);fill-rule:nonzero}
   ]]>
  </style>
   <mask
   id="id0">
  <linearGradient
   id="id1"
   gradientUnits="userSpaceOnUse"
   x1="371.32999"
   y1="-479.23999"
   x2="371.32999"
   y2="-479.23999">
   <stop
   offset="0"
   style="stop-opacity:1; stop-color:white"
   id="stop1" />
   <stop
   offset="1"
   style="stop-opacity:0; stop-color:white"
   id="stop2" />
  </linearGradient>
    <rect
   style="fill:url(#id1)"
   x="-0.0099999998"
   y="-0.0099999998"
   width="999.67999"
   height="559.15997"
   id="rect2" />
   </mask>
  <linearGradient
   id="id2"
   gradientUnits="userSpaceOnUse"
   x1="790.94"
   y1="188.7"
   x2="790.94"
   y2="376.16">
   <stop
   offset="0"
   style="stop-opacity:1; stop-color:#BF942C"
   id="stop3" />
   <stop
   offset="0.258824"
   style="stop-opacity:1; stop-color:#FDD059"
   id="stop4" />
   <stop
   offset="0.478431"
   style="stop-opacity:1; stop-color:#FFEDAB"
   id="stop5" />
   <stop
   offset="0.709804"
   style="stop-opacity:1; stop-color:#FDD059"
   id="stop6" />
   <stop
   offset="1"
   style="stop-opacity:1; stop-color:#BF942C"
   id="stop7" />
  </linearGradient>
  <linearGradient
   id="id3"
   gradientUnits="userSpaceOnUse"
   x1="904.29999"
   y1="416.70001"
   x2="904.28998"
   y2="645.70001">
   <stop
   offset="0"
   style="stop-opacity:1; stop-color:#7284DB"
   id="stop8" />
   <stop
   offset="0.25098"
   style="stop-opacity:1; stop-color:#969CCE"
   id="stop9" />
   <stop
   offset="0.478431"
   style="stop-opacity:1; stop-color:#B7BADE"
   id="stop10" />
   <stop
   offset="0.729412"
   style="stop-opacity:1; stop-color:#969CCE"
   id="stop11" />
   <stop
   offset="1"
   style="stop-opacity:1; stop-color:#7284DB"
   id="stop12" />
  </linearGradient>
  <linearGradient
   id="id4"
   gradientUnits="userSpaceOnUse"
   x1="681.42999"
   y1="206.10001"
   x2="681.42999"
   y2="350.28">
   <stop
   offset="0"
   style="stop-opacity:1; stop-color:#2E92AB"
   id="stop13" />
   <stop
   offset="0.219608"
   style="stop-opacity:1; stop-color:#78C7DB"
   id="stop14" />
   <stop
   offset="0.478431"
   style="stop-opacity:1; stop-color:#B4E2ED"
   id="stop15" />
   <stop
   offset="0.709804"
   style="stop-opacity:1; stop-color:#78C7DB"
   id="stop16" />
   <stop
   offset="1"
   style="stop-opacity:1; stop-color:#2E92AB"
   id="stop17" />
  </linearGradient>
  <linearGradient
   id="id5"
   gradientUnits="userSpaceOnUse"
   x1="353.31"
   y1="226.22"
   x2="353.31"
   y2="467.62">
   <stop
   offset="0"
   style="stop-opacity:1; stop-color:#0C7274"
   id="stop18" />
   <stop
   offset="0.270588"
   style="stop-opacity:1; stop-color:#10DAC4"
   id="stop19" />
   <stop
   offset="0.541176"
   style="stop-opacity:1; stop-color:#1FE8E2"
   id="stop20" />
   <stop
   offset="0.74902"
   style="stop-opacity:1; stop-color:#10DAC4"
   id="stop21" />
   <stop
   offset="1"
   style="stop-opacity:1; stop-color:#0C7274"
   id="stop22" />
  </linearGradient>
  <linearGradient
   id="id6"
   gradientUnits="userSpaceOnUse"
   x1="499.98999"
   y1="1000"
   x2="500.01001"
   y2="559.14001">
   <stop
   offset="0"
   style="stop-opacity:1; stop-color:#191929"
   id="stop23" />
   <stop
   offset="0.701961"
   style="stop-opacity:1; stop-color:#2B2A4B"
   id="stop24" />
   <stop
   offset="1"
   style="stop-opacity:1; stop-color:#3D3C6E"
   id="stop25" />
  </linearGradient>
  <linearGradient
   id="id7"
   gradientUnits="userSpaceOnUse"
   x1="500.92001"
   y1="975.82001"
   x2="500.92001"
   y2="450.45999">
   <stop
   offset="0"
   style="stop-opacity:1; stop-color:#CC9933"
   id="stop26" />
   <stop
   offset="1"
   style="stop-opacity:1; stop-color:#FF9933"
   id="stop27" />
  </linearGradient>
  <linearGradient
   id="id8"
   gradientUnits="userSpaceOnUse"
   x1="164.66"
   y1="564.79999"
   x2="190.16"
   y2="387.70999">
   <stop
   offset="0"
   style="stop-opacity:1; stop-color:#00BAFF"
   id="stop28" />
   <stop
   offset="1"
   style="stop-opacity:1; stop-color:#55C0CE"
   id="stop29" />
  </linearGradient>
  <linearGradient
   id="id9"
   gradientUnits="userSpaceOnUse"
   x1="921.72998"
   y1="819.54999"
   x2="583.65997"
   y2="604.97998">
   <stop
   offset="0"
   style="stop-opacity:1; stop-color:#0B0A1D"
   id="stop30" />
   <stop
   offset="1"
   style="stop-opacity:1; stop-color:#0B0A1D"
   id="stop31" />
  </linearGradient>
  <linearGradient
   id="id10"
   gradientUnits="userSpaceOnUse"
   x1="90.099998"
   y1="118.55"
   x2="94.029999"
   y2="308.01999">
   <stop
   offset="0"
   style="stop-opacity:1; stop-color:#D2D8EC"
   id="stop32" />
   <stop
   offset="0.34902"
   style="stop-opacity:1; stop-color:#94BFE0"
   id="stop33" />
   <stop
   offset="1"
   style="stop-opacity:1; stop-color:#2A3666"
   id="stop34" />
  </linearGradient>
  <linearGradient
   id="id11"
   gradientUnits="userSpaceOnUse"
   x1="376.10001"
   y1="565.27002"
   x2="376.10999"
   y2="374.85001"
   gradientTransform="matrix(1.0680982,0,0,1.2303851,-5.656689,-130.57157)">
   <stop
   offset="0"
   style="stop-opacity:1; stop-color:#151441"
   id="stop35" />
   <stop
   offset="0.501961"
   style="stop-opacity:1; stop-color:#3B338C"
   id="stop36" />
   <stop
   offset="1"
   style="stop-opacity:1; stop-color:#9A5AB5"
   id="stop37" />
  </linearGradient>
  <linearGradient
   id="id12"
   gradientUnits="userSpaceOnUse"
   x1="859.88"
   y1="237.95"
   x2="926.96997"
   y2="242.39999">
   <stop
   offset="0"
   style="stop-opacity:1; stop-color:#F0D271"
   id="stop38" />
   <stop
   offset="1"
   style="stop-opacity:0; stop-color:#FDD66A"
   id="stop39" />
  </linearGradient>
  <linearGradient
   id="id13"
   gradientUnits="userSpaceOnUse"
   x1="105.5"
   y1="434.66"
   x2="106.92"
   y2="546.15002">
   <stop
   offset="0"
   style="stop-opacity:1; stop-color:#D385B7"
   id="stop40" />
   <stop
   offset="1"
   style="stop-opacity:0; stop-color:#D387B8"
   id="stop41" />
  </linearGradient>
  <linearGradient
   id="id14"
   gradientUnits="userSpaceOnUse"
   xlink:href="#id10"
   x1="915.10999"
   y1="127.41"
   x2="911.17999"
   y2="316.89001">
  </linearGradient>
  <linearGradient
   id="id15"
   gradientUnits="userSpaceOnUse"
   x1="216"
   y1="181.17"
   x2="233.25"
   y2="375.97">
   <stop
   offset="0"
   style="stop-opacity:1; stop-color:#C54901"
   id="stop42" />
   <stop
   offset="0.309804"
   style="stop-opacity:1; stop-color:#ED711F"
   id="stop43" />
   <stop
   offset="0.529412"
   style="stop-opacity:1; stop-color:#EF7C1C"
   id="stop44" />
   <stop
   offset="0.741176"
   style="stop-opacity:1; stop-color:#ED711F"
   id="stop45" />
   <stop
   offset="1"
   style="stop-opacity:1; stop-color:#C54901"
   id="stop46" />
  </linearGradient>
  <linearGradient
   id="id16"
   gradientUnits="userSpaceOnUse"
   x1="321.26001"
   y1="15.56"
   x2="325.26999"
   y2="158.75">
   <stop
   offset="0"
   style="stop-opacity:1; stop-color:#AF0E38"
   id="stop47" />
   <stop
   offset="0.258824"
   style="stop-opacity:1; stop-color:#F1006C"
   id="stop48" />
   <stop
   offset="0.470588"
   style="stop-opacity:1; stop-color:#F6018D"
   id="stop49" />
   <stop
   offset="0.690196"
   style="stop-opacity:1; stop-color:#F1006C"
   id="stop50" />
   <stop
   offset="1"
   style="stop-opacity:1; stop-color:#AF0E38"
   id="stop51" />
  </linearGradient>
  <linearGradient
   id="id17"
   gradientUnits="userSpaceOnUse"
   xlink:href="#id9"
   x1="424.01001"
   y1="819.54999"
   x2="85.940002"
   y2="604.97998">
  </linearGradient>
  <linearGradient
   id="id18"
   gradientUnits="userSpaceOnUse"
   xlink:href="#id10"
   x1="3.45"
   y1="141.11"
   x2="6.7399998"
   y2="281.53">
  </linearGradient>
  <linearGradient
   id="id19"
   gradientUnits="userSpaceOnUse"
   xlink:href="#id10"
   x1="640.41998"
   y1="428.09"
   x2="645.01001"
   y2="624.06">
  </linearGradient>
  <linearGradient
   id="id20"
   gradientUnits="userSpaceOnUse"
   xlink:href="#id10"
   x1="-1.1311675e-14"
   y1="319.88062"
   x2="-1.1311675e-14"
   y2="484.30573"
   gradientTransform="scale(0.70666859,1.4150905)">
  </linearGradient>
  <linearGradient
   id="id21"
   gradientUnits="userSpaceOnUse"
   x1="640.27002"
   y1="428.09"
   x2="647.27002"
   y2="570.39001">
   <stop
   offset="0"
   style="stop-opacity:1; stop-color:#E0C1DD"
   id="stop52" />
   <stop
   offset="1"
   style="stop-opacity:0; stop-color:#E0C3DF"
   id="stop53" />
  </linearGradient>
  <linearGradient
   id="id22"
   gradientUnits="userSpaceOnUse"
   x1="316.39999"
   y1="100.39"
   x2="227.67"
   y2="98.18">
   <stop
   offset="0"
   style="stop-opacity:1; stop-color:#F6018C"
   id="stop54" />
   <stop
   offset="0.321569"
   style="stop-opacity:0.501961; stop-color:#F6018C"
   id="stop55" />
   <stop
   offset="1"
   style="stop-opacity:0; stop-color:#F6018C"
   id="stop56" />
  </linearGradient>
  <linearGradient
   id="id23"
   gradientUnits="userSpaceOnUse"
   x1="783.53003"
   y1="568.70001"
   x2="802.97998"
   y2="379.01999">
   <stop
   offset="0"
   style="stop-opacity:1; stop-color:#9B72E4"
   id="stop57" />
   <stop
   offset="1"
   style="stop-opacity:1; stop-color:#BC69D4"
   id="stop58" />
  </linearGradient>
  <linearGradient
   id="id24"
   gradientUnits="userSpaceOnUse"
   x1="301.84"
   y1="300.82999"
   x2="150.88"
   y2="293.64999">
   <stop
   offset="0"
   style="stop-opacity:1; stop-color:#12DCC8"
   id="stop59" />
   <stop
   offset="0.309804"
   style="stop-opacity:0; stop-color:#15DFCE"
   id="stop60" />
   <stop
   offset="1"
   style="stop-opacity:1; stop-color:#EF7A1D"
   id="stop61" />
  </linearGradient>
  <linearGradient
   id="id25"
   gradientUnits="userSpaceOnUse"
   x1="683.71997"
   y1="397.48001"
   x2="628.23999"
   y2="496.14001">
   <stop
   offset="0"
   style="stop-opacity:1; stop-color:#EBA0EA"
   id="stop62" />
   <stop
   offset="0.25098"
   style="stop-opacity:1; stop-color:#DBB7D7"
   id="stop63" />
   <stop
   offset="0.521569"
   style="stop-opacity:1; stop-color:#E8D1E7"
   id="stop64" />
   <stop
   offset="0.760784"
   style="stop-opacity:1; stop-color:#DBB7D7"
   id="stop65" />
   <stop
   offset="1"
   style="stop-opacity:1; stop-color:#EBA0EA"
   id="stop66" />
  </linearGradient>
  <linearGradient
   id="id26"
   gradientUnits="userSpaceOnUse"
   x1="124.19"
   y1="438.23999"
   x2="145.07001"
   y2="712.23999">
   <stop
   offset="0"
   style="stop-opacity:1; stop-color:#FCDBE2"
   id="stop67" />
   <stop
   offset="0.490196"
   style="stop-opacity:1; stop-color:white"
   id="stop68" />
   <stop
   offset="1"
   style="stop-opacity:1; stop-color:#FCDBE2"
   id="stop69" />
  </linearGradient>
  <linearGradient
   id="id27"
   gradientUnits="userSpaceOnUse"
   xlink:href="#id8"
   x1="242.2"
   y1="565.27002"
   x2="264.42999"
   y2="382.39999">
  </linearGradient>
  <linearGradient
   id="id28"
   gradientUnits="userSpaceOnUse"
   xlink:href="#id10"
   x1="897.90997"
   y1="-81"
   x2="928.38"
   y2="103.52">
  </linearGradient>
  <linearGradient
   id="id29"
   gradientUnits="userSpaceOnUse"
   xlink:href="#id23"
   x1="704.38"
   y1="568.77002"
   x2="728.95001"
   y2="358.16">
  </linearGradient>
  <linearGradient
   id="id30"
   gradientUnits="userSpaceOnUse"
   xlink:href="#id10"
   x1="1079.22"
   y1="87.389999"
   x2="1075.29"
   y2="276.85999">
  </linearGradient>
  <linearGradient
   id="id31"
   gradientUnits="userSpaceOnUse"
   x1="703.03003"
   y1="284.28"
   x2="854.64001"
   y2="276.73001">
   <stop
   offset="0"
   style="stop-opacity:1; stop-color:#4DA9BF"
   id="stop70" />
   <stop
   offset="0.490196"
   style="stop-opacity:0; stop-color:#94BFE0"
   id="stop71" />
   <stop
   offset="1"
   style="stop-opacity:1; stop-color:#FCD976"
   id="stop72" />
  </linearGradient>
  <linearGradient
   id="id32"
   gradientUnits="userSpaceOnUse"
   xlink:href="#id10"
   x1="107.3"
   y1="-89.860001"
   x2="76.830002"
   y2="94.660004">
  </linearGradient>
  <linearGradient
   id="id33"
   gradientUnits="userSpaceOnUse"
   x1="140"
   y1="254"
   x2="86.279999"
   y2="256.62">
   <stop
   offset="0"
   style="stop-opacity:1; stop-color:#EC711F"
   id="stop73" />
   <stop
   offset="1"
   style="stop-opacity:0; stop-color:#EE771E"
   id="stop74" />
  </linearGradient>
  <linearGradient
   id="id34"
   gradientUnits="userSpaceOnUse"
   x1="289.48999"
   y1="408.70999"
   x2="152.17"
   y2="406.47">
   <stop
   offset="0"
   style="stop-opacity:1; stop-color:#BF1F94"
   id="stop75" />
   <stop
   offset="0.25098"
   style="stop-opacity:1; stop-color:#DB60BA"
   id="stop76" />
   <stop
   offset="0.521569"
   style="stop-opacity:1; stop-color:#F5A1DF"
   id="stop77" />
   <stop
   offset="0.760784"
   style="stop-opacity:1; stop-color:#DB60BA"
   id="stop78" />
   <stop
   offset="1"
   style="stop-opacity:1; stop-color:#BF1F94"
   id="stop79" />
  </linearGradient>
  <linearGradient
   id="id35"
   gradientUnits="userSpaceOnUse"
   xlink:href="#id25"
   x1="828.21002"
   y1="401.89999"
   x2="690.90002"
   y2="399.66">
  </linearGradient>
  <linearGradient
   id="id36"
   gradientUnits="userSpaceOnUse"
   x1="500"
   y1="879.45001"
   x2="500"
   y2="615.33002">
   <stop
   offset="0"
   style="stop-opacity:1; stop-color:#3B3B45"
   id="stop80" />
   <stop
   offset="1"
   style="stop-opacity:1; stop-color:#484857"
   id="stop81" />
  </linearGradient>
  <linearGradient
   id="id37"
   gradientUnits="userSpaceOnUse"
   x1="499.57999"
   y1="399.14001"
   x2="500"
   y2="0">
   <stop
   offset="0"
   style="stop-color:#424ad2;stop-opacity:1;"
   id="stop82" />
   <stop
   offset="1"
   style="stop-color:#202474;stop-opacity:1;"
   id="stop83" />
  </linearGradient>
 <linearGradient
   xlink:href="#linearGradient225"
   id="linearGradient226"
   x1="500"
   y1="0"
   x2="493.56552"
   y2="892.75891"
   gradientUnits="userSpaceOnUse" /><linearGradient
   xlink:href="#linearGradient270"
   id="linearGradient271"
   x1="52.921112"
   y1="357.86783"
   x2="198.65813"
   y2="193.44696"
   gradientUnits="userSpaceOnUse" /><linearGradient
   xlink:href="#linearGradient270"
   id="linearGradient272"
   gradientUnits="userSpaceOnUse"
   x1="52.921112"
   y1="357.86783"
   x2="198.65813"
   y2="193.44696" /><linearGradient
   xlink:href="#linearGradient270"
   id="linearGradient273"
   gradientUnits="userSpaceOnUse"
   x1="52.921112"
   y1="357.86783"
   x2="198.65813"
   y2="193.44696" /><linearGradient
   xlink:href="#linearGradient270"
   id="linearGradient274"
   gradientUnits="userSpaceOnUse"
   x1="52.921112"
   y1="357.86783"
   x2="198.65813"
   y2="193.44696" /><linearGradient
   xlink:href="#linearGradient270"
   id="linearGradient275"
   gradientUnits="userSpaceOnUse"
   x1="52.921112"
   y1="357.86783"
   x2="198.65813"
   y2="193.44696" /><linearGradient
   xlink:href="#linearGradient270"
   id="linearGradient276"
   gradientUnits="userSpaceOnUse"
   x1="52.921112"
   y1="357.86783"
   x2="198.65813"
   y2="193.44696" /><linearGradient
   xlink:href="#linearGradient270"
   id="linearGradient277"
   gradientUnits="userSpaceOnUse"
   x1="52.921112"
   y1="357.86783"
   x2="198.65813"
   y2="193.44696" /><linearGradient
   xlink:href="#linearGradient270"
   id="linearGradient278"
   gradientUnits="userSpaceOnUse"
   x1="52.921112"
   y1="357.86783"
   x2="198.65813"
   y2="193.44696" /><linearGradient
   xlink:href="#linearGradient270"
   id="linearGradient279"
   gradientUnits="userSpaceOnUse"
   x1="52.921112"
   y1="357.86783"
   x2="198.65813"
   y2="193.44696" /><linearGradient
   xlink:href="#linearGradient270"
   id="linearGradient280"
   gradientUnits="userSpaceOnUse"
   x1="52.921112"
   y1="357.86783"
   x2="198.65813"
   y2="193.44696" /><linearGradient
   xlink:href="#linearGradient270"
   id="linearGradient281"
   gradientUnits="userSpaceOnUse"
   x1="52.921112"
   y1="357.86783"
   x2="198.65813"
   y2="193.44696" /><linearGradient
   xlink:href="#id23"
   id="linearGradient282"
   gradientUnits="userSpaceOnUse"
   x1="783.53003"
   y1="568.70001"
   x2="802.97998"
   y2="379.01999" /><linearGradient
   xlink:href="#id9"
   id="linearGradient283"
   gradientUnits="userSpaceOnUse"
   x1="921.72998"
   y1="819.54999"
   x2="583.65997"
   y2="604.97998" /><linearGradient
   xlink:href="#id25"
   id="linearGradient284"
   gradientUnits="userSpaceOnUse"
   x1="683.71997"
   y1="397.48001"
   x2="628.23999"
   y2="496.14001" /><linearGradient
   xlink:href="#id10"
   id="linearGradient285"
   gradientUnits="userSpaceOnUse"
   x1="1162.4537"
   y1="321.22397"
   x2="1162.4537"
   y2="492.90302"
   gradientTransform="scale(0.72007166,1.3887507)" /><linearGradient
   xlink:href="#id10"
   id="linearGradient286"
   gradientUnits="userSpaceOnUse"
   x1="211.54407"
   y1="342.27655"
   x2="211.54407"
   y2="478.26624"
   gradientTransform="scale(0.75842354,1.3185245)" /><linearGradient
   xlink:href="#id10"
   id="linearGradient287"
   gradientUnits="userSpaceOnUse"
   x1="90.099998"
   y1="118.55"
   x2="94.029999"
   y2="308.01999" /><linearGradient
   xlink:href="#id8"
   id="linearGradient288"
   gradientUnits="userSpaceOnUse"
   x1="164.66"
   y1="564.79999"
   x2="190.16"
   y2="387.70999" /></defs>
 <g
   id="Layer_x0020_1">
  <metadata
   id="CorelCorpID_0Corel-Layer" />
  <g
   id="g281"
   transform="scale(0.04)"><circle
     style="clip-rule:evenodd;fill:url(#linearGradient226);fill-opacity:1;fill-rule:evenodd;stroke-width:4.42153;image-rendering:optimizeQuality;shape-rendering:geometricPrecision;text-rendering:geometricPrecision"
     id="path224"
     cx="500"
     cy="500"
     r="500" /><path
     style="clip-rule:evenodd;fill:#373e48;fill-opacity:1;fill-rule:evenodd;stroke-width:6.79113;image-rendering:optimizeQuality;shape-rendering:geometricPrecision;text-rendering:geometricPrecision"
     id="path225"
     d="M 1000,500 A 500.00894,500 0 0 1 502.10415,999.99553 500.00894,500 0 0 1 -2.2940026e-5,504.22608 L 499.99106,500 Z" /><path
     class="fil2"
     d="m 514.65,181.05 c 2.99,3.63 7.83,8.03 13.74,9.6 l -2.31,-3.03 c -5.49,-6.08 -5.95,-2.34 -4.73,-9.77 14.04,0.54 13.42,20.13 27.95,25.69 -2.71,-4.41 -4.96,-8.46 -5.96,-14.03 6.2,2.64 4.25,5.69 12.47,9.55 19.53,9.16 9.95,5.88 23.79,18.95 4.35,4.11 6.67,4.5 11.65,8.46 4.22,3.35 7.11,6.85 11.06,10.43 18.35,16.71 12.99,10.65 30.27,22.64 0.25,0.18 3.2,2.62 3.24,2.66 1.98,1.96 0.55,0.23 2.22,2.7 -5.04,-1.46 -8.58,-4.51 -12.68,-6.59 -63.07,-32.11 -31.05,-35.24 -74.22,-53.7 3.96,8.92 18.85,22.38 26.71,31.02 8.67,9.54 27.37,11.84 30.29,24.1 -4.84,-2.26 -9.33,-7.62 -15.75,-11.51 -5.77,-3.5 -10.68,-5.49 -16.05,-9.57 -14.37,-10.91 -22.45,-23.45 -27.88,-26.53 5.83,11.96 5.84,4.62 6.53,11.87 -3.59,-1.93 -9.3,-5.09 -13.21,-8.1 -4.56,-3.52 -5.58,-7.09 -9.78,-11.52 -7.58,-7.97 -20.88,-14.5 -18.93,-23.49 -10.48,5.45 0.92,2.66 -15.83,14.32 -6.36,4.43 -3.49,4.23 -6.36,9.28 -2.12,3.73 0.71,0.47 -3.54,3.69 -2.48,1.88 -2.54,1.51 -4.85,3.75 l -17.11,10.84 -0.62,34.36 -17.31,14 -6.01,14.6 c -3.29,4.78 -5.89,8.09 -9.56,9.93 -3.81,-8.6 5.69,-16.77 10.28,-22.66 2.75,-3.52 14.42,-16.92 16.04,-17.76 -7.81,3.01 -32.31,25.18 -37.87,33.13 -1.58,2.25 -2.77,4.41 -4,7.46 -3.5,8.61 -1.97,6.8 -5.72,6.57 l 12.89,13.3 c 4.22,5.17 2.03,-0.99 3.8,6 -6.71,-1.69 -4.82,-1.27 -11.61,-0.12 14.06,6.26 7.69,-2.2 23.58,12.68 3.99,3.74 5.84,4.44 9.65,8.85 2.55,2.96 5.81,7.69 8.51,9.86 l 1.04,-2.89 c 0.05,-0.23 0.13,-0.72 0.18,-0.97 0.62,-2.96 -0.57,-0.55 0.97,-4.52 0.67,-1.72 3.2,-6.26 5.03,-8.98 4.39,-6.46 8.27,-9.62 11.66,-15.87 4.82,1.2 5.66,0.35 8.83,0.84 3.29,0.51 0.59,-0.37 3.58,1.38 0.1,0.06 3.19,2.34 3.24,2.37 -2.24,4.05 -7.78,8.84 -11.45,14.44 5.9,-2.75 48.12,-19.54 52.92,-19.5 19.4,0.14 2.1,1.3 18.83,-3.95 2.77,-0.88 3.66,-1.3 6.12,-3.23 8.45,-6.61 2.19,-2.08 10.03,-4.82 2.66,-0.93 8.1,-6.31 9.36,-8.12 l 2.08,-1.94 c -2.68,-3.33 -2.17,-2.87 -6.37,-4.24 -9.36,4.81 -6.45,8.27 -14.11,13.87 -2.32,-4.73 -1.93,-6.82 -0.08,-12.62 l -6.97,5.31 c -1.47,-5.36 -4.8,-13.05 -7.27,-18.57 -4.33,-9.69 -6.17,-8.56 -8.26,-11.32 -3.97,-5.2 -1.16,0.63 -3.32,-6.75 13.79,3.17 1.54,3.95 19.82,8.43 2.72,0.67 4.74,1.73 7.33,2.54 0.12,-0.17 0.15,-0.77 0.17,-0.62 0.02,0.15 0.16,-0.56 0.19,-0.66 l 1.24,-4.47 c 1.98,9.99 4.67,1.63 13.55,15.33 2.98,4.58 7.45,12.68 10.52,18.06 l 13.95,7.96 c 0.87,-1.63 1.03,-2.07 2.48,-4.27 l 2.8,-3.77 c 0.19,-0.24 0.53,-0.67 0.82,-0.98 l 3.55,3.26 c 6.34,5.44 21.01,11.19 28.88,14.57 -4.76,-3.61 -14.64,-12.17 -16.49,-18.1 13.63,0.97 15.32,19.27 29.79,10.08 l 6.1,6.15 c 0.1,-2.83 -0.55,-4.95 0.21,-7.4 1.28,-4.13 0.3,-1.1 2.02,-3.44 l 3.1,-3.91 c 16.13,7.11 -5.2,-2.02 11.42,1.25 7.62,3.82 15.06,13.79 23.33,19.49 8.48,5.84 16.54,9.67 26,15.8 -3.31,-4.56 -6.56,-11.93 -8.82,-19.24 l 10.67,1.04 0.23,-11.11 c 5.05,0.06 -6.54,-13.45 -8.67,-16.96 -4.03,-0.79 -26.26,-14.61 -31.19,-17.84 l -30.42,-20.14 c -10.8,-3.35 -126.21,-83.32 -140.73,-87.61 1.65,7.84 3.38,7.76 -0.67,14.73 z"
     id="path85"/><path
     class="fil3"
     d="m 348.27,239.29 c -3.45,3.85 -8.11,4.8 -16.84,10.28 -0.41,0.25 -2.48,1.58 -3.63,2.25 -0.38,0.23 -1.5,0.87 -1.89,1.08 l -57.36,29.62 c -54.03941,26.55966 8.25,-0.38 28.89,-4.98 l -5.79,14.07 c 7.64,-3.22 3.6,-5.61 11.49,-7.99 1.45,-2.36 0.53,-1.21 2.07,-3.02 l 7.62,-6.86 c 20.22,-17.92 63.29,-43.85 87.83,-46.79 -1.44,1.53 -0.16,0.34 -2.37,2.28 l -19,13.92 c -19.21,13.59 -29.17,18.19 -45.24,28.89 -7.87,5.25 -14.48,11.26 -22.03,15.86 -3.35,5.04 -6.48,6.91 -10.13,12.04 -3.64,5.11 -6.02,10.17 -9.69,14.62 -4.16,5.05 -21.86,15.22 -28.52,19.4 15.45,-4.23 54.26,-30.87 56.49,-31.64 9.66,-3.37 1.26,3.16 9.07,0.45 3.77,-1.31 3.01,-4.29 10.27,-4.21 3.21,-5.97 5.51,-6.58 9.87,-12.45 3.34,-4.5 6.19,-6.84 9.41,-12.04 3.93,-6.34 3.31,-6.78 10.43,-11.18 15.66,-9.69 26.76,-14.74 38.22,-28.77 3.58,-4.38 16.75,-22.38 20.42,-21.34 0.92,2.26 0.92,-0.68 -0.75,2.47 -0.26,0.47 -1.14,1.16 -1.98,3.28 -0.8,2 -0.88,1.26 -0.63,3.84 0.41,4.34 1.78,4.82 1.79,4.84 3.69,-3.61 9.61,-7.39 14.58,-10.06 -4.11,-9.93 3.19,-15.34 9.8,-19.9 6.69,-4.61 11.23,-10.39 18.05,-14.08 -1.55,24.92 -1.14,14.49 -11.16,25.4 1.21,8.45 4.2,1.56 2.99,8.98 -0.9,5.55 -0.54,-2.59 -1.11,5.14 -0.3,4.08 1.74,1.21 -0.18,5.55 -2.52,6.59 -1.07,0.71 -4.3,4.9 -1.4,1.82 -0.32,-0.34 -1.61,2.78 l -6.27,19.81 c -7.01,4.35 -6.62,3.7 -12.4,9.8 -3.75,3.96 -6.18,9.6 -10.75,11.79 1.16,-2.42 2.37,-4.86 3.86,-7.25 1.98,-3.19 3.5,-4.76 4.7,-8.17 2.76,-7.85 -0.9,-18.8 -6.91,-7.6 4.06,3.78 0,-2.91 4.03,2.86 -1.57,4.85 -2.84,6.4 -4.92,9.73 l -4.61,7.13 c -3,3.42 1.06,-0.24 -2.93,2.81 l 6.42,-18.38 -27.51,32.72 c -3.5,3.83 -6.64,7.55 -9.25,12.13 l 15.76,-11.11 c -2.95,1.65 -5.48,5.08 -8.3,8.71 -3.67,4.72 -22.37,20.69 -26.23,29.32 6.35,-3.72 12.88,-10.57 19.71,-15.88 3.78,-2.93 6.63,-4.97 10.54,-8.04 3.77,-2.95 6.28,-5.87 12.32,-3.91 3.75,0.23 2.22,2.04 5.72,-6.57 1.23,-3.05 2.42,-5.21 4,-7.46 5.56,-7.95 30.06,-30.12 37.87,-33.13 -1.62,0.84 -13.29,14.24 -16.04,17.76 -4.59,5.89 -14.09,14.06 -10.28,22.66 3.67,-1.84 6.27,-5.15 9.56,-9.93 3.34,-6.13 7.2,-11.72 11.01,-15.3 3.1,-2.93 3.52,-2.56 6.51,-6.28 1.79,-2.23 3.31,-4.63 5.8,-7.02 6.8,-17.42 5.05,-32.92 17.73,-45.2 2.31,-2.24 2.37,-1.87 4.85,-3.75 4.25,-3.22 1.42,0.04 3.54,-3.69 2.87,-5.05 0,-4.85 6.36,-9.28 16.75,-11.66 5.35,-8.87 15.83,-14.32 l 1.58,0.17 c 4.05,-6.97 2.32,-6.89 0.67,-14.73 14.52,4.29 129.93,84.26 140.73,87.61 l 0.04,-0.01 c -32.66,-20.38 -60.65,-38.34 -86.97,-55.27 -26.31,-16.93 -52.82,-38.03 -57.25,-37.84 -4.44,0.18 -13.53,1.41 -20.57,0.44 -7.03,-0.97 -14.87,10.24 -40.74,24.47 -25.86,14.24 -63.77,33.54 -99.76,52.25 z"
     id="path86"/><path
     class="fil4"
     d="m 375.3,295.32 c 5.42,-12.43 13.21,-24.57 20.34,-34.62 16.46,-23.22 12.08,-30.62 25.69,-24.14 -3.06,16.65 -18.46,26.45 -28.18,38.96 -2.34,3.01 -3.17,4.35 -5.87,6.97 l -6.48,6.28 c -2.45,2.45 -3.6,3.51 -5.5,6.55 z m -35.79,3.24 c 4.64,2.58 -1.02,4.65 -2.27,4.9 5.81,0.66 4.4,0.1 7.69,3.71 -4.4,6.47 -15.98,12.74 -22.49,17.66 -6.04,4.57 -16.45,13.4 -20.74,19.44 5.11,-1.88 26.61,-17.81 33.63,-22.37 11.08,-7.19 23.65,-14.45 35.48,-20.79 -2.28,5.87 -4.49,6.25 -8.01,9.95 -6.32,6.64 0.28,1.68 -0.33,7.91 -9.6,7.3 -21.96,12.09 -26.31,22.28 9.06,-4.68 27.97,-21.28 37.13,-28.5 6.49,-5.11 10.99,-4.5 13.52,-9.45 2.61,-4.58 5.75,-8.3 9.25,-12.13 l 27.51,-32.72 -6.42,18.38 c 3.99,-3.05 -0.07,0.61 2.93,-2.81 l 4.61,-7.13 c 2.08,-3.33 3.35,-4.88 4.92,-9.73 -4.03,-5.77 0.03,0.92 -4.03,-2.86 6.01,-11.2 9.67,-0.25 6.91,7.6 -1.2,3.41 -2.72,4.98 -4.7,8.17 -1.49,2.39 -2.7,4.83 -3.86,7.25 4.57,-2.19 7,-7.83 10.75,-11.79 5.78,-6.1 5.39,-5.45 12.4,-9.8 l 6.27,-19.81 c 1.29,-3.12 0.21,-0.96 1.61,-2.78 3.23,-4.19 1.78,1.69 4.3,-4.9 1.92,-4.34 -0.12,-1.47 0.18,-5.55 0.57,-7.73 0.21,0.41 1.11,-5.14 1.21,-7.42 -1.78,-0.53 -2.99,-8.98 10.02,-10.91 9.61,-0.48 11.16,-25.4 -6.82,3.69 -11.36,9.47 -18.05,14.08 -6.61,4.56 -13.91,9.97 -9.8,19.9 -4.97,2.67 -10.89,6.45 -14.58,10.06 -0.01,-0.02 -1.38,-0.5 -1.79,-4.84 -0.25,-2.58 -0.17,-1.84 0.63,-3.84 0.84,-2.12 1.72,-2.81 1.98,-3.28 1.67,-3.15 1.67,-0.21 0.75,-2.47 -3.67,-1.04 -16.84,16.96 -20.42,21.34 -11.46,14.03 -22.56,19.08 -38.22,28.77 -7.12,4.4 -6.5,4.84 -10.43,11.18 -3.22,5.2 -6.07,7.54 -9.41,12.04 -4.36,5.87 -6.66,6.48 -9.87,12.45 z"
     id="path87" /><path
     class="fil5"
     d="m 514.65,181.05 -1.58,-0.17 c -1.95,8.99 11.35,15.52 18.93,23.49 4.2,4.43 5.22,8 9.78,11.52 3.91,3.01 9.62,6.17 13.21,8.1 -0.69,-7.25 -0.7,0.09 -6.53,-11.87 5.43,3.08 13.51,15.62 27.88,26.53 5.37,4.08 10.28,6.07 16.05,9.57 6.42,3.89 10.91,9.25 15.75,11.51 -2.92,-12.26 -21.62,-14.56 -30.29,-24.1 -7.86,-8.64 -22.75,-22.1 -26.71,-31.02 43.17,18.46 11.15,21.59 74.22,53.7 4.1,2.08 7.64,5.13 12.68,6.59 -1.67,-2.47 -0.24,-0.74 -2.22,-2.7 -0.04,-0.04 -2.99,-2.48 -3.24,-2.66 -17.28,-11.99 -11.92,-5.93 -30.27,-22.64 -3.95,-3.58 -6.84,-7.08 -11.06,-10.43 -4.98,-3.96 -7.3,-4.35 -11.65,-8.46 -13.84,-13.07 -4.26,-9.79 -23.79,-18.95 -8.22,-3.86 -6.27,-6.91 -12.47,-9.55 1,5.57 3.25,9.62 5.96,14.03 -14.53,-5.56 -13.91,-25.15 -27.95,-25.69 -1.22,7.43 -0.76,3.69 4.73,9.77 l 2.31,3.03 c -5.91,-1.57 -10.75,-5.97 -13.74,-9.6 z"
     id="path88" /><path
     class="fil2"
     d="m 303.14,283.62 c 8.08,0.03 2.35,0.5 8.88,4.28 7.55,-4.6 14.16,-10.61 22.03,-15.86 16.07,-10.7 26.03,-15.3 45.24,-28.89 l 19,-13.92 c 2.21,-1.94 0.93,-0.75 2.37,-2.28 -24.54,2.94 -67.61,28.87 -87.83,46.79 l -7.62,6.86 c -1.54,1.81 -0.62,0.66 -2.07,3.02 z"
     id="path89" /><path
     class="fil3"
     d="m 375.3,295.32 c 1.9,-3.04 3.05,-4.1 5.5,-6.55 l 6.48,-6.28 c 2.7,-2.62 3.53,-3.96 5.87,-6.97 9.72,-12.51 25.12,-22.31 28.18,-38.96 -13.61,-6.48 -9.23,0.92 -25.69,24.14 -7.13,10.05 -14.92,22.19 -20.34,34.62 z"
     id="path90" /><path
     class="fil5"
     d="m 577.77,299.14 c 9.4,-0.79 2.28,-0.88 8.52,2.35 -3.07,-5.38 -7.54,-13.48 -10.52,-18.06 -8.88,-13.7 -11.57,-5.34 -13.55,-15.33 l -1.24,4.47 c -0.03,0.1 -0.17,0.81 -0.19,0.66 -0.02,-0.15 -0.05,0.45 -0.17,0.62 -2.59,-0.81 -4.61,-1.87 -7.33,-2.54 -18.28,-4.48 -6.03,-5.26 -19.82,-8.43 2.16,7.38 -0.65,1.55 3.32,6.75 2.09,2.76 3.93,1.63 8.26,11.32 2.47,5.52 5.8,13.21 7.27,18.57 l 6.97,-5.31 c -1.85,5.8 -2.24,7.89 0.08,12.62 7.66,-5.6 4.75,-9.06 14.11,-13.87 4.2,1.37 3.69,0.91 6.37,4.24 z"
     id="path91" /><path
     class="fil6"
     d="m 668.48,302.31 c 0.29,1.07 -0.03,0.33 0.41,1.21 -1.22,-0.1 -10.5,-0.52 -10.5,12.52 l -5.97,-5.74 c -11.68,6.44 -13.71,-1.41 -21.6,-7.07 -2.25,-1.62 -4.65,-2.94 -8.38,-2.94 5.94,11.23 12.7,13.91 14.95,16.97 -2.19,-0.51 -10.15,-4.05 -12.52,-5.26 -4.32,-2.19 -6.83,-2.98 -11.64,-6.13 -4.18,-2.72 -4.39,-4.58 -6.94,-5.17 -2.03,3.03 -3.85,5.06 -5.66,8.48 l -13.25,-7.35 c -1.67,-1 -3.18,-1.18 -3.71,-3.15 -1.41,0 -2.94,0.12 -3.78,0.26 -3.92,0.64 -2.47,1.8 -7.46,5.86 -1.7,1.37 -3.52,2.56 -5.82,3.07 -4.17,0.95 -2.38,-0.1 -6.14,2.75 -1.77,1.33 -3.15,2.66 -5.2,3.68 -2.51,1.26 -7.28,2.18 -9.65,3.68 -1.25,0.79 -1.21,1.21 -3.12,1.32 -10.65,0.6 -7.56,-1.79 -22.53,4.13 l -25.79,9.75 c -3.18,1.21 -10.31,4.52 -12.69,5.08 3.36,-5.02 7.54,-8.72 10.9,-13.73 -0.87,-1.19 -4.5,-3.69 -6.14,-3.96 -2.88,-0.48 -3.35,0.57 -9.61,-0.89 -5.2,7.77 -5.27,7.27 -10.79,14.65 -1.77,2.37 -6.11,9.47 -6.76,12.63 -0.23,1.11 -0.13,1.83 -0.34,2.89 -0.25,1.23 -0.55,0.91 -0.69,2.54 -1.8,-0.15 -1.66,-0.58 -2.6,-1.84 -2.67,-3.57 -7.13,-8.75 -10.42,-11.79 -1.63,-1.51 -3.48,-2.67 -5.06,-4.23 -2.38,-2.36 -6.95,-6.5 -9.54,-8.24 -4.4,-2.96 -7.4,-1.41 -12.8,-4.15 l -0.77,-0.44 c 8.12,-1.89 6.66,-0.1 10.9,0 -0.15,-0.65 -0.38,-1.93 -0.64,-2.59 -0.76,-1.91 -9.33,-9.3 -11.24,-11.78 -5.91,-7.65 -10.05,-6.96 -17.07,-1.26 -4.21,3.42 -10.77,7.94 -14.76,11.49 -2.54,2.26 -12.2,11.1 -14.85,11.81 0.35,-1.31 2.24,-3.86 3.13,-4.94 l 3.97,-4.52 c 4.23,-5.48 14.11,-13.39 20.13,-21.06 l 3.87,-4.62 c -1.32,0.36 -0.98,0.45 -2.03,1.2 l -6.16,4.34 c -2.48,1.86 -4.08,2.29 -5.63,4.48 -2.71,3.84 -5.6,3.76 -10.55,6.81 l -11.47,9.13 c -1.32,1.17 -2.46,1.98 -3.8,3.07 l -7.56,6.16 c -2.86,2.28 -13.26,10.57 -16.21,11.26 6.5,-12.28 22.87,-17.17 26.25,-22.21 -0.43,-1.84 -0.59,-2.75 -2.42,-3.23 0.17,-2.12 1.06,-2.5 2.32,-3.74 3.02,-2.97 7.3,-6.61 8.18,-10.4 l -17.91,9.96 c -3.09,1.68 -5.62,3.33 -8.62,5.11 l -16.85,11.02 c -1.44,1 -2.61,1.84 -3.99,2.88 l -8.37,5.76 c -1.41,0.94 -2.62,1.9 -4.03,2.84 -1.41,0.92 -2.69,1.64 -4.2,2.66 -1.11,0.75 -3.51,2.27 -4.69,2.58 3.36,-5.03 10.25,-10.61 14.85,-14.63 1.83,-1.6 3.74,-2.95 5.69,-4.41 1.94,-1.46 3.72,-2.65 5.71,-3.98 l 11.71,-8.48 c 2.02,-1.56 3.42,-3.11 4.85,-5.25 -0.06,-0.07 -0.16,-0.29 -0.18,-0.22 -0.04,0.09 -1.3,-1.77 -2.4,-2.46 -1.02,-0.64 -2.74,-0.96 -4.29,-0.96 l 0.53,-0.28 c 4.39,-2.22 2.59,-2.92 1.49,-4.56 -8.93,0 -6.26,2.02 -10.36,3.77 -1.07,0.45 -2.57,0.97 -3.77,1.07 -0.88,-1.82 -0.35,-2.53 -2.86,-2.09 -4.61,0.8 -14.22,7.98 -18.82,10.7 -7.59,4.49 -6.91,-7.78 -0.23,-14.77 1.76,-1.84 7.3,-7.81 7.77,-9.59 -2.05,-1.37 -2.83,-1.75 -4.04,-4.04 -13.07,0 -184.1789,164.16135 -177.97173,216.7461 L 773.50412,489.34281 C 741.6176,457.65247 733.7494,303.98203 668.48,302.31 Z m -31.09,14.95 -268.18,12.11 z m 31.5,-13.74 -31.5,13.74 z m 0,0 C 0,0 0,0 668.89,303.52 Z"
     id="path92" /><g
     id="g201"
     style="clip-rule:evenodd;fill:url(#linearGradient271);fill-rule:evenodd;image-rendering:optimizeQuality;shape-rendering:geometricPrecision;text-rendering:geometricPrecision"
     transform="matrix(1.1456358,0,0,1.207478,358.34786,-32.65803)"><path
       style="fill:url(#linearGradient272);fill-opacity:1"
       d="m 126.971,142.536 c -0.27,-14.495 -0.325,-25.753 -0.335,-30.736 h -3.153 c -0.232,5.657 -0.709,16.775 -1.411,30.736 -0.05,0.976 4.917,0.975 4.899,0 z"
       id="path9" /><path
       style="fill:url(#linearGradient273);fill-opacity:1"
       d="m 127.681,170.174 h -7.115 c -1.229,20.898 -2.803,43.852 -4.686,63.488 -4.941,51.532 -10.942,81.887 -10.942,81.887 h 37.414 c 0,0 -6.001,-30.355 -10.942,-81.887 -1.895,-19.768 -3.038,-42.71 -3.729,-63.488 z"
       id="path10" /><path
       style="fill:url(#linearGradient274);fill-opacity:1"
       d="m 122.071,142.536 c -0.451,8.971 -0.995,19.111 -1.628,29.736 h 7.309 c -0.368,-10.667 -0.615,-20.813 -0.781,-29.736 z"
       id="path11" /><path
       style="fill:url(#linearGradient275);fill-opacity:1"
       d="m 145.779,327.164 h -25.552 -18.716 c 0,0 -8.507,84.22 -53.594,139.516 H 69.2 c 0,0 24.67,-47.639 54.445,-47.639 29.775,0 54.445,47.639 54.445,47.639 h 21.283 C 154.286,411.383 145.779,327.164 145.779,327.164 Z"
       id="path12" /><path
       style="fill:url(#linearGradient276);fill-opacity:1"
       d="m 151.064,357.7 c -4.042,-18.254 -5.285,-30.536 -5.285,-30.536 h -44.268 c 0,0 -1.243,12.282 -5.285,30.536 z"
       id="path13" /><polygon
       style="fill:url(#linearGradient277);fill-opacity:1"
       points="97.629,331.039 95.35,319.911 151.941,319.911 149.662,331.039 "
       id="polygon13" /><polygon
       style="fill:url(#linearGradient278);fill-opacity:1"
       points="97.629,319.911 95.35,308.782 151.941,308.782 149.662,319.911 "
       id="polygon14" /><rect
       x="109.217"
       y="215.75"
       style="fill:url(#linearGradient279);fill-opacity:1"
       width="28.856001"
       height="14.437"
       id="rect14" /><rect
       x="115.582"
       y="175.51401"
       style="fill:url(#linearGradient280);fill-opacity:1"
       width="16.127001"
       height="10.427"
       id="rect15" /><rect
       x="115.582"
       y="165.08701"
       style="fill:url(#linearGradient281);fill-opacity:1"
       width="16.127001"
       height="10.427"
       id="rect16" /></g><path
     class="fil7"
     d="m 309.92362,459.80416 7.71167,-95.23182 h 12.16563 c 3.20436,3.94439 6.74986,7.46784 10.24306,11.06116 v 17.81599 l 10.02945,11.55331 h 7.40192 v -47.00071 h 3.19361 v -6.0781 h 17.1857 v 6.0781 h 3.19361 v 12.30385 h 10.74507 v -48.32953 h 16.89732 v 9.97843 h 5.99202 v 111.5221 h 5.45799 v -88.78459 l 21.72512,-0.0491 21.50081,6.29956 v 5.97967 41.71005 h 10.89461 v -6.02888 h 3.30042 v -49.91673 h 1.54874 v -5.70898 h 9.84787 v 5.90586 h 5.12687 v -5.77053 h 9.59152 v 5.49982 h 2.49935 v 35.44741 h 11.94134 v 17.36074 h 7.1883 v -13.95265 h 10.51009 v -75.38572 h 4.85984 v -50.27355 l 8.00006,9.20328 4.00536,17.22539 v 11.59023 h 11.49275 l 5.87454,11.73788 h 17.59157 v 109.2582 h 17.87997 v -31.12873 h 10.57417 V 331.192 h 4.9453 v -8.25589 h 15.61559 v -0.78744 -5.79512 h 3.96264 v -20.53509 h 3.66358 v 21.59325 l 3.12953,13.46042 h 4.18694 v 92.19276 h 10.3392 v -31.21486 h -4.50738 v -7.48076 l 59.34354,-0.0983 h 16.22441 c 0,0 237.27837,179.87469 237.11781,180.65747 H 85.452091 C 79.652319,536.62946 309.92362,459.8042 309.92362,459.8042 Z"
     id="path93"
     style="fill:url(#id11);stroke-width:1.14637" /><g
     id="g226"
     transform="matrix(0.92075417,0,0,0.92075417,37.575434,44.795293)"><polygon
       style="fill:#b11820;fill-opacity:1"
       points="397.396,130.107 390.79,144.145 109.21,144.145 102.604,130.107 "
       id="polygon200"
       transform="matrix(0.91250836,0,0,0.91250836,274.09661,235.73038)" /><polygon
       style="fill:#b11820;fill-opacity:1"
       points="387.474,175.171 381.312,188.263 118.688,188.263 112.526,175.171 "
       id="polygon201"
       transform="matrix(0.91250836,0,0,0.91250836,274.09661,235.73038)" /><polygon
       style="fill:#891820;fill-opacity:1"
       points="382.519,144.145 376.58,155.293 123.42,155.293 117.481,144.145 "
       id="polygon202"
       transform="matrix(0.91250836,0,0,0.91250836,274.09661,235.73038)" /><polygon
       style="fill:#891820;fill-opacity:1"
       points="413.498,123.089 406.171,130.107 93.829,130.107 86.502,123.089 "
       id="polygon203"
       transform="matrix(0.91250836,0,0,0.91250836,274.09661,235.73038)" /><path
       style="fill:#48ae8e;fill-opacity:1;stroke-width:0.912508"
       d="m 333.43885,334.4866 13.32263,13.56261 c 0,0 162.60807,6.4049 310.92444,0 l 13.32263,-13.56261 c 0,0 -188.38827,16.76551 -337.5697,0 z"
       id="path203-6" /><g
       id="g209"
       transform="matrix(0.91250836,0,0,0.91250836,274.09661,235.73038)"
       style="fill:#891820;fill-opacity:1">
			<g
   id="g204"
   style="fill:#891820;fill-opacity:1">
				
					<rect
   x="155.26401"
   y="158.069"
   transform="matrix(0.7071,0.7071,-0.7071,0.7071,166.359,-61.1688)"
   style="fill:#891820;fill-opacity:1"
   width="3.5050001"
   height="24.32"
   id="rect203-5" />

					<rect
   x="193.01601"
   y="158.069"
   transform="matrix(-0.7071,0.7071,-0.7071,-0.7071,452.8598,152.8767)"
   style="fill:#891820;fill-opacity:1"
   width="3.5050001"
   height="24.32"
   id="rect204-7" />
			</g>
			<g
   id="g206"
   style="fill:#891820;fill-opacity:1">
				
					<rect
   x="303.479"
   y="158.069"
   transform="matrix(0.7071,0.7071,-0.7071,0.7071,209.7702,-165.9727)"
   style="fill:#891820;fill-opacity:1"
   width="3.5050001"
   height="24.32"
   id="rect205-3" />

					<rect
   x="341.23099"
   y="158.069"
   transform="matrix(-0.7071,0.7071,-0.7071,-0.7071,705.8788,48.0728)"
   style="fill:#891820;fill-opacity:1"
   width="3.5050001"
   height="24.32"
   id="rect206-4" />
			</g>
			<g
   id="g207"
   style="fill:#891820;fill-opacity:1">
				<rect
   x="312.448"
   y="153.27299"
   style="fill:#891820;fill-opacity:1"
   width="23.319"
   height="207.862"
   id="rect207" />
				<path
   style="fill:#891820;fill-opacity:1"
   d="m 339.219,164.928 h -30.223 c -0.552,0 -1,-0.448 -1,-1 v -9.655 c 0,-0.552 0.448,-1 1,-1 h 30.223 c 0.552,0 1,0.448 1,1 v 9.655 c 0,0.553 -0.448,1 -1,1 z"
   id="path207-3" />
			</g>
			<g
   id="g208"
   style="fill:#891820;fill-opacity:1">
				<rect
   x="164.914"
   y="153.27299"
   style="fill:#891820;fill-opacity:1"
   width="23.319"
   height="207.862"
   id="rect208" />
				<path
   style="fill:#891820;fill-opacity:1"
   d="m 191.685,164.928 h -30.223 c -0.552,0 -1,-0.448 -1,-1 v -9.655 c 0,-0.552 0.448,-1 1,-1 h 30.223 c 0.552,0 1,0.448 1,1 v 9.655 c 0,0.553 -0.448,1 -1,1 z"
   id="path208-0" />
			</g>
		</g><g
       id="g213"
       transform="matrix(0.91250836,0,0,0.91250836,274.09661,235.73038)"
       style="fill:#b11820;fill-opacity:1">
			<rect
   x="328.96301"
   y="215.573"
   style="fill:#b11820;fill-opacity:1"
   width="23.319"
   height="145.563"
   id="rect213" />
			<path
   style="fill:#b11820;fill-opacity:1"
   d="m 355.734,223.734 h -30.223 c -0.552,0 -1,-0.448 -1,-1 v -6.162 c 0,-0.552 0.448,-1 1,-1 h 30.223 c 0.552,0 1,0.448 1,1 v 6.162 c 0,0.553 -0.448,1 -1,1 z"
   id="path213-4" />
		</g><g
       id="g214"
       transform="matrix(0.91250836,0,0,0.91250836,274.09661,235.73038)"
       style="fill:#b11820;fill-opacity:1">
			<rect
   x="148.399"
   y="215.573"
   style="fill:#b11820;fill-opacity:1"
   width="23.319"
   height="145.563"
   id="rect214" />
			<path
   style="fill:#b11820;fill-opacity:1"
   d="m 175.17,223.734 h -30.223 c -0.552,0 -1,-0.448 -1,-1 v -6.162 c 0,-0.552 0.448,-1 1,-1 h 30.223 c 0.552,0 1,0.448 1,1 v 6.162 c 0,0.553 -0.448,1 -1,1 z"
   id="path214-8" />
		</g><polygon
       style="fill:#48ae8e;fill-opacity:1"
       points="172.867,215.573 179.473,208.141 140.644,208.141 147.25,215.573 "
       id="polygon214"
       transform="matrix(0.91250836,0,0,0.91250836,274.09661,235.73038)" /><polygon
       style="fill:#48ae8e;fill-opacity:1"
       points="353.431,215.573 360.037,208.141 321.208,208.141 327.814,215.573 "
       id="polygon215"
       transform="matrix(0.91250836,0,0,0.91250836,274.09661,235.73038)" /></g><path
     class="fil8"
     d="m 709.59,387.51 25.98,-25.43 v 203.19 l -25.98,-0.06 z"
     id="path94"
     style="fill:url(#id29)" /><path
     class="fil9"
     d="m 248.68,393.27 11.7,6.76 v 165.18 h -11.7 z"
     id="path95"
     style="fill:url(#id27)" /><path
     class="fil10"
     d="m 786.03,398.71 26.54,-15.88 v 182.44 l -25.98,-0.05 z"
     id="path96"
     style="fill:url(#linearGradient282)" /><path
     class="fil13"
     d="M 608.86,565.27 875.48,830.14 C 783.85,934.27 649.61,1000 500,1000 350.86,1000 216.99,934.68 125.38,831.1 L 392.96,565.27 Z"
     id="path106"
     style="fill:url(#id6)" /><path
     class="fil14"
     d="m 595.5,565.27 256.19,290.1 c -7.07,7 -14.35,13.78 -21.83,20.36 L 585.2,565.27 Z M 149.16,856.2 c 6.8,6.7 13.79,13.21 20.97,19.51 L 414.6,565.27 h -9.86 z"
     id="path107"
     style="fill:url(#id7)" /><path
     class="fil15"
     d="m 332.51,688.61 -70.9,99.38 h 49.14 l 55.15,-99.38 z m 22.47,99.38 h 46.28 l 28.47,-99.38 h -32.64 z m 87.25,0 h 39.57 l 4.73,-99.38 h -27.91 z m 74.31,0 h 36.93 l -16.4,-99.38 h -26.04 z m 77.9,0 h 46.28 l -42.11,-99.38 h -32.64 z m 90.5,0 h 53.45 l -70.9,-99.38 H 629.8 Z"
     id="path108" /><path
     class="fil16"
     d="M 392.96,565.27 H 376.1 L 111.41,814.61 c 4.54,5.6 9.2,11.1 13.97,16.49 z"
     id="path109"
     style="fill:url(#id17)" /><path
     class="fil17"
     d="m 608.86,565.27 h 17.96 l 262.56,248.36 c -4.52,5.6 -9.15,11.11 -13.9,16.51 z"
     id="path110"
     style="fill:url(#linearGradient283)" /><path
     class="fil18"
     d="m 25.74,341.27 282.74,50.75 V 565.21 L 73.25,760.65 c -0.62,-1.01 -1.23,-2.02 -1.84,-3.03 -1.41,-2.35 -2.81,-4.71 -4.18,-7.08 -0.66,-1.13 -1.31,-2.27 -1.96,-3.41 -1.33,-2.33 -2.64,-4.68 -3.93,-7.03 -0.65,-1.19 -1.3,-2.37 -1.94,-3.56 -1.27,-2.37 -2.53,-4.76 -3.77,-7.15 -0.6,-1.17 -1.21,-2.34 -1.8,-3.52 -1.24,-2.43 -2.45,-4.88 -3.65,-7.33 -0.56,-1.17 -1.13,-2.34 -1.69,-3.51 -1.2,-2.53 -2.39,-5.07 -3.56,-7.63 -0.47,-1.04 -0.95,-2.09 -1.42,-3.14 -1.2,-2.68 -2.38,-5.37 -3.53,-8.07 -0.4,-0.93 -0.8,-1.86 -1.19,-2.79 -1.21,-2.88 -2.39,-5.77 -3.54,-8.68 -0.34,-0.85 -0.68,-1.7 -1.01,-2.55 -1.17,-2.98 -2.31,-5.98 -3.42,-9 -0.3,-0.81 -0.6,-1.63 -0.9,-2.45 -1.12,-3.08 -2.21,-6.18 -3.27,-9.29 -0.26,-0.75 -0.51,-1.5 -0.76,-2.25 -1.07,-3.19 -2.11,-6.39 -3.12,-9.6 -0.22,-0.69 -0.43,-1.37 -0.64,-2.06 -1.01,-3.29 -2,-6.59 -2.95,-9.91 -0.17,-0.61 -0.34,-1.22 -0.51,-1.83 -0.95,-3.37 -1.87,-6.75 -2.75,-10.14 -0.13,-0.53 -0.26,-1.05 -0.4,-1.58 -0.88,-3.44 -1.72,-6.91 -2.53,-10.38 l -0.33,-1.43 c -0.82,-3.58 -1.6,-7.17 -2.35,-10.77 l -0.23,-1.13 C 9.32,596.65 8.61,592.93 7.94,589.2 L 7.73,588.03 C 7.07,584.29 6.45,580.54 5.87,576.78 L 5.69,575.64 C 5.11,571.85 4.58,568.05 4.09,564.23 L 3.96,563.17 C 3.47,559.32 3.03,555.45 2.63,551.56 l -0.09,-0.92 c -0.4,-3.93 -0.75,-7.87 -1.05,-11.82 l -0.06,-0.79 c -0.3,-4 -0.56,-8.02 -0.76,-12.05 L 0.64,525.35 C 0.43,521.26 0.27,517.16 0.17,513.04 L 0.16,512.67 C 0.06,508.46 0,504.24 0,500 c 0,-4.3 0.05,-8.58 0.16,-12.85 v -0.09 c 0.11,-4.22 0.27,-8.43 0.48,-12.62 l 0.02,-0.29 c 0.21,-4.13 0.47,-8.24 0.78,-12.35 l 0.04,-0.48 c 0.31,-4.02 0.66,-8.03 1.06,-12.02 l 0.08,-0.77 c 0.4,-3.88 0.84,-7.76 1.33,-11.62 l 0.14,-1.13 c 0.48,-3.71 1,-7.42 1.56,-11.11 l 0.24,-1.6 c 0.55,-3.53 1.13,-7.05 1.75,-10.56 0.12,-0.68 0.24,-1.35 0.36,-2.02 0.61,-3.38 1.26,-6.74 1.94,-10.1 0.16,-0.79 0.32,-1.58 0.48,-2.36 0.67,-3.21 1.36,-6.41 2.09,-9.6 0.21,-0.93 0.43,-1.87 0.65,-2.8 0.71,-3.04 1.45,-6.07 2.21,-9.09 0.27,-1.03 0.54,-2.07 0.81,-3.1 0.76,-2.92 1.54,-5.83 2.35,-8.72 0.32,-1.12 0.64,-2.24 0.96,-3.36 0.81,-2.81 1.64,-5.6 2.49,-8.38 0.36,-1.16 0.72,-2.31 1.08,-3.47 0.87,-2.75 1.76,-5.5 2.68,-8.23 z"
     id="path111" /><path
     class="fil19"
     d="m 974.26,341.27 -282.74,50.75 v 173.19 l 235.23,195.44 c 0.62,-1.01 1.23,-2.02 1.84,-3.03 1.41,-2.35 2.81,-4.71 4.18,-7.08 0.66,-1.13 1.31,-2.27 1.96,-3.41 1.33,-2.33 2.64,-4.68 3.93,-7.03 0.65,-1.19 1.3,-2.37 1.94,-3.56 1.27,-2.37 2.53,-4.76 3.77,-7.15 0.6,-1.17 1.21,-2.34 1.8,-3.52 1.24,-2.43 2.45,-4.88 3.65,-7.33 0.56,-1.17 1.13,-2.34 1.69,-3.51 1.2,-2.53 2.39,-5.07 3.56,-7.63 0.47,-1.04 0.95,-2.09 1.42,-3.14 1.2,-2.68 2.38,-5.37 3.53,-8.07 0.4,-0.93 0.8,-1.86 1.19,-2.79 1.21,-2.88 2.39,-5.77 3.54,-8.68 0.34,-0.85 0.68,-1.7 1.01,-2.55 1.17,-2.98 2.31,-5.98 3.42,-9 0.3,-0.81 0.6,-1.63 0.9,-2.45 1.12,-3.08 2.21,-6.18 3.27,-9.29 0.26,-0.75 0.51,-1.5 0.76,-2.25 1.07,-3.19 2.11,-6.39 3.12,-9.6 0.22,-0.69 0.43,-1.37 0.64,-2.06 1.01,-3.29 2,-6.59 2.95,-9.91 0.17,-0.61 0.34,-1.22 0.51,-1.83 0.95,-3.37 1.87,-6.75 2.75,-10.14 0.13,-0.53 0.26,-1.05 0.4,-1.58 0.88,-3.44 1.72,-6.91 2.53,-10.38 l 0.33,-1.43 c 0.82,-3.58 1.6,-7.17 2.35,-10.77 l 0.23,-1.13 c 0.76,-3.7 1.47,-7.42 2.14,-11.15 l 0.21,-1.17 c 0.66,-3.74 1.28,-7.49 1.86,-11.25 l 0.18,-1.14 c 0.58,-3.79 1.11,-7.59 1.6,-11.41 l 0.13,-1.06 c 0.49,-3.85 0.93,-7.72 1.33,-11.61 l 0.09,-0.92 c 0.4,-3.93 0.75,-7.87 1.05,-11.82 l 0.06,-0.79 c 0.3,-4 0.56,-8.02 0.76,-12.05 l 0.03,-0.63 c 0.21,-4.09 0.37,-8.19 0.47,-12.31 l 0.01,-0.37 c 0.1,-4.21 0.16,-8.43 0.16,-12.67 0,-4.3 -0.05,-8.58 -0.16,-12.85 v -0.09 c -0.11,-4.22 -0.27,-8.43 -0.48,-12.62 l -0.02,-0.29 c -0.21,-4.13 -0.47,-8.24 -0.78,-12.35 l -0.04,-0.48 c -0.31,-4.02 -0.66,-8.03 -1.06,-12.02 l -0.08,-0.77 c -0.4,-3.88 -0.84,-7.76 -1.33,-11.62 l -0.14,-1.13 c -0.48,-3.71 -1,-7.42 -1.56,-11.11 l -0.24,-1.6 c -0.55,-3.53 -1.13,-7.05 -1.75,-10.56 -0.12,-0.68 -0.24,-1.35 -0.36,-2.02 -0.61,-3.38 -1.26,-6.74 -1.94,-10.1 -0.16,-0.79 -0.32,-1.58 -0.48,-2.36 -0.67,-3.21 -1.36,-6.41 -2.09,-9.6 -0.21,-0.93 -0.43,-1.87 -0.65,-2.8 -0.71,-3.04 -1.45,-6.07 -2.21,-9.09 -0.27,-1.03 -0.54,-2.07 -0.81,-3.1 -0.76,-2.92 -1.54,-5.83 -2.35,-8.72 -0.32,-1.12 -0.64,-2.24 -0.96,-3.36 -0.81,-2.81 -1.64,-5.6 -2.49,-8.38 -0.36,-1.16 -0.72,-2.31 -1.08,-3.47 -0.87,-2.75 -1.76,-5.5 -2.68,-8.23 z"
     id="path112" /><path
     class="fil20"
     d="m 25.74,341.27 282.74,50.75 V 156.74 L 201.69,98.71 C 120.62,159.08 58.47,243.44 25.74,341.27 Z"
     id="path113" /><path
     class="fil20"
     d="M 974.26,341.27 691.52,392.02 V 156.74 L 798.31,98.71 c 81.07,60.37 143.22,144.73 175.95,242.56 z"
     id="path114" /><path
     class="fil20"
     d="M 308.48,156.74 V 38.03 C 270.26,53.89 234.43,74.34 201.69,98.71 Z"
     id="path115" /><path
     class="fil20"
     d="M 691.52,156.74 V 38.03 c 38.22,15.86 74.05,36.31 106.79,60.68 z"
     id="path116" /><path
     class="fil21"
     d="m 299.8,444.97 0.56,126.99 -147.07,122.19 -0.85,-249.44 z"
     id="path117" /><rect
     class="fil22"
     x="642.15997"
     y="397.92001"
     width="58.130001"
     height="7.1999998"
     id="rect117" /><rect
     class="fil22"
     x="642.15997"
     y="497.98001"
     width="58.130001"
     height="7.1999998"
     id="rect118" /><rect
     class="fil22"
     x="634.15997"
     y="383.82001"
     width="46"
     height="136.12"
     id="rect119" /><rect
     class="fil23"
     x="640.21997"
     y="388.67001"
     width="33.869999"
     height="126.41"
     id="rect120"
     style="fill:url(#linearGradient284)" /><path
     class="fil24"
     d="m 654.27,403.08 -6.19,0.19 -0.05,3.12 5.88,0.08 c -1.81,6.74 -2.34,6.88 -6.67,10.05 0.62,1.02 1.18,1.82 2.2,2.43 2.42,-1.21 3.87,-2.84 5.27,-5.16 4.52,-7.5 -0.88,-7.33 8,-7.33 -0.12,2.74 -0.18,6.71 -0.96,8.94 l -4.96,0.13 c 0.13,3.33 -0.44,3.51 3.42,3.54 2.9,0.03 4.06,-0.4 4.89,-2.6 0.93,-2.47 1.28,-10.5 0.79,-13.23 h -8.18 l 0.25,-3.92 -3.6,-0.02 z"
     id="path120" /><path
     class="fil24"
     d="m 658.14,459.78 h -10.06 l -0.34,3.24 9.4,0.01 c -4.08,5.13 -6.2,5.39 -10.02,8.07 0.59,1.48 0.81,1.61 1.9,2.56 1.67,-1.14 3.26,-2.03 4.8,-3.19 1.57,-1.18 2.56,-3.15 4.33,-3.91 0.05,5.49 1.41,6.31 -4.14,6.1 l 0.56,3.27 c 9.86,0.83 6.4,-3.22 7.08,-12.9 l 5.08,-0.01 -0.1,-3.23 -5.06,-0.02 -0.03,-3.42 -3.34,-0.07 z"
     id="path121" /><path
     class="fil24"
     d="m 647.22,493.74 c 0.91,0.89 1.05,1.42 2.22,2.01 1.9,-0.98 1.95,-1.94 3.18,-3.46 0.88,-1.09 2.41,-0.69 5.58,-0.77 -0.03,9.28 -6.76,8.53 -9.03,10.32 0.28,0.44 0.49,0.86 0.79,1.37 0.59,0.99 0.33,0.67 1.02,1.24 3.31,-0.8 6.1,-2.16 7.78,-4.09 2.08,-2.37 2.38,-4.94 3.22,-8.71 l 5.2,-0.14 v -3.22 h -12.31 l 0.83,-3.75 -3.44,-0.3 c -1.1,3.18 -0.95,4.6 -3.24,7.54 -0.81,1.03 -1.16,0.91 -1.8,1.96 z"
     id="path122" /><path
     class="fil24"
     d="m 647.44,437.56 h 14.31 c -1.12,5.09 -5.62,6.47 -11.54,6.81 -0.02,1.23 0.43,2.3 0.86,3.18 4.01,-0.5 7.94,-1.2 10.47,-3.53 2,-1.84 4.65,-5.38 4.3,-9.65 h -18.39 z"
     id="path123" /><path
     class="fil24"
     d="m 664.64,431.06 0.01,-2.52 -1.36,-0.17 h -12.31 l -0.38,-0.01 -1.5,0.07 v 2.9 l 14.96,0.02 z"
     id="path124" /><path
     class="fil21"
     d="m 691.72,438.41 -0.56,126.99 147.07,122.19 0.86,-249.44 z"
     id="path125" /><path
     class="fil25"
     d="m 732.06,426.96 c -0.29,-0.43 -0.35,-0.27 -0.75,-1.36 l -0.55,-4.39 c 8.08,-1.06 11.55,-4.52 13.05,-12.24 l -16.1,1.18 0.1,-5.88 21.12,-1.78 c 0.03,7.39 -1.49,12.28 -5.03,17.9 -2.24,3.54 -7.69,5.9 -11.84,6.57 z m -18.82,-20.11 c -1.28,1.97 -2.11,8.36 -2.88,11.13 -0.65,2.31 -2.58,6.87 -4.03,8.46 -1.07,1.18 -0.43,0.49 -1.49,0.87 -0.64,-0.46 -0.37,-0.12 -0.87,-0.69 -3.17,-3.63 1.06,-5.44 2.86,-9.98 1.04,-2.61 1.74,-6.2 1.83,-9.33 l -5.24,0.4 -0.01,-5.44 c 2.16,-0.15 4.45,-0.04 5.84,-1.32 l 0.07,-5.79 3.92,-0.26 -0.14,6.3 8.03,-0.71 c 0.68,3.35 0.63,22.03 -1.81,25.31 -0.59,0.8 -1.44,1.31 -2.85,1.49 -0.47,0.06 -1.96,0.14 -2.43,0.11 -2.72,-0.19 -2.57,-2.9 -2.26,-6.17 l 4.67,-0.31 c 0.94,-2.39 1.53,-11.58 0.83,-14.4 z m 62.69,-5.9 c -2.29,12.31 5.39,27.15 -9.7,25.06 -0.78,-1.93 -0.84,-4.24 -0.9,-6.27 3.07,-0.26 3.23,0.03 5.43,-1.49 l 0.04,-10.04 c -1.42,0.87 -3.58,4.97 -5.37,7.27 -3.61,4.61 -1.29,1.39 -3.16,3.28 -1.35,1.37 0.4,1.1 -3.94,3.24 -0.58,-1.76 -1.25,-2.23 -1.77,-4.64 1.65,-1.76 1.17,-1.87 3.24,-3.46 1.53,-1.18 2.25,-2.07 3.57,-3.63 1.5,-1.77 4.94,-6.87 5.51,-8.92 -0.37,0.37 0.19,0.2 -0.78,0.32 l -4.43,0.31 c -1.77,0.19 -4.57,0.46 -6.41,0.47 l 0.06,-6.1 13.23,-1.64 0.28,-6.7 4.76,-0.42 0.2,6.65 7.01,-0.53 0.11,6.46 z m -46.38,-6.93 c 3.35,-0.63 14.84,-2.1 17.71,-1.78 0.51,1.69 0.41,3.74 0.03,5.29 l -17.76,1.81 z m 73.32,-2.5 20.2,-2.01 0.05,7.48 -8.69,1.03 c -2.29,5.3 -0.19,16.35 -10.3,23.8 -1.72,1.27 -5.28,3.68 -8.03,3.56 -0.89,-1.03 -2.28,-4 -2.26,-5.48 1.1,-2.83 13.93,-2.14 13.84,-21.35 l -7.59,0.42 c -2.27,3.24 -2.63,6.33 -5.32,8.96 -1.89,-0.34 -1.86,-0.37 -2.72,-1.75 -3.19,-5.11 0.09,-1.16 3.48,-11.32 1.03,-3.06 2.17,-7.79 2.72,-11.06 l 5.8,-0.06 c -0.25,2.37 -0.56,5.92 -1.18,7.78 z m -112.04,0.62 v 46.03 H 806.9 c 1.3,0 0.93,-0.23 1.61,-0.23 l 3.6,0.23 c 1.32,0 1.47,-0.26 2.06,-0.28 l 3.14,0.28 c 1.62,0 1.92,-0.34 2.8,-0.34 2.63,0 -0.22,0.49 5.7,0.03 1.4,-0.11 0.87,0.31 2.71,0.31 1.95,0 2.81,-0.4 4,-0.4 2.72,0 1.98,0.94 6,0 v -68.84 c -2.3,0 -6.21,0.85 -9.19,1.21 l -18.39,2.82 c -5.49,1.16 -21.2,3.12 -27.81,4.21 l -88.24,13.42 c -1.54,0.2 -4.06,-0.02 -4.06,1.55 z"
     id="path126"
     style="fill:url(#id35)" /><path
     class="fil26"
     d="m 152.11,444.57 c 3.99,0.93 4.24,0.06 6.41,0.06 l 4,0.34 c 1.33,0 1.48,-0.26 2.06,-0.28 l 5.54,0.28 c 43.23,0 86.45,0 129.68,0 v -46.02 c 0,-1.59 -5.34,-1.9 -8.1,-2.31 -3.34,-0.51 -6.21,-0.92 -9.5,-1.31 -2.91,-0.34 -6.08,-1.09 -8.91,-1.5 l -9.39,-1.33 c -3.02,-0.41 -5.91,-0.85 -9.08,-1.4 -1.75,-0.3 -2.85,-0.37 -4.55,-0.66 l -13.96,-2.05 c -18.06,-3.15 -37.67,-5.33 -55.23,-8.41 -4.05,-0.71 -26.16,-4.25 -28.97,-4.25 z"
     id="path127"
     style="fill:url(#id34)" /><path
     class="fil27"
     d="m 191.67,422.93 15.47,0.95 -0.2,4.62 -15.22,-0.64 z m -8.43,-17.37 c 2,-0.44 10.86,0.85 12.59,1.54 l -0.1,2.07 -12.49,-0.89 z m 0.1,-8.25 24.91,2.9 -0.48,2.45 -24.77,-2.52 z m -11.24,31.25 c 1.27,1.64 0.94,1.43 2.6,2.63 0.53,0.38 0.9,0.63 1.36,1.04 1.33,1.22 0.18,0.71 2.02,1.41 1.11,-2.92 2.23,-5.39 3.23,-8.79 0.79,-2.72 1.16,-7.45 1.61,-10.45 l 12.83,0.79 0.12,2.35 c -3.81,0.19 -7.68,-0.53 -11.3,-0.18 l -0.08,17.14 6.44,0.49 1.32,-1.74 c 2.3,-0.56 11.35,0.26 14.29,0.46 l 1.08,1.68 5.83,0.06 0.14,-16.46 -10.72,-0.72 -0.14,-2.64 13.38,0.86 0.05,-5.13 c -3.22,-0.6 -11.01,-0.85 -13.22,-1.81 -0.72,-3.87 4.25,-1.73 11.36,-1.19 0.67,-4.12 0.47,-8.51 0.36,-12.79 l -38.95,-4.83 c -0.63,8.03 1.05,22.11 -1.36,29.74 -0.68,2.15 -2.01,6.08 -2.25,8.08 z"
     id="path128" /><path
     class="fil27"
     d="m 238.17,427.51 12.85,0.66 -0.41,1.73 -12.45,-0.49 z m 11.6,-14.16 c 0.38,-0.51 -0.77,-0.4 1.2,-0.4 0.05,4.35 0.26,4.27 -1.6,3.21 0,-1.3 -0.33,-2.27 0.4,-2.81 z m -11.61,9.61 c -0.21,-2.83 -1.81,-10.48 1.38,-10.93 0.37,1.09 0.12,2.2 -0.22,3.49 -0.47,1.8 -0.75,1.69 -0.73,4.24 1.71,1.13 0.34,1.51 3.42,2.23 0.96,-2.55 1.49,-7.49 2.49,-9.52 0.81,1.6 0.98,0.14 1,3.27 0.02,1.74 0.02,3.3 0.27,4.82 4.87,2.14 4.29,0.14 5.2,2.4 -3.11,0.87 -8.73,0 -12.81,0 z m 6,-16.01 c -0.05,-1.48 -0.31,-2.04 1.27,-2 l -0.06,2.1 z m 6.81,1.2 c -0.91,-1.69 -0.61,0.31 -1.03,-2.66 l 7.04,0.62 -0.04,-5.56 c -3.83,-0.14 -9.61,-1.16 -13.5,-1.61 l -10.05,-1.16 c -1.64,0.34 -1.26,0.67 -2.03,1.69 -2.18,-1.66 -3.2,-3.16 -6.4,-3.72 -0.84,2.31 -3.19,3.66 -0.77,5.57 2.78,2.19 2.18,2.97 5.05,3.48 l 2.23,-2.77 c 1.78,1.61 0.39,1.28 3.7,1.76 1.22,0.17 2.88,0.45 4.22,0.7 l -0.17,1.96 -6.44,0.01 0.14,29.47 4.44,0.17 c 1.11,-1.65 4.71,-1.17 7.21,-1.14 3.44,0.04 5.3,-0.64 6.81,1.66 l 4.62,-0.27 -0.45,-27.97 z"
     id="path129" /><path
     class="fil27"
     d="m 277.17,418.33 4.63,0.35 0.69,2.04 -6.09,-0.46 z m -8.19,-11.76 15.97,1.98 v 1.53 l -16.21,-1.83 z m 20.41,-1.67 -25.61,-3.15 c 0,5.4 0.42,11.94 0.02,17.17 -0.31,3.87 -2.39,10.92 -2.31,14.05 0.16,0.48 1.91,2.37 2.87,2.72 0.11,0.03 0.23,0.07 0.33,0.1 0.1,0.03 0.27,0.02 0.35,0.04 0.09,0.02 0.3,0.1 0.36,-0.02 0.07,-0.11 0.25,-0.03 0.38,-0.04 3.46,-5.03 1.45,-12.15 3.21,-18.16 l 2.8,0.41 c -0.55,1.86 -0.43,1.67 -2.58,1.85 l 0.07,4.54 7.14,0.07 0.17,1.73 -7.29,-0.23 0.45,3.81 c 5.84,0.57 7.09,-0.6 6.68,2.32 l -8.25,-0.34 0.23,4.39 21.77,0.33 c 0.04,-4.28 0.3,-4.11 -9,-4.25 l 0.62,-1.95 7.2,0.33 c 0.06,-0.64 0.17,-1.45 0.14,-2.09 l -0.21,-1.19 c -0.02,-0.21 -0.09,-0.25 -0.13,-0.33 l -7.41,-0.45 c -0.8,-3.19 3.15,-2.04 3.27,-1.99 0.94,0.38 0.49,0.81 1.93,1.62 l 2.41,-1.75 c 0.04,-0.17 0.16,-0.19 0.41,-0.36 l -2.2,-4.85 c 2.16,-0.25 3.44,-0.06 2.87,-2.71 -0.23,-1.09 -0.37,-0.9 -0.47,-1.1 -3.12,-0.81 -20.53,-1.18 -20.62,-2.82 0.5,-0.37 -0.38,-0.35 1.18,-0.45 0.03,0 1.1,0.11 1.21,0.12 l 7.62,0.9 c 3.14,0.43 6.79,0.75 10.14,0.61 z"
     id="path130" /><path
     class="fil24"
     d="m 802.87,391.52 c 0.62,-1.86 0.93,-5.41 1.18,-7.78 l -5.8,0.06 c -0.55,3.27 -1.69,8 -2.72,11.06 -3.39,10.16 -6.67,6.21 -3.48,11.32 0.86,1.38 0.83,1.41 2.72,1.75 2.69,-2.63 3.05,-5.72 5.32,-8.96 l 7.59,-0.42 c 0.09,19.21 -12.74,18.52 -13.84,21.35 -0.02,1.48 1.37,4.45 2.26,5.48 2.75,0.12 6.31,-2.29 8.03,-3.56 10.11,-7.45 8.01,-18.5 10.3,-23.8 l 8.69,-1.03 -0.05,-7.48 z"
     id="path131" /><path
     class="fil24"
     d="m 782.91,400.17 -0.11,-6.46 -7.01,0.53 -0.2,-6.65 -4.76,0.42 -0.28,6.7 -13.23,1.64 -0.06,6.1 c 1.84,-0.01 4.64,-0.28 6.41,-0.47 l 4.43,-0.31 c 0.97,-0.12 0.41,0.05 0.78,-0.32 -0.57,2.05 -4.01,7.15 -5.51,8.92 -1.32,1.56 -2.04,2.45 -3.57,3.63 -2.07,1.59 -1.59,1.7 -3.24,3.46 0.52,2.41 1.19,2.88 1.77,4.64 4.34,-2.14 2.59,-1.87 3.94,-3.24 1.87,-1.89 -0.45,1.33 3.16,-3.28 1.79,-2.3 3.95,-6.4 5.37,-7.27 l -0.04,10.04 c -2.2,1.52 -2.36,1.23 -5.43,1.49 0.06,2.03 0.12,4.34 0.9,6.27 15.09,2.09 7.41,-12.75 9.7,-25.06 z"
     id="path132" /><path
     class="fil24"
     d="m 717.28,406.52 c 0.7,2.82 0.11,12.01 -0.83,14.4 l -4.67,0.31 c -0.31,3.27 -0.46,5.98 2.26,6.17 0.47,0.03 1.96,-0.05 2.43,-0.11 1.41,-0.18 2.26,-0.69 2.85,-1.49 2.44,-3.28 2.49,-21.96 1.81,-25.31 l -8.03,0.71 0.14,-6.3 -3.92,0.26 -0.07,5.79 c -1.39,1.28 -3.68,1.17 -5.84,1.32 l 0.01,5.44 5.24,-0.4 c -0.09,3.13 -0.79,6.72 -1.83,9.33 -1.8,4.54 -6.03,6.35 -2.86,9.98 0.5,0.57 0.23,0.23 0.87,0.69 1.06,-0.38 0.42,0.31 1.49,-0.87 1.45,-1.59 3.38,-6.15 4.03,-8.46 0.77,-2.77 1.6,-9.16 2.88,-11.13 z"
     id="path133" /><path
     class="fil24"
     d="m 732.06,426.96 c 4.15,-0.67 9.6,-3.03 11.84,-6.57 3.54,-5.62 5.06,-10.51 5.03,-17.9 l -21.12,1.78 -0.1,5.88 16.1,-1.18 c -1.5,7.72 -4.97,11.18 -13.05,12.24 l 0.55,4.39 c 0.4,1.09 0.46,0.93 0.75,1.36 z"
     id="path134" /><path
     class="fil24"
     d="m 729.55,394.02 -0.02,5.32 17.76,-1.81 c 0.38,-1.55 0.48,-3.6 -0.03,-5.29 -2.87,-0.32 -14.36,1.15 -17.71,1.78 z"
     id="path135" /><path
     class="fil27"
     d="m 224.96,434.29 c 2.42,-0.69 3.18,-3.47 4.31,-5.9 1.23,-2.61 2.58,-4.74 2.39,-8.13 -1.26,-0.98 -2.18,-1.91 -4.3,-2.46 -1.05,3.72 -5.01,9.54 -5.14,12.36 0.14,0.74 1.7,3.24 2.74,4.13 z"
     id="path136" /><path
     class="fil27"
     d="m 222.57,411.72 c 1.2,1.39 3.47,3.26 5.99,3.63 1.02,-1.55 1.68,-2.18 2,-4.8 -1.11,-0.56 -1.52,-1.4 -2.72,-2.14 -1.46,-0.89 -2.11,-1.17 -3.91,-1.4 -0.88,2.94 -1.61,2.68 -1.36,4.71 z"
     id="path137" /><path
     class="fil28"
     d="m 183.24,408.28 12.49,0.89 0.1,-2.07 c -1.73,-0.69 -10.59,-1.98 -12.59,-1.54 z"
     id="path138" /><path
     class="fil21"
     d="m 830.54,438.17 -1.07,241.61 97.3,80.84 C 973.22,684.72 1000,595.49 1000,500 c 0,-20.94 -1.31,-41.57 -3.81,-61.83 z"
     id="path139" /><path
     class="fil29"
     d="M 695.13,444.75 V 568.7 l 57.48,47.52 V 445.34 l 0.57,0.01 z m 64.77,177.49 71.18,58.85 V 446.16 l -71.18,-0.74 z"
     id="path140"
     style="fill:url(#id19)" /><path
     class="fil30"
     d="m 837.05,446.1 v 239.97 l 89.87,74.3 c 7.04,-11.51 13.61,-23.34 19.72,-35.44 V 447.81 Z M 1000,500 c 0,-17.37 -0.89,-34.54 -2.62,-51.46 L 960.53,448.1 V 695.03 C 985.95,635.11 1000,569.19 1000,500 Z"
     id="path141"
     style="fill:url(#linearGradient285)" /><path
     class="fil21"
     d="m 159.66,444.72 1.07,241.62 -88.15,73.23 C 26.53,683.91 0,595.05 0,500 0,481.31 1.06,462.88 3.06,444.72 Z"
     id="path142" /><path
     class="fil30"
     d="m 296.39,451.3 v 123.96 l -57.48,47.52 V 451.9 l -0.57,0.01 z m -64.77,177.5 -71.18,58.85 V 452.71 l 71.18,-0.73 z"
     id="path143"
     style="fill:url(#linearGradient286)" /><path
     class="fil30"
     d="M 153.16,452.66 V 692.63 L 72.44,759.36 C 61.72,741.72 52.07,723.36 43.56,704.38 V 454.36 Z M 2.04,454.99 C 0.72,469.82 0,484.83 0,500 0,559.7 10.48,616.95 29.67,670.02 V 454.65 Z"
     id="path144"
     style="fill:url(#id20)" /><rect
     class="fil22"
     x="853.59003"
     y="407.91"
     width="101.42"
     height="246.58"
     id="rect144" /><rect
     class="fil31"
     x="865.71002"
     y="416.70001"
     width="77.18"
     height="229"
     id="rect145"
     style="fill:url(#id3)" /><path
     class="fil22"
     d="M 983.37,371.73 H 853.59 v 18.66 h 134.34 l -0.44,-1.96 c -0.21,-0.93 -0.43,-1.87 -0.65,-2.8 -0.71,-3.04 -1.45,-6.07 -2.21,-9.09 -0.27,-1.03 -0.54,-2.07 -0.81,-3.1 z"
     id="path145" /><rect
     class="fil22"
     x="865.02002"
     y="385.13"
     width="10.52"
     height="25.9"
     id="rect146" /><rect
     class="fil22"
     x="923.28003"
     y="385.13"
     width="10.52"
     height="25.9"
     id="rect147" /><g
     id="_53385088096">
   <path
   class="fil32"
   d="m 911.53,591.12 c 5.35,0.09 5.13,-0.18 6.98,3.46 l -14.94,0.21 c 1.88,-4.26 1.57,-3.76 7.96,-3.67 z m 12.16,-12.31 -36.14,-0.07 c 0.77,-3.97 -0.89,-3.15 6.59,-3.04 l 29.56,0.11 z m -36.14,5.91 c 2.53,-1.67 -0.26,-1.24 5.49,-1.34 10.05,-0.17 31.89,0.87 39.39,-0.13 l 0.73,-12.74 -54.6,-0.13 c 0,24.5 2.12,21.11 -4.76,42.66 1.52,1.04 5.15,3.13 7.39,4.09 6.87,-6.2 4.33,-17.36 6.95,-25.93 l 7,-0.03 c -0.69,3.42 -0.31,3.34 -5.32,3.63 l 0.04,5.7 c 18.8,-0.3 14.83,-1.72 15.53,2.74 l -15.4,0.09 0.29,4.74 c 2.84,0.1 5.43,0.05 8.26,0.05 8.23,-0.01 6.06,0.8 6.85,2.08 -1.94,1.3 3.18,1.51 -9.05,1.35 -2.68,-0.04 -5.38,-0.02 -8.58,-0.06 l -0.26,5.56 47.19,-0.28 c 0.36,-6.64 0.99,-5.15 -20.31,-5.19 0.7,-5.01 0.75,-3.41 17.86,-3.34 l 0.11,-4.93 -17.97,-0.04 c 0.31,-5.02 0.7,-3.5 8.18,-4.01 l 4.14,2.78 6.24,-3.19 c -1.53,-2.93 -3.94,-5.2 -5.61,-7.41 l 7.47,-0.78 c 0,-5.61 -0.04,-4.79 -7.01,-4.75 l -28.2,-0.03 c -5.5,0 -9.04,0.72 -12.04,-1.16 z"
   id="path147" />
   <path
   class="fil32"
   d="m 899.08,479.22 22.74,0.24 -0.23,6.13 -22.7,-0.15 z m 6.56,-18.48 -0.19,3.1 -17.89,0.08 c -0.13,-5.05 0.41,-3.75 7.63,-3.65 3.86,0.05 6.63,-0.17 10.45,0.47 z m 17.18,-5.91 -35.39,-0.07 c 0.72,-4.44 -1.46,-3.68 6.66,-3.53 l 29.36,0.11 z m -44.23,7.4 c 0,11.27 -1.21,15.04 -4.83,24.57 l 7.14,5.3 c 7.69,-14.07 3.84,-12.82 6.73,-21.76 l 17.97,-0.23 0.1,3.3 -15.74,0.34 -0.02,19.11 8.83,0.16 c 0.78,-3.45 3.33,-2.03 19.72,-1.99 4.41,0.01 2.7,-0.02 3.37,2.01 l 8.98,-0.02 v -19.19 l -16.14,-0.11 v -3.69 l 19.98,-0.05 0.16,-5.52 c -3.71,-0.66 -6.61,-0.49 -10.4,-0.47 l -7.48,-0.08 c -2.02,-0.3 -1.12,-0.22 -2.2,-0.74 0.5,-4.32 -0.25,-2.84 17.2,-2.81 1.07,-5.39 0.59,-9.25 0.54,-14.98 l -54.07,-0.11 z"
   id="path148" />
   <g
   id="g151">
    <path
   class="fil32"
   d="m 911.21,547.84 c -15.75,0.02 -9.87,0.54 -11.41,-1.89 1.56,-0.96 -2.29,-1.7 5.93,-1.72 h 15.34 c 4.56,0.48 2.52,-0.74 3.19,2.64 -1.39,0.79 0.78,0.61 -3.26,1.03 z m 8.72,-20.29 c -0.24,-2.99 -0.05,-3.35 4.18,-3.34 0.76,8.16 -0.08,5.04 -0.99,6.26 -3.05,-0.67 -2.91,0.65 -3.19,-2.92 z m -20.13,11.7 c 0,-11.6 -1.9,-13.7 2.74,-15.08 0.51,0.5 2.45,-0.88 0.86,4.9 -0.53,1.89 -1.22,2.42 -1.75,4.6 2.57,2.65 1.85,2.35 5.22,3.43 1.22,-2.62 3.64,-12.05 4.34,-12.88 4.92,0.76 2.5,5.39 3.42,10.4 3.47,1.45 1.55,0.73 5.38,1.24 6.73,0.91 2.8,-0.99 4.25,2.24 -2.73,1.95 -6.69,1.19 -11.97,1.17 -4.17,-0.01 -8.33,-0.01 -12.49,-0.02 z m 14.43,-22.37 c -0.55,2.17 -0.78,1.42 -3.61,1.48 -0.89,-3.2 0.13,-3.29 0.59,-3.93 2.08,0.26 3.85,-0.82 3.02,2.45 z m -23.11,-3 c 0.07,-0.16 0.4,0.32 0.6,0.44 l 11.64,0.31 -0.31,3.67 -11.05,0.58 0.07,36.42 c 13,1.06 -0.78,-1.7 20.22,-1.67 3.7,0.01 8.24,-0.43 11.29,0.67 1.39,0.5 -0.67,2.16 8.82,0.94 l -0.42,-36.59 c -8.18,-0.62 -10.78,2.22 -11.17,-4.23 l 13.62,0.02 -0.22,-6.56 -42.5,-0.09 c -1.76,1.95 -0.71,0.36 -2.16,2.76 -4.11,-0.93 -4.69,-2.91 -10.18,-4.07 -1.18,1.5 -2.86,3.28 -3.66,5.19 l 8.7,5.17 5.14,-4.74 z"
   id="path149" />
    <path
   class="fil32"
   d="m 878.34,553.86 c 3.53,-1.72 4.05,-3.42 6.83,-7.99 1.51,-2.49 3.67,-5.82 4.22,-8.72 -2.45,-2.04 -3.45,-2.37 -6.5,-3.56 -2.17,6.11 -6.35,9.97 -8.73,14.94 1.62,2.26 2.78,3.16 4.18,5.33 z"
   id="path150" />
    <path
   class="fil32"
   d="m 883.05,530.03 c 2.43,-1.58 2.96,-2.79 4.15,-5.17 -2.26,-2.28 -5.75,-3.51 -9.66,-4.34 l -2.99,5.19 c 2.21,1.49 6.4,3.59 8.5,4.32 z"
   id="path151" />
   </g>
  </g><path
     class="fil33"
     d="M 297.68,197.62 V 363.15 L 258.05,353.07 V 180.8 Z M 155.75,137.4 c -2.15,2.04 -4.27,4.11 -6.38,6.19 l 1.77,182.29 55.75,14.18 V 159.1 Z M 254.54,352.18 210.4,340.95 V 160.59 l 44.14,18.73 z"
     id="path152"
     style="fill:url(#linearGradient287)" /><path
     class="fil34"
     d="M 297.68,42.66 V 190.49 L 258.05,173.04 V 62.37 c 12.88,-7.13 26.09,-13.71 39.63,-19.71 z m -43.14,21.67 c -15.22,8.6 -29.96,17.94 -44.14,28.03 v 59.7 l 44.14,19.44 z m -47.65,30.59 c -15.45,11.2 -30.24,23.25 -44.29,36.1 l 44.29,19.5 z"
     id="path153"
     style="fill:url(#id32)" /><path
     class="fil35"
     d="m 173.59,397.78 9.63,5.41 v 162.08 h -9.63 z"
     id="path154"
     style="fill:url(#linearGradient288)" /><path
     class="fil36"
     d="M 297.68,42.66 V 190.49 L 258.05,173.04 V 62.37 c 12.88,-7.13 26.09,-13.71 39.63,-19.71 z m -43.14,21.67 c -15.22,8.6 -29.96,17.94 -44.14,28.03 v 59.7 l 44.14,19.44 z m -47.65,30.59 c -15.45,11.2 -30.24,23.25 -44.29,36.1 l 44.29,19.5 z"
     id="path155"
     style="fill:url(#id22)" /><path
     class="fil37"
     d="M 297.68,197.62 V 363.15 L 258.05,353.07 V 180.8 Z M 155.75,137.4 c -2.15,2.04 -4.27,4.11 -6.38,6.19 l 1.77,182.29 55.75,14.18 V 159.1 Z M 254.54,352.18 210.4,340.95 V 160.59 l 44.14,18.73 z"
     id="path156"
     style="fill:url(#id24)" /><rect
     class="fil22"
     x="326.59"
     y="220.42999"
     width="54.080002"
     height="254.86"
     id="rect156" /><rect
     class="fil22"
     x="307.57999"
     y="467.62"
     width="73.089996"
     height="11.57"
     id="rect157" /><rect
     class="fil22"
     x="307.57999"
     y="214.64"
     width="73.089996"
     height="11.57"
     id="rect158" /><rect
     class="fil38"
     x="332.44"
     y="226.22"
     width="41.73"
     height="241.39999"
     id="rect159"
     style="fill:url(#id5)" /><g
     id="_53385085632">
   <g
   id="g171">
    <path
   class="fil39"
   d="m 341.41,242.2 h 17.11 l -0.05,12.76 -17.45,0.01 0.14,4.53 22.28,-0.05 -0.06,-21.75 -22.06,0.01 z"
   id="path159" />
    <path
   class="fil39"
   d="m 339.69,376.04 c 0.67,0.94 2.04,2.68 2.82,3.19 4.87,-2.4 5.58,-5.97 7.91,-6.07 0.93,-0.04 2.03,0.02 2.99,0.02 1.92,0 3.89,-0.04 5.81,0.01 -0.09,1.36 -1.5,4.32 -2.18,5.49 -4.75,8.13 -13.46,7.31 -15.18,8.5 l 1.8,4.05 c 2.47,-0.22 6.3,-1.36 8.31,-2.26 7.19,-3.22 12,-10.59 12.82,-19.13 l -5.47,0.72 -0.43,-1.64 -6.52,0.01 1.38,-3.26 c -1.13,-0.6 -3.45,-0.67 -4.85,-0.75 -0.44,1.06 -0.92,2.38 -1.5,3.38 -2.05,3.54 -3.45,4.92 -6.81,7.05 z"
   id="path160" />
    <path
   class="fil39"
   d="m 351.39,442.1 c 2,0.4 4.5,1.8 6.29,2.72 1.79,0.92 4.08,2.65 5.61,3.26 l 2.23,-4.68 c -1.91,-1.67 -10.98,-5.49 -14.12,-6.18 l -0.04,-7.15 -4.98,-0.01 0.01,26.08 5.01,-0.04 z"
   id="path161" />
    <path
   class="fil39"
   d="m 340.1,410.56 18.79,0.03 c -1.18,6.36 -8.24,8.58 -15.49,8.7 l 1.28,4.24 c 5.3,0.22 10.7,-2.08 13.88,-4.45 2.76,-2.07 6.03,-7.68 5.77,-12.76 l -24.2,-0.01 z"
   id="path162" />
    <path
   class="fil39"
   d="m 339.9,313.97 10.82,0.1 c -0.96,8.5 -6.61,7.35 -9.62,8.72 l 1.65,3.95 c 4.4,-0.47 9.66,-2.98 11.51,-7.3 0.72,-1.68 1,-3.28 1.21,-5.27 l 9.42,-0.12 c 0.05,-0.59 0.13,-3.2 0.06,-3.62 -0.2,-1.03 -1.6,-0.65 -2.88,-0.64 -5.39,0.02 -18.46,-0.34 -22.12,0.05 z"
   id="path163" />
    <path
   class="fil39"
   d="m 358.26,356.58 c 0.74,-2.16 -0.34,-11.44 0.33,-12.79 0.34,-0.67 5.68,-4.27 6.56,-6.48 -1.31,-0.58 -2.09,-1.66 -3.32,-2.31 -3.64,3.5 -2.18,3.1 -7.96,7.07 -3.95,2.72 -6.04,3 -10.04,4.81 0.22,0.54 1.65,2.78 2.15,3.36 2.61,-0.31 5.94,-2.63 8.22,-3.48 l 0.1,9.82 z"
   id="path164" />
    <path
   class="fil39"
   d="m 349.82,293.75 5.02,-0.02 0.01,-25.69 -5.06,0.11 z"
   id="path165" />
    <path
   class="fil39"
   d="m 342.31,402.47 20.23,0.03 0.06,-3.97 -20.32,-0.01 z"
   id="path166" />
    <path
   class="fil39"
   d="m 341.84,305.64 c 2.03,0.27 11.29,0.08 14.54,0.08 h 3.72 c 0.78,-0.15 0.5,0.12 0.82,-0.51 -0.32,-0.68 0.08,-0.5 -2.01,-0.31 l -0.56,-3.41 -16.53,0.01 z"
   id="path167" />
    <path
   class="fil39"
   d="m 359.31,364.64 1.12,4.27 2.56,-0.35 c -0.31,-1.42 -0.64,-3.18 -1.41,-4.21 z"
   id="path168" />
    <path
   class="fil39"
   d="m 363.4,364.28 1.12,4.09 2.4,-0.36 -1.08,-4.03 z"
   id="path169" />
    <path
   class="fil39"
   d="m 359.46,299.39 c -0.16,0.89 0.45,2.88 0.57,3.98 l 2.53,-0.4 c -0.16,-1.33 -0.53,-2.9 -1.03,-3.89 z"
   id="path170" />
    <path
   class="fil39"
   d="m 363.16,299.12 0.96,4.04 2.38,-0.42 -0.97,-3.94 z"
   id="path171" />
   </g>
  </g><path
     class="fil22"
     d="M 352.31,22.19 V 163.85 H 298.23 V 42.42 C 315.75,34.68 333.8,27.9 352.31,22.19 Z"
     id="path172" /><path
     class="fil40"
     d="M 345.18,24.47 V 158.75 H 305.36 V 39.31 c 13,-5.5 26.29,-10.43 39.82,-14.84 z"
     id="path173"
     style="fill:url(#id16)" /><g
     id="_53385085472">
   <path
   class="fil15"
   d="m 323.77,142.35 c 6.74,-0.2 12.05,-3.75 14.67,-9.14 0.79,-1.63 1.7,-4.05 1.97,-6.08 -1.44,-0.5 -3.16,-1.55 -4.65,-2.17 -0.5,0.8 -0.59,2.4 -0.9,3.41 -0.86,2.78 -2.95,6.73 -5.95,7.5 l -0.03,-20.8 -5.04,-0.05 z"
   id="path174" />
   <path
   class="fil15"
   d="M 311.45,92.03 323,92.09 c 0.27,1.87 -1.09,5.29 -3.07,6.65 -2.2,1.52 -4.36,1.91 -7.34,2.52 l 1.98,4.51 c 3.13,-0.23 8,-2.41 9.63,-4.01 2.78,-2.74 3.88,-5.32 4.17,-9.67 h 10.13 l 0.06,-4.68 -27.11,-0.08 z"
   id="path175" />
   <path
   class="fil15"
   d="m 314.09,143.26 c 2.61,-2.32 4.36,-6.73 5.03,-11.45 0.57,-3.95 0.84,-11.74 0.46,-15.74 h -5.08 c -0.43,4.27 0.18,8.95 -0.33,13.48 -0.79,7.1 -3.13,7.92 -4.04,9.81 1.64,1.35 3.14,3.46 3.96,3.9 z"
   id="path176" />
   <path
   class="fil15"
   d="m 314.03,83.11 h 21.91 l 0.07,-4.71 h 0.47 -22.57 z"
   id="path177" />
   <path
   class="fil15"
   d="m 322.52,45.43 h -10.76 l 0.16,4.79 h 10.6 l 0.01,18.11 5.12,-0.02 0.01,-18.06 10.71,-0.05 0.01,-4.71 c -1.53,-0.18 -8.61,-0.06 -10.68,-0.06 l -0.04,-4.66 -5.14,-0.07 z"
   id="path178" />
   <path
   class="fil15"
   d="m 330.28,54.45 c -0.29,3.16 1.94,8.86 4.2,11.78 l 1.06,1.14 c 0.81,-0.5 3.14,-2.97 3.76,-3.67 -0.41,-0.64 -0.95,-1.13 -1.48,-1.88 -0.92,-1.28 -1.87,-3.27 -2.32,-4.85 -0.27,-0.91 -0.37,-2.18 -0.63,-2.94 z"
   id="path179" />
   <path
   class="fil15"
   d="m 310.8,63.7 c 0.55,0.91 2.89,2.85 3.78,3.69 1.58,-1.76 2.59,-3.09 3.56,-5.55 0.61,-1.55 1.89,-5.6 1.66,-7.39 l -4.63,-0.51 c -0.4,4.57 -2.31,7.19 -4.37,9.76 z"
   id="path180" />
  </g><path
     class="fil22"
     d="m 256.94,158.95 h 95.37 v 11.57 h -95.37 z"
     id="path181" /><path
     class="fil41"
     d="m 707.53,206.48 v 165.53 l 39.63,-10.08 V 189.67 Z m 148.34,-57.31 c -1.3,-1.32 -2.6,-2.65 -3.92,-3.96 l -53.63,22.75 v 180.96 l 55.75,-14.17 z m -105.2,211.87 44.14,-11.23 V 169.45 l -44.14,18.73 z"
     id="path182"
     style="fill:url(#id14)" /><path
     class="fil42"
     d="m 707.53,45.15 v 154.2 L 747.16,181.9 V 65.48 C 734.3,58.13 721.08,51.35 707.53,45.15 Z m 137.76,93.56 c -14.82,-14.18 -30.5,-27.46 -46.97,-39.74 v 60.41 z M 794.81,96.41 C 780.64,86.03 765.92,76.37 750.67,67.5 v 112.86 l 44.14,-19.43 z"
     id="path183"
     style="fill:url(#id28)" /><rect
     class="fil22"
     x="652.09998"
     y="200.57001"
     width="58.650002"
     height="155.25"
     id="rect183" /><rect
     class="fil43"
     x="659.83002"
     y="206.10001"
     width="43.200001"
     height="144.17999"
     id="rect184"
     style="fill:url(#id4)" /><g
     id="_53466602208">
   <path
   class="fil44"
   d="m 679.81,332.5 c 7.3,-0.22 13.06,-4.07 15.91,-9.92 0.86,-1.76 1.84,-4.39 2.13,-6.59 -1.56,-0.55 -3.42,-1.69 -5.04,-2.36 -0.54,0.88 -0.64,2.61 -0.98,3.7 -0.93,3.02 -3.2,7.31 -6.45,8.14 l -0.03,-22.57 -5.47,-0.05 z"
   id="path184" />
   <path
   class="fil44"
   d="m 666.44,277.92 12.52,0.06 c 0.3,2.03 -1.18,5.74 -3.32,7.22 -2.39,1.64 -4.73,2.07 -7.96,2.72 l 2.14,4.9 c 3.4,-0.25 8.68,-2.62 10.45,-4.35 3.01,-2.97 4.2,-5.77 4.52,-10.49 h 10.99 l 0.07,-5.07 -29.41,-0.09 z"
   id="path185" />
   <path
   class="fil44"
   d="m 669.31,333.48 c 2.83,-2.52 4.72,-7.29 5.45,-12.42 0.61,-4.29 0.91,-12.73 0.5,-17.07 h -5.51 c -0.47,4.64 0.19,9.71 -0.36,14.63 -0.85,7.69 -3.39,8.58 -4.38,10.63 1.78,1.46 3.41,3.75 4.3,4.23 z"
   id="path186" />
   <path
   class="fil44"
   d="M 669.24,268.25 H 693 l 0.08,-5.12 h 0.51 -24.48 z"
   id="path187" />
   <path
   class="fil44"
   d="m 678.45,227.37 h -11.67 l 0.17,5.2 11.5,-0.01 0.01,19.65 5.55,-0.02 0.01,-19.59 11.62,-0.05 0.01,-5.11 c -1.66,-0.2 -9.34,-0.07 -11.58,-0.07 l -0.05,-5.06 -5.57,-0.07 z"
   id="path188" />
   <path
   class="fil44"
   d="m 686.86,237.16 c -0.31,3.42 2.11,9.61 4.56,12.78 l 1.15,1.23 c 0.88,-0.54 3.41,-3.22 4.08,-3.99 -0.45,-0.69 -1.03,-1.22 -1.61,-2.03 -0.99,-1.39 -2.03,-3.55 -2.52,-5.26 -0.28,-0.99 -0.39,-2.36 -0.68,-3.19 z"
   id="path189" />
   <path
   class="fil44"
   d="m 665.73,247.18 c 0.6,1 3.14,3.11 4.1,4.01 1.72,-1.91 2.81,-3.35 3.87,-6.02 0.66,-1.68 2.05,-6.07 1.8,-8.02 l -5.03,-0.54 c -0.43,4.95 -2.5,7.79 -4.74,10.57 z"
   id="path190" />
  </g><rect
     class="fil22"
     x="652.09998"
     y="175.96001"
     width="103.44"
     height="12.55"
     id="rect190" /><rect
     class="fil22"
     x="656.44"
     y="182.24001"
     width="7.8400002"
     height="19.299999"
     id="rect191" /><rect
     class="fil22"
     x="699.85999"
     y="182.24001"
     width="7.8400002"
     height="19.299999"
     id="rect192" /><path
     class="fil22"
     d="M 856.22,149.52 H 754.28 l -1.47,0.8 v 15.52 h 118.77 c -5,-5.55 -10.12,-10.99 -15.36,-16.32 z"
     id="path192" /><path
     class="fil45"
     d="m 707.53,206.48 v 165.53 l 39.63,-10.08 V 189.67 Z m 148.34,-57.31 c -1.3,-1.32 -2.6,-2.65 -3.92,-3.96 l -53.63,22.75 v 180.96 l 55.75,-14.17 z m -105.2,211.87 44.14,-11.23 V 169.45 l -44.14,18.73 z"
     id="path193"
     style="fill:url(#id31)" /><rect
     class="fil22"
     x="752.81"
     y="181.50999"
     width="76.260002"
     height="201.84"
     id="rect193" /><rect
     class="fil46"
     x="762.85999"
     y="188.7"
     width="56.16"
     height="187.45"
     id="rect194"
     style="fill:url(#id2)" /><g
     id="_53466598432">
   <path
   class="fil47"
   d="m 793.11,298.02 c -3.52,-1.39 -6.41,-4.47 -10.38,-5.68 -1.02,1.49 -1.28,2.2 -3.05,3.54 0.94,1.32 0.36,0.85 2.05,2.01 1.19,0.82 1.56,0.84 2.85,1.64 1.78,1.1 3.71,2.56 5.02,3.82 -6.06,7.6 -8.85,7.52 -15.18,11.4 1.07,2.31 1.58,2.79 3.28,4.29 11.88,-5.69 13.29,-9.99 16.7,-11.85 2.48,2.22 4.29,3.61 6.19,6.37 2.51,-1.18 3.32,-2.83 5.07,-4.32 -2.2,-2.37 -4.75,-4.81 -7.37,-7.33 l 6.33,-13.23 c -1.85,-0.8 -4.1,-1.54 -6.41,-1.84 -1.03,3.97 -2.57,8.47 -5.1,11.18 z"
   id="path194" />
   <path
   class="fil47"
   d="m 774.35,219.49 c 7.27,0 15.69,0 24.11,0 -2.08,8.47 -9.6,10.79 -19.48,11.35 -0.04,2.06 0.71,3.86 1.44,5.33 6.77,-0.86 13.17,-1.99 17.48,-5.9 3.36,-3.05 7.76,-9.02 7.18,-16.12 h -30.71 z"
   id="path195" />
   <path
   class="fil47"
   d="m 775.61,355.22 1.55,5.7 c 16.22,-1.5 27.27,-11.09 30.37,-25.86 l -4.76,-2.05 c -3.83,3.74 -2.91,14.89 -16.72,19.64 -3.18,1.1 -7.62,1.22 -10.44,2.57 z"
   id="path196" />
   <path
   class="fil47"
   d="m 786.79,277.8 6.05,0.1 0.23,-32.91 -6.11,-0.01 z"
   id="path197" />
   <path
   class="fil47"
   d="m 777.13,208.94 25.96,-0.29 -0.01,-4.13 c -3.43,-0.91 -21.44,-0.54 -25.95,-0.29 z"
   id="path198" />
  </g><path
     class="fil47"
     d="m 775.1,335.25 c 4.78,1.47 8.09,4.1 11.67,5.2 0.9,-2.09 1.72,-2.79 2.46,-5.19 -3.76,-1.38 -6.89,-3.37 -11.53,-4.86 -1.44,1.22 -2.2,2.84 -2.6,4.85 z"
     id="path199" /><rect
     class="fil22"
     x="758.46002"
     y="157.67999"
     width="10.19"
     height="25.09"
     id="rect199" /><rect
     class="fil22"
     x="814.90002"
     y="157.67999"
     width="10.19"
     height="25.09"
     id="rect200" /><path
     class="fil48"
     d="m 871.64,166.46 v 165.53 l 39.63,-10.08 v -105.8 c -12.05,-17.43 -25.17,-34.07 -39.28,-49.8 z m 87.28,135.6 c -12.26,-28.4 -27.06,-55.46 -44.14,-80.85 v 99.8 l 44.14,-11.22 z"
     id="path200"
     style="fill:url(#id30)" /><path
     class="fil49"
     d="m 871.64,166.46 v 165.53 l 39.63,-10.08 v -105.8 c -12.05,-17.43 -25.17,-34.07 -39.28,-49.8 z m 87.28,135.6 c -12.26,-28.4 -27.06,-55.46 -44.14,-80.85 v 99.8 l 44.14,-11.22 z"
     id="path201"
     style="fill:url(#id12)" /><path
     class="fil50"
     d="M 140,153.05 V 322.4 L 95.8,312.02 V 205.69 c 13.53,-18.55 28.3,-36.15 44.2,-52.64 z M 91.88,211.08 C 72.72,238.1 56.2,267.11 42.64,297.73 v 1.82 l 49.24,11.55 z"
     id="path202"
     style="fill:url(#id18)" /><path
     class="fil51"
     d="m 296.39,451.3 v 123.96 l -57.48,47.52 V 451.9 l -0.57,0.01 z m -64.77,177.5 -71.18,58.85 V 452.71 l 71.18,-0.73 z"
     id="path203"
     style="fill:url(#id13)" /><rect
     class="fil22"
     x="72.449997"
     y="430.10001"
     width="122.5"
     height="292.20999"
     id="rect203" /><path
     class="fil22"
     d="M 197.36,394.75 H 11.24 c -0.24,1.09 -0.47,2.18 -0.69,3.28 -0.17,0.78 -0.33,1.57 -0.49,2.36 -0.68,3.36 -1.32,6.72 -1.93,10.1 -0.13,0.67 -0.25,1.34 -0.36,2.02 -0.26,1.41 -0.5,2.83 -0.74,4.26 h 190.33 z"
     id="path204" /><rect
     class="fil22"
     x="102.25"
     y="407.87"
     width="12.63"
     height="31.09"
     id="rect204" /><rect
     class="fil22"
     x="172.17999"
     y="407.87"
     width="12.63"
     height="31.09"
     id="rect205" /><rect
     class="fil52"
     x="83.410004"
     y="439.98001"
     width="100.58"
     height="272.44"
     id="rect206"
     style="fill:url(#id26)" /><g
     id="_53466606176">
   <path
   class="fil53"
   d="m 139.01,588.34 13.54,0.12 -0.09,3.16 -13.44,-0.14 z m -23.68,-0.01 13.32,0.06 -0.13,3.23 -13.17,-0.08 z m 23.68,-9.74 h 13.53 l 0.16,3.3 H 139 Z m -23.74,0 11.89,-0.02 1.48,0.09 v 3.21 l -13.33,0.02 z m 13.33,-19.08 -27.5,0.06 v 9.07 h 27.47 l 0.08,2.61 -23.16,0.09 -0.09,27.39 15.02,0.02 c -5.12,6.1 -17.12,9.36 -19.06,10.81 0.75,2.49 3.73,7.98 5.03,10.31 5.26,-2.28 13.58,-6.81 17.48,-10.89 1.29,-1.37 3.27,-3.52 4.74,-4.77 0.11,3.38 -0.5,13.98 0.32,16.34 l 9.93,-0.01 0.15,-16.56 c 0.8,0.42 5.53,5.65 9.96,8.93 2.51,1.86 8.69,5.99 12.27,6.84 l 5.42,-10.47 c -7.68,-2.11 -15.05,-6.18 -19.58,-10.36 l 15.22,-0.21 v -27.32 l -23.3,-0.06 0.06,-2.69 27.4,-0.02 v -8.85 l -27.33,-0.21 -0.17,-4.71 -10.19,-0.13 z"
   id="path206" />
   <path
   class="fil53"
   d="m 117.96,655.69 31.48,0.11 0.02,8.32 -31.61,0.01 z m 0.29,29.3 2.16,10.97 c 2.71,0.37 7.37,0.1 10.24,0.11 11.56,0.01 7.13,-6.76 8.1,-23.78 l 21.66,-0.01 -0.01,-24.67 -53.17,-0.01 -0.1,24.58 21.02,0.12 c 0.07,2.24 0.03,4.38 0.03,6.51 l -0.04,4.57 c -0.53,2.95 -7.39,2.04 -9.89,1.61 z"
   id="path207" />
   <path
   class="fil53"
   d="m 166.54,644.09 -0.01,-9.03 -27.63,-0.14 -0.21,-4.2 c -2.48,-0.65 -7.92,-0.26 -10.72,-0.26 l -0.19,4.48 c -3.22,0.85 -21.78,0.24 -26.56,0.24 v 9.24 c 7.31,0 63.03,0.43 65.32,-0.33 z"
   id="path208" />
   <path
   class="fil53"
   d="m 143,677.97 c 1.41,3.62 11.94,14.11 16.27,16.39 1.1,-1.1 6.29,-7.65 6.85,-8.86 -1.42,-0.9 -2.68,-1.63 -4.04,-2.53 -4.62,-3.04 -6.81,-5.91 -10.32,-10.22 -2.13,1.45 -6.42,4.14 -8.76,5.22 z"
   id="path209" />
   <path
   class="fil53"
   d="m 118.25,684.99 c 0.53,-1.33 1.49,-2.29 2.31,-3.5 0.82,-1.22 1.79,-2.44 2.31,-3.96 L 113.68,673 c -1.14,1.19 -1.7,2.49 -2.62,3.64 -4.85,6.02 -6.28,6.22 -9.3,9.27 -0.52,0.52 -0.19,0.05 -0.54,0.64 1.8,2.76 4.38,5.4 6.2,8.05 1.73,-0.81 6.63,-5.16 8.16,-6.86 1.17,-1.29 1.53,-2.28 2.67,-2.75 z"
   id="path210" />
   <path
   class="fil53"
   d="m 166.54,644.09 c -2.29,0.76 -58.01,0.33 -65.32,0.33 v -9.24 c 4.78,0 23.34,0.61 26.56,-0.24 l 0.19,-4.48 c 2.8,0 8.24,-0.39 10.72,0.26 -0.5,-1.17 -2.31,-0.65 -5.34,-0.65 -1.85,0 -3.82,-0.19 -5.61,0.18 l -0.21,4.53 -26.46,0.01 c -0.47,1.87 -0.4,7.96 -0.06,9.83 l 63.71,0.22 c 2.17,-0.08 1.25,0.12 1.82,-0.75 z"
   id="path211" />
  </g><circle
     class="fil53"
     cx="133.7"
     cy="489.14999"
     r="34.209999"
     id="circle211" /><path
     class="fil54"
     d="M 695.13,444.75 V 568.7 l 57.48,47.52 V 445.34 l 0.57,0.01 z m 64.77,177.49 71.18,58.85 V 446.16 l -71.18,-0.74 z"
     id="path212"
     style="fill:url(#id21)" /><path
     class="fil22"
     d="m 173.73,121.13 h 92.84 v 14.33 H 157.84 c 5.2,-4.89 10.49,-9.67 15.89,-14.33 z"
     id="path213" /><g
     id="_53466610848">
   <g
   id="g219">
    <g
   id="g216">
     <path
   class="fil22"
   d="m 181.04,154.4 h 79.55 v 235.41 h -79.55 z"
   id="path214" />
     <path
   class="fil55"
   d="m 191.53,162.79 h 58.58 v 218.63 h -58.58 z"
   id="path215"
   style="fill:url(#id15)" />
     <path
   class="fil56"
   d="m 215.84,187.72 -10.71,0.33 -0.08,5.39 10.17,0.13 c -3.14,11.66 -4.07,11.9 -11.55,17.39 1.08,1.76 2.05,3.15 3.81,4.19 4.18,-2.09 6.69,-4.9 9.11,-8.92 7.83,-12.96 -1.52,-12.68 13.85,-12.68 -0.22,4.75 -0.32,11.61 -1.67,15.47 l -8.59,0.22 c 0.24,5.76 -0.74,6.08 5.93,6.13 5.01,0.05 7.01,-0.7 8.45,-4.5 1.61,-4.27 2.21,-18.15 1.38,-22.88 h -14.15 l 0.43,-6.78 -6.22,-0.04 z"
   id="path216" />
    </g>
    <path
   class="fil56"
   d="m 222.52,285.77 h -17.39 l -0.58,5.62 h 16.24 c -7.05,8.89 -10.71,9.33 -17.32,13.97 1.01,2.56 1.4,2.78 3.29,4.42 2.89,-1.97 5.63,-3.51 8.29,-5.51 2.71,-2.04 4.43,-5.45 7.49,-6.77 0.1,9.49 2.44,10.92 -7.16,10.56 l 0.97,5.65 c 17.06,1.43 11.07,-5.57 12.24,-22.32 l 8.8,-0.01 -0.18,-5.58 -8.75,-0.03 -0.06,-5.92 -5.77,-0.13 z"
   id="path217" />
    <path
   class="fil56"
   d="m 203.64,344.51 c 1.57,1.54 1.81,2.45 3.84,3.48 3.29,-1.7 3.38,-3.35 5.5,-5.98 1.53,-1.9 4.17,-1.2 9.66,-1.34 -0.06,16.06 -11.71,14.76 -15.62,17.85 0.47,0.76 0.84,1.49 1.36,2.37 1.03,1.71 0.57,1.16 1.77,2.15 5.72,-1.39 10.55,-3.75 13.46,-7.08 3.58,-4.1 4.11,-8.54 5.55,-15.06 l 9,-0.25 v -5.56 h -21.29 l 1.43,-6.48 -5.94,-0.52 c -1.9,5.49 -1.65,7.95 -5.6,13.03 -1.4,1.79 -2.01,1.57 -3.12,3.39 z"
   id="path218" />
    <path
   class="fil56"
   d="m 204.02,247.35 24.75,0.01 c -1.93,8.78 -9.71,11.18 -19.95,11.76 -0.04,2.13 0.74,3.99 1.49,5.51 6.92,-0.87 13.73,-2.07 18.1,-6.1 3.45,-3.19 8.04,-9.32 7.44,-16.7 h -31.81 z"
   id="path219" />
   </g>
   <path
   class="fil56"
   d="m 233.77,236.11 0.02,-4.35 -2.35,-0.3 h -21.29 l -0.67,-0.02 -2.58,0.11 v 5.02 l 25.87,0.04 z"
   id="path220" />
  </g><g
     id="_53466609952">
   <path
   class="fil22"
   d="m 197.14,133.71 h -10.85 v 26.7 h 10.85 z"
   id="path221" />
   <path
   class="fil22"
   d="m 257.18,133.71 h -10.84 v 26.7 h 10.84 z"
   id="path222" />
  </g><path
     class="fil57"
     d="M 140,153.05 V 322.4 L 95.8,312.02 V 205.69 c 13.53,-18.55 28.3,-36.15 44.2,-52.64 z M 91.88,211.08 C 72.72,238.1 56.2,267.11 42.64,297.73 v 1.82 l 49.24,11.55 z"
     id="path223"
     style="fill:url(#id33)" /></g>
 </g>
</svg>
