<?xml version="1.0" encoding="UTF-8"?>
<!DOCTYPE svg PUBLIC "-//W3C//DTD SVG 1.1//EN" "http://www.w3.org/Graphics/SVG/1.1/DTD/svg11.dtd">
<!-- Creator: CorelDRAW -->
<svg xmlns="http://www.w3.org/2000/svg" xml:space="preserve" width="500px" height="500px" version="1.1" style="shape-rendering:geometricPrecision; text-rendering:geometricPrecision; image-rendering:optimizeQuality; fill-rule:evenodd; clip-rule:evenodd"
viewBox="0 0 502.57 502.57"
 xmlns:xlink="http://www.w3.org/1999/xlink"
 xmlns:xodm="http://www.corel.com/coreldraw/odm/2003">
 <defs>
  <style type="text/css">
   <![CDATA[
    .fil5 {fill:#434342;fill-rule:nonzero}
    .fil9 {fill:#AE7051;fill-rule:nonzero}
    .fil2 {fill:#147BAA;fill-rule:nonzero}
    .fil1 {fill:#0D4863;fill-rule:nonzero}
    .fil7 {fill:#4D4D4D;fill-rule:nonzero}
    .fil6 {fill:#506A78;fill-rule:nonzero}
    .fil3 {fill:url(#id0);fill-rule:nonzero}
    .fil8 {fill:url(#id1);fill-rule:nonzero}
    .fil0 {fill:url(#id2);fill-rule:nonzero}
    .fil4 {fill:url(#id3);fill-rule:nonzero}
   ]]>
  </style>
  <linearGradient id="id0" gradientUnits="userSpaceOnUse" x1="180.76" y1="483.31" x2="317.66" y2="237.41">
   <stop offset="0" style="stop-opacity:1; stop-color:#AE6F50"/>
   <stop offset="0.6" style="stop-opacity:1; stop-color:#CDAB8D"/>
   <stop offset="1" style="stop-opacity:1; stop-color:#ECE7CA"/>
  </linearGradient>
  <linearGradient id="id1" gradientUnits="userSpaceOnUse" x1="164.35" y1="516.85" x2="371.3" y2="260.05">
   <stop offset="0" style="stop-opacity:1; stop-color:#AE6F50"/>
   <stop offset="0.658824" style="stop-opacity:1; stop-color:#CDAB8D"/>
   <stop offset="1" style="stop-opacity:1; stop-color:#ECE7CA"/>
  </linearGradient>
  <linearGradient id="id2" gradientUnits="userSpaceOnUse" x1="114.52" y1="462.13" x2="415.05" y2="54.11">
   <stop offset="0" style="stop-opacity:1; stop-color:#A5D8ED"/>
   <stop offset="0.658824" style="stop-opacity:1; stop-color:#BCE1EE"/>
   <stop offset="1" style="stop-opacity:1; stop-color:#D4EBF0"/>
  </linearGradient>
  <linearGradient id="id3" gradientUnits="userSpaceOnUse" x1="180.76" y1="483.55" x2="317.66" y2="237.65">
   <stop offset="0" style="stop-opacity:1; stop-color:#AE6F50"/>
   <stop offset="0.6" style="stop-opacity:1; stop-color:#CCA486"/>
   <stop offset="1" style="stop-opacity:1; stop-color:#EBDABC"/>
  </linearGradient>
 </defs>
 <g id="Layer_x0020_1">
  <metadata id="CorelCorpID_0Corel-Layer"/>
  <g id="_38824695616">
   <circle class="fil0" cx="251.28" cy="251.28" r="251.28"/>
   <path class="fil1" d="M407.23 448.32c36.4,-28.85 64.6,-67.56 80.6,-112.09l-11.83 -0.15c-8.29,-0.09 -15.32,-0.06 -15.59,0.09 -0.51,0.25 -0.54,1.33 -0.54,16.53l0 16.29 -5.04 0c-2.8,0 -5.25,0.12 -5.49,0.27 -0.24,0.15 -0.48,0.97 -0.57,1.96l-0.12 1.69 -1.12 0c-2.08,0.03 -3.47,0.51 -4.4,1.6l-0.91 1.06 0 -23.68c0,-23.08 0,-23.68 -0.57,-24.1 -0.42,-0.3 -1.48,-0.42 -3.5,-0.42l-2.92 0 -0.19 -26.3c-0.12,-14.45 -0.21,-30.41 -0.21,-35.42 0,-8.74 -0.03,-9.16 -0.57,-9.47 -0.39,-0.18 -5.55,-0.3 -14.69,-0.3l-14.08 0 -6.01 1.06c-3.28,0.57 -6.24,1.23 -6.57,1.42 -0.73,0.45 -0.76,1.32 -0.18,4.31 0.24,1.15 0.39,2.14 0.36,2.2 -0.06,0.03 -1.63,0.33 -3.53,0.69 -4.49,0.79 -5.34,1.09 -5.58,1.87 -0.12,0.37 -0.15,8.06 -0.09,17.11l0.12 16.43 -1.96 0.1c-1.06,0.06 -2.11,0.24 -2.32,0.42 -0.3,0.24 -0.4,3.1 -0.4,13.39 0,8.54 -0.09,13.09 -0.3,13.09 -0.18,0 -0.3,-1.69 -0.3,-4.49 0,-3.41 -0.09,-4.56 -0.42,-4.83 -0.27,-0.24 -4.62,-0.3 -15.59,-0.27l-15.21 0.09 -0.09 11.97 -0.06 12.01 -3.01 0 -3.02 0 0 -22.87 0 -22.89 -0.63 -0.57c-0.61,-0.54 -1.09,-0.57 -7.85,-0.48l-7.2 0.12 0 -32.16c0,-31.76 0,-32.15 -0.61,-32.75 -0.6,-0.61 -0.99,-0.61 -17.1,-0.58l-16.53 0.03 -6.21 1.15 0 0c-3.41,0.63 -6.52,1.3 -6.85,1.48 -0.81,0.42 -0.84,1.39 -0.18,4.86 0.24,1.35 0.42,2.5 0.36,2.56 -0.06,0.03 -2.11,0.42 -4.58,0.87 -2.48,0.46 -4.74,0.94 -5.04,1.12 -0.54,0.27 -0.57,1.27 -0.57,27.33l0 27.02 -3.44 -0.18c-4.1,-0.24 -4.4,-0.09 -4.4,2.23 0,1.36 -0.06,1.48 -0.7,1.48 -1.14,0 -1.72,0.91 -1.72,2.66l0 1.56 -1.72 0c-2.02,0 -3.53,0.64 -4.43,1.9 -0.63,0.85 -0.63,1.09 -0.72,29.05 -0.06,24.64 -0.12,28.17 -0.52,28.17 -0.36,0 -0.45,-0.42 -0.45,-1.78 0,-1.14 -0.15,-1.9 -0.42,-2.11 -0.3,-0.24 -2.87,-0.33 -9.05,-0.27l-8.63 0.09 -0.06 -22.32c-0.09,-18.58 -0.15,-22.47 -0.51,-23.17 -0.6,-1.17 -2.05,-1.96 -4.04,-2.2l-1.72 -0.21 0 -1.54c0,-0.87 -0.15,-1.72 -0.36,-1.93 -0.24,-0.24 -1.93,-0.36 -5.58,-0.36l-5.19 0 -0.09 -19.69c-0.09,-18.22 -0.12,-19.76 -0.63,-20.51 -0.82,-1.24 -1.84,-1.75 -3.83,-1.93l-1.81 -0.19 0 -1.78c0,-1.62 -0.06,-1.78 -0.79,-2.05 -0.42,-0.18 -4.22,-0.3 -8.5,-0.3 -9.17,0 -9.11,0 -9.11,2.54l0 1.59 -2.14 0.15c-1.48,0.13 -2.39,0.37 -2.93,0.76 -1.72,1.27 -1.72,1.08 -1.81,17.19l-0.09 14.87 -3.74 0c-4.31,0 -4.37,0.03 -4.37,2.75 0,1.05 -0.1,1.5 -0.31,1.29 -0.15,-0.15 -0.33,-2.71 -0.36,-5.7l-0.09 -5.43 -15.32 -0.09 -12.15 -0.05c-0.54,6.69 -0.82,13.44 -0.82,20.26 0,50.49 14.9,97.5 40.53,136.88l127.71 0 93.2 0z"/>
   <g>
    <path class="fil1" d="M1.05 231.02c-0.53,6.69 -0.81,13.44 -0.81,20.26 0,50.49 14.9,97.5 40.53,136.88l127.71 0 177.2 0 -0.06 -56.01 -0.09 -56.05 -15.08 -0.18c-8.29,-0.09 -15.32,-0.06 -15.59,0.09 -0.52,0.24 -0.55,1.33 -0.55,16.53l0 16.29 -5.03 0c-2.81,0 -5.25,0.12 -5.49,0.27 -0.24,0.15 -0.48,0.97 -0.58,1.96l-0.12 1.69 -1.11 0c-2.08,0.03 -3.47,0.51 -4.41,1.6l-0.9 1.06 0 -23.68c0,-23.08 0,-23.68 -0.57,-24.1 -0.43,-0.3 -1.48,-0.42 -3.5,-0.42l-2.93 0 -0.18 -26.31c-0.12,-14.44 -0.21,-30.4 -0.21,-35.41 0,-8.74 -0.03,-9.16 -0.57,-9.47 -0.4,-0.18 -5.55,-0.3 -14.69,-0.3l-14.09 0 -6 1.06c-3.29,0.57 -6.24,1.23 -6.58,1.42 -0.72,0.45 -0.75,1.32 -0.18,4.31 0.24,1.14 0.4,2.14 0.37,2.2 -0.07,0.03 -1.63,0.33 -3.53,0.69 -4.5,0.79 -5.34,1.09 -5.58,1.87 -0.12,0.37 -0.15,8.06 -0.09,17.11l0.12 16.43 -1.96 0.09c-1.06,0.06 -2.12,0.25 -2.33,0.43 -0.3,0.24 -0.39,3.1 -0.39,13.39 0,8.53 -0.09,13.09 -0.3,13.09 -0.18,0 -0.3,-1.69 -0.3,-4.49 0,-3.41 -0.09,-4.56 -0.42,-4.83 -0.28,-0.24 -4.62,-0.3 -15.6,-0.27l-15.2 0.09 -0.09 11.97 -0.06 12.01 -3.02 0 -3.01 0 0 -22.87 0 -22.89 -0.64 -0.57c-0.6,-0.55 -1.08,-0.57 -7.84,-0.48l-7.21 0.12 0 -32.16c0,-31.76 0,-32.15 -0.6,-32.75 -0.6,-0.61 -1,-0.61 -17.1,-0.58l-16.53 0.03 -6.21 1.15 0 0c-3.41,0.63 -6.52,1.3 -6.85,1.48 -0.82,0.42 -0.85,1.39 -0.18,4.85 0.24,1.36 0.42,2.51 0.36,2.57 -0.06,0.03 -2.11,0.42 -4.59,0.87 -2.47,0.46 -4.73,0.94 -5.03,1.12 -0.55,0.27 -0.58,1.27 -0.58,27.33l0 27.02 -3.43 -0.18c-4.11,-0.24 -4.41,-0.09 -4.41,2.23 0,1.36 -0.06,1.48 -0.69,1.48 -1.15,0 -1.72,0.91 -1.72,2.65l0 1.57 -1.72 0c-2.02,0 -3.53,0.64 -4.43,1.9 -0.64,0.85 -0.64,1.09 -0.73,29.05 -0.06,24.64 -0.12,28.17 -0.51,28.17 -0.36,0 -0.45,-0.42 -0.45,-1.78 0,-1.14 -0.15,-1.9 -0.43,-2.11 -0.3,-0.24 -2.86,-0.33 -9.04,-0.27l-8.63 0.09 -0.06 -22.32c-0.09,-18.58 -0.15,-22.47 -0.51,-23.17 -0.61,-1.17 -2.05,-1.96 -4.05,-2.2l-1.71 -0.21 0 -1.54c0,-0.87 -0.16,-1.72 -0.37,-1.93 -0.24,-0.24 -1.93,-0.36 -5.58,-0.36l-5.18 0 -0.09 -19.69c-0.09,-18.22 -0.13,-19.76 -0.64,-20.52 -0.81,-1.23 -1.84,-1.74 -3.83,-1.93l-1.81 -0.18 0 -1.78c0,-1.63 -0.06,-1.78 -0.78,-2.05 -0.43,-0.18 -4.23,-0.3 -8.51,-0.3 -9.17,0 -9.11,0 -9.11,2.54l0 1.59 -2.14 0.15c-1.48,0.13 -2.38,0.37 -2.92,0.76 -1.72,1.26 -1.72,1.08 -1.81,17.19l-0.09 14.87 -3.75 0c-4.31,0 -4.37,0.03 -4.37,2.75 0,1.05 -0.09,1.5 -0.3,1.29 -0.15,-0.15 -0.33,-2.71 -0.36,-5.7l-0.09 -5.43 -15.32 -0.09 -12.16 -0.05z"/>
   </g>
   <g>
    <path class="fil2" d="M0.24 251.27c0,0.16 0,0.32 0,0.49 0,125 91.28,228.67 210.82,248.02l80.92 0c9.65,-1.56 19.12,-3.65 28.36,-6.28l-0.08 -61.06 -0.13 -67.37 -22.01 -0.22c-12.11,-0.11 -22.37,-0.07 -22.76,0.11 -0.75,0.29 -0.8,1.59 -0.8,19.87l0 19.58 -7.35 0c-4.09,0 -7.66,0.15 -8.01,0.33 -0.35,0.18 -0.7,1.16 -0.84,2.36l-0.17 2.03 -1.63 0c-3.04,0.03 -5.07,0.61 -6.43,1.92l-1.32 1.27 0 -28.47c0,-27.74 0,-28.46 -0.84,-28.97 -0.61,-0.37 -2.15,-0.51 -5.1,-0.51l-4.27 0 -0.27 -31.62c-0.17,-17.37 -0.31,-36.55 -0.31,-42.57 0,-10.52 -0.04,-11.03 -0.83,-11.39 -0.58,-0.22 -8.1,-0.36 -21.44,-0.36l-20.56 0 -8.76 1.27c-4.8,0.69 -9.12,1.48 -9.6,1.7 -1.06,0.55 -1.1,1.6 -0.27,5.19 0.36,1.38 0.58,2.57 0.53,2.64 -0.09,0.04 -2.37,0.4 -5.15,0.84 -6.56,0.94 -7.79,1.3 -8.14,2.25 -0.18,0.43 -0.22,9.68 -0.13,20.56l0.17 19.76 -2.86 0.11c-1.54,0.07 -3.08,0.29 -3.39,0.51 -0.44,0.29 -0.57,3.73 -0.57,16.1 0,10.26 -0.13,15.74 -0.44,15.74 -0.27,0 -0.44,-2.04 -0.44,-5.41 0,-4.1 -0.14,-5.47 -0.62,-5.8 -0.4,-0.29 -6.74,-0.36 -22.76,-0.33l-22.19 0.11 -0.13 14.4 -0.09 14.43 -4.4 0 -4.4 0 0 -27.49 0 -27.52 -0.93 -0.69c-0.88,-0.65 -1.58,-0.69 -11.45,-0.58l-10.52 0.15 0 -38.66c0,-38.18 0,-38.65 -0.88,-39.38 -0.88,-0.72 -1.45,-0.72 -24.96,-0.69l-24.13 0.04 -9.06 1.38 0 0c-4.98,0.76 -9.51,1.56 -10,1.77 -1.19,0.51 -1.23,1.67 -0.26,5.84 0.35,1.63 0.61,3.01 0.53,3.08 -0.09,0.04 -3.09,0.51 -6.7,1.06 -1.02,0.15 -2.03,0.31 -2.95,0.46z"/>
   </g>
   <path class="fil2" d="M502.57 251.76c0,-5.66 -0.21,-11.28 -0.58,-16.84l-18.38 0.03 -9.06 1.37 0 0c-4.98,0.77 -9.51,1.56 -10,1.78 -1.19,0.51 -1.23,1.67 -0.26,5.84 0.35,1.63 0.61,3.01 0.53,3.08 -0.09,0.04 -3.09,0.51 -6.7,1.05 -3.61,0.55 -6.91,1.13 -7.35,1.34 -0.79,0.33 -0.83,1.53 -0.83,32.86l0 32.49 -5.02 -0.22c-5.99,-0.29 -6.43,-0.11 -6.43,2.68 0,1.64 -0.09,1.78 -1.01,1.78 -1.68,0 -2.51,1.09 -2.51,3.19l0 1.89 -2.51 0c-2.95,0 -5.15,0.76 -6.47,2.28 -0.93,1.02 -0.93,1.31 -1.06,34.92 -0.09,29.63 -0.18,33.87 -0.75,33.87 -0.53,0 -0.66,-0.51 -0.66,-2.14 0,-1.38 -0.22,-2.28 -0.62,-2.54 -0.44,-0.29 -4.18,-0.39 -13.2,-0.32l-12.59 0.11 -0.09 -26.84c-0.13,-22.33 -0.22,-27.01 -0.75,-27.85 -0.88,-1.41 -2.99,-2.35 -5.9,-2.64l-2.51 -0.26 0 -1.85c0,-1.05 -0.22,-2.06 -0.53,-2.32 -0.35,-0.29 -2.82,-0.43 -8.14,-0.43l-7.57 0 -0.14 -23.68c-0.13,-21.9 -0.17,-23.75 -0.92,-24.66 -1.19,-1.49 -2.69,-2.1 -5.59,-2.32l-2.64 -0.22 0 -2.14c0,-1.96 -0.09,-2.14 -1.15,-2.46 -0.62,-0.22 -6.16,-0.37 -12.41,-0.37 -13.39,0 -13.3,0 -13.3,3.05l0 1.92 -3.13 0.18c-2.15,0.15 -3.47,0.44 -4.27,0.91 -2.5,1.52 -2.5,1.3 -2.64,20.67l-0.13 17.88 -5.46 0c-6.29,0 -6.38,0.03 -6.38,3.3 0,1.26 -0.13,1.81 -0.44,1.55 -0.22,-0.18 -0.49,-3.26 -0.53,-6.85l-0.13 -6.53 -22.37 -0.1 -22.32 -0.08 -0.44 0.95c-0.26,0.58 -0.44,21.83 -0.44,58.52l0 57.62 -4.27 0.11 -4.31 0.11 -0.13 35.83 -0.09 35.79 48.01 0c112.46,-24.98 196.57,-125.31 196.57,-245.29z"/>
   <path class="fil3" d="M321.79 269.96c0,39.75 0,17.11 0,63.55 -28.42,0 -73.46,1.74 -139.98,1.74 0,-43.09 -1.05,-25.52 -1.05,-65.29l8.88 0 20.13 0 27.67 0 27.67 0 27.67 0 20.15 0 8.86 0 0 0z"/>
   <polygon class="fil4" points="209.77,270.2 189.64,270.2 189.64,231.46 197.69,231.46 304.87,231.46 312.93,231.46 312.93,270.2 292.78,270.2 265.11,270.2 237.44,270.2 "/>
   <g>
    <path class="fil5" d="M302.63 303.76l0 26.59 -22.55 0 0 -26.59c0,-6.23 5.05,-11.28 11.27,-11.28 6.23,0 11.28,5.05 11.28,11.28z"/>
    <path class="fil5" d="M263.15 303.76l0 26.59 -22.57 0 0 -26.59c0,-6.23 5.06,-11.28 11.28,-11.28 6.24,0 11.29,5.05 11.29,11.28z"/>
    <path class="fil5" d="M223.66 303.76l0 26.59 -22.57 0 0 -26.59c0,-6.23 5.06,-11.28 11.29,-11.28 6.23,0 11.28,5.05 11.28,11.28z"/>
   </g>
   <g>
    <polygon class="fil6" points="251.28,72.8 304.87,232.41 197.69,232.41 "/>
    <path class="fil6" d="M317.66 238.45l-132.76 0c-3.34,0 -6.04,-2.7 -6.04,-6.04 0,-3.34 2.7,-6.04 6.04,-6.04l132.76 0c3.34,0 6.04,2.7 6.04,6.04 0.01,3.34 -2.7,6.04 -6.04,6.04z"/>
    <path class="fil6" d="M251.28 150.49c-2.33,0 -4.23,-1.9 -4.23,-4.23l0 -96.71c0,-2.33 1.9,-4.23 4.23,-4.23 2.34,0 4.24,1.9 4.24,4.23l0 96.71c0,2.33 -1.9,4.23 -4.24,4.23z"/>
   </g>
   <path class="fil7" d="M257.33 184.65l-12.09 0 0 -18.13c0,-3.34 2.71,-6.05 6.04,-6.05l0 0c3.34,0 6.05,2.71 6.05,6.05l0 18.13 0 0z"/>
   <path class="fil8" d="M180.76 492.52c22.38,6.53 46.04,10.05 70.52,10.05 24.48,0 48.14,-3.52 70.51,-10.05l0 -128.69 0 -28.42 -22.56 0 -16.93 0 -22.55 0 -16.93 0 -22.57 0 -16.92 0 -22.57 0 0 76.5 0 80.61z"/>
   <path class="fil9" d="M329.75 339.51l-156.94 0c-3.34,0 -6.04,-2.7 -6.04,-6.04 0,-3.34 2.7,-6.04 6.04,-6.04l156.94 -0.01c3.34,0 6.04,2.71 6.04,6.05 0,3.34 -2.7,6.04 -6.04,6.04z"/>
   <g>
    <path class="fil5" d="M223.68 282.86c-3.33,0 -6.04,-2.71 -6.04,-6.04l0 -18.54c0,-3.33 2.71,-6.04 6.04,-6.04 3.34,0 6.05,2.71 6.05,6.04l0 18.54c0,3.33 -2.71,6.04 -6.05,6.04z"/>
    <path class="fil5" d="M251.35 282.86c-3.34,0 -6.04,-2.71 -6.04,-6.04l0 -18.54c0,-3.33 2.7,-6.04 6.04,-6.04 3.34,0 6.05,2.71 6.05,6.04l0 18.54c0,3.33 -2.71,6.04 -6.05,6.04z"/>
    <path class="fil5" d="M279.02 282.86c-3.34,0 -6.04,-2.71 -6.04,-6.04l0 -18.54c0,-3.33 2.7,-6.04 6.04,-6.04 3.34,0 6.04,2.71 6.04,6.04l0 18.54c0,3.33 -2.7,6.04 -6.04,6.04z"/>
   </g>
   <path class="fil5" d="M207.43 395.98l-12.08 0 0 -20.55c0,-3.34 2.7,-6.04 6.04,-6.04l0 0c3.34,0 6.04,2.7 6.04,6.04l0 20.55 0 0z"/>
   <path class="fil5" d="M257.33 395.98l-12.09 0 0 -20.55c0,-3.34 2.71,-6.04 6.04,-6.04l0 0c3.34,0 6.05,2.7 6.05,6.04l0 20.55 0 0z"/>
   <path class="fil5" d="M307.21 395.98l-12.09 0 0 -20.55c0,-3.34 2.71,-6.04 6.05,-6.04l0 0c3.34,0 6.04,2.7 6.04,6.04l0 20.55 0 0z"/>
   <path class="fil9" d="M329.75 283.16l-156.94 0c-3.34,0 -6.04,-2.7 -6.04,-6.04 0,-3.34 2.7,-6.04 6.04,-6.04l156.94 0c3.34,0 6.04,2.7 6.04,6.04 0,3.34 -2.7,6.04 -6.04,6.04z"/>
  </g>
 </g>
</svg>
