<?xml version="1.0" encoding="UTF-8"?>
<!DOCTYPE svg PUBLIC "-//W3C//DTD SVG 1.1//EN" "http://www.w3.org/Graphics/SVG/1.1/DTD/svg11.dtd">
<svg xmlns="http://www.w3.org/2000/svg" xml:space="preserve" width="500px" height="500px" version="1.1" style="shape-rendering:geometricPrecision; text-rendering:geometricPrecision; image-rendering:optimizeQuality; fill-rule:evenodd; clip-rule:evenodd"
viewBox="0 0 545.74 545.74"
 xmlns:xlink="http://www.w3.org/1999/xlink">
 <defs>
  <style type="text/css">
   <![CDATA[
    .str1 {stroke:#5C221D;stroke-width:4.37;stroke-linecap:round;stroke-miterlimit:22.9256}
    .str0 {stroke:#7A433E;stroke-width:4.37;stroke-linecap:round;stroke-miterlimit:22.9256}
    .fil81 {fill:none}
    .fil2 {fill:none;fill-rule:nonzero}
    .fil85 {fill:#B44F4B}
    .fil84 {fill:#5C221D}
    .fil86 {fill:#943C3A}
    .fil104 {fill:#BEA380}
    .fil79 {fill:#7A433E}
    .fil83 {fill:#422624}
    .fil75 {fill:#158FA0}
    .fil74 {fill:#073D45}
    .fil72 {fill:#095761}
    .fil78 {fill:#174515}
    .fil77 {fill:#233803}
    .fil99 {fill:#915010}
    .fil76 {fill:#E30A17}
    .fil105 {fill:#FAF6F5}
    .fil73 {fill:#073D45;fill-rule:nonzero}
    .fil107 {fill:white;fill-rule:nonzero}
    .fil80 {fill:#B44F4B}
    .fil82 {fill:#943C3A}
    .fil103 {fill:url(#id0)}
    .fil106 {fill:url(#id1)}
    .fil98 {fill:url(#id2)}
    .fil70 {fill:url(#id3)}
    .fil100 {fill:url(#id4)}
    .fil97 {fill:url(#id5)}
    .fil71 {fill:url(#id6)}
    .fil101 {fill:url(#id7)}
    .fil68 {fill:url(#id8)}
    .fil69 {fill:url(#id9)}
    .fil102 {fill:url(#id10)}
    .fil92 {fill:url(#id11)}
    .fil93 {fill:url(#id12)}
    .fil95 {fill:url(#id13)}
    .fil88 {fill:url(#id14)}
    .fil96 {fill:url(#id15)}
    .fil90 {fill:url(#id16)}
    .fil91 {fill:url(#id17)}
    .fil89 {fill:url(#id18)}
    .fil87 {fill:url(#id19)}
    .fil94 {fill:url(#id20)}
    .fil43 {fill:url(#id21);fill-rule:nonzero}
    .fil44 {fill:url(#id22);fill-rule:nonzero}
    .fil25 {fill:url(#id23);fill-rule:nonzero}
    .fil6 {fill:url(#id24);fill-rule:nonzero}
    .fil38 {fill:url(#id25);fill-rule:nonzero}
    .fil11 {fill:url(#id26);fill-rule:nonzero}
    .fil59 {fill:url(#id27);fill-rule:nonzero}
    .fil47 {fill:url(#id28);fill-rule:nonzero}
    .fil27 {fill:url(#id29);fill-rule:nonzero}
    .fil56 {fill:url(#id30);fill-rule:nonzero}
    .fil62 {fill:url(#id31);fill-rule:nonzero}
    .fil61 {fill:url(#id32);fill-rule:nonzero}
    .fil51 {fill:url(#id33);fill-rule:nonzero}
    .fil65 {fill:url(#id34);fill-rule:nonzero}
    .fil15 {fill:url(#id35);fill-rule:nonzero}
    .fil41 {fill:url(#id36);fill-rule:nonzero}
    .fil52 {fill:url(#id37);fill-rule:nonzero}
    .fil13 {fill:url(#id38);fill-rule:nonzero}
    .fil54 {fill:url(#id39);fill-rule:nonzero}
    .fil34 {fill:url(#id40);fill-rule:nonzero}
    .fil10 {fill:url(#id41);fill-rule:nonzero}
    .fil28 {fill:url(#id42);fill-rule:nonzero}
    .fil3 {fill:url(#id43);fill-rule:nonzero}
    .fil35 {fill:url(#id44);fill-rule:nonzero}
    .fil42 {fill:url(#id45);fill-rule:nonzero}
    .fil39 {fill:url(#id46);fill-rule:nonzero}
    .fil16 {fill:url(#id47);fill-rule:nonzero}
    .fil12 {fill:url(#id48);fill-rule:nonzero}
    .fil36 {fill:url(#id49);fill-rule:nonzero}
    .fil20 {fill:url(#id50);fill-rule:nonzero}
    .fil4 {fill:url(#id51);fill-rule:nonzero}
    .fil63 {fill:url(#id52);fill-rule:nonzero}
    .fil0 {fill:url(#id53);fill-rule:nonzero}
    .fil31 {fill:url(#id54);fill-rule:nonzero}
    .fil9 {fill:url(#id55);fill-rule:nonzero}
    .fil23 {fill:url(#id56);fill-rule:nonzero}
    .fil49 {fill:url(#id57);fill-rule:nonzero}
    .fil18 {fill:url(#id58);fill-rule:nonzero}
    .fil55 {fill:url(#id59);fill-rule:nonzero}
    .fil7 {fill:url(#id60);fill-rule:nonzero}
    .fil8 {fill:url(#id61);fill-rule:nonzero}
    .fil21 {fill:url(#id62);fill-rule:nonzero}
    .fil32 {fill:url(#id63);fill-rule:nonzero}
    .fil1 {fill:url(#id64);fill-rule:nonzero}
    .fil58 {fill:url(#id65);fill-rule:nonzero}
    .fil64 {fill:url(#id66);fill-rule:nonzero}
    .fil17 {fill:url(#id67);fill-rule:nonzero}
    .fil45 {fill:url(#id68);fill-rule:nonzero}
    .fil53 {fill:url(#id69);fill-rule:nonzero}
    .fil48 {fill:url(#id70);fill-rule:nonzero}
    .fil50 {fill:url(#id71);fill-rule:nonzero}
    .fil33 {fill:url(#id72);fill-rule:nonzero}
    .fil37 {fill:url(#id73);fill-rule:nonzero}
    .fil60 {fill:url(#id74);fill-rule:nonzero}
    .fil19 {fill:url(#id75);fill-rule:nonzero}
    .fil67 {fill:url(#id76);fill-rule:nonzero}
    .fil57 {fill:url(#id77);fill-rule:nonzero}
    .fil26 {fill:url(#id78);fill-rule:nonzero}
    .fil66 {fill:url(#id79);fill-rule:nonzero}
    .fil29 {fill:url(#id80);fill-rule:nonzero}
    .fil30 {fill:url(#id81);fill-rule:nonzero}
    .fil24 {fill:url(#id82);fill-rule:nonzero}
    .fil46 {fill:url(#id83);fill-rule:nonzero}
    .fil22 {fill:url(#id84);fill-rule:nonzero}
    .fil5 {fill:url(#id85);fill-rule:nonzero}
    .fil14 {fill:url(#id86);fill-rule:nonzero}
    .fil40 {fill:url(#id87);fill-rule:nonzero}
   ]]>
  </style>
  <linearGradient id="id0" gradientUnits="userSpaceOnUse" x1="388.72" y1="499.18" x2="388.75" y2="493.7">
   <stop offset="0" style="stop-opacity:1; stop-color:#2B2B2A"/>
   <stop offset="0.12549" style="stop-opacity:1; stop-color:#746755"/>
   <stop offset="0.470588" style="stop-opacity:1; stop-color:#BEA380"/>
   <stop offset="1" style="stop-opacity:1; stop-color:white"/>
  </linearGradient>
  <linearGradient id="id1" gradientUnits="userSpaceOnUse" x1="413.38" y1="475.16" x2="413.82" y2="460.58">
   <stop offset="0" style="stop-opacity:0.819608; stop-color:#FAF6F5"/>
   <stop offset="0.341176" style="stop-opacity:0.909804; stop-color:#DDD8D8"/>
   <stop offset="1" style="stop-opacity:1; stop-color:#C0BABA"/>
  </linearGradient>
  <linearGradient id="id2" gradientUnits="userSpaceOnUse" x1="356.53" y1="508.91" x2="459.17" y2="336.84">
   <stop offset="0" style="stop-opacity:1; stop-color:#D6D1CA"/>
   <stop offset="0.709804" style="stop-opacity:1; stop-color:#EAE8E4"/>
   <stop offset="1" style="stop-opacity:1; stop-color:white"/>
  </linearGradient>
  <linearGradient id="id3" gradientUnits="userSpaceOnUse" x1="76.84" y1="355.03" x2="614.72" y2="93.68">
   <stop offset="0" style="stop-opacity:1; stop-color:#158FA0"/>
   <stop offset="1" style="stop-opacity:0.588235; stop-color:#A5D8E0"/>
  </linearGradient>
  <linearGradient id="id4" gradientUnits="userSpaceOnUse" x1="372.34" y1="419.03" x2="407.12" y2="317.44">
   <stop offset="0" style="stop-opacity:1; stop-color:#2B2A26"/>
   <stop offset="0.580392" style="stop-opacity:1; stop-color:#5A5351"/>
   <stop offset="1" style="stop-opacity:1; stop-color:#8A7C7C"/>
  </linearGradient>
  <linearGradient id="id5" gradientUnits="userSpaceOnUse" x1="356.53" y1="508.91" x2="416.3" y2="334.01">
   <stop offset="0" style="stop-opacity:1; stop-color:#C3A987"/>
   <stop offset="0.639216" style="stop-opacity:1; stop-color:#E1D4C3"/>
   <stop offset="1" style="stop-opacity:1; stop-color:white"/>
  </linearGradient>
  <linearGradient id="id6" gradientUnits="objectBoundingBox" xlink:href="#id3" x1="0%" y1="111.313%" x2="160.192%" y2="0%">
  </linearGradient>
  <linearGradient id="id7" gradientUnits="userSpaceOnUse" xlink:href="#id4" x1="372.06" y1="419.03" x2="408.53" y2="317.44">
  </linearGradient>
  <linearGradient id="id8" gradientUnits="userSpaceOnUse" x1="50.75" y1="577.74" x2="516.41" y2="127.46">
   <stop offset="0" style="stop-opacity:1; stop-color:#047085"/>
   <stop offset="0.439216" style="stop-opacity:1; stop-color:#36B7D1"/>
   <stop offset="1" style="stop-opacity:1; stop-color:#D1F8FF"/>
  </linearGradient>
  <linearGradient id="id9" gradientUnits="userSpaceOnUse" xlink:href="#id3" x1="76.84" y1="355.03" x2="614.72" y2="93.68">
  </linearGradient>
  <linearGradient id="id10" gradientUnits="userSpaceOnUse" x1="382.52" y1="471.43" x2="449.16" y2="424.72">
   <stop offset="0" style="stop-opacity:1; stop-color:#7C290B"/>
   <stop offset="1" style="stop-opacity:1; stop-color:#985A4F"/>
  </linearGradient>
  <linearGradient id="id11" gradientUnits="userSpaceOnUse" x1="87.25" y1="530.12" x2="430.86" y2="277.47">
   <stop offset="0" style="stop-opacity:1; stop-color:#67C5EC"/>
   <stop offset="0.4" style="stop-opacity:1; stop-color:#99D7F1"/>
   <stop offset="0.701961" style="stop-opacity:1; stop-color:#B2E1F4"/>
   <stop offset="1" style="stop-opacity:1; stop-color:#C4E8F6"/>
  </linearGradient>
  <linearGradient id="id12" gradientUnits="userSpaceOnUse" xlink:href="#id11" x1="87.25" y1="530.12" x2="430.86" y2="277.47">
  </linearGradient>
  <linearGradient id="id13" gradientUnits="userSpaceOnUse" xlink:href="#id11" x1="87.25" y1="530.12" x2="430.86" y2="277.47">
  </linearGradient>
  <linearGradient id="id14" gradientUnits="userSpaceOnUse" xlink:href="#id11" x1="87.25" y1="530.12" x2="430.86" y2="277.47">
  </linearGradient>
  <linearGradient id="id15" gradientUnits="userSpaceOnUse" xlink:href="#id11" x1="87.25" y1="530.12" x2="430.86" y2="277.47">
  </linearGradient>
  <linearGradient id="id16" gradientUnits="userSpaceOnUse" xlink:href="#id11" x1="87.25" y1="530.12" x2="430.86" y2="277.47">
  </linearGradient>
  <linearGradient id="id17" gradientUnits="userSpaceOnUse" xlink:href="#id11" x1="87.25" y1="530.12" x2="430.86" y2="277.47">
  </linearGradient>
  <linearGradient id="id18" gradientUnits="userSpaceOnUse" xlink:href="#id11" x1="87.25" y1="530.12" x2="430.86" y2="277.47">
  </linearGradient>
  <linearGradient id="id19" gradientUnits="userSpaceOnUse" xlink:href="#id11" x1="87.25" y1="530.12" x2="430.86" y2="277.47">
  </linearGradient>
  <linearGradient id="id20" gradientUnits="userSpaceOnUse" xlink:href="#id11" x1="87.25" y1="530.12" x2="430.86" y2="277.47">
  </linearGradient>
  <linearGradient id="id21" gradientUnits="userSpaceOnUse" x1="34.58" y1="405.91" x2="465.72" y2="-17.07">
   <stop offset="0" style="stop-opacity:1; stop-color:#35BEED"/>
   <stop offset="0.54902" style="stop-opacity:1; stop-color:#C5E9F6"/>
   <stop offset="1" style="stop-opacity:1; stop-color:#EBFAFF"/>
  </linearGradient>
  <linearGradient id="id22" gradientUnits="userSpaceOnUse" xlink:href="#id21" x1="34.58" y1="405.91" x2="465.72" y2="-17.07">
  </linearGradient>
  <linearGradient id="id23" gradientUnits="userSpaceOnUse" xlink:href="#id21" x1="34.58" y1="405.91" x2="465.72" y2="-17.07">
  </linearGradient>
  <linearGradient id="id24" gradientUnits="userSpaceOnUse" xlink:href="#id21" x1="34.58" y1="405.91" x2="465.72" y2="-17.07">
  </linearGradient>
  <linearGradient id="id25" gradientUnits="userSpaceOnUse" xlink:href="#id21" x1="34.58" y1="405.91" x2="465.72" y2="-17.07">
  </linearGradient>
  <linearGradient id="id26" gradientUnits="userSpaceOnUse" xlink:href="#id21" x1="34.58" y1="405.91" x2="465.72" y2="-17.07">
  </linearGradient>
  <linearGradient id="id27" gradientUnits="userSpaceOnUse" xlink:href="#id21" x1="34.58" y1="405.91" x2="465.72" y2="-17.07">
  </linearGradient>
  <linearGradient id="id28" gradientUnits="userSpaceOnUse" xlink:href="#id21" x1="34.58" y1="405.91" x2="465.72" y2="-17.07">
  </linearGradient>
  <linearGradient id="id29" gradientUnits="userSpaceOnUse" xlink:href="#id21" x1="34.58" y1="405.91" x2="465.72" y2="-17.07">
  </linearGradient>
  <linearGradient id="id30" gradientUnits="userSpaceOnUse" xlink:href="#id21" x1="34.58" y1="405.91" x2="465.72" y2="-17.07">
  </linearGradient>
  <linearGradient id="id31" gradientUnits="userSpaceOnUse" xlink:href="#id21" x1="34.58" y1="405.91" x2="465.72" y2="-17.07">
  </linearGradient>
  <linearGradient id="id32" gradientUnits="userSpaceOnUse" xlink:href="#id21" x1="34.58" y1="405.91" x2="465.72" y2="-17.07">
  </linearGradient>
  <linearGradient id="id33" gradientUnits="userSpaceOnUse" xlink:href="#id21" x1="34.58" y1="405.91" x2="465.72" y2="-17.07">
  </linearGradient>
  <linearGradient id="id34" gradientUnits="userSpaceOnUse" xlink:href="#id21" x1="34.58" y1="405.91" x2="465.72" y2="-17.07">
  </linearGradient>
  <linearGradient id="id35" gradientUnits="userSpaceOnUse" xlink:href="#id21" x1="34.58" y1="405.91" x2="465.72" y2="-17.07">
  </linearGradient>
  <linearGradient id="id36" gradientUnits="userSpaceOnUse" xlink:href="#id21" x1="34.58" y1="405.91" x2="465.72" y2="-17.07">
  </linearGradient>
  <linearGradient id="id37" gradientUnits="userSpaceOnUse" xlink:href="#id21" x1="34.58" y1="405.91" x2="465.72" y2="-17.07">
  </linearGradient>
  <linearGradient id="id38" gradientUnits="userSpaceOnUse" xlink:href="#id21" x1="34.58" y1="405.91" x2="465.72" y2="-17.07">
  </linearGradient>
  <linearGradient id="id39" gradientUnits="userSpaceOnUse" xlink:href="#id21" x1="34.58" y1="405.91" x2="465.72" y2="-17.07">
  </linearGradient>
  <linearGradient id="id40" gradientUnits="userSpaceOnUse" xlink:href="#id21" x1="34.58" y1="405.91" x2="465.72" y2="-17.07">
  </linearGradient>
  <linearGradient id="id41" gradientUnits="userSpaceOnUse" xlink:href="#id21" x1="34.58" y1="405.91" x2="465.72" y2="-17.07">
  </linearGradient>
  <linearGradient id="id42" gradientUnits="userSpaceOnUse" xlink:href="#id21" x1="34.58" y1="405.91" x2="465.72" y2="-17.07">
  </linearGradient>
  <linearGradient id="id43" gradientUnits="userSpaceOnUse" xlink:href="#id21" x1="34.58" y1="405.91" x2="465.72" y2="-17.07">
  </linearGradient>
  <linearGradient id="id44" gradientUnits="userSpaceOnUse" xlink:href="#id21" x1="34.58" y1="405.91" x2="465.72" y2="-17.07">
  </linearGradient>
  <linearGradient id="id45" gradientUnits="userSpaceOnUse" xlink:href="#id21" x1="34.58" y1="405.91" x2="465.72" y2="-17.07">
  </linearGradient>
  <linearGradient id="id46" gradientUnits="userSpaceOnUse" xlink:href="#id21" x1="34.58" y1="405.91" x2="465.72" y2="-17.07">
  </linearGradient>
  <linearGradient id="id47" gradientUnits="userSpaceOnUse" xlink:href="#id21" x1="34.58" y1="405.91" x2="465.72" y2="-17.07">
  </linearGradient>
  <linearGradient id="id48" gradientUnits="userSpaceOnUse" xlink:href="#id21" x1="34.58" y1="405.91" x2="465.72" y2="-17.07">
  </linearGradient>
  <linearGradient id="id49" gradientUnits="userSpaceOnUse" xlink:href="#id21" x1="34.58" y1="405.91" x2="465.72" y2="-17.07">
  </linearGradient>
  <linearGradient id="id50" gradientUnits="userSpaceOnUse" xlink:href="#id21" x1="34.58" y1="405.91" x2="465.72" y2="-17.07">
  </linearGradient>
  <linearGradient id="id51" gradientUnits="userSpaceOnUse" xlink:href="#id21" x1="34.58" y1="405.91" x2="465.72" y2="-17.07">
  </linearGradient>
  <linearGradient id="id52" gradientUnits="userSpaceOnUse" xlink:href="#id21" x1="34.58" y1="405.91" x2="465.72" y2="-17.07">
  </linearGradient>
  <linearGradient id="id53" gradientUnits="userSpaceOnUse" xlink:href="#id21" x1="34.58" y1="405.91" x2="465.72" y2="-17.07">
  </linearGradient>
  <linearGradient id="id54" gradientUnits="userSpaceOnUse" xlink:href="#id21" x1="34.58" y1="405.91" x2="465.72" y2="-17.07">
  </linearGradient>
  <linearGradient id="id55" gradientUnits="userSpaceOnUse" xlink:href="#id21" x1="34.58" y1="405.91" x2="465.72" y2="-17.07">
  </linearGradient>
  <linearGradient id="id56" gradientUnits="userSpaceOnUse" xlink:href="#id21" x1="34.58" y1="405.91" x2="465.72" y2="-17.07">
  </linearGradient>
  <linearGradient id="id57" gradientUnits="userSpaceOnUse" xlink:href="#id21" x1="34.58" y1="405.91" x2="465.72" y2="-17.07">
  </linearGradient>
  <linearGradient id="id58" gradientUnits="userSpaceOnUse" xlink:href="#id21" x1="34.58" y1="405.91" x2="465.72" y2="-17.07">
  </linearGradient>
  <linearGradient id="id59" gradientUnits="userSpaceOnUse" xlink:href="#id21" x1="34.58" y1="405.91" x2="465.72" y2="-17.07">
  </linearGradient>
  <linearGradient id="id60" gradientUnits="userSpaceOnUse" xlink:href="#id21" x1="34.58" y1="405.91" x2="465.72" y2="-17.07">
  </linearGradient>
  <linearGradient id="id61" gradientUnits="userSpaceOnUse" xlink:href="#id21" x1="34.58" y1="405.91" x2="465.72" y2="-17.07">
  </linearGradient>
  <linearGradient id="id62" gradientUnits="userSpaceOnUse" xlink:href="#id21" x1="34.58" y1="405.91" x2="465.72" y2="-17.07">
  </linearGradient>
  <linearGradient id="id63" gradientUnits="userSpaceOnUse" xlink:href="#id21" x1="34.58" y1="405.91" x2="465.72" y2="-17.07">
  </linearGradient>
  <linearGradient id="id64" gradientUnits="userSpaceOnUse" xlink:href="#id21" x1="34.58" y1="405.91" x2="465.72" y2="-17.07">
  </linearGradient>
  <linearGradient id="id65" gradientUnits="userSpaceOnUse" xlink:href="#id21" x1="34.58" y1="405.91" x2="465.72" y2="-17.07">
  </linearGradient>
  <linearGradient id="id66" gradientUnits="userSpaceOnUse" xlink:href="#id21" x1="34.58" y1="405.91" x2="465.72" y2="-17.07">
  </linearGradient>
  <linearGradient id="id67" gradientUnits="userSpaceOnUse" xlink:href="#id21" x1="34.58" y1="405.91" x2="465.72" y2="-17.07">
  </linearGradient>
  <linearGradient id="id68" gradientUnits="userSpaceOnUse" xlink:href="#id21" x1="34.58" y1="405.91" x2="465.72" y2="-17.07">
  </linearGradient>
  <linearGradient id="id69" gradientUnits="userSpaceOnUse" xlink:href="#id21" x1="34.58" y1="405.91" x2="465.72" y2="-17.07">
  </linearGradient>
  <linearGradient id="id70" gradientUnits="userSpaceOnUse" xlink:href="#id21" x1="34.58" y1="405.91" x2="465.72" y2="-17.07">
  </linearGradient>
  <linearGradient id="id71" gradientUnits="userSpaceOnUse" xlink:href="#id21" x1="34.58" y1="405.91" x2="465.72" y2="-17.07">
  </linearGradient>
  <linearGradient id="id72" gradientUnits="userSpaceOnUse" xlink:href="#id21" x1="34.58" y1="405.91" x2="465.72" y2="-17.07">
  </linearGradient>
  <linearGradient id="id73" gradientUnits="userSpaceOnUse" xlink:href="#id21" x1="34.58" y1="405.91" x2="465.72" y2="-17.07">
  </linearGradient>
  <linearGradient id="id74" gradientUnits="userSpaceOnUse" xlink:href="#id21" x1="34.58" y1="405.91" x2="465.72" y2="-17.07">
  </linearGradient>
  <linearGradient id="id75" gradientUnits="userSpaceOnUse" xlink:href="#id21" x1="34.58" y1="405.91" x2="465.72" y2="-17.07">
  </linearGradient>
  <linearGradient id="id76" gradientUnits="userSpaceOnUse" xlink:href="#id21" x1="34.58" y1="405.91" x2="465.72" y2="-17.07">
  </linearGradient>
  <linearGradient id="id77" gradientUnits="userSpaceOnUse" xlink:href="#id21" x1="34.58" y1="405.91" x2="465.72" y2="-17.07">
  </linearGradient>
  <linearGradient id="id78" gradientUnits="userSpaceOnUse" xlink:href="#id21" x1="34.58" y1="405.91" x2="465.72" y2="-17.07">
  </linearGradient>
  <linearGradient id="id79" gradientUnits="userSpaceOnUse" xlink:href="#id21" x1="34.58" y1="405.91" x2="465.72" y2="-17.07">
  </linearGradient>
  <linearGradient id="id80" gradientUnits="userSpaceOnUse" xlink:href="#id21" x1="34.58" y1="405.91" x2="465.72" y2="-17.07">
  </linearGradient>
  <linearGradient id="id81" gradientUnits="userSpaceOnUse" xlink:href="#id21" x1="34.58" y1="405.91" x2="465.72" y2="-17.07">
  </linearGradient>
  <linearGradient id="id82" gradientUnits="userSpaceOnUse" xlink:href="#id21" x1="34.58" y1="405.91" x2="465.72" y2="-17.07">
  </linearGradient>
  <linearGradient id="id83" gradientUnits="userSpaceOnUse" xlink:href="#id21" x1="34.58" y1="405.91" x2="465.72" y2="-17.07">
  </linearGradient>
  <linearGradient id="id84" gradientUnits="userSpaceOnUse" xlink:href="#id21" x1="34.58" y1="405.91" x2="465.72" y2="-17.07">
  </linearGradient>
  <linearGradient id="id85" gradientUnits="userSpaceOnUse" xlink:href="#id21" x1="34.58" y1="405.91" x2="465.72" y2="-17.07">
  </linearGradient>
  <linearGradient id="id86" gradientUnits="userSpaceOnUse" xlink:href="#id21" x1="34.58" y1="405.91" x2="465.72" y2="-17.07">
  </linearGradient>
  <linearGradient id="id87" gradientUnits="userSpaceOnUse" xlink:href="#id21" x1="34.58" y1="405.91" x2="465.72" y2="-17.07">
  </linearGradient>
 </defs>
 <g id="Layer_x0020_1">
  <metadata id="CorelCorpID_0Corel-Layer"/>
  <g id="_39645550976">
   <circle class="fil0" cx="272.87" cy="272.87" r="272.87"/>
   <path class="fil1" d="M445.34 341.18c0.52,-0.11 0.97,-0.3 1.29,-0.67 1.04,-1.15 0.96,-2.76 -0.27,-3.83 -1.05,-0.91 -3.32,-0.56 -4.89,-0.56 -3.52,0 -7.05,0 -10.58,0 -0.25,-4.11 0.38,-5.01 0.38,-5.1 -0.2,-1.08 -0.42,-0.55 -0.41,-2.26l0.01 -5.31c-0.01,-1.9 0.06,-0.51 0.54,-1.87 -0.46,-1.33 -0.57,-0.05 -0.55,-2.26l0 -19.46c0,-1.22 -0.29,-20.18 0.18,-21.27 0.44,-1.03 -0.1,-1.14 -0.18,-1.98 -0.04,-0.5 0,-1.33 0,-1.87 0,-1.11 0.35,-2.96 -0.9,-3.26l-5.11 -0.13 0.01 -3.23c-0.17,-2.14 -2.05,-1.04 -3.43,-1.65 -0.61,-2.83 1.19,-3.39 -1.67,-5.01 -0.85,-0.48 -1.89,-0.86 -2.69,-1.45 -0.18,-0.12 -0.19,-0.15 -0.42,-0.31 -3.1,-2.11 -3.51,-0.52 -3.51,-4.41 0,-1.07 0,-2.14 0,-3.21 0.01,-1.53 0.13,-1.79 -0.39,-2.96 -0.75,-0.14 -1.86,-0.27 -2.17,0.67 -0.33,1.02 -0.08,6.67 -0.08,7.96l-3.37 1.88c-0.03,0.02 -0.08,0.05 -0.12,0.07 -5.14,3.16 -4.82,1.22 -4.82,6.92 -0.93,0.01 -2.58,-0.25 -3.21,0.38 -0.86,0.86 0.18,3.59 -0.53,4.22 -0.59,0.42 -4.29,-0.01 -5.32,0.31 -0.32,0.71 -0.37,0.65 -0.39,1.69 -0.03,1.13 0.14,2.46 0.01,3.57l-0.3 0.71c-0.78,1.28 0.33,-0.05 0.3,2.71 -0.01,0.95 0,1.9 0,2.84 0,12.16 -0.14,24.31 0,36.47 0.01,0.36 0.06,0.83 -0.05,1.16 -0.06,0.19 -0.07,0.14 -0.25,0.44 -0.57,0.93 0.29,0.76 0.34,2.41 -1.38,-0.28 -2.72,-1.01 -3.81,-1.81l-2.85 -2.54c-0.04,-0.05 -0.13,-0.18 -0.16,-0.23 -0.02,-0.03 -0.05,-0.08 -0.08,-0.11l-0.87 -1.22c-0.69,-0.98 -1.41,-2.49 -1.78,-3.65 -1.38,-4.37 -0.84,-13.15 -0.84,-18.26l-0.01 -75.92c0,-3.31 0.22,-30.67 -0.02,-33.26 -0.16,-1.76 -2.33,-1.53 -2.66,0.02l-4.34 0c-0.15,-5.32 0.67,-4.68 -4.69,-4.77 -0.19,-1.69 -0.06,-4.04 -0.06,-5.81 0,-1.78 0.5,-4.17 -2.05,-3.51 -1.03,0.61 -0.53,7.85 -0.63,9.32 -0.8,0 -1.6,0 -2.39,0 -3.59,-0.01 -1.92,1.87 -2.38,4.66l-4.23 -0.02c-0.28,-0.34 -0.6,-0.74 -0.76,-1.01 -1.23,0 -1.79,-0.25 -2.01,0.92 -0.27,1.42 -0.04,5.26 -0.04,6.83l0 118.98c0,3.37 0.86,8.45 -1.88,10.77l-0.44 0.33c-0.76,0.51 -2.05,1.18 -3.19,1.06 -0.35,-1.59 -0.09,-7.65 -0.09,-9.71 0,-19.45 -0.15,-38.91 0.01,-58.36 0.01,-2.35 -0.03,-2.43 -2.22,-2.83l-3.73 -0.75c0,-2.74 0.34,-17.07 -0.2,-18.51 -0.95,-1.38 -10.6,-0.05 -12.44,0.19 -0.76,0.11 -3.18,0.21 -3.72,0.83 -0.57,0.67 -0.26,14.38 -0.26,15.03 -1.21,0 -4.16,-0.27 -5.26,0.13 -0.37,0.14 -0.48,0.31 -0.62,0.63 -0.03,0.07 -0.05,0.11 -0.08,0.18 -0.27,0.77 -0.08,84.98 -0.08,84.99l-9.26 0 0 -81.96c-0.84,-0.11 -0.04,-0.24 -1.31,-0.6 -1.45,-0.41 -3.09,-0.37 -4.44,-0.96 -0.01,-2.38 -0.01,-4.75 -0.01,-7.13 0,-1.64 0.4,-5.84 -0.43,-6.8 -1.11,-0.62 -6.8,-0.46 -7.97,0.01 -0.4,0.15 -1.14,0.27 -1.6,0.37 -0.72,0.15 -1.01,0.27 -1.65,0.45 -1.04,0.29 -4.56,0.91 -5.04,1.88l-0.15 0.48c-0.05,0.25 -0.06,0.69 -0.06,0.96 -0.02,4.02 0.13,8.09 0,12.09 -0.88,0 -1.77,0.01 -2.65,0 -0.8,0 -1.61,-0.08 -2.39,0.09 -0.52,0.12 -0.75,0.35 -0.85,1.05 -0.04,0.24 0,1.03 0,1.32 0.01,0.73 0.12,1.63 -0.16,2.27 -1.71,0 -3.34,-0.29 -3.4,1.67l0.02 3.61c0.05,10.95 0.11,70.75 -0.16,71.03 -0.32,0.31 -1.32,0.17 -1.93,0.17 0,-1.7 0,-3.4 0,-5.1 0,-1.63 0.49,-4.79 -0.78,-5.36 -0.88,-0.4 -2.98,-0.11 -3.95,-0.11 -0.17,-26.5 0,-53.01 0,-79.51l0.02 -8.51c-0.06,-1.38 -0.31,-1.22 -1.15,-1.69 0,-0.78 0.08,-1.39 -0.52,-1.95 -0.99,-0.93 -0.49,-1.98 -0.99,-2.39 -0.64,-0.23 -1.65,-0.06 -1.89,-0.38 -0.4,-0.3 -0.19,-1.81 -0.19,-2.46 0.01,-7.04 0.1,-4.93 -2.26,-5.84 -0.13,-2.22 0.3,-10.05 -0.24,-11.46 -1,-0.27 -1.45,-0.14 -2.42,-0.16 -1.55,-0.04 -0.51,-0.22 -1.4,-0.82 -0.81,-0.54 -8.45,-0.22 -9.35,-0.23 -1.04,0 -2.45,-0.26 -3.16,0.42 -0.32,0.3 -0.18,0.26 -0.43,0.57 -1.01,0.08 -3.02,-0.44 -3.33,0.72 -0.01,0.07 -0.02,0.11 -0.04,0.18 -0.26,1.31 -0.03,9.35 -0.03,10.77 -1.22,0.47 -1.07,-0.28 -2.19,0.75 -0.55,1.89 0.12,5.56 -0.24,7.66 -2,0.37 -2.29,-0.26 -2.29,2.16 -0.59,0.53 -0.58,0.09 -0.95,0.81 -0.27,0.53 -0.18,0.89 -0.18,1.65l-1.24 4.15 -0.03 97.39 0.07 1.25c0.05,0.87 0.13,1.72 0.23,2.55l205.78 0z"/>
   <path class="fil2" d="M1.62 302.62c0.12,1.07 0.24,2.15 0.37,3.22l0 0.05 0.01 0.05c0.13,1.07 0.26,2.14 0.4,3.2l0.01 0.05c0.17,1.3 0.35,2.6 0.55,3.89l0 0.02c0.12,0.82 0.24,1.64 0.37,2.45l0.01 0.04c0.25,1.59 0.51,3.17 0.78,4.74l0.01 0.03c0.09,0.51 0.18,1.03 0.27,1.55l0.01 0.02c0.33,1.83 0.68,3.66 1.05,5.48l0 0.01 0.18 0.89c0.41,1.99 0.84,3.98 1.3,5.96 -0.46,-1.98 -0.89,-3.97 -1.3,-5.96l0 0m1.3 5.96l0.1 0.44 0 -0.01 -0.1 -0.42m0.1 0.43c0.48,2.09 0.99,4.17 1.52,6.25l0 0 0.01 0 230.92 0 0 -28.16 0 -37.92 -19.66 0 0 -40.3 -5.21 0 0 -28.8 -11.22 6.47 0 36.37 -10.53 0 0 -65.29 -6.32 0 0 -15.31 -16.57 0 0 16.85 -4.49 0 0 124.28 -5.62 0 0 -33.14 -15.73 0 0 -48.73 -19.94 0 0 46.2 -4.91 0 0 -80.46 -18.82 0 0 23.59 -11.09 0 0 76.25 -7.44 0 0 -31.32 -8.15 -4.77 -10.11 9.97 0 29.49 0.14 1.54 -22.04 0 0 -48.72 -17.84 0 0 49.56 -22.7 0.31c0.12,1.23 0.25,2.47 0.38,3.7"/>
   <path class="fil3" d="M537.17 340.96l0.01 0 0 0c0.53,-2.08 1.04,-4.17 1.53,-6.27l0.09 -0.41c0.46,-2 0.9,-4.02 1.31,-6.04l0.16 -0.77c0.38,-1.88 0.74,-3.77 1.09,-5.66l0 -0.01 0 -0.02 0.23 -1.28 0 -0.01 0 -0.02c0.3,-1.67 0.58,-3.36 0.84,-5.04l0 -0.02c0.11,-0.69 0.22,-1.38 0.32,-2.08l0 -0.03 0.01 -0.01c0.21,-1.42 0.41,-2.85 0.6,-4.29l0 -0.04c0.13,-0.96 0.25,-1.92 0.36,-2.88l0.01 -0.05 0.01 -0.05c0.13,-1.13 0.26,-2.25 0.38,-3.38l0.01 -0.06c0.13,-1.24 0.26,-2.48 0.38,-3.73l0 -0.06 0 -0.04c0.09,-0.88 0.16,-1.75 0.24,-2.63l0 -0.04 0.01 -0.04c0.11,-1.42 0.22,-2.84 0.32,-4.26l0 -0.07 0.01 -0.04c0.05,-0.84 0.11,-1.68 0.16,-2.53l0 0c-1.51,-25.24 -6.46,-49.56 -14.37,-72.49l-4.4 0 0 76.25 -7.44 0 0 -31.32 -8.15 -4.77 -10.11 9.97 0 29.49 0.14 1.54 -22.04 0 0 -48.72 -17.84 0 0 49.56 -31.21 0.43 0 41.92 107.34 0z"/>
   <path class="fil4" d="M209.92 341.18l13.33 0 0.21 -27.08 0.02 -3.77 -3.36 -0.03 0.01 3.83 -1.64 -0.03 -0.01 -3.79 -3.34 0 0 3.81 -1.69 -0.01 -0.01 -3.78 -3.34 -0.04 0.01 3.83 -0.19 27.06z"/>
   <path class="fil5" d="M223.15 341.18l10.13 0 0.21 -27.08 0.02 -3.77 -3.35 -0.03 0.01 3.83 -1.65 -0.03 -0.01 -3.79 -3.34 0 0 3.81 -1.71 0 -0.31 27.06z"/>
   <path class="fil6" d="M233.12 341.18l10.13 0 0.21 -27.08 0.02 -3.77 -3.36 -0.03 0.02 3.83 -1.65 -0.03 -0.01 -3.79 -3.34 0 0 3.81 -1.71 0 -0.31 27.06z"/>
   <path class="fil7" d="M179.57 341.18l13.32 0 0.22 -27.08 0.02 -3.77 -3.36 -0.03 0.01 3.83 -1.64 -0.03 -0.01 -3.79 -3.34 0 -0.01 3.81 -1.68 -0.01 -0.01 -3.78 -3.35 -0.04 0.02 3.83 -0.19 27.06z"/>
   <path class="fil8" d="M192.8 341.18l10.13 0 0.21 -27.08 0.02 -3.77 -3.36 -0.03 0.02 3.83 -1.65 -0.03 -0.01 -3.79 -3.34 0 0 3.81 -1.71 0 -0.31 27.06z"/>
   <path class="fil9" d="M202.76 341.18l10.13 0 0.22 -27.08 0.02 -3.77 -3.36 -0.03 0.01 3.83 -1.64 -0.03 -0.01 -3.79 -3.34 0 -0.01 3.81 -1.7 0 -0.32 27.06z"/>
   <path class="fil10" d="M270.47 341.18l13.32 0 0.22 -27.08 0.02 -3.77 -3.36 -0.03 0.01 3.83 -1.64 -0.03 -0.02 -3.79 -3.33 0 -0.01 3.81 -1.68 -0.01 -0.01 -3.78 -3.35 -0.04 0.02 3.83 -0.19 27.06z"/>
   <path class="fil11" d="M283.69 341.18l10.13 0 0.22 -27.08 0.02 -3.77 -3.36 -0.03 0.01 3.83 -1.64 -0.03 -0.01 -3.79 -3.34 0 -0.01 3.81 -1.7 0 -0.32 27.06z"/>
   <path class="fil12" d="M293.66 341.18l10.13 0 0.22 -27.08 0.02 -3.77 -3.36 -0.03 0.01 3.83 -1.64 -0.03 -0.02 -3.79 -3.33 0 -0.01 3.81 -1.7 0 -0.32 27.06z"/>
   <path class="fil13" d="M240.12 341.18l13.32 0 0.21 -27.08 0.03 -3.77 -3.36 -0.03 0.01 3.83 -1.64 -0.03 -0.02 -3.79 -3.33 0 -0.01 3.81 -1.68 -0.01 -0.01 -3.78 -3.35 -0.04 0.01 3.83 -0.18 27.06z"/>
   <path class="fil14" d="M253.34 341.18l10.13 0 0.22 -27.08 0.02 -3.77 -3.36 -0.03 0.01 3.83 -1.64 -0.03 -0.02 -3.79 -3.33 0 -0.01 3.81 -1.7 0 -0.32 27.06z"/>
   <path class="fil15" d="M263.31 341.18l10.13 0 0.22 -27.08 0.02 -3.77 -3.36 -0.03 0.01 3.83 -1.64 -0.03 -0.02 -3.79 -3.33 0 -0.01 3.81 -1.71 0 -0.31 27.06z"/>
   <path class="fil16" d="M395.71 341.18l13.33 0 0.21 -27.08 0.02 -3.77 -3.36 -0.03 0.01 3.83 -1.64 -0.03 -0.01 -3.79 -3.34 0 0 3.81 -1.69 -0.01 -0.01 -3.78 -3.34 -0.04 0.01 3.83 -0.19 27.06z"/>
   <path class="fil17" d="M408.94 341.18l10.13 0 0.21 -27.08 0.02 -3.77 -3.36 -0.03 0.02 3.83 -1.65 -0.03 -0.01 -3.79 -3.34 0 0 3.81 -1.71 0 -0.31 27.06z"/>
   <path class="fil18" d="M418.91 341.18l10.13 0 0.21 -27.08 0.02 -3.77 -3.36 -0.03 0.01 3.83 -1.64 -0.03 -0.01 -3.79 -3.34 0 0 3.81 -1.71 0 -0.31 27.06z"/>
   <path class="fil19" d="M365.36 341.18l13.32 0 0.22 -27.08 0.02 -3.77 -3.36 -0.03 0.01 3.83 -1.64 -0.03 -0.01 -3.79 -3.34 0 -0.01 3.81 -1.68 -0.01 -0.01 -3.78 -3.34 -0.04 0.01 3.83 -0.19 27.06z"/>
   <path class="fil20" d="M378.59 341.18l10.13 0 0.21 -27.08 0.02 -3.77 -3.36 -0.03 0.02 3.83 -1.65 -0.03 -0.01 -3.79 -3.34 0 0 3.81 -1.71 0 -0.31 27.06z"/>
   <path class="fil21" d="M388.55 341.18l10.13 0 0.22 -27.08 0.02 -3.77 -3.36 -0.03 0.01 3.83 -1.64 -0.03 -0.01 -3.79 -3.34 0 -0.01 3.81 -1.7 0 -0.32 27.06z"/>
   <path class="fil22" d="M456.17 341.18l13.32 0 0.21 -27.08 0.02 -3.77 -3.36 -0.03 0.02 3.83 -1.65 -0.03 -0.01 -3.79 -3.34 0 0 3.81 -1.68 -0.01 -0.01 -3.78 -3.35 -0.04 0.01 3.83 -0.18 27.06z"/>
   <path class="fil23" d="M469.39 341.18l10.13 0 0.22 -27.08 0.02 -3.77 -3.36 -0.03 0.01 3.83 -1.64 -0.03 -0.02 -3.79 -3.33 0 -0.01 3.81 -1.71 0 -0.31 27.06z"/>
   <path class="fil24" d="M479.36 341.18l10.13 0 0.21 -27.08 0.02 -3.77 -3.35 -0.03 0.01 3.83 -1.65 -0.03 -0.01 -3.79 -3.34 0 0 3.81 -1.71 0 -0.31 27.06z"/>
   <path class="fil25" d="M425.81 341.18l13.33 0 0.21 -27.08 0.02 -3.77 -3.36 -0.03 0.02 3.83 -1.65 -0.03 -0.01 -3.79 -3.34 0 0 3.81 -1.68 -0.01 -0.02 -3.78 -3.34 -0.04 0.01 3.83 -0.19 27.06z"/>
   <path class="fil26" d="M439.04 341.18l10.13 0 0.21 -27.08 0.02 -3.77 -3.35 -0.03 0.01 3.83 -1.64 -0.03 -0.02 -3.79 -3.33 0 -0.01 3.81 -1.71 0 -0.31 27.06z"/>
   <path class="fil27" d="M449.01 341.18l10.13 0 0.21 -27.08 0.02 -3.77 -3.36 -0.03 0.02 3.83 -1.65 -0.03 -0.01 -3.79 -3.34 0 0 3.81 -1.71 0 -0.31 27.06z"/>
   <path class="fil28" d="M545.74 272.87c0,-8.79 -0.43,-17.49 -1.25,-26.07 -1.4,0.04 -2.89,0.23 -3.29,0.98 -0.52,0.99 0.36,0.14 -0.6,1.19l-0.31 -2.15c-2.42,-0.05 -2.07,0.19 -2.57,0.91l-0.67 1.2c0.1,-4.86 1.12,-6.96 -2.09,-7.06 -1,1.16 -0.37,0.89 -0.93,2.27 -0.78,-1.22 0.16,-2.29 -1.85,-2.25 -1.89,0.03 -1.11,0.68 -1.18,0.78 -0.09,0.13 -0.28,0.6 -0.34,0.72 -0.06,0.11 -0.13,0.28 -0.18,0.36 -0.04,0.09 -0.1,0.26 -0.18,0.37 -0.84,-2.45 0.79,-1.93 -1.41,-2.27 -2.35,-0.37 -1.3,0.7 -1.32,0.72l-0.53 1.61c-0.07,-0.12 -0.13,-0.45 -0.16,-0.38 -0.38,0.87 -0.27,-0.63 -0.33,-0.75 -0.58,-1.03 0.06,-0.53 -0.91,-1.18 -3.6,0.31 -0.43,0.45 -2.33,2.31 -0.63,-1.66 0.42,-0.96 -0.93,-2.31l-1.4 0.02 -0.93 2.29c-0.89,-1.62 -0.44,-2.41 -2.79,-2.21 -0.72,1.78 -0.28,4.79 -0.51,7.04l-0.89 -2.15 -1.86 -0.07 -0.94 2.1c-1.23,-2.23 1.03,-2.07 -2.94,-2.1 -0.32,4.83 0.95,38.09 -0.78,39.67l-0.62 -1.45c-0.23,-0.91 0.15,-0.33 -0.32,-1.52l-5.03 2.44c0.14,2.27 0.64,2.79 -1.02,3.91 -0.07,-0.12 -0.15,-0.42 -0.17,-0.36l-0.41 -3 -5.19 2.52c-0.03,2.13 0.55,3.03 -0.76,3.94 -1.58,-2.61 0.21,-10.86 -0.62,-15.2l-2.17 0.01c-0.29,0.57 -0.34,1.17 -0.35,1.2 -0.66,1.12 0.3,0.47 -1.05,0.97 -2.38,-1.62 1.43,-1.68 -1.89,-2.21 -3.4,-0.54 -0.14,0.82 -2.3,2.21 -1.31,-0.51 -0.43,0.16 -1.05,-0.98 -0.07,-0.13 0.02,-0.46 -0.35,-1.17l-1.87 -0.05c-0.88,1.19 -0.16,0.6 -0.5,1.2 -0.6,1.06 0.26,0.44 -0.89,0.99 -1.16,-0.56 -0.29,0.1 -0.87,-0.99 -0.4,-0.73 0.47,0.07 -0.53,-1.21l-1.87 0.05c-0.64,1.43 0.05,1.62 -1.39,2.16 -2.37,-1.67 1.54,-1.69 -1.88,-2.2 -2.98,-0.45 -0.35,0.99 -2.32,2.2 -1.48,-0.58 -0.52,-0.64 -1.4,-2.16l-1.86 -0.03c-0.97,1.43 0.01,1.55 -1.4,2.2 -2.02,-1.13 0.17,-0.36 -1.39,-2.2l-2.04 0.06 -0.09 26.19 -2.95 0.03 -0.33 4.42 -2.01 0 -0.18 -4.27 -5.29 -0.11c0.19,5.4 0.53,3.75 -1.09,4.44 -1.3,-0.57 -0.89,0.03 -1.17,-1.53 -0.02,-0.1 0.04,-2.1 0.05,-2.39 -1.63,-1.46 -0.73,0.35 -1.69,-1.4l-0.01 -25.25c-0.66,-0.01 -1.56,-0.18 -2.12,0.15 -0.96,0.57 -0.02,-0.1 -0.65,0.85l-0.64 1.15c0.01,-1.56 0.58,-2.26 -1.23,-2.29 -2.45,-0.04 -0.98,0.3 -1.3,0.73l-0.56 1.47c-0.95,-2.41 -0.15,-6.84 -0.41,-9.86 -1.2,0.02 -2.03,-0.29 -2.53,0.95 -0.1,0.23 -0.2,0.88 -0.32,1.29l-0.94 -2.15 -1.86 -0.07 -0.76 2c-0.03,0.08 -0.1,0.23 -0.17,0.33l-0.93 -2.31c-2.6,0 -1.54,-0.21 -2.33,2.21 -0.55,-0.6 -0.11,0.14 -0.55,-0.92 -0.22,-0.53 -0.01,-0.44 -0.39,-1.25l-1.86 -0.06c-0.21,0.36 -0.13,0.37 -0.36,0.96l-0.57 1.33 -1.02 -2.29c-0.53,-0.95 -0.22,0.9 -0.62,-1.43 -0.03,-0.16 -0.01,-1.6 -0.01,-1.87 0.02,-2.21 0.04,-4.57 -0.05,-6.77 -2.29,0.52 -4.21,0.13 -6.84,0.55l-0.06 4.05 6.44 0.13 -0.61 5.89c-0.27,0.87 -0.19,0.93 -0.49,1.7 -0.53,-0.59 -0.13,0.09 -0.55,-0.94 -0.22,-0.54 -0.01,-0.44 -0.39,-1.24l-2.31 -0.05 -0.03 7.42c-0.01,0.36 -0.01,1 -0.06,1.34 -0.14,0.79 -0.25,0.77 -0.39,1.02 -0.74,-1.98 0.61,-2.25 -1.82,-2.13 -1.73,0.09 -1.07,1.23 -1.94,2.27 -0.04,-2.62 0.47,-2.52 -2.62,-2.06l-0.03 63.11 119.93 0.04 0 0 0.06 -0.22 0 -0.01c0.53,-2.05 1.03,-4.1 1.51,-6.17l0.12 -0.55c0.44,-1.92 0.86,-3.85 1.26,-5.79l0.01 -0.01c0.07,-0.38 0.15,-0.77 0.23,-1.15l0 -0.02 0.01 -0.02c0.34,-1.68 0.66,-3.37 0.97,-5.06l0 -0.02c0.13,-0.7 0.25,-1.4 0.37,-2.1l0.01 -0.03c0.24,-1.37 0.46,-2.73 0.68,-4.11l0.01 -0.05c0.16,-1.05 0.32,-2.1 0.48,-3.15 1.9,-13.01 2.9,-26.31 2.9,-39.84zm-8.56 68.08c0.52,-2.05 1.03,-4.11 1.51,-6.18m1.38 -6.34l0.24 -1.16m2.53 -14.57l0 0.01"/>
   <path class="fil2" d="M4.66 323.24l0.01 0.08 0.01 0.04c0.18,0.96 0.36,1.92 0.55,2.87l0.01 0.05 0.01 0.04m0.55 2.71c0.34,1.66 0.7,3.31 1.08,4.96m0.21 0.92c0.47,2.03 0.96,4.06 1.48,6.07l0.04 0.16 0 0.01 0 0 125.35 0.03 0.01 -17.97 -3.9 -0.14c-0.07,-4.01 -0.02,-7.34 -0.4,-11.4 -1.12,-12.28 -0.92,-15.97 -0.88,-27.83 0.01,-4.28 1.3,-4.05 0.19,-5.85 -0.71,-1.15 0.07,1.08 -0.65,-0.98 -0.01,-1.9 -0.22,-5.55 0,-7.25 0.37,-2.79 1.02,0.25 0.56,-2.53l-2.19 -8.28c-1.33,-5.01 0.24,-3.83 -1.2,-5.83 -0.43,2.78 -0.11,3.61 -0.89,6.5 -0.52,1.92 -0.97,3.52 -1.48,5.42 -1.54,5.66 -0.09,1.4 0.06,5.51 0.08,2.15 0,4.68 -0.04,6.86l-0.51 0.38c-1.64,1.59 -0.34,1.96 -0.05,3.31l0.09 16.82c0,7.31 -1.36,14.13 -1.27,21.46l-3.5 -1.76c-1.05,-8.24 -1.9,-21.66 -0.43,-29.35 -0.53,-1.81 -0.28,-0.48 -0.55,-1.15 -1.18,-2.85 0.49,-6.95 -0.18,-9.79l-2.11 -9.86c-0.35,0.97 -0.37,3.49 -0.81,5.13 -2.48,9.29 -0.28,9.92 -1.08,13.67 -1.52,7.18 0.27,14.86 -0.41,21.83 -3.23,-1.76 -0.06,-2.85 -6.42,-2.75 -0.54,-2.22 -0.14,-1.91 -1.52,-3.23 -2.83,-2.7 -6.17,-3.29 -10.27,-3.49 -1.1,-2.25 0.61,-0.55 -1.89,-1.52 -0.24,-3.91 -2.3,-4.45 -5.45,-3.22 -1.74,-7.95 -8.99,-14.1 -18.41,-14.38 -0.2,-1.42 -0.47,-1.28 -1.26,-2.1 0.09,-1.37 0.2,-3.35 -0.33,-4.24 -0.45,1.34 -0.28,3.31 0.07,4.3 -1.09,0.8 -1.19,0.45 -1.52,2.05 -7.08,0.22 -12.63,3.42 -15.95,8.65 -1.21,1.91 -1.81,3.33 -2.44,5.71 -3.29,-1.17 -5.02,-0.78 -5.5,3.23 -2.06,0.75 -1.82,1.37 -1.85,1.31 -0.03,-0.07 -0.09,0.18 -0.15,0.26 -3.1,0.03 -5.21,0.42 -7.63,1.65 -2.57,1.31 -3.48,1.76 -3.9,4.96 -7.22,0.44 -2.6,1.02 -6.59,2.81l-0.07 -17.04c0.05,-1.07 0.4,-1.72 0.45,-2.46 0.11,-1.94 -0.24,-0.88 -0.54,-1.7 -1.14,-3.15 0.59,-6.44 -0.28,-10.22 -0.82,-3.6 -1.3,-5.41 -1.65,-9.31 -0.06,0.09 -2.57,11.02 -2.53,11.65 0.07,0.95 0.43,0.58 0.45,3.21 0.02,3.79 0.32,2.96 -0.62,5.23 -0.65,1.57 0.18,1.27 0.25,3.6 0.23,7.75 0.33,19.48 -1.05,26.86l-3.45 1.18c0.32,-6.8 -1.2,-14.1 -1.2,-21.18l0.09 -16.73c0.31,-1.43 0.75,-0.3 0.59,-2.16 -0.17,-1.99 0.22,-0.25 -1.18,-1.62 0.03,-2.3 -0.14,-5.05 -0.01,-7.26 0.19,-3.29 0.8,-0.03 0.67,-2.7l-2.18 -8.27c-0.55,-1.94 -0.56,-4.93 -0.98,-5.88 -0.24,0.35 -0.09,-0.55 -0.4,0.83 -0.36,1.56 0.4,0.77 -0.73,5.25 -0.46,1.82 -0.95,3.55 -1.45,5.43 -0.1,0.37 -0.7,2.46 -0.73,2.82 -0.07,0.74 1.06,2.11 0.63,8.98 -0.42,3.29 -0.64,-0.75 -1.09,2.39 -0.26,1.86 0.4,0.73 0.67,2.83 0.18,1.46 0,4.42 0,6.03 0,11.74 0.02,12.04 -0.87,23.72 -0.19,2.4 -0.27,4.56 -0.33,6.77 0.28,1.63 0.57,3.26 0.87,4.89"/>
   <path class="fil29" d="M138.28 230.66c1.11,2.55 -0.77,15.22 -1.15,18.79 -0.38,3.52 0.48,12.28 -0.3,14.97 -0.24,0.83 -0.75,0.49 -0.67,1.96 0.05,0.97 0.71,1.48 0.72,1.91 0,2.89 -0.06,5.81 -0.08,8.71 -0.01,0.41 0,1.88 -0.06,2.19 -0.34,1.67 -0.26,-0.15 -0.71,1.33 -0.45,1.48 0.71,2.73 0.71,4.42 0,2.31 0.55,8.59 -0.71,10.48 -0.76,1.14 0.61,1.98 0.52,7.3 -0.05,2.58 -0.06,5.17 -0.08,7.75 -0.03,5.04 0.17,10.76 -0.15,15.7 -3.58,-0.01 -6.61,0.84 -7.36,3.16l-0.34 -20.56c-0.01,-1.9 0.57,-1.71 0.91,-3.08 0.57,-2.37 -0.02,-1.9 -0.96,-2.59 -0.06,-2.95 -0.75,-11.82 0.22,-14.3 0.3,-0.75 0.58,-1.11 0.51,-1.97 -0.06,-0.73 -0.32,-0.88 -0.78,-1.33 -0.05,-0.04 -0.16,-0.11 -0.23,-0.19 0.01,-6.73 0.47,-14.73 -0.39,-21.17 -0.43,-3.22 -0.86,-6.45 -1.27,-9.68l-0.45 -7.45c-0.01,-2.12 1.01,-1.09 -0.88,-1.53 0.8,2.48 -0.13,9.04 -0.61,12.67 -0.3,2.29 -0.61,4.53 -0.89,6.77 -0.67,5.25 0.34,15.55 -0.28,19.66 -0.44,2.94 -0.34,-0.24 -0.99,2.25 0.11,2.16 0.69,1.65 0.9,3.4 0.46,3.98 -0.17,8.83 -0.19,12.87 -1,0.71 -1.37,0.03 -1.06,2.22 0.2,1.39 1,2.11 0.99,3.83l-0.39 31.91 138.55 0.12 -0.23 -32.03c-0.06,-2.67 0.9,-2.29 1.01,-5.3 -1.53,-1.27 -0.77,0.53 -1.14,-1.49 -0.44,-2.47 -0.05,-5.47 -0.09,-7.97 -0.08,-6 0.82,-5.62 0.88,-7.22 0.05,-1.36 -0.09,-0.95 -0.59,-1.49 -0.04,-0.05 -0.16,-0.14 -0.2,-0.18 -0.81,-0.8 -0.07,-15.93 -0.07,-17.12 -0.01,-4.24 -1.61,-11.35 -2.08,-15.97 -0.17,-1.75 0.36,-5.76 -0.43,-6.75 -0.03,-0.03 -0.13,-0.09 -0.16,-0.12 -0.05,-0.04 -0.23,-0.06 -0.34,-0.13 0.31,6.49 -0.79,13.25 -1.66,19.87 -0.54,4.12 0.3,18.41 -0.27,20.03 -0.83,1.04 -1.01,0.04 -0.98,1.87 0.04,2.17 1.04,-0.64 0.85,9.48 -0.02,1.08 0.06,5.61 -0.23,6.27 -0.38,0.85 -1.17,0.83 -0.96,2.37 0.21,1.44 1,2.01 0.99,3.47l-0.27 20.47c-2.57,-2.73 -2.69,-2.86 -7.45,-3.12 -0.2,-7.89 -0.05,-15.88 -0.19,-23.78 -0.08,-4.67 0.21,-2.63 0.78,-5.44 0.43,-2.15 -0.31,-1.4 -0.64,-2.07 -0.32,-0.66 -0.25,-1.8 -0.25,-2.7 0,-2.02 -0.01,-4.05 -0.05,-6.06 -0.02,-0.96 -0.12,-1.95 0.11,-2.86 0.32,-1.23 0.95,-1.72 0.2,-3.2 -0.96,-1.89 -0.48,-8.33 -0.48,-10.96 0,-1.49 0.79,-1.82 0.73,-3.04 -0.09,-1.93 -0.77,0.12 -0.8,-2.99 -0.02,-2.65 -0.06,-5.32 -0.05,-7.97 0.01,-6.83 -2.36,-19.47 -1.44,-24.51l-0.91 0.14c0.89,2.57 -1.4,19.42 -1.4,23.99 0,2.75 0.58,7.81 -0.48,10.32 -0.63,1.5 0.33,2.92 0.33,4.81l-0.04 7.97c0.01,2.35 0.34,1.81 -0.95,2.19 0.03,2.85 0.86,2.4 0.83,5.34 -0.02,1.93 0.4,7.61 -0.18,9.3 -0.41,1.18 -1.25,-0.13 -0.76,2.32 0.57,2.81 0.79,-0.12 0.77,5.8l-0.09 11.45 -3.99 -1.84c-0.08,-3.42 -0.1,-6.91 -0.13,-10.37 -0.02,-1.76 -0.03,-3.54 -0.07,-5.3 -0.05,-2.9 1.12,-4.24 0.4,-5.72 -0.21,-0.43 -0.11,0.2 -0.37,-0.79 -0.53,-1.97 -0.17,-5.78 -0.17,-7.87 0,-1.98 0.78,-3.43 0.72,-4.16 -0.13,-1.53 -0.36,-0.12 -0.7,-1.62 -0.51,-2.27 -0.09,-5.15 -0.12,-7.46 -0.02,-1.78 0.65,-3.92 0.57,-4.45 -0.29,-1.92 -0.38,0.6 -0.67,-1.96 -0.5,-4.48 0.25,-8.96 -0.23,-13.46 -0.53,-4.86 -1.98,-11.79 -1.09,-16.28l-0.82 0.01c0.97,5.25 -0.79,12.43 -1.3,17.98 -0.19,2.05 0.04,4.62 0.01,6.82l-0.4 6.11c-0.31,0.81 0.46,10.12 0.19,12.42 -0.24,2.17 -0.82,0.11 -0.74,2.15 0.05,1.14 0.71,1.13 0.71,2.77 0,2.28 0.46,7.47 -0.4,9.53 -0.05,0.1 -0.22,0.41 -0.26,0.5 -0.64,1.36 0.38,2.29 0.51,3.58 0.12,1.21 -0.01,2.93 -0.04,4.17 -0.05,2.79 -0.05,5.59 -0.05,8.38 -1.57,0.14 -2.57,-0.66 -3.94,-1.39 -0.07,-0.04 -0.19,-0.12 -0.28,-0.18l-0.03 -3.96c-1.66,-0.93 -1.4,-0.44 -2.5,-2.03 -0.94,-1.35 -1.24,-1.78 -2.31,-2.64 -1.87,-1.5 -3.88,-2.33 -6.76,-2.61 0.03,-3 -0.82,-4.75 -3.18,-5.98 -0.9,-0.46 -1.19,-0.97 -1.7,-1.8 -0.16,1.32 -0.41,1.64 -1.67,1.8 -0.29,-3.89 -0.76,-2.31 -2.35,-5.25 -3,-5.56 -8,-8.17 -14.8,-9.06 -0.84,-3.45 -2.75,-2.29 -2.36,-5.06l-0.09 -6.23c0.1,-0.32 0.1,-0.14 0.37,-0.77 -0.96,0.17 -0.57,0.24 -1.49,-0.12l0.32 3.15c-0.01,0.12 -0.07,0.48 -0.08,0.6l0.04 5.01c-1.36,1.34 -1.92,0.77 -2.33,3.32 -5.85,1.4 -7.15,1.47 -11.24,4.67 -1.17,0.91 -2.63,2.67 -3.57,4.38l-1.58 2.19c-1.28,1.14 -0.69,1.03 -0.87,3.28 -1.27,-0.35 -1.07,-0.29 -1.81,-1.15 -2.71,1.79 -4.72,2.71 -4.75,6.76 -4.94,2.09 -5.48,0.89 -9.09,5.62 -0.59,0.77 -0.45,0.64 -1.13,1.13 -1.82,1.32 -1.36,1.02 -1.3,5.13l-4.21 1.46 -0.16 -12.06c0.04,-1.89 1.23,-2.88 0.48,-4.35 -0.92,-1.81 -0.78,-7.9 -0.67,-10.04 0.13,-2.3 1.15,-1.79 0.23,-4.05 -0.76,-1.86 -0.4,-7 -0.32,-9.18l0.55 -3.68c-0.67,1.75 -0.73,-14.08 -0.87,-15.23l-1.65 -15.42 -1.5 22.24c-0.03,2 0.02,4.09 -0.05,6.07l-0.65 2.46c-0.26,0.95 0.24,1.37 0.42,2.14 0.38,1.55 0.15,4.27 0.12,5.97 -0.02,0.99 0.03,2.1 0,3.06 -0.03,0.71 0.02,0.66 -0.19,1.3l-0.25 0.51c-0.65,1.38 0.32,2.47 0.35,4.57 0.02,1.52 -0.01,3.04 -0.03,4.56 -0.08,6.07 -1.47,3.19 -0.33,7.26 0.54,1.96 0.13,15.48 0.03,18.47 -0.81,0.59 -1.11,0.53 -2.03,0.98 -1.1,0.55 -0.88,0.7 -1.97,0.83l-0.15 -13.94c0.06,-2.44 1.55,-2.77 0.38,-4.87 -0.26,-0.45 -0.24,0.17 -0.43,-1.15 -0.08,-0.55 -0.03,-2.37 -0.04,-3.04 -0.02,-2.02 -0.05,-4.04 -0.04,-6.05l0 -0.76c0,-1.75 1.03,-1.94 0.78,-3.37 -0.33,-1.99 -0.86,0.55 -0.85,-3.04l-0.07 -9.48c0,-0.39 0.53,-0.87 0.66,-1.57 0.35,-2 -0.23,-1.3 -0.5,-2.02 -0.92,-2.38 -0.05,-11.79 -0.39,-14.92 -0.42,-3.85 -2.2,-16.22 -1.24,-19.07l-1.16 -0.05z"/>
   <path class="fil30" d="M304.26 298.91l-1.12 0.36c-0.25,9.7 0.82,4.49 0.79,9.36l0 30.12 -1.91 0.07 -0.05 2.29 65.61 0.07 0.1 -2.39 -1.92 -0.02 0.03 -32.26c0.29,-0.94 0.59,-0.61 0.71,-1.98 0.11,-1.42 0.02,-3.68 -0.03,-5.15l-1.21 -0.39c-1.29,-3.42 -2.59,-6.68 -3.89,-10.04 -0.65,-1.66 -1.34,-3.3 -1.98,-4.97 -0.54,-1.42 -0.16,-4.2 -0.49,-5.06 -0.79,0.39 -0.28,-0.18 -0.36,0.88 -0.51,6.17 0.37,2.07 -2.52,9.51 -0.68,1.77 -1.42,3.53 -2.11,5.34l-1.62 4.04c-0.67,0.88 0.05,0 -0.61,0.44 -0.99,0.65 -0.61,0.26 -0.64,4.1 -0.02,2.42 0.18,1.67 0.69,3.28 0.24,0.76 0.18,6.36 0.04,7.34l-1.35 -0.01 -0.07 -3.43 -2.99 -0.06 -0.02 3.56 -0.88 -0.05 -0.12 -3.53 -3.01 -0.01 0 3.51 -0.93 0.02 -0.08 -3.53 -2.99 0.02 -0.02 3.56 -0.89 0.01 -0.14 -3.51 -2.94 -0.04c-0.04,1.13 0.25,2.71 -0.24,3.55l-0.15 -7.89 5.17 0.02 0.06 -3.5c-1.66,0 -4.35,0.34 -5.43,-0.28 -0.33,2.17 0.47,10.54 -0.26,11.63 -0.47,-0.76 -0.22,-2.54 -0.2,-3.57l-2.99 0.01 -0.02 3.53 -0.95 0 -0.05 -3.52 -3 0 -0.02 3.56 -0.89 0.01 -0.13 -3.55 -3.02 0 -0.01 3.56 -0.8 -0.03 -0.18 -3.57 -3 0.01 -0.04 3.52 -1.32 0.06c-0.2,-1.02 -0.27,-6.64 0.02,-7.5 0.93,-2.79 0.68,-3.04 0.62,-7.03l-1.12 -0.34 -5.97 -15.12c-0.42,-1.07 -0.23,-2.01 -0.24,-2.84l-0.33 -2.19c-0.84,1.14 0.13,3.18 -0.67,5.18l-5.92 14.84z"/>
   <path class="fil31" d="M329.21 341.18l13.11 0 0 -16.31 -13.11 0 0 16.31z"/>
   <path class="fil32" d="M335.77 331.37c3.59,0 6.5,-2.91 6.5,-6.5 0,-3.6 -2.91,-6.51 -6.5,-6.51 -3.6,0 -6.51,2.91 -6.51,6.51 0,3.59 2.91,6.5 6.51,6.5z"/>
   <path class="fil33" d="M334.9 302.32c0.13,0.03 0.41,0.12 0.81,0.18 0.41,0.06 0.94,0.1 1.5,0.1 0.55,0.01 1.13,-0.01 1.62,-0.02 0.48,-0.02 0.87,-0.03 1.08,-0.03 0.21,-0.01 0.24,-0.01 0.25,0.01 0.02,0.02 0.02,0.07 0.01,0.28 0,0.21 -0.01,0.59 -0.01,1.06 -0.01,0.48 -0.02,1.06 -0.03,1.43 0,0.37 -0.01,0.54 -0.03,0.62 -0.02,0.09 -0.06,0.09 -0.57,0.08 -0.5,0 -1.48,0 -2.32,0 -0.84,-0.01 -1.55,-0.01 -1.91,-0.02 -0.35,-0.01 -0.36,-0.03 -0.36,-0.56 -0.01,-0.52 -0.03,-1.54 -0.05,-2.14 -0.02,-0.6 -0.05,-0.79 -0.07,-0.9 -0.02,-0.1 -0.05,-0.13 0.08,-0.09z"/>
   <path class="fil34" d="M7.3 335.78l0.01 0.04c0.3,1.28 0.62,2.56 0.94,3.84l0.01 0.06c0.23,0.92 0.47,1.84 0.71,2.76 0.32,1.2 0.65,2.41 0.98,3.61 -0.33,-1.2 -0.66,-2.4 -0.98,-3.61l0 0m0.98 3.61l0.02 0.06c0.26,0.95 0.53,1.9 0.8,2.84l0.02 0.05 0 0.01c0.34,1.16 0.68,2.32 1.04,3.48m0.91 2.95c0.36,1.13 0.73,2.27 1.11,3.39 -0.38,-1.12 -0.74,-2.25 -1.1,-3.38l-0.01 -0.01zm1.11 3.39l0.01 0.06c0.32,0.96 0.65,1.92 0.98,2.88l0.01 0.05 0.02 0.05c0.39,1.11 0.78,2.22 1.17,3.32l0.02 0.05c0.34,0.95 0.69,1.9 1.04,2.84l0.02 0.06c0.41,1.1 0.83,2.19 1.25,3.29l0.02 0.04c0.37,0.94 0.73,1.88 1.11,2.81 0.44,1.11 0.89,2.22 1.35,3.32l0.02 0.05c8.32,0.02 17.18,0.07 26.9,0.11 19.39,-1.51 107.82,2.43 104.32,-3.15 -3.42,-3.21 -9.76,-12.52 -24.85,-15.44 -21.61,-4.19 -54,-9.25 -73.3,-13.44 -11.31,-2.45 -27.87,-7.23 -47.22,-12.5 0.19,0.84 0.38,1.67 0.58,2.51"/>
   <path class="fil2" d="M437.67 209.23c12.59,18.75 49.38,57.97 107.53,80.62"/>
   <path class="fil2" d="M86.74 201.79c20.51,23.22 91.2,78.61 192.23,72.42 102.12,-6.25 158.85,-65.8 158.85,-65.8"/>
   <path class="fil2" d="M535.74 346.28c0.36,-1.3 0.71,-2.61 1.06,-3.92l0.01 -0.06c0.21,-0.8 0.42,-1.6 0.62,-2.4l0.01 -0.04c0.36,-1.4 0.7,-2.8 1.03,-4.2l0.01 -0.04c0.17,-0.72 0.34,-1.45 0.5,-2.17l0.01 -0.04c0.34,-1.51 0.67,-3.03 0.99,-4.56l0 0c0.13,-0.63 0.26,-1.26 0.39,-1.88l0 -0.03c0.33,-1.65 0.65,-3.3 0.95,-4.95l0.01 -0.03c0.09,-0.5 0.18,-1 0.27,-1.51l0 -0.02c0.31,-1.78 0.61,-3.57 0.89,-5.36l0 0 0 -0.02c0.07,-0.41 0.13,-0.82 0.19,-1.23l0 -0.02 0 0c0.29,-1.9 0.56,-3.8 0.8,-5.71l0 0c-0.24,1.91 -0.51,3.81 -0.8,5.71m-7.67 35.03c-11.3,-0.03 -23.41,0.06 -37.61,0.11 -16.98,-1.33 -94.41,2.12 -91.35,-2.75 3,-2.82 8.55,-10.97 21.76,-13.53 18.93,-3.66 47.28,-8.1 64.19,-11.76 11.85,-2.57 30.27,-8.07 51.6,-13.71l-0.12 0.9m-7.74 38.19c-0.24,0.85 -0.48,1.7 -0.73,2.55"/>
   <path class="fil2" d="M460.91 210.22c11.31,15.42 39.5,44.67 83.2,65.52"/>
   <path class="fil35" d="M464.71 336.84l-1.31 -130.91 -4.74 0 0 3.23 -18.1 0.17 0 -3.22 -5.23 0 0 78.28 0 52.63 6.45 0 0 -35.27 15.97 -0.18 0 35.27 6.96 0zm-7.01 -81.4l-15.92 0.15 0 36.56 15.92 -0.19 0 -36.52zm0 -8l-15.92 0.19 0 -33.16 15.92 -0.15 0 33.12z"/>
   <path class="fil36" d="M81.08 364.68l1.68 -167.44 6.07 0 0 4.12 23.14 -0.3 0 -4.13 6.68 0 0 100.13 0 67.31 -8.25 0 0 -45.11 -20.41 0.3 0 45.12 -8.91 0zm8.96 -104.12l20.36 -0.34 0 46.75 -20.36 0.3 0 -46.71zm0 -10.23l20.36 -0.3 0 -42.4 -20.36 0.34 0 42.36z"/>
   <path class="fil37" d="M2.4 309.13l0.01 0.03 0 0c0.15,1.13 0.31,2.26 0.47,3.39l0.01 0.05 0.01 0.07c0.19,1.29 0.39,2.58 0.59,3.87l0.01 0.06 0.01 0.03 0.01 0.04c0.11,0.7 0.23,1.4 0.34,2.1l0.01 0.04 0.01 0.04 0 0.03 0.01 0.04c97.9,-10.96 190.97,-21.27 283.3,-24.22 48.83,-2.8 168.48,-2.7 257.73,-0.55l0 -0.01 0 -0.01 0.05 -0.69 0 -0.01 0.01 -0.06c0.04,-0.54 0.06,-1.08 0.1,-1.62l0 -0.04 0 -0.03 0.01 -0.03 0 -0.04 0 -0.03 0 -0.03 0 -0.04 0.01 -0.03 0 -0.03 0 -0.04 0 -0.03 0 -0.03 0.01 -0.03 0 -0.04 0 -0.03 0 -0.06 0.01 -0.05 0 -0.06 0 -0.05 0.01 -0.06 0 -0.06 0.01 -0.05 0 -0.06 0 -0.05 0.01 -0.06 0 -0.06 0 -0.05c-81.74,-3.61 -172.16,-7.62 -257.91,-3.06 -128.14,6.13 -197.07,13.51 -284.84,21.61z"/>
   <path class="fil38" d="M457.75 336.84l-0.05 -122.52 0.96 -5.16 0 -3.23 4.74 0 1.31 130.91 -6.96 0z"/>
   <path class="fil2" d="M115 201.23c20.51,23.22 88.47,78.6 189.5,72.42 102.12,-6.25 156.57,-65.18 156.57,-65.18"/>
   <path class="fil39" d="M110.4 364.37l0 -156.74 1.75 -6.52 0 -4.18 6.5 0 0 167.44 -8.25 0z"/>
   <path class="fil2" d="M1.08 281.39c58.75,-34.54 83.8,-79.65 83.8,-79.65"/>
   <path class="fil2" d="M1.91 305.12c13.9,-6.34 26.34,-13.42 37.4,-20.81 10.47,-6.99 19.71,-14.26 27.81,-21.45 34.69,-30.77 48.57,-60.13 48.57,-60.13"/>
   <path class="fil40" d="M182.34 359.05c4.13,-0.9 30.37,-1.89 55.62,-2.18 25.25,-0.28 49.51,0.16 67.85,0.5 18.36,0.34 30.79,0.57 34.64,1.03 3.84,0.46 -0.92,1.13 -13.93,1.69 -13.02,0.56 -34.3,1 -54.39,1.22 -20.11,0.21 -39.03,0.21 -57.49,-0.18 -18.45,-0.4 -36.43,-1.19 -32.3,-2.08z"/>
   <path class="fil41" d="M67.02 419.13c3.41,-0.89 25.1,-1.89 45.96,-2.17 20.87,-0.28 40.91,0.16 56.07,0.5 15.16,0.33 25.44,0.57 28.62,1.03 3.17,0.45 -0.76,1.13 -11.51,1.69 -10.76,0.56 -28.34,0.99 -44.95,1.21 -16.61,0.22 -32.25,0.22 -47.5,-0.17 -15.24,-0.4 -30.1,-1.19 -26.69,-2.09z"/>
   <path class="fil42" d="M344.98 372.53c4.12,-0.89 30.37,-1.89 55.62,-2.17 25.25,-0.28 49.5,0.16 67.85,0.5 18.35,0.33 30.79,0.57 34.63,1.03 3.85,0.45 -0.91,1.13 -13.93,1.69 -13.01,0.55 -34.29,0.99 -54.39,1.21 -20.1,0.22 -39.02,0.22 -57.48,-0.18 -18.45,-0.39 -36.43,-1.18 -32.3,-2.08z"/>
   <path class="fil43" d="M168.53 391.9c4.12,-0.89 30.37,-1.89 55.62,-2.17 25.25,-0.28 49.5,0.15 67.85,0.5 18.35,0.33 30.79,0.56 34.63,1.02 3.84,0.46 -0.91,1.13 -13.93,1.69 -13.01,0.56 -34.29,1 -54.39,1.22 -20.1,0.21 -39.02,0.21 -57.48,-0.18 -18.45,-0.4 -36.43,-1.19 -32.3,-2.08z"/>
   <path class="fil44" d="M166.84 460.5c4.13,-0.9 30.38,-1.9 55.63,-2.18 25.25,-0.28 49.5,0.16 67.85,0.5 18.35,0.34 30.79,0.57 34.63,1.03 3.84,0.45 -0.91,1.13 -13.93,1.69 -13.02,0.56 -34.29,0.99 -54.39,1.21 -20.11,0.22 -39.03,0.22 -57.48,-0.17 -18.45,-0.4 -36.43,-1.19 -32.31,-2.08z"/>
   <path class="fil45" d="M144.58 488.73c2.79,-0.89 20.53,-1.89 37.6,-2.17 17.07,-0.28 33.46,0.16 45.86,0.5 12.41,0.33 20.81,0.57 23.41,1.03 2.6,0.45 -0.62,1.13 -9.42,1.69 -8.79,0.55 -23.17,0.99 -36.76,1.21 -13.59,0.22 -26.38,0.22 -38.85,-0.18 -12.47,-0.39 -24.63,-1.18 -21.84,-2.08z"/>
   <path class="fil46" d="M232.6 513.68c2.23,-0.89 16.44,-1.89 30.11,-2.17 13.67,-0.28 26.8,0.15 36.73,0.5 9.94,0.33 16.67,0.56 18.75,1.02 2.08,0.46 -0.49,1.13 -7.54,1.69 -7.04,0.56 -18.56,1 -29.44,1.22 -10.89,0.21 -21.13,0.21 -31.12,-0.18 -9.99,-0.4 -19.73,-1.19 -17.49,-2.08z"/>
   <path class="fil47" d="M419.29 405.01c2.23,-0.89 16.44,-1.89 30.11,-2.17 13.67,-0.28 26.8,0.16 36.73,0.5 9.94,0.33 16.67,0.57 18.75,1.03 2.09,0.45 -0.49,1.13 -7.54,1.68 -7.04,0.56 -18.56,1 -29.44,1.22 -10.89,0.22 -21.13,0.22 -31.12,-0.18 -9.99,-0.39 -19.73,-1.18 -17.49,-2.08z"/>
   <path class="fil48" d="M245.91 420.13c3.48,-0.89 25.67,-1.89 47.02,-2.17 21.34,-0.28 41.84,0.16 57.35,0.5 15.51,0.33 26.03,0.57 29.28,1.03 3.24,0.45 -0.78,1.13 -11.78,1.69 -11,0.56 -28.99,0.99 -45.98,1.21 -16.99,0.22 -32.99,0.22 -48.59,-0.17 -15.59,-0.4 -30.79,-1.19 -27.3,-2.09z"/>
   <path class="fil49" d="M52.61 394.3c2.23,-0.89 16.44,-1.89 30.11,-2.17 13.67,-0.28 26.8,0.16 36.73,0.5 9.94,0.33 16.67,0.57 18.75,1.03 2.08,0.45 -0.49,1.13 -7.54,1.68 -7.04,0.56 -18.56,1 -29.44,1.22 -10.89,0.22 -21.13,0.22 -31.12,-0.18 -9.99,-0.39 -19.73,-1.18 -17.49,-2.08z"/>
   <g>
    <path class="fil50" d="M409.02 478.03l9.13 0.15 -0.07 14.98 -9.21 -0.01 0.15 -15.12zm15.93 21.43l0.01 -0.01 0.95 -0.64 0.01 -0.01c1.41,-0.96 2.82,-1.93 4.22,-2.92l0 -0.01c0.49,-0.34 0.98,-0.69 1.47,-1.04l0.02 -0.02c1.13,-0.8 2.24,-1.62 3.35,-2.44l0 0c-1.11,0.82 -2.22,1.64 -3.35,2.44m5.91 -4.36l0.04 -0.03 0.03 -0.02c0.66,-0.5 1.31,-1 1.96,-1.51m4.04 -3.18l0.06 -0.05 0.05 -0.04 0.29 -0.23 -3.79 -0.27 -0.01 -10.14 5.2 0.02 -0.03 9.28c0.81,-0.66 1.61,-1.33 2.41,-1.99l0.07 -0.06c0.63,-0.53 1.25,-1.05 1.87,-1.58l0.03 -0.03 0.01 -0.01 0.04 -5.74 5.14 0.37 0 0.85 0.02 -0.02 0.01 0c0.92,-0.83 1.83,-1.66 2.74,-2.5l0.04 -0.03c0.64,-0.6 1.28,-1.19 1.92,-1.79l0 0 0.05 -0.05c0.97,-0.92 1.95,-1.85 2.91,-2.78l0.03 -0.03 0.02 -0.02 0.03 -0.02c0.51,-0.5 1.01,-0.99 1.51,-1.48l0.05 -0.05 0 0c1.04,-1.03 2.07,-2.06 3.09,-3.09l0.05 -0.05 0 -0.01 -0.78 0c-0.57,-10.62 0.47,-8.95 -5.07,-19.91l-59.64 -0.26c-0.11,-8.68 -0.01,-17.5 0.04,-26.19 0.02,-5.08 1.66,-5.91 4.24,-8.65 2.27,-2.42 1.54,-6.29 1.51,-10.95l-5.55 -0.1c-0.53,-10.29 -0.97,-13.75 2.65,-20.27 -0.18,-0.1 -0.43,-0.2 -0.57,-0.27 -0.12,-0.06 -0.39,-0.19 -0.54,-0.26 -5.22,-2.45 0.13,-4.73 -7.99,-11.74 -2.65,-2.29 -4.71,-6.49 -5.34,-11.64l2.04 -0.93c0.77,-0.34 0.49,-0.1 1.49,-0.62l-0.53 -7.19 -7.71 -0.33c-1.51,-10.71 -2.47,-4.42 -3.36,-7.81l-0.04 -16.16 19.41 -0.27 -0.13 -12.8c-6.49,-0.1 -13.29,0.67 -19.6,-0.7 0.03,-11.64 0.84,-3.61 0.18,-8.88 -0.49,-3.84 -0.09,-4.26 -1.2,-6.31 -0.52,1.17 -1.45,7.91 -1.23,9.3 0.54,3.33 -0.02,-0.12 0.4,3.67l-0.73 30.74c-0.16,4.37 -0.44,0.59 -2.27,4.09 -0.54,1.02 -0.99,3.97 -1.13,5.23l-7.23 0.24c-1.56,2.22 -1.19,4.69 -0.73,7.24 1.3,0.68 0.46,0.18 1.53,0.65l1.62 0.76c-1.82,12.64 -8.84,10.48 -11.66,22.42 -1.21,0.71 -0.3,0.13 -1.43,0.65 -0.39,0.18 -0.91,0.67 -1.01,0.48 -0.09,-0.15 -0.36,0.16 -0.52,0.26 3.73,6.76 2.73,9.95 2.51,20.09l-5.59 0.48c-0.04,17.77 4.57,9 5.57,16.75l-0.32 48.66 -5.27 0.09c-1.69,6.04 -2.96,5.1 -2.97,12.85 0,5.43 0.01,10.89 -0.09,16.27l-7.92 0.11 -0.14 6.33 82.63 0.17m10.03 -7.09c0.86,-0.63 1.71,-1.27 2.56,-1.92m-55.78 -15.85l5.18 0.32 -0.03 10.19 -5.25 -0.01 0.1 -10.5zm-9.6 0.1l5.2 0.02 0.06 4.78 -0.02 5.65 -2.81 0.13 -2.44 -0.41 0.01 -10.17zm-9.49 -0.16l5.18 0 -0.01 10.63 -5.34 -0.05 0.17 -10.58zm28.84 -85.86l4.84 0.06 0 9.3 -5.09 -0.05 0.25 -9.31zm-8.72 -0.11l4.76 -0.01 0.03 9.59 -5.18 -0.01 0.39 -9.57zm-8.94 -0.03l4.95 0.19 0.04 9.25 -5.21 -0.04 0.22 -9.4zm-8.92 -0.03l5.17 0.04 -0.1 9.47 -5.08 0.01 0.01 -9.52z"/>
    <path class="fil51" d="M383.13 307.36c1.12,0.09 3.38,0.44 5.82,0.56 2.44,0.12 5.05,0.03 7.04,-0.03 1.99,-0.06 3.36,-0.07 4.19,-0.08 0.83,-0.01 1.12,0 1.27,0.01 0.14,0.01 0.14,0.03 0.14,0.1 0,0.07 0,0.2 0.01,0.65 0,0.45 0.01,1.23 0.03,2.45 0.01,1.22 0.03,2.89 0.04,4.42 0.02,1.53 0.03,2.93 0.04,3.77 0.01,0.84 0.01,1.12 0,1.26 -0.01,0.14 -0.04,0.14 -0.26,0.14 -0.23,0.01 -0.67,0.01 -2.31,0.03 -1.64,0.03 -4.49,0.07 -6.96,0.1 -2.47,0.03 -4.56,0.06 -6.05,0.08 -1.49,0.02 -2.38,0.04 -2.91,0.04 -0.54,0.01 -0.72,0.01 -0.81,-0.12 -0.09,-0.13 -0.08,-0.4 -0.13,-2.62 -0.04,-2.22 -0.14,-6.39 -0.2,-8.55 -0.06,-2.16 -0.07,-2.31 1.05,-2.21z"/>
    <path class="fil52" d="M428.66 260.01c-0.17,0.04 -0.54,0.16 -1.07,0.25 -0.54,0.08 -1.24,0.12 -1.97,0.13 -0.74,0.02 -1.51,-0.01 -2.15,-0.03 -0.64,-0.02 -1.15,-0.03 -1.43,-0.04 -0.27,-0.01 -0.31,-0.01 -0.33,0.02 -0.01,0.03 -0.01,0.08 -0.01,0.36 0.01,0.28 0.01,0.78 0.02,1.41 0.01,0.63 0.03,1.39 0.03,1.88 0.01,0.49 0.01,0.71 0.04,0.82 0.03,0.11 0.08,0.11 0.75,0.11 0.67,0 1.96,-0.01 3.07,-0.01 1.11,0 2.05,-0.01 2.52,-0.02 0.47,-0.02 0.47,-0.05 0.48,-0.74 0.02,-0.68 0.04,-2.03 0.07,-2.83 0.02,-0.79 0.05,-1.04 0.08,-1.18 0.03,-0.14 0.06,-0.17 -0.1,-0.13z"/>
    <path class="fil53" d="M359.5 376.27l42.57 0c-2.34,-2.15 0.62,-4.68 -6.35,-10.7 -2.65,-2.29 -4.71,-6.49 -5.34,-11.64l2.04 -0.93c0.77,-0.34 0.49,-0.1 1.49,-0.62l-0.53 -7.19 -7.71 -0.33 -0.02 -0.11 -9.66 0 -0.02 0.21 -7.23 0.24c-1.56,2.22 -1.19,4.69 -0.73,7.24 1.3,0.68 0.46,0.18 1.53,0.65l1.62 0.76c-1.82,12.64 -8.84,10.48 -11.66,22.42z"/>
    <path class="fil54" d="M353.46 397.83l54.26 0c0.02,3.45 0.39,6.49 -0.2,8.87l-53.47 0c-0.37,-1.89 -0.6,-4.67 -0.59,-8.87z"/>
    <path class="fil55" d="M462.18 469.37c0.81,-0.78 1.61,-1.56 2.41,-2.35 0.89,-0.89 1.79,-1.78 2.67,-2.68 0.55,-0.56 1.1,-1.12 1.64,-1.68l0.03 -6.99 -4.35 -11.67 -62.87 0 0 19.64 -43 0 0 0.09 -5.27 0 -5.59 6.94 56.18 0 9.52 -5.5 10.68 6.17 35.89 0c0.69,-0.65 1.37,-1.31 2.06,-1.97z"/>
    <path class="fil56" d="M425.77 498.9c1.37,-0.92 2.72,-1.87 4.07,-2.82 0.9,-0.63 1.8,-1.28 2.69,-1.92 0.5,-0.36 1,-0.73 1.5,-1.09l0.14 -0.11 -91.71 0 0 6.39 82.65 0 0.66 -0.45z"/>
    <path class="fil57" d="M408.87 493.15l9.21 0.01 0.07 -14.98 -9.13 -0.15 -0.15 15.12z"/>
    <path class="fil58" d="M362.5 485.12l5.34 0.05 0.01 -10.63 -5.17 0 -0.18 10.58z"/>
    <path class="fil59" d="M372.15 484.87l2.44 0.41 2.81 -0.13 0.02 -5.65 -0.06 -4.77 -5.2 -0.03 -0.01 10.17z"/>
    <path class="fil60" d="M381.66 485.1l5.25 0.01 0.03 -10.19 -5.18 -0.32 -0.1 10.5z"/>
    <path class="fil61" d="M444.01 485.39l0.02 -0.02 0.02 -0.02 0.02 -0.01 0.03 -0.02 0.02 -0.02 0.02 -0.02 0.02 -0.01 0.02 -0.02 0.02 -0.02 0.02 -0.01 0.03 -0.02 0.02 -0.02 0.01 -0.01 0.02 -0.02 0.02 -0.01 0.01 -0.01 0.02 -0.02 0.02 -0.01 0.01 -0.01 0.02 -0.02 0.01 -0.01 0.02 -0.01 0.02 -0.02 0.01 -0.01 0.02 -0.01 0.02 -0.01 0.01 -0.02c0.27,-0.21 0.53,-0.42 0.79,-0.63l0.02 -0.02 0.02 -0.01 0.02 -0.02 0.02 -0.02 0.03 -9.28 -5.2 -0.02 0.01 10.14 3.79 0.27z"/>
    <path class="fil62" d="M452.89 477.92l0.05 -0.04c0.66,-0.58 1.31,-1.17 1.97,-1.76l0.03 -0.02 0.01 -0.01 0 -0.85 -5.14 -0.37 -0.04 5.74c1.05,-0.89 2.09,-1.79 3.12,-2.69z"/>
    <path class="fil63" d="M364.92 398.03l5.08 -0.01 0.1 -9.47 -5.17 -0.04 -0.01 9.52z"/>
    <path class="fil64" d="M382.4 398.14l5.18 0 -0.03 -9.58 -4.76 0.01 -0.39 9.57z"/>
    <path class="fil65" d="M373.63 397.94l5.21 0.04 -0.04 -9.25 -4.95 -0.19 -0.22 9.4z"/>
    <path class="fil66" d="M391.26 397.99l5.09 0.05 0 -9.3 -4.84 -0.06 -0.25 9.31z"/>
    <path class="fil67" d="M377.02 422.8l5.37 0 0 8.35 -5.37 0 0 -8.35z"/>
   </g>
   <path class="fil68" d="M1.97 305.64l541.8 0c-0.24,2.04 -0.51,4.06 -0.79,6.08l-0.06 0.37c-0.28,1.95 -0.58,3.89 -0.9,5.82l-0.1 0.57c-0.32,1.9 -0.65,3.79 -1.01,5.68l-0.12 0.6c-0.36,1.9 -0.75,3.79 -1.15,5.67l-0.11 0.49c-0.42,1.93 -0.85,3.85 -1.31,5.76l-0.05 0.21c-4.37,18.16 -10.55,35.61 -18.34,52.15l-0.15 0.31c-0.79,1.69 -1.61,3.35 -2.44,5.02l-0.32 0.65c-0.81,1.61 -1.63,3.2 -2.46,4.78l-0.41 0.77c-0.82,1.56 -1.66,3.11 -2.52,4.65l-0.45 0.81c-0.86,1.54 -1.74,3.07 -2.63,4.59 -0.14,0.24 -0.28,0.48 -0.43,0.72 -0.91,1.54 -1.83,3.08 -2.77,4.6 -0.12,0.19 -0.24,0.39 -0.36,0.58 -0.98,1.58 -1.97,3.14 -2.98,4.7l-0.12 0.19c-6.51,10.01 -13.66,19.57 -21.39,28.62 -0.14,0.16 -0.28,0.33 -0.42,0.49 -1.09,1.27 -2.2,2.53 -3.32,3.78 -0.27,0.31 -0.55,0.62 -0.82,0.93 -1.05,1.17 -2.11,2.32 -3.18,3.46 -0.36,0.39 -0.72,0.78 -1.08,1.17 -1.02,1.08 -2.06,2.16 -3.1,3.23 -0.42,0.43 -0.84,0.86 -1.26,1.29 -1.01,1.03 -2.03,2.05 -3.06,3.06 -0.47,0.46 -0.93,0.91 -1.4,1.36 -1.01,0.99 -2.03,1.96 -3.07,2.93 -0.48,0.46 -0.98,0.92 -1.47,1.37 -1.03,0.96 -2.06,1.9 -3.1,2.84 -0.51,0.46 -1.02,0.9 -1.53,1.36 -1.05,0.92 -2.1,1.84 -3.16,2.75 -0.51,0.44 -1.03,0.88 -1.55,1.31 -1.07,0.91 -2.15,1.82 -3.24,2.71 -0.48,0.4 -0.98,0.79 -1.47,1.19 -1.14,0.92 -2.27,1.83 -3.43,2.73 -0.36,0.29 -0.73,0.56 -1.09,0.84 -4.29,3.32 -8.67,6.51 -13.16,9.58 -0.21,0.14 -0.42,0.29 -0.63,0.43 -1.13,0.77 -2.27,1.52 -3.42,2.27 -0.62,0.41 -1.25,0.83 -1.88,1.24 -1.04,0.67 -2.1,1.33 -3.15,1.98 -0.74,0.47 -1.48,0.93 -2.22,1.39 -1.02,0.62 -2.04,1.23 -3.07,1.84 -0.79,0.47 -1.59,0.95 -2.39,1.42 -1.01,0.58 -2.02,1.15 -3.03,1.72 -0.84,0.47 -1.67,0.94 -2.51,1.41 -0.99,0.54 -1.99,1.08 -2.99,1.61 -0.88,0.47 -1.77,0.94 -2.66,1.4 -0.98,0.52 -1.97,1.02 -2.96,1.52 -0.91,0.46 -1.83,0.91 -2.74,1.36 -0.99,0.49 -1.97,0.96 -2.96,1.43 -0.94,0.45 -1.88,0.89 -2.83,1.32 -0.98,0.46 -1.97,0.91 -2.96,1.36 -0.97,0.43 -1.95,0.85 -2.93,1.28 -0.97,0.42 -1.94,0.84 -2.92,1.25 -1.01,0.43 -2.04,0.84 -3.06,1.25 -0.96,0.39 -1.91,0.78 -2.87,1.16 -1.08,0.42 -2.17,0.83 -3.26,1.24 -0.91,0.34 -1.82,0.69 -2.74,1.03 -1.29,0.47 -2.59,0.92 -3.89,1.37 -0.73,0.25 -1.45,0.51 -2.17,0.76 -2.01,0.68 -4.03,1.34 -6.07,1.97 -0.7,0.22 -1.42,0.42 -2.13,0.64 -1.36,0.41 -2.71,0.82 -4.08,1.21 -0.86,0.25 -1.73,0.47 -2.59,0.71 -1.23,0.34 -2.46,0.68 -3.69,1 -0.92,0.24 -1.84,0.46 -2.76,0.69 -1.19,0.3 -2.38,0.59 -3.58,0.87 -0.95,0.23 -1.9,0.44 -2.86,0.65 -1.18,0.26 -2.36,0.52 -3.54,0.77 -0.96,0.2 -1.93,0.39 -2.89,0.58 -1.2,0.24 -2.39,0.47 -3.59,0.69 -0.96,0.18 -1.94,0.35 -2.91,0.52 -1.2,0.2 -2.4,0.4 -3.6,0.59 -0.98,0.16 -1.96,0.31 -2.94,0.45 -1.21,0.18 -2.43,0.35 -3.65,0.51 -0.98,0.13 -1.96,0.26 -2.94,0.38 -1.23,0.16 -2.47,0.29 -3.7,0.43 -0.98,0.1 -1.95,0.21 -2.93,0.31 -1.27,0.12 -2.55,0.23 -3.83,0.34 -0.95,0.08 -1.89,0.16 -2.83,0.23 -1.35,0.1 -2.71,0.18 -4.06,0.26 -0.89,0.05 -1.77,0.11 -2.65,0.15 -1.53,0.08 -3.07,0.13 -4.6,0.18 -0.72,0.02 -1.43,0.06 -2.15,0.07 -2.27,0.06 -4.53,0.09 -6.81,0.09 -2.28,0 -4.55,-0.03 -6.81,-0.09 -0.72,-0.02 -1.43,-0.05 -2.15,-0.07 -1.53,-0.05 -3.07,-0.1 -4.6,-0.18 -0.88,-0.04 -1.77,-0.1 -2.65,-0.15 -1.35,-0.08 -2.71,-0.16 -4.05,-0.26 -0.95,-0.07 -1.9,-0.15 -2.84,-0.23 -1.28,-0.11 -2.56,-0.22 -3.83,-0.34 -0.98,-0.1 -1.95,-0.21 -2.93,-0.31 -1.23,-0.14 -2.47,-0.28 -3.7,-0.43 -0.98,-0.12 -1.96,-0.25 -2.94,-0.38 -1.22,-0.16 -2.44,-0.33 -3.65,-0.51 -0.98,-0.14 -1.96,-0.29 -2.94,-0.45 -1.2,-0.19 -2.4,-0.39 -3.6,-0.59 -0.97,-0.17 -1.95,-0.34 -2.91,-0.52 -1.2,-0.22 -2.39,-0.45 -3.58,-0.69 -0.97,-0.19 -1.94,-0.38 -2.9,-0.58 -1.18,-0.25 -2.36,-0.51 -3.54,-0.77 -0.95,-0.21 -1.91,-0.42 -2.86,-0.65 -1.2,-0.28 -2.39,-0.57 -3.58,-0.87 -0.92,-0.23 -1.84,-0.45 -2.76,-0.69 -1.23,-0.32 -2.46,-0.66 -3.69,-1 -0.86,-0.24 -1.73,-0.46 -2.59,-0.71 -1.36,-0.39 -2.7,-0.8 -4.05,-1.21 -0.73,-0.21 -1.45,-0.42 -2.17,-0.64 -2.03,-0.64 -4.05,-1.29 -6.06,-1.97 -0.72,-0.25 -1.43,-0.51 -2.15,-0.75 -1.3,-0.46 -2.61,-0.91 -3.9,-1.38 -0.92,-0.34 -1.84,-0.69 -2.75,-1.04 -1.09,-0.4 -2.18,-0.81 -3.26,-1.23 -0.96,-0.38 -1.91,-0.77 -2.86,-1.15 -1.02,-0.42 -2.05,-0.83 -3.07,-1.26 -0.98,-0.41 -1.95,-0.83 -2.92,-1.25 -0.98,-0.43 -1.96,-0.85 -2.93,-1.28 -0.99,-0.45 -1.98,-0.9 -2.96,-1.36 -0.95,-0.43 -1.89,-0.87 -2.83,-1.32 -0.99,-0.46 -1.97,-0.94 -2.96,-1.43 -0.91,-0.45 -1.83,-0.9 -2.74,-1.36 -0.99,-0.5 -1.98,-1.01 -2.97,-1.52 -0.88,-0.46 -1.76,-0.92 -2.64,-1.39 -1,-0.54 -2,-1.08 -3,-1.62 -0.84,-0.47 -1.67,-0.94 -2.51,-1.41 -1.01,-0.57 -2.02,-1.14 -3.03,-1.72 -0.8,-0.47 -1.59,-0.94 -2.39,-1.42 -1.03,-0.61 -2.06,-1.22 -3.08,-1.84 -0.73,-0.45 -1.46,-0.92 -2.19,-1.37 -1.06,-0.67 -2.12,-1.33 -3.17,-2 -0.63,-0.41 -1.26,-0.83 -1.88,-1.24 -1.15,-0.75 -2.29,-1.5 -3.42,-2.27 -0.21,-0.14 -0.42,-0.29 -0.63,-0.43 -4.49,-3.07 -8.87,-6.26 -13.16,-9.58 -0.36,-0.28 -0.73,-0.55 -1.09,-0.84 -1.16,-0.9 -2.29,-1.81 -3.43,-2.73 -0.49,-0.4 -0.99,-0.79 -1.47,-1.19 -1.09,-0.89 -2.16,-1.79 -3.23,-2.69 -0.52,-0.45 -1.05,-0.89 -1.57,-1.33 -1.05,-0.91 -2.09,-1.82 -3.13,-2.74 -0.52,-0.46 -1.04,-0.91 -1.56,-1.38 -1.03,-0.93 -2.06,-1.87 -3.08,-2.82 -0.5,-0.46 -0.99,-0.92 -1.49,-1.38 -1.03,-0.97 -2.05,-1.95 -3.06,-2.93 -0.47,-0.45 -0.93,-0.9 -1.4,-1.36 -1.02,-1.01 -2.05,-2.03 -3.06,-3.05 -0.42,-0.44 -0.85,-0.87 -1.27,-1.31 -1.04,-1.06 -2.07,-2.13 -3.08,-3.21 -0.37,-0.4 -0.74,-0.79 -1.1,-1.19 -1.07,-1.14 -2.12,-2.29 -3.17,-3.45 -0.27,-0.31 -0.55,-0.62 -0.82,-0.93 -1.12,-1.25 -2.23,-2.51 -3.32,-3.78 -0.14,-0.16 -0.28,-0.33 -0.42,-0.49 -7.73,-9.05 -14.88,-18.61 -21.39,-28.62l-0.12 -0.19c-1.01,-1.56 -2,-3.12 -2.98,-4.7 -0.12,-0.19 -0.24,-0.39 -0.36,-0.58 -0.94,-1.52 -1.86,-3.06 -2.77,-4.6l-0.43 -0.72c-0.89,-1.52 -1.77,-3.05 -2.63,-4.59l-0.45 -0.81c-0.86,-1.54 -1.7,-3.09 -2.52,-4.65l-0.41 -0.77c-0.83,-1.58 -1.65,-3.17 -2.46,-4.78 -0.11,-0.21 -0.21,-0.43 -0.32,-0.65 -0.83,-1.66 -1.65,-3.33 -2.44,-5.02l-0.15 -0.31c-7.79,-16.54 -13.97,-33.99 -18.34,-52.15l-0.05 -0.21c-0.46,-1.91 -0.89,-3.84 -1.31,-5.76l-0.11 -0.49c-0.4,-1.88 -0.79,-3.77 -1.15,-5.67l-0.12 -0.6c-0.36,-1.89 -0.69,-3.78 -1.01,-5.68l-0.1 -0.57c-0.32,-1.93 -0.62,-3.87 -0.9,-5.82l-0.05 -0.37c-0.29,-2.02 -0.56,-4.04 -0.8,-6.08z"/>
   <path class="fil69" d="M445.34 341.18c0.52,-0.11 0.97,-0.3 1.29,-0.67 1.04,-1.15 0.96,-2.76 -0.27,-3.83 -1.05,-0.91 -3.32,-0.56 -4.89,-0.56 -3.52,0 -7.05,0 -10.58,0 -0.25,-4.11 0.38,-5.01 0.38,-5.1 -0.2,-1.08 -0.42,-0.55 -0.41,-2.26l0.01 -5.31c-0.01,-1.9 0.06,-0.51 0.54,-1.87 -0.46,-1.33 -0.57,-0.05 -0.55,-2.26l0 -19.46c0,-1.22 -0.29,-20.18 0.18,-21.27 0.44,-1.03 -0.1,-1.14 -0.18,-1.98 -0.04,-0.5 0,-1.33 0,-1.87 0,-1.11 0.35,-2.96 -0.9,-3.26l-5.11 -0.13 0.01 -3.23c-0.17,-2.14 -2.05,-1.04 -3.43,-1.65 -0.61,-2.83 1.19,-3.39 -1.67,-5.01 -0.85,-0.48 -1.89,-0.86 -2.69,-1.45 -0.18,-0.12 -0.19,-0.15 -0.42,-0.31 -3.1,-2.11 -3.51,-0.52 -3.51,-4.41 0,-1.07 0,-2.14 0,-3.21 0.01,-1.53 0.13,-1.79 -0.39,-2.96 -0.75,-0.14 -1.86,-0.27 -2.17,0.67 -0.33,1.02 -0.08,6.67 -0.08,7.96l-3.37 1.88c-0.03,0.02 -0.08,0.05 -0.12,0.07 -5.14,3.16 -4.82,1.22 -4.82,6.92 -0.93,0.01 -2.58,-0.25 -3.21,0.38 -0.86,0.86 0.18,3.59 -0.53,4.22 -0.59,0.42 -4.29,-0.01 -5.32,0.31 -0.32,0.71 -0.37,0.65 -0.39,1.69 -0.03,1.13 0.14,2.46 0.01,3.57l-0.3 0.71c-0.78,1.28 0.33,-0.05 0.3,2.71 -0.01,0.95 0,1.9 0,2.84 0,12.16 -0.14,24.31 0,36.47 0.01,0.36 0.06,0.83 -0.05,1.16 -0.06,0.19 -0.07,0.14 -0.25,0.44 -0.57,0.93 0.29,0.76 0.34,2.41 -1.38,-0.28 -2.72,-1.01 -3.81,-1.81l-2.85 -2.54c-0.04,-0.05 -0.13,-0.18 -0.16,-0.23 -0.02,-0.03 -0.05,-0.08 -0.08,-0.11l-0.87 -1.22c-0.69,-0.98 -1.41,-2.49 -1.78,-3.65 -1.38,-4.37 -0.84,-13.15 -0.84,-18.26l-0.01 -75.92c0,-3.31 0.22,-30.67 -0.02,-33.26 -0.16,-1.76 -2.33,-1.53 -2.66,0.02l-4.34 0c-0.15,-5.32 0.67,-4.68 -4.69,-4.77 -0.19,-1.69 -0.06,-4.04 -0.06,-5.81 0,-1.78 0.5,-4.17 -2.05,-3.51 -1.03,0.61 -0.53,7.85 -0.63,9.32 -0.8,0 -1.6,0 -2.39,0 -3.59,-0.01 -1.92,1.87 -2.38,4.66l-4.23 -0.02c-0.28,-0.34 -0.6,-0.74 -0.76,-1.01 -1.23,0 -1.79,-0.25 -2.01,0.92 -0.27,1.42 -0.04,5.26 -0.04,6.83l0 118.98c0,3.37 0.86,8.45 -1.88,10.77l-0.44 0.33c-0.76,0.51 -2.05,1.18 -3.19,1.06 -0.35,-1.59 -0.09,-7.65 -0.09,-9.71 0,-19.45 -0.15,-38.91 0.01,-58.36 0.01,-2.35 -0.03,-2.43 -2.22,-2.83l-3.73 -0.75c0,-2.74 0.34,-17.07 -0.2,-18.51 -0.95,-1.38 -10.6,-0.05 -12.44,0.19 -0.76,0.11 -3.18,0.21 -3.72,0.83 -0.57,0.67 -0.26,14.38 -0.26,15.03 -1.21,0 -4.16,-0.27 -5.26,0.13 -0.37,0.14 -0.48,0.31 -0.62,0.63 -0.03,0.07 -0.05,0.11 -0.08,0.18 -0.27,0.77 -0.08,84.98 -0.08,84.99l-9.26 0 0 -81.96c-0.84,-0.11 -0.04,-0.24 -1.31,-0.6 -1.45,-0.41 -3.09,-0.37 -4.44,-0.96 -0.01,-2.38 -0.01,-4.75 -0.01,-7.13 0,-1.64 0.4,-5.84 -0.43,-6.8 -1.11,-0.62 -6.8,-0.46 -7.97,0.01 -0.4,0.15 -1.14,0.27 -1.6,0.37 -0.72,0.15 -1.01,0.27 -1.65,0.45 -1.04,0.29 -4.56,0.91 -5.04,1.88l-0.15 0.48c-0.05,0.25 -0.06,0.69 -0.06,0.96 -0.02,4.02 0.13,8.09 0,12.09 -0.88,0 -1.77,0.01 -2.65,0 -0.8,0 -1.61,-0.08 -2.39,0.09 -0.52,0.12 -0.75,0.35 -0.85,1.05 -0.04,0.24 0,1.03 0,1.32 0.01,0.73 0.12,1.63 -0.16,2.27 -1.71,0 -3.34,-0.29 -3.4,1.67l0.02 3.61c0.05,10.95 0.11,70.75 -0.16,71.03 -0.32,0.31 -1.32,0.17 -1.93,0.17 0,-1.7 0,-3.4 0,-5.1 0,-1.63 0.49,-4.79 -0.78,-5.36 -0.88,-0.4 -2.98,-0.11 -3.95,-0.11 -0.17,-26.5 0,-53.01 0,-79.51l0.02 -8.51c-0.06,-1.38 -0.31,-1.22 -1.15,-1.69 0,-0.78 0.08,-1.39 -0.52,-1.95 -0.99,-0.93 -0.49,-1.98 -0.99,-2.39 -0.64,-0.23 -1.65,-0.06 -1.89,-0.38 -0.4,-0.3 -0.19,-1.81 -0.19,-2.46 0.01,-7.04 0.1,-4.93 -2.26,-5.84 -0.13,-2.22 0.3,-10.05 -0.24,-11.46 -1,-0.27 -1.45,-0.14 -2.42,-0.16 -1.55,-0.04 -0.51,-0.22 -1.4,-0.82 -0.81,-0.54 -8.45,-0.22 -9.35,-0.23 -1.04,0 -2.45,-0.26 -3.16,0.42 -0.32,0.3 -0.18,0.26 -0.43,0.57 -1.01,0.08 -3.02,-0.44 -3.33,0.72 -0.01,0.07 -0.02,0.11 -0.04,0.18 -0.26,1.31 -0.03,9.35 -0.03,10.77 -1.22,0.47 -1.07,-0.28 -2.19,0.75 -0.55,1.89 0.12,5.56 -0.24,7.66 -2,0.37 -2.29,-0.26 -2.29,2.16 -0.59,0.53 -0.58,0.09 -0.95,0.81 -0.27,0.53 -0.18,0.89 -0.18,1.65l-1.24 4.15 -0.03 97.39 0.07 1.25c0.05,0.87 0.13,1.72 0.23,2.55l205.78 0z"/>
   <path class="fil70" d="M23.94 298.61l0 -49.56 17.84 0 0 48.72 22.04 0 -0.14 -1.54 0 -29.49 10.11 -9.97 8.15 4.77 0 31.32 7.44 0 0 -76.25 11.09 0 0 -23.59 18.82 0 0 80.46 4.91 0 0 -46.2 19.94 0 0 48.73 15.73 0 0 33.14 5.62 0 0 -124.28 4.49 0 0 -16.85 16.57 0 0 15.31 6.32 0 0 65.29 10.53 0 0 -36.37 11.22 -6.47 0 28.8 5.21 0 0 40.3 19.66 0 0 37.92 0 28.16 -230.92 0 -0.01 0c-0.53,-2.08 -1.04,-4.16 -1.52,-6.26l-0.1 -0.42c-0.46,-1.98 -0.89,-3.97 -1.3,-5.97l-0.18 -0.89c-0.37,-1.83 -0.72,-3.65 -1.05,-5.49 -0.1,-0.53 -0.19,-1.07 -0.29,-1.6 -0.27,-1.57 -0.53,-3.15 -0.78,-4.74 -0.13,-0.83 -0.26,-1.66 -0.38,-2.49 -0.19,-1.3 -0.38,-2.6 -0.55,-3.91 -0.14,-1.1 -0.28,-2.2 -0.42,-3.3 -0.13,-1.08 -0.25,-2.17 -0.37,-3.26 -0.13,-1.23 -0.26,-2.47 -0.38,-3.71l22.7 -0.31z"/>
   <path class="fil71" d="M461.04 298.61l0 -49.56 17.84 0 0 48.72 22.04 0 -0.14 -1.54 0 -29.49 10.11 -9.97 8.15 4.77 0 31.32 7.44 0 0 -76.25 4.4 0c7.91,22.93 12.86,47.25 14.37,72.49l0 0c-0.06,0.86 -0.11,1.72 -0.17,2.57 -0.09,1.45 -0.2,2.89 -0.32,4.33 -0.08,0.92 -0.16,1.83 -0.25,2.75 -0.12,1.27 -0.25,2.53 -0.38,3.79 -0.13,1.17 -0.26,2.33 -0.4,3.49 -0.12,0.99 -0.24,1.98 -0.37,2.97 -0.2,1.44 -0.39,2.87 -0.61,4.3 -0.1,0.7 -0.21,1.41 -0.32,2.11 -0.26,1.69 -0.54,3.38 -0.84,5.06 -0.07,0.45 -0.15,0.89 -0.23,1.33 -0.35,1.9 -0.7,3.78 -1.09,5.66l-0.15 0.78c-0.42,2.02 -0.86,4.03 -1.32,6.04l-0.09 0.4c-0.49,2.1 -1,4.2 -1.53,6.28l-0.01 0 -107.34 0 0 -41.92 31.21 -0.43z"/>
   <path class="fil71" d="M461.04 298.61l0 -49.56 17.84 0 0 48.72 22.04 0 -0.14 -1.54 0 -29.49 10.11 -9.97 8.15 4.77 0 31.32 7.44 0 0 -76.25 4.4 0c7.91,22.93 12.86,47.25 14.37,72.49l0 0c-0.05,0.85 -0.11,1.69 -0.16,2.53l-0.01 0.04 0 0.07c-0.1,1.42 -0.21,2.84 -0.32,4.26l-0.01 0.04 0 0.04c-0.08,0.88 -0.15,1.75 -0.24,2.63l0 0.04 0 0.06c-0.12,1.25 -0.25,2.49 -0.38,3.73l-0.01 0.06c-0.12,1.13 -0.25,2.25 -0.38,3.38l-0.01 0.05 -0.01 0.05c-0.11,0.96 -0.23,1.92 -0.36,2.88l0 0.04c-0.19,1.44 -0.39,2.87 -0.6,4.29l-0.01 0.01 0 0.03c-0.1,0.7 -0.21,1.39 -0.32,2.08l0 0.02c-0.26,1.68 -0.54,3.37 -0.84,5.04l0 0.02 0 0.01 -0.23 1.28 0 0.02 0 0.01c-0.35,1.89 -0.71,3.78 -1.09,5.66l-0.16 0.77c-0.41,2.02 -0.85,4.04 -1.31,6.04l-0.09 0.41c-0.49,2.1 -1,4.19 -1.53,6.27l0 0 -0.01 0 -107.34 0 0 -41.92 31.21 -0.43z"/>
   <path class="fil72" d="M209.92 341.18l13.33 0 0.21 -27.08 0.02 -3.77 -3.36 -0.03 0.01 3.83 -1.64 -0.03 -0.01 -3.79 -3.34 0 0 3.81 -1.69 -0.01 -0.01 -3.78 -3.34 -0.04 0.01 3.83 -0.19 27.06z"/>
   <path class="fil72" d="M223.15 341.18l10.13 0 0.21 -27.08 0.02 -3.77 -3.35 -0.03 0.01 3.83 -1.65 -0.03 -0.01 -3.79 -3.34 0 0 3.81 -1.71 0 -0.31 27.06z"/>
   <path class="fil72" d="M233.12 341.18l10.13 0 0.21 -27.08 0.02 -3.77 -3.36 -0.03 0.02 3.83 -1.65 -0.03 -0.01 -3.79 -3.34 0 0 3.81 -1.71 0 -0.31 27.06z"/>
   <path class="fil72" d="M179.57 341.18l13.32 0 0.22 -27.08 0.02 -3.77 -3.36 -0.03 0.01 3.83 -1.64 -0.03 -0.01 -3.79 -3.34 0 -0.01 3.81 -1.68 -0.01 -0.01 -3.78 -3.35 -0.04 0.02 3.83 -0.19 27.06z"/>
   <path class="fil72" d="M192.8 341.18l10.13 0 0.21 -27.08 0.02 -3.77 -3.36 -0.03 0.02 3.83 -1.65 -0.03 -0.01 -3.79 -3.34 0 0 3.81 -1.71 0 -0.31 27.06z"/>
   <path class="fil72" d="M202.76 341.18l10.13 0 0.22 -27.08 0.02 -3.77 -3.36 -0.03 0.01 3.83 -1.64 -0.03 -0.01 -3.79 -3.34 0 -0.01 3.81 -1.7 0 -0.32 27.06z"/>
   <path class="fil72" d="M270.47 341.18l13.32 0 0.22 -27.08 0.02 -3.77 -3.36 -0.03 0.01 3.83 -1.64 -0.03 -0.02 -3.79 -3.33 0 -0.01 3.81 -1.68 -0.01 -0.01 -3.78 -3.35 -0.04 0.02 3.83 -0.19 27.06z"/>
   <path class="fil72" d="M283.69 341.18l10.13 0 0.22 -27.08 0.02 -3.77 -3.36 -0.03 0.01 3.83 -1.64 -0.03 -0.01 -3.79 -3.34 0 -0.01 3.81 -1.7 0 -0.32 27.06z"/>
   <path class="fil72" d="M293.66 341.18l10.13 0 0.22 -27.08 0.02 -3.77 -3.36 -0.03 0.01 3.83 -1.64 -0.03 -0.02 -3.79 -3.33 0 -0.01 3.81 -1.7 0 -0.32 27.06z"/>
   <path class="fil72" d="M240.12 341.18l13.32 0 0.21 -27.08 0.03 -3.77 -3.36 -0.03 0.01 3.83 -1.64 -0.03 -0.02 -3.79 -3.33 0 -0.01 3.81 -1.68 -0.01 -0.01 -3.78 -3.35 -0.04 0.01 3.83 -0.18 27.06z"/>
   <path class="fil72" d="M253.34 341.18l10.13 0 0.22 -27.08 0.02 -3.77 -3.36 -0.03 0.01 3.83 -1.64 -0.03 -0.02 -3.79 -3.33 0 -0.01 3.81 -1.7 0 -0.32 27.06z"/>
   <path class="fil72" d="M263.31 341.18l10.13 0 0.22 -27.08 0.02 -3.77 -3.36 -0.03 0.01 3.83 -1.64 -0.03 -0.02 -3.79 -3.33 0 -0.01 3.81 -1.71 0 -0.31 27.06z"/>
   <path class="fil72" d="M395.71 341.18l13.33 0 0.21 -27.08 0.02 -3.77 -3.36 -0.03 0.01 3.83 -1.64 -0.03 -0.01 -3.79 -3.34 0 0 3.81 -1.69 -0.01 -0.01 -3.78 -3.34 -0.04 0.01 3.83 -0.19 27.06z"/>
   <path class="fil72" d="M408.94 341.18l10.13 0 0.21 -27.08 0.02 -3.77 -3.36 -0.03 0.02 3.83 -1.65 -0.03 -0.01 -3.79 -3.34 0 0 3.81 -1.71 0 -0.31 27.06z"/>
   <path class="fil72" d="M418.91 341.18l10.13 0 0.21 -27.08 0.02 -3.77 -3.36 -0.03 0.01 3.83 -1.64 -0.03 -0.01 -3.79 -3.34 0 0 3.81 -1.71 0 -0.31 27.06z"/>
   <path class="fil72" d="M365.36 341.18l13.32 0 0.22 -27.08 0.02 -3.77 -3.36 -0.03 0.01 3.83 -1.64 -0.03 -0.01 -3.79 -3.34 0 -0.01 3.81 -1.68 -0.01 -0.01 -3.78 -3.34 -0.04 0.01 3.83 -0.19 27.06z"/>
   <path class="fil72" d="M378.59 341.18l10.13 0 0.21 -27.08 0.02 -3.77 -3.36 -0.03 0.02 3.83 -1.65 -0.03 -0.01 -3.79 -3.34 0 0 3.81 -1.71 0 -0.31 27.06z"/>
   <path class="fil72" d="M388.55 341.18l10.13 0 0.22 -27.08 0.02 -3.77 -3.36 -0.03 0.01 3.83 -1.64 -0.03 -0.01 -3.79 -3.34 0 -0.01 3.81 -1.7 0 -0.32 27.06z"/>
   <path class="fil72" d="M456.17 341.18l13.32 0 0.21 -27.08 0.02 -3.77 -3.36 -0.03 0.02 3.83 -1.65 -0.03 -0.01 -3.79 -3.34 0 0 3.81 -1.68 -0.01 -0.01 -3.78 -3.35 -0.04 0.01 3.83 -0.18 27.06z"/>
   <path class="fil72" d="M469.39 341.18l10.13 0 0.22 -27.08 0.02 -3.77 -3.36 -0.03 0.01 3.83 -1.64 -0.03 -0.02 -3.79 -3.33 0 -0.01 3.81 -1.71 0 -0.31 27.06z"/>
   <path class="fil72" d="M479.36 341.18l10.13 0 0.21 -27.08 0.02 -3.77 -3.35 -0.03 0.01 3.83 -1.65 -0.03 -0.01 -3.79 -3.34 0 0 3.81 -1.71 0 -0.31 27.06z"/>
   <path class="fil72" d="M425.81 341.18l13.33 0 0.21 -27.08 0.02 -3.77 -3.36 -0.03 0.02 3.83 -1.65 -0.03 -0.01 -3.79 -3.34 0 0 3.81 -1.68 -0.01 -0.02 -3.78 -3.34 -0.04 0.01 3.83 -0.19 27.06z"/>
   <path class="fil72" d="M439.04 341.18l10.13 0 0.21 -27.08 0.02 -3.77 -3.35 -0.03 0.01 3.83 -1.64 -0.03 -0.02 -3.79 -3.33 0 -0.01 3.81 -1.71 0 -0.31 27.06z"/>
   <path class="fil72" d="M449.01 341.18l10.13 0 0.21 -27.08 0.02 -3.77 -3.36 -0.03 0.02 3.83 -1.65 -0.03 -0.01 -3.79 -3.34 0 0 3.81 -1.71 0 -0.31 27.06z"/>
   <path class="fil73" d="M545.74 272.87c0,-8.79 -0.43,-17.49 -1.25,-26.07 -1.4,0.04 -2.89,0.23 -3.29,0.98 -0.52,0.99 0.36,0.14 -0.6,1.19l-0.31 -2.15c-2.42,-0.05 -2.07,0.19 -2.57,0.91l-0.67 1.2c0.1,-4.86 1.12,-6.96 -2.09,-7.06 -1,1.16 -0.37,0.89 -0.93,2.27 -0.78,-1.22 0.16,-2.29 -1.85,-2.25 -1.89,0.03 -1.11,0.68 -1.18,0.78 -0.09,0.13 -0.28,0.6 -0.34,0.72 -0.06,0.11 -0.13,0.28 -0.18,0.36 -0.04,0.09 -0.1,0.26 -0.18,0.37 -0.84,-2.45 0.79,-1.93 -1.41,-2.27 -2.35,-0.37 -1.3,0.7 -1.32,0.72l-0.53 1.61c-0.07,-0.12 -0.13,-0.45 -0.16,-0.38 -0.38,0.87 -0.27,-0.63 -0.33,-0.75 -0.58,-1.03 0.06,-0.53 -0.91,-1.18 -3.6,0.31 -0.43,0.45 -2.33,2.31 -0.63,-1.66 0.42,-0.96 -0.93,-2.31l-1.4 0.02 -0.93 2.29c-0.89,-1.62 -0.44,-2.41 -2.79,-2.21 -0.72,1.78 -0.28,4.79 -0.51,7.04l-0.89 -2.15 -1.86 -0.07 -0.94 2.1c-1.23,-2.23 1.03,-2.07 -2.94,-2.1 -0.32,4.83 0.95,38.09 -0.78,39.67l-0.62 -1.45c-0.23,-0.91 0.15,-0.33 -0.32,-1.52l-5.03 2.44c0.14,2.27 0.64,2.79 -1.02,3.91 -0.07,-0.12 -0.15,-0.42 -0.17,-0.36l-0.41 -3 -5.19 2.52c-0.03,2.13 0.55,3.03 -0.76,3.94 -1.58,-2.61 0.21,-10.86 -0.62,-15.2l-2.17 0.01c-0.29,0.57 -0.34,1.17 -0.35,1.2 -0.66,1.12 0.3,0.47 -1.05,0.97 -2.38,-1.62 1.43,-1.68 -1.89,-2.21 -3.4,-0.54 -0.14,0.82 -2.3,2.21 -1.31,-0.51 -0.43,0.16 -1.05,-0.98 -0.07,-0.13 0.02,-0.46 -0.35,-1.17l-1.87 -0.05c-0.88,1.19 -0.16,0.6 -0.5,1.2 -0.6,1.06 0.26,0.44 -0.89,0.99 -1.16,-0.56 -0.29,0.1 -0.87,-0.99 -0.4,-0.73 0.47,0.07 -0.53,-1.21l-1.87 0.05c-0.64,1.43 0.05,1.62 -1.39,2.16 -2.37,-1.67 1.54,-1.69 -1.88,-2.2 -2.98,-0.45 -0.35,0.99 -2.32,2.2 -1.48,-0.58 -0.52,-0.64 -1.4,-2.16l-1.86 -0.03c-0.97,1.43 0.01,1.55 -1.4,2.2 -2.02,-1.13 0.17,-0.36 -1.39,-2.2l-2.04 0.06 -0.09 26.19 -2.95 0.03 -0.33 4.42 -2.01 0 -0.18 -4.27 -5.29 -0.11c0.19,5.4 0.53,3.75 -1.09,4.44 -1.3,-0.57 -0.89,0.03 -1.17,-1.53 -0.02,-0.1 0.04,-2.1 0.05,-2.39 -1.63,-1.46 -0.73,0.35 -1.69,-1.4l-0.01 -25.25c-0.66,-0.01 -1.56,-0.18 -2.12,0.15 -0.96,0.57 -0.02,-0.1 -0.65,0.85l-0.64 1.15c0.01,-1.56 0.58,-2.26 -1.23,-2.29 -2.45,-0.04 -0.98,0.3 -1.3,0.73l-0.56 1.47c-0.95,-2.41 -0.15,-6.84 -0.41,-9.86 -1.2,0.02 -2.03,-0.29 -2.53,0.95 -0.1,0.23 -0.2,0.88 -0.32,1.29l-0.94 -2.15 -1.86 -0.07 -0.76 2c-0.03,0.08 -0.1,0.23 -0.17,0.33l-0.93 -2.31c-2.6,0 -1.54,-0.21 -2.33,2.21 -0.55,-0.6 -0.11,0.14 -0.55,-0.92 -0.22,-0.53 -0.01,-0.44 -0.39,-1.25l-1.86 -0.06c-0.21,0.36 -0.13,0.37 -0.36,0.96l-0.57 1.33 -1.02 -2.29c-0.53,-0.95 -0.22,0.9 -0.62,-1.43 -0.03,-0.16 -0.01,-1.6 -0.01,-1.87 0.02,-2.21 0.04,-4.57 -0.05,-6.77 -2.29,0.52 -4.21,0.13 -6.84,0.55l-0.06 4.05 6.44 0.13 -0.61 5.89c-0.27,0.87 -0.19,0.93 -0.49,1.7 -0.53,-0.59 -0.13,0.09 -0.55,-0.94 -0.22,-0.54 -0.01,-0.44 -0.39,-1.24l-2.31 -0.05 -0.03 7.42c-0.01,0.36 -0.01,1 -0.06,1.34 -0.14,0.79 -0.25,0.77 -0.39,1.02 -0.74,-1.98 0.61,-2.25 -1.82,-2.13 -1.73,0.09 -1.07,1.23 -1.94,2.27 -0.04,-2.62 0.47,-2.52 -2.62,-2.06l-0.03 63.11c78.78,0.03 109.55,10.17 121.61,-6.84 4.54,-19.74 6.94,-40.3 6.94,-61.42z"/>
   <path class="fil72" d="M21.71 288.6c0.11,-1.94 -0.24,-0.88 -0.54,-1.7 -1.14,-3.15 0.59,-6.44 -0.28,-10.22 -0.82,-3.6 -1.3,-5.41 -1.65,-9.31 -0.06,0.09 -2.57,11.02 -2.53,11.65 0.07,0.95 0.43,0.58 0.45,3.21 0.02,3.79 0.32,2.96 -0.62,5.23 -0.65,1.57 0.18,1.27 0.25,3.6 0.23,7.75 0.33,19.48 -1.05,26.86l-3.45 1.18c0.32,-6.8 -1.2,-14.1 -1.2,-21.18l0.09 -16.73c0.31,-1.43 0.75,-0.3 0.59,-2.16 -0.17,-1.99 0.22,-0.25 -1.18,-1.62 0.03,-2.3 -0.14,-5.05 -0.01,-7.26 0.19,-3.29 0.8,-0.03 0.67,-2.7l-2.18 -8.27c-0.55,-1.94 -0.56,-4.93 -0.98,-5.88 -0.24,0.35 -0.09,-0.55 -0.4,0.83 -0.36,1.56 0.4,0.77 -0.73,5.25 -0.46,1.82 -0.95,3.55 -1.45,5.43 -0.1,0.37 -0.7,2.46 -0.73,2.82 -0.07,0.74 1.06,2.11 0.63,8.98 -0.42,3.29 -0.64,-0.75 -1.09,2.39 -0.26,1.86 0.4,0.73 0.67,2.83 0.18,1.46 0,4.42 0,6.03 0,11.74 0.02,12.04 -0.87,23.72 -0.19,2.4 -0.27,4.56 -0.33,6.77 0.28,1.66 0.58,3.31 0.88,4.97 0.19,0.99 0.37,1.97 0.57,2.96 0.18,0.92 0.37,1.83 0.56,2.75 0.34,1.65 0.7,3.3 1.07,4.95l0.22 0.92c0.47,2.03 0.96,4.06 1.48,6.07l0.04 0.18 0 0 125.35 0.03 0.01 -17.97 -3.9 -0.14c-0.07,-4.01 -0.02,-7.34 -0.4,-11.4 -1.12,-12.28 -0.92,-15.97 -0.88,-27.83 0.01,-4.28 1.3,-4.05 0.19,-5.85 -0.71,-1.15 0.07,1.08 -0.65,-0.98 -0.01,-1.9 -0.22,-5.55 0,-7.25 0.37,-2.79 1.02,0.25 0.56,-2.53l-2.19 -8.28c-1.33,-5.01 0.24,-3.83 -1.2,-5.83 -0.43,2.78 -0.11,3.61 -0.89,6.5 -0.52,1.92 -0.97,3.52 -1.48,5.42 -1.54,5.66 -0.09,1.4 0.06,5.51 0.08,2.15 0,4.68 -0.04,6.86l-0.51 0.38c-1.64,1.59 -0.34,1.96 -0.05,3.31l0.09 16.82c0,7.31 -1.36,14.13 -1.27,21.46l-3.5 -1.76c-1.05,-8.24 -1.9,-21.66 -0.43,-29.35 -0.53,-1.81 -0.28,-0.48 -0.55,-1.15 -1.18,-2.85 0.49,-6.95 -0.18,-9.79l-2.11 -9.86c-0.35,0.97 -0.37,3.49 -0.81,5.13 -2.48,9.29 -0.28,9.92 -1.08,13.67 -1.52,7.18 0.27,14.86 -0.41,21.83 -3.23,-1.76 -0.06,-2.85 -6.42,-2.75 -0.54,-2.22 -0.14,-1.91 -1.52,-3.23 -2.83,-2.7 -6.17,-3.29 -10.27,-3.49 -1.1,-2.25 0.61,-0.55 -1.89,-1.52 -0.24,-3.91 -2.3,-4.45 -5.45,-3.22 -1.74,-7.95 -8.99,-14.1 -18.41,-14.38 -0.2,-1.42 -0.47,-1.28 -1.26,-2.1 0.09,-1.37 0.2,-3.35 -0.33,-4.24 -0.45,1.34 -0.28,3.31 0.07,4.3 -1.09,0.8 -1.19,0.45 -1.52,2.05 -7.08,0.22 -12.63,3.42 -15.95,8.65 -1.21,1.91 -1.81,3.33 -2.44,5.71 -3.29,-1.17 -5.02,-0.78 -5.5,3.23 -2.06,0.75 -1.82,1.37 -1.85,1.31 -0.03,-0.07 -0.09,0.18 -0.15,0.26 -3.1,0.03 -5.21,0.42 -7.63,1.65 -2.57,1.31 -3.48,1.76 -3.9,4.96 -7.22,0.44 -2.6,1.02 -6.59,2.81l-0.07 -17.04c0.05,-1.07 0.4,-1.72 0.45,-2.46z"/>
   <path class="fil74" d="M138.28 230.66c1.11,2.55 -0.77,15.22 -1.15,18.79 -0.38,3.52 0.48,12.28 -0.3,14.97 -0.24,0.83 -0.75,0.49 -0.67,1.96 0.05,0.97 0.71,1.48 0.72,1.91 0,2.89 -0.06,5.81 -0.08,8.71 -0.01,0.41 0,1.88 -0.06,2.19 -0.34,1.67 -0.26,-0.15 -0.71,1.33 -0.45,1.48 0.71,2.73 0.71,4.42 0,2.31 0.55,8.59 -0.71,10.48 -0.76,1.14 0.61,1.98 0.52,7.3 -0.05,2.58 -0.06,5.17 -0.08,7.75 -0.03,5.04 0.17,10.76 -0.15,15.7 -3.58,-0.01 -6.61,0.84 -7.36,3.16l-0.34 -20.56c-0.01,-1.9 0.57,-1.71 0.91,-3.08 0.57,-2.37 -0.02,-1.9 -0.96,-2.59 -0.06,-2.95 -0.75,-11.82 0.22,-14.3 0.3,-0.75 0.58,-1.11 0.51,-1.97 -0.06,-0.73 -0.32,-0.88 -0.78,-1.33 -0.05,-0.04 -0.16,-0.11 -0.23,-0.19 0.01,-6.73 0.47,-14.73 -0.39,-21.17 -0.43,-3.22 -0.86,-6.45 -1.27,-9.68l-0.45 -7.45c-0.01,-2.12 1.01,-1.09 -0.88,-1.53 0.8,2.48 -0.13,9.04 -0.61,12.67 -0.3,2.29 -0.61,4.53 -0.89,6.77 -0.67,5.25 0.34,15.55 -0.28,19.66 -0.44,2.94 -0.34,-0.24 -0.99,2.25 0.11,2.16 0.69,1.65 0.9,3.4 0.46,3.98 -0.17,8.83 -0.19,12.87 -1,0.71 -1.37,0.03 -1.06,2.22 0.2,1.39 1,2.11 0.99,3.83l-0.39 31.91 138.55 0.12 -0.23 -32.03c-0.06,-2.67 0.9,-2.29 1.01,-5.3 -1.53,-1.27 -0.77,0.53 -1.14,-1.49 -0.44,-2.47 -0.05,-5.47 -0.09,-7.97 -0.08,-6 0.82,-5.62 0.88,-7.22 0.05,-1.36 -0.09,-0.95 -0.59,-1.49 -0.04,-0.05 -0.16,-0.14 -0.2,-0.18 -0.81,-0.8 -0.07,-15.93 -0.07,-17.12 -0.01,-4.24 -1.61,-11.35 -2.08,-15.97 -0.17,-1.75 0.36,-5.76 -0.43,-6.75 -0.03,-0.03 -0.13,-0.09 -0.16,-0.12 -0.05,-0.04 -0.23,-0.06 -0.34,-0.13 0.31,6.49 -0.79,13.25 -1.66,19.87 -0.54,4.12 0.3,18.41 -0.27,20.03 -0.83,1.04 -1.01,0.04 -0.98,1.87 0.04,2.17 1.04,-0.64 0.85,9.48 -0.02,1.08 0.06,5.61 -0.23,6.27 -0.38,0.85 -1.17,0.83 -0.96,2.37 0.21,1.44 1,2.01 0.99,3.47l-0.27 20.47c-2.57,-2.73 -2.69,-2.86 -7.45,-3.12 -0.2,-7.89 -0.05,-15.88 -0.19,-23.78 -0.08,-4.67 0.21,-2.63 0.78,-5.44 0.43,-2.15 -0.31,-1.4 -0.64,-2.07 -0.32,-0.66 -0.25,-1.8 -0.25,-2.7 0,-2.02 -0.01,-4.05 -0.05,-6.06 -0.02,-0.96 -0.12,-1.95 0.11,-2.86 0.32,-1.23 0.95,-1.72 0.2,-3.2 -0.96,-1.89 -0.48,-8.33 -0.48,-10.96 0,-1.49 0.79,-1.82 0.73,-3.04 -0.09,-1.93 -0.77,0.12 -0.8,-2.99 -0.02,-2.65 -0.06,-5.32 -0.05,-7.97 0.01,-6.83 -2.36,-19.47 -1.44,-24.51l-0.91 0.14c0.89,2.57 -1.4,19.42 -1.4,23.99 0,2.75 0.58,7.81 -0.48,10.32 -0.63,1.5 0.33,2.92 0.33,4.81l-0.04 7.97c0.01,2.35 0.34,1.81 -0.95,2.19 0.03,2.85 0.86,2.4 0.83,5.34 -0.02,1.93 0.4,7.61 -0.18,9.3 -0.41,1.18 -1.25,-0.13 -0.76,2.32 0.57,2.81 0.79,-0.12 0.77,5.8l-0.09 11.45 -3.99 -1.84c-0.08,-3.42 -0.1,-6.91 -0.13,-10.37 -0.02,-1.76 -0.03,-3.54 -0.07,-5.3 -0.05,-2.9 1.12,-4.24 0.4,-5.72 -0.21,-0.43 -0.11,0.2 -0.37,-0.79 -0.53,-1.97 -0.17,-5.78 -0.17,-7.87 0,-1.98 0.78,-3.43 0.72,-4.16 -0.13,-1.53 -0.36,-0.12 -0.7,-1.62 -0.51,-2.27 -0.09,-5.15 -0.12,-7.46 -0.02,-1.78 0.65,-3.92 0.57,-4.45 -0.29,-1.92 -0.38,0.6 -0.67,-1.96 -0.5,-4.48 0.25,-8.96 -0.23,-13.46 -0.53,-4.86 -1.98,-11.79 -1.09,-16.28l-0.82 0.01c0.97,5.25 -0.79,12.43 -1.3,17.98 -0.19,2.05 0.04,4.62 0.01,6.82l-0.4 6.11c-0.31,0.81 0.46,10.12 0.19,12.42 -0.24,2.17 -0.82,0.11 -0.74,2.15 0.05,1.14 0.71,1.13 0.71,2.77 0,2.28 0.46,7.47 -0.4,9.53 -0.05,0.1 -0.22,0.41 -0.26,0.5 -0.64,1.36 0.38,2.29 0.51,3.58 0.12,1.21 -0.01,2.93 -0.04,4.17 -0.05,2.79 -0.05,5.59 -0.05,8.38 -1.57,0.14 -2.57,-0.66 -3.94,-1.39 -0.07,-0.04 -0.19,-0.12 -0.28,-0.18l-0.03 -3.96c-1.66,-0.93 -1.4,-0.44 -2.5,-2.03 -0.94,-1.35 -1.24,-1.78 -2.31,-2.64 -1.87,-1.5 -3.88,-2.33 -6.76,-2.61 0.03,-3 -0.82,-4.75 -3.18,-5.98 -0.9,-0.46 -1.19,-0.97 -1.7,-1.8 -0.16,1.32 -0.41,1.64 -1.67,1.8 -0.29,-3.89 -0.76,-2.31 -2.35,-5.25 -3,-5.56 -8,-8.17 -14.8,-9.06 -0.84,-3.45 -2.75,-2.29 -2.36,-5.06l-0.09 -6.23c0.1,-0.32 0.1,-0.14 0.37,-0.77 -0.96,0.17 -0.57,0.24 -1.49,-0.12l0.32 3.15c-0.01,0.12 -0.07,0.48 -0.08,0.6l0.04 5.01c-1.36,1.34 -1.92,0.77 -2.33,3.32 -5.85,1.4 -7.15,1.47 -11.24,4.67 -1.17,0.91 -2.63,2.67 -3.57,4.38l-1.58 2.19c-1.28,1.14 -0.69,1.03 -0.87,3.28 -1.27,-0.35 -1.07,-0.29 -1.81,-1.15 -2.71,1.79 -4.72,2.71 -4.75,6.76 -4.94,2.09 -5.48,0.89 -9.09,5.62 -0.59,0.77 -0.45,0.64 -1.13,1.13 -1.82,1.32 -1.36,1.02 -1.3,5.13l-4.21 1.46 -0.16 -12.06c0.04,-1.89 1.23,-2.88 0.48,-4.35 -0.92,-1.81 -0.78,-7.9 -0.67,-10.04 0.13,-2.3 1.15,-1.79 0.23,-4.05 -0.76,-1.86 -0.4,-7 -0.32,-9.18l0.55 -3.68c-0.67,1.75 -0.73,-14.08 -0.87,-15.23l-1.65 -15.42 -1.5 22.24c-0.03,2 0.02,4.09 -0.05,6.07l-0.65 2.46c-0.26,0.95 0.24,1.37 0.42,2.14 0.38,1.55 0.15,4.27 0.12,5.97 -0.02,0.99 0.03,2.1 0,3.06 -0.03,0.71 0.02,0.66 -0.19,1.3l-0.25 0.51c-0.65,1.38 0.32,2.47 0.35,4.57 0.02,1.52 -0.01,3.04 -0.03,4.56 -0.08,6.07 -1.47,3.19 -0.33,7.26 0.54,1.96 0.13,15.48 0.03,18.47 -0.81,0.59 -1.11,0.53 -2.03,0.98 -1.1,0.55 -0.88,0.7 -1.97,0.83l-0.15 -13.94c0.06,-2.44 1.55,-2.77 0.38,-4.87 -0.26,-0.45 -0.24,0.17 -0.43,-1.15 -0.08,-0.55 -0.03,-2.37 -0.04,-3.04 -0.02,-2.02 -0.05,-4.04 -0.04,-6.05l0 -0.76c0,-1.75 1.03,-1.94 0.78,-3.37 -0.33,-1.99 -0.86,0.55 -0.85,-3.04l-0.07 -9.48c0,-0.39 0.53,-0.87 0.66,-1.57 0.35,-2 -0.23,-1.3 -0.5,-2.02 -0.92,-2.38 -0.05,-11.79 -0.39,-14.92 -0.42,-3.85 -2.2,-16.22 -1.24,-19.07l-1.16 -0.05z"/>
   <path class="fil72" d="M304.26 298.91l-1.12 0.36c-0.25,9.7 0.82,4.49 0.79,9.36l0 30.12 -1.91 0.07 -0.05 2.29 65.61 0.07 0.1 -2.39 -1.92 -0.02 0.03 -32.26c0.29,-0.94 0.59,-0.61 0.71,-1.98 0.11,-1.42 0.02,-3.68 -0.03,-5.15l-1.21 -0.39c-1.29,-3.42 -2.59,-6.68 -3.89,-10.04 -0.65,-1.66 -1.34,-3.3 -1.98,-4.97 -0.54,-1.42 -0.16,-4.2 -0.49,-5.06 -0.79,0.39 -0.28,-0.18 -0.36,0.88 -0.51,6.17 0.37,2.07 -2.52,9.51 -0.68,1.77 -1.42,3.53 -2.11,5.34l-1.62 4.04c-0.67,0.88 0.05,0 -0.61,0.44 -0.99,0.65 -0.61,0.26 -0.64,4.1 -0.02,2.42 0.18,1.67 0.69,3.28 0.24,0.76 0.18,6.36 0.04,7.34l-1.35 -0.01 -0.07 -3.43 -2.99 -0.06 -0.02 3.56 -0.88 -0.05 -0.12 -3.53 -3.01 -0.01 0 3.51 -0.93 0.02 -0.08 -3.53 -2.99 0.02 -0.02 3.56 -0.89 0.01 -0.14 -3.51 -2.94 -0.04c-0.04,1.13 0.25,2.71 -0.24,3.55l-0.15 -7.89 5.17 0.02 0.06 -3.5c-1.66,0 -4.35,0.34 -5.43,-0.28 -0.33,2.17 0.47,10.54 -0.26,11.63 -0.47,-0.76 -0.22,-2.54 -0.2,-3.57l-2.99 0.01 -0.02 3.53 -0.95 0 -0.05 -3.52 -3 0 -0.02 3.56 -0.89 0.01 -0.13 -3.55 -3.02 0 -0.01 3.56 -0.8 -0.03 -0.18 -3.57 -3 0.01 -0.04 3.52 -1.32 0.06c-0.2,-1.02 -0.27,-6.64 0.02,-7.5 0.93,-2.79 0.68,-3.04 0.62,-7.03l-1.12 -0.34 -5.97 -15.12c-0.42,-1.07 -0.23,-2.01 -0.24,-2.84l-0.33 -2.19c-0.84,1.14 0.13,3.18 -0.67,5.18l-5.92 14.84z"/>
   <path class="fil75" d="M329.21 341.18l13.11 0 0 -16.31 -13.11 0 0 16.31z"/>
   <path class="fil75" d="M335.77 331.37c3.59,0 6.5,-2.91 6.5,-6.5 0,-3.6 -2.91,-6.51 -6.5,-6.51 -3.6,0 -6.51,2.91 -6.51,6.51 0,3.59 2.91,6.5 6.51,6.5z"/>
   <path class="fil76" d="M334.9 302.32c0.13,0.03 0.41,0.12 0.81,0.18 0.41,0.06 0.94,0.1 1.5,0.1 0.55,0.01 1.13,-0.01 1.62,-0.02 0.48,-0.02 0.87,-0.03 1.08,-0.03 0.21,-0.01 0.24,-0.01 0.25,0.01 0.02,0.02 0.02,0.07 0.01,0.28 0,0.21 -0.01,0.59 -0.01,1.06 -0.01,0.48 -0.02,1.06 -0.03,1.43 0,0.37 -0.01,0.54 -0.03,0.62 -0.02,0.09 -0.06,0.09 -0.57,0.08 -0.5,0 -1.48,0 -2.32,0 -0.84,-0.01 -1.55,-0.01 -1.91,-0.02 -0.35,-0.01 -0.36,-0.03 -0.36,-0.56 -0.01,-0.52 -0.03,-1.54 -0.05,-2.14 -0.02,-0.6 -0.05,-0.79 -0.07,-0.9 -0.02,-0.1 -0.05,-0.13 0.08,-0.09z"/>
   <path class="fil77" d="M20.87 377.69c8.32,0.02 17.18,0.07 26.9,0.11 19.39,-1.51 107.82,2.43 104.32,-3.15 -3.42,-3.21 -9.76,-12.52 -24.85,-15.44 -21.61,-4.19 -54,-9.25 -73.3,-13.44 -11.31,-2.45 -27.87,-7.23 -47.22,-12.5 0.19,0.85 0.39,1.7 0.59,2.55 0.31,1.3 0.63,2.6 0.95,3.9 0.23,0.92 0.47,1.84 0.71,2.76 0.33,1.22 0.66,2.45 1,3.67 0.26,0.96 0.54,1.93 0.82,2.89 0.34,1.17 0.68,2.34 1.04,3.5 0.3,0.99 0.61,1.97 0.92,2.95 0.36,1.15 0.73,2.29 1.11,3.44 0.33,0.98 0.66,1.95 0.99,2.93 0.39,1.13 0.79,2.25 1.19,3.37 0.35,0.97 0.7,1.93 1.06,2.89 0.42,1.12 0.84,2.24 1.27,3.35 0.37,0.96 0.75,1.91 1.13,2.86 0.45,1.13 0.91,2.24 1.37,3.36z"/>
   <path class="fil78" d="M535.01 348.83c-11.3,-0.03 -23.41,0.06 -37.61,0.11 -16.98,-1.33 -94.41,2.12 -91.35,-2.75 3,-2.82 8.55,-10.97 21.76,-13.53 18.93,-3.66 47.28,-8.1 64.19,-11.76 11.85,-2.57 30.27,-8.07 51.6,-13.71l-0.12 0.9c-0.24,1.91 -0.51,3.82 -0.8,5.71 -0.06,0.43 -0.12,0.85 -0.19,1.27 -0.28,1.79 -0.57,3.58 -0.89,5.36 -0.09,0.52 -0.18,1.04 -0.28,1.56 -0.3,1.65 -0.61,3.3 -0.95,4.95 -0.12,0.63 -0.26,1.27 -0.39,1.91 -0.32,1.52 -0.65,3.04 -0.99,4.56 -0.17,0.75 -0.34,1.5 -0.52,2.25 -0.33,1.4 -0.67,2.8 -1.03,4.2 -0.2,0.82 -0.41,1.63 -0.63,2.44 -0.34,1.33 -0.7,2.66 -1.07,3.98 -0.24,0.85 -0.48,1.7 -0.73,2.55z"/>
   <path class="fil79" d="M444.15 215.39c1.56,1.86 4.53,5.36 7.79,8.93 3.27,3.58 6.84,7.22 10.97,11.07 4.13,3.84 8.82,7.89 14.5,12.37 5.68,4.49 12.35,9.41 17.32,12.84 4.98,3.43 8.26,5.37 14.99,9.15 6.73,3.78 16.9,9.4 24.06,12.88 5.3,2.57 8.95,3.98 11.57,4.9 -0.08,1.46 -0.18,2.92 -0.28,4.38l-0.57 -0.24c-3.73,-1.56 -9.59,-3.64 -16.46,-6.86 -6.87,-3.22 -14.75,-7.58 -20.06,-10.61 -5.31,-3.02 -8.07,-4.71 -11.42,-6.88 -3.36,-2.18 -7.32,-4.84 -11.56,-7.89 -4.24,-3.04 -8.75,-6.48 -13.07,-9.99 -4.32,-3.52 -8.44,-7.12 -11.97,-10.43 -3.52,-3.31 -6.45,-6.34 -9.01,-9.09 -2.56,-2.74 -4.75,-5.2 -6.05,-6.69 -1.29,-1.49 -1.69,-2 -2.18,-2.42 -0.48,-0.43 -1.05,-0.77 -1.4,-1.62 -0.36,-0.85 -0.51,-2.21 -0.41,-3.39 0.1,-1.18 0.45,-2.17 0.73,-2.59 0.28,-0.41 0.49,-0.25 0.66,-0.06 0.17,0.18 0.3,0.39 1.85,2.24z"/>
   <path class="fil80" d="M464.71 336.84l-1.31 -130.91 -4.74 0 0 3.23 -18.1 0.17 0 -3.22 -5.23 0 0 78.28 0 52.63 6.45 0 0 -35.27 15.97 -0.18 0 35.27 6.96 0zm-7.01 -81.4l-15.92 0.15 0 36.56 15.92 -0.19 0 -36.52zm0 -8l-15.92 0.19 0 -33.16 15.92 -0.15 0 33.12z"/>
   <path class="fil81 str0" d="M86.74 201.79c20.51,23.22 91.2,78.61 192.23,72.42 102.12,-6.25 158.85,-65.8 158.85,-65.8"/>
   <path class="fil82" d="M81.08 364.68l1.68 -167.44 6.07 0 0 4.12 23.14 -0.3 0 -4.13 6.68 0 0 100.13 0 67.31 -8.25 0 0 -45.11 -20.41 0.3 0 45.12 -8.91 0zm8.96 -104.12l20.36 -0.34 0 46.75 -20.36 0.3 0 -46.71zm0 -10.23l20.36 -0.3 0 -42.4 -20.36 0.34 0 42.36z"/>
   <path class="fil83" d="M3.89 318.92c97.9,-10.96 190.97,-21.27 283.3,-24.22 48.83,-2.8 168.48,-2.7 257.73,-0.55l0 -0.01c0.02,-0.23 0.04,-0.47 0.05,-0.71l0.01 -0.06c0.05,-0.7 0.08,-1.41 0.13,-2.12l0 -0.06 0.01 -0.05 0 -0.06 0 -0.05 0.01 -0.06 0 -0.06 0.01 -0.05 0 -0.06 0 -0.05 0.01 -0.06 0 -0.06 0 -0.05c-81.74,-3.61 -172.16,-7.62 -257.91,-3.06 -128.14,6.13 -197.07,13.51 -284.84,21.61l0.01 0.03c0.15,1.15 0.31,2.3 0.48,3.44 0.19,1.34 0.4,2.67 0.61,4 0.13,0.76 0.25,1.52 0.38,2.28l0.01 0.04z"/>
   <path class="fil84" d="M464.97 210.99c1.56,1.86 4.53,5.36 7.8,8.93 3.26,3.58 6.83,7.22 10.96,11.07 4.13,3.85 8.82,7.89 14.5,12.38 5.68,4.48 12.35,9.4 17.33,12.83 4.97,3.43 8.26,5.38 12.22,7.61 3.97,2.23 8.61,4.75 11.68,6.41 3.07,1.66 4.57,2.47 5.88,3.09l0.39 0.19c0,1.71 -0.03,3.41 -0.06,5.12 -0.89,-0.49 -2.08,-1.2 -3.58,-2.02 -2.4,-1.3 -5.6,-2.87 -8.4,-4.36 -2.8,-1.48 -5.2,-2.87 -7.75,-4.32 -2.55,-1.46 -5.25,-2.99 -8.59,-5.08 -3.33,-2.09 -7.29,-4.75 -11.53,-7.8 -4.24,-3.05 -8.75,-6.49 -13.07,-10 -4.31,-3.52 -8.44,-7.12 -11.97,-10.43 -3.52,-3.31 -6.45,-6.34 -9.01,-9.08 -2.56,-2.75 -4.75,-5.21 -6.05,-6.7 -1.29,-1.48 -1.69,-1.99 -2.18,-2.42 -0.48,-0.43 -1.05,-0.77 -1.4,-1.62 -0.36,-0.85 -0.51,-2.21 -0.41,-3.39 0.1,-1.17 0.45,-2.17 0.73,-2.58 0.28,-0.42 0.49,-0.26 0.66,-0.07 0.17,0.18 0.3,0.39 1.85,2.24z"/>
   <path class="fil85" d="M457.75 336.84l-0.05 -122.52 0.96 -5.16 0 -3.23 4.74 0 1.31 130.91 -6.96 0z"/>
   <path class="fil81 str1" d="M115 201.23c20.51,23.22 88.47,78.6 189.5,72.42 102.12,-6.25 156.57,-65.18 156.57,-65.18"/>
   <path class="fil86" d="M110.4 364.37l0 -156.74 1.75 -6.52 0 -4.18 6.5 0 0 167.44 -8.25 0z"/>
   <path class="fil81 str0" d="M3.8 279.77c58.74,-34.54 83.8,-79.65 83.8,-79.65"/>
   <path class="fil81 str1" d="M4.68 303.84c13.91,-6.34 26.34,-13.42 37.4,-20.81 10.47,-6.99 19.71,-14.26 27.81,-21.45 34.69,-30.77 48.57,-60.13 48.57,-60.13"/>
   <path class="fil87" d="M182.34 359.05c4.13,-0.9 30.37,-1.89 55.62,-2.18 25.25,-0.28 49.51,0.16 67.85,0.5 18.36,0.34 30.79,0.57 34.64,1.03 3.84,0.46 -0.92,1.13 -13.93,1.69 -13.02,0.56 -34.3,1 -54.39,1.22 -20.11,0.21 -39.03,0.21 -57.49,-0.18 -18.45,-0.4 -36.43,-1.19 -32.3,-2.08z"/>
   <path class="fil88" d="M67.02 419.13c3.41,-0.89 25.1,-1.89 45.96,-2.17 20.87,-0.28 40.91,0.16 56.07,0.5 15.16,0.33 25.44,0.57 28.62,1.03 3.17,0.45 -0.76,1.13 -11.51,1.69 -10.76,0.56 -28.34,0.99 -44.95,1.21 -16.61,0.22 -32.25,0.22 -47.5,-0.17 -15.24,-0.4 -30.1,-1.19 -26.69,-2.09z"/>
   <path class="fil89" d="M344.98 372.53c4.12,-0.89 30.37,-1.89 55.62,-2.17 25.25,-0.28 49.5,0.16 67.85,0.5 18.35,0.33 30.79,0.57 34.63,1.03 3.85,0.45 -0.91,1.13 -13.93,1.69 -13.01,0.55 -34.29,0.99 -54.39,1.21 -20.1,0.22 -39.02,0.22 -57.48,-0.18 -18.45,-0.39 -36.43,-1.18 -32.3,-2.08z"/>
   <path class="fil90" d="M168.53 391.9c4.12,-0.89 30.37,-1.89 55.62,-2.17 25.25,-0.28 49.5,0.15 67.85,0.5 18.35,0.33 30.79,0.56 34.63,1.02 3.84,0.46 -0.91,1.13 -13.93,1.69 -13.01,0.56 -34.29,1 -54.39,1.22 -20.1,0.21 -39.02,0.21 -57.48,-0.18 -18.45,-0.4 -36.43,-1.19 -32.3,-2.08z"/>
   <path class="fil91" d="M166.84 460.5c4.13,-0.9 30.38,-1.9 55.63,-2.18 25.25,-0.28 49.5,0.16 67.85,0.5 18.35,0.34 30.79,0.57 34.63,1.03 3.84,0.45 -0.91,1.13 -13.93,1.69 -13.02,0.56 -34.29,0.99 -54.39,1.21 -20.11,0.22 -39.03,0.22 -57.48,-0.17 -18.45,-0.4 -36.43,-1.19 -32.31,-2.08z"/>
   <path class="fil92" d="M144.58 488.73c2.79,-0.89 20.53,-1.89 37.6,-2.17 17.07,-0.28 33.46,0.16 45.86,0.5 12.41,0.33 20.81,0.57 23.41,1.03 2.6,0.45 -0.62,1.13 -9.42,1.69 -8.79,0.55 -23.17,0.99 -36.76,1.21 -13.59,0.22 -26.38,0.22 -38.85,-0.18 -12.47,-0.39 -24.63,-1.18 -21.84,-2.08z"/>
   <path class="fil93" d="M232.6 513.68c2.23,-0.89 16.44,-1.89 30.11,-2.17 13.67,-0.28 26.8,0.15 36.73,0.5 9.94,0.33 16.67,0.56 18.75,1.02 2.08,0.46 -0.49,1.13 -7.54,1.69 -7.04,0.56 -18.56,1 -29.44,1.22 -10.89,0.21 -21.13,0.21 -31.12,-0.18 -9.99,-0.4 -19.73,-1.19 -17.49,-2.08z"/>
   <path class="fil94" d="M419.29 405.01c2.23,-0.89 16.44,-1.89 30.11,-2.17 13.67,-0.28 26.8,0.16 36.73,0.5 9.94,0.33 16.67,0.57 18.75,1.03 2.09,0.45 -0.49,1.13 -7.54,1.68 -7.04,0.56 -18.56,1 -29.44,1.22 -10.89,0.22 -21.13,0.22 -31.12,-0.18 -9.99,-0.39 -19.73,-1.18 -17.49,-2.08z"/>
   <path class="fil95" d="M245.91 420.13c3.48,-0.89 25.67,-1.89 47.02,-2.17 21.34,-0.28 41.84,0.16 57.35,0.5 15.51,0.33 26.03,0.57 29.28,1.03 3.24,0.45 -0.78,1.13 -11.78,1.69 -11,0.56 -28.99,0.99 -45.98,1.21 -16.99,0.22 -32.99,0.22 -48.59,-0.17 -15.59,-0.4 -30.79,-1.19 -27.3,-2.09z"/>
   <path class="fil96" d="M52.61 394.3c2.23,-0.89 16.44,-1.89 30.11,-2.17 13.67,-0.28 26.8,0.16 36.73,0.5 9.94,0.33 16.67,0.57 18.75,1.03 2.08,0.45 -0.49,1.13 -7.54,1.68 -7.04,0.56 -18.56,1 -29.44,1.22 -10.89,0.22 -21.13,0.22 -31.12,-0.18 -9.99,-0.39 -19.73,-1.18 -17.49,-2.08z"/>
   <path class="fil97" d="M409.02 478.03l9.13 0.15 -0.07 14.98 -9.21 -0.01 0.15 -15.12zm15.93 21.43l0.01 -0.01 0.95 -0.64c1.42,-0.97 2.83,-1.95 4.23,-2.94 0.5,-0.35 1,-0.7 1.49,-1.06 1.13,-0.8 2.24,-1.62 3.35,-2.44 0.87,-0.64 1.74,-1.29 2.6,-1.95 0.67,-0.5 1.33,-1.02 1.99,-1.53 1.38,-1.06 2.75,-2.14 4.1,-3.23l0.05 -0.04 0.29 -0.23 -3.79 -0.27 -0.01 -10.14 5.2 0.02 -0.03 9.28c0.81,-0.66 1.61,-1.33 2.41,-1.99l0.07 -0.06c0.64,-0.53 1.27,-1.07 1.9,-1.61l0.01 -0.01 0.04 -5.74 5.14 0.37 0 0.85 0.02 -0.02c0.92,-0.83 1.84,-1.66 2.75,-2.5 0.66,-0.61 1.31,-1.21 1.96,-1.82 0.99,-0.94 1.98,-1.88 2.96,-2.83 0.54,-0.52 1.07,-1.03 1.59,-1.55 1.07,-1.06 2.14,-2.12 3.19,-3.19l0 -0.01 -0.78 0c-0.57,-10.62 0.47,-8.95 -5.07,-19.91l-59.64 -0.26c-0.11,-8.68 -0.01,-17.5 0.04,-26.19 0.02,-5.08 1.66,-5.91 4.24,-8.65 2.27,-2.42 1.54,-6.29 1.51,-10.95l-5.55 -0.1c-0.53,-10.29 -0.97,-13.75 2.65,-20.27 -0.18,-0.1 -0.43,-0.2 -0.57,-0.27 -0.12,-0.06 -0.39,-0.19 -0.54,-0.26 -5.22,-2.45 0.13,-4.73 -7.99,-11.74 -2.65,-2.29 -4.71,-6.49 -5.34,-11.64l2.04 -0.93c0.77,-0.34 0.49,-0.1 1.49,-0.62l-0.53 -7.19 -7.71 -0.33c-1.51,-10.71 -2.47,-4.42 -3.36,-7.81l-0.04 -16.16 19.41 -0.27 -0.13 -12.8c-6.49,-0.1 -13.29,0.67 -19.6,-0.7 0.03,-11.64 0.84,-3.61 0.18,-8.88 -0.49,-3.84 -0.09,-4.26 -1.2,-6.31 -0.52,1.17 -1.45,7.91 -1.23,9.3 0.54,3.33 -0.02,-0.12 0.4,3.67l-0.73 30.74c-0.16,4.37 -0.44,0.59 -2.27,4.09 -0.54,1.02 -0.99,3.97 -1.13,5.23l-7.23 0.24c-1.56,2.22 -1.19,4.69 -0.73,7.24 1.3,0.68 0.46,0.18 1.53,0.65l1.62 0.76c-1.82,12.64 -8.84,10.48 -11.66,22.42 -1.21,0.71 -0.3,0.13 -1.43,0.65 -0.39,0.18 -0.91,0.67 -1.01,0.48 -0.09,-0.15 -0.36,0.16 -0.52,0.26 3.73,6.76 2.73,9.95 2.51,20.09l-5.59 0.48c-0.04,17.77 4.57,9 5.57,16.75l-0.32 48.66 -5.27 0.09c-1.69,6.04 -2.96,5.1 -2.97,12.85 0,5.43 0.01,10.89 -0.09,16.27l-7.92 0.11 -0.14 6.33 82.63 0.17zm-43.19 -24.86l5.18 0.32 -0.03 10.19 -5.25 -0.01 0.1 -10.5zm-9.6 0.1l5.2 0.02 0.06 4.78 -0.02 5.65 -2.81 0.13 -2.44 -0.41 0.01 -10.17zm-9.49 -0.16l5.18 0 -0.01 10.63 -5.34 -0.05 0.17 -10.58zm28.84 -85.86l4.84 0.06 0 9.3 -5.09 -0.05 0.25 -9.31zm-8.72 -0.11l4.76 -0.01 0.03 9.59 -5.18 -0.01 0.39 -9.57zm-8.94 -0.03l4.95 0.19 0.04 9.25 -5.21 -0.04 0.22 -9.4zm-8.92 -0.03l5.17 0.04 -0.1 9.47 -5.08 0.01 0.01 -9.52z"/>
   <path class="fil98" d="M409.02 478.03l9.13 0.15 -0.07 14.98 -9.21 -0.01 0.15 -15.12zm-55.83 -13.44l113.83 0c-0.93,0.93 -1.85,1.86 -2.79,2.78 -0.52,0.52 -1.05,1.03 -1.59,1.55 -0.98,0.95 -1.97,1.89 -2.96,2.83 -0.65,0.61 -1.3,1.21 -1.96,1.82 -0.91,0.84 -1.83,1.67 -2.75,2.5l-0.02 0.02 0 -0.85 -5.14 -0.37 -0.04 5.74 -0.01 0.01c-0.63,0.54 -1.26,1.08 -1.9,1.61l-0.07 0.06c-0.8,0.66 -1.6,1.33 -2.41,1.99l0.03 -9.28 -5.2 -0.02 0.01 10.14 3.79 0.27 -0.29 0.23 -0.05 0.04c-1.35,1.09 -2.72,2.17 -4.1,3.23 -0.66,0.51 -1.32,1.03 -1.99,1.53 -0.86,0.66 -1.73,1.31 -2.6,1.95 -1.11,0.82 -2.22,1.64 -3.35,2.44 -0.49,0.36 -0.99,0.71 -1.49,1.06 -1.4,0.99 -2.81,1.97 -4.23,2.94l-0.95 0.64 -0.01 0.01 -82.63 -0.17 0.14 -6.33 7.92 -0.11c0.1,-5.38 0.09,-10.84 0.09,-16.27 0.01,-7.36 1.16,-6.89 2.72,-11.99zm28.57 10.01l5.18 0.32 -0.03 10.19 -5.25 -0.01 0.1 -10.5zm-9.6 0.1l5.2 0.02 0.06 4.78 -0.02 5.65 -2.81 0.13 -2.44 -0.41 0.01 -10.17zm-9.49 -0.16l5.18 0 -0.01 10.63 -5.34 -0.05 0.17 -10.58z"/>
   <g>
    <g>
     <path class="fil99" d="M364.92 398.03l5.08 -0.01 0.1 -9.47 -5.17 -0.04 -0.01 9.52z"/>
     <path class="fil99" d="M382.4 398.14l5.18 0 -0.03 -9.58 -4.76 0.01 -0.39 9.57z"/>
     <path class="fil99" d="M373.63 397.94l5.21 0.04 -0.04 -9.25 -4.95 -0.19 -0.22 9.4z"/>
     <path class="fil99" d="M391.26 397.99l5.09 0.05 0 -9.3 -4.84 -0.06 -0.25 9.31z"/>
    </g>
    <path class="fil99" d="M408.87 493.15l9.21 0.01 0.07 -14.98 -9.13 -0.15 -0.15 15.12z"/>
    <path class="fil99" d="M362.5 485.12l5.34 0.05 0.01 -10.63 -5.17 0 -0.18 10.58z"/>
    <path class="fil99" d="M372.15 484.87l2.44 0.41 2.81 -0.13 0.02 -5.65 -0.06 -4.77 -5.2 -0.03 -0.01 10.17z"/>
    <path class="fil99" d="M381.66 485.1l5.25 0.01 0.03 -10.19 -5.18 -0.32 -0.1 10.5z"/>
    <path class="fil99" d="M440.22 485.12l3.79 0.27 0.02 -0.02 0.02 -0.02 0.02 -0.01 0.03 -0.02 0.02 -0.02 0.02 -0.02 0.02 -0.01 0.02 -0.02 0.02 -0.02 0.02 -0.01 0.03 -0.02 0.02 -0.02c0.35,-0.28 0.7,-0.56 1.05,-0.85l0.02 -0.01 0.02 -0.02 0.02 -0.02 0.03 -9.28 -5.2 -0.02 0.01 10.14z"/>
    <path class="fil99" d="M454.95 476.09l0 -0.85 -5.14 -0.37 -0.04 5.74c1.06,-0.9 2.12,-1.81 3.17,-2.73 0.67,-0.59 1.34,-1.19 2,-1.78l0.01 -0.01z"/>
    <path class="fil99" d="M377.02 422.8l5.37 0 0 8.35 -5.37 0 0 -8.35z"/>
   </g>
   <path class="fil76" d="M383.13 307.36c1.12,0.09 3.38,0.36 5.82,0.49 2.44,0.12 5.05,0.02 7.04,-0.03 1.99,-0.06 3.36,-0.08 4.19,-0.08 0.83,-0.01 1.12,0.07 1.27,0.08 0.14,0.01 0.14,0.03 0.14,0.1 0,0.07 0,0.2 0.01,0.65 0,0.45 0.01,1.23 0.03,2.45 0.01,1.22 0.03,2.89 0.04,4.42 0.02,1.53 0.03,2.93 0.04,3.77 0.01,0.84 0.01,1.12 0,1.26 -0.01,0.14 -0.04,0.14 -0.26,0.14 -0.23,0.01 -0.67,0.01 -2.31,0.03 -1.64,0.03 -4.49,0.07 -6.96,0.1 -2.47,0.03 -4.56,0.06 -6.05,0.08 -1.49,0.02 -2.38,0.04 -2.91,0.04 -0.54,0.01 -0.72,0.01 -0.81,-0.12 -0.09,-0.13 -0.08,-0.4 -0.13,-2.62 -0.04,-2.22 -0.14,-6.39 -0.2,-8.55 -0.03,-1.31 -0.05,-1.88 0.19,-2.1 0.15,-0.15 0.42,-0.15 0.86,-0.11z"/>
   <path class="fil76" d="M428.66 260.01c-0.17,0.04 -0.54,0.16 -1.07,0.25 -0.54,0.08 -1.24,0.12 -1.97,0.13 -0.74,0.02 -1.51,-0.01 -2.15,-0.03 -0.64,-0.02 -1.15,-0.03 -1.43,-0.04 -0.27,-0.01 -0.31,-0.01 -0.33,0.02 -0.01,0.03 -0.01,0.08 -0.01,0.36 0.01,0.28 0.01,0.78 0.02,1.41 0.01,0.63 0.03,1.39 0.03,1.88 0.01,0.49 0.01,0.71 0.04,0.82 0.03,0.11 0.08,0.11 0.75,0.11 0.67,0 1.96,-0.01 3.07,-0.01 1.11,0 2.05,-0.01 2.52,-0.02 0.47,-0.02 0.47,-0.05 0.48,-0.74 0.02,-0.68 0.04,-2.03 0.07,-2.83 0.02,-0.79 0.05,-1.04 0.08,-1.18 0.03,-0.14 0.06,-0.17 -0.1,-0.13z"/>
   <path class="fil100" d="M359.5 376.27l42.57 0c-2.34,-2.15 0.62,-4.68 -6.35,-10.7 -2.65,-2.29 -4.71,-6.49 -5.34,-11.64l2.04 -0.93c0.77,-0.34 0.49,-0.1 1.49,-0.62l-0.53 -7.19 -7.71 -0.33 -0.02 -0.11 -9.66 0 -0.02 0.21 -7.23 0.24c-1.56,2.22 -1.19,4.69 -0.73,7.24 1.3,0.68 0.46,0.18 1.53,0.65l1.62 0.76c-1.82,12.64 -8.84,10.48 -11.66,22.42z"/>
   <path class="fil101" d="M352.26 397.83l56.9 0c0.03,3.45 0.41,6.49 -0.21,8.87l-56.08 0c-0.38,-1.89 -0.62,-4.67 -0.61,-8.87z"/>
   <path class="fil102" d="M358.71 463.64l43 0 0 -19.64 62.87 0 4.35 11.67 -0.03 6.99c-2.56,2.64 -5.16,5.24 -7.82,7.78l-37.99 0.25 -9.54 -5.52 -9.52 5.5 -54.27 0 -0.01 -2.36 3.69 -4.58 5.27 0 0 -0.09z"/>
   <path class="fil103" d="M334.28 492.96l99.89 0c-2.98,2.19 -5.99,4.32 -9.06,6.39l-90.83 0 0 -6.39z"/>
   <path class="fil84" d="M11.54 298.17c-1.13,0.45 -3.27,1.53 -4.91,2.33 -1.64,0.81 -2.79,1.34 -3.84,1.81 -0.38,0.18 -0.75,0.34 -1.15,0.5 0.17,1.52 0.33,3.04 0.52,4.56l0.15 -0.07c0.49,-0.21 1.34,-0.58 2.48,-1.1 1.13,-0.52 2.54,-1.19 4.36,-2.09 1.82,-0.91 4.05,-2.03 4.74,-3.07 0.7,-1.04 -0.13,-2 -0.61,-2.56 -0.48,-0.57 -0.61,-0.76 -1.74,-0.31z"/>
   <path class="fil79" d="M7.06 275.32c-0.72,0.32 -2.01,1.11 -3.2,1.85 -1.19,0.73 -2.3,1.4 -3.45,2.02l-0.33 0.18c0.04,1.65 0.11,3.28 0.18,4.92 0.32,-0.13 0.69,-0.32 1.1,-0.56 0.58,-0.32 1.24,-0.7 3,-1.78 1.75,-1.07 4.59,-2.83 5.81,-3.92 1.22,-1.09 0.82,-1.52 0.2,-1.86 -0.61,-0.34 -1.45,-0.6 -1.94,-0.81 -0.5,-0.2 -0.65,-0.36 -1.37,-0.04z"/>
   <path class="fil104" d="M357.6 412.9l22.23 3.48 24.12 -3.07c0.76,-1.57 2.02,-2.52 3.63,-4.15 1.34,-1.37 1.68,-3.2 1.72,-5.38l-56.82 0.26c0.83,8.59 3.77,5.46 5.12,8.86z"/>
   <path class="fil104" d="M407.85 403.78l-54.17 0.26c0.1,1.03 0.22,1.89 0.36,2.62l0.01 0.04 53.47 0c0.22,-0.89 0.31,-1.86 0.33,-2.92z"/>
   <path class="fil105" d="M463.26 468.32l-38.4 0.16 -11.01 -5.93 -10.78 5.79 -53.32 -0.03 0.01 2.36 54.27 0.02 9.79 -5.08 9.27 5.08 37.99 -0.25c0.74,-0.7 1.45,-1.42 2.18,-2.12z"/>
   <path class="fil106" d="M404.96 470.21l17.28 0.02 -8.42 -4.62 -8.86 4.6z"/>
   <path class="fil107" d="M392.8 314.18l3.5 -1.14 -2.16 2.98 0 -3.68 2.16 2.98 -3.5 -1.14zm0.24 2.07c-0.71,1.11 -1.94,1.79 -3.26,1.79 -2.14,0 -3.87,-1.73 -3.87,-3.86 0,-2.13 1.73,-3.86 3.87,-3.86 1.32,0 2.55,0.68 3.26,1.79 -0.59,-0.65 -1.42,-1.02 -2.3,-1.02 -1.7,0 -3.09,1.38 -3.09,3.09 0,1.71 1.39,3.09 3.09,3.09 0.88,0 1.71,-0.37 2.3,-1.02l0 0z"/>
   <path class="fil107" d="M425.07 262.57l-1.24 -0.41 0.77 1.06 0 -1.3 -0.77 1.05 1.24 -0.4zm-0.08 0.73c0.25,0.39 0.69,0.64 1.15,0.64 0.76,0 1.37,-0.62 1.37,-1.37 0,-0.76 -0.61,-1.37 -1.37,-1.37 -0.46,0 -0.9,0.24 -1.15,0.63 0.21,-0.23 0.5,-0.36 0.81,-0.36 0.61,0 1.1,0.49 1.1,1.1 0,0.6 -0.49,1.09 -1.1,1.09 -0.31,0 -0.6,-0.13 -0.81,-0.36l0 0z"/>
   <path class="fil107" d="M337.71 304.27l0.97 -0.32 -0.6 0.83 0 -1.03 0.6 0.83 -0.97 -0.31zm0.06 0.57c-0.19,0.32 -0.54,0.51 -0.91,0.51 -0.59,0 -1.08,-0.49 -1.08,-1.08 0,-0.6 0.49,-1.08 1.08,-1.08 0.37,0 0.72,0.19 0.91,0.5 -0.16,-0.18 -0.39,-0.29 -0.64,-0.29 -0.48,0 -0.86,0.39 -0.86,0.87 0,0.47 0.38,0.86 0.86,0.86 0.25,0 0.48,-0.1 0.64,-0.29l0 0z"/>
  </g>
 </g>
</svg>
