<?xml version="1.0" encoding="UTF-8" standalone="no"?>
<svg
   id="svg8"
   version="1.1"
   viewBox="0 0 52.916667 52.916666"
   height="200"
   width="200"
   sodipodi:docname="pluginIcon.svg"
   xml:space="preserve"
   inkscape:version="1.3 (0e150ed, 2023-07-21)"
   xmlns:inkscape="http://www.inkscape.org/namespaces/inkscape"
   xmlns:sodipodi="http://sodipodi.sourceforge.net/DTD/sodipodi-0.dtd"
   xmlns:xlink="http://www.w3.org/1999/xlink"
   xmlns="http://www.w3.org/2000/svg"
   xmlns:svg="http://www.w3.org/2000/svg"><sodipodi:namedview
     id="namedview1"
     pagecolor="#ffffff"
     bordercolor="#666666"
     borderopacity="1.0"
     inkscape:showpageshadow="2"
     inkscape:pageopacity="0.0"
     inkscape:pagecheckerboard="0"
     inkscape:deskcolor="#d1d1d1"
     inkscape:document-units="mm"
     inkscape:zoom="1.577592"
     inkscape:cx="-9.5081616"
     inkscape:cy="134.69896"
     inkscape:current-layer="svg8"
     inkscape:lockguides="false" /><metadata
     id="metadata857" /><defs
     id="defs2"><linearGradient
       id="linearGradient18"><stop
         style="stop-color:#5d6b32;stop-opacity:1"
         offset="0"
         id="stop16" /><stop
         id="stop17"
         offset="0.39178354"
         style="stop-color:#4e273f;stop-opacity:1;" /><stop
         style="stop-color:#331a36;stop-opacity:1;"
         offset="1"
         id="stop18" /></linearGradient><linearGradient
       id="linearGradient15"><stop
         style="stop-color:#d75997;stop-opacity:1;"
         offset="0"
         id="stop15" /><stop
         style="stop-color:#ed6a80;stop-opacity:1;"
         offset="0.16808106"
         id="stop14" /><stop
         id="stop13"
         offset="0.33404326"
         style="stop-color:#fd896b;stop-opacity:1;" /><stop
         style="stop-color:#fcad61;stop-opacity:1;"
         offset="0.47410744"
         id="stop12" /><stop
         id="stop11"
         offset="0.63089859"
         style="stop-color:#fec668;stop-opacity:1;" /><stop
         style="stop-color:#fff49a;stop-opacity:1;"
         offset="1"
         id="stop10" /></linearGradient><linearGradient
       id="linearGradient979"><stop
         id="stop975"
         offset="0"
         style="stop-color:#102443;stop-opacity:1;" /><stop
         id="stop977"
         offset="1"
         style="stop-color:#165ac4;stop-opacity:1" /></linearGradient><linearGradient
       id="linearGradient1241"><stop
         style="stop-color:#112970;stop-opacity:0"
         offset="0"
         id="stop1227" /><stop
         id="stop1229"
         offset="0.1705683"
         style="stop-color:#9396b4;stop-opacity:0" /><stop
         id="stop1231"
         offset="0.23960602"
         style="stop-color:#5a939e;stop-opacity:0.5" /><stop
         id="stop1233"
         offset="0.35162735"
         style="stop-color:#32d591;stop-opacity:1" /><stop
         style="stop-color:#026a7b;stop-opacity:0.69999999"
         offset="0.40906233"
         id="stop1235" /><stop
         id="stop1237"
         offset="0.47287473"
         style="stop-color:#013f61;stop-opacity:0.69999999" /><stop
         style="stop-color:#18215d;stop-opacity:0.2"
         offset="1"
         id="stop1239" /></linearGradient><linearGradient
       id="linearGradient1185"><stop
         id="stop1179"
         offset="0"
         style="stop-color:#112970;stop-opacity:0" /><stop
         style="stop-color:#063e87;stop-opacity:0"
         offset="0.1705683"
         id="stop1191" /><stop
         style="stop-color:#501777;stop-opacity:0.69999999"
         offset="0.23960602"
         id="stop1189" /><stop
         style="stop-color:#be56c8;stop-opacity:1"
         offset="0.35162735"
         id="stop1181" /><stop
         id="stop1211"
         offset="0.40906233"
         style="stop-color:#998eb7;stop-opacity:0.80000001" /><stop
         style="stop-color:#4b79b2;stop-opacity:0"
         offset="0.47287473"
         id="stop1213" /><stop
         id="stop1183"
         offset="1"
         style="stop-color:#18215d;stop-opacity:0.1" /></linearGradient><linearGradient
       id="linearGradient1173"><stop
         style="stop-color:#edfd9c;stop-opacity:1"
         offset="0"
         id="stop1165" /><stop
         id="stop1167"
         offset="0.15613621"
         style="stop-color:#05dd8a;stop-opacity:1" /><stop
         style="stop-color:#8448c1;stop-opacity:0.2"
         offset="0.64558178"
         id="stop1215" /><stop
         style="stop-color:#1d1b5a;stop-opacity:1"
         offset="1"
         id="stop1171" /></linearGradient><linearGradient
       id="linearGradient1159"><stop
         style="stop-color:#ebf3c1;stop-opacity:1"
         offset="0"
         id="stop1155" /><stop
         id="stop1161"
         offset="0.42436266"
         style="stop-color:#1bd2a8;stop-opacity:1" /><stop
         style="stop-color:#485590;stop-opacity:1"
         offset="1"
         id="stop1157" /></linearGradient><linearGradient
       id="linearGradient1006"><stop
         id="stop1002"
         offset="0"
         style="stop-color:#ffffff;stop-opacity:1" /><stop
         id="stop1004"
         offset="1"
         style="stop-color:#0c9ca6;stop-opacity:1" /></linearGradient><linearGradient
       id="linearGradient998"><stop
         id="stop994"
         offset="0"
         style="stop-color:#fbecfd;stop-opacity:1" /><stop
         style="stop-color:#fbd4f9;stop-opacity:1"
         offset="0.30084872"
         id="stop960" /><stop
         style="stop-color:#f46cec;stop-opacity:1"
         offset="0.48738721"
         id="stop958" /><stop
         id="stop996"
         offset="1"
         style="stop-color:#2b1562;stop-opacity:1" /></linearGradient><radialGradient
       gradientUnits="userSpaceOnUse"
       gradientTransform="matrix(-0.00175326,-1.1194473,3.8344218,-0.00596289,-137.67354,60.62457)"
       r="25.000002"
       fy="42.443012"
       fx="27.718891"
       cy="42.443012"
       cx="27.718891"
       id="radialGradient1000"
       xlink:href="#linearGradient1173" /><radialGradient
       gradientTransform="matrix(0.0027985,0.61857926,-0.99981442,0.00452483,60.865997,19.673872)"
       gradientUnits="userSpaceOnUse"
       r="24.999975"
       fy="35.676865"
       fx="21.644688"
       cy="35.676865"
       cx="21.644688"
       id="radialGradient1008"
       xlink:href="#linearGradient1159" /><linearGradient
       id="linearGradient1178"><stop
         style="stop-color:#b9d3ef;stop-opacity:1"
         offset="0"
         id="stop1172" /><stop
         id="stop1182"
         offset="0.39268181"
         style="stop-color:#abbedf;stop-opacity:1" /><stop
         id="stop1180"
         offset="0.65048969"
         style="stop-color:#f6c39b;stop-opacity:1" /><stop
         style="stop-color:#ee8a80;stop-opacity:1"
         offset="1"
         id="stop1176" /></linearGradient><linearGradient
       id="linearGradient1162"><stop
         id="stop1150"
         offset="0"
         style="stop-color:#307eb9;stop-opacity:1" /><stop
         style="stop-color:#7dbbc6;stop-opacity:1"
         offset="0.22724211"
         id="stop1152" /><stop
         id="stop1154"
         offset="0.49423918"
         style="stop-color:#efdeaa;stop-opacity:1" /><stop
         id="stop1160"
         offset="1"
         style="stop-color:#fef8f7;stop-opacity:1" /></linearGradient><linearGradient
       id="linearGradient22643"><stop
         style="stop-color:#375d9f;stop-opacity:1;"
         offset="0"
         id="stop22639" /><stop
         style="stop-color:#384870;stop-opacity:1;"
         offset="1"
         id="stop22641" /></linearGradient><linearGradient
       id="linearGradient22566"><stop
         style="stop-color:#f2a491;stop-opacity:1;"
         offset="0"
         id="stop22562" /><stop
         style="stop-color:#8eb3cf;stop-opacity:1;"
         offset="0.41778976"
         id="stop22564" /></linearGradient><linearGradient
       id="linearGradient17184"><stop
         style="stop-color:#ffffff;stop-opacity:1;"
         offset="0.50673854"
         id="stop17180" /><stop
         style="stop-color:#efe4be;stop-opacity:1;"
         offset="1"
         id="stop17182" /></linearGradient><linearGradient
       id="linearGradient7816"><stop
         id="stop15177"
         offset="0.2264151"
         style="stop-color:#8fc2c5;stop-opacity:1;" /><stop
         id="stop7812"
         offset="0.43126687"
         style="stop-color:#b5d1c3;stop-opacity:1;" /><stop
         id="stop7814"
         offset="1"
         style="stop-color:#e5e0bf;stop-opacity:1;" /></linearGradient><linearGradient
       id="linearGradient2455"><stop
         id="stop2447"
         offset="0"
         style="stop-color:#fbe8bd;stop-opacity:1;" /><stop
         style="stop-color:#d5dbc1;stop-opacity:1;"
         offset="0.39518833"
         id="stop2449" /><stop
         style="stop-color:#94c6c6;stop-opacity:1;"
         offset="0.65719855"
         id="stop2451" /><stop
         id="stop2453"
         offset="1"
         style="stop-color:#2d7ab8;stop-opacity:1;" /></linearGradient><radialGradient
       gradientUnits="userSpaceOnUse"
       gradientTransform="matrix(0.00113747,-1.0167601,1.0243894,0.0011489,-11.090646,-1.315701)"
       r="25.000002"
       fy="42.392902"
       fx="31.438482"
       cy="42.392902"
       cx="31.438482"
       id="radialGradient1000-0"
       xlink:href="#linearGradient998" /><radialGradient
       gradientTransform="matrix(0.00279899,0.6185787,-0.99998976,0.00452483,68.397857,-39.118526)"
       gradientUnits="userSpaceOnUse"
       r="24.999975"
       fy="35.676865"
       fx="21.644688"
       cy="35.676865"
       cx="21.644688"
       id="radialGradient1008-5"
       xlink:href="#linearGradient1006" /><linearGradient
       xlink:href="#linearGradient2455"
       id="linearGradient5700"
       x1="24.669399"
       y1="32.672649"
       x2="24.999998"
       y2="1.4757635e-06"
       gradientUnits="userSpaceOnUse" /><linearGradient
       xlink:href="#linearGradient7816"
       id="linearGradient13724"
       x1="25"
       y1="49.999977"
       x2="24.806145"
       y2="29.690369"
       gradientUnits="userSpaceOnUse" /><linearGradient
       xlink:href="#linearGradient17184"
       id="linearGradient17186"
       x1="23.919428"
       y1="9.6647673"
       x2="37.408257"
       y2="32.331436"
       gradientUnits="userSpaceOnUse" /><linearGradient
       xlink:href="#linearGradient22566"
       id="linearGradient22568"
       x1="34.995327"
       y1="25.681305"
       x2="26.002991"
       y2="33.207092"
       gradientUnits="userSpaceOnUse" /><linearGradient
       xlink:href="#linearGradient22643"
       id="linearGradient22645"
       x1="27.734179"
       y1="17.369226"
       x2="17.216543"
       y2="33.688541"
       gradientUnits="userSpaceOnUse" /><linearGradient
       id="linearGradient1046"><stop
         style="stop-color:#fefdfc;stop-opacity:1"
         offset="0"
         id="stop1038" /><stop
         id="stop1040"
         offset="0.35899055"
         style="stop-color:#faf2ee;stop-opacity:1" /><stop
         id="stop1042"
         offset="0.56921643"
         style="stop-color:#f8f5f4;stop-opacity:1" /><stop
         style="stop-color:#f6cdc0;stop-opacity:1"
         offset="1"
         id="stop1044" /></linearGradient><linearGradient
       id="linearGradient1674"><stop
         style="stop-color:#3e2300;stop-opacity:1"
         offset="0"
         id="stop1670" /><stop
         style="stop-color:#9e5600;stop-opacity:1"
         offset="1"
         id="stop1672" /></linearGradient><linearGradient
       id="linearGradient1666"><stop
         id="stop1654"
         offset="0"
         style="stop-color:#bc6001;stop-opacity:1" /><stop
         style="stop-color:#ee5015;stop-opacity:1"
         offset="0.22724211"
         id="stop1656" /><stop
         id="stop1658"
         offset="0.55937076"
         style="stop-color:#d45d2a;stop-opacity:1" /><stop
         id="stop1664"
         offset="1"
         style="stop-color:#ab2504;stop-opacity:1" /></linearGradient><linearGradient
       id="linearGradient1652"><stop
         id="stop1640"
         offset="0"
         style="stop-color:#df7e01;stop-opacity:1" /><stop
         id="stop1644"
         offset="0.3771469"
         style="stop-color:#f97b29;stop-opacity:1" /><stop
         id="stop1650"
         offset="1"
         style="stop-color:#f9cd2f;stop-opacity:1" /></linearGradient><linearGradient
       id="linearGradient1582"><stop
         style="stop-color:#fea12a;stop-opacity:1"
         offset="0"
         id="stop1578" /><stop
         id="stop1588"
         offset="0.22724211"
         style="stop-color:#fdb647;stop-opacity:1" /><stop
         style="stop-color:#fa9350;stop-opacity:1"
         offset="0.3771469"
         id="stop1590" /><stop
         id="stop1592"
         offset="0.54888839"
         style="stop-color:#f25848;stop-opacity:1" /><stop
         style="stop-color:#d83f4d;stop-opacity:1"
         offset="0.7313779"
         id="stop1594" /><stop
         style="stop-color:#b51b10;stop-opacity:1"
         offset="1"
         id="stop1580" /></linearGradient><linearGradient
       id="linearGradient927"><stop
         style="stop-color:#5d6b32;stop-opacity:1"
         offset="0"
         id="stop923" /><stop
         id="stop937"
         offset="0.39178354"
         style="stop-color:#ece1d0;stop-opacity:1" /><stop
         style="stop-color:#afdfe4;stop-opacity:1"
         offset="1"
         id="stop925" /></linearGradient><linearGradient
       id="linearGradient7816-0"><stop
         id="stop7814-5"
         offset="1"
         style="stop-color:#422f2e;stop-opacity:1" /></linearGradient><radialGradient
       gradientUnits="userSpaceOnUse"
       gradientTransform="matrix(0.00113747,-1.0167601,1.0243894,0.0011489,-11.090646,-1.315701)"
       r="25.000002"
       fy="42.392902"
       fx="31.438482"
       cy="42.392902"
       cx="31.438482"
       id="radialGradient1000-9"
       xlink:href="#linearGradient998" /><radialGradient
       gradientTransform="matrix(0.00279899,0.6185787,-0.99998976,0.00452483,68.397857,-39.118526)"
       gradientUnits="userSpaceOnUse"
       r="24.999975"
       fy="35.676865"
       fx="21.644688"
       cy="35.676865"
       cx="21.644688"
       id="radialGradient1008-7"
       xlink:href="#linearGradient1006" /><linearGradient
       xlink:href="#linearGradient7816-0"
       id="linearGradient13724-0"
       x1="25"
       y1="49.999977"
       x2="24.806145"
       y2="29.690369"
       gradientUnits="userSpaceOnUse" /><linearGradient
       xlink:href="#linearGradient927"
       id="linearGradient935"
       x1="25.198191"
       y1="49.72488"
       x2="25.104233"
       y2="0.10423274"
       gradientUnits="userSpaceOnUse" /><clipPath
       id="clipPath1130"
       clipPathUnits="userSpaceOnUse"><path
         id="path1128"
         d="M 0,800 H 800 V 0 H 0 Z" /></clipPath><clipPath
       id="clipPath1138"
       clipPathUnits="userSpaceOnUse"><path
         id="path1136"
         d="M 284.686,41.5688 H 515.314 V 17 H 284.686 Z" /></clipPath><clipPath
       id="clipPath1278"
       clipPathUnits="userSpaceOnUse"><path
         id="path1276"
         d="M 0,800 H 800 V 0 H 0 Z" /></clipPath><linearGradient
       xlink:href="#linearGradient1582"
       id="linearGradient1598"
       gradientUnits="userSpaceOnUse"
       gradientTransform="matrix(0.25320201,0,0,0.25320201,95.927808,56.293442)"
       x1="-332.87836"
       y1="-65.767349"
       x2="-211.17578"
       y2="-131.90941" /><linearGradient
       xlink:href="#linearGradient1652"
       id="linearGradient1602"
       gradientUnits="userSpaceOnUse"
       gradientTransform="matrix(0.12865911,0,0,0.14262707,74.363162,36.786625)"
       x1="-332.87836"
       y1="-65.767349"
       x2="-211.17578"
       y2="-131.90941" /><linearGradient
       xlink:href="#linearGradient1666"
       id="linearGradient1606"
       gradientUnits="userSpaceOnUse"
       gradientTransform="matrix(0.14287792,0,0,0.15551651,52.603028,39.553815)"
       x1="-332.87836"
       y1="-65.767349"
       x2="-211.17578"
       y2="-131.90941" /><linearGradient
       xlink:href="#linearGradient1674"
       id="linearGradient1676"
       x1="16.955727"
       y1="54.643715"
       x2="33.029133"
       y2="19.577152"
       gradientUnits="userSpaceOnUse" /><radialGradient
       xlink:href="#linearGradient1185"
       id="radialGradient1187"
       cx="17.524895"
       cy="14.660456"
       fx="17.524895"
       fy="14.660456"
       r="25.000002"
       gradientTransform="matrix(1.8608534,2.1552726,-2.0022237,1.729321,41.756709,-48.65353)"
       gradientUnits="userSpaceOnUse" /><radialGradient
       xlink:href="#linearGradient1241"
       id="radialGradient1225"
       gradientUnits="userSpaceOnUse"
       gradientTransform="matrix(2.411899,0.61216354,-0.47797819,1.8838782,6.6557468,-29.122052)"
       cx="14.440844"
       cy="17.80776"
       fx="14.440844"
       fy="17.80776"
       r="25.000002" /><linearGradient
       gradientUnits="userSpaceOnUse"
       y2="18.206415"
       x2="27.358416"
       y1="33.411911"
       x1="24.841223"
       id="linearGradient981"
       xlink:href="#linearGradient979"
       gradientTransform="matrix(0.99982466,0,0,1.0000009,9.3486014e-8,7.1549592e-6)" /><linearGradient
       inkscape:collect="always"
       xlink:href="#linearGradient15"
       id="linearGradient20"
       x1="56.549934"
       y1="29.274832"
       x2="106.54993"
       y2="29.274832"
       gradientUnits="userSpaceOnUse"
       gradientTransform="translate(-56.549935,-54.274836)" /><linearGradient
       inkscape:collect="always"
       xlink:href="#linearGradient18"
       id="linearGradient21"
       gradientUnits="userSpaceOnUse"
       gradientTransform="rotate(90,55.41226,-1.1374244)"
       x1="56.549934"
       y1="29.274832"
       x2="106.54993"
       y2="29.274832" /></defs><g
     id="g21"
     transform="scale(1.0583333)"><circle
       style="fill:url(#linearGradient20);fill-rule:evenodd;stroke-width:0.265934"
       id="path18"
       cx="25"
       cy="-25"
       r="25"
       transform="rotate(90)" /><path
       id="circle20"
       style="fill:url(#linearGradient21);fill-rule:evenodd;stroke-width:0.265934"
       d="M 4.9495445,39.82646 A 25,25 0 0 0 25,50 25,25 0 0 0 45.050455,39.82646 Z" /><path
       id="path3"
       style="fill:#632849"
       d="m 30.766597,22.846667 c -1.365637,0.02778 -3.552715,0.161721 -4.07572,0.273886 -0.394889,0.08468 -0.534936,0.07309 -0.807186,-0.0677 -0.690809,-0.357231 -3.322397,-0.116927 -4.598685,0.42013 -0.30937,0.130185 -0.65064,0.236678 -0.75861,0.236678 -0.10798,0 -0.731763,0.15735 -1.385962,0.349849 -0.939999,0.2766 -1.363786,0.350367 -2.021066,0.350367 -0.580689,0 -0.928417,0.05025 -1.151867,0.166398 -1.542699,0.801861 -3.705472,1.391535 -5.469951,1.491898 C 9.975051,26.097893 8.8273176,26.23059 7.9473185,26.362729 7.0673194,26.494868 5.8272738,26.67292 5.1914144,26.75857 4.555545,26.84422 3.6667207,27.027466 3.2163411,27.165781 l -0.8190714,0.251664 v 0.350366 c 0,0.527246 -0.3147392,0.774451 -1.3306681,1.042831 -0.24110279,0.06369 -0.50963261,0.129426 -0.71726892,0.185001 a 25,25 0 0 0 8.97412922,15.4187 c 0.4490108,0.0168 0.8895661,0.02899 1.2743411,0.03204 1.321328,0.01046 1.699932,0.0451 1.900142,0.172599 0.38894,0.247695 2.665895,0.799683 3.199805,0.775663 0.27176,-0.01223 2.454636,0.250638 3.500045,0.42168 1.691498,0.276755 3.93957,0.373752 4.550109,0.19637 0.165,-0.04794 0.727554,-0.115518 1.250053,-0.150378 0.5225,-0.03486 1.287139,-0.132158 1.699638,-0.216008 0.45436,-0.09236 0.942528,-0.12756 1.238168,-0.0894 0.485809,0.06271 1.831268,-0.08769 2.212268,-0.24753 0.109999,-0.04615 0.400152,-0.112054 0.644921,-0.146244 0.24478,-0.03419 0.502809,-0.110252 0.573609,-0.168982 0.07076,-0.05873 0.233635,-0.08073 0.361735,-0.04858 0.12811,0.03216 0.319971,1.16e-4 0.42633,-0.07131 0.20546,-0.137987 1.449493,-0.148689 2.216403,-0.01912 0.446729,0.07548 0.81109,-0.01073 1.726509,-0.40876 0.45092,-0.196063 0.68528,-0.23399 1.300179,-0.20929 0.4125,0.01657 0.979669,-0.02716 1.260388,-0.09767 0.361308,-0.09075 1.151049,-0.146639 2.675289,-0.217041 a 25,25 0 0 0 0.213941,-0.204122 c -0.770294,0.04273 -1.64081,0.09148 -2.349728,0.148828 -0.412499,0.03338 -1.163876,0.07592 -1.669665,0.09457 -0.668619,0.02465 -1.050635,0.09234 -1.399915,0.248563 L 33.677531,23.317957 c 0.0023,-0.276814 -0.461308,-0.456078 -0.677478,-0.26045 -0.21009,0.190125 -0.344691,0.192358 -0.496611,0.0093 -0.06526,-0.07863 -0.395936,-0.171699 -0.736906,-0.207739 -0.180634,-0.01909 -0.544726,-0.02166 -0.999939,-0.0124 z" /><path
       id="path8"
       style="fill:#fbae66"
       d="m 37.724312,32.820219 -0.06201,0.173116 c 0.174539,0.61636 1.174195,1.319178 2.160074,1.651062 0.0962,0.0324 0.175184,0.144364 0.175184,0.248564 0,0.211158 0.711081,0.912431 1.399914,1.380794 0.783989,0.533077 2.011633,1.017894 3.253032,1.284159 0.378601,0.08121 1.011673,0.235444 1.682067,0.406694 a 25,25 0 0 0 1.776119,-3.566191 c -0.56047,0.139407 -0.891639,0.06615 -1.761132,-0.306441 -0.58076,-0.24883 -0.785098,-0.289729 -1.199927,-0.241329 -0.34203,0.0399 -0.64743,0.0057 -0.966349,-0.108004 -0.45668,-0.162771 -0.481158,-0.160864 -1.199927,0.09612 -1.010519,0.361294 -1.97782,0.594569 -2.165759,0.522449 -0.08633,-0.03313 -0.366785,-0.0064 -0.623735,0.05943 -0.42392,0.108647 -0.511776,0.09868 -0.946195,-0.111621 -0.73604,-0.356308 -1.437155,-0.978859 -1.521355,-1.488798 z" /><path
       id="path4"
       style="fill:#923648"
       d="m 30.101005,23.206852 c -0.168662,0.01999 -0.293632,0.214908 -0.321944,0.553972 l -0.03307,0.398942 -0.236678,-0.379305 c -0.13009,-0.208567 -0.287433,-0.362152 -0.349333,-0.341582 -0.07802,0.02589 -0.129899,0.881023 -0.169498,2.779159 -0.0314,1.507998 -0.06493,2.747454 -0.07493,2.754354 -0.0098,0.0069 -0.25437,0.04084 -0.54312,0.07545 -0.288749,0.0346 -0.711624,0.08949 -0.939994,0.121957 -0.508349,0.07227 -0.485601,0.132442 -0.638721,-1.659847 -0.0634,-0.7425 -0.201926,-1.370197 -0.225826,-1.394747 -0.0578,-0.05934 0.07775,2.124883 0.200505,3.44165 0.20954,2.247871 0.239123,2.05865 0.405143,2.02985 0.11608,-0.02014 0.198514,0.145323 0.321944,0.645439 0.09125,0.36974 0.234844,0.752318 0.318844,0.850077 0.08403,0.09776 0.181107,0.257881 0.216007,0.356051 0.05946,0.167386 0.07909,0.168161 0.315227,0.01344 0.13849,-0.09074 0.252181,-0.205061 0.252181,-0.253731 0,-0.04868 0.07393,-0.08837 0.164331,-0.08837 0.1433,0 0.157053,-0.09852 0.106453,-0.767395 -0.04527,-0.598579 -0.02238,-0.834876 0.10387,-1.07487 0.14178,-0.269758 0.158693,-0.760424 0.138493,-3.982703 -0.0145,-2.314437 0.013,-3.674711 0.0739,-3.674711 0.14902,0 0.51218,0.644442 0.51418,0.911573 9e-4,0.131008 0.0454,0.30559 0.0987,0.38809 0.0669,0.103535 0.09719,-0.106383 0.09819,-0.677995 0.0012,-0.645971 0.03496,-0.840971 0.152962,-0.886251 0.0832,-0.03193 0.21844,-0.0023 0.30024,0.06563 0.12089,0.100344 0.150647,0.46213 0.158647,1.935799 -0.03723,2.149926 0.187175,2.924488 0.221175,1.158586 0.03719,-1.933118 0.105753,-2.948382 0.243912,-2.920752 0.0687,0.01375 0.124541,-0.01993 0.124541,-0.07493 0,-0.055 -0.06639,-0.09973 -0.147795,-0.09973 -0.17146,0 -0.23747,0.232889 -0.28267,0.999939 -0.0291,0.493516 -0.03404,0.476187 -0.05064,-0.167949 -0.01287,-0.499625 -0.06633,-0.765511 -0.1757,-0.874882 -0.121117,-0.121118 -0.238317,-0.172191 -0.339514,-0.160197 z m -3.865914,0.151412 c -0.0864,0.01334 -0.182535,0.125586 -0.266133,0.3514 -0.0451,0.121958 -0.05756,0.118367 -0.06356,-0.01912 -0.0043,-0.093 -0.053,-0.197004 -0.108004,-0.230994 -0.0653,-0.04033 -0.09343,0.452585 -0.08113,1.419035 0.0169,1.327568 0.04168,1.430031 0.09198,0.623218 0.04037,-0.647587 0.09657,-0.84122 0.168465,-0.733289 0.0733,0.109979 0.117813,-0.06001 0.154513,-0.556038 0.0275,-0.372087 0.06127,-0.716245 0.116271,-0.729155 0.055,-0.01291 0.07934,0.25829 0.120923,0.559656 l 0.07131,0.516764 0.04134,-0.51263 c 0.01458,-0.458472 -0.101974,-0.711078 -0.24598,-0.688847 z m 4.803841,0.325562 0.05478,1.286743 c -0.0099,0.687499 0.07176,1.931604 0.159164,2.839103 0.08744,0.907499 0.181806,1.888763 0.209806,2.180745 0.04824,0.504 0.06429,0.529538 0.314193,0.500228 0.21497,-0.02521 0.288933,-0.113626 0.403593,-0.481107 0.07722,-0.2475 0.168705,-0.629231 0.203605,-0.848527 0.0483,-0.303612 0.129071,-0.430404 0.33848,-0.530717 0.31594,-0.151355 0.302146,-0.08003 0.328146,-1.720825 0.0143,-0.90281 0.06542,-1.353084 0.183451,-1.621607 0.08984,-0.204483 0.156311,-0.519182 0.148311,-0.699699 l 0.05788,-0.334346 -0.110587,0.305924 c -0.02086,0.165 -0.100967,0.480216 -0.177767,0.700216 -0.07681,0.22 -0.184146,0.752488 -0.238746,1.18339 -0.05456,0.430903 -0.115809,0.799498 -0.135909,0.819588 -0.02009,0.02009 -0.332264,0.06733 -0.694014,0.104387 l -0.657841,0.06718 -0.07596,-0.287321 c -0.04192,-0.158059 -0.108912,-1.007224 -0.148312,-1.887223 z m 3.363619,0.42323 c -0.193271,0.0042 -0.290867,0.03706 -0.245463,0.06408 -0.0015,0.715 0.178271,3.196254 0.199471,2.95951 0.23859,-1.388203 0.483882,-0.136099 0.626319,0.628902 0.05566,0.659999 0.131365,1.27886 0.168465,1.37511 0.07824,0.287585 0.41881,0.246106 0.56689,0.0646 0.10271,-0.125951 0.346946,-4.65283 0.225826,-4.71289 -0.631804,-0.31328 -1.219389,-0.386224 -1.541508,-0.379305 z m -12.055078,0.152445 -0.434599,0.0093 c -0.238919,0.0051 -0.468246,0.06471 -0.510046,0.132292 -0.04176,0.06758 -0.107861,0.963286 -0.146761,1.990576 -0.04354,1.150034 -0.145354,2.252326 -0.264583,2.868042 -0.10654,0.549999 -0.193627,1.101498 -0.193787,1.225248 -5.6e-4,0.413784 -0.519424,0.200884 -0.687813,-0.282153 -0.12706,-0.364487 -0.348675,-0.34553 -0.393775,0.03359 -0.02245,0.188863 0.05409,0.336594 0.275436,0.533818 0.266709,0.237638 0.305823,0.337721 0.302823,0.780831 -0.004,0.653836 -0.157027,0.769022 -1.463476,1.100191 -5.683521,1.519382 -2.938788,-7.359745 -6.237345,2.158525 -1.052565,0 -0.699576,-7.463515 -1.352889,-8.005713 -0.11923,-0.09899 -0.143728,-0.06249 -0.145728,0.218591 -0.07245,8.95917 -1.2431083,-0.407282 -1.4262695,-0.224276 -0.2891518,0.289109 0.064991,8.91524 -0.1658814,9.146212 -0.05797,0.05795 -0.1054199,0.211195 -0.1054199,0.341064 0,0.221625 -0.026195,0.232186 -0.4304647,0.171566 -0.5157695,-0.07735 -0.5759672,-0.01836 -0.795817,0.778247 -0.2219598,0.804281 -0.1239962,1.050432 0.738973,1.858802 0.6697393,0.627369 0.7284477,0.715997 0.7813476,1.172021 0.04847,0.417747 0.087972,0.490002 0.2568319,0.470772 0.10967,-0.01248 0.289459,0.02026 0.399459,0.07286 0.11,0.0526 0.32483,0.141061 0.47749,0.196371 0.15266,0.05531 0.306281,0.179905 0.341581,0.276985 0.03533,0.09708 0.270439,0.382931 0.522449,0.635104 0.44827,0.44856 0.47998,0.461558 1.458309,0.610815 1.096289,0.167256 1.972106,0.136142 2.305286,-0.08217 0.188879,-0.123755 0.26795,-0.116577 0.65474,0.05891 0.482699,0.219008 0.991378,0.262291 1.154968,0.0987 0.07326,-0.07326 0.336926,-0.01289 0.872815,0.199987 0.42222,0.16772 0.898344,0.304891 1.058333,0.304891 0.15999,0 0.417746,0.04927 0.572575,0.109038 0.15484,0.05977 1.181516,0.129122 2.281515,0.154512 1.099999,0.02539 2.269841,0.09091 2.599841,0.145211 0.33,0.05431 0.825192,0.116199 1.100191,0.137459 0.275,0.02126 0.747049,0.109628 1.049549,0.196887 0.407589,0.117575 0.783091,0.144106 1.45004,0.101286 1.312699,-0.08428 1.579944,-0.10873 1.959054,-0.1788 0.32402,-0.05988 1.626704,0.03882 2.944523,0.223242 0.3319,0.04645 0.781839,0.181218 0.999939,0.299723 0.49206,0.267366 1.264154,0.233939 1.976624,-0.0863 0.350639,-0.157611 0.728675,-0.225364 1.399914,-0.250114 0.50579,-0.01865 1.257166,-0.0612 1.669666,-0.09457 0.70069,-0.05669 1.591035,-0.112808 2.356962,-0.155546 a 25,25 0 0 0 0.191203,-0.191203 c -0.187616,0.05479 -1.159228,0.118821 -2.270663,0.146244 -1.170069,0.02888 -2.749024,0.02368 -3.299023,0.05529 -0.881449,0.05066 -1.474163,0.0032 -4.86637,-0.310059 -0.24945,-0.02304 -0.827506,-0.154222 -1.265556,-0.3576 -0.532319,-0.247147 -0.97672,-0.38052 -1.33997,-0.40256 -0.298919,-0.01813 -0.759343,-0.08844 -1.023193,-0.156063 -0.5254,-0.134669 -0.726061,-0.06239 -0.429431,0.154513 0.17643,0.129008 0.162765,0.145676 -0.200505,0.24598 -0.312789,0.08636 -0.566554,0.06864 -1.288293,-0.08888 -0.49435,-0.107895 -1.082427,-0.284375 -1.306897,-0.392224 -0.60646,-0.291381 -1.997965,-0.76327 -2.930054,-0.993738 -0.452009,-0.111762 -0.951353,-0.270136 -1.109493,-0.351916 -0.15815,-0.08178 -0.521236,-0.179628 -0.807186,-0.217558 -0.456999,-0.06062 -0.536678,-0.106492 -0.658358,-0.380339 -0.07613,-0.171351 -0.256896,-0.503156 -0.401525,-0.736905 -0.24108,-0.38968 -0.247004,-0.424781 -0.07441,-0.424781 0.103529,0 0.290121,-0.108958 0.414961,-0.241845 0.12485,-0.132888 0.458914,-0.317175 0.742074,-0.409795 l 0.514697,-0.168465 0.332796,0.38499 c 0.27909,0.322968 0.454988,0.417204 1.092957,0.584977 0.697139,0.183335 0.786516,0.236836 1.070736,0.641821 0.273769,0.390106 0.403376,0.473079 1.107426,0.710034 0.438539,0.147596 1.040426,0.391851 1.337386,0.542603 0.447279,0.227055 0.58065,0.255348 0.77928,0.164848 0.13187,-0.06009 0.496627,-0.112372 0.810287,-0.116272 1.080559,-0.01332 1.060843,-0.08463 -0.241846,-0.882117 -1.356049,-0.830157 -1.817678,-1.137211 -2.054138,-1.366325 -0.0915,-0.08865 -0.316105,-0.235998 -0.499195,-0.327628 -0.243439,-0.121854 -0.333269,-0.234178 -0.333829,-0.417029 -7.3e-4,-0.242419 -0.02196,-0.250031 -0.700733,-0.253731 -0.464079,-0.0025 -0.784063,-0.05752 -0.949813,-0.163298 -0.137499,-0.08775 -0.553415,-0.188409 -0.923974,-0.223759 -0.37056,-0.03535 -0.741556,-0.09055 -0.824756,-0.122473 -0.21443,-0.08227 -0.187634,-0.365635 0.04858,-0.513147 0.26979,-0.16849 0.251623,-0.306676 -0.05013,-0.382406 -0.29921,-0.07509 -0.314122,-0.152679 -0.06046,-0.311092 0.10413,-0.06503 0.338626,-0.379735 0.521415,-0.699182 0.29802,-0.520832 0.334166,-0.667142 0.347266,-1.416451 0.01626,-0.932337 0.0906,-1.050767 0.613916,-0.974617 0.21231,0.03089 0.394251,-0.01142 0.533301,-0.124024 0.19854,-0.160733 0.204954,-0.214464 0.109554,-0.902787 -0.05882,-0.424412 -0.172701,-0.81087 -0.271301,-0.919841 -0.1369,-0.151285 -0.149713,-0.242159 -0.06511,-0.465604 0.05778,-0.152654 0.133566,-0.407148 0.168465,-0.565857 0.06978,-0.317428 0.146627,-0.309302 -0.822172,-0.0894 -0.270989,0.06151 -0.273028,0.03264 -0.0801,-1.084172 0.07962,-0.460955 0.176574,-1.678488 0.214974,-2.705778 0.03843,-1.02729 0.101677,-1.920078 0.141077,-1.983858 0.03942,-0.06378 0.224557,-0.123392 0.410827,-0.132292 l 0.338481,-0.01602 0.08372,1.050066 c 0.0793,0.994682 0.108599,2.831383 0.0863,5.39967 -0.0082,0.940347 0.0366,1.323321 0.245463,2.10013 0.14048,0.5225 0.296666,1.175041 0.347266,1.450041 0.05057,0.275 0.135953,0.692018 0.189653,0.926558 0.0537,0.234539 0.09767,0.623925 0.09767,0.865064 0,0.389177 0.05347,0.492831 0.478007,0.923458 0.718059,0.728342 1.128906,1.004198 1.987476,1.334802 0.960789,0.369968 1.252176,0.388977 0.583426,0.03824 -0.710299,-0.372533 -0.925506,-0.602235 -1.005106,-1.073319 -0.03842,-0.227456 -0.227883,-0.733355 -0.421163,-1.123963 l -0.3514,-0.710034 0.205156,-0.290421 c 0.11275,-0.159688 0.23255,-0.454537 0.26665,-0.655257 0.05039,-0.296645 0.09811,-0.355787 0.253215,-0.315227 0.155119,0.04056 0.212674,-0.03122 0.307474,-0.383439 0.06417,-0.238303 0.228503,-0.653896 0.365353,-0.923974 0.219109,-0.432414 0.23646,-0.540166 0.14366,-0.901754 -0.106,-0.413213 -0.213468,-1.398944 -0.273368,-2.510441 -0.01778,-0.33 -0.07116,-1.185143 -0.118856,-1.900143 l 0.01809,-1.304313 -0.119373,1.104326 c -0.0079,0.604999 0.02476,1.280167 0.07286,1.500166 0.0481,0.22 0.05844,0.595645 0.02274,0.835092 -0.0614,0.411976 -0.0916,0.445393 -0.56224,0.623734 -0.27354,0.103654 -0.768215,0.231304 -1.099674,0.283704 -0.33146,0.0524 -0.788613,0.135928 -1.015442,0.185518 l -0.412378,0.09043 -0.06718,-2.509408 c -0.03692,-1.380097 -0.09876,-2.891985 -0.137459,-3.359485 z" /><path
       id="path5"
       style="fill:#a84a48"
       d="m 30.119609,23.332426 c -0.02564,6.7e-4 -0.05,0.0049 -0.0708,0.01292 -0.11801,0.04528 -0.151446,0.24028 -0.152446,0.886251 -0.0011,0.571612 -0.0318,0.78153 -0.0987,0.677995 -0.0533,-0.0825 -0.09785,-0.257082 -0.0987,-0.38809 -0.0017,-0.267131 -0.36516,-0.911573 -0.51418,-0.911573 -0.0609,0 -0.0884,1.360274 -0.0739,3.674711 0.02022,3.222279 0.0034,3.712945 -0.138493,3.982703 -0.12621,0.239994 -0.14917,0.476291 -0.10387,1.07487 0.05058,0.668881 0.03688,0.767395 -0.106453,0.767395 -0.09044,0 -0.164331,0.0397 -0.164331,0.08837 0,0.04867 -0.113691,0.162991 -0.252181,0.253731 -0.2361,0.154724 -0.25521,0.153949 -0.31471,-0.01344 -0.03487,-0.09817 -0.132524,-0.258291 -0.216524,-0.356051 -0.08403,-0.09776 -0.227544,-0.480337 -0.318844,-0.850077 -0.12249,-0.496296 -0.205907,-0.665655 -0.319877,-0.645955 -0.19664,0.034 -0.223568,-0.201337 -0.586527,-5.126302 -0.19062,-2.586544 -0.238432,-3.000896 -0.341582,-2.976046 -0.05495,0.01325 -0.113307,0.320602 -0.129707,0.683162 -0.02431,0.538493 -0.05405,0.63886 -0.163815,0.547771 -0.199399,-0.165453 -0.329583,3.163356 -0.160713,4.108276 0.0666,0.373001 0.107567,0.826055 0.09147,1.007174 -0.03819,0.429838 0.0914,1.718141 0.225309,2.240173 0.09276,0.361588 0.07598,0.46934 -0.143144,0.901754 -0.136859,0.270078 -0.301669,0.685671 -0.365869,0.923974 -0.09484,0.35222 -0.152355,0.423999 -0.307474,0.383439 -0.15512,-0.04056 -0.202298,0.01859 -0.252698,0.315227 -0.03409,0.20072 -0.154417,0.495569 -0.267167,0.655257 l -0.204639,0.290421 0.3514,0.710034 c 0.19328,0.390608 0.382763,0.896507 0.421163,1.123963 0.07959,0.471084 0.294807,0.700786 1.005106,1.073319 0.66875,0.350735 0.377362,0.331726 -0.583427,-0.03824 -0.858559,-0.330604 -1.269426,-0.60646 -1.987475,-1.334802 -0.42457,-0.430627 -0.478007,-0.534281 -0.478007,-0.923458 0,-0.241139 -0.04449,-0.630525 -0.09818,-0.865064 -0.05373,-0.23454 -0.138536,-0.651558 -0.189136,-0.926558 -0.05057,-0.275 -0.207293,-0.927541 -0.347783,-1.450041 -0.208819,-0.776809 -0.253463,-1.159783 -0.245463,-2.10013 0.02228,-2.568287 -0.0071,-4.404988 -0.0863,-5.39967 l -0.0832,-1.050066 -0.338998,0.01602 c -0.18627,0.0089 -0.370911,0.06851 -0.410311,0.132292 -0.03942,0.06378 -0.103193,0.956568 -0.141593,1.983858 -0.03843,1.02729 -0.134857,2.244823 -0.214457,2.705778 -0.19294,1.116814 -0.190912,1.145681 0.0801,1.084172 0.968809,-0.219906 0.891972,-0.228032 0.822172,0.0894 -0.0349,0.158709 -0.110665,0.413203 -0.168465,0.565857 -0.08459,0.223445 -0.0718,0.314319 0.06511,0.465604 0.09862,0.108971 0.212502,0.495429 0.271302,0.919841 0.09538,0.688323 0.08894,0.742054 -0.109554,0.902787 -0.13905,0.112605 -0.320991,0.154914 -0.533301,0.124024 -0.5233,-0.07615 -0.598133,0.04228 -0.614433,0.974617 -0.01306,0.749309 -0.04872,0.895619 -0.346749,1.416451 -0.18279,0.319447 -0.417802,0.634152 -0.521932,0.699182 -0.25363,0.158413 -0.238201,0.236002 0.06098,0.311092 0.30175,0.07573 0.319916,0.213916 0.05013,0.382406 -0.23616,0.147512 -0.263483,0.430877 -0.04909,0.513147 0.08319,0.03192 0.454713,0.08712 0.825273,0.122473 0.370559,0.03535 0.785958,0.136009 0.923457,0.223759 0.16574,0.105778 0.48625,0.160798 0.95033,0.163298 0.678759,0.0037 0.699992,0.01131 0.700732,0.253731 5.6e-4,0.182851 0.08984,0.295175 0.333313,0.417029 0.18308,0.09163 0.408212,0.238968 0.499712,0.327628 0.236459,0.229114 0.698089,0.536168 2.054138,1.366325 1.302688,0.797493 1.322404,0.868797 0.241845,0.882117 -0.313669,0.0039 -0.678416,0.05618 -0.810286,0.116272 -0.19863,0.0905 -0.332528,0.06221 -0.779797,-0.164848 -0.29696,-0.150752 -0.89833,-0.395007 -1.33687,-0.542603 -0.704049,-0.236955 -0.833646,-0.319928 -1.107426,-0.710034 -0.284209,-0.404985 -0.373596,-0.458486 -1.070735,-0.641821 -0.63797,-0.167773 -0.814384,-0.262009 -1.093474,-0.584977 l -0.332279,-0.38499 -0.515214,0.168465 c -0.28316,0.09262 -0.616717,0.276907 -0.741557,0.409795 -0.12484,0.132887 -0.311949,0.241845 -0.415478,0.241845 -0.17262,0 -0.166179,0.0351 0.07493,0.424781 0.14463,0.233749 0.325426,0.565554 0.401526,0.736905 0.12168,0.273847 0.201368,0.319719 0.658358,0.380339 0.28596,0.03793 0.649036,0.135778 0.807186,0.217558 0.15814,0.08178 0.657483,0.240154 1.109493,0.351916 0.932079,0.230468 2.323594,0.702357 2.930054,0.993738 0.224469,0.107849 0.812537,0.284329 1.306897,0.392224 0.721739,0.15753 0.975503,0.175254 1.288293,0.08888 0.36327,-0.100304 0.376934,-0.116972 0.200505,-0.24598 -0.29663,-0.216899 -0.09602,-0.289182 0.429431,-0.154513 0.263849,0.06762 0.724263,0.137933 1.023193,0.156063 0.36562,0.02218 0.805408,0.155454 1.343587,0.406694 0.71267,0.332693 0.930879,0.383835 1.999878,0.468705 0.66,0.0524 1.515143,0.134091 1.900143,0.181901 v 5.17e-4 c 0.384999,0.0478 1.307504,0.07102 2.050004,0.05219 4.410881,-0.111863 5.469859,-0.152573 5.737634,-0.23151 a 25,25 0 0 0 3.258716,-3.628203 c -0.227861,-0.138047 -0.667844,-0.344826 -1.118795,-0.518831 -0.565069,-0.21804 -1.409905,-0.545413 -1.877405,-0.727088 -0.560519,-0.217824 -0.884429,-0.29657 -0.950329,-0.23151 -0.16517,0.16296 0.215713,0.364043 1.034562,0.54622 1.398168,0.311063 1.833924,0.604255 1.979724,1.333252 l 0.06666,0.334346 -0.535885,-0.05168 c -0.29487,-0.02833 -0.553425,-0.102351 -0.574125,-0.164331 -0.02066,-0.06197 -0.120195,-0.112655 -0.221175,-0.112655 -0.36984,0 -1.455533,-0.329448 -1.687753,-0.512113 -0.131399,-0.103359 -0.345329,-0.187586 -0.475423,-0.187586 -0.13008,0 -0.236161,-0.04224 -0.236161,-0.09353 0,-0.05129 -0.101559,-0.125034 -0.225309,-0.163814 -0.4546,-0.142473 -1.274858,-0.551004 -1.274858,-0.635104 0,-0.04764 -0.178912,-0.17509 -0.397392,-0.283186 -0.218479,-0.108097 -0.368413,-0.2253 -0.333313,-0.26045 0.03515,-0.03515 -0.05206,-0.06408 -0.193786,-0.06408 -0.14789,0 -0.465001,-0.163827 -0.744141,-0.384473 -0.477979,-0.37782 -1.416202,-0.770747 -1.652612,-0.691948 -0.06618,0.02206 0.06881,0.1464 0.30024,0.276469 0.455299,0.255892 0.508559,0.345147 0.261999,0.439767 -0.434139,0.166597 -2.56152,-0.725647 -2.66392,-1.117245 -0.02776,-0.106129 -0.226914,-0.22116 -0.516764,-0.298689 -0.590829,-0.158023 -1.579883,-1.077548 -1.497583,-1.392164 0.04007,-0.153245 -0.04582,-0.2481 -0.388607,-0.429947 -0.515879,-0.273671 -0.833263,-0.858273 -1.002523,-1.846399 -0.0877,-0.512128 -0.07861,-0.67003 0.05219,-0.932243 0.132299,-0.265335 0.137816,-0.381618 0.03566,-0.727604 -0.10605,-0.359168 -0.138248,-0.391641 -0.252697,-0.253732 -0.1949,0.234832 -0.306785,0.192448 -0.307475,-0.116788 -3.4e-4,-0.15125 -0.0752,-0.410159 -0.166398,-0.575159 -0.14084,-0.254884 -0.171889,-0.740016 -0.206189,-3.225126 -0.0248,-1.800902 -0.004,-2.924886 0.05426,-2.924886 0.14384,0 0.29812,0.482589 0.367419,1.150317 0.18057,1.738773 0.360118,1.592811 0.358118,-0.290938 -0.0013,-1.246151 0.01458,-1.369893 0.171049,-1.339453 0.15553,0.03026 0.173351,0.218148 0.180351,1.931665 0.0075,1.814439 0.143746,3.683583 0.278536,3.818371 0.15592,0.155921 0.198616,-0.198867 0.262516,-2.193664 0.0374,-1.169461 0.07527,-1.721282 0.08527,-1.226282 0.0095,0.494999 0.06025,1.282781 0.112655,1.750281 0.0524,0.467499 0.120195,1.86257 0.150895,3.100069 0.05713,2.30602 0.08406,2.474389 0.545703,3.449919 0.56163,1.18682 2.477942,2.282695 5.267379,3.011702 1.135359,0.29672 1.93746,0.472151 2.52181,0.552421 0.20869,0.02867 0.302568,-0.04124 0.359668,-0.268717 0.08972,-0.357483 0.268984,-0.39075 0.798917,-0.149345 0.36051,0.16423 0.504906,0.186175 0.663526,0.101286 0.11152,-0.05968 0.291012,-0.08076 0.398942,-0.04651 0.33149,0.105214 0.218895,-0.03628 -0.270785,-0.341065 -0.383389,-0.238632 -0.499796,-0.269933 -0.652156,-0.175183 -0.14802,0.09205 -0.25047,0.07657 -0.50798,-0.07648 -0.177479,-0.105488 -0.471403,-0.270266 -0.652673,-0.366386 -0.480089,-0.254566 -0.612464,-0.38409 -0.831474,-0.813387 -0.222469,-0.436076 -0.182719,-0.578259 0.161231,-0.578259 0.423069,0 0.354254,-0.15795 -0.257866,-0.589628 -0.672819,-0.47448 -1.192175,-1.119401 -1.192175,-1.481047 0,-0.143511 -0.129734,-0.359813 -0.321944,-0.535368 -0.36876,-0.336808 -0.447306,-0.353167 -0.681095,-0.141593 -0.15574,0.140945 -0.182499,0.104614 -0.343649,-0.469739 -0.17517,-0.624278 -0.3273,-4.649087 -0.28422,-5.783109 l 0.05788,-1.520838 -0.426847,-0.04599 c -0.34075,-0.01683 -0.333666,-0.04596 -0.05013,0.05064 l 0.256832,0.08785 0.0078,2.279447 c -0.02085,1.358823 -0.07664,2.350262 -0.136942,2.424142 -0.14808,0.181511 -0.445183,0.153002 -0.523482,-0.05013 -0.03708,-0.09625 -0.112766,-0.715111 -0.168466,-1.37511 -0.05566,-0.659999 -0.139552,-1.239744 -0.186552,-1.288294 -0.181619,-0.187827 -0.387813,0.03363 -0.425813,0.457854 -0.0212,0.236744 -0.04664,-0.109463 -0.05684,-0.769462 -0.0102,-0.66 -0.04738,-1.374777 -0.08268,-1.588534 l -0.06408,-0.388607 0.489892,0.0584 c 0.331,0.03956 0.409085,0.03102 0.240295,-0.02636 -0.137499,-0.04673 -0.365525,-0.08907 -0.506945,-0.09457 l -0.257349,-0.01034 0.0072,1.984892 c 0.0058,1.609072 0.03548,2.018566 0.157096,2.16576 0.1361,0.164765 0.154588,0.09505 0.199988,-0.759127 0.02802,-0.527457 0.09386,-0.941545 0.149862,-0.941545 0.05816,0 0.126047,0.529668 0.161747,1.266073 0.07783,1.60557 0.263965,2.830601 0.502295,3.305224 0.1025,0.204059 0.187102,0.474023 0.188102,0.599964 0.0032,0.336357 0.334575,0.982305 0.694014,1.353922 0.17289,0.17875 0.328099,0.325045 0.345199,0.325045 0.0171,0 0.0093,-0.113372 -0.01705,-0.251664 -0.06843,-0.357947 0.207139,-0.231699 0.471289,0.216007 0.26826,0.454657 0.258267,0.615657 -0.04754,0.754993 l -0.252698,0.114722 0.267684,0.279569 0.267684,0.279053 -0.240296,0.35295 c -0.24452,0.359042 -0.390157,0.447926 -0.390157,0.237711 0,-0.06417 -0.02866,-0.0881 -0.06356,-0.05323 -0.03487,0.03487 -0.176126,-0.02513 -0.313676,-0.133325 -0.13755,-0.108194 -0.330514,-0.196888 -0.428914,-0.196888 -0.09837,0 -0.306001,-0.104559 -0.461471,-0.232544 -0.388229,-0.319601 -1.14286,-0.667659 -1.44849,-0.667659 -0.13912,0 -0.334582,-0.08999 -0.434082,-0.199988 -0.09955,-0.11 -0.286499,-0.199988 -0.415479,-0.199988 -0.1418,0 -0.234611,-0.05917 -0.234611,-0.149861 0,-0.0825 0.06271,-0.149862 0.13901,-0.149862 0.17112,0 0.266029,-0.555118 0.119889,-0.701249 -0.0687,-0.06843 -0.09436,-0.645184 -0.07286,-1.627291 0.0425,-1.942819 0.06091,-2.195192 0.209807,-2.918685 0.0909,-0.441421 0.09457,-0.691622 0.01447,-0.959115 -0.11727,-0.391389 -0.01706,-1.520996 0.179834,-2.025199 0.55858,-2.795126 -0.0079,-1.152503 -0.227376,0.243396 -0.09237,0.168885 -0.104722,0.643337 -0.114722,1.487765 -0.01888,1.63652 -0.0062,1.569097 -0.322978,1.720825 -0.209399,0.100313 -0.29018,0.227105 -0.33848,0.530717 -0.03488,0.219296 -0.126405,0.601027 -0.203605,0.848527 -0.11465,0.367481 -0.188623,0.455887 -0.403593,0.481107 -0.24985,0.02931 -0.265993,0.0037 -0.314193,-0.500228 -0.02795,-0.291982 -0.122406,-1.273246 -0.209806,-2.180745 -0.08741,-0.907499 -0.158097,-2.221198 -0.157097,-2.919202 0.0017,-1.127896 -0.07677,-1.557882 -0.236678,-1.299145 -0.02873,0.04654 -0.08496,0.980752 -0.125057,2.076359 -0.08735,2.385525 -0.212442,2.208104 -0.226342,-0.320911 -0.0081,-1.473669 -0.03775,-1.835455 -0.158647,-1.935799 -0.06135,-0.05091 -0.15254,-0.08056 -0.229443,-0.07855 z m -3.761528,2.98018 c 0.01206,0.0063 0.02655,0.03216 0.04393,0.07545 0.09959,0.248022 0.137851,0.728479 0.304891,3.807003 0.06074,1.119385 0.150888,2.176614 0.199988,2.349728 0.04909,0.173114 0.235762,0.436094 0.414962,0.583943 0.261219,0.215508 0.300724,0.293645 0.200504,0.394808 -0.0687,0.0694 -0.12454,0.315088 -0.12454,0.545703 0,0.524784 -0.19051,0.618141 -0.525549,0.257866 -0.27118,-0.291613 -0.464513,-1.117245 -0.261483,-1.117245 0.19354,0 0.02005,-1.121604 -0.273369,-1.766817 -0.214989,-0.472791 -0.271339,-0.763188 -0.297139,-1.53324 -0.01751,-0.522499 -0.07828,-1.130305 -0.134875,-1.350305 -0.13265,-0.514356 -0.136932,-1.249536 -0.0078,-1.249536 0.055,0 0.09974,0.04474 0.09974,0.09973 0,0.055 0.06788,0.100253 0.150378,0.100253 0.11794,0 0.151063,-0.144896 0.156063,-0.675411 0.0036,-0.38433 0.01808,-0.540688 0.05426,-0.521932 z" /><path
       id="path6"
       style="fill:#e86966"
       d="m 33.56746,22.936068 c -0.06819,-0.0017 -0.07537,0.250774 -5.17e-4,0.997872 -0.03407,0.518653 -0.161775,1.074286 -0.224275,1.23455 -0.200313,0.513355 -0.253622,1.640392 -0.135393,2.035017 0.0801,0.267493 0.07633,0.517694 -0.01447,0.959115 -0.14889,0.723493 -0.16679,0.975866 -0.20929,2.918685 -0.0215,0.982107 0.0045,1.558861 0.07286,1.627291 0.14613,0.146131 0.05073,0.701249 -0.120406,0.701249 -0.07625,0 -0.138493,0.06736 -0.138493,0.149862 0,0.09069 0.09283,0.149861 0.234611,0.149861 0.12897,0 0.315979,0.08999 0.415479,0.199988 0.09955,0.11 0.294972,0.199988 0.434082,0.199988 0.30564,0 1.060251,0.348058 1.44849,0.667659 0.15547,0.127985 0.363071,0.232544 0.461471,0.232544 0.09836,0 0.291364,0.08869 0.428914,0.196888 0.13755,0.108202 0.278776,0.168195 0.313676,0.133325 0.0349,-0.03486 0.06356,-0.01094 0.06356,0.05323 0,0.210215 0.145627,0.121331 0.390157,-0.237711 l 0.240296,-0.35295 -0.267684,-0.279053 -0.267684,-0.279569 0.252181,-0.114722 c 0.305799,-0.139336 0.316309,-0.300336 0.04806,-0.754993 -0.26416,-0.447706 -0.539689,-0.573954 -0.471289,-0.216007 0.026,0.138292 0.03415,0.251664 0.01705,0.251664 -0.01709,0 -0.172826,-0.146295 -0.345715,-0.325045 -0.35944,-0.371617 -0.690498,-1.017565 -0.693498,-1.353922 -0.0012,-0.125941 -0.08615,-0.395905 -0.188619,-0.599964 -0.23833,-0.474623 -0.424495,-1.699654 -0.502295,-3.305224 -0.0357,-0.736405 -0.10303,-1.266073 -0.16123,-1.266073 -0.056,0 -0.121862,0.413572 -0.149862,0.941028 -0.04537,0.854175 -0.06385,0.924409 -0.199988,0.759644 -0.12164,-0.147194 -0.151096,-0.556688 -0.157096,-2.16576 -0.007,-1.934513 -0.0023,-1.984892 0.196887,-1.984892 0.19817,0 0.19796,-0.0046 -0.01757,-0.155546 -0.355387,-0.305686 -0.638753,-1.015156 -0.752409,-1.018025 z m -3.444234,0.491443 c -0.107776,0.02029 -0.119731,0.251134 -0.118856,1.34152 0.0019,1.883749 -0.178065,2.029711 -0.358634,0.290938 -0.06934,-0.667728 -0.223063,-1.150317 -0.366903,-1.150317 -0.0583,0 -0.07906,1.123984 -0.05426,2.924886 0.03427,2.48511 0.06532,2.970242 0.206189,3.225126 0.09122,0.165 0.166058,0.423909 0.166398,0.575159 6.9e-4,0.309236 0.112058,0.35162 0.306958,0.116788 0.11445,-0.137909 0.147164,-0.105436 0.253214,0.253732 0.10211,0.345986 0.0962,0.462269 -0.03617,0.727604 -0.1308,0.262213 -0.139893,0.420115 -0.05219,0.932243 0.169259,0.988126 0.48717,1.572728 1.003039,1.846399 0.34282,0.181847 0.42819,0.276702 0.38809,0.429947 -0.08228,0.314616 0.907271,1.234141 1.4981,1.392164 0.28986,0.07752 0.488548,0.19256 0.516248,0.298689 0.102399,0.391598 2.22978,1.283842 2.66392,1.117245 0.246569,-0.09461 0.193816,-0.183875 -0.261483,-0.439767 -0.23145,-0.130069 -0.366957,-0.254409 -0.300757,-0.276469 0.23641,-0.0788 1.17516,0.314128 1.653129,0.691948 0.27914,0.220646 0.596251,0.384473 0.744141,0.384473 0.14178,0 0.228986,0.02841 0.193786,0.06356 -0.03515,0.03515 0.114834,0.152352 0.333313,0.260449 0.21849,0.108097 0.396875,0.235547 0.396875,0.283187 0,0.0841 0.820775,0.493147 1.275375,0.63562 0.12375,0.03878 0.224792,0.112524 0.224792,0.163814 0,0.05129 0.106598,0.09302 0.236678,0.09302 0.130094,0 0.344024,0.08475 0.475423,0.188102 0.23222,0.182665 1.317913,0.512113 1.687753,0.512113 0.10098,0 0.200475,0.05068 0.221175,0.112655 0.02066,0.06198 0.278739,0.136001 0.573608,0.164331 l 0.535885,0.05168 -0.06666,-0.334346 c -0.1458,-0.728997 -0.581555,-1.022189 -1.979724,-1.333252 -0.818849,-0.182177 -1.199215,-0.38326 -1.034045,-0.54622 0.06594,-0.06506 0.389293,0.01369 0.949813,0.23151 0.467499,0.181675 1.312335,0.509048 1.877404,0.727088 0.450951,0.174005 0.891451,0.380784 1.119312,0.518831 a 25,25 0 0 0 1.337903,-1.936316 c -0.79552,-0.202193 -1.530541,-0.383382 -1.877405,-0.454752 -1.038309,-0.213641 -2.305972,-0.7267 -3.056661,-1.237134 -0.688823,-0.468363 -1.399915,-1.169636 -1.399915,-1.380794 0,-0.1042 -0.07888,-0.216164 -0.175183,-0.248564 C 38.837013,34.312513 37.95827,33.594192 37.78374,32.977832 37.7186,32.747791 37.523248,32.40242 37.349658,32.20992 c -0.693389,-0.768934 -0.8386,-1.446832 -0.95343,-4.450374 -0.09067,-2.37138 -0.177463,-3.169048 -0.365352,-3.357418 -0.0832,-0.0831 -0.111272,1.619767 -0.02687,4.915462 0.05282,2.062025 0.234738,3.201607 0.535368,2.929537 0.23379,-0.211577 0.367113,-0.279964 0.735872,0.05684 0.19221,0.175555 0.322461,0.391341 0.322461,0.534851 0,0.361646 0.518839,1.007084 1.191659,1.481564 0.612119,0.431678 0.681451,0.589111 0.258382,0.589111 -0.34395,0 -0.3837,0.142183 -0.161231,0.578259 0.21901,0.429297 0.351385,0.558822 0.831474,0.813387 0.18127,0.09612 0.475194,0.261415 0.652673,0.366903 0.25751,0.15305 0.35996,0.168531 0.50798,0.07648 0.15236,-0.09475 0.268767,-0.06345 0.652156,0.175183 0.48968,0.304783 0.602275,0.446279 0.270785,0.341065 -0.10793,-0.03425 -0.287422,-0.01317 -0.398942,0.04651 -0.15862,0.08489 -0.303016,0.06295 -0.663526,-0.101286 -0.529933,-0.241405 -0.709734,-0.208138 -0.799434,0.149345 -0.05709,0.227472 -0.150461,0.297387 -0.359151,0.268717 -0.58435,-0.08027 -1.386451,-0.255701 -2.52181,-0.552421 -2.789437,-0.729007 -4.706266,-1.824882 -5.267896,-3.011702 -0.461599,-0.97553 -0.488086,-1.144416 -0.545186,-3.450436 -0.03066,-1.237499 -0.09849,-2.632053 -0.150895,-3.099552 -0.05237,-0.4675 -0.102655,-1.255282 -0.112655,-1.750281 -0.0096,-0.495 -0.04828,0.05682 -0.08578,1.226282 -0.06391,1.994797 -0.106079,2.349585 -0.261999,2.193664 -0.13479,-0.134788 -0.271536,-2.003932 -0.278536,-3.818371 -0.0071,-1.713517 -0.02476,-1.901405 -0.180351,-1.931665 -0.01956,-0.0038 -0.0368,-0.005 -0.05219,-0.0021 z m -3.765662,2.885095 c -0.03614,-0.01876 -0.04999,0.137604 -0.05374,0.521932 -0.005,0.530515 -0.03869,0.675411 -0.15658,0.675411 -0.0825,0 -0.149861,-0.04525 -0.149861,-0.100253 0,-0.055 -0.04525,-0.09973 -0.100253,-0.09973 -0.12888,0 -0.124081,0.73518 0.0083,1.249536 0.05655,0.22 0.117375,0.827806 0.134875,1.350305 0.0258,0.770052 0.08161,1.060449 0.296623,1.53324 0.293429,0.645213 0.467415,1.766817 0.273885,1.766817 -0.20303,0 -0.01021,0.825632 0.260966,1.117245 0.335039,0.360275 0.525549,0.266918 0.525549,-0.257866 0,-0.230615 0.05636,-0.476303 0.125057,-0.545703 0.10021,-0.101163 0.06019,-0.1793 -0.201021,-0.394808 -0.1792,-0.147849 -0.365862,-0.410829 -0.414962,-0.583943 -0.04909,-0.173114 -0.138771,-1.230343 -0.199471,-2.349728 -0.16705,-3.078524 -0.205808,-3.558981 -0.305408,-3.807003 -0.01738,-0.04329 -0.03188,-0.0692 -0.04393,-0.07545 z" /></g></svg>
