<?xml version="1.0" encoding="UTF-8" standalone="no"?>
<svg
        xml:space="preserve"
        width="40"
        height="40"
        version="1.1"
        style="clip-rule:evenodd;fill-rule:evenodd;image-rendering:optimizeQuality;shape-rendering:geometricPrecision;text-rendering:geometricPrecision"
        viewBox="0 0 40 40"
        id="svg3"
        xmlns="http://www.w3.org/2000/svg">
 <defs
         id="defs1">
  <style
          type="text/css"
          id="style1">
   <![CDATA[
    .fil0 {fill:black}
    .fil1 {fill:#00CAFE}
    .fil2 {fill:#00EBFE}
   ]]>
  </style>
 </defs>
    <g
            id="Layer_x0020_1">
  <metadata
          id="CorelCorpID_0Corel-Layer"/>
        <g
                id="_40100767872"
                transform="matrix(0.08695652,0,0,0.08695652,-1.73913,-1.73913)">
   <path
           class="fil0"
           d="m 304.28,208.97 c -8.19,1.17 -12.18,2.78 -22.08,-0.37 -12.19,-3.88 -21.07,-11.84 -25.41,-24.25 -2.43,-6.93 -2.4,-14.85 -0.63,-22.03 7.53,-30.42 44.14,-36.01 61.91,-19.96 9.48,8.56 15.77,22.47 13.29,35.81 -1.13,6.1 -1.35,4.59 2.38,8.33 8.48,8.51 66.61,65.7 68.18,68.62 L 305.2,351.54 279.61,325.8 c 6.6,-7.48 26.75,-26.96 35.16,-35.4 10.39,-10.42 25.93,-25.38 35.33,-35.51 -6.95,-7.71 -15.28,-15.36 -22.76,-22.89 -7.66,-7.7 -15.17,-15.63 -23.06,-23.03 z M 250,20 480,250 250,480 20,250 Z M 98.24,244.94 c 2.05,-1.81 4.09,-4.24 6.11,-6.27 10.24,-10.29 88.04,-88.72 90.46,-90.22 l 25.65,25.76 -70.69,70.88 45.95,45.94 c 7.41,-1 9.93,-2.87 19.95,-0.26 33.28,8.64 36.6,46.72 18.79,64.2 -8.07,7.92 -16.22,11.41 -30,11.41 -20.21,-0.01 -36.27,-18.51 -36.29,-39.56 -0.02,-12.81 6.51,-4.98 -7.39,-18.88 l -27,-26.82 c -4.66,-4.63 -34.09,-33.36 -35.54,-36.18 z"
           id="path1"/>
            <path
                    class="fil1"
                    d="m 98.24,244.94 c 1.45,2.82 30.88,31.55 35.54,36.18 l 27,26.82 c 13.9,13.9 7.37,6.07 7.39,18.88 0.02,21.05 16.08,39.55 36.29,39.56 13.78,0 21.93,-3.49 30,-11.41 17.81,-17.48 14.49,-55.56 -18.79,-64.2 -10.02,-2.61 -12.54,-0.74 -19.95,0.26 l -45.95,-45.94 70.69,-70.88 -25.65,-25.76 c -2.42,1.5 -80.22,79.93 -90.46,90.22 -2.02,2.03 -4.06,4.46 -6.11,6.27 z"
                    id="path2"/>
            <path
                    class="fil2"
                    d="m 304.28,208.97 c 7.89,7.4 15.4,15.33 23.06,23.03 7.48,7.53 15.81,15.18 22.76,22.89 -9.4,10.13 -24.94,25.09 -35.33,35.51 -8.41,8.44 -28.56,27.92 -35.16,35.4 l 25.59,25.74 96.72,-96.42 c -1.57,-2.92 -59.7,-60.11 -68.18,-68.62 -3.73,-3.74 -3.51,-2.23 -2.38,-8.33 2.48,-13.34 -3.81,-27.25 -13.29,-35.81 -17.77,-16.05 -54.38,-10.46 -61.91,19.96 -1.77,7.18 -1.8,15.1 0.63,22.03 4.34,12.41 13.22,20.37 25.41,24.25 9.9,3.15 13.89,1.54 22.08,0.37 z"
                    id="path3"/>
  </g>
 </g>
</svg>
