<?xml version="1.0" encoding="UTF-8" standalone="no"?>
<!-- Created with Inkscape (http://www.inkscape.org/) -->

<svg
        width="500"
        height="500"
        viewBox="0 0 132.29166 132.29167"
        version="1.1"
        id="svg635"
        xml:space="preserve"
        xmlns:xlink="http://www.w3.org/1999/xlink"
        xmlns="http://www.w3.org/2000/svg"><defs
     id="defs632"><linearGradient
       id="linearGradient111356"><stop
         style="stop-color:#0095ff;stop-opacity:1;"
         offset="0.13443395"
         id="stop111346" /><stop
        style="stop-color:#3751e9;stop-opacity:1;"
        offset="0.24359529"
        id="stop111348"/><stop
        style="stop-color:#00febc;stop-opacity:1;"
        offset="0.54720592"
        id="stop111350"/><stop
        style="stop-color:#784dff;stop-opacity:1;"
        offset="0.82445109"
        id="stop111352"/><stop
        style="stop-color:#ff00e6;stop-opacity:1;"
        offset="0.94575471"
        id="stop111354"/></linearGradient><linearGradient
        id="linearGradient26495"><stop
         style="stop-color:#142a36;stop-opacity:1;"
         offset="0.19575472"
         id="stop24618" />
    <stop
            style="stop-color:#4d2d47;stop-opacity:1;"
            offset="0.28211176"
            id="stop38662"/>
    <stop
            style="stop-color:#174d45;stop-opacity:1;"
            offset="0.46784464"
            id="stop38664"/>
    <stop
            style="stop-color:#2a4973;stop-opacity:1;"
            offset="0.60932553"
            id="stop56476"/>
    <stop
            style="stop-color:#142a36;stop-opacity:1;"
            offset="0.84198111"
            id="stop26493"/></linearGradient><filter
        y="-0.1960436"
        height="1.3920872"
        style="color-interpolation-filters:sRGB"
        id="filter3896"
        x="-0.1960436"
        width="1.3920872"><feGaussianBlur
         stdDeviation="5"
         result="result6"
         id="feGaussianBlur3886" />
    <feComposite
            result="result8"
            in="SourceGraphic"
            operator="atop"
            in2="result6"
            id="feComposite3888"/>
    <feComposite
            result="result9"
            operator="over"
            in2="SourceAlpha"
            in="result8"
            id="feComposite3890"/>
    <feColorMatrix
            values="1 0 0 0 0 0 1 0 0 0 0 0 1 0 0 0 0 0 1 0 "
            result="result10"
            id="feColorMatrix3892"/>
    <feBlend
            in="result10"
            mode="normal"
            in2="result6"
            id="feBlend3894"/></filter><linearGradient
        xlink:href="#linearGradient26495"
        id="linearGradient38611"
        x1="272.04691"
        y1="171.72151"
        x2="125.76354"
        y2="88.467049"
        gradientUnits="userSpaceOnUse"/><linearGradient
        xlink:href="#linearGradient111356"
        id="linearGradient111344"
        x1="132.65027"
        y1="104.87732"
        x2="249.44702"
        y2="157.26483"
        gradientUnits="userSpaceOnUse"/><linearGradient
        xlink:href="#linearGradient111356"
        id="linearGradient114914"
        gradientUnits="userSpaceOnUse"
        x1="132.65027"
        y1="104.87732"
        x2="249.44702"
        y2="157.26483"/><linearGradient
        xlink:href="#linearGradient111356"
        id="linearGradient114916"
        gradientUnits="userSpaceOnUse"
        x1="132.65027"
        y1="104.87732"
        x2="249.44702"
        y2="157.26483"/><linearGradient
        xlink:href="#linearGradient111356"
        id="linearGradient114918"
        gradientUnits="userSpaceOnUse"
        x1="132.65027"
        y1="104.87732"
        x2="249.44702"
        y2="157.26483"/><linearGradient
        xlink:href="#linearGradient111356"
        id="linearGradient114920"
        gradientUnits="userSpaceOnUse"
        x1="132.65027"
        y1="104.87732"
        x2="249.44702"
        y2="157.26483"/><linearGradient
        xlink:href="#linearGradient111356"
        id="linearGradient114922"
        gradientUnits="userSpaceOnUse"
        x1="132.65027"
        y1="104.87732"
        x2="249.44702"
        y2="157.26483"/><linearGradient
        xlink:href="#linearGradient111356"
        id="linearGradient114924"
        gradientUnits="userSpaceOnUse"
        x1="132.65027"
        y1="104.87732"
        x2="249.44702"
        y2="157.26483"/><linearGradient
        xlink:href="#linearGradient111356"
        id="linearGradient114926"
        gradientUnits="userSpaceOnUse"
        x1="132.65027"
        y1="104.87732"
        x2="249.44702"
        y2="157.26483"/><linearGradient
        xlink:href="#linearGradient111356"
        id="linearGradient114928"
        gradientUnits="userSpaceOnUse"
        x1="132.65027"
        y1="104.87732"
        x2="249.44702"
        y2="157.26483"/><linearGradient
        xlink:href="#linearGradient111356"
        id="linearGradient114930"
        gradientUnits="userSpaceOnUse"
        x1="132.65027"
        y1="104.87732"
        x2="249.44702"
        y2="157.26483"/></defs>
    <g
            id="g115320"
            transform="translate(-132.29167,-49.449124)"><circle
         style="display:inline;fill:url(#linearGradient38611);fill-opacity:1;stroke-width:0.339084"
         id="path517"
         cx="198.4375"
         cy="115.59491"
         r="66.145836"/>
        <g
                id="g8807"
                transform="translate(-84.86299,-6.1444094)"
                style="fill:#ffffff;fill-opacity:1"><path
           style="fill:#ffffff;fill-opacity:1;stroke-width:0.264583"
           d="m 247.00508,85.34466 c -0.0234,-0.395358 -0.38839,-1.282859 -0.99472,-1.71625 -0.47624,-0.340405 -1.35436,-0.442216 -1.34603,-0.597964 0.0113,-0.212123 1.17235,-0.414073 1.6107,-0.863575 0.56512,-0.579493 0.5518,-1.960645 0.78096,-1.960065 0.24858,6.3e-4 0.39421,1.259367 0.96621,1.96275 0.48255,0.593378 1.64655,0.646043 1.6697,0.86581 0.0159,0.150567 -1.16425,0.125425 -1.77093,0.69007 -0.63268,0.588845 -0.84148,1.610956 -0.84148,1.610956"
           id="path8783"/>
            <path
                    style="fill:#ffffff;fill-opacity:1;stroke-width:0.118387"
                    d="m 262.28119,82.040033 c -0.0105,-0.176902 -0.17378,-0.57401 -0.44508,-0.767929 -0.2131,-0.152313 -0.60601,-0.197868 -0.60228,-0.267557 0.005,-0.09491 0.52456,-0.185275 0.7207,-0.386403 0.25286,-0.259292 0.2469,-0.877282 0.34944,-0.877023 0.11122,2.82e-4 0.17639,0.563499 0.43233,0.878225 0.21591,0.265504 0.73674,0.289069 0.7471,0.387403 0.007,0.06737 -0.52094,0.05612 -0.7924,0.308769 -0.28309,0.263476 -0.37652,0.720815 -0.37652,0.720815"
                    id="path8785"/>
            <path
                    style="fill:#ffffff;fill-opacity:1;stroke-width:0.118387"
                    d="m 264.62937,66.297325 c -0.0105,-0.176902 -0.17378,-0.57401 -0.44508,-0.767929 -0.2131,-0.152313 -0.60601,-0.197868 -0.60228,-0.267557 0.005,-0.09491 0.52456,-0.185275 0.7207,-0.386403 0.25286,-0.259292 0.2469,-0.877282 0.34944,-0.877023 0.11122,2.82e-4 0.17639,0.563499 0.43233,0.878225 0.21591,0.265504 0.73674,0.289069 0.7471,0.387403 0.007,0.06737 -0.52094,0.05612 -0.7924,0.308769 -0.28309,0.263476 -0.37652,0.720815 -0.37652,0.720815"
                    id="path8787"/>
            <path
                    style="fill:#ffffff;fill-opacity:1;stroke-width:0.118387"
                    d="m 241.94135,97.187429 c -0.0105,-0.176902 -0.17378,-0.57401 -0.44508,-0.767929 -0.2131,-0.152313 -0.60601,-0.197868 -0.60228,-0.267557 0.005,-0.09491 0.52456,-0.185275 0.7207,-0.386403 0.25286,-0.259292 0.2469,-0.877282 0.34944,-0.877023 0.11122,2.82e-4 0.17639,0.563499 0.43233,0.878225 0.21591,0.265504 0.73674,0.289069 0.7471,0.387403 0.007,0.06737 -0.52094,0.05612 -0.7924,0.308769 -0.28309,0.263476 -0.37652,0.720815 -0.37652,0.720815"
                    id="path8789"/>
            <path
                    style="fill:#ffffff;fill-opacity:1;stroke-width:0.118387"
                    d="m 234.53302,105.85253 c -0.0105,-0.1769 -0.17378,-0.57401 -0.44508,-0.76793 -0.2131,-0.15231 -0.60601,-0.19786 -0.60228,-0.26755 0.005,-0.0949 0.52456,-0.18528 0.7207,-0.38641 0.25286,-0.25929 0.2469,-0.87728 0.34944,-0.87702 0.11122,2.8e-4 0.17639,0.5635 0.43233,0.87823 0.21591,0.2655 0.73674,0.28907 0.7471,0.3874 0.007,0.0674 -0.52094,0.0561 -0.7924,0.30877 -0.28309,0.26347 -0.37652,0.72081 -0.37652,0.72081"
                    id="path8791"/>
            <path
                    style="fill:#ffffff;fill-opacity:1;stroke-width:0.0758081"
                    d="m 223.81217,120.1731 c -0.007,-0.11328 -0.11127,-0.36756 -0.285,-0.49174 -0.13646,-0.0975 -0.38805,-0.1267 -0.38566,-0.17132 0.003,-0.0608 0.33589,-0.11864 0.46149,-0.24744 0.16192,-0.16603 0.1581,-0.56176 0.22376,-0.56159 0.0712,1.8e-4 0.11295,0.36083 0.27684,0.56237 0.13826,0.17001 0.47177,0.1851 0.4784,0.24807 0.004,0.0432 -0.33358,0.0359 -0.50741,0.19771 -0.18127,0.16872 -0.2411,0.46157 -0.2411,0.46157"
                    id="path8793"/>
            <path
                    style="fill:#ffffff;fill-opacity:1;stroke-width:0.118387"
                    d="m 314.8876,175.26242 c -0.0105,-0.1769 -0.17378,-0.57401 -0.44508,-0.76793 -0.2131,-0.15231 -0.60601,-0.19786 -0.60228,-0.26755 0.005,-0.0949 0.52456,-0.18528 0.7207,-0.38641 0.25286,-0.25929 0.2469,-0.87728 0.34944,-0.87702 0.11122,2.8e-4 0.17639,0.5635 0.43233,0.87823 0.21591,0.2655 0.73674,0.28907 0.7471,0.3874 0.007,0.0674 -0.52094,0.0561 -0.7924,0.30877 -0.28309,0.26347 -0.37652,0.72081 -0.37652,0.72081"
                    id="path8795"/>
            <path
                    style="fill:#ffffff;fill-opacity:1;stroke-width:0.0758081"
                    d="m 321.00473,163.76476 c -0.007,-0.11328 -0.11127,-0.36756 -0.285,-0.49174 -0.13646,-0.0975 -0.38805,-0.1267 -0.38566,-0.17132 0.003,-0.0608 0.33589,-0.11864 0.46149,-0.24744 0.16192,-0.16603 0.1581,-0.56176 0.22376,-0.56159 0.0712,1.8e-4 0.11295,0.36083 0.27684,0.56237 0.13826,0.17001 0.47177,0.1851 0.4784,0.24807 0.004,0.0432 -0.33358,0.0359 -0.50741,0.19771 -0.18127,0.16872 -0.2411,0.46157 -0.2411,0.46157"
                    id="path8797"/>
            <path
                    style="fill:#ffffff;fill-opacity:1;stroke-width:0.0758081"
                    d="m 310.06004,178.73185 c -0.007,-0.11328 -0.11127,-0.36756 -0.285,-0.49174 -0.13646,-0.0975 -0.38805,-0.1267 -0.38566,-0.17132 0.003,-0.0608 0.33589,-0.11864 0.46149,-0.24744 0.16192,-0.16603 0.1581,-0.56176 0.22376,-0.56159 0.0712,1.8e-4 0.11295,0.36083 0.27684,0.56237 0.13826,0.17001 0.47177,0.1851 0.4784,0.24807 0.004,0.0432 -0.33358,0.0359 -0.50741,0.19771 -0.18127,0.16872 -0.2411,0.46157 -0.2411,0.46157"
                    id="path8799"/>
            <path
                    style="fill:#ffffff;fill-opacity:1;stroke-width:0.0758081"
                    d="m 335.78473,154.97159 c -0.007,-0.11328 -0.11127,-0.36756 -0.285,-0.49174 -0.13646,-0.0975 -0.38805,-0.1267 -0.38566,-0.17132 0.003,-0.0608 0.33589,-0.11864 0.46149,-0.24744 0.16192,-0.16603 0.1581,-0.56176 0.22376,-0.56159 0.0712,1.8e-4 0.11295,0.36083 0.27684,0.56237 0.13826,0.17001 0.47177,0.1851 0.4784,0.24807 0.004,0.0432 -0.33358,0.0359 -0.50741,0.19771 -0.18127,0.16872 -0.2411,0.46157 -0.2411,0.46157"
                    id="path8801"/>
            <path
                    style="fill:#ffffff;fill-opacity:1;stroke-width:0.0758081"
                    d="m 331.10751,159.18109 c -0.007,-0.11328 -0.11127,-0.36756 -0.285,-0.49174 -0.13646,-0.0975 -0.38805,-0.1267 -0.38566,-0.17132 0.003,-0.0608 0.33589,-0.11864 0.46149,-0.24744 0.16192,-0.16603 0.1581,-0.56176 0.22376,-0.56159 0.0712,1.8e-4 0.11295,0.36083 0.27684,0.56237 0.13826,0.17001 0.47177,0.1851 0.4784,0.24807 0.004,0.0432 -0.33358,0.0359 -0.50741,0.19771 -0.18127,0.16872 -0.2411,0.46157 -0.2411,0.46157"
                    id="path8803"/>
            <path
                    style="fill:#ffffff;fill-opacity:1;stroke-width:0.264583"
                    d="m 322.77599,170.18937 c -0.0234,-0.39536 -0.38839,-1.28286 -0.99472,-1.71625 -0.47624,-0.3404 -1.35436,-0.44221 -1.34603,-0.59796 0.0113,-0.21213 1.17235,-0.41408 1.6107,-0.86358 0.56512,-0.57949 0.5518,-1.96064 0.78096,-1.96006 0.24858,6.3e-4 0.39421,1.25936 0.96621,1.96275 0.48255,0.59338 1.64655,0.64604 1.6697,0.86581 0.0159,0.15056 -1.16425,0.12542 -1.77093,0.69007 -0.63268,0.58884 -0.84148,1.61095 -0.84148,1.61095"
                    id="path8805"/></g>
        <g
                id="g111336"
                style="fill:url(#linearGradient111344);fill-opacity:1"><path
           style="fill:url(#linearGradient114914);fill-opacity:1;stroke-width:0.264583"
           d="m 146.78619,155.19017 c -2.05677,-3.22222 -4.47783,-9.03527 -5.09905,-19.77657 -0.3276,-5.66429 1.27957,-14.14204 5.77846,-21.63236 7.44875,-12.40162 21.10802,-21.564058 24.53975,-24.788472 8.15792,-7.665089 13.98719,-10.79821 20.86992,-20.77327 3.04528,-4.413489 7.31328,-13.819685 6.85984,-12.423983 -0.20397,0.627822 0.001,4.106515 -1.40942,7.959899 -1.233,3.368608 -3.40128,8.73439 -6.80945,13.400706 -3.22653,4.417614 -6.86593,9.389627 -11.60236,13.913516 -4.20743,4.018629 -9.59388,8.728824 -14.41426,13.061784 -2.76743,2.48759 -5.47176,5.445 -7.89147,8.11135 -4.59662,5.06516 -7.93929,10.9456 -10.17656,18.30396 -4.01258,13.19737 -0.65708,23.84832 -0.65708,23.84832"
           id="path8825"/>
            <path
                    id="path8827"
                    style="fill:url(#linearGradient114916);fill-opacity:1;stroke-width:0.264583"
                    d="m 208.62551,50.238794 c -1.50469,5.007113 -0.96294,2.717163 -2.58589,8.812382 -0.95745,3.595842 -2.03029,7.494409 -3.63699,10.716658 -5.86119,11.754724 -11.04519,17.437499 -16.39176,22.966041 -6.28106,6.49482 -10.93758,9.971905 -14.63218,12.740305 -3.08193,2.30931 -5.84978,3.00189 -5.84978,3.00189 l 0.0372,0.0904 c 3.80505,0.36695 12.87632,-4.07979 18.04851,-7.10034 4.89946,-2.861259 16.64195,-12.351716 21.26795,-19.76417 7.33624,-11.755145 9.25206,-24.960697 10.55337,-30.029692 a 66.145836,66.145836 0 0 0 -6.81044,-1.433504 z"/>
            <path
                    id="path8829"
                    style="fill:url(#linearGradient114918);fill-opacity:1;stroke-width:0.264583"
                    d="m 216.49428,64.723181 -0.006,0.0041 c -1.63814,4.415375 -5.80186,17.837051 -13.7449,25.678536 -7.72756,7.628756 -10.58172,8.525932 -20.44578,15.377363 -3.71439,2.57995 -8.47044,6.13676 -11.74347,9.13742 -0.88073,0.80744 -9.06187,6.54248 -16.21503,19.03967 -6.89384,12.04411 -2.71153,24.05469 -2.01176,29.00288 a 66.145836,66.145836 0 0 0 8.51989,7.04091 c 0.10445,-0.0423 0.20411,-0.0772 0.31161,-0.12454 -1.8612,-4.4503 -2.83277,-13.65987 -1.96836,-20.08353 0.49626,-3.68788 6.63564,-15.39568 8.85373,-18.23196 8.90937,-11.39245 16.86459,-17.16475 22.99653,-21.80694 3.03298,-2.29612 9.73995,-7.5936 15.2988,-14.783593 11.85202,-15.329755 10.15494,-30.25035 10.15494,-30.25035 z"/>
            <path
                    id="path8831"
                    style="fill:url(#linearGradient114920);fill-opacity:1;stroke-width:0.264583"
                    d="m 222.67271,55.268461 -0.0599,0.06201 c 0,0 0.0376,0.320423 0.0496,0.411344 0.002,-0.153507 0.0107,-0.334129 0.0103,-0.473356 z m -0.0103,0.473356 c -0.10254,6.319237 -2.63104,24.451408 -8.54212,33.605701 -4.88329,7.562604 -9.06036,11.700942 -20.9088,20.735172 -3.59632,2.74213 -9.79336,8.38571 -13.06638,11.38638 -0.88073,0.80744 -10.13826,7.74372 -15.28899,19.2381 -5.35056,11.94031 -3.16018,24.99672 -2.56109,30.2426 a 66.145836,66.145836 0 0 0 10.81588,5.71231 c -1.79376,-4.52668 -2.44974,-13.50296 -1.88206,-19.8546 0.43011,-4.81236 2.77283,-13.03524 6.86935,-18.23196 9.17666,-11.64118 18.54888,-19.7573 24.2533,-24.91579 8.39079,-7.58779 10.53371,-10.83474 12.71912,-13.725261 11.2177,-14.836944 7.87989,-42.015504 7.59179,-44.192652 z"/>
            <path
                    style="fill:url(#linearGradient114922);fill-opacity:1;stroke-width:0.17601"
                    d="m 183.13,151.03342 c 0.44431,-2.44014 4.70654,-8.19403 8.90814,-12.74003 3.93273,-4.25508 8.05683,-7.54956 13.55517,-12.74087 4.88132,-4.60874 6.82038,-7.24403 9.09168,-9.40132 3.60524,-3.42428 8.55476,-10.95257 12.55544,-19.69186 2.08346,-4.55122 3.65732,-8.408732 4.61825,-14.368085 0.56785,-3.521612 1.58805,-18.573947 1.29142,-17.643858 -0.13342,0.418378 2.11804,7.258905 2.55217,12.128941 0.67557,7.578518 -0.9908,15.975707 -1.956,19.696582 -1.00796,3.88575 -5.6112,15.29314 -10.1939,20.6162 -2.27904,2.64722 -4.02843,5.10201 -12.1143,12.20199 -1.86011,1.63331 -7.31313,5.13947 -9.61706,6.6871 -3.66745,2.46356 -9.14149,6.36989 -10.45943,7.37761 -2.44736,1.8713 -8.21883,7.98013 -8.21883,7.98013"
                    id="path8833"/>
            <path
                    id="path8835"
                    style="fill:url(#linearGradient114924);fill-opacity:1;stroke-width:0.264583"
                    d="m 235.59389,104.95432 c -0.10643,-0.10047 -4.03611,8.42541 -6.89105,12.56305 -6.88273,9.97505 -12.71214,13.10833 -20.87005,20.77341 -3.43172,3.22442 -17.09084,12.38655 -24.53959,24.78815 -3.03552,5.05394 -4.75017,10.55469 -5.44669,15.34015 a 66.145836,66.145836 0 0 0 5.3821,1.53221 c 0.0107,-0.0357 0.0196,-0.0708 0.0305,-0.10645 2.23727,-7.35836 5.58002,-13.23916 10.17664,-18.30431 2.41971,-2.66635 5.12408,-5.62355 7.89151,-8.11114 4.82037,-4.33295 10.20668,-9.0431 14.4141,-13.06173 4.73643,-4.52389 8.37587,-9.49626 11.6024,-13.91388 3.40816,-4.66631 5.5764,-10.03213 6.8094,-13.40073 1.41042,-3.85339 1.20525,-7.3319 1.40922,-7.95972 0.0283,-0.0872 0.0386,-0.13232 0.0315,-0.13901 z"/>
            <path
                    id="path8837"
                    style="fill:url(#linearGradient114926);fill-opacity:1;stroke-width:0.264583"
                    d="m 251.08597,75.559729 c -0.002,2.928814 0.12534,5.972623 0.51883,9.099703 0.72635,5.772711 1.93083,12.826409 2.93419,19.229838 0.57603,3.67626 0.80642,7.67678 0.99993,11.27218 0.36762,6.83006 -0.75193,13.50121 -3.66179,20.62044 -5.21888,12.7685 -14.54485,18.91099 -14.54485,18.91099 l -0.51108,0.60927 c 3.62922,-1.20071 9.17646,-4.18117 16.43879,-12.11968 3.8297,-4.18625 7.935,-11.77586 9.17412,-20.42511 1.8348,-12.80735 -1.8106,-26.716403 -3.05098,-32.856388 a 66.145836,66.145836 0 0 0 -8.29716,-14.341243 z"/>
            <path
                    style="fill:url(#linearGradient114928);fill-opacity:1;stroke-width:0.17601"
                    d="m 196.5326,162.37329 c 2.85024,-1.16877 7.3392,-4.36634 12.0081,-8.43092 11.3709,-8.04136 24.2809,-20.05497 29.1759,-30.69598 2.77523,-4.12571 5.97108,-12.83008 7.97767,-22.22978 1.04498,-4.89513 1.74324,-9.002432 1.38659,-15.028205 -0.21075,-3.560874 -2.48492,-18.475357 -2.57242,-17.503039 -0.0393,0.43737 3.6444,6.625418 5.12614,11.284835 2.30578,7.25077 2.50347,15.809408 2.36966,19.651099 -0.13974,4.01193 -2.15487,16.1469 -5.47174,22.33839 -1.64952,3.0791 -2.82385,5.85531 -9.17418,14.54232 -8.2518,11.07665 -29.88737,24.61313 -40.83777,26.16859"
                    id="path8839"/>
            <path
                    id="path8841"
                    style="fill:url(#linearGradient114930);fill-opacity:1;stroke-width:0.305374"
                    d="m 244.08588,128.02371 c 0,0 -0.59431,3.2395 -3.02824,6.95875 -2.91779,4.45864 -6.5814,10.07645 -13.60176,17.78754 -5.97588,6.56388 -12.14146,12.95244 -25.25117,20.56567 -3.59368,2.08698 -8.00568,3.60837 -12.0773,4.97489 -3.61257,1.21248 -4.61286,1.57092 -5.54901,1.93477 a 66.145836,66.145836 0 0 0 13.8591,1.49551 66.145836,66.145836 0 0 0 7.6817,-0.49351 c 3.34928,-1.64177 6.74746,-3.59092 10.01386,-5.93038 8.19868,-5.87204 18.26852,-20.09351 21.20491,-25.94674 3.09984,-6.17905 7.55713,-16.95391 6.85539,-21.30981 z"/></g></g></svg>
