<?xml version="1.0" encoding="UTF-8" standalone="no"?>
<svg
   id="svg8"
   version="1.1"
   viewBox="0 0 52.916667 52.916666"
   height="200"
   width="200"
   sodipodi:docname="pluginIcon.svg"
   inkscape:version="1.3 (0e150ed, 2023-07-21)"
   xmlns:inkscape="http://www.inkscape.org/namespaces/inkscape"
   xmlns:sodipodi="http://sodipodi.sourceforge.net/DTD/sodipodi-0.dtd"
   xmlns:xlink="http://www.w3.org/1999/xlink"
   xmlns="http://www.w3.org/2000/svg"
   xmlns:svg="http://www.w3.org/2000/svg">
  <sodipodi:namedview
     id="namedview1"
     pagecolor="#ffffff"
     bordercolor="#666666"
     borderopacity="1.0"
     inkscape:showpageshadow="2"
     inkscape:pageopacity="0.0"
     inkscape:pagecheckerboard="0"
     inkscape:deskcolor="#d1d1d1"
     inkscape:document-units="mm"
     inkscape:zoom="1.4939284"
     inkscape:cx="10.710018"
     inkscape:cy="51.207275"
     inkscape:current-layer="svg8" />
  <defs
     id="defs2">
    <linearGradient
       id="linearGradient1090">
      <stop
         style="stop-color:#17170c;stop-opacity:1"
         offset="0"
         id="stop1084" />
      <stop
         style="stop-color:#33311d;stop-opacity:1"
         offset="0.36847237"
         id="stop1086" />
      <stop
         style="stop-color:#222e13;stop-opacity:1;"
         offset="1"
         id="stop1088" />
    </linearGradient>
    <linearGradient
       id="linearGradient1038">
      <stop
         style="stop-color:#207fb7;stop-opacity:1;"
         offset="0"
         id="stop1034" />
      <stop
         id="stop1043"
         offset="0.5023337"
         style="stop-color:#42b8da;stop-opacity:1;" />
      <stop
         style="stop-color:#92d1d1;stop-opacity:1;"
         offset="0.86024922"
         id="stop1050" />
      <stop
         id="stop1052"
         offset="0.87288398"
         style="stop-color:#377263;stop-opacity:1;" />
      <stop
         style="stop-color:#329e93;stop-opacity:1;"
         offset="1"
         id="stop1036" />
    </linearGradient>
    <linearGradient
       id="linearGradient1241">
      <stop
         style="stop-color:#112970;stop-opacity:0"
         offset="0"
         id="stop1227" />
      <stop
         id="stop1229"
         offset="0.1705683"
         style="stop-color:#9396b4;stop-opacity:0" />
      <stop
         id="stop1231"
         offset="0.23960602"
         style="stop-color:#5a939e;stop-opacity:0.5" />
      <stop
         id="stop1233"
         offset="0.35162735"
         style="stop-color:#32d591;stop-opacity:1" />
      <stop
         style="stop-color:#026a7b;stop-opacity:0.69999999"
         offset="0.40906233"
         id="stop1235" />
      <stop
         id="stop1237"
         offset="0.47287473"
         style="stop-color:#013f61;stop-opacity:0.69999999" />
      <stop
         style="stop-color:#18215d;stop-opacity:0.2"
         offset="1"
         id="stop1239" />
    </linearGradient>
    <linearGradient
       id="linearGradient1185">
      <stop
         id="stop1179"
         offset="0"
         style="stop-color:#112970;stop-opacity:0" />
      <stop
         style="stop-color:#063e87;stop-opacity:0"
         offset="0.1705683"
         id="stop1191" />
      <stop
         style="stop-color:#501777;stop-opacity:0.69999999"
         offset="0.23960602"
         id="stop1189" />
      <stop
         style="stop-color:#be56c8;stop-opacity:1"
         offset="0.35162735"
         id="stop1181" />
      <stop
         id="stop1211"
         offset="0.40906233"
         style="stop-color:#998eb7;stop-opacity:0.80000001" />
      <stop
         style="stop-color:#4b79b2;stop-opacity:0"
         offset="0.47287473"
         id="stop1213" />
      <stop
         id="stop1183"
         offset="1"
         style="stop-color:#18215d;stop-opacity:0.1" />
    </linearGradient>
    <linearGradient
       id="linearGradient1173">
      <stop
         style="stop-color:#edfd9c;stop-opacity:1"
         offset="0"
         id="stop1165" />
      <stop
         id="stop1167"
         offset="0.15613621"
         style="stop-color:#05dd8a;stop-opacity:1" />
      <stop
         style="stop-color:#8448c1;stop-opacity:0.2"
         offset="0.64558178"
         id="stop1215" />
      <stop
         style="stop-color:#1d1b5a;stop-opacity:1"
         offset="1"
         id="stop1171" />
    </linearGradient>
    <linearGradient
       id="linearGradient1159">
      <stop
         style="stop-color:#ebf3c1;stop-opacity:1"
         offset="0"
         id="stop1155" />
      <stop
         id="stop1161"
         offset="0.42436266"
         style="stop-color:#1bd2a8;stop-opacity:1" />
      <stop
         style="stop-color:#485590;stop-opacity:1"
         offset="1"
         id="stop1157" />
    </linearGradient>
    <linearGradient
       id="linearGradient1006">
      <stop
         id="stop1002"
         offset="0"
         style="stop-color:#ffffff;stop-opacity:1" />
      <stop
         id="stop1004"
         offset="1"
         style="stop-color:#0c9ca6;stop-opacity:1" />
    </linearGradient>
    <linearGradient
       id="linearGradient998">
      <stop
         id="stop994"
         offset="0"
         style="stop-color:#fbecfd;stop-opacity:1" />
      <stop
         style="stop-color:#fbd4f9;stop-opacity:1"
         offset="0.30084872"
         id="stop960" />
      <stop
         style="stop-color:#f46cec;stop-opacity:1"
         offset="0.48738721"
         id="stop958" />
      <stop
         id="stop996"
         offset="1"
         style="stop-color:#2b1562;stop-opacity:1" />
    </linearGradient>
    <radialGradient
       gradientUnits="userSpaceOnUse"
       gradientTransform="matrix(-0.00175357,-1.1194463,3.8350942,-0.00596288,-211.82301,-15.528179)"
       r="25.000002"
       fy="42.443012"
       fx="27.718891"
       cy="42.443012"
       cx="27.718891"
       id="radialGradient1000"
       xlink:href="#linearGradient1173" />
    <radialGradient
       gradientTransform="matrix(0.00279899,0.6185787,-0.99998976,0.00452483,-13.248657,-56.47884)"
       gradientUnits="userSpaceOnUse"
       r="24.999975"
       fy="35.676865"
       fx="21.644688"
       cy="35.676865"
       cx="21.644688"
       id="radialGradient1008"
       xlink:href="#linearGradient1159" />
    <linearGradient
       id="linearGradient1178">
      <stop
         style="stop-color:#b9d3ef;stop-opacity:1"
         offset="0"
         id="stop1172" />
      <stop
         id="stop1182"
         offset="0.39268181"
         style="stop-color:#abbedf;stop-opacity:1" />
      <stop
         id="stop1180"
         offset="0.65048969"
         style="stop-color:#f6c39b;stop-opacity:1" />
      <stop
         style="stop-color:#ee8a80;stop-opacity:1"
         offset="1"
         id="stop1176" />
    </linearGradient>
    <linearGradient
       id="linearGradient1162">
      <stop
         id="stop1150"
         offset="0"
         style="stop-color:#307eb9;stop-opacity:1" />
      <stop
         style="stop-color:#7dbbc6;stop-opacity:1"
         offset="0.22724211"
         id="stop1152" />
      <stop
         id="stop1154"
         offset="0.49423918"
         style="stop-color:#efdeaa;stop-opacity:1" />
      <stop
         id="stop1160"
         offset="1"
         style="stop-color:#fef8f7;stop-opacity:1" />
    </linearGradient>
    <linearGradient
       id="linearGradient22643">
      <stop
         style="stop-color:#375d9f;stop-opacity:1;"
         offset="0"
         id="stop22639" />
      <stop
         style="stop-color:#384870;stop-opacity:1;"
         offset="1"
         id="stop22641" />
    </linearGradient>
    <linearGradient
       id="linearGradient22566">
      <stop
         style="stop-color:#f2a491;stop-opacity:1;"
         offset="0"
         id="stop22562" />
      <stop
         style="stop-color:#8eb3cf;stop-opacity:1;"
         offset="0.41778976"
         id="stop22564" />
    </linearGradient>
    <linearGradient
       id="linearGradient17184">
      <stop
         style="stop-color:#ffffff;stop-opacity:1;"
         offset="0.50673854"
         id="stop17180" />
      <stop
         style="stop-color:#efe4be;stop-opacity:1;"
         offset="1"
         id="stop17182" />
    </linearGradient>
    <linearGradient
       id="linearGradient7816">
      <stop
         id="stop15177"
         offset="0.2264151"
         style="stop-color:#8fc2c5;stop-opacity:1;" />
      <stop
         id="stop7812"
         offset="0.43126687"
         style="stop-color:#b5d1c3;stop-opacity:1;" />
      <stop
         id="stop7814"
         offset="1"
         style="stop-color:#e5e0bf;stop-opacity:1;" />
    </linearGradient>
    <linearGradient
       id="linearGradient2455">
      <stop
         id="stop2447"
         offset="0"
         style="stop-color:#fbe8bd;stop-opacity:1;" />
      <stop
         style="stop-color:#d5dbc1;stop-opacity:1;"
         offset="0.39518833"
         id="stop2449" />
      <stop
         style="stop-color:#94c6c6;stop-opacity:1;"
         offset="0.65719855"
         id="stop2451" />
      <stop
         id="stop2453"
         offset="1"
         style="stop-color:#2d7ab8;stop-opacity:1;" />
    </linearGradient>
    <radialGradient
       gradientUnits="userSpaceOnUse"
       gradientTransform="matrix(0.00113747,-1.0167601,1.0243894,0.0011489,-11.090646,-1.315701)"
       r="25.000002"
       fy="42.392902"
       fx="31.438482"
       cy="42.392902"
       cx="31.438482"
       id="radialGradient1000-0"
       xlink:href="#linearGradient998" />
    <radialGradient
       gradientTransform="matrix(0.00279899,0.6185787,-0.99998976,0.00452483,68.397857,-39.118526)"
       gradientUnits="userSpaceOnUse"
       r="24.999975"
       fy="35.676865"
       fx="21.644688"
       cy="35.676865"
       cx="21.644688"
       id="radialGradient1008-5"
       xlink:href="#linearGradient1006" />
    <linearGradient
       xlink:href="#linearGradient2455"
       id="linearGradient5700"
       x1="24.669399"
       y1="32.672649"
       x2="24.999998"
       y2="1.4757635e-06"
       gradientUnits="userSpaceOnUse" />
    <linearGradient
       xlink:href="#linearGradient7816"
       id="linearGradient13724"
       x1="25"
       y1="49.999977"
       x2="24.806145"
       y2="29.690369"
       gradientUnits="userSpaceOnUse" />
    <linearGradient
       xlink:href="#linearGradient17184"
       id="linearGradient17186"
       x1="23.919428"
       y1="9.6647673"
       x2="37.408257"
       y2="32.331436"
       gradientUnits="userSpaceOnUse" />
    <linearGradient
       xlink:href="#linearGradient22566"
       id="linearGradient22568"
       x1="34.995327"
       y1="25.681305"
       x2="26.002991"
       y2="33.207092"
       gradientUnits="userSpaceOnUse" />
    <linearGradient
       xlink:href="#linearGradient22643"
       id="linearGradient22645"
       x1="27.734179"
       y1="17.369226"
       x2="17.216543"
       y2="33.688541"
       gradientUnits="userSpaceOnUse" />
    <linearGradient
       id="linearGradient1046">
      <stop
         style="stop-color:#fefdfc;stop-opacity:1"
         offset="0"
         id="stop1038" />
      <stop
         id="stop1040"
         offset="0.35899055"
         style="stop-color:#faf2ee;stop-opacity:1" />
      <stop
         id="stop1042"
         offset="0.56921643"
         style="stop-color:#f8f5f4;stop-opacity:1" />
      <stop
         style="stop-color:#f6cdc0;stop-opacity:1"
         offset="1"
         id="stop1044" />
    </linearGradient>
    <linearGradient
       id="linearGradient1674">
      <stop
         style="stop-color:#3e2300;stop-opacity:1"
         offset="0"
         id="stop1670" />
      <stop
         style="stop-color:#9e5600;stop-opacity:1"
         offset="1"
         id="stop1672" />
    </linearGradient>
    <linearGradient
       id="linearGradient1666">
      <stop
         id="stop1654"
         offset="0"
         style="stop-color:#bc6001;stop-opacity:1" />
      <stop
         style="stop-color:#ee5015;stop-opacity:1"
         offset="0.22724211"
         id="stop1656" />
      <stop
         id="stop1658"
         offset="0.55937076"
         style="stop-color:#d45d2a;stop-opacity:1" />
      <stop
         id="stop1664"
         offset="1"
         style="stop-color:#ab2504;stop-opacity:1" />
    </linearGradient>
    <linearGradient
       id="linearGradient1652">
      <stop
         id="stop1640"
         offset="0"
         style="stop-color:#df7e01;stop-opacity:1" />
      <stop
         id="stop1644"
         offset="0.3771469"
         style="stop-color:#f97b29;stop-opacity:1" />
      <stop
         id="stop1650"
         offset="1"
         style="stop-color:#f9cd2f;stop-opacity:1" />
    </linearGradient>
    <linearGradient
       id="linearGradient1582">
      <stop
         style="stop-color:#fea12a;stop-opacity:1"
         offset="0"
         id="stop1578" />
      <stop
         id="stop1588"
         offset="0.22724211"
         style="stop-color:#fdb647;stop-opacity:1" />
      <stop
         style="stop-color:#fa9350;stop-opacity:1"
         offset="0.3771469"
         id="stop1590" />
      <stop
         id="stop1592"
         offset="0.54888839"
         style="stop-color:#f25848;stop-opacity:1" />
      <stop
         style="stop-color:#d83f4d;stop-opacity:1"
         offset="0.7313779"
         id="stop1594" />
      <stop
         style="stop-color:#b51b10;stop-opacity:1"
         offset="1"
         id="stop1580" />
    </linearGradient>
    <linearGradient
       id="linearGradient927">
      <stop
         style="stop-color:#5d6b32;stop-opacity:1"
         offset="0"
         id="stop923" />
      <stop
         id="stop937"
         offset="0.39178354"
         style="stop-color:#ece1d0;stop-opacity:1" />
      <stop
         style="stop-color:#afdfe4;stop-opacity:1"
         offset="1"
         id="stop925" />
    </linearGradient>
    <linearGradient
       id="linearGradient7816-0">
      <stop
         id="stop7814-5"
         offset="1"
         style="stop-color:#422f2e;stop-opacity:1" />
    </linearGradient>
    <radialGradient
       gradientUnits="userSpaceOnUse"
       gradientTransform="matrix(0.00113747,-1.0167601,1.0243894,0.0011489,-11.090646,-1.315701)"
       r="25.000002"
       fy="42.392902"
       fx="31.438482"
       cy="42.392902"
       cx="31.438482"
       id="radialGradient1000-9"
       xlink:href="#linearGradient998" />
    <radialGradient
       gradientTransform="matrix(0.00279899,0.6185787,-0.99998976,0.00452483,68.397857,-39.118526)"
       gradientUnits="userSpaceOnUse"
       r="24.999975"
       fy="35.676865"
       fx="21.644688"
       cy="35.676865"
       cx="21.644688"
       id="radialGradient1008-7"
       xlink:href="#linearGradient1006" />
    <linearGradient
       xlink:href="#linearGradient7816-0"
       id="linearGradient13724-0"
       x1="25"
       y1="49.999977"
       x2="24.806145"
       y2="29.690369"
       gradientUnits="userSpaceOnUse" />
    <linearGradient
       xlink:href="#linearGradient927"
       id="linearGradient935"
       x1="25.198191"
       y1="49.72488"
       x2="25.104233"
       y2="0.10423274"
       gradientUnits="userSpaceOnUse" />
    <clipPath
       id="clipPath1130"
       clipPathUnits="userSpaceOnUse">
      <path
         id="path1128"
         d="M 0,800 H 800 V 0 H 0 Z" />
    </clipPath>
    <clipPath
       id="clipPath1138"
       clipPathUnits="userSpaceOnUse">
      <path
         id="path1136"
         d="M 284.686,41.5688 H 515.314 V 17 H 284.686 Z" />
    </clipPath>
    <clipPath
       id="clipPath1278"
       clipPathUnits="userSpaceOnUse">
      <path
         id="path1276"
         d="M 0,800 H 800 V 0 H 0 Z" />
    </clipPath>
    <linearGradient
       xlink:href="#linearGradient1582"
       id="linearGradient1598"
       gradientUnits="userSpaceOnUse"
       gradientTransform="matrix(0.25320201,0,0,0.25320201,95.927808,56.293442)"
       x1="-332.87836"
       y1="-65.767349"
       x2="-211.17578"
       y2="-131.90941" />
    <linearGradient
       xlink:href="#linearGradient1652"
       id="linearGradient1602"
       gradientUnits="userSpaceOnUse"
       gradientTransform="matrix(0.12865911,0,0,0.14262707,74.363162,36.786625)"
       x1="-332.87836"
       y1="-65.767349"
       x2="-211.17578"
       y2="-131.90941" />
    <linearGradient
       xlink:href="#linearGradient1666"
       id="linearGradient1606"
       gradientUnits="userSpaceOnUse"
       gradientTransform="matrix(0.14287792,0,0,0.15551651,52.603028,39.553815)"
       x1="-332.87836"
       y1="-65.767349"
       x2="-211.17578"
       y2="-131.90941" />
    <linearGradient
       xlink:href="#linearGradient1674"
       id="linearGradient1676"
       x1="16.955727"
       y1="54.643715"
       x2="33.029133"
       y2="19.577152"
       gradientUnits="userSpaceOnUse" />
    <linearGradient
       xlink:href="#linearGradient1038"
       id="linearGradient1040"
       x1="26.341658"
       y1="0.0023050094"
       x2="25.169394"
       y2="50.05315"
       gradientUnits="userSpaceOnUse" />
    <linearGradient
       xlink:href="#linearGradient1090"
       id="linearGradient1082"
       x1="13.177977"
       y1="28.603664"
       x2="33.398556"
       y2="10.68"
       gradientUnits="userSpaceOnUse" />
  </defs>
  <g
     id="g1"
     transform="scale(1.0583333)">
    <circle
       style="fill:url(#linearGradient1040);fill-opacity:1;fill-rule:evenodd;stroke-width:0.361282"
       id="path1009"
       cx="25"
       cy="25"
       r="25" />
    <path
       id="path991"
       d="m 13.729239,44.444774 -4.535162,-0.09946 0.4695485,-1.36996 9.0058805,-0.236 6.474904,-1.031162 c -0.17259,-0.322708 -0.25091,-0.80749 -0.22282,-6.608174 l 0.392498,-7.913237 c 0.616971,-0.592075 1.290101,-0.271631 1.917001,-0.266965 0.21384,0.02509 0.26972,0.09796 0.32987,0.430202 0.124,0.684886 0.38744,7.063337 0.32428,7.851746 -0.0604,0.753704 -0.0273,1.091282 0.3575,3.648254 0.24698,1.641153 0.37695,2.130061 0.59766,2.248181 0.0888,0.04751 0.3396,0.251675 0.5574,0.453699 0.4731,0.438832 1.33397,1.037581 1.921,1.336077 2.343117,0.881363 3.639449,0.05911 6.677339,0.01295 3.571801,-0.616968 4.746635,-0.569277 4.337761,-0.04175 -1.15513,1.490331 -3.201964,2.776882 -3.201964,2.776882 -1.799767,-0.410757 -1.715933,-0.818112 -5.095248,-1.155045 -0.776706,-0.07744 -1.964221,0.05798 -3.202695,-0.07957 C 26.583789,43.92939 19.952933,44.30412 19.952933,44.30412 Z"
       style="fill:#864f24;fill-opacity:1;stroke-width:0.1" />
    <path
       id="path989"
       d="m 34.564754,43.753267 c -0.0742,-0.119076 -1.98459,-0.388394 -2.67064,-0.376492 -0.22,0.0038 -0.34375,-0.01564 -0.275,-0.04325 0.22405,-0.08996 0.13279,-0.225498 -0.3,-0.445565 -0.51903,-0.263924 -1.4028,-0.872268 -1.875,-1.290659 -0.47275,-0.418883 -0.07,-0.223483 0.77284,0.374945 0.71714,0.509182 0.82716,0.489901 0.82716,-0.144953 0,-0.544875 0.17564,-1.693377 0.30239,-1.97729 0.0491,-0.11 0.10241,-0.3125 0.11845,-0.45 0.0166,-0.142596 0.0936,-0.25 0.17916,-0.25 0.0825,0 0.15,-0.06375 0.15,-0.141667 0,-0.07792 0.0537,-0.159556 0.11926,-0.181421 0.13808,-0.04602 0.21176,0.321692 0.26181,1.30662 0.0216,0.424541 0.0846,0.714365 0.16641,0.764907 0.0759,0.04691 0.10358,0.154552 0.0654,0.254143 -0.0365,0.09502 -0.0231,0.224773 0.0296,0.288335 0.0527,0.06356 0.10978,0.496608 0.12673,0.962325 l 0.0308,0.846753 0.375,0.03104 0.375,0.03104 v -0.454601 c 0,-0.250031 0.048,-0.668998 0.10669,-0.931037 0.0587,-0.262039 0.15137,-0.678404 0.20598,-0.925254 0.0546,-0.246851 0.12604,-0.735124 0.15872,-1.085053 0.0954,-1.022142 0.22293,-0.505798 0.33445,1.354621 0.12125,2.022732 0.17847,2.208388 0.70663,2.292844 0.21314,0.03408 0.38753,0.09611 0.38753,0.137838 0,0.127056 -0.6038,0.173123 -0.67936,0.05183 z m 0.78916,-0.139504 c -0.42732,-0.600106 -0.31182,-4.103653 0.16829,-5.105159 l 0.17191,-0.358601 0.051,0.57241 c 0.0712,0.799205 0.34715,1.083169 0.45036,0.463402 0.12482,-0.749516 0.41767,-1.816996 0.47306,-1.724361 0.0658,0.11002 0.22394,1.751621 0.18195,1.888549 -0.0169,0.055 -0.0266,0.235 -0.0217,0.4 0.005,0.165 0.009,0.484614 0.009,0.710253 8e-5,0.246117 0.0614,0.46106 0.15316,0.537244 0.0842,0.06985 0.15301,0.209246 0.15301,0.309778 0,0.100533 0.0562,0.218773 0.125,0.262756 0.27616,0.17667 0.425,0.481521 0.425,0.870439 0,0.42999 0.31819,0.631341 0.58154,0.367996 0.0596,-0.05966 0.29071,-0.112952 0.51346,-0.118434 0.71063,-0.01749 0.905,-0.112966 0.905,-0.44454 0,-0.267873 -0.0342,-0.29834 -0.36553,-0.325964 -0.42768,-0.03565 -0.59302,-0.380742 -0.3492,-0.728842 0.10656,-0.15213 0.11866,-0.30114 0.0495,-0.609115 -0.0563,-0.250724 -0.0553,-0.527824 0.003,-0.719643 0.0519,-0.171561 0.12362,-0.536928 0.15943,-0.811928 0.0358,-0.275 0.0855,-0.635 0.11046,-0.8 0.025,-0.165 0.0668,-0.525 0.0929,-0.8 0.0783,-0.82333 0.21213,-1.645725 0.27868,-1.712272 0.24028,-0.240281 0.61786,0.888343 0.71803,2.146281 0.0596,0.748029 0.74982,0.911359 0.75541,0.178747 10e-4,-0.172016 0.0493,-0.492756 0.1066,-0.712756 0.10251,-0.393479 0.14706,-0.656428 0.22871,-1.35 0.0615,-0.522259 0.27221,-1.333601 0.3817,-1.469705 0.053,-0.06584 0.0838,-0.223338 0.0685,-0.35 -0.0153,-0.126662 0.0246,-0.325628 0.0886,-0.442147 0.064,-0.116518 0.0912,-0.23705 0.0604,-0.267849 -0.0756,-0.07561 0.0598,-0.670299 0.15261,-0.670299 0.066,0 0.29934,1.491798 0.4722,3.019329 0.0391,0.345717 0.11916,0.590331 0.20379,0.622804 0.088,0.03379 0.11888,0.137126 0.0838,0.280671 -0.0428,0.175109 0.0139,0.273048 0.24726,0.427196 0.34432,0.227395 0.40202,0.394774 0.10342,0.3 -0.23061,-0.07319 -0.27608,0.09941 -0.0491,0.186495 0.083,0.03184 0.2027,0.171655 0.26605,0.310699 0.16412,0.360203 0.26405,0.312734 0.25722,-0.122194 -0.0243,-1.551463 0.51794,-3.425 0.99137,-3.425 0.0886,0 0.13476,-0.127925 0.13528,-0.375 6e-4,-0.308888 0.0481,-0.396983 0.26928,-0.499694 0.3001,-0.139364 0.3846,-0.07485 0.49072,0.374694 0.0325,0.1375 0.14614,0.492132 0.25261,0.788071 0.1499,0.416674 0.1786,0.67049 0.12718,1.125 -0.0542,0.478629 -0.0394,0.586929 0.0798,0.586929 0.22778,0 0.27479,-0.09958 0.17319,-0.36683 -0.0612,-0.160922 -0.0566,-0.315521 0.0133,-0.44611 0.0724,-0.135305 0.0743,-0.239232 0.006,-0.321806 -0.0561,-0.0676 -0.0647,-0.181113 -0.0192,-0.254678 0.0451,-0.07299 0.059,-0.220691 0.0309,-0.328217 -0.0281,-0.107525 -0.003,-0.293794 0.0548,-0.41393 0.0582,-0.120136 0.13186,-0.488429 0.16364,-0.818429 0.16728,-1.737412 0.22338,-1.890822 0.6119,-1.673392 0.2543,0.142315 0.97703,-0.636795 0.89476,-0.964568 -0.0419,-0.166734 0.007,-0.309166 0.16284,-0.475082 l 0.22261,-0.236958 h -0.21153 c -0.29756,0 -0.39035,-0.205157 -0.16361,-0.36176 0.36123,-0.249491 0.44028,-0.346834 0.44028,-0.542183 0,-0.111265 -0.0677,-0.196057 -0.15657,-0.196057 -0.47806,0 -0.6556,-0.419183 -0.23419,-0.552932 0.21359,-0.06779 0.2523,-0.345531 0.0731,-0.524705 -0.0902,-0.09018 -0.0774,-0.162121 0.0549,-0.308241 0.11329,-0.125183 0.15146,-0.274413 0.11121,-0.434783 -0.0404,-0.160887 -0.007,-0.289011 0.0971,-0.375608 0.11165,-0.09266 0.14079,-0.22511 0.0988,-0.448993 -0.0419,-0.223454 -0.0129,-0.356336 0.0981,-0.448396 0.0867,-0.07196 0.15764,-0.217977 0.15764,-0.324488 0,-0.106512 0.045,-0.165846 0.1,-0.131854 0.055,0.03399 0.1,0.197106 0.1,0.362476 0,0.16537 0.0543,0.398964 0.12071,0.519098 0.23065,0.417343 0.42385,2.357602 0.24172,2.427492 -0.0705,0.02707 -0.11794,0.355215 -0.12527,0.867243 -0.0237,1.659802 -1.54249,6.042483 -2.56985,7.415801 -0.12668,0.169339 -0.42261,0.667437 -0.65762,1.106883 -0.43287,0.809425 -1.58851,2.451007 -1.72546,2.451007 -0.041,0 -0.20741,0.19125 -0.3697,0.425 -0.1623,0.23375 -0.53044,0.65 -0.8181,0.925 -0.28766,0.275 -0.73087,0.713709 -0.98491,0.97491 -0.71035,0.730372 -1.53058,0.994505 -2.82491,0.909683 -1.12077,-0.07345 -1.19249,-0.216553 -0.21279,-0.424588 1.46159,-0.310362 2.4895,-0.710005 1.82618,-0.710005 -0.30111,0 -0.2402,-0.274075 0.1,-0.45 0.24281,-0.125562 0.3,-0.219034 0.3,-0.490324 0,-0.477435 -0.22599,-0.637516 -0.43966,-0.311425 -0.0907,0.138462 -0.22444,0.251749 -0.29715,0.251749 -0.39592,0 -0.59152,0.624285 -0.25245,0.805746 0.31999,0.171256 0.13546,0.252751 -1.01074,0.446377 -1.19923,0.202586 -1.65514,0.229085 -1.975,0.114795 -0.19624,-0.07012 -0.225,-0.04718 -0.225,0.179482 0,0.30204 -0.28155,0.461709 -0.40986,0.232434 -0.0546,-0.09748 -0.17574,-0.134736 -0.33762,-0.103791 -0.28545,0.05457 -0.3291,0.174173 -0.0962,0.263552 0.2671,0.102497 0.051,0.261405 -0.35543,0.261405 -0.31205,0 -0.42689,-0.05561 -0.59112,-0.286245 z m 0.3286,-0.91376 c -0.0883,-0.551926 0.27972,-0.590642 0.47522,-0.05 0.20422,0.564772 0.48638,0.316524 0.48638,-0.427927 0,-0.416792 -0.31132,-0.846462 -0.45033,-0.621531 -0.0446,0.07209 -0.20907,0.09011 -0.45041,0.04933 -0.36135,-0.06105 -0.38351,-0.04924 -0.4466,0.238025 -0.1123,0.511268 0.038,1.2121 0.25988,1.2121 0.16545,0 0.18161,-0.05135 0.12586,-0.4 z m 6.79059,-0.490992 c 0.38912,-0.1668 0.44045,-0.223789 0.39862,-0.442603 -0.0404,-0.211433 -0.006,-0.256312 0.2153,-0.283779 0.14482,-0.01794 0.26574,-0.07763 0.2687,-0.132626 0.003,-0.055 0.0467,-0.149808 0.0973,-0.210684 0.11915,-0.143567 0.007,-0.701819 -0.17092,-0.849318 -0.0759,-0.06297 -0.13795,-0.192002 -0.13795,-0.286744 0,-0.09474 -0.0863,-0.250332 -0.19172,-0.345758 -0.11248,-0.101795 -0.21968,-0.376838 -0.25938,-0.665499 -0.0372,-0.270598 -0.10844,-0.491997 -0.15828,-0.491997 -0.0498,0 -0.0906,-0.06895 -0.0906,-0.153222 0,-0.08427 -0.10101,-0.190589 -0.22447,-0.236258 -0.12363,-0.04574 -0.2247,-0.16782 -0.225,-0.271778 -3e-4,-0.121898 -0.0714,-0.188742 -0.20053,-0.188742 -0.16101,0 -0.22943,0.116978 -0.35093,0.6 -0.083,0.33 -0.17989,0.645 -0.21527,0.7 -0.14533,0.225915 -0.20529,1.053615 -0.0867,1.196528 0.12457,0.150098 0.0635,0.353472 -0.10616,0.353472 -0.0535,0 -0.12614,-0.07531 -0.16146,-0.167361 -0.0353,-0.09205 -0.15271,-0.255851 -0.26087,-0.364005 -0.19552,-0.195527 -0.19756,-0.195432 -0.35763,0.0166 l -0.161,0.213248 -0.0151,-0.259289 c -0.0201,-0.346643 -0.15525,-0.463011 -0.45136,-0.388691 -0.30328,0.07612 -0.55336,0.832282 -0.38147,1.153454 0.0757,0.141547 0.0662,0.269076 -0.0354,0.470138 -0.1892,0.374685 -0.11111,0.525903 0.27157,0.525903 0.17692,0 0.36773,0.04606 0.42403,0.102363 0.0698,0.06982 0.16059,0.03802 0.2855,-0.1 0.10073,-0.1113 0.26317,-0.202363 0.361,-0.202363 0.11953,0 0.18823,-0.0899 0.2095,-0.274145 0.0384,-0.333078 0.33717,-0.422048 0.53601,-0.159642 0.17414,0.2298 0.18842,1.148331 0.0206,1.326573 -0.17693,0.18795 0.56091,0.07045 1.15399,-0.183778 z m -2.05543,-1.468785 c -0.0973,-0.09731 0.0363,-0.340223 0.18714,-0.340223 0.0766,0 0.1393,0.09 0.1393,0.2 0,0.188258 -0.19475,0.271914 -0.32644,0.140223 z m 4.32644,-0.814964 c 0.84307,-1.124758 0.86544,-1.174982 0.85745,-1.925517 -0.008,-0.76423 -0.10974,-0.881325 -0.37985,-0.437767 -0.29947,0.491759 -0.30806,0.543473 -0.11514,0.692829 0.17792,0.137751 0.17857,0.152171 0.0125,0.28122 -0.0962,0.07481 -0.175,0.204304 -0.175,0.287756 0,0.284915 -0.24577,0.386023 -0.38733,0.159346 -0.17239,-0.276043 -0.26239,-0.155601 -0.45542,0.609466 -0.12991,0.514914 -0.1368,0.658661 -0.0347,0.723468 0.22356,0.141882 0.31976,0.08639 0.67744,-0.390801 z m 0.05884,-5.299753 c -0.10755,-0.107549 -0.16465,0.04308 -0.0891,0.235181 0.0708,0.180207 0.0762,0.180519 0.11119,0.0065 0.0202,-0.100555 0.0103,-0.209305 -0.022,-0.241667 z m -18.90884,8.857708 c -4.649139,0.58669 -1.1925,-0.11003 -1.55,-0.134839 -0.69596,-0.0483 -5.17048,-0.05145 -6.125,-0.0043 -0.64435,0.03182 -0.63407,0.03906 -0.41644,-0.293074 0.1356,-0.206959 0.1867,-0.224543 0.35305,-0.121481 0.28591,0.177142 0.33523,0.03769 0.47856,-1.353049 0.22574,-2.190332 0.55085,-2.081633 0.66864,0.223553 0.0155,0.3025 0.031,0.60625 0.0346,0.675 0.004,0.06875 0.11788,0.125 0.25397,0.125 0.33406,0 0.49507,-0.345714 0.65203,-1.4 0.17413,-1.169595 0.29378,-1.322779 0.2975,-0.380902 0.002,0.4319 0.0496,0.797903 0.10934,0.834796 1.301487,-1.335921 0.504289,0.979909 -1.36766,1.246106 -0.36071,0 -0.6386,0.08443 -0.6386,0.194019 0,0.03994 1.2375,0.07357 2.75,0.07473 l 2.75,0.0021 V 42.82711 c 0,-0.422281 0.22568,-0.39975 0.30079,0.03003 0.045,0.257574 0.10187,0.297826 0.5,0.353927 0.91128,0.128412 2.42219,0.207027 2.37047,0.12334 -0.0293,-0.04736 0.23522,-0.09412 0.58776,-0.103916 0.60228,-0.01673 0.8559,0.09517 0.46598,0.205609 -0.38293,0.108456 -1.62303,0.132066 -2.475,0.04712 z m -9.55,-0.625581 c 0,-0.60873 0.0841,-1.165642 0.32244,-2.135497 0.14046,-0.571494 0.16502,-0.513331 0.22574,0.534403 0.0285,0.491406 0.0778,1.132094 0.10965,1.423752 0.0654,0.598836 -0.0478,0.819713 -0.42007,0.819713 -0.22567,0 -0.23776,-0.03266 -0.23776,-0.642371 z m 10.58125,0.27406 c 0.0722,-0.02889 0.15844,-0.02533 0.19167,0.0079 0.0332,0.03323 -0.0258,0.05686 -0.13125,0.05252 -0.1165,-0.0048 -0.14019,-0.02849 -0.0604,-0.06042 z M 14.00844,42.94873 c 0.03193,-0.0832 0.01566,-0.206951 -0.03615,-0.275 -0.159644,-0.209696 -0.147734,-1.833973 0.01753,-2.390473 0.08296,-0.279364 0.132364,-0.53783 0.109782,-0.574369 -0.02258,-0.03654 0.03915,-0.424735 0.137188,-0.862659 l 0.178246,-0.796226 0.06482,0.65 c 0.03565,0.3575 0.08713,1.49375 0.114398,2.525 l 0.04957,1.875 h -0.346723 c -0.26841,0 -0.333611,-0.03417 -0.288673,-0.151273 z M 8.4558171,42.39455 C 6.8095148,42.115257 5.975986,41.203071 5.392928,40.298685 4.1892998,39.312589 2.6915107,36.237707 1.8859648,34.538461 1.4476984,33.574124 1.687966,33.615278 1.894127,33.536166 2.129602,33.445806 2.070648,33.298845 1.754747,33.188721 1.529274,33.110121 1.442066,32.996042 1.359854,32.67215 1.225683,32.143559 1.228443,32.142541 1.678333,32.554695 c 0.444431,0.407153 0.438251,0.406046 0.731086,0.130942 0,0 -0.067764,-0.445409 0.289156,-3.024195 0.2936712,-3.07133 1.6391316,-8.057876 1.8957909,-8.016466 -0.2694024,1.125193 0.2102659,0.327762 0.3460521,1.642896 0.2650982,2.567564 0.5558442,6.412624 0.9143049,9.008375 0.1580855,1.144758 0.5629279,1.935889 0.5884151,2.454949 -0.06793,0.08185 -0.185497,0.148817 -0.261262,0.148817 -0.07957,0 -0.137756,0.103612 -0.137756,0.245295 0,0.28962 0.195672,0.754705 0.317521,0.754705 0.04698,0 0.167098,0.134311 0.266929,0.29847 0.16685,0.274362 0.197019,0.286472 0.37353,0.149933 0.187996,-0.145423 0.187305,-0.152538 -0.03298,-0.339499 -0.294656,-0.250082 -0.285262,-0.485735 0.025,-0.627099 0.282752,-0.128831 0.301845,-0.201501 0.126651,-0.482032 -0.101773,-0.162965 -0.09051,-0.258484 0.06437,-0.546083 0.155341,-0.288453 0.097568,-0.341434 0.05867,-0.504062 -0.039165,-0.163745 0.2996327,-1.391718 0.1206996,-1.391718 0.040715,-1.59e-4 0.5849828,-2.470494 0.6814871,-2.530226 0.045555,-0.0282 0.7208576,1.132399 0.727724,1.90754 -0.3482468,2.332682 1.0270404,6.154644 1.8988543,8.83667 0,0.160501 0.01616,0.728098 0.07068,0.728098 0.05452,0 0.09329,-0.21375 0.08614,-0.475 -0.02903,-1.06128 0.08644,-1.629424 0.243894,-1.2 0.03078,0.08394 0.08037,0.09215 0.150963,0.025 0.122536,-0.116557 0.187592,-1.524099 0.08139,-1.760998 -0.04666,-0.104089 0.01655,-0.266446 0.178841,-0.459312 0.18399,-0.218659 0.221363,-0.327964 0.139967,-0.40936 -0.0814,-0.0814 -0.06436,-0.233289 0.06379,-0.56886 0.09616,-0.251797 0.150749,-0.520595 0.121303,-0.59733 -0.02945,-0.07673 0.01129,-0.193317 0.09052,-0.259073 0.07923,-0.06576 0.0874,-0.203171 0.0874,-0.275691 0,-0.07252 0.09998,-0.134343 0.152916,-0.167062 0.05308,-0.0328 0.09501,0.06548 0.09347,0.219098 0.246882,1.34207 1.222893,3.429099 1.191209,4.549778 l 0.06762,1.206806 c 0,0.163681 -0.06485,0.268207 -0.303864,0.220403 -0.533328,0.228516 0.634533,0.308313 0.04002,0.588852 -0.296186,0.134952 -0.567046,0.462742 -0.290617,0.462742 0.106754,0 0.76661,0.558822 0.803564,0.618615 -2.633174,0.103899 -3.726708,-0.711149 -5.2859659,-0.724063 z m 3.6092849,-0.09221 c 0.05351,-0.36457 -0.05485,-0.487246 -0.376137,-0.425829 -0.328394,0.06278 -0.342092,0.49085 -0.01985,0.620375 0.335071,0.134682 0.348646,0.128013 0.395987,-0.194546 z M 11.54908,41.247435 c 0.34419,-0.177988 0.375387,-0.308452 0.09503,-0.397432 -0.225984,-0.07173 -0.250432,-0.159568 -0.08926,-0.320736 0.08098,-0.08098 0.05524,-0.140437 -0.0958,-0.221271 -0.276256,-0.147848 -0.399472,0.09466 -0.338903,0.667007 0.0513,0.484749 0.03651,0.47536 0.428933,0.272432 z m -4.029204,-0.06319 c 0.08723,-0.08723 0.149888,-0.08744 0.254201,-9e-4 0.07614,0.06319 0.168048,0.08528 0.204238,0.0491 0.101822,-0.10179 0.07766,-0.513299 -0.0342,-0.582433 -0.055,-0.03399 -0.1,-0.01475 -0.1,0.04276 0,0.129196 -0.687654,0.426678 -0.810623,0.350678 -0.04916,-0.03038 -0.08938,-0.148871 -0.08938,-0.263311 0,-0.114441 -0.07875,-0.26665 -0.175,-0.338242 -0.146828,-0.109213 -0.15441,-0.159282 -0.0471,-0.311024 0.07035,-0.09947 0.154877,-0.261641 0.187846,-0.360378 0.07492,-0.224366 0.770337,-0.588728 0.974279,-0.510468 0.188974,0.07252 0.338756,-0.421227 0.176889,-0.583094 -0.129336,-0.129336 -0.416917,0.06748 -0.416917,0.285327 0,0.09405 -0.126913,0.137756 -0.4,0.137756 -0.379661,0 -0.51799,-0.115275 -0.3,-0.25 0.294528,-0.182028 -0.393996,-0.411312 -0.865136,-0.288096 -0.206498,0.054 -0.20883,0.06895 -0.05808,0.37218 0.08638,0.173754 0.194442,0.394055 0.240136,0.489559 0.106269,0.22211 0.102426,0.722486 -0.0092,1.203435 -0.0805,0.346719 -0.06622,0.388666 0.177385,0.520997 0.321601,0.174698 0.931929,0.194934 1.0907,0.03616 z M 4.444114,38.615502 c 0,-0.04648 -0.09,-0.16595 -0.2,-0.265499 -0.226997,-0.205429 -0.258969,-0.14171 -0.07594,0.151357 0.127097,0.203516 0.275945,0.265085 0.275945,0.114142 z M 4.177258,37.392205 4.394114,37.215539 4.134219,37.115989 C 3.850233,37.007211 3.629508,35.908587 3.84055,35.654298 c 0.0571,-0.0688 0.06239,-0.236184 0.01298,-0.410256 L 3.77006,35.031573 3.6865025,35.36556 c -0.1085233,0.433779 -0.1869256,0.454835 -0.5471806,0.454835 -0.370761,0 -0.462585,0.03518 -0.385929,0.234942 0.03924,0.102255 0.1408775,0.08435 0.3766185,0.04012 0.392454,-0.07362 0.4459116,0.136762 0.3640116,0.788602 -0.03956,0.314815 0.0031,0.523691 0.17204,0.842283 L 3.890701,38.15 3.925551,37.859434 c 0.01917,-0.159811 0.132437,-0.370065 0.251707,-0.467232 z m 28.264886,-26.03635 c 0.67361,0.385404 0.43495,0.569821 -0.30209,0.845453 -0.33207,0.124185 -0.405951,0.341533 -0.460511,0.443484 -0.0546,0.101952 -0.481879,0.22555 -0.653259,0.314173 -0.45981,0.23778 0.03069,0.192072 0.709672,0.03227 0.79798,-0.18781 0.875411,-0.09045 1.059501,0.190496 0.26146,0.399043 0.09178,1.522267 0.09178,1.522267 -0.01543,-0.237635 0,0 -0.312983,1.021621 -0.127197,0.415187 -0.949972,0.563841 -0.484982,0.805638 0.507982,0.264153 -0.50167,1.37435 -0.133764,1.39363 1.278695,0.06701 2.013203,0.702093 2.070062,0.993868 0.07473,0.383497 -1.403992,-0.170203 -1.369854,0.193659 0.0127,0.135388 1.617657,0.499078 1.532993,0.868273 -0.123212,0.537288 0.352013,0.741209 0.08229,0.859962 -1.483772,0.65328 1.119271,1.291827 1.114037,1.517509 0.225618,0.147747 -1.669015,1.559536 -1.669015,1.559536 -0.06918,0.711973 1.72999,1.198337 1.72999,1.198337 l -1.05939,0.89604 c -4.178691,-0.752378 -3.970713,1.30984 -7.191152,-0.10594 L 24.94943,19.456952 c -0.975861,-1.236268 -4.296915,-1.311645 -4.296915,-1.311645 0,0 -0.713308,-1.798712 -3.140243,-7.378088 l 1.443724,-6.3272736 1.926453,-1.0654983 2.218923,0.1518445 5.544395,2.1929931 z"
       style="fill:#4e4724;fill-opacity:1;stroke-width:0.1" />
    <path
       id="path987"
       d="m 25.594114,43.287098 c -1.11085,-0.106046 -1.1282,-0.11271 -1.16779,-0.448435 -0.0491,-0.416653 -0.28221,-0.426166 -0.28221,-0.01152 v 0.343766 l -2.75,-0.0021 c -1.5125,-0.0012 -2.75,-0.0348 -2.75,-0.07474 0,-0.10959 0.27789,-0.194019 0.6386,-0.194019 3.41949,-1.449733 3.283282,-8.418114 3.40438,-16.548533 0.007,-0.584518 0,-0.600217 -0.29298,-0.670581 -0.34428,-0.07968 -0.274202,-0.153886 0.06419,-0.125026 0.33994,0.029 0.321855,-0.267907 0.369823,-0.801753 0.02312,-0.257309 -0.03283,-0.174131 -0.23033,-0.115232 -0.21301,0.06351 -0.193701,-0.02581 -0.01648,-0.161096 0.14338,-0.109471 0.178,-0.238942 0.14801,-0.553489 l 0.0878,-0.305201 c 0,0 -0.619347,-0.518789 -0.932968,-0.631772 -1.597886,-0.575642 -5.511226,-2.051682 1.137663,-4.244922 0.216095,0.0066 1.074593,-0.551345 1.239655,-0.02188 0.282921,0.907513 3.284153,1.927188 3.284153,1.927188 0.33203,0.616533 1.535347,2.052296 1.835697,2.052296 0.15781,0 0.24859,0.0426 0.21311,0.1 -0.15274,0.247131 -0.65026,0.08916 -1.25976,-0.4 -0.34266,-0.275 -0.70564,-0.5 -0.80663,-0.5 -0.216633,-0.08049 -0.196895,-0.268397 -0.28361,-0.45 -0.07803,0.481 0.185736,4.634196 0.236989,5.606742 -0.123974,0.679982 -0.922961,0.629623 -1.635451,1.11536 -0.159852,0.108978 -0.481539,0.514577 -0.596102,0.625644 -0.236835,3.075694 -0.281946,12.309013 0.02614,12.880523 0.243638,0.451951 0.40599,0.315302 0.31495,-0.265093 l 0.5581,1.492967 c 0.16285,0.104328 0.78144,0.292441 0.96448,0.293298 0.0655,3e-4 0.14691,0.04556 0.1809,0.100558 -0.929657,0.115252 -0.788222,0.07298 -1.700329,-0.01295 z m 9.75004,-0.287051 c -0.200874,-0.675564 -0.205552,-0.970586 -0.02724,-1.206531 0.0466,-0.178118 0.10579,-0.197783 0.43038,-0.142944 0.2379,0.04019 0.40219,0.02181 0.44656,-0.04998 0.13901,-0.224931 0.45033,0.204739 0.45033,0.621531 0,0.744451 -0.28216,0.992699 -0.48638,0.427927 -0.1955,-0.540642 -0.56348,-0.501926 -0.47522,0.05 0.0568,0.355312 0.0415,0.4 -0.13722,0.4 -0.11065,0 -0.20118,-0.045 -0.20118,-0.1 z m -23.675,-0.503116 c -0.322241,-0.129525 -0.308543,-0.557598 0.01985,-0.620375 0.321284,-0.06142 0.429644,0.06126 0.376137,0.425829 -0.04734,0.322559 -0.06092,0.329228 -0.395987,0.194546 z m 16.125,0.0069 c -0.71791,-0.06546 -1.24432,-0.251721 -1.25734,-0.444889 0.373735,-1.605382 -0.55214,-5.566513 0.5172,-2.903158 0.0499,0.03081 0.0925,0.424608 0.0948,0.875112 0.005,1.020613 0.17012,1.36074 0.90482,1.86628 0.46337,0.31884 0.78248,0.737545 0.52332,0.686649 -0.0453,-0.0089 -0.39733,-0.04489 -0.78233,-0.07999 z M 11.120186,40.974996 c -0.06057,-0.572349 0.06265,-0.814855 0.338903,-0.667007 0.15104,0.08083 0.176782,0.14029 0.0958,0.221271 -0.161168,0.161168 -0.13672,0.249011 0.08926,0.320736 0.280353,0.08898 0.249156,0.219444 -0.09503,0.397432 -0.392419,0.202928 -0.377636,0.212317 -0.428933,-0.272432 z m -4.69097,0.173075 C 6.18561,41.01574 6.171328,40.973793 6.251831,40.627074 6.3635,40.146125 6.367343,39.645749 6.261031,39.423639 6.215341,39.328139 6.107276,39.107834 6.020895,38.93408 5.870145,38.630847 5.872477,38.615904 6.078975,38.5619 c 0.47114,-0.123216 1.159664,0.106068 0.865136,0.288096 -0.21799,0.134725 -0.07966,0.25 0.3,0.25 0.273087,0 0.4,-0.04371 0.4,-0.137756 0,-0.217849 0.287581,-0.414663 0.416916,-0.285327 0.161868,0.161867 0.01209,0.65561 -0.176888,0.583094 -0.203942,-0.07826 -0.899364,0.286102 -0.974279,0.510468 -0.03297,0.09874 -0.117499,0.260907 -0.187846,0.360378 -0.107313,0.151742 -0.09973,0.201811 0.0471,0.311024 0.09625,0.07159 0.175,0.223801 0.175,0.338242 0,0.11444 0.04022,0.232931 0.08938,0.263311 0.12297,0.076 0.810624,-0.221482 0.810624,-0.350678 0,-0.05751 0.045,-0.07675 0.1,-0.04276 0.11186,0.06913 0.136023,0.480643 0.0342,0.582466 -0.03619,0.03619 -0.128097,0.0141 -0.204238,-0.04909 -0.104313,-0.08657 -0.166975,-0.08636 -0.254201,9e-4 -0.158771,0.158771 -0.769099,0.138535 -1.0907,-0.03616 z m 32.702774,-0.878895 0.148907,-0.405473 c 0.0888,-0.368817 0.189327,-0.331029 0.511597,-0.411923 0.28691,-0.07201 0.43453,0.405088 0.29369,0.681611 -0.0327,0.06413 0.0282,0.0091 0.13528,-0.122397 0.123579,-0.151727 1.095368,-1.658278 1.34466,-2.441638 0.157523,-0.494992 0.730645,-0.173997 0.801335,-0.103305 0.172634,0.274108 1.533324,3.026787 1.266115,3.705367 -0.210385,0.534274 -1.405645,1.49072 -2.025217,1.336763 -0.08142,-0.02023 -0.259551,0.07071 -0.296417,-0.02968 0.01987,-0.493785 0.185218,-0.86827 -0.140241,-1.250978 -0.189415,-0.02962 -0.404861,0.238441 -0.459619,0.275266 -0.385966,0.259568 -0.688007,0.52213 -1.570039,0.19758 -0.17593,-0.06473 0.02932,-1.467444 -0.01005,-1.431192 z M 4.168169,38.501357 C 3.985145,38.20829 4.017117,38.144571 4.244109,38.35 c 0.203119,0.18382 0.26202,0.35 0.124055,0.35 -0.04177,0 -0.13177,-0.08939 -0.2,-0.198643 z M 3.666062,37.726347 C 3.497131,37.407755 3.454467,37.198879 3.494022,36.884064 3.566866,35.945058 2.6649294,36.342074 2.711681,35.990635 c -0.04534,0.0079 -0.05393,-0.0318 -0.0191,-0.08816 0.03483,-0.05636 0.212669,-0.102478 0.395188,-0.102478 0.370864,0 0.493238,-0.111152 0.605528,-0.55 0.078798,-0.332611 0.068324,-0.329718 0.16023,-0.006 0.04941,0.174072 0.04412,0.341455 -0.01298,0.410256 -0.211042,0.254289 0.0097,1.352913 0.293669,1.461691 l 0.259895,0.09955 -0.216856,0.176666 c -0.11927,0.09717 -0.232538,0.307421 -0.251707,0.467232 l -0.03485,0.290566 z m 44.478052,-9.003278 c 0,-0.04864 0.14625,-0.07482 0.325,-0.05819 0.28102,0.02615 0.29131,0.01984 0.076,-0.04659 -0.1787,-0.05514 -0.21238,-0.09945 -0.11932,-0.156971 0.17986,-0.111161 0.64136,0.01917 0.59264,0.167373 -0.0457,0.139103 -0.87433,0.228548 -0.87433,0.09438 z m 0.40643,-0.817001 c -0.12099,-0.07656 -0.12234,-0.116426 -0.009,-0.253487 0.11809,-0.142294 0.15317,-0.144448 0.2804,-0.01722 0.24,0.239999 0.0223,0.456812 -0.27181,0.270705 z m 0.09357,-0.906088 c 0,-0.055 0.045,-0.1 0.1,-0.1 0.055,0 0.1,0.045 0.1,0.1 0,0.055 -0.045,0.1 -0.1,0.1 -0.055,0 -0.1,-0.045 -0.1,-0.1 z"
       style="fill:#452819;fill-opacity:1;stroke-width:0.1" />
    <path
       id="path985"
       d="M 18.694114,28.455723 C 18.161834,28.222426 17.159237,28.1 16.789357,28.1 c -0.19876,0 -0.485879,-0.04733 -0.63804,-0.105183 l -0.27665,-0.105183 0.2946,-0.23491 c 0.29145,-0.23239 0.29257,-0.237164 0.10464,-0.444818 C 16.169437,27.094458 15.987937,27 15.870597,27 c -0.11735,0 -0.38989,-0.09 -0.60565,-0.2 -0.215759,-0.11 -0.450273,-0.2 -0.521144,-0.2 -0.297623,0 -0.0943,-0.298615 0.346144,-0.508375 0.26125,-0.124419 0.58232,-0.308433 0.71349,-0.40892 0.32721,-0.250677 0.44489,-0.2293 0.37045,0.06729 -0.0702,0.279818 0.0728,0.332573 0.29611,0.109235 0.16951,-0.169508 0.74025,-0.116978 1.54495,0.142195 1.05932,0.341179 2.964427,-0.403684 3.298547,-0.963302 0.0443,-0.07427 0.17062,-0.189837 0.28062,-0.256822 l 1.08425,-0.239105 c 0.1315,-0.05046 0.16575,-0.002 0.16575,0.234594 0,0.630316 -0.06123,1.036061 -0.291941,0.994042 -0.1186,-0.0216 -0.71063,0.13783 -1.31563,0.354287 -1.49412,0.53457 -1.061972,0.665606 0.279628,0.89228 0.31833,0.05378 0.2321,0.207528 -0.18147,0.323565 -0.4698,0.131814 -0.46815,0.274618 0.005,0.409025 0.46431,0.131967 0.3418,0.227854 -0.39807,0.31156 -0.45021,0.05094 -0.66136,0.128769 -0.82327,0.303473 -0.24347,0.262712 -0.982897,0.28402 -1.423997,0.09069 z m 4.45,-0.735721 c 0,-0.209 -0.0511,-0.431059 -0.11346,-0.493463 -0.0846,-0.08462 -0.0823,-0.519926 0.009,-1.712276 0.0871,-1.135167 0.0919,-1.122633 0.0165,-1.252369 -0.0584,-0.100499 -0.10762,-0.143465 -0.10929,-0.09548 -0.002,0.04799 -0.0681,0.03324 -0.14764,-0.03277 -0.37361,-0.310062 -1.26479,-0.403212 -2.18959,-0.228867 -0.83206,0.156861 -0.88984,0.156598 -0.97997,-0.0045 -0.15179,-0.271237 -0.55506,-0.20215 -1.33584,0.228849 -1.380192,0.911756 -0.95,0.594398 -0.95,0.594398 0,0.314023 -1.31713,-0.02386 -1.791232,-0.26903 -0.164359,-0.08499 -0.40984,-0.154536 -0.545511,-0.154536 -0.317081,0 -1.076385,-0.324832 -1.250936,-0.535154 -0.142605,-0.171828 -0.161376,-0.154704 0.344574,-0.314353 0.100719,-0.03178 0.135716,-0.116239 0.09774,-0.235882 -0.09757,-0.307408 0.729117,-0.728536 1.107765,-0.564316 0.103179,0.04475 0.457598,0.09576 0.7876,0.113362 0,0 0.930413,0.159182 1.32561,0.165416 0.41331,0.0065 0.300028,-0.147592 0.67289,-0.514936 0.54427,-0.321131 0.2721,-0.645393 -0.62742,-0.747479 -0.81515,-0.09251 -1.415157,-0.966182 -0.667247,-1.200647 0.20185,-0.06328 0.56161,-0.206221 0.79947,-0.31765 0.32042,-0.150109 0.46162,-0.173442 0.545,-0.09006 0.23657,0.236578 0.56344,0.122958 0.82128,-0.285478 0.33838,-0.536035 0.863097,-0.01872 0.205417,-0.332081 -0.31625,-0.150685 -1.225907,-0.385487 -1.374697,-0.521784 -0.26307,-0.240976 -0.27784,-0.243023 -0.53547,-0.07422 -0.31984,0.209566 -0.80071,0.14676 -1.18385,-0.154623 -0.35797,-0.281573 -0.3243,-0.408641 0.16743,-0.631933 0.23233,-0.105501 0.54298,-0.291164 0.69034,-0.412584 0.14735,-0.12142 0.48485,-0.253063 0.75,-0.292539 0.81231,-0.120942 1.426807,-0.317656 0.796677,-0.616676 -0.31744,-0.150633 -0.42821,-0.154585 -1.02076,-0.03642 -1.32696,0.264619 -2.567058,-0.003 -3.065717,-0.661624 -0.165482,-0.218564 -0.194561,-0.538335 -0.04895,-0.538335 0.434222,0 -0.186947,-0.85651 -0.750248,-1.034494 -0.231981,-0.0733 -0.483268,-0.430374 -0.398918,-0.566856 0.03169,-0.05127 0.246718,-0.144137 0.47785,-0.206374 0.295478,-0.07956 0.568842,-0.269895 0.920778,-0.641098 0.275296,-0.290367 0.646985,-0.610487 0.825976,-0.711379 0.288061,-0.16237 0.318614,-0.219811 0.266024,-0.500141 -0.05782,-0.308189 -0.0417,-0.325074 0.599555,-0.628055 0.86132,-0.406954 0.84604,-0.887387 -0.038,-1.195575 C 15.410965,9.724597 15.238207,9.381 15.708459,8.945185 15.968684,8.704011 15.969374,8.69996 15.750129,8.69996 c -0.2929,0 -0.220358,-0.211571 0.131305,-0.382941 0.19777,-0.09638 0.30869,-0.103154 0.4033,-0.02464 0.0753,0.06246 0.26984,0.08044 0.45968,0.04247 0.29636,-0.05927 0.31175,-0.07858 0.15438,-0.193648 -0.15695,-0.114771 -0.1236,-0.153748 0.32688,-0.382023 0.50635,-0.256589 0.50903,-0.260254 1.04976,-1.43624 0.0754,-0.163889 0.0716,-0.25983 -0.0136,-0.345 -0.21743,-0.217433 -0.14025,-0.47798 0.14159,-0.47798 0.14276,0 0.37902,-0.06397 0.525,-0.142156 0.14599,-0.07819 0.35543,-0.176752 0.46543,-0.219037 0.17852,-0.06862 0.17047,-0.08092 -0.075,-0.114486 -0.40861,-0.05588 -0.33621,-0.237451 0.24689,-0.619182 0.38992,-0.255269 0.61544,-0.336137 0.89189,-0.319825 0.2035,0.01201 0.39887,-0.02487 0.43415,-0.08196 0.0374,-0.06052 0.22208,-0.07853 0.44302,-0.0432 0.25916,0.04144 0.48138,0.0076 0.70326,-0.107157 0.44286,-0.229014 0.48308,-0.135503 0.085,0.197673 -0.18107,0.151555 -0.36152,0.359655 -0.401,0.462444 -0.0406,0.105772 -0.17083,0.187854 -0.3,0.189112 -0.12552,0.0012 -0.34072,0.09022 -0.47822,0.197776 -0.1375,0.107555 -0.37675,0.196554 -0.53167,0.197777 -0.64471,0.0051 -1.31045,0.884834 -0.69333,0.916201 0.47668,0.02423 1.07112,-0.03124 1.175,-0.109639 0.22575,-0.170378 1.05589,-0.308226 1.2454,-0.206802 0.10456,0.05596 0.26145,0.07437 0.34863,0.04092 0.0872,-0.03346 0.22501,-0.0057 0.30627,0.0618 0.0813,0.06744 0.44027,0.146105 0.79778,0.174803 0.36826,0.02956 0.6991,0.111297 0.76322,0.188562 0.13538,0.163126 0.12062,0.165417 -0.89022,0.138105 -1.23306,-0.03332 -1.3974,0.346979 -0.29325,0.678617 0.66415,0.199484 0.80193,0.20884 1.575,0.106956 1.11041,-0.146344 1.1294,-0.153253 1.06788,-0.388508 -0.0614,-0.234701 0.0977,-0.25413 0.3734,-0.04561 0.10677,0.08075 0.26427,0.147299 0.35,0.147885 0.0857,5.9e-4 0.31339,0.163584 0.50589,0.362218 l 0.35,0.361153 -0.65,-0.07368 c -0.3575,-0.04052 -0.7339,-0.117859 -0.83644,-0.171857 -0.3407,-0.179416 -1.59277,0.09238 -1.69883,0.368775 -0.0823,0.214369 0.22563,0.552325 0.50319,0.552325 0.2127,0 0.23601,0.02477 0.13633,0.144884 -0.17866,0.215261 -0.7864,0.39403 -0.93312,0.274476 -0.3187,-0.2597 -0.96039,-0.35417 -1.34528,-0.198054 -0.6237,0.252981 -1.07532,0.378694 -1.36045,0.378694 -0.14871,0 -0.58315,0.1575 -0.9654,0.35 -0.38225,0.1925 -0.75238,0.351618 -0.8225,0.353596 -0.20256,0.0057 -0.63873,0.416968 -0.81813,0.771404 -0.19442,0.38411 -0.17948,0.389436 0.31259,0.111363 0.21116,-0.11933 0.57897,-0.220451 0.83321,-0.229072 0.29843,-0.01012 0.56884,-0.09637 0.78525,-0.25047 0.31809,-0.226497 0.35459,-0.230409 1.00503,-0.107679 0.44961,0.08483 0.73301,0.09487 0.84883,0.03005 0.15046,-0.0842 0.99319,0.01817 1.14843,0.139506 0.0235,0.01836 -0.0827,0.164256 -0.23592,0.324213 -0.15325,0.159957 -0.24857,0.339488 -0.21181,0.398957 0.0919,0.148661 0.72432,0.128115 1.19241,-0.03874 0.40339,-0.143791 0.88568,-0.01811 1.24815,0.325258 0.0745,0.07062 0.21832,0.102119 0.31951,0.07 0.15092,-0.0479 0.18047,-0.0088 0.16446,0.217858 -0.0182,0.257401 0.0146,0.282067 0.48049,0.361515 0.85812,0.146336 1.08414,0.175271 1.62936,0.208594 0.29115,0.01779 0.5814,0.08439 0.645,0.147994 0.0636,0.0636 0.30648,0.115641 0.53974,0.115641 0.23325,0 0.45191,0.045 0.4859,0.1 0.034,0.055 0.1604,0.101497 0.2809,0.103327 l 0.2191,0.0033 -0.23284,0.194049 c -0.27062,0.225543 -0.25291,0.5303 0.034,0.584717 0.19232,0.03648 0.34416,0.184938 0.34732,0.33958 8e-4,0.04125 -0.23795,0.075 -0.53066,0.075 -0.7847,0 -1.42845,0.248231 -1.58784,0.612267 -0.0983,0.224539 -0.17869,0.283895 -0.32997,0.243659 -0.11,-0.02926 -0.27928,-0.05381 -0.37618,-0.05456 -0.14842,-0.0012 -0.16643,-0.06234 -0.11432,-0.388215 0.0529,-0.330958 0.0278,-0.410933 -0.17382,-0.553532 -0.23317,-0.164905 -0.23089,-0.166379 0.2134,-0.13815 0.38403,0.0244 0.46352,-0.0041 0.54872,-0.196466 0.11528,-0.260355 0.22589,-0.27636 0.49631,-0.07182 0.29781,0.225248 0.75589,0.19302 0.75589,-0.05318 0,-0.154847 -0.0667,-0.2 -0.29529,-0.2 -0.16242,0 -0.40368,-0.04938 -0.53614,-0.109736 -0.18807,-0.08569 -0.30854,-0.07473 -0.54974,0.05 -0.44904,0.232203 -0.66871,0.204486 -1.66062,-0.209527 -0.84865,-0.354222 -0.89702,-0.363181 -1,-0.185255 -0.29036,0.501678 -0.42995,0.568764 -0.76257,0.366483 -0.38991,-0.237118 -1.14591,-0.177984 -1.46734,0.114774 l -0.2217,0.201926 0.2217,0.23394 c 0.1596,0.168412 0.33374,0.234438 0.6217,0.235718 0.22,10e-4 0.63673,0.09175 0.92607,0.201725 0.28934,0.109973 0.719014,0.119672 0.974444,0.119672 0.45809,0 0.478016,0.08298 0.299486,0.280278 -0.0996,0.11 -0.23712,0.2 -0.30572,0.2 -0.0686,0 -0.17178,0.135 -0.2293,0.3 -0.0888,0.254874 -0.15629,0.3 -0.44835,0.3 -0.18907,0 -0.47266,0.06722 -0.6302,0.149384 -0.15754,0.08216 -0.35676,0.149661 -0.44272,0.15 -0.086,3e-4 -0.28563,0.135616 -0.44371,0.300616 l -0.28742,0.3 0.49371,-0.007 c 0.27154,-0.0039 0.58371,-0.04321 0.69371,-0.08744 0.11623,-0.04673 0.28377,-0.03436 0.4,0.02954 0.20749,0.114064 1.57687,0.273771 2.57152,0.299908 0.86401,0.02271 1.0718,-0.227748 0.55348,-0.667107 -0.57355,-0.486168 -0.47904,-0.816539 0.16368,-0.572177 0.13844,0.05263 0.69262,0.118499 1.23151,0.146368 0.5389,0.02787 1.36231,0.07991 1.82981,0.115644 l 0.85,0.06497 0.0183,0.344199 0.0183,0.344199 -0.96827,-0.06392 c -0.53255,-0.03516 -1.10557,-0.105685 -1.27338,-0.156726 -0.37342,-0.113587 -1.40934,0.26745 -1.6298,0.599483 -0.12923,0.194621 -0.12109,0.210087 0.11046,0.210087 0.13747,0 0.30597,0.0675 0.37444,0.15 0.17582,0.211847 -0.1765,0.205333 -0.48239,-0.0089 -0.12479,-0.08741 -0.298,-0.131629 -0.38492,-0.09828 -0.0869,0.03336 -0.2168,0.01188 -0.28861,-0.04772 -0.23777,-0.197329 -1.80622,-0.07294 -1.99408,0.158147 -0.13687,0.168363 -0.78707,0.258125 -2.15454,0.29744 -1.40546,0.04041 -2.39546,0.443548 -2.39546,0.975461 0,0.185575 0.0473,0.197358 0.59318,0.147857 0.4354,-0.03948 0.60649,-0.01909 0.64324,0.07668 0.07,0.182345 0.61239,0.283763 0.84677,0.158325 0.14243,-0.07623 0.31537,-0.06327 0.64225,0.04811 0.41817,0.142484 0.48247,0.139075 0.98595,-0.05229 0.6096,-0.231694 0.94998,-0.254907 1.3571,-0.09255 l 0.28151,0.112264 -0.2564,0.112736 c -0.44902,0.197425 -1.0936,0.771679 -1.0936,0.974277 0,0.297248 0.23699,0.325688 0.76558,0.09187 0.42461,-0.187827 0.53553,-0.199105 0.95905,-0.0975 0.26339,0.06319 0.58546,0.08814 0.71569,0.05546 0.1489,-0.03737 0.28257,-0.0043 0.3601,0.08914 0.0678,0.08171 0.30922,0.200129 0.53644,0.263143 1.11763,0.309937 1.21221,0.357121 1.24432,0.62079 0.0184,0.150961 0.11371,0.282199 0.2323,0.31984 0.1843,0.05849 0.18797,0.07837 0.0438,0.237651 -0.32296,0.35687 -0.0692,0.404324 0.80429,0.150397 0.8083,-0.234979 0.86675,-0.121067 0.1361,0.265235 -0.84274,0.445561 -0.85567,0.640215 -0.0431,0.648897 0.86408,0.0092 0.99629,0.07296 0.79348,0.382479 -0.0998,0.152267 -0.12145,0.265697 -0.0583,0.304753 0.10422,0.06441 1.24122,-0.08925 1.40377,-0.189709 0.0506,-0.03129 0.11997,0.03111 0.15411,0.138668 0.0531,0.167179 0.1448,0.192784 0.6322,0.176453 0.51298,-0.01719 0.57318,0.0023 0.60056,0.194222 0.0743,0.520929 -2.67714,0.642459 -2.81266,0.124234 -0.0399,-0.152438 -0.14911,-0.18914 -0.58341,-0.195998 -1.39939,-0.0221 -1.67339,-0.109319 -2.19419,-0.698468 -0.26405,-0.298702 -0.5587,-0.686757 -0.65478,-0.862345 -0.26012,-0.475398 -2.27312,-1.304645 -2.63064,-1.083683 -0.0649,0.04013 -0.10475,0.597715 -0.10475,1.467169 0,1.536622 -0.15513,1.854652 -0.35505,0.727863 -0.0835,-0.470631 -0.13992,-0.58607 -0.275,-0.562714 -0.15225,0.02632 -0.17009,-0.09865 -0.17131,-1.2 -0.003,-2.694835 -0.38793,-2.045621 -0.59032,0.995616 -0.005,0.06875 -0.12567,0.125 -0.26911,0.125 h -0.26078 l 0.066,-1.025 c 0.0363,-0.56375 0.0861,-1.1375 0.11061,-1.275 0.0526,-0.295026 -0.0859,-0.55455 -0.24386,-0.45691 -0.0685,0.04231 -0.11573,0.460303 -0.12301,1.087812 -0.0182,1.565319 -0.0417,1.624568 -0.63268,1.593229 -0.34713,-0.01841 -0.54212,0.02327 -0.67611,0.144531 -0.10356,0.09372 -0.27968,0.184346 -0.39139,0.201394 -0.27575,0.04208 -0.61855,0.232715 -0.54705,0.304216 0.0319,0.03194 0.23683,-9e-4 0.45532,-0.07304 0.28455,-0.09391 0.43386,-0.100725 0.52629,-0.02402 0.20394,0.169257 0.98527,0.438163 1.47745,0.508488 0.40647,0.05808 0.44736,0.08848 0.42275,0.314297 -0.015,0.1375 -0.0275,0.675401 -0.0279,1.195336 -5e-4,0.73271 -0.0373,0.985837 -0.16362,1.125406 -0.12171,0.134491 -0.1389,0.23692 -0.0679,0.404664 0.0523,0.123527 0.0634,0.449594 0.0246,0.724594 -0.0387,0.275 -0.0744,0.75875 -0.0792,1.075 -0.005,0.31625 -0.0538,0.575 -0.10876,0.575 -0.055,0 -0.1,-0.171 -0.1,-0.38 z m 1.675,-1.709671 c -0.11224,-0.957315 -0.0928,-2.201237 0.0311,-1.988662 0.0565,0.09701 0.0878,0.705864 0.072,1.4 -0.0257,1.123273 -0.0345,1.173621 -0.1031,0.588662 z"
       style="fill:url(#linearGradient1082);fill-opacity:1;stroke-width:0.1" />
    <path
       id="path993"
       d="m 4.435213,39.221241 -0.313286,-0.471231 0.418856,0.475 c 0.430828,0.488578 0.666206,0.588008 0.767442,0.32419 0.06672,-0.173868 -0.226602,-0.84919 -0.36884,-0.84919 -0.05242,0 -0.09531,-0.0675 -0.09531,-0.15 0,-0.264514 0.325921,-0.160784 0.667899,0.212569 0.370658,0.404664 0.417855,0.662059 0.157101,0.856761 -0.472518,0.352823 -0.476536,0.452394 -0.03748,0.928716 0.226862,0.246117 0.412477,0.492576 0.412477,0.547687 0,0.163126 0.712143,0.477889 1.346538,0.595164 0.875384,0.161823 0.953462,0.149519 0.953462,-0.150259 0,-0.176956 0.06481,-0.276312 0.203998,-0.312709 0.1913,-0.05003 0.193657,-0.06477 0.03787,-0.236913 -0.173268,-0.191458 -0.132248,-0.491016 0.06724,-0.491016 0.2080369,0.144134 0.4829447,0.153016 0.808283,0.445171 0.04987,0.350155 0.318477,0.508569 0.45467,0.147748 0.06934,-0.183716 0.17173,-0.294037 0.248018,-0.267244 0.192126,0.06748 0.130743,0.663717 -0.08559,0.831355 -0.178839,0.138584 -0.178545,0.147557 0.0096,0.292963 0.106762,0.0825 0.271832,0.15 0.366821,0.15 0.09499,0 0.243889,0.02731 0.330887,0.0607 0.113395,0.04351 0.158179,0.001 0.158179,-0.15 0,-0.115885 0.04788,-0.210699 0.106397,-0.210699 0.0593,0 0.0925,0.139241 0.075,0.314567 0.56656,1.773586 2.379844,0.496952 1.843604,0.403484 -0.299493,-0.04254 -0.286013,-0.258143 0.025,-0.39985 0.300342,-0.136844 0.326943,-0.374748 0.05,-0.44717 -0.307413,-0.08039 -0.237075,-0.271025 0.100003,-0.271025 0.51504,0 0.375191,-0.444504 -0.235665,-0.749049 -0.326921,-0.162988 -0.26731,-0.395843 0.110665,-0.432287 0.34031,-0.03281 0.474574,-0.318664 0.149675,-0.318664 -0.307655,0 -0.754882,-0.566032 -0.680713,-0.861544 0.03619,-0.144185 0.01433,-0.31822 -0.04965,-0.395312 -0.07198,-0.08674 -0.126458,-0.734618 -0.147133,-1.749929 -0.03387,-1.663403 -0.07266,-1.90223 -0.238211,-1.466798 -0.241438,0.63503 -0.385587,0.415895 -0.155466,-0.236338 0.08443,-0.239287 0.169494,-0.695641 0.18904,-1.014121 0.0372,-0.606159 0.22894,-1.004926 0.364116,-0.757277 0.03942,0.07223 0.10176,0.558819 0.138527,1.081319 0.03677,0.5225 0.09007,1.085 0.118457,1.25 0.02839,0.165 0.108333,0.7725 0.177663,1.35 0.117867,0.981806 0.195787,1.318293 0.509451,2.2 0.149915,0.421411 0.201207,2.514447 0.06786,2.769164 -0.173739,0.331875 -0.02796,0.830836 0.242735,0.830836 0.131257,0 0.23865,-0.0525 0.23865,-0.116667 0,-0.06417 0.02469,-0.09198 0.05487,-0.0618 0.03018,0.03018 0.02564,0.171313 -0.01008,0.313636 l -0.06495,0.258769 -1.097608,-0.0059 c -0.603685,-0.0033 -1.124247,0.02069 -1.156805,0.05325 -0.03256,0.03256 -0.137136,-0.01134 -0.232396,-0.09755 -0.144584,-0.130847 -0.242182,-0.138168 -0.590748,-0.04431 -0.318412,0.08574 -0.452053,0.0838 -0.562877,-0.0082 -0.197264,-0.163715 -0.666776,0.04398 -0.621527,0.274943 0.06746,0.344326 0.731234,0.451795 2.382121,0.385682 2.213013,-0.08863 2.310964,-0.08867 3.759251,-0.0017 1.30803,0.07857 1.30939,0.07842 1.47683,-0.160758 l 0.16759,-0.239398 3.71245,-0.03071 c 2.60211,-0.02152 3.74532,0.0022 3.82233,0.07916 4.702441,0.396606 6.153196,1.417979 -0.21988,1.002726 -2.462196,-0.16043 -5.129976,0.245394 -7.680464,0.26057 -4.645646,0.02764 -5.841476,1.144838 -5.841476,1.144838 -2.8768332,-1.787005 -5.3040122,-4.476579 -6.805471,-6.68535 z m 21.285071,4.408033 c 7e-6,10e-7 7e-6,-2e-5 0,-2e-5 z M 15.402156,43.387994 C 14.698398,43.222961 14.666205,43.123598 14.59606,40.9 14.5322,38.8757 14.437106,37.933536 14.338679,38.35 l -0.0709,0.3 -0.01183,-0.325 c -0.0065,-0.17875 0.03798,-0.325 0.09887,-0.325 0.06088,0 0.08341,-0.0711 0.05007,-0.158004 -0.09587,-0.249827 0.05194,-1.254372 0.178426,-1.212668 0.191982,0.0633 0.54927,3.27237 0.555299,4.987574 l 0.0055,1.566901 0.465049,0.09918 c 0.255781,0.05455 0.533161,0.07305 0.616401,0.04111 0.0988,-0.03789 0.12623,-0.01742 0.079,0.05891 -0.0831,0.1344 -0.34444,0.135844 -0.902458,0.005 z m 19.169948,0.01 c -0.28544,-0.114858 -0.30798,-0.230164 -0.42519,-2.175127 -0.0539,-0.894925 -0.14795,-1.720366 -0.20893,-1.834314 -0.11742,-0.219414 -0.0506,-0.68855 0.0981,-0.68855 0.21789,0 0.55023,2.422278 0.60185,4.386658 0.005,0.197447 0.0476,0.228739 0.25622,0.188867 0.2754,-0.05265 0.34275,0.06748 0.0918,0.163776 -0.087,0.03338 -0.16575,0.05785 -0.175,0.05436 -0.009,-0.0035 -0.11672,-0.04654 -0.23883,-0.09567 z M 17.102484,43.21354 c -0.0622,-0.100677 -0.15435,-0.906044 -0.20172,-1.763537 -0.0182,-0.33 -0.0419,-0.735 -0.0525,-0.9 l -0.0194,-0.3 -0.14329,0.35 c -0.14536,0.355051 -0.14516,0.346647 0.013,-0.526105 0.20705,-1.142458 0.64549,0.247958 0.64549,2.047052 0,0.828029 0.13061,1.202144 0.35023,1.003185 0.045,-0.04077 0.0495,-0.01788 0.01,0.05087 -0.0816,0.141783 -0.52058,0.169895 -0.60176,0.03854 z M 32.101917,43.275 c -0.007,-0.01375 -0.0264,-0.399002 -0.0428,-0.856115 -0.0164,-0.457114 -0.0788,-0.89016 -0.1387,-0.962326 -0.0599,-0.07216 0.450067,-0.208955 0.486567,-0.303977 0.0382,-0.09959 0.0105,-0.207234 -0.0654,-0.254143 -0.0818,-0.05054 -0.14484,-0.340366 -0.16641,-0.764907 -0.05,-0.984928 -0.12373,-1.352644 -0.26181,-1.30662 -0.0656,0.02186 -0.11926,0.103505 -0.11926,0.181421 0,0.07792 -0.0675,0.141667 -0.15,0.141667 -0.0856,0 -0.16253,0.107404 -0.17916,0.25 -0.016,0.1375 -0.0704,0.34 -0.12084,0.45 -0.0504,0.11 -0.10992,0.3125 -0.13222,0.45 -0.0253,0.155893 -0.0457,0.09629 -0.0542,-0.158333 -0.007,-0.224584 0.0198,-0.441764 0.0607,-0.482623 0.0654,-0.0654 0.27651,-1.238854 0.50923,-2.830601 0.16994,-1.162297 0.48575,-0.529155 0.50955,1.021557 0.005,0.294661 0.0824,0.623204 0.18963,0.8 0.38026,0.626954 0.65927,3.54355 0.40028,4.184236 -0.0924,0.228524 -0.0873,0.301726 0.0261,0.373469 0.11386,0.07208 0.10732,0.08953 -0.034,0.09076 -0.0962,8e-4 -0.710027,-0.0097 -0.717197,-0.02347 z m 5.600957,-0.460831 c -0.0376,-0.06092 -0.0427,-0.25778 -0.0112,-0.437466 0.047,-0.267836 0.003,-0.387701 -0.24515,-0.665252 -0.16633,-0.186203 -0.30242,-0.394443 -0.30242,-0.462755 0,-0.06831 -0.0714,-0.183463 -0.15867,-0.25589 -0.10889,-0.09037 -0.14513,-0.243235 -0.11551,-0.487245 0.0237,-0.195557 0.003,-0.446303 -0.0467,-0.557212 -0.0507,-0.113615 -0.0528,-0.301903 -0.005,-0.431277 0.0504,-0.13617 0.0303,-0.684639 -0.0493,-1.347648 -0.13361,-1.112568 -0.10312,-1.687761 0.0798,-1.504867 0.12485,0.12485 0.4696,2.429218 0.55564,3.713989 0.0658,0.982411 0.0817,1.03766 0.35434,1.231809 0.15701,0.111796 0.28479,0.278952 0.28396,0.371456 -0.003,0.296657 -0.26842,0.947764 -0.33974,0.832358 z m -18.3653,-0.339147 c -0.004,-0.06875 -0.0192,-0.3725 -0.0346,-0.675 -0.0593,-1.159501 -0.17914,-1.813597 -0.32235,-1.758642 -0.14713,0.05646 -0.1748,-0.138116 -0.0734,-0.516358 0.12537,-0.467804 0.53334,0.01725 0.53641,0.637756 3e-4,0.06202 0.0621,0.16382 0.13729,0.226233 0.21084,0.174979 0.39625,-0.111187 0.31417,-0.484893 -0.0422,-0.192236 -0.0271,-0.304096 0.0412,-0.304096 0.0594,0 0.10795,0.1125 0.10795,0.25 0,0.330119 0.15653,0.317924 0.32089,-0.025 0.28021,-0.584632 0.64884,-0.0353 0.67106,1 0.005,0.225258 0.0571,0.375 0.13078,0.375 0.0675,0 0.005,0.118048 -0.1396,0.262328 -0.37771,0.377703 -0.48268,0.238811 -0.48617,-0.64323 -0.004,-0.941877 -0.12337,-0.788693 -0.2975,0.380902 -0.15696,1.054286 -0.31797,1.4 -0.65203,1.4 -0.13609,0 -0.25037,-0.05625 -0.25397,-0.125 z m -8.69346,-1.366821 c 0,-0.483647 -0.08861,-0.621309 -0.320169,-0.497385 -0.24744,0.132426 -0.72509,-0.274054 -0.815657,-0.694123 -0.03434,-0.159251 -0.219968,-0.380059 -0.460834,-0.548156 -0.221837,-0.154817 -0.40334,-0.323567 -0.40334,-0.375 0,-0.173345 0.36953,-0.09525 0.740486,0.156485 0.685863,0.465439 0.825381,0.07748 0.145941,-0.405817 C 9.303076,38.582404 8.990793,38.319217 8.836578,38.159345 L 8.556187,37.868668 8.775151,37.478726 8.994114,37.088784 8.70468,36.854137 C 8.325288,36.54656 8.408175,36.300022 8.890975,36.300022 c 0.498654,0 0.450819,-0.21628 -0.112459,-0.508476 -0.55376,-0.287258 -0.601943,-0.430191 -0.159402,-0.47286 0.387924,-0.0374 0.419635,-0.179833 0.075,-0.336859 -0.301931,-0.137569 -0.318365,-0.246629 -0.05,-0.331805 0.278729,-0.08846 0.250235,-0.25 -0.0441,-0.25 -0.324601,0 -0.411401,-0.163261 -0.158703,-0.298501 0.367575,-0.19672 0.253555,-0.427346 -0.190346,-0.385013 -0.307071,0.02928 -0.370304,0.01 -0.288813,-0.08822 0.312254,-0.376243 -0.213719,-0.56113 -0.590185,-0.207459 l -0.1177647,0.230185 0.043596,-0.394388 c 0.09478,-0.325337 0.134626,-0.492151 0.097,-0.645804 -0.06166,-0.251757 -0.05855,-0.253864 0.08954,-0.0608 0.08438,0.11 0.156213,0.2675 0.159634,0.35 0.0049,0.118702 0.02749,0.113486 0.10815,-0.025 0.05606,-0.09625 0.146665,-0.175 0.201343,-0.175 0.05468,0 0.08619,0.07875 0.07003,0.175 -0.01962,0.116831 0.04541,0.185622 0.195616,0.206955 0.267064,0.03793 0.328132,-0.348656 0.07068,-0.447449 -0.137567,-0.05279 -0.136588,-0.07881 0.009,-0.239695 0.106826,-0.118042 0.139213,-0.256466 0.09362,-0.400129 -0.0442,-0.139249 -0.0215,-0.249451 0.06201,-0.301062 0.104794,-0.06477 0.0942,-0.122876 -0.05182,-0.284227 -0.114932,-0.126999 -0.16222,-0.284369 -0.126497,-0.420973 0.08548,-0.326886 -0.03549,-0.808479 -0.188352,-0.749821 -0.145611,0.05588 -0.103958,-0.484312 0.07373,-0.956227 0.05542,-0.147196 0.07187,-0.358697 0.03654,-0.470002 -0.07305,-0.230173 0.206616,-0.84856 0.345068,-0.762991 0.04976,0.03075 0.0877,0.403476 0.0843,0.828269 -0.0034,0.424794 0.04578,0.903783 0.109279,1.064422 0.0635,0.160638 0.139115,0.633138 0.168033,1.05 0.02896,0.417495 0.119997,0.861998 0.202676,0.989622 0.108932,0.168151 0.120643,0.267182 0.0427,0.361098 -0.07762,0.09353 -0.06561,0.22941 0.04331,0.490095 0.08289,0.19838 0.150707,0.531184 0.150707,0.739563 0,0.20838 0.04855,0.536075 0.107898,0.728212 0.05934,0.192137 0.145638,0.68684 0.191764,1.09934 0.11654,1.042188 0.265037,1.418423 0.4567747,1.1573 0.1843,-0.250993 0.184727,-0.250284 0.44756,0.7427 0.255851,0.966608 0.558179,1.63518 0.699837,1.54763 0.05611,-0.03468 0.09617,0.127992 0.09617,0.390567 0,0.418768 -0.188867,0.745202 -0.277432,0.479508 -0.146879,-0.440639 -0.265823,0.164513 -0.237295,1.207295 0.0072,0.26125 -0.03162,0.475 -0.08614,0.475 -0.05452,0 -0.09913,-0.13132 -0.09913,-0.291821 z m 25.26929,-1.710984 c -0.10382,-0.148227 -0.16988,-0.43612 -0.17082,-0.744446 -10e-4,-0.383279 -0.0269,-0.467104 -0.10811,-0.352749 -0.0773,0.108805 -0.0898,-0.05538 -0.0456,-0.597819 0.0973,-1.194915 0.29063,-1.225429 0.52838,-0.08342 0.16171,0.776799 0.17398,1.247585 0.045,1.725684 l -0.0795,0.294446 z m 4.68243,-0.995293 c -0.0986,-0.108954 -0.19135,-0.350256 -0.2061,-0.536227 -0.058,-0.730956 -0.36982,-2.021928 -0.51583,-2.135564 -0.10372,-0.08073 -0.13312,-0.203216 -0.09,-0.375 0.0835,-0.332727 0.23881,-0.324448 0.36965,0.01971 0.0575,0.151149 0.16242,0.342399 0.23322,0.425 0.0708,0.0826 0.17598,0.330183 0.23373,0.550183 0.0578,0.22 0.20098,0.753229 0.31829,1.184954 0.26175,0.963253 0.10433,1.361187 -0.34295,0.866948 z m -29.243825,-0.06023 c 0.0048,-0.116495 0.02849,-0.14019 0.06042,-0.06042 0.02889,0.07219 0.02533,0.158438 -0.0079,0.191667 -0.03323,0.03323 -0.05686,-0.02583 -0.05252,-0.13125 z m 34.886995,-0.516667 c 0.16377,-0.31625 0.39386,-0.6875 0.51131,-0.825 l 0.21355,-0.25 -0.19671,0.35 c -0.78105,1.389659 -1.09683,1.823139 -0.52815,0.725 z M 4.318769,38.041349 c -0.173266,-0.173267 -0.06231,-0.341322 0.225345,-0.341322 0.250575,0 0.3,-0.03981 0.3,-0.241667 0,-0.132916 0.05625,-0.267916 0.125,-0.3 0.0904,-0.04219 0.09334,-0.0735 0.01062,-0.113128 -0.06291,-0.03014 -0.09153,-0.142189 -0.0636,-0.249004 0.03573,-0.136639 -0.01929,-0.224911 -0.185616,-0.297779 -0.193039,-0.08457 -0.151042,-0.09452 0.228954,-0.05423 l 0.465357,0.04934 -0.490466,-0.503542 C 4.311194,35.350233 4.204199,35.157645 4.38744,35.005568 c 0.110438,-0.09165 0.218385,-0.0354 0.523548,0.272825 0.280824,0.283644 0.500419,0.406835 0.814832,0.457112 0.376069,0.06014 0.422193,0.09471 0.365338,0.273841 -0.07114,0.224147 0.188522,0.590683 0.418456,0.590683 0.22724,0 0.149259,0.351101 -0.132368,0.595973 -0.255603,0.222244 -0.258997,0.237797 -0.08038,0.368408 0.265549,0.194174 0.05348,0.373873 -0.480344,0.407034 -0.232327,0.01443 -0.647567,0.05286 -0.922757,0.0854 -0.275189,0.03254 -0.533939,0.02557 -0.575,-0.01549 z m 39.150345,-0.237671 c -0.26313,-0.333635 -0.28203,-0.41926 -0.075,-0.339814 0.2621,0.100579 0.16104,-0.10617 -0.15342,-0.313837 -0.23341,-0.154148 -0.2901,-0.252087 -0.24725,-0.427196 0.0351,-0.143545 0.004,-0.246885 -0.0838,-0.280671 -0.0846,-0.03247 -0.16466,-0.277087 -0.20378,-0.622804 -0.17287,-1.527531 -0.40617,-3.019329 -0.47221,-3.019329 -0.0957,0 -0.2208,0.568564 -0.15018,0.682828 0.0298,0.04824 -0.005,0.16881 -0.0776,0.267935 -0.15992,0.218702 -0.0318,-1.028582 0.14893,-1.449764 0.10033,-0.233814 0.11487,-0.238027 0.23841,-0.06907 0.12328,0.168601 0.3227,1.040417 0.39299,1.718072 0.0328,0.315956 0.17369,0.732637 0.47568,1.406572 0.1002,0.223615 0.18218,0.497952 0.18218,0.609637 0,0.111685 0.0769,0.356227 0.17082,0.543427 0.15935,0.317514 0.26909,1.597843 0.13584,1.584831 -0.0312,-0.003 -0.15791,-0.13391 -0.28166,-0.290816 z m 2.63217,-1.571013 c -0.0353,-0.09205 -0.0367,-0.351094 -0.003,-0.575657 0.0426,-0.284036 10e-4,-0.575483 -0.13657,-0.957639 -0.10879,-0.302138 -0.22482,-0.669945 -0.25785,-0.817349 -0.033,-0.147404 -0.12736,-0.335311 -0.20962,-0.41757 -0.14665,-0.146647 -0.10945,-0.464423 0.0544,-0.464423 0.0912,0 0.74404,1.321229 0.8222,1.66393 0.0268,0.117662 0.0119,0.273653 -0.0332,0.346646 -0.0455,0.07357 -0.0369,0.187075 0.0192,0.254678 0.0685,0.08257 0.0667,0.186501 -0.006,0.321806 -0.0699,0.130589 -0.0745,0.285188 -0.0133,0.44611 0.0899,0.236537 0.0546,0.36683 -0.0996,0.36683 -0.04,0 -0.10154,-0.07531 -0.13686,-0.167362 z M 11.759903,36.1 c 0,-0.1375 0.0227,-0.19375 0.05044,-0.125 0.02774,0.06875 0.02774,0.18125 0,0.25 -0.02774,0.06875 -0.05044,0.0125 -0.05044,-0.125 z m 32.953901,-1.239317 c -0.0409,-0.104122 -0.0508,-0.212872 -0.022,-0.241666 0.0912,-0.09121 0.17145,0.05826 0.13323,0.248152 -0.035,0.174033 -0.0404,0.173721 -0.11119,-0.0065 z M 5.70112,34.611336 C 5.67098,34.562576 5.498137,34.494873 5.317022,34.460895 4.909784,34.384495 4.316548,33.862782 4.365509,33.624099 c 0.04016,-0.195785 0.468251,-0.199871 0.846859,-0.0081 0.12004,0.06081 0.28879,0.08349 0.375,0.05041 C 5.99502,33.509978 5.535988,32.856227 4.95305,32.763011 4.501946,32.690881 4.372001,32.557366 4.547307,32.346135 c 0.06623,-0.0798 0.09543,-0.240626 0.06489,-0.357396 -0.05117,-0.19567 -0.026,-0.207588 0.321188,-0.15207 C 5.327218,31.899649 5.72941,31.7189 5.613342,31.531097 5.579612,31.476527 5.302738,31.324262 4.998064,31.192741 4.239308,30.865202 4.201343,30.526548 4.918214,30.480462 5.510372,30.442392 5.613734,30.201496 5.115251,30.021243 4.930815,29.954543 4.704358,29.89998 4.612013,29.89998 c -0.233503,0 -0.214584,-0.367979 0.02553,-0.496482 0.106384,-0.05693 0.308884,-0.103518 0.45,-0.103518 0.316672,0 0.332311,-0.153558 0.03157,-0.310027 C 4.466731,28.650529 4.210439,28.09998 4.704812,28.09998 c 0.308258,0 0.309673,-0.230889 0.0026,-0.432059 -0.257106,-0.168462 -0.402031,-0.53223 -0.249579,-0.62645 0.05225,-0.03229 0.165391,-3e-4 0.251433,0.07113 0.309995,0.257273 0.483842,-0.19423 0.182367,-0.473628 -0.299667,-0.277722 -0.314815,-0.440127 -0.04757,-0.510013 0.11,-0.02877 0.205182,-0.103303 0.211515,-0.165638 0.03138,-0.308843 -0.04284,-0.529787 -0.232219,-0.691259 L 4.614689,25.094142 4.8276,24.867509 5.04051,24.640877 4.823593,24.42396 c -0.205648,-0.205648 -0.208022,-0.226744 -0.0457,-0.406107 0.150401,-0.166192 0.15319,-0.204151 0.02294,-0.312252 -0.09842,-0.08168 -0.128793,-0.220487 -0.09033,-0.412798 0.08255,-0.41274 -0.20196,-0.502749 -0.535344,-0.169365 -0.217733,0.217733 -0.235404,0.281638 -0.131545,0.475701 0.09552,0.178475 0.0925,0.251668 -0.01479,0.359011 -0.22153,0.221645 -0.1589622,-0.849989 0.087001,-1.339893 0.122707,-0.244405 0.2148082,-0.353102 0.2012762,-0.570321 -0.02231,-0.358054 0.218872,-0.689373 0.38262,-0.525625 0.06056,0.06055 0.314544,1.180097 0.562107,2.477674 0.05771,0.3025 0.189826,0.6429 0.293584,0.756445 0.224574,0.245758 0.23384,0.425399 0.03547,0.687668 -0.19707,0.26055 -0.185009,0.42579 0.05318,0.7286 0.240585,0.305855 0.257866,0.654773 0.04133,0.834483 -0.116758,0.0969 -0.141674,0.225607 -0.09432,0.487245 0.03539,0.195557 0.06665,0.490559 0.06947,0.655559 0.0028,0.165 0.112765,0.443248 0.244324,0.618328 0.276933,0.368549 0.298877,0.515048 0.0892,0.595509 -0.184359,0.07075 -0.186908,0.306712 -0.0068,0.631926 0.09777,0.176566 0.108767,0.317347 0.03906,0.5 -0.06711,0.175852 -0.05813,0.372435 0.02914,0.637602 0.09503,0.288765 0.0988,0.455857 0.01528,0.677144 -0.09227,0.244456 -0.07225,0.38996 0.119219,0.866635 0.126559,0.315071 0.260989,0.870934 0.298732,1.235252 l 0.06862,0.662397 -0.244888,-0.04681 c -0.134689,-0.02575 -0.275319,0.0024 -0.312512,0.0626 -0.08167,0.132139 -0.223869,0.142015 -0.298813,0.02075 z m 36.103054,-0.277957 c 0.092,-0.383141 0.13994,-0.419405 0.13994,-0.105947 0,0.14342 -0.0468,0.289691 -0.10401,0.325045 -0.0682,0.04216 -0.0806,-0.03323 -0.0359,-0.219098 z M 1.518958,33.596129 C 0.457541,30.28668 0.051617,28.092577 0.454677,27.843472 c 0.04919,-0.0304 0.08944,-0.18762 0.08944,-0.349374 0,-0.196123 0.0505,-0.294098 0.151588,-0.294098 0.101219,0 0.14814,0.09138 0.14121,0.275 -0.0057,0.15125 0.06054,0.5225 0.147225,0.825 0.08668,0.3025 0.158792,0.685 0.160245,0.85 0.0015,0.165 0.07296,0.501987 0.158915,0.74886 0.08595,0.246872 0.131013,0.575159 0.10014,0.729527 -0.03087,0.154367 -0.0048,0.472537 0.05791,0.707045 0.124122,0.464079 0.04461,1.01459 -0.130873,0.906135 -0.06841,-0.04228 -0.08734,0.0019 -0.05182,0.12091 0.03078,0.103138 0.08474,0.308312 0.119903,0.455944 0.0421,0.176755 0.16325,0.303041 0.354749,0.369798 0.313653,0.10934 0.377092,0.257274 0.148022,0.345176 -0.07853,0.03014 -0.157283,0.179459 -0.175,0.331828 -0.02747,0.236284 -0.05798,0.196702 -0.207368,-0.269094 z m 6.093524,-1.508708 c 0.154084,-0.167528 0.192132,-0.284092 0.129245,-0.395956 -0.05292,-0.09414 -0.05018,-0.276926 0.0067,-0.45 L 7.844297,30.95 7.797377,31.271562 c -0.03647,0.249903 0.0018,0.35568 0.171656,0.474662 0.253208,0.177353 0.127358,0.373112 -0.324955,0.505465 l -0.25,0.07315 0.218369,-0.237421 z m 40.439522,-1.145745 c 0.005,-0.116495 0.0285,-0.14019 0.0604,-0.06042 0.0289,0.07219 0.0253,0.158438 -0.008,0.191667 -0.0332,0.03323 -0.0569,-0.02583 -0.0525,-0.13125 z m -0.10471,-0.399234 c 0.006,-0.167405 0.2819,-0.464071 0.39643,-0.425895 0.0634,0.02115 10e-4,0.142013 -0.14366,0.277878 -0.14077,0.132247 -0.25452,0.198855 -0.25277,0.148017 z m -0.03651,-0.509098 c -0.13016,-0.130154 -0.0638,-0.320763 0.13344,-0.383367 0.39087,-0.124057 0.45219,-0.447598 0.10936,-0.577002 -0.34073,-0.128612 -0.47258,-0.351552 -0.30439,-0.514686 0.0812,-0.0788 0.10255,-0.05383 0.0783,0.09172 -0.0253,0.151829 0.0449,0.223045 0.29164,0.29568 0.45833,0.134933 0.43092,0.489535 -0.0578,0.747019 -0.1377,0.07255 -0.21045,0.180767 -0.17813,0.26497 0.0591,0.154028 0.0331,0.181198 -0.0724,0.07566 z m 1.4339,-0.08333 c -0.0835,-0.457135 -0.0335,-1.154331 0.0861,-1.200216 0.19449,-0.07463 -0.0112,-2.057761 -0.24859,-2.397035 -0.0759,-0.108487 -0.13803,-0.342082 -0.13803,-0.519098 0,-0.368494 -0.19391,-0.564962 -0.21176,-0.214553 -0.006,0.126996 -0.0493,0.006 -0.0953,-0.268848 -0.1446,-0.865512 0.18893,-0.883265 0.45227,-0.02407 0.0883,0.288103 0.22444,0.726324 0.30253,0.973824 0.25266,0.800783 0.27282,1.66741 0.064,2.75 -0.10611,0.55 -0.20114,0.955 -0.21119,0.9 z m -1.22814,-1.572711 c 0.0554,-0.07001 0.12571,-0.194789 0.15625,-0.277289 0.0379,-0.102385 0.058,-0.08197 0.0634,0.0643 0.004,0.117866 -0.066,0.242646 -0.15624,0.277289 -0.1228,0.04712 -0.13878,0.03092 -0.0634,-0.0643 z m -18.75381,-1.784644 c -0.0997,-0.159592 -0.16108,-0.181906 -0.26449,-0.09609 -0.0891,0.07393 -0.14644,0.07701 -0.1694,0.0091 -0.0191,-0.05647 -0.25319,-0.143422 -0.5202,-0.19322 -1.11133,-0.207264 -0.94628,-0.723392 0.21685,-0.678109 0.40067,0.0156 0.67079,0.07216 0.69526,0.145585 0.0615,0.184604 0.19414,0.142601 0.25234,-0.07992 0.0398,-0.1523 0.13204,-0.197849 0.38666,-0.190981 l 0.33436,0.009 -0.33171,0.09558 c -0.326,0.09393 -0.33116,0.104353 -0.3,0.605778 0.0342,0.550655 -0.0913,0.706966 -0.29967,0.373265 z m 5.08138,-0.738668 0.25,-0.138922 -0.275,-0.107534 c -0.15125,-0.05914 -0.38664,-0.151094 -0.52309,-0.204334 -0.16452,-0.06419 -0.22829,-0.148407 -0.1893,-0.25 0.058,-0.151006 -0.1369,-0.207729 -0.58582,-0.170542 -0.0985,0.0082 -0.23708,-0.109185 -0.3213,-0.272038 -0.15792,-0.305381 -0.27521,-0.375382 -0.90549,-0.540411 -0.88137,-0.230771 -1.81834,-0.149353 -2.12419,0.18458 -0.493,0.538259 -0.82508,0.607389 -1.46454,0.304874 -0.68325,-0.323227 -0.73574,-0.404552 -0.36127,-0.559664 0.1636,-0.06777 0.26853,-0.170013 0.23318,-0.227215 -0.0425,-0.06881 0.0493,-0.08129 0.2713,-0.03689 0.18457,0.03691 0.36032,0.106926 0.39055,0.155584 0.0502,0.08073 0.47231,0.145197 0.77997,0.119116 0.0688,-0.0058 0.125,-0.08075 0.125,-0.166498 0,-0.08575 0.0432,-0.129221 0.0959,-0.09661 0.0528,0.03261 0.17652,0.0188 0.275,-0.03069 0.75047,-0.377119 1.56637,-0.452006 2.2971,-0.210841 0.54461,0.179736 0.97625,0.135134 1.46518,-0.151399 0.41943,-0.2458 0.94244,-0.723491 0.85885,-0.784424 -0.32977,-0.240387 -0.64123,-0.370128 -0.88854,-0.370128 -0.21342,0 -0.30352,-0.04821 -0.30352,-0.162383 0,-0.136575 -0.0914,-0.154764 -0.575,-0.114442 -0.37815,0.03153 -0.64347,0.0033 -0.775,-0.08253 -0.11,-0.07176 -0.50375,-0.188022 -0.875,-0.258364 -0.80119,-0.151804 -0.81278,-0.178021 -0.2115,-0.478317 0.40166,-0.200598 0.52174,-0.218156 0.90002,-0.131595 0.24008,0.05494 0.549,0.07838 0.68649,0.0521 0.34364,-0.06569 0.32381,-0.324081 -0.025,-0.325927 -0.15125,-8e-4 -0.47556,-0.07129 -0.72069,-0.156638 -0.24514,-0.08535 -0.58715,-0.167875 -0.76003,-0.183388 -0.17288,-0.01551 -0.35482,-0.05131 -0.40431,-0.07954 -0.0495,-0.02823 -0.21024,-0.08004 -0.35724,-0.115122 -0.147,-0.03509 -0.40229,-0.198807 -0.56731,-0.363826 -0.16502,-0.165019 -0.39567,-0.300034 -0.51256,-0.300034 -0.11689,0 -0.3988,-0.09 -0.62647,-0.2 -0.22768,-0.11 -0.47459,-0.2 -0.54869,-0.2 -0.0741,0 -0.23913,-0.0684 -0.36672,-0.152 -0.12759,-0.0836 -0.42976,-0.150629 -0.67148,-0.148953 -0.24173,0.0017 -0.5745,-0.0076 -0.7395,-0.02061 -0.165,-0.01301 -0.435,0.01 -0.6,0.05105 l -0.3,0.0747 0.32658,-0.302093 c 0.18331,-0.169568 0.43697,-0.302094 0.57821,-0.302094 0.1384,0 0.41894,-0.0734 0.62342,-0.16311 0.51059,-0.224003 2.02341,-0.262871 2.64884,-0.06805 0.58108,0.181005 1.47009,0.01371 1.54995,-0.29167 0.028,-0.107038 0.14067,-0.177165 0.28466,-0.177165 0.15224,0 0.23834,-0.05805 0.23834,-0.160699 0,-0.11422 -0.0506,-0.139562 -0.175,-0.08762 -0.0962,0.04019 -0.2875,0.08651 -0.425,0.102921 -0.1375,0.01641 -0.41977,0.06189 -0.62726,0.10107 -0.28807,0.05439 -0.42188,0.03085 -0.56597,-0.09955 -0.1971,-0.178367 -1.48652,-0.179936 -2.30007,-0.0028 l -0.3433,0.07475 0.2183,-0.277521 c 0.12007,-0.152635 0.2183,-0.343704 0.2183,-0.424595 0,-0.152164 2.04663,-0.130845 2.56478,0.02672 0.11812,0.03592 0.30346,0.01785 0.41185,-0.04016 0.10839,-0.05801 0.22595,-0.0766 0.26123,-0.04131 0.0353,0.03529 0.27746,0.134954 0.53815,0.221482 0.44003,0.14605 0.4723,0.179635 0.45045,0.468748 l -0.0235,0.311426 0.62439,0.05012 c 0.43071,0.03457 0.78653,0.139597 1.1471,0.338574 0.54782,0.302309 0.62419,0.432135 0.37559,0.638454 -0.0965,0.08012 -0.15,0.08616 -0.15,0.01692 0,-0.260506 -1.71502,-0.735324 -1.8525,-0.51288 -0.13813,0.223505 0.83903,0.819435 1.27487,0.777488 0.26328,-0.02534 0.38165,0.02999 0.60263,0.28167 0.32815,0.373735 0.3365,0.450148 0.075,0.686798 -0.23011,0.208242 -0.2581,0.35 -0.0691,0.35 0.60579,0 0.47922,0.508525 -0.14739,0.592148 -0.54266,0.07242 -0.55834,0.23194 -0.0335,0.340875 0.22,0.04566 0.5125,0.144715 0.65,0.220117 0.1375,0.0754 0.42159,0.231657 0.63132,0.347234 0.46093,0.254012 0.45386,0.465919 -0.025,0.748288 -0.18778,0.110736 -0.52163,0.392588 -0.74189,0.626338 -0.22026,0.23375 -0.49362,0.425689 -0.60747,0.426531 -0.71789,0.0053 -0.45518,0.277466 0.67656,0.700905 0.30241,0.113148 0.66651,0.297492 0.8091,0.409654 l 0.25925,0.203931 -0.20095,0.255476 c -0.11053,0.140511 -0.20096,0.311658 -0.20096,0.380326 0,0.130884 -0.31017,0.246969 -0.65,0.243268 -0.17672,-0.0019 -0.1709,-0.01835 0.05,-0.1411 z m -0.89343,-5.657509 c 0.31221,-0.167088 0.23426,-0.240028 -0.53157,-0.497375 -0.39875,-0.133996 -0.905,-0.366328 -1.125,-0.516295 -0.40889,-0.278722 -1.65,-0.516211 -1.65,-0.315729 0,0.175742 0.24045,0.332917 0.5093,0.332917 0.14812,0 0.2952,0.0675 0.32686,0.15 0.0317,0.0825 0.11863,0.15 0.19327,0.15 0.0746,0 0.24075,0.111811 0.36913,0.248469 0.12839,0.136658 0.39498,0.277428 0.59243,0.312823 0.19746,0.03539 0.42651,0.102215 0.50901,0.14849 0.2075,0.116388 0.57559,0.110319 0.80657,-0.0133 z m -9.15881,-2.560499 c -0.16375,-0.06983 -0.48632,-0.128992 -0.71683,-0.131473 -0.2305,-0.0025 -0.44691,-0.04951 -0.4809,-0.10451 -0.034,-0.055 -0.26165,-0.1 -0.5059,-0.1 -0.59177,0 -0.56901,-0.168658 0.0309,-0.229047 0.89148,-0.08974 2.31223,-0.07253 2.37483,0.02877 0.0341,0.05515 0.16181,0.100276 0.28382,0.100276 0.24937,0 0.66635,0.258071 0.66635,0.412409 0,0.05559 -0.0787,0.07628 -0.175,0.04598 -0.0962,-0.0303 -0.40102,-0.01917 -0.67727,0.02473 -0.34563,0.05493 -0.59512,0.04023 -0.8,-0.04714 z m 6.80596,-1.243875 c 0.0468,-0.13538 -0.0586,-0.15733 -0.73894,-0.153944 -0.79383,0.0039 -1.11475,-0.108604 -1.11475,-0.39097 0,-0.09956 0.22974,-0.116327 1.025,-0.07482 1.28868,0.06725 1.37228,0.106619 1.03352,0.486625 -0.14268,0.160053 -0.23486,0.219953 -0.20483,0.133113 z m 1.14631,-0.814776 c 0,-0.185532 0.054,-0.391332 0.12,-0.457332 0.24576,-0.24576 -0.13044,-0.351222 -1.84691,-0.51776 -2.10407,-0.204144 -2.34836,-0.302773 -1.64809,-0.665402 0.57491,-0.297708 2.675,-0.259613 2.675,0.04852 0,0.04271 0.2925,0.180914 0.65,0.307122 0.65983,0.232941 0.80073,0.416785 0.52825,0.689263 -0.067,0.06696 -0.12321,0.288991 -0.125,0.493403 -0.002,0.272749 -0.0498,0.380687 -0.17825,0.405587 -0.13879,0.02691 -0.175,-0.03588 -0.175,-0.303404 z m 0.41932,-2.197982 c -0.0656,-0.06564 -0.11935,-0.172602 -0.11935,-0.237687 0,-0.195433 -0.34805,-0.225841 -0.91164,-0.07965 -0.69156,0.179389 -1.13201,0.183103 -0.84223,0.0071 0.10787,-0.06551 0.32971,-0.247497 0.49297,-0.404404 0.16327,-0.156906 0.53626,-0.376901 0.82888,-0.488878 0.67274,-0.257445 0.66694,-0.355499 -0.0442,-0.746433 -0.47845,-0.26303 -0.64807,-0.307118 -1,-0.259915 -0.50362,0.06755 -0.51985,0.121894 -0.12381,0.414699 0.55066,0.407119 0.33929,0.844439 -0.28369,0.586944 -0.20147,-0.08327 -0.63631,-0.208274 -0.96631,-0.277776 -0.33,-0.0695 -0.69,-0.171713 -0.8,-0.227134 -0.23022,-0.115993 -0.37296,-0.139198 -1.6,-0.260117 -0.495,-0.04878 -0.93375,-0.09261 -0.975,-0.0974 -0.22939,-0.02663 -0.0421,-0.308704 0.205,-0.308704 0.2699,0 0.52,-0.153911 0.52,-0.32 0,-0.044 -0.1275,-0.08 -0.28333,-0.08 -0.15584,0 -0.31283,-0.02949 -0.34888,-0.06554 -0.0361,-0.03605 -0.3248,-0.08219 -0.64167,-0.102544 -0.31686,-0.02035 -0.84612,-0.05383 -1.17612,-0.07441 -0.33,-0.02058 -0.65891,-0.04193 -0.7309,-0.04746 -0.072,-0.0055 -0.10235,-0.05624 -0.0675,-0.112696 0.0349,-0.05646 0.13717,-0.09021 0.22728,-0.075 0.0901,0.01521 0.17918,-0.04679 0.19794,-0.13778 0.10318,-0.500305 -3.5315,-0.728108 -4.05521,-0.254161 -0.18419,0.166692 -0.52165,0.144253 -0.52165,-0.03469 0,-0.13436 1.18278,-0.695719 1.46587,-0.695719 0.14294,0 0.61521,-0.120317 1.04949,-0.267371 l 0.78961,-0.267372 0.52445,0.217372 c 0.66011,0.273603 0.64083,0.274827 1.19362,-0.07574 0.2542,-0.161213 0.61139,-0.307463 0.79376,-0.325 0.21473,-0.02065 0.34279,-0.09121 0.36343,-0.200236 0.0265,-0.139919 -0.0874,-0.180097 -0.67418,-0.237921 -0.58758,-0.0579 -0.92733,-0.197549 -0.63105,-0.259383 0.6436,-0.134317 1.16363,-0.127456 1.875,0.02473 0.58798,0.125794 0.8428,0.13636 1.75,0.07256 0.62204,-0.04374 0.61307,-0.294945 -0.0154,-0.430938 -0.25597,-0.05539 -0.54847,-0.174561 -0.65,-0.264827 -0.20277,-0.180268 -1.39854,-0.682502 -2.18461,-0.917555 -0.89273,-0.266947 -0.99196,-0.290053 -1.6,-0.37256 -0.33,-0.04478 -0.8652,-0.135228 -1.18933,-0.200998 -0.46115,-0.09357 -0.73303,-0.09273 -1.25,0.0039 -1.27629,0.238458 -1.47388,0.248038 -1.32119,0.06405 0.0743,-0.08947 0.24615,-0.162675 0.38199,-0.162675 0.13584,0 0.3614,-0.09 0.50124,-0.2 0.13985,-0.11 0.32694,-0.200168 0.41578,-0.200373 0.0888,-2.1e-4 0.30446,-0.08754 0.47919,-0.194078 0.24225,-0.147713 0.38471,-0.172927 0.6,-0.106196 0.50337,0.156022 1.77469,0.403245 2.06688,0.401929 0.15651,-7e-4 0.40875,0.08714 0.56053,0.195222 0.15178,0.108078 0.46912,0.22739 0.70519,0.26514 0.25095,0.04013 0.69066,0.243947 1.05868,0.490735 0.4608,0.308996 0.69847,0.408909 0.88698,0.372873 0.31151,-0.05955 0.74115,-0.599638 0.53616,-0.673997 -0.69368,-0.251634 -1.04039,-0.351255 -1.22245,-0.351255 -0.11836,0 -0.29121,-0.08877 -0.3841,-0.19726 -0.0929,-0.108493 -0.29415,-0.221724 -0.44723,-0.251625 -0.15307,-0.0299 -0.45832,-0.104963 -0.67832,-0.166806 -0.22,-0.06184 -0.7825,-0.131087 -1.25,-0.153875 -0.62942,-0.03068 -0.88208,-0.08339 -0.97361,-0.203139 -0.10165,-0.132985 -0.18414,-0.143125 -0.46447,-0.05709 -0.42282,0.129768 -0.66218,0.0211 -0.46824,-0.212581 0.0719,-0.08669 0.18729,-0.157622 0.25632,-0.157622 0.069,0 0.18438,-0.07093 0.25632,-0.157621 0.18664,-0.224879 -0.0558,-0.36475 -0.50632,-0.292145 -1.1408,0.183841 -1.58785,0.250531 -1.90061,0.283531 -0.19283,0.02035 -0.60908,0.182868 -0.925,0.36116 -0.31591,0.178292 -0.57439,0.302641 -0.57439,0.27633 0,-0.169716 1.35221,-1.171452 1.583,-1.17271 0.14685,-8e-4 0.45173,-0.06583 0.67751,-0.144517 0.7099,-0.247393 1.80169,-0.292 2.94302,-0.12024 0.57556,0.08662 1.39653,0.187358 1.82439,0.22387 0.61621,0.05259 0.79882,0.10546 0.87851,0.254364 0.0761,0.142166 0.21276,0.187978 0.56081,0.187978 0.37756,0 0.58285,0.08081 1.14325,0.45 0.37568,0.2475 0.78151,0.45 0.90185,0.45 0.12033,0 0.36928,0.114791 0.55322,0.25509 0.43267,0.330016 0.44153,0.655039 0.0259,0.950991 -0.38626,0.275044 -0.23797,0.483006 0.42697,0.598763 0.53326,0.09283 1.58594,0.475887 1.76239,0.641302 0.2248,0.210744 0.039,0.642879 -0.34544,0.803518 -0.28456,0.118895 -0.33143,0.181237 -0.2826,0.375814 0.0405,0.161384 -0.005,0.290631 -0.14712,0.419396 -0.27282,0.246901 -0.26095,0.321519 0.0994,0.624728 0.24602,0.20701 0.29356,0.309057 0.24563,0.527267 -0.0572,0.260337 -0.0306,0.280467 0.70275,0.531929 0.83146,0.285109 1.64656,0.720926 1.64656,0.880383 0,0.311602 -0.33151,0.686313 -0.74787,0.845321 -0.4993,0.190683 -0.55377,0.322514 -0.24773,0.599482 0.24606,0.222682 0.22057,0.523585 -0.0601,0.708906 -0.15933,0.105218 -0.23253,0.108926 -0.325,0.01646 z m -2.22458,-2.518586 c 0.3457,0.05528 0.7215,-0.137901 0.44793,-0.230259 -0.051,-0.01721 -0.2502,-0.132184 -0.4427,-0.255489 -0.1925,-0.123305 -0.485,-0.227232 -0.65,-0.230948 -1.23571,-0.02783 -1.26276,-0.03338 -1.15388,-0.236823 C 28.849134,9.703778 28.784734,9.4 28.632754,9.4 c -0.0495,0 -0.18985,-0.114876 -0.31193,-0.255281 -0.19586,-0.225257 -0.29281,-0.253425 -0.82434,-0.239503 -0.3313,0.0087 -1.089,0.01018 -1.68377,0.0033 -1.41236,-0.01625 -1.54453,0.07948 -0.9808,0.710396 0.27223,0.304682 0.30729,0.316118 0.64826,0.211471 0.29914,-0.09181 0.42003,-0.08026 0.7106,0.06788 0.19258,0.09818 0.55422,0.209115 0.80364,0.246518 0.32988,0.04947 0.49867,0.136961 0.61925,0.320985 0.15484,0.236314 0.21236,0.251177 0.8731,0.225611 0.55606,-0.02152 0.8036,0.01842 1.15735,0.186711 0.37283,0.177367 0.45555,0.189023 0.48233,0.06797 0.0245,-0.110496 0.12499,-0.131296 0.41244,-0.08533 z"
       style="fill:#88823f;fill-opacity:1;stroke-width:0.1" />
  </g>
</svg>
