<?xml version="1.0" encoding="UTF-8" standalone="no"?>
<svg xml:space="preserve"
     width="200"
     height="200"
     viewBox="0 0 52.916667 52.916666"
     version="1.1"
     id="svg8"
     xmlns:xlink="http://www.w3.org/1999/xlink"
     xmlns="http://www.w3.org/2000/svg">
    <defs id="defs2">
        <linearGradient
                id="linearGradient13"><stop
     style="stop-color:#e782ab;stop-opacity:1;"
     offset="0"
     id="stop14" />
            <stop
                    style="stop-color:#ffc9df;stop-opacity:1;"
                    offset="1"
                    id="stop15"/></linearGradient>
        <linearGradient
                id="linearGradient5"><stop
     style="stop-color:#4e1a26;stop-opacity:1;"
     offset="0"
     id="stop5" />
            <stop
                    style="stop-color:#b11c69;stop-opacity:1;"
                    offset="0.35071036"
                    id="stop9"/>
            <stop
                    style="stop-color:#ee539b;stop-opacity:1;"
                    offset="0.70954168"
                    id="stop13"/>
            <stop
                    style="stop-color:#f562a3;stop-opacity:1;"
                    offset="1"
                    id="stop8"/></linearGradient>
        <linearGradient
                id="linearGradient46"><stop
     style="stop-color:#ffa0d4;stop-opacity:1;"
     offset="0"
     id="stop47" />
            <stop
                    style="stop-color:#dd6ba3;stop-opacity:1;"
                    offset="1"
                    id="stop46"/></linearGradient>&#10;
        <linearGradient
                id="linearGradient43"><stop
   style="stop-color:#3c3b41;stop-opacity:1;"
   offset="0"
   id="stop44" />&#10;
            <stop
                    style="stop-color:#794f30;stop-opacity:1;"
                    offset="1"
                    id="stop45"/></linearGradient>&#10;
        <linearGradient
                id="linearGradient35"><stop
   style="stop-color:#f8e2ed;stop-opacity:1;"
   offset="0"
   id="stop42" />&#10;
            <stop
                    style="stop-color:#e4a9c9;stop-opacity:1;"
                    offset="1"
                    id="stop43"/></linearGradient>&#10;
        <linearGradient
                id="linearGradient35-1"><stop
   style="stop-color:#fddeef;stop-opacity:1;"
   offset="0"
   id="stop36" />&#10;
            <stop
                    style="stop-color:#fffafd;stop-opacity:1;"
                    offset="1"
                    id="stop35"/></linearGradient>&#10;
        <linearGradient
                id="linearGradient2"><stop
   id="stop10"
   offset="0"
   style="stop-color:#3a7e2a;stop-opacity:1;" />&#10; <stop
                id="stop11"
                offset="0.44414601"
                style="stop-color:#54b643;stop-opacity:1;"/>&#10;&#10;
            <stop
                    id="stop12"
                    offset="1"
                    style="stop-color:#71d55a;stop-opacity:1;"/></linearGradient>&#10;
        <linearGradient
                id="linearGradient4"><stop
   style="stop-color:#dcfef5;stop-opacity:1;"
   offset="0"
   id="stop3" />&#10; <stop
                style="stop-color:#94defb;stop-opacity:1;"
                offset="0.84215528"
                id="stop7"/>&#10;&#10;
            <stop
                    style="stop-color:#8fd2fd;stop-opacity:1;"
                    offset="1"
                    id="stop4"/></linearGradient>&#10;
        <linearGradient
                id="linearGradient2-1"><stop
   id="stop1"
   offset="0"
   style="stop-color:#4c7d29;stop-opacity:1;" />&#10; <stop
                id="stop6"
                offset="0.44414604"
                style="stop-color:#6c963d;stop-opacity:1;"/>&#10;&#10;
            <stop
                    id="stop2"
                    offset="1"
                    style="stop-color:#587f35;stop-opacity:1;"/></linearGradient>&#10;
        <linearGradient
                id="linearGradient1321"><stop
   id="stop1317"
   offset="0"
   style="stop-color:#fffdf9;stop-opacity:1" />&#10;&#10;
            <stop
                    id="stop1319"
                    offset="1"
                    style="stop-color:#c1f0fd;stop-opacity:1"/></linearGradient>&#10;&#10;
        <linearGradient
                id="linearGradient1285"><stop
   id="stop1277"
   offset="0"
   style="stop-color:#e76c23;stop-opacity:1" />&#10; <stop
                style="stop-color:#db5624;stop-opacity:1"
                offset="0.30084872"
                id="stop1279"/>&#10; <stop
                style="stop-color:#d7502a;stop-opacity:1"
                offset="0.48738721"
                id="stop1281"/>&#10;&#10;
            <stop
                    id="stop1283"
                    offset="1"
                    style="stop-color:#ab2d28;stop-opacity:1"/></linearGradient>&#10;&#10;
        <linearGradient
                id="linearGradient1265"><stop
   id="stop1257"
   offset="0"
   style="stop-color:#e76b24;stop-opacity:1" />&#10; <stop
                style="stop-color:#eb9423;stop-opacity:1"
                offset="0.3604376"
                id="stop1259"/>&#10; <stop
                style="stop-color:#fdbf47;stop-opacity:1"
                offset="0.67468154"
                id="stop1261"/>&#10;&#10;
            <stop
                    id="stop1263"
                    offset="1"
                    style="stop-color:#fecc68;stop-opacity:1"/></linearGradient>&#10;&#10;
        <linearGradient
                id="linearGradient1155"><stop
   id="stop1151"
   offset="0"
   style="stop-color:#ffffff;stop-opacity:1" />&#10; <stop
                style="stop-color:#f4dea7;stop-opacity:1"
                offset="0.36173224"
                id="stop1177"/>&#10; <stop
                style="stop-color:#ffffff;stop-opacity:1"
                offset="0.36849755"
                id="stop1175"/>&#10;&#10;
            <stop
                    id="stop1153"
                    offset="1"
                    style="stop-color:#fff1c7;stop-opacity:1"/></linearGradient>&#10;&#10;
        <linearGradient
                id="linearGradient1046"><stop
   id="stop1038"
   offset="0"
   style="stop-color:#578e99;stop-opacity:1" />&#10; <stop
                style="stop-color:#9bc0c7;stop-opacity:1"
                offset="0.31922862"
                id="stop1040"/>&#10; <stop
                id="stop1021"
                offset="0.34002915"
                style="stop-color:#fefefe;stop-opacity:1"/>&#10; <stop
                id="stop1019"
                offset="0.52491242"
                style="stop-color:#fefefe;stop-opacity:1"/>&#10; <stop
                style="stop-color:#ffc55a;stop-opacity:1"
                offset="0.77182168"
                id="stop1042"/>&#10;&#10;
            <stop
                    id="stop1044"
                    offset="1"
                    style="stop-color:#f98e1f;stop-opacity:1"/></linearGradient>&#10;&#10;
        <linearGradient
                id="linearGradient1674"><stop
   id="stop1670"
   offset="0"
   style="stop-color:#3e2300;stop-opacity:1" />&#10;&#10;
            <stop
                    id="stop1672"
                    offset="1"
                    style="stop-color:#9e5600;stop-opacity:1"/></linearGradient>&#10;&#10;
        <linearGradient
                id="linearGradient1666"><stop
   style="stop-color:#bc6001;stop-opacity:1"
   offset="0"
   id="stop1654" />&#10; <stop
                id="stop1656"
                offset="0.22724211"
                style="stop-color:#ee5015;stop-opacity:1"/>&#10; <stop
                style="stop-color:#d45d2a;stop-opacity:1"
                offset="0.55937076"
                id="stop1658"/>&#10;&#10;
            <stop
                    style="stop-color:#ab2504;stop-opacity:1"
                    offset="1"
                    id="stop1664"/></linearGradient>&#10;&#10;
        <linearGradient
                id="linearGradient1652"><stop
   style="stop-color:#df7e01;stop-opacity:1"
   offset="0"
   id="stop1640" />&#10; <stop
                style="stop-color:#f97b29;stop-opacity:1"
                offset="0.3771469"
                id="stop1644"/>&#10;&#10;
            <stop
                    style="stop-color:#f9cd2f;stop-opacity:1"
                    offset="1"
                    id="stop1650"/></linearGradient>&#10;&#10;
        <linearGradient
                id="linearGradient1582"><stop
   id="stop1578"
   offset="0"
   style="stop-color:#fea12a;stop-opacity:1" />&#10; <stop
                style="stop-color:#fdb647;stop-opacity:1"
                offset="0.22724211"
                id="stop1588"/>&#10; <stop
                id="stop1590"
                offset="0.3771469"
                style="stop-color:#fa9350;stop-opacity:1"/>&#10; <stop
                style="stop-color:#f25848;stop-opacity:1"
                offset="0.54888839"
                id="stop1592"/>&#10; <stop
                id="stop1594"
                offset="0.7313779"
                style="stop-color:#d83f4d;stop-opacity:1"/>&#10;&#10;
            <stop
                    id="stop1580"
                    offset="1"
                    style="stop-color:#b51b10;stop-opacity:1"/></linearGradient>&#10;&#10;
        <linearGradient
                id="linearGradient927"><stop
   id="stop923"
   offset="0"
   style="stop-color:#5d6b32;stop-opacity:1" />&#10; <stop
                style="stop-color:#ece1d0;stop-opacity:1"
                offset="0.39178354"
                id="stop937"/>&#10;&#10;
            <stop
                    id="stop925"
                    offset="1"
                    style="stop-color:#afdfe4;stop-opacity:1"/></linearGradient>&#10;&#10;
        <linearGradient
                id="linearGradient22643"><stop
   id="stop22639"
   offset="0"
   style="stop-color:#375d9f;stop-opacity:1;" />&#10;&#10;
            <stop
                    id="stop22641"
                    offset="1"
                    style="stop-color:#384870;stop-opacity:1;"/></linearGradient>&#10;&#10;
        <linearGradient
                id="linearGradient22566"><stop
   id="stop22562"
   offset="0"
   style="stop-color:#f2a491;stop-opacity:1;" />&#10;&#10;
            <stop
                    id="stop22564"
                    offset="0.41778976"
                    style="stop-color:#8eb3cf;stop-opacity:1;"/></linearGradient>&#10;&#10;
        <linearGradient
                id="linearGradient17184"><stop
   id="stop17180"
   offset="0.50673854"
   style="stop-color:#ffffff;stop-opacity:1;" />&#10;&#10;
            <stop
                    id="stop17182"
                    offset="1"
                    style="stop-color:#efe4be;stop-opacity:1;"/></linearGradient>&#10;&#10;
        <linearGradient
                id="linearGradient7816"><stop
     style="stop-color:#422f2e;stop-opacity:1"
     offset="1"
     id="stop7814" /></linearGradient>&#10;&#10;
        <linearGradient
                id="linearGradient2455"><stop
   style="stop-color:#fbe8bd;stop-opacity:1;"
   offset="0"
   id="stop2447" />&#10; <stop
                id="stop2449"
                offset="0.39518833"
                style="stop-color:#d5dbc1;stop-opacity:1;"/>&#10; <stop
                id="stop2451"
                offset="0.65719855"
                style="stop-color:#94c6c6;stop-opacity:1;"/>&#10;&#10;
            <stop
                    style="stop-color:#2d7ab8;stop-opacity:1;"
                    offset="1"
                    id="stop2453"/></linearGradient>&#10;&#10;
        <linearGradient
                id="linearGradient1006"><stop
   style="stop-color:#ffffff;stop-opacity:1"
   offset="0"
   id="stop1002" />&#10;&#10;
            <stop
                    style="stop-color:#0c9ca6;stop-opacity:1"
                    offset="1"
                    id="stop1004"/></linearGradient>&#10;&#10;
        <linearGradient
                id="linearGradient998"><stop
   style="stop-color:#fbecfd;stop-opacity:1"
   offset="0"
   id="stop994" />&#10; <stop
                id="stop960"
                offset="0.30084872"
                style="stop-color:#fbd4f9;stop-opacity:1"/>&#10; <stop
                id="stop958"
                offset="0.48738721"
                style="stop-color:#f46cec;stop-opacity:1"/>&#10;&#10;
            <stop
                    style="stop-color:#2b1562;stop-opacity:1"
                    offset="1"
                    id="stop996"/></linearGradient>&#10; <radialGradient
            xlink:href="#linearGradient998"
            id="radialGradient1000"
            cx="31.438482"
            cy="42.392902"
            fx="31.438482"
            fy="42.392902"
            r="25.000002"
            gradientTransform="matrix(0.00113747,-1.0167601,1.0243894,0.0011489,-11.090646,-1.315701)"
            gradientUnits="userSpaceOnUse"/>&#10; <radialGradient
            xlink:href="#linearGradient1006"
            id="radialGradient1008"
            cx="21.644688"
            cy="35.676865"
            fx="21.644688"
            fy="35.676865"
            r="24.999975"
            gradientUnits="userSpaceOnUse"
            gradientTransform="matrix(0.00279899,0.6185787,-0.99998976,0.00452483,68.397857,-39.118526)"/>&#10;&#10;
        <linearGradient
                gradientUnits="userSpaceOnUse"
                y2="1.4757635e-06"
                x2="24.999998"
                y1="32.672649"
                x1="24.669399"
                id="linearGradient5700"
                xlink:href="#linearGradient2455"/>&#10; <linearGradient
            gradientUnits="userSpaceOnUse"
            y2="29.690369"
            x2="24.806145"
            y1="49.999977"
            x1="25"
            id="linearGradient13724"
            xlink:href="#linearGradient7816"/>&#10; <linearGradient
            gradientUnits="userSpaceOnUse"
            y2="32.331436"
            x2="37.408257"
            y1="9.6647673"
            x1="23.919428"
            id="linearGradient17186"
            xlink:href="#linearGradient17184"/>&#10; <linearGradient
            gradientUnits="userSpaceOnUse"
            y2="33.207092"
            x2="26.002991"
            y1="25.681305"
            x1="34.995327"
            id="linearGradient22568"
            xlink:href="#linearGradient22566"/>&#10; <linearGradient
            gradientUnits="userSpaceOnUse"
            y2="33.688541"
            x2="17.216543"
            y1="17.369226"
            x1="27.734179"
            id="linearGradient22645"
            xlink:href="#linearGradient22643"/>&#10; <linearGradient
            gradientUnits="userSpaceOnUse"
            y2="0.10423274"
            x2="25.104233"
            y1="49.72488"
            x1="25.198191"
            id="linearGradient935"
            xlink:href="#linearGradient927"/>&#10;&#10;
        <clipPath
                clipPathUnits="userSpaceOnUse"
                id="clipPath1130"><path
     d="M 0,800 H 800 V 0 H 0 Z"
     id="path1128" /></clipPath>&#10;&#10;
        <clipPath
                clipPathUnits="userSpaceOnUse"
                id="clipPath1138"><path
     d="M 284.686,41.5688 H 515.314 V 17 H 284.686 Z"
     id="path1136" /></clipPath>&#10;&#10;
        <clipPath
                clipPathUnits="userSpaceOnUse"
                id="clipPath1278"><path
     d="M 0,800 H 800 V 0 H 0 Z"
     id="path1276" /></clipPath>&#10; <linearGradient
            y2="-131.90941"
            x2="-211.17578"
            y1="-65.767349"
            x1="-332.87836"
            gradientTransform="matrix(0.25320201,0,0,0.25320201,95.927808,56.293442)"
            gradientUnits="userSpaceOnUse"
            id="linearGradient1598"
            xlink:href="#linearGradient1582"/>&#10; <linearGradient
            y2="-131.90941"
            x2="-211.17578"
            y1="-65.767349"
            x1="-332.87836"
            gradientTransform="matrix(0.12865911,0,0,0.14262707,74.363162,36.786625)"
            gradientUnits="userSpaceOnUse"
            id="linearGradient1602"
            xlink:href="#linearGradient1652"/>&#10; <linearGradient
            y2="-131.90941"
            x2="-211.17578"
            y1="-65.767349"
            x1="-332.87836"
            gradientTransform="matrix(0.14287792,0,0,0.15551651,52.603028,39.553815)"
            gradientUnits="userSpaceOnUse"
            id="linearGradient1606"
            xlink:href="#linearGradient1666"/>&#10; <linearGradient
            gradientUnits="userSpaceOnUse"
            y2="19.577152"
            x2="33.029133"
            y1="54.643715"
            x1="16.955727"
            id="linearGradient1676"
            xlink:href="#linearGradient1674"/>&#10; <radialGradient
            xlink:href="#linearGradient1265"
            id="radialGradient1255"
            cx="23.352879"
            cy="22.871805"
            fx="23.352879"
            fy="22.871805"
            r="23.67145"
            gradientTransform="matrix(1,0,0,0.86303769,0.1,5.1553571)"
            gradientUnits="userSpaceOnUse"/>&#10; <radialGradient
            xlink:href="#linearGradient1285"
            id="radialGradient1275"
            cx="24.697308"
            cy="18.392132"
            fx="24.697308"
            fy="18.392132"
            r="23.421312"
            gradientTransform="matrix(1,0,0,0.75547236,0.1,8.3975893)"
            gradientUnits="userSpaceOnUse"/>&#10; <linearGradient
            xlink:href="#linearGradient1321"
            id="linearGradient1301"
            x1="50.15641"
            y1="49.881355"
            x2="0.0010701913"
            y2="0.1973808"
            gradientUnits="userSpaceOnUse"/>&#10; &#10; &#10; &#10; &#10; &#10;&#10; <radialGradient
            xlink:href="#linearGradient4"
            id="radialGradient3"
            cx="24.915762"
            cy="34.96743"
            fx="24.915762"
            fy="34.96743"
            r="25"
            gradientUnits="userSpaceOnUse"
            gradientTransform="matrix(1.0583299,0.00267775,-0.0038316,1.5143709,0.13406578,-15.091869)"/>&#10;
        <radialGradient
                xlink:href="#linearGradient2"
                id="radialGradient6"
                cx="25.319008"
                cy="24.436697"
                fx="25.319008"
                fy="24.436697"
                r="22.088179"
                gradientTransform="matrix(2.7459151,0.00514687,-0.00174892,0.93308767,-42.920125,16.094726)"
                gradientUnits="userSpaceOnUse"/>&#10; <linearGradient
            xlink:href="#linearGradient35"
            id="linearGradient36"
            x1="5.3284249"
            y1="7.4892635"
            x2="44.631962"
            y2="32.741718"
            gradientUnits="userSpaceOnUse"/>&#10; <linearGradient
            xlink:href="#linearGradient43"
            id="linearGradient45"
            x1="13.418696"
            y1="38.200928"
            x2="35.588284"
            y2="22.554234"
            gradientUnits="userSpaceOnUse"/>&#10; <radialGradient
            xlink:href="#linearGradient46"
            id="radialGradient47"
            cx="25.253494"
            cy="19.853943"
            fx="25.253494"
            fy="19.853943"
            r="18.552183"
            gradientTransform="matrix(1,0,0,0.604367,0,7.854875)"
            gradientUnits="userSpaceOnUse"/>&#10;
        <radialGradient
                xlink:href="#linearGradient35-1"
                id="radialGradient48"
                cx="24.737165"
                cy="26.976995"
                fx="24.737165"
                fy="26.976995"
                r="19.16415"
                gradientTransform="matrix(1.0234256,0.00529526,-0.00455084,0.87954966,-0.45671596,0.19896266)"
                gradientUnits="userSpaceOnUse"/>
        <linearGradient
                xlink:href="#linearGradient5"
                id="linearGradient8"
                x1="26.599989"
                y1="38.604584"
                x2="26.8827"
                y2="8.4875116"
                gradientUnits="userSpaceOnUse"
                gradientTransform="matrix(1.0403678,0,0,1.0403678,-1.1707298,-0.40288009)"/>
        <linearGradient
                xlink:href="#linearGradient13"
                id="linearGradient15"
                x1="31.762211"
                y1="23.123531"
                x2="46.313793"
                y2="9.1696634"
                gradientUnits="userSpaceOnUse"
                gradientTransform="matrix(1.0403678,0,0,1.0403678,-1.1707298,-0.40288009)"/></defs>&#10;&#10;&#10;&#10;
    &#10; &#10;
    <circle
            r="26.458332"
            cy="26.458332"
            cx="26.458332"
            id="path1293"
            style="fill:url(#radialGradient3);fill-opacity:1;fill-rule:evenodd;stroke-width:0.385645"/>
    <path
            style="fill:url(#radialGradient6);fill-rule:nonzero;stroke:none;stroke-width:0.280017px;stroke-linecap:butt;stroke-linejoin:miter;stroke-opacity:1"
            d="m 49.950052,38.634299 -4.721308,-0.447591 -4.573695,0.653384 -7.755805,-0.958462 c -4.389676,-0.449892 -7.372996,-0.367466 -10.976204,0.102796 -4.217013,0.0489 -8.38088,0.560861 -12.5578587,1.073464 h -4.791488 -1.384438 c 0.057737,-3e-6 6.3911957,13.852096 23.2690767,13.858775 16.877882,0.0067 23.49172,-14.282366 23.49172,-14.282366 z"
            id="path5"/>
    <path
            style="fill:url(#linearGradient15);stroke-width:1.2853"
            d="m 19.678691,30.085893 c -0.283678,0.09631 -0.327249,0.09428 -0.690822,-0.0322 -0.213424,-0.07424 -0.456949,-0.179335 -0.541161,-0.233536 -0.124417,-0.08008 -0.196664,-0.08418 -0.385448,-0.02188 -0.316467,0.104444 -0.540919,0.03379 -0.813299,-0.255991 -0.265697,-0.282683 -0.631197,-0.419941 -0.856509,-0.321653 -0.08213,0.03583 -0.222974,0.190774 -0.312959,0.344311 -0.203578,0.347393 -0.480341,0.479157 -0.800226,0.380983 -0.255735,-0.0785 -0.298318,-0.05611 -0.298318,0.156807 0,0.229124 -0.133092,0.475031 -0.325733,0.601823 -0.136023,0.08953 -0.299975,0.110305 -0.776872,0.09842 -0.466679,-0.01169 -0.623087,0.0073 -0.686119,0.0833 -0.04486,0.05411 -0.185622,0.132697 -0.312713,0.174639 -0.343765,0.113454 -0.599232,-0.01208 -0.698418,-0.343079 -0.05925,-0.197671 -0.111178,-0.25774 -0.223051,-0.25774 -0.207177,0 -0.497333,-0.29071 -0.497333,-0.498274 0,-0.291178 0.17651,-0.546629 0.43713,-0.632642 0.15394,-0.05081 0.287354,-0.159235 0.37158,-0.301972 0.0784,-0.132998 0.223359,-0.255961 0.359716,-0.305267 0.278473,-0.100687 0.259926,-0.207829 -0.04472,-0.258502 -0.124802,-0.02077 -0.286789,-0.06854 -0.359845,-0.106192 -0.168477,-0.08679 -1.033534,-0.06065 -1.215468,0.03672 -0.07557,0.04045 -0.253332,0.07353 -0.395024,0.07353 -0.198309,0 -0.300644,-0.04491 -0.444507,-0.19507 C 9.9928276,28.08901 9.954127,28.078362 9.5198119,28.093989 9.0822838,28.10973 9.0509996,28.121559 8.9263257,28.318478 8.7470878,28.601547 8.4248891,28.704843 8.1193481,28.577182 7.9928746,28.524317 7.8689333,28.448119 7.84405,28.407861 7.7684745,28.28554 7.5891625,28.325281 7.2752926,28.533923 6.9231723,28.768003 6.7256219,28.78226 6.4195795,28.595682 6.260421,28.498655 6.1741775,28.47935 6.1240123,28.529515 5.9949297,28.658601 5.49545,28.613831 5.3409442,28.459325 5.2202547,28.33861 5.2057694,28.268558 5.2405625,27.972798 5.2958302,27.50255 5.1923638,27.353853 4.8844577,27.461176 4.5663721,27.572059 4.3940392,27.555929 4.1910649,27.396269 4.0404408,27.27779 3.9847359,27.267038 3.8468877,27.329844 c -0.2209428,0.100666 -0.4635685,0.09445 -0.6421094,-0.01644 -0.084701,-0.05259 -0.3351929,-0.09274 -0.590376,-0.09458 -0.2438082,-0.0018 -0.505328,-0.03642 -0.5811734,-0.07702 -0.2888194,-0.154569 -0.096783,-0.666901 0.2499006,-0.666901 0.079688,0 0.1968691,-0.06213 0.26044,-0.138071 0.1812141,-0.216458 0.4473352,-0.326949 0.7933632,-0.329383 0.1751862,-0.0012 0.4081851,-0.005 0.5177825,-0.0085 0.109636,-0.0034 0.2632548,0.01522 0.3414781,0.04145 0.1128491,0.03784 0.1659191,0.0076 0.2568154,-0.146281 0.1626032,-0.27527 0.3411953,-0.370602 0.7965123,-0.425196 0.852217,-0.102185 0.9160322,-0.129611 1.0276603,-0.441765 0.1518965,-0.424705 0.4261921,-0.728063 0.7330314,-0.810685 0.1839004,-0.04952 0.2942433,-0.129196 0.3629682,-0.262105 0.054369,-0.105021 0.1815355,-0.25617 0.2827271,-0.33588 0.1549684,-0.122078 0.2353767,-0.138132 0.5098907,-0.101821 0.3660015,0.04841 0.4349578,-0.0036 0.4373356,-0.329544 0.00257,-0.400367 0.3686878,-0.756977 0.7810116,-0.761472 0.1471153,-0.0016 0.2158659,-0.03427 0.2158659,-0.10257 0,-0.08199 -0.064264,-0.09266 -0.3535856,-0.05864 C 8.7842843,22.318724 8.5126621,22.186555 8.4028977,21.853965 8.3369623,21.654053 8.300331,21.62118 8.1814922,21.65515 7.6409985,21.809686 7.3388249,21.74063 7.2116061,21.433489 c -0.1310105,-0.316274 0.093699,-0.671126 0.4839148,-0.76396 0.1032096,-0.02456 0.3029963,-0.165839 0.4438778,-0.313934 0.2520085,-0.264913 0.2623808,-0.268778 0.6425078,-0.239264 0.2125112,0.0165 0.4506512,0.05185 0.5292212,0.07856 0.1208189,0.04107 0.149635,0.01768 0.1868698,-0.15187 0.081492,-0.370902 0.3925693,-0.587959 0.7912295,-0.552039 0.06851,0.0061 0.254682,-0.108646 0.413635,-0.255154 0.19097,-0.176031 0.351452,-0.266732 0.473131,-0.267403 0.222652,-0.0012 0.305567,-0.05165 0.409522,-0.249042 0.06735,-0.128003 0.06143,-0.15578 -0.03985,-0.186298 -0.309911,-0.09334 -0.452193,-0.207412 -0.472128,-0.378537 -0.02506,-0.214961 0.211496,-0.463216 0.527795,-0.553929 0.304783,-0.08741 0.395924,-0.261569 0.206355,-0.394342 -0.207396,-0.145264 -0.187499,-0.338762 0.0473,-0.460188 0.107837,-0.05573 0.234811,-0.1018 0.28229,-0.102351 0.1975,-0.0023 0.262535,-0.109727 0.216149,-0.356974 -0.03676,-0.195831 -0.09062,-0.263254 -0.270504,-0.33841 -0.203218,-0.0849 -0.224632,-0.1197 -0.224632,-0.365008 0,-0.179753 -0.03354,-0.284039 -0.09962,-0.309385 -0.05475,-0.02102 -0.09962,-0.09163 -0.09962,-0.156893 0,-0.10722 0.107322,-0.123504 1.112529,-0.168843 0.973844,-0.04391 1.166343,-0.03511 1.54426,0.07069 0.237445,0.06649 0.566226,0.127669 0.730615,0.135984 0.16439,0.0083 0.363598,0.03591 0.442683,0.06135 0.109764,0.03529 0.169633,0.0068 0.252972,-0.120356 0.123003,-0.187739 0.474635,-0.376046 0.709189,-0.379794 0.08586,-0.0015 0.268061,-0.0985 0.40501,-0.215865 l 0.249001,-0.21337 -0.139699,-0.282283 C 16.888757,13.849328 16.788826,13.7223 16.743507,13.7223 c -0.173336,0 -0.316723,-0.247799 -0.269027,-0.464938 0.03394,-0.154271 0.01465,-0.242476 -0.07416,-0.340614 -0.09614,-0.106204 -0.102435,-0.143229 -0.03162,-0.186947 0.167282,-0.103392 1.082028,-0.214584 1.456873,-0.177093 0.307572,0.03075 0.430073,0.0103 0.674692,-0.112707 0.294282,-0.147972 0.298536,-0.154838 0.27612,-0.445298 -0.01285,-0.162254 -0.07982,-0.375065 -0.149442,-0.472911 -0.189774,-0.266519 -0.157718,-0.447322 0.127374,-0.718554 0.302738,-0.287983 0.64252,-0.8839522 0.58679,-1.0291961 -0.04897,-0.1275787 -0.223115,-0.129044 -0.442349,-0.00372 -0.09139,0.052209 -0.273498,0.095986 -0.40483,0.097271 -0.15804,0.00154 -0.281558,0.05037 -0.365307,0.1443611 -0.187101,0.209988 -0.505174,0.325552 -0.731232,0.265669 -0.247065,-0.06542 -0.384463,-0.3303731 -0.2943,-0.5675222 0.07018,-0.1845907 0.426128,-0.4372316 0.61657,-0.437639 0.06388,-1.375e-4 0.224877,-0.1028622 0.357841,-0.2282844 0.159505,-0.1504403 0.357312,-0.2548503 0.581327,-0.3068354 0.191149,-0.044356 0.426668,-0.1581303 0.538822,-0.2602936 0.255119,-0.2323767 0.691427,-0.4003883 1.039756,-0.4003883 0.281262,0 0.452078,-0.039241 1.333459,-0.3063509 0.308651,-0.093531 0.761898,-0.1686659 1.136255,-0.1883451 0.342532,-0.018007 0.709253,-0.065627 0.814931,-0.1058315 0.105651,-0.040204 0.342493,-0.073108 0.526252,-0.073134 0.315334,-3.2e-5 0.341465,-0.013508 0.464943,-0.2398161 0.113621,-0.208244 0.19804,-0.2622201 0.64193,-0.410379 0.281751,-0.094045 0.594708,-0.2504995 0.697402,-0.3486591 0.1479,-0.1413596 0.275286,-0.1869183 0.618024,-0.221025 0.237458,-0.023624 0.569322,-0.099367 0.737491,-0.1682982 0.646518,-0.2650195 1.089175,-0.2315735 1.134224,0.085703 0.01928,0.1359885 0.05116,0.1474572 0.350411,0.1261392 0.181047,-0.012891 0.39969,-0.050255 0.485869,-0.083031 0.402427,-0.1530006 1.011504,-0.00347 1.011504,0.248294 0,0.055589 0.119533,0.2230442 0.265684,0.3721119 0.308561,0.3147785 0.327366,0.4344591 0.101664,0.6465474 -0.15867,0.14906 -0.160431,0.160287 -0.0536,0.3412262 0.06735,0.1140316 0.189774,0.2038188 0.31351,0.2299244 0.24161,0.050975 0.501871,0.2730861 0.501871,0.428291 0,0.1435036 -0.169685,0.29166 -0.481538,0.4204405 -0.278447,0.1149827 -0.279527,0.1178875 -0.164518,0.4417313 0.123517,0.3477657 0.150958,0.3733919 0.494905,0.4621753 0.322737,0.083313 0.609539,0.1737466 0.848566,0.2675716 0.365526,0.143491 0.702146,0.213338 0.849672,0.176309 0.09023,-0.02265 0.257291,-0.0087 0.371207,0.03102 0.236547,0.08245 0.267214,0.237877 0.09794,0.496244 -0.104752,0.159892 -0.102049,0.174144 0.06645,0.350001 0.11362,0.118568 0.175636,0.2569 0.175636,0.391631 0,0.114571 0.02237,0.222138 0.04988,0.239038 0.02737,0.01691 0.348701,0.06594 0.714009,0.108968 0.539903,0.0636 0.695269,0.107411 0.830252,0.23413 0.09125,0.08575 0.247008,0.175904 0.345976,0.200359 0.09897,0.02446 0.214695,0.08636 0.257201,0.137576 0.04254,0.05121 0.1857,0.09352 0.318214,0.09402 0.132527,4.98e-4 0.310965,0.01965 0.396528,0.04256 0.142178,0.03807 0.151857,0.06653 0.112334,0.330417 -0.03985,0.265991 -0.0234,0.312537 0.208733,0.590273 0.213707,0.255669 0.27891,0.295609 0.428801,0.262688 0.09717,-0.02135 0.282251,0.0053 0.41118,0.05912 0.178541,0.07459 0.239541,0.14277 0.255955,0.286049 0.02031,0.17747 0.04165,0.189257 0.37789,0.208447 0.297854,0.017 0.398442,-0.0088 0.612868,-0.157433 0.338934,-0.234884 0.777452,-0.284405 1.12614,-0.127168 0.222151,0.100177 0.304025,0.106809 0.519891,0.04215 0.628228,-0.188226 0.998279,-0.03231 1.065165,0.448803 0.03754,0.270037 0.05346,0.28647 0.404394,0.415998 0.200918,0.07418 0.559579,0.154499 0.797039,0.17851 0.237445,0.02401 0.475458,0.07146 0.5289,0.105446 0.05346,0.03398 0.268666,0.06357 0.478247,0.06575 0.671465,0.007 0.679845,0.230139 0.02905,0.772341 -0.231225,0.192637 -0.473144,0.448166 -0.537602,0.567841 -0.06439,0.119675 -0.2244,0.268468 -0.355436,0.330652 -0.202203,0.09594 -0.282469,0.101238 -0.53043,0.03493 -0.183771,-0.04915 -0.320129,-0.05503 -0.367544,-0.01581 -0.04151,0.03428 -0.165045,0.07245 -0.274642,0.08482 -0.161189,0.01819 -0.20327,0.05738 -0.220274,0.205135 -0.01941,0.168274 -0.0026,0.182655 0.209966,0.182655 0.176382,0 0.271609,0.0483 0.402928,0.204356 0.179543,0.213374 0.232023,0.525 0.08894,0.528001 -0.04563,9.59e-4 -0.202589,0.05633 -0.348715,0.123042 l -0.265671,0.121294 0.256854,0.109288 c 0.258024,0.109778 0.270658,0.147816 0.147552,0.444048 -0.02571,0.06201 0.04293,0.212979 0.175058,0.384958 0.177179,0.230525 0.246405,0.275683 0.373649,0.243746 0.373958,-0.09386 0.873425,0.29565 0.873425,0.681146 0,0.101852 0.05848,0.145179 0.242458,0.179699 0.133363,0.02502 0.327559,0.130573 0.431552,0.234569 0.229169,0.229173 0.188476,0.427316 -0.1297,0.631394 -0.113876,0.07306 -0.208243,0.155256 -0.209657,0.182654 -0.0065,0.133098 0.280915,0.315493 0.497732,0.315493 0.378019,0 0.695269,0.162944 0.695269,0.357098 0,0.234669 -0.287213,0.439085 -0.623344,0.443649 -0.359948,0.0049 -0.837808,0.203363 -0.994307,0.41299 -0.169814,0.227441 -0.09408,0.313722 0.27657,0.314932 0.17137,5.6e-4 0.349486,0.02507 0.395808,0.05448 0.123774,0.07856 0.220557,0.476476 0.174981,0.719402 -0.03496,0.186501 -0.01568,0.223681 0.164094,0.316668 0.234734,0.121383 0.340513,0.287508 0.340513,0.534731 0,0.182226 0.0892,0.23767 0.79704,0.495547 0.214427,0.07812 0.327045,0.167803 0.39852,0.317377 0.05475,0.114674 0.234129,0.304451 0.398519,0.421739 0.16439,0.117284 0.312611,0.225209 0.329384,0.239829 0.01671,0.01462 -0.10282,0.142729 -0.265672,0.284687 l -0.296183,0.258108 0.210917,0.214389 c 0.228063,0.231814 0.251482,0.237422 1.349949,0.323297 0.787219,0.06154 1.302444,0.215295 1.363226,0.406815 0.02223,0.07006 0.12069,0.144476 0.218667,0.165355 0.333767,0.07109 0.477116,0.15795 0.477116,0.289102 0,0.152013 -0.07737,0.209749 -0.35951,0.268471 -0.189081,0.03935 -0.203399,0.06145 -0.183785,0.283697 0.01748,0.198165 -0.0089,0.260908 -0.149326,0.352807 -0.183207,0.120046 -0.288627,0.112361 -0.92697,-0.06762 l -0.390821,-0.110188 -0.206959,0.192513 c -0.569644,0.529901 -0.768402,0.586299 -1.095678,0.31091 -0.224053,-0.188522 -0.261996,-0.184864 -1.206612,0.116359 -0.424521,0.135369 -0.440883,0.135798 -0.688972,0.01807 -0.161832,-0.0768 -0.28594,-0.196747 -0.341748,-0.330296 -0.173001,-0.41406 -0.454597,-0.508166 -0.806036,-0.269363 -0.346208,0.235256 -0.563051,0.218848 -0.8789,-0.0665 -0.25625,-0.231509 -0.265748,-0.23424 -0.461833,-0.13284 -0.237793,0.122965 -0.407118,0.13046 -0.632072,0.02795 -0.13295,-0.06058 -0.213244,-0.05307 -0.404753,0.0378 -0.291467,0.138312 -0.55629,0.09285 -0.767272,-0.131731 -0.178296,-0.189791 -0.441731,-0.21069 -0.736218,-0.05841 -0.158555,0.08199 -0.244888,0.08908 -0.405127,0.03321 -0.265041,-0.09239 -0.250234,-0.09938 -0.250234,0.117978 0,0.275884 -0.192526,0.418691 -0.540404,0.400854 -0.159415,-0.0082 -0.355128,0.02016 -0.434919,0.06296 -0.199067,0.106795 -0.454417,0.09752 -0.691555,-0.0251 -0.189826,-0.09816 -0.208385,-0.09507 -0.400319,0.06643 -0.20773,0.174791 -0.593153,0.228139 -0.782438,0.108299 -0.06092,-0.03856 -0.183412,-0.01195 -0.353342,0.07656 -0.217279,0.113248 -0.300374,0.124365 -0.504556,0.06747 -0.134443,-0.03746 -0.444688,-0.06148 -0.689434,-0.05336 l -0.181788,-2.715476 -5.972878,0.841293 -6.228274,-1.434564 z"
            id="path3"/>
    <path
            style="fill:url(#linearGradient8);stroke-width:1.2853"
            d="m 25.354222,38.824214 c -0.282895,-0.01623 0.333676,-1.388131 0.338998,-2.386315 0.0038,-0.757795 -0.01401,-0.887377 -0.206561,-1.484954 -0.116062,-0.360089 -0.270053,-0.94926 -0.342223,-1.309269 -0.217087,-1.082901 -0.37996,-1.348734 -1.062209,-1.733655 -0.202447,-0.114225 -0.724459,-0.446401 -1.160033,-0.738179 -0.924066,-0.619014 -1.570712,-0.929374 -2.34468,-1.125353 -0.487899,-0.123542 -0.59634,-0.130862 -0.876175,-0.05915 -0.284128,0.07283 -0.366169,0.06612 -0.743649,-0.06082 -0.233345,-0.07846 -0.459326,-0.171586 -0.502178,-0.206928 -0.04537,-0.03745 -0.246546,-0.04518 -0.482142,-0.01852 l -0.404251,0.04573 -0.242754,-0.257722 c -0.133517,-0.141746 -0.377622,-0.309136 -0.542448,-0.371975 -0.382428,-0.145799 -0.576841,-0.0649 -0.795201,0.330953 -0.207332,0.375849 -0.358701,0.452801 -0.681298,0.346334 -0.346452,-0.114341 -0.443313,-0.05742 -0.495598,0.291274 -0.0748,0.49904 -0.196292,0.573715 -0.933063,0.573715 -0.534492,0 -0.659615,0.02109 -0.817475,0.137807 -0.124417,0.09201 -0.261494,0.130639 -0.41244,0.11623 -0.213578,-0.02038 -0.224811,-0.03398 -0.203938,-0.246727 0.02494,-0.253744 -0.05912,-0.336857 -0.341953,-0.338396 -0.435306,-0.0023 -0.588591,-0.294903 -0.268628,-0.512668 0.0964,-0.06564 0.266314,-0.216474 0.377518,-0.335199 0.111179,-0.118723 0.255042,-0.215863 0.319628,-0.215863 0.140329,0 0.522319,-0.530933 0.522319,-0.725978 0,-0.117527 -0.04113,-0.137479 -0.283267,-0.137479 -0.155791,0 -0.394034,-0.05936 -0.529414,-0.13193 -0.198887,-0.10659 -0.281467,-0.118505 -0.430061,-0.06202 -0.101155,0.03845 -0.280503,0.0518 -0.398597,0.02964 -0.135547,-0.02543 -0.287637,-0.0026 -0.412516,0.06202 -0.323535,0.167306 -0.565043,0.131015 -0.802335,-0.120561 -0.2057369,-0.218113 -0.2203509,-0.222386 -0.6862078,-0.200693 -0.2617888,0.01221 -0.4983999,0.02282 -0.5258024,0.0236 -0.027377,7.89e-4 -0.049741,0.04762 -0.049741,0.104083 0,0.05646 -0.073391,0.176013 -0.1630401,0.265679 -0.2031798,0.203183 -0.5481669,0.216453 -0.7849702,0.03019 C 7.7616754,28.223226 7.5561947,28.2338 7.2544066,28.438858 6.951179,28.644908 6.7024095,28.661793 6.4207877,28.495433 6.2469126,28.392707 6.1870048,28.385167 6.0793354,28.452414 5.7105962,28.682693 5.232221,28.428298 5.3148013,28.045842 c 0.024807,-0.11511 0.042158,-0.346195 0.03843,-0.513521 -0.009,-0.393277 0.095754,-0.441193 0.9089502,-0.417097 0.4128763,0.01221 0.7048319,-0.01381 0.8908402,-0.07943 0.1784509,-0.06295 0.3848955,-0.08313 0.5814177,-0.05677 0.2559414,0.03432 0.3217744,0.0743 0.4113725,0.249931 0.1050089,0.205736 0.1134919,0.208736 0.5313681,0.18742 0.2335772,-0.01195 0.5890785,-0.06644 0.7899964,-0.121166 0.4937211,-0.134475 1.5700306,-0.15561 1.8131576,-0.0356 0.117476,0.05799 0.33743,0.08326 0.59778,0.06868 0.328328,-0.01839 0.411886,-0.0033 0.411886,0.07442 0,0.05682 -0.109251,0.128157 -0.261777,0.170948 -0.143966,0.0404 -0.273486,0.108608 -0.287817,0.151573 -0.0356,0.106898 0.120561,0.09798 0.41118,-0.02346 0.167809,-0.07011 0.342326,-0.08842 0.563372,-0.0591 0.21165,0.02807 0.374086,0.01316 0.479005,-0.044 0.08728,-0.04757 0.331055,-0.09145 0.541625,-0.09753 0.448851,-0.01294 0.664332,-0.15756 0.633176,-0.424946 -0.01812,-0.155365 -0.04331,-0.168028 -0.302032,-0.151705 -0.262959,0.01659 -0.28229,0.0061 -0.28229,-0.151577 0,-0.224544 -0.150445,-0.570651 -0.306325,-0.704669 -0.215249,-0.185073 -0.577883,-0.212889 -0.773146,-0.0593 -0.10154,0.07982 -0.270157,0.133913 -0.417606,0.133913 -0.137193,0 -0.35027,0.06361 -0.478427,0.142808 -0.219284,0.135522 -0.240531,0.137217 -0.416603,0.03321 -0.251803,-0.14874 -0.549761,-0.138797 -0.696401,0.02324 -0.184736,0.204125 -0.298883,0.167223 -0.298883,-0.09662 0,-0.214155 0.01658,-0.23198 0.249065,-0.267248 0.137,-0.02079 0.32563,-0.06225 0.4192,-0.09215 0.09357,-0.0299 0.239863,-0.02855 0.325117,0.0029 0.163566,0.06051 0.401424,0.01626 0.401424,-0.07469 0,-0.105882 -0.171973,-0.189735 -0.546766,-0.266597 -0.333368,-0.06836 -0.405139,-0.06365 -0.577111,0.03793 -0.187153,0.110562 -0.20872,0.110445 -0.458956,-0.0024 -0.3804602,-0.171562 -0.617971,-0.0969 -0.9587809,0.301407 -0.2719434,0.317828 -0.2899761,0.327145 -0.5468944,0.282601 -0.397003,-0.06883 -0.6438061,-0.03678 -0.8441583,0.109649 -0.2357623,0.172291 -0.3181885,0.166012 -0.3181885,-0.02424 0,-0.218814 -0.2010592,-0.375602 -0.4816655,-0.375602 -0.2798352,0 -0.5449665,0.230582 -0.827398,0.719589 -0.2610056,0.451905 -0.4211795,0.539861 -0.4131849,0.22689 0.00771,-0.290327 0.084187,-0.418653 0.3642921,-0.60901 0.2197346,-0.14933 0.2621238,-0.21507 0.2625864,-0.407218 6.299e-4,-0.260083 0.1695824,-0.485604 0.6282025,-0.838482 0.1631558,-0.125549 0.3424935,-0.298023 0.3985068,-0.383288 0.1219748,-0.185706 0.7937103,-0.70107 0.9137186,-0.70107 0.046656,0 0.084829,0.05908 0.084829,0.131309 0,0.07222 0.073648,0.179542 0.1635927,0.238498 0.1366401,0.08952 0.2183465,0.09544 0.4958296,0.03593 0.3662842,-0.07856 0.6865552,-0.03896 0.9233068,0.114147 0.135843,0.08786 0.27972,0.08944 1.180469,0.013 0.564182,-0.04788 1.03928,-0.07354 1.055771,-0.05705 0.01645,0.0165 -0.17673,0.132877 -0.429406,0.258616 -0.252663,0.125741 -0.461126,0.248844 -0.463247,0.273564 -0.0065,0.07957 0.221379,0.09618 0.4943,0.03599 0.146113,-0.03224 0.389844,-0.0452 0.541599,-0.02883 0.2244,0.02422 0.308137,-8.3e-5 0.448338,-0.130087 0.09485,-0.08793 0.172396,-0.216735 0.172396,-0.286247 0,-0.06951 0.06375,-0.171007 0.141577,-0.225546 0.221534,-0.155169 0.114776,-0.33353 -0.171845,-0.287023 -0.249836,0.04053 -0.342249,-0.02752 -0.378482,-0.278762 -0.03471,-0.240593 -0.208282,-0.320372 -0.469609,-0.215829 -0.119661,0.04787 -0.352223,0.09324 -0.516806,0.100832 -0.193,0.0088 -0.374073,0.06911 -0.509955,0.169583 -0.249348,0.184346 -0.41956,0.145049 -0.41956,-0.09686 0,-0.186825 -0.108865,-0.433354 -0.225814,-0.511454 -0.14317,-0.0956 -0.5259821,-0.04859 -0.7545343,0.09269 C 9.5610542,23.34698 9.492985,23.359697 9.393169,23.297372 9.210823,23.183494 9.129168,23.201106 8.9228519,23.398755 L 8.7365736,23.57723 v -0.20139 c 0,-0.240873 0.1384523,-0.371549 0.5039402,-0.475626 0.2904779,-0.08272 0.4496615,-0.222308 0.5210983,-0.456968 0.056169,-0.184684 -0.1827947,-0.445837 -0.364549,-0.398307 -0.1683102,0.04401 -0.3248981,-0.138968 -0.1912914,-0.223518 0.066193,-0.04191 0.069921,-0.06065 0.012853,-0.06136 -0.1789007,-0.0022 -0.043315,-0.357424 0.2729072,-0.715029 0.1116929,-0.126254 0.199941,-0.149555 0.5689111,-0.150162 0.240222,-3.96e-4 0.580685,-0.04438 0.756604,-0.09776 0.1948,-0.0591 0.432914,-0.08154 0.609052,-0.0574 0.159055,0.0218 0.728532,0.01768 1.265504,-0.0092 0.973665,-0.04868 0.976955,-0.04938 1.217499,-0.26032 0.20318,-0.178184 0.264733,-0.200717 0.390628,-0.142999 0.08226,0.03768 0.149441,0.08915 0.149441,0.114365 0,0.08622 -0.349807,0.32117 -0.478182,0.32117 -0.175842,0 -0.783788,0.26741 -0.783788,0.344753 0,0.0345 0.06118,0.04329 0.136024,0.01954 0.0748,-0.02374 0.171947,-0.01513 0.215865,0.01914 0.15137,0.118144 0.380372,0.135296 0.89255,0.06686 0.441552,-0.059 0.563256,-0.05182 0.865996,0.05108 0.320977,0.109109 0.361541,0.11042 0.457142,0.0148 0.146408,-0.1464 0.05681,-0.250505 -0.215686,-0.250505 -0.160907,0 -0.242125,-0.03514 -0.268627,-0.11623 -0.02095,-0.06393 -0.07789,-0.205267 -0.126731,-0.314084 -0.110022,-0.245487 -0.04254,-0.298197 0.319602,-0.249619 0.502089,0.06735 0.990888,-0.379333 0.671054,-0.61321 -0.180584,-0.132042 -0.06954,-0.193918 0.151717,-0.08456 0.132206,0.06535 0.378019,0.08756 0.819815,0.07409 1.404741,-0.04279 2.21561,-0.228233 2.385424,-0.545529 0.192615,-0.35991 -0.02121,-0.741231 -0.415756,-0.741231 -0.137823,0 -0.267818,-0.05044 -0.34239,-0.132838 -0.144404,-0.159564 -0.578822,-0.176939 -0.830252,-0.03321 -0.09139,0.05221 -0.251379,0.09598 -0.355667,0.09727 -0.104367,0.0012 -0.322495,0.09201 -0.48488,0.201612 -0.356965,0.24092 -0.472128,0.249251 -0.551714,0.03991 -0.07789,-0.204682 -0.31797,-0.37223 -0.532075,-0.37121 -0.09228,4.39e-4 -0.297957,0.07517 -0.456936,0.166049 -0.158991,0.09089 -0.323382,0.164945 -0.365307,0.164574 -0.0419,-3.71e-4 -0.126346,-0.119932 -0.187552,-0.265679 -0.128812,-0.306686 -0.180301,-0.281127 0.587652,-0.291672 0.373122,-0.0051 0.517063,-0.03677 0.664203,-0.146044 0.352121,-0.261512 0.258847,-0.624322 -0.16052,-0.624322 -0.194144,0 -0.219465,-0.01567 -0.15358,-0.09506 0.09485,-0.114365 0.629757,-0.237042 1.033444,-0.237042 0.160868,0 0.368738,-0.03474 0.461949,-0.07721 0.198797,-0.09057 0.289217,-0.03457 0.172075,0.106577 -0.04525,0.05445 -0.07031,0.134524 -0.05579,0.177941 0.03676,0.11033 0.550956,0.253012 0.660823,0.183379 0.139263,-0.08826 0.40334,-0.07088 0.37122,0.02444 -0.01542,0.04566 0.05476,0.133581 0.155728,0.195372 0.116319,0.07112 0.19156,0.180805 0.205095,0.298888 l 0.02134,0.186542 0.896663,-0.005 c 0.493169,-0.0027 1.031169,-0.01221 1.195559,-0.02087 0.164389,-0.0087 0.514826,0.0174 0.778762,0.05804 0.501665,0.07726 0.748879,0.0247 0.748879,-0.159213 0,-0.204399 -0.552241,-0.428289 -1.071952,-0.434591 -0.132951,-0.0017 -0.310014,-0.05824 -0.39348,-0.125817 l -0.151768,-0.122889 0.144403,-0.233651 c 0.07943,-0.128504 0.144415,-0.281026 0.144415,-0.338926 0,-0.06508 0.09511,-0.131687 0.249065,-0.174443 0.365141,-0.101394 0.48155,-0.08801 0.48155,0.05536 0,0.246766 0.371632,0.339665 1.35878,0.339665 h 0.906971 l 0.188745,0.206645 c 0.182962,0.200317 0.196574,0.204046 0.444585,0.121732 0.140715,-0.04671 0.379227,-0.07874 0.530006,-0.07117 0.182358,0.0092 0.285978,-0.01703 0.309435,-0.07814 0.04088,-0.106641 0.51858,-0.206316 1.526896,-0.318626 0.711092,-0.0792 0.716733,-0.07871 0.881689,0.07626 0.254579,0.23916 0.565956,0.201029 0.921276,-0.112823 0.159158,-0.140573 0.389844,-0.315521 0.512641,-0.388773 0.122875,-0.07325 0.268114,-0.222697 0.322906,-0.332099 0.0883,-0.176331 0.128543,-0.196534 0.354292,-0.177965 0.200829,0.01652 0.278037,0.06206 0.365308,0.215444 0.0608,0.106975 0.164634,0.194686 0.230621,0.194917 0.06594,2.31e-4 0.200494,0.08613 0.298896,0.190884 0.246688,0.262628 0.702788,0.321756 1.130883,0.146609 0.170494,-0.06976 0.433916,-0.144101 0.585376,-0.165212 0.15146,-0.02112 0.47835,-0.129448 0.726412,-0.24075 0.391168,-0.175504 0.458646,-0.188771 0.508361,-0.09995 0.03805,0.0679 0.155097,0.102414 0.347469,0.102414 0.371321,0 0.500276,0.05129 0.500276,0.199005 0,0.242259 0.222331,0.401487 0.730615,0.523264 0.328869,0.07879 0.498143,0.151269 0.498143,0.21329 0,0.06893 -0.07146,0.08837 -0.268217,0.073 -0.222806,-0.0174 -0.337634,0.02542 -0.678174,0.252816 -0.337532,0.225391 -0.43312,0.261361 -0.541046,0.203594 -0.07211,-0.03859 -0.222164,-0.07016 -0.333471,-0.07016 -0.16101,0 -0.210956,-0.03428 -0.244464,-0.167801 -0.06157,-0.245182 -0.247445,-0.322068 -0.544851,-0.225343 -0.1352,0.04397 -0.303947,0.119956 -0.374998,0.168841 -0.08123,0.05587 -0.218822,0.07456 -0.370462,0.05031 -0.195699,-0.03129 -0.277972,-0.0071 -0.435395,0.128517 -0.1707,0.146958 -0.192884,0.207776 -0.184067,0.50466 0.0051,0.185969 -0.01684,0.320957 -0.04986,0.300582 -0.03291,-0.02035 -0.05989,-0.07665 -0.05989,-0.125124 0,-0.04848 -0.107965,-0.139344 -0.239772,-0.201924 -0.207164,-0.0983 -0.281698,-0.102642 -0.547961,-0.03189 -0.307688,0.08176 -0.638922,0.257563 -1.065229,0.565363 -0.124161,0.08963 -0.297959,0.162949 -0.386285,0.162949 -0.216264,0 -0.420369,0.109314 -0.598229,0.320386 -0.116704,0.138466 -0.164543,0.157973 -0.229143,0.09337 -0.15286,-0.152855 -0.499993,-0.0952 -0.750369,0.124636 -0.141551,0.124275 -0.27598,0.190557 -0.338124,0.166709 -0.179839,-0.06901 -0.551714,0.13271 -0.600106,0.325526 -0.03586,0.142908 -0.07056,0.167363 -0.185018,0.13029 -0.07751,-0.0251 -0.237999,-0.06073 -0.356722,-0.07918 -0.118762,-0.01846 -0.215866,-0.07298 -0.215866,-0.121165 0,-0.158236 -0.209003,-0.310017 -0.358611,-0.260427 -0.07673,0.02544 -0.31887,0.05444 -0.538052,0.06444 -0.488079,0.02229 -0.820779,0.09059 -0.996299,0.204546 -0.073,0.04744 -0.231636,0.0833 -0.35239,0.0797 -0.132605,-0.004 -0.290426,0.04986 -0.398519,0.135899 -0.09845,0.07834 -0.273217,0.18482 -0.388431,0.236618 -0.249373,0.112117 -0.346336,0.342787 -0.203964,0.485164 0.07545,0.07546 0.261905,0.09675 0.800445,0.09145 0.386143,-0.0038 0.748443,-0.02472 0.805124,-0.04646 0.148825,-0.05711 0.128929,0.05947 -0.09858,0.57785 -0.216033,0.492189 -0.200315,0.673011 0.0658,0.757477 0.163233,0.05181 0.591405,-0.02069 0.766796,-0.129854 0.073,-0.04547 0.302354,-0.09669 0.509544,-0.113813 0.322288,-0.02663 0.458042,-0.08581 0.939656,-0.409582 0.309615,-0.208145 0.598499,-0.421304 0.641967,-0.473685 0.04345,-0.05237 0.08393,-0.223538 0.08985,-0.380347 l 0.0103,-0.285108 0.365308,-0.07316 c 0.200918,-0.04024 0.55958,-0.149845 0.797039,-0.243566 0.483825,-0.190966 0.751308,-0.231481 1.881651,-0.285011 l 0.785728,-0.03721 0.165599,0.178679 c 0.164505,0.177506 0.170019,0.178409 0.841549,0.137672 0.371772,-0.02256 0.773093,-0.04938 0.891817,-0.05961 0.248088,-0.02139 0.24751,-0.02304 0.11979,0.338928 -0.05423,0.153736 -0.06992,0.28845 -0.03612,0.309384 0.03303,0.0204 0.257215,0.01687 0.498246,-0.0078 l 0.438275,-0.04489 -0.04383,0.174597 c -0.0374,0.148996 -0.01606,0.185339 0.145778,0.247847 0.447593,0.172912 0.605697,0.158802 0.822617,-0.0734 0.201907,-0.216144 0.207292,-0.217594 0.531393,-0.142783 0.400114,0.09236 0.784007,0.02715 1.40807,-0.239144 0.661749,-0.282384 0.871652,-0.519328 0.716644,-0.80896 -0.05385,-0.100635 -0.138812,-0.135349 -0.331298,-0.135349 -0.201008,0 -0.268345,-0.02986 -0.301261,-0.133566 -0.02326,-0.07347 -0.12596,-0.17677 -0.228051,-0.229573 -0.224491,-0.116087 -0.584232,-0.03919 -0.768351,0.164254 -0.175855,0.194311 -0.298549,0.16686 -0.298549,-0.0668 0,-0.249152 -0.207833,-0.464833 -0.448338,-0.465266 -0.10051,-1.8e-4 -0.323947,0.05032 -0.49664,0.112207 -0.172692,0.0619 -0.337069,0.08915 -0.365307,0.06056 -0.02828,-0.02859 0.0658,-0.15054 0.208913,-0.271007 0.267624,-0.225257 0.742902,-0.351381 0.865584,-0.229697 0.08303,0.08238 0.477296,0.0802 0.633665,-0.0034 0.06786,-0.03635 0.357364,-0.100177 0.643227,-0.14185 0.596328,-0.08693 0.908835,-0.224401 1.164738,-0.512356 0.110407,-0.124262 0.275053,-0.220416 0.425781,-0.248691 0.223783,-0.04198 0.262097,-0.02603 0.429148,0.178644 l 0.183424,0.224742 -0.200866,0.167693 c -0.18264,0.152477 -0.205968,0.218282 -0.257072,0.725275 -0.03432,0.340034 -0.03162,0.603515 0.0065,0.675304 0.106808,0.199504 0.0712,0.313384 -0.136344,0.435957 -0.271725,0.160513 -0.313189,0.327176 -0.121204,0.487178 0.08496,0.07082 0.19935,0.130717 0.254142,0.133095 0.104495,0.0045 0.376246,0.184427 0.32725,0.21661 -0.177178,0.116371 -0.562009,0.203473 -0.849698,0.192325 -0.196021,-0.0076 -0.393404,0.01691 -0.438646,0.05444 -0.04525,0.03755 -0.228578,0.06435 -0.407427,0.05955 -0.483517,-0.01297 -1.114058,0.09899 -1.320927,0.234528 -0.116062,0.07603 -0.248757,0.106268 -0.364652,0.08309 -0.11452,-0.0229 -0.272702,0.01208 -0.425871,0.09415 -0.18327,0.09822 -0.274977,0.113827 -0.370063,0.06294 -0.186638,-0.09989 -0.416552,-0.08246 -0.599103,0.04541 -0.08882,0.06218 -0.281429,0.119198 -0.428082,0.126679 -0.204388,0.01041 -0.309512,0.06158 -0.450201,0.219033 -0.217049,0.242926 -0.216521,0.242836 -0.432966,0.07258 -0.214246,-0.168528 -0.461551,-0.168347 -0.715525,5.23e-4 l -0.199261,0.132489 -0.175288,-0.212753 c -0.1643,-0.199435 -0.189646,-0.208342 -0.404844,-0.142293 -0.179903,0.05521 -0.270375,0.04908 -0.41812,-0.02833 -0.169724,-0.08893 -0.209812,-0.08733 -0.401797,0.01606 -0.117219,0.06317 -0.268808,0.09722 -0.336697,0.07567 -0.162294,-0.0515 -0.536985,0.17984 -0.633164,0.390948 -0.05732,0.125727 -0.05629,0.208785 0.0038,0.341088 0.07519,0.165089 0.0991,0.172634 0.425781,0.134655 0.452605,-0.05262 0.547961,0.0048 0.419496,0.252362 -0.0644,0.124212 -0.07776,0.235874 -0.04011,0.335113 0.109893,0.289175 -0.271172,0.416657 -0.497603,0.16645 -0.09447,-0.104328 -0.171601,-0.123762 -0.367262,-0.09248 -0.151112,0.02417 -0.265452,0.01092 -0.293201,-0.03396 -0.0955,-0.154557 -0.443441,-0.07981 -0.648061,0.139237 l -0.198797,0.21281 -0.114391,-0.151711 c -0.09703,-0.128687 -0.151666,-0.144724 -0.359794,-0.105676 -0.134944,0.02532 -0.317058,0.102424 -0.404689,0.171367 -0.08766,0.06893 -0.2089,0.125343 -0.269476,0.125343 -0.140971,0 -0.349061,0.109956 -0.594283,0.314018 -0.155148,0.129111 -0.239297,0.152947 -0.420152,0.119019 -0.144069,-0.02703 -0.263434,-0.01144 -0.328868,0.04281 -0.05643,0.04689 -0.241033,0.09023 -0.410088,0.09631 -0.389676,0.01402 -0.879543,0.124636 -1.133415,0.255911 -0.108222,0.05599 -0.34032,0.102861 -0.515661,0.10416 -0.17534,0.0012 -0.39352,0.04506 -0.48484,0.09727 -0.09139,0.05221 -0.259155,0.09598 -0.372956,0.09727 -0.242728,0.0027 -0.518707,0.200745 -0.659576,0.473156 -0.05502,0.106372 -0.14191,0.193395 -0.193116,0.193395 -0.121075,0 -0.368419,0.315582 -0.368419,0.469975 0,0.168449 0.115035,0.222042 0.502617,0.234162 0.185122,0.0058 0.426988,0.05727 0.537473,0.114417 0.145688,0.07533 0.303704,0.09328 0.574888,0.06529 0.352442,-0.03637 0.377544,-0.02919 0.436153,0.124944 0.03419,0.08995 0.143863,0.217065 0.243693,0.282477 0.157873,0.103444 0.217061,0.108441 0.454391,0.03841 0.150084,-0.04429 0.366066,-0.137418 0.47997,-0.206955 0.155507,-0.09493 0.332416,-0.126435 0.710088,-0.126435 0.276648,0 0.521472,0.02988 0.544042,0.06643 0.02262,0.03653 0.102569,0.06643 0.177717,0.06643 0.108095,0 0.128684,0.03055 0.09845,0.145987 -0.08277,0.316774 0.268152,0.425254 0.580621,0.179457 0.151036,-0.1188 0.28292,-0.142099 0.889028,-0.157048 0.598872,-0.01477 0.751269,-0.04115 0.961506,-0.166404 0.167821,-0.09998 0.304101,-0.13523 0.415125,-0.107361 0.221958,0.0557 0.208116,0.159139 -0.05063,0.377735 -0.18097,0.152918 -0.203797,0.20202 -0.141228,0.303725 0.05321,0.08652 0.138979,0.115831 0.298895,0.102195 0.123389,-0.01054 0.338536,-0.01851 0.478234,-0.01776 0.139686,7.51e-4 0.37014,-0.05789 0.512102,-0.130317 0.163284,-0.0833 0.390255,-0.131683 0.617727,-0.131683 0.305207,0 0.386322,-0.02763 0.536201,-0.182654 0.09717,-0.100458 0.328406,-0.339102 0.513952,-0.530314 0.291018,-0.299893 0.331222,-0.3729 0.292675,-0.531357 -0.02455,-0.101041 -0.11015,-0.236264 -0.190121,-0.300513 -0.143375,-0.115175 -0.141575,-0.116242 0.128016,-0.07595 0.152153,0.02274 0.332404,0.0093 0.406386,-0.03029 0.181766,-0.09729 0.230595,-0.02572 0.108993,0.159797 -0.147257,0.224743 -0.01812,0.451132 0.228654,0.400716 0.09794,-0.02002 0.581533,-0.08332 1.074703,-0.140717 0.493169,-0.05739 0.949809,-0.119932 1.014756,-0.139001 0.06491,-0.01906 0.171407,-0.144464 0.236559,-0.278668 0.06517,-0.134204 0.1534,-0.236726 0.19611,-0.227828 0.125574,0.02614 0.738032,-0.112386 1.29499,-0.292887 0.530263,-0.171846 0.683933,-0.30168 0.732311,-0.618685 0.0266,-0.174434 0.14042,-0.249222 0.209389,-0.137617 0.02377,0.03845 0.09755,0.06992 0.164004,0.06992 0.06645,0 0.158001,0.04483 0.203475,0.09963 0.137579,0.165765 0.478015,0.117952 0.827539,-0.11623 0.177192,-0.118722 0.408507,-0.271674 0.514017,-0.339889 l 0.191844,-0.124032 0.275953,0.290076 c 0.241752,0.254113 0.30968,0.289326 0.54791,0.284032 0.149583,-0.0033 0.350052,-0.05721 0.445497,-0.119752 0.15772,-0.10334 0.195314,-0.10461 0.412311,-0.01394 0.131306,0.05487 0.238757,0.120175 0.238757,0.145124 0,0.02495 -0.06182,0.145397 -0.137398,0.26766 -0.07712,0.124867 -0.128144,0.302966 -0.116191,0.406358 0.01863,0.16167 0.0554,0.188633 0.302739,0.221643 0.155354,0.02074 0.350822,0.102622 0.436011,0.182654 0.08496,0.0798 0.187719,0.145072 0.228424,0.145072 0.142308,0 0.282714,0.210518 0.28004,0.419867 -0.0012,0.134551 -0.07326,0.293633 -0.197216,0.438628 -0.158862,0.185812 -0.257136,0.235545 -0.536251,0.27135 -0.279643,0.03587 -0.361761,0.02235 -0.451937,-0.07445 -0.09074,-0.09741 -0.203707,-0.115432 -0.640002,-0.102091 -0.585003,0.01787 -0.753171,0.08249 -0.955953,0.367265 -0.102185,0.143482 -0.210763,0.202846 -0.431668,0.235974 -0.162332,0.02434 -0.369227,0.102528 -0.459751,0.173732 -0.09048,0.0712 -0.208025,0.12947 -0.261096,0.12947 -0.05308,0 -0.197794,0.0687 -0.32162,0.152664 -0.123774,0.08397 -0.278112,0.172953 -0.342866,0.197752 -0.154609,0.05922 -0.219361,0.238337 -0.134712,0.372624 0.08483,0.134624 0.649654,0.222232 0.91665,0.142187 0.109636,-0.03285 0.333753,-0.08927 0.498142,-0.125381 0.16439,-0.0361 0.475393,-0.127668 0.691118,-0.203484 0.488709,-0.171751 0.528733,-0.171493 0.483066,0.0031 -0.03548,0.135899 -0.02211,0.13929 0.373508,0.09452 0.225712,-0.02554 0.446178,-0.07615 0.489956,-0.112477 0.0802,-0.06653 1.111963,-0.02183 1.233771,0.05346 0.03419,0.02111 0.04794,0.112386 0.03059,0.202875 -0.02571,0.13448 0.0038,0.176682 0.159788,0.231181 0.105137,0.03667 0.191239,0.105381 0.191239,0.152692 0,0.105215 0.147502,0.166659 0.400037,0.166659 0.104495,0 0.208373,0.02988 0.230955,0.06643 0.02262,0.03653 0.211149,0.06737 0.419046,0.06853 0.46299,0.0026 0.641351,0.10704 0.503849,0.295087 -0.13966,0.191008 -0.114648,0.234158 0.135895,0.234158 0.315079,0 0.341517,0.08977 0.06529,0.221523 -0.443364,0.211428 -0.794572,0.08068 -0.923539,-0.34382 -0.04628,-0.152466 -0.381502,-0.34264 -0.603897,-0.34264 -0.05977,0 -0.199427,0.07628 -0.310232,0.169509 -0.28828,0.242579 -0.630607,0.207247 -0.813132,-0.08393 -0.154262,-0.246067 -0.202138,-0.256947 -0.492732,-0.111987 -0.143002,0.07135 -0.294204,0.09275 -0.45853,0.06492 -0.373765,-0.06331 -0.42848,-0.06076 -0.648588,0.03021 -0.263653,0.108981 -0.544516,0.03719 -0.635464,-0.162407 -0.09524,-0.209097 -0.515725,-0.270936 -0.828387,-0.121834 -0.186318,0.08886 -0.248898,0.0923 -0.382029,0.02106 -0.09087,-0.04864 -0.222588,-0.06508 -0.306917,-0.03832 -0.123517,0.03921 -0.1411,0.07994 -0.107323,0.248965 0.05502,0.275271 -0.05463,0.382323 -0.391823,0.382323 -0.155443,0 -0.393686,0.0464 -0.529414,0.10311 -0.232035,0.09695 -0.262779,0.09477 -0.514916,-0.03665 -0.265003,-0.138131 -0.269784,-0.13827 -0.408931,-0.01183 -0.278408,0.253092 -0.431782,0.296896 -0.738687,0.210969 -0.244013,-0.06831 -0.307777,-0.06354 -0.45709,0.03429 -0.122874,0.08048 -0.23661,0.100458 -0.38951,0.06838 -0.118761,-0.02493 -0.423249,-0.05073 -0.676568,-0.05738 l -0.460586,-0.01208 -0.502501,0.375449 c -0.522512,0.390403 -1.864106,1.717288 -1.864106,1.843673 0,0.180272 0.804724,-0.01764 1.370873,-0.337168 0.193103,-0.10898 0.419457,-0.188053 0.503014,-0.175722 0.118634,0.01751 0.02828,0.09024 -0.412657,0.331982 -0.663227,0.363658 -1.167925,0.533443 -2.134213,0.717964 -1.286288,0.245624 -1.819134,0.492591 -2.374948,1.100742 -0.897563,0.982077 -1.390783,2.88038 -1.109315,4.269511 0.126473,0.62423 0.35361,1.181081 0.554413,1.359305 z m 1.983922,-5.513563 c 0.888348,-1.176403 1.304026,-1.649727 2.357559,-2.684519 0.797759,-0.78356 0.958884,-0.975469 1.02401,-1.219639 0.08265,-0.309944 0.04242,-0.725045 -0.0874,-0.902666 -0.07262,-0.09926 -0.100895,-0.0998 -0.325168,-0.0061 -0.321247,0.134226 -0.417632,0.129747 -0.758468,-0.03526 -0.26283,-0.12723 -0.296363,-0.129798 -0.434263,-0.03321 -0.208501,0.146044 -0.598126,0.132363 -0.802207,-0.02816 -0.189593,-0.149135 -0.382272,-0.170813 -0.497153,-0.05594 -0.04229,0.0423 -0.234875,0.08018 -0.427966,0.08419 l -0.351065,0.0073 -0.15763,0.330939 c -0.443184,0.930466 -0.807321,2.428297 -0.805175,3.311918 0.0026,0.824533 0.342532,2.033705 0.572729,2.033705 0.04743,0 0.358932,-0.361131 0.692223,-0.802512 z m 3.645273,-1.600156 c 0.187796,-0.08921 0.667894,-0.50029 1.265647,-1.083704 0.529697,-0.516983 1.120009,-1.040017 1.311789,-1.162301 0.191791,-0.122283 0.348701,-0.248398 0.348701,-0.280256 0,-0.03187 -0.06452,-0.145129 -0.143272,-0.251716 -0.163336,-0.220917 -0.11542,-0.330135 0.221469,-0.504319 0.207589,-0.107348 0.238899,-0.233869 0.08869,-0.358507 -0.152,-0.126152 -0.411064,-0.02911 -0.461782,0.172972 -0.04974,0.198089 -0.801936,1.001783 -1.188065,1.269374 -0.140586,0.09743 -0.471615,0.253457 -0.735603,0.34673 -0.454083,0.160439 -0.520057,0.211668 -1.222935,0.949611 -0.704099,0.739212 -0.855122,0.984764 -0.659949,1.072963 0.163811,0.07402 0.878539,-0.02988 1.175276,-0.170847 z m -5.931998,-0.220089 c 0.05758,-0.150134 -0.252574,-0.626759 -0.65653,-1.008798 -0.382621,-0.361871 -1.145754,-0.782716 -1.850972,-1.02076 -0.373816,-0.126177 -0.46452,-0.133996 -0.768505,-0.06621 -0.318407,0.07102 -0.372017,0.06392 -0.703817,-0.09304 -0.377543,-0.178609 -0.552036,-0.205863 -0.703547,-0.109893 -0.157538,0.09978 -0.03097,0.182564 0.671877,0.439356 0.864852,0.315995 1.313768,0.541802 2.129431,1.071112 0.696311,0.451856 1.058097,0.650814 1.437825,0.790707 0.314333,0.115806 0.399034,0.11533 0.444238,-0.0024 z m 0.862987,-1.096743 c 0.59066,-1.462855 0.67964,-2.039727 0.381066,-2.470561 -0.09626,-0.138954 -0.193425,-0.255151 -0.215853,-0.258213 -0.02249,-0.0031 -0.205172,-0.01208 -0.40609,-0.01994 -0.457682,-0.01802 -0.863464,-0.186874 -0.863464,-0.359316 0,-0.06927 -0.05951,-0.179738 -0.132115,-0.2455 -0.239837,-0.217054 -1.46195,-0.04037 -1.46195,0.211354 0,0.149125 0.182204,0.175073 0.602728,0.08583 0.218269,-0.04632 0.408788,-0.07229 0.423377,-0.0577 0.01452,0.01459 0.03625,0.114727 0.0482,0.222526 0.01902,0.172814 -0.01349,0.214627 -0.275709,0.35348 -0.302431,0.160162 -0.587986,0.171083 -1.179326,0.0451 -0.19246,-0.041 -0.222023,-0.02651 -0.285298,0.139928 -0.0946,0.248708 -0.05938,0.430916 0.100385,0.519691 0.07249,0.04025 0.505829,0.325625 0.963087,0.634142 0.827925,0.558611 1.532757,1.192999 1.768082,1.591383 0.068,0.11515 0.164467,0.201043 0.214336,0.190867 0.04987,-0.0102 0.193232,-0.272557 0.3186,-0.583069 z m 6.088883,-1.235906 c 0.212884,-0.106936 0.843554,-0.678236 0.843554,-0.764148 0,-0.02511 -0.11015,-0.155844 -0.244823,-0.290502 -0.346349,-0.346348 -0.647932,-0.368341 -1.131461,-0.08252 l -0.36275,0.214433 0.03933,0.344655 c 0.06542,0.57231 0.132116,0.68485 0.406128,0.68485 0.130574,0 0.333059,-0.04804 0.449971,-0.10677 z m -8.986548,-7.203671 c 0.127887,-0.0045 0.327828,0.01272 0.444391,0.03821 0.174518,0.03818 0.241918,0.01637 0.381913,-0.123621 0.356272,-0.356269 0.136962,-0.8225 -0.355796,-0.756408 -0.204157,0.02739 -0.288626,0.0071 -0.377094,-0.09068 -0.143464,-0.158523 -0.298394,-0.159097 -0.610812,-0.0023 -0.135534,0.06804 -0.41082,0.144573 -0.611737,0.170076 -0.200918,0.0255 -0.495714,0.122529 -0.655104,0.215597 -0.24742,0.14448 -0.311827,0.157438 -0.44042,0.08861 -0.0901,-0.04825 -0.213797,-0.06017 -0.307984,-0.02973 -0.0865,0.028 -0.27729,0.04506 -0.423879,0.03795 -0.267804,-0.01299 -0.575093,0.135164 -0.479197,0.231059 0.02815,0.02811 0.237292,0.0623 0.464841,0.07598 0.227549,0.01368 0.473504,0.05136 0.546561,0.08374 0.073,0.03238 0.192614,0.07031 0.26567,0.08428 0.110793,0.0212 1.245545,0.0093 2.158647,-0.0228 z m 7.10527,3.422881 c -0.0446,-0.05371 -0.142681,-0.09766 -0.217999,-0.09766 -0.07532,0 -0.259773,-0.05946 -0.409895,-0.132133 -0.206316,-0.09987 -0.321646,-0.118171 -0.472412,-0.07494 -0.33045,0.09478 -1.009331,0.05043 -1.133825,-0.07407 -0.101665,-0.101613 -0.10154,-0.121384 4.49e-4,-0.277117 0.135278,-0.206459 0.136666,-0.238789 0.0103,-0.238789 -0.169646,0 -0.109764,-0.09324 0.157938,-0.246099 0.205789,-0.117489 0.300965,-0.13516 0.481036,-0.08932 0.389304,0.09913 2.259619,0.14699 2.631057,0.06733 0.359434,-0.07709 0.549093,-0.260996 0.549093,-0.532457 0,-0.127721 -0.02506,-0.136784 -0.265672,-0.09613 -0.208051,0.03515 -0.265684,0.02407 -0.265684,-0.05104 0,-0.07541 0.152616,-0.103714 0.713598,-0.132348 0.717415,-0.03662 0.946892,0.0075 0.946892,0.181962 0,0.157586 0.279758,0.300318 0.588628,0.300318 0.442824,0 0.654474,0.361427 0.304911,0.520696 -0.229181,0.104431 -0.280953,0.09838 -0.476897,-0.05575 -0.190185,-0.149604 -0.57341,-0.172745 -0.785985,-0.04747 -0.270478,0.159414 -0.626944,0.480873 -0.626944,0.565384 0,0.0474 -0.07828,0.158669 -0.173785,0.247248 -0.155174,0.143816 -0.214181,0.156828 -0.551367,0.12159 -0.305246,-0.0319 -0.429778,-0.01285 -0.649976,0.09948 -0.237432,0.121126 -0.282765,0.126435 -0.353418,0.04129 z m 5.525935,-1.726277 c -0.04191,-0.09206 -0.152115,-0.196223 -0.244837,-0.231473 -0.09267,-0.03526 -0.188026,-0.116847 -0.21183,-0.18132 -0.02377,-0.06447 -0.07532,-0.139191 -0.11452,-0.166029 -0.120304,-0.08233 -0.386939,-0.05623 -0.503541,0.0493 -0.07377,0.06681 -0.178142,0.08663 -0.313485,0.05956 -0.191869,-0.03837 -0.200995,-0.05434 -0.16872,-0.295005 0.02828,-0.21108 0.0065,-0.280646 -0.131834,-0.408266 l -0.165971,-0.153833 1.037866,0.0046 c 0.57084,0.0026 1.087876,0.02726 1.14898,0.05494 0.150753,0.06833 0.201097,0.223198 0.121075,0.372623 -0.161472,0.301707 -0.107837,0.331653 0.594091,0.331653 0.363161,0 0.672827,0.02242 0.688148,0.04982 0.01529,0.0274 0.01375,0.162622 -0.0038,0.3005 -0.03046,0.243133 -0.03792,0.249452 -0.249464,0.209777 -0.148208,-0.0278 -0.271699,-0.0058 -0.385539,0.06883 -0.138426,0.0907 -0.190608,0.09528 -0.300913,0.02638 -0.104623,-0.0653 -0.171124,-0.06617 -0.307547,-0.004 -0.265542,0.120985 -0.404637,0.09591 -0.488464,-0.08806 z M 14.116512,20.051659 c 0,-0.05974 0.81583,-0.354513 0.97576,-0.352567 0.213681,0.0026 0.119019,0.134191 -0.161614,0.224666 -0.443505,0.142992 -0.814146,0.201218 -0.814146,0.127901 z m -1.885854,-0.456667 c -0.08676,-0.225964 -0.03188,-0.331379 0.250311,-0.481075 0.159853,-0.0848 0.454148,-0.312553 0.653999,-0.506118 0.33198,-0.321549 0.801435,-0.571225 0.896084,-0.476576 0.07314,0.07316 -0.319127,0.578112 -0.498426,0.641592 -0.302572,0.107116 -0.37415,0.165775 -0.512037,0.419629 -0.07442,0.136904 -0.242369,0.302441 -0.381682,0.376078 -0.300709,0.158958 -0.35604,0.162545 -0.408249,0.02648 z m 8.176014,-3.515138 c -0.141396,-0.196354 -0.472965,-0.223488 -0.781462,-0.06395 -0.192152,0.09936 -0.198436,0.09744 -0.266545,-0.08167 -0.03831,-0.100895 -0.105266,-0.206006 -0.148606,-0.233588 -0.168541,-0.107168 -0.499338,-0.04632 -0.782644,0.143955 l -0.292046,0.196137 -0.179144,-0.196137 c -0.226303,-0.247764 -0.434611,-0.251089 -0.85696,-0.01367 -0.276108,0.155213 -0.344383,0.17009 -0.457219,0.09962 -0.07288,-0.04555 -0.24512,-0.08329 -0.382608,-0.08385 -0.322609,-0.0012 -0.433042,-0.07549 -0.405229,-0.272173 0.01748,-0.123389 0.140213,-0.218002 0.553771,-0.426766 0.292252,-0.147528 0.64761,-0.349277 0.789701,-0.448333 0.142089,-0.09905 0.330089,-0.180103 0.417785,-0.180103 0.09576,0 0.271173,-0.107041 0.439071,-0.26787 0.68306,-0.654354 0.601957,-0.610237 1.227036,-0.667469 0.545263,-0.04992 0.597972,-0.04324 0.87444,0.110998 0.185404,0.103433 0.3819,0.159072 0.531356,0.150469 0.130431,-0.0075 0.304641,0.02267 0.387131,0.06705 0.216624,0.116564 0.747375,0.11993 0.979153,0.0061 0.273268,-0.13409 0.316467,-0.438488 0.07094,-0.500105 -0.154569,-0.03878 -0.166279,-0.06519 -0.129904,-0.29267 0.02879,-0.180156 0.0065,-0.300404 -0.07814,-0.430283 -0.10025,-0.153042 -0.10385,-0.189525 -0.02378,-0.241665 0.08894,-0.05786 0.150663,-0.05272 0.559311,0.04673 0.144107,0.03508 0.166048,0.01813 0.166048,-0.128093 0,-0.261103 -0.164994,-0.377253 -0.535906,-0.377253 -0.27792,0 -0.364691,0.0337 -0.576431,0.22386 -0.242509,0.217794 -0.753146,0.506262 -1.070215,0.604581 -0.125446,0.03891 -0.195584,0.0061 -0.351118,-0.164193 -0.166742,-0.182547 -0.229439,-0.208649 -0.441025,-0.183595 -0.135664,0.01606 -0.296943,0.05142 -0.358405,0.07855 -0.08291,0.03662 -0.138132,-0.0017 -0.214106,-0.14862 -0.129275,-0.249971 -0.08136,-0.292277 0.491897,-0.434209 0.380101,-0.09411 0.592099,-0.228769 0.675565,-0.429096 0.01157,-0.02883 0.209132,-0.165395 0.438043,-0.303463 0.340282,-0.205243 0.481242,-0.251618 0.772748,-0.254238 0.19611,-0.0018 0.397374,0.0222 0.447257,0.05322 0.04987,0.03103 0.162205,0.04718 0.249592,0.03588 0.270504,-0.03499 0.761771,0.135536 0.961532,0.33374 0.136859,0.135801 0.256301,0.189051 0.42402,0.189051 0.368624,0 0.753866,0.141553 0.827989,0.304234 0.03663,0.08033 0.134546,0.177039 0.217652,0.214909 0.133787,0.06097 0.14718,0.103881 0.116706,0.37426 -0.02648,0.235418 -0.0065,0.335796 0.0856,0.438026 0.10655,0.117758 0.18755,0.130009 0.722838,0.109327 0.411721,-0.0159 0.674846,-0.06087 0.830059,-0.141841 0.210879,-0.110008 0.240325,-0.110831 0.408763,-0.01131 0.265132,0.156612 0.507398,0.134465 0.67815,-0.06199 0.08085,-0.09307 0.285838,-0.309763 0.455432,-0.481542 0.426321,-0.431811 0.493067,-0.577136 0.359023,-0.781717 -0.105781,-0.161404 -0.166241,-0.187331 -0.385102,-0.165069 -0.09499,0.0097 -0.11619,-0.04199 -0.11619,-0.282937 0,-0.276996 0.01285,-0.297262 0.20755,-0.336273 0.114134,-0.02283 0.300965,-0.04274 0.415126,-0.04424 0.182962,-0.0024 0.225941,-0.04192 0.362633,-0.333302 0.190661,-0.4064487 0.473864,-0.5865216 0.717429,-0.4561705 0.208436,0.1115505 0.199144,0.1635935 -0.07545,0.4225855 -0.243333,0.229489 -0.304898,0.492493 -0.146138,0.624254 0.04743,0.03941 0.338573,0.08043 0.646865,0.09116 0.623061,0.02168 0.715422,0.09788 0.456075,0.376255 -0.100894,0.108261 -0.192974,0.144188 -0.311595,0.121513 -0.272535,-0.0521 -0.513721,0.07318 -0.804289,0.417781 -0.149955,0.177839 -0.27265,0.35168 -0.27265,0.386316 0,0.03463 -0.04524,0.100489 -0.100385,0.146342 -0.163207,0.13545 0.0103,0.286143 0.280015,0.24246 0.257625,-0.0418 0.265607,-0.0046 0.07686,0.357539 -0.132399,0.25402 -0.134585,0.280211 -0.03188,0.382893 0.09485,0.09482 0.291441,0.110857 1.406862,0.114764 1.352095,0.0048 1.46249,-0.01727 1.412196,-0.281503 -0.01594,-0.08364 -0.102185,-0.129647 -0.287778,-0.153549 -0.175983,-0.02266 -0.25859,-0.0643 -0.245852,-0.123967 0.0103,-0.04941 -0.02648,-0.159525 -0.08226,-0.244697 -0.12776,-0.195004 -0.02018,-0.275103 0.142166,-0.105844 0.237832,0.247944 0.390563,0.286493 0.678561,0.171262 0.242844,-0.09717 0.278549,-0.09723 0.416372,-6.92e-4 0.179531,0.125753 0.398096,0.134143 0.695243,0.0267 0.190058,-0.06873 0.236496,-0.06231 0.360437,0.04981 0.101925,0.09221 0.239143,0.128706 0.483941,0.128706 0.336477,0 0.342005,0.0032 0.362402,0.214471 0.01709,0.176808 -0.02674,0.26091 -0.249077,0.478913 -0.148375,0.145442 -0.269785,0.325402 -0.269785,0.39991 0,0.122489 0.04151,0.135471 0.432888,0.135471 h 0.432902 l -0.300053,0.287501 c -0.170366,0.163236 -0.300052,0.348148 -0.300052,0.427808 0,0.202204 -0.09974,0.235126 -0.338292,0.111731 -0.194182,-0.100416 -0.23071,-0.100104 -0.504132,0.0044 -0.162127,0.06191 -0.305272,0.101936 -0.318086,0.08894 -0.01285,-0.013 -0.03214,-0.168692 -0.04293,-0.345977 -0.01863,-0.306448 -0.0089,-0.326708 0.191072,-0.410943 0.409034,-0.171982 0.366927,-0.732672 -0.06568,-0.874773 -0.2062,-0.06774 -0.300155,-0.06177 -0.596249,0.0378 -0.19331,0.06501 -0.530803,0.154724 -0.749985,0.199365 -0.219195,0.04464 -0.518078,0.111203 -0.664204,0.147926 -0.146126,0.03673 -0.385229,0.09581 -0.531355,0.1313 -0.146125,0.0355 -0.33455,0.0998 -0.418737,0.142925 -0.13389,0.06857 -0.171331,0.05654 -0.298896,-0.09609 -0.104367,-0.124802 -0.230917,-0.184684 -0.444714,-0.210307 -0.16439,-0.0197 -0.421706,-0.05445 -0.571841,-0.07724 -0.259515,-0.03937 -0.292946,-0.02356 -0.679577,0.321425 -0.223654,0.199559 -0.497616,0.400517 -0.608806,0.446574 -0.176215,0.07299 -0.21953,0.06803 -0.337353,-0.0386 -0.163811,-0.148247 -0.562177,-0.14764 -0.850187,0.0012 -0.14948,0.0773 -0.242869,0.08653 -0.37343,0.03687 -0.252638,-0.09605 -0.421308,-0.08218 -0.725666,0.05963 -0.148517,0.06922 -0.445652,0.14216 -0.660297,0.162111 -0.444032,0.04127 -0.648022,-0.05022 -0.809905,-0.363268 -0.0536,-0.103631 -0.172911,-0.207377 -0.265157,-0.23053 -0.202833,-0.05091 -0.696272,0.125638 -0.861536,0.308237 -0.0658,0.07273 -0.203578,0.130453 -0.311389,0.130453 -0.279604,0 -0.432529,0.10335 -0.579644,0.39173 -0.107836,0.211458 -0.173361,0.261413 -0.38753,0.295661 -0.29932,0.04787 -0.457489,0.199156 -0.578731,0.553579 -0.104752,0.306323 -0.283499,0.353915 -0.451719,0.120304 z m 7.85789,-3.198104 c 0.242574,-0.12101 0.252728,-0.20606 0.03123,-0.261648 -0.291056,-0.07306 -0.803286,0.242261 -0.647161,0.398377 0.05732,0.05727 0.363135,-0.01066 0.615915,-0.136729 z M 25.54068,10.684461 c -0.08303,-0.26164 -0.134995,-0.323856 -0.312019,-0.373571 -0.170109,-0.04777 -0.26035,-0.03135 -0.453427,0.08256 -0.278447,0.164287 -0.332263,0.148331 -0.384741,-0.114084 -0.02635,-0.131944 -0.10103,-0.217114 -0.241058,-0.275119 -0.111564,-0.046207 -0.20282,-0.1211523 -0.20282,-0.1665517 0,-0.135041 0.461396,-0.4142195 1.09695,-0.6637241 0.629796,-0.2472477 0.972046,-0.306383 0.837925,-0.1447799 -0.04062,0.049021 -0.05617,0.1068982 -0.03445,0.128598 0.05488,0.054869 0.365075,-0.070512 0.452115,-0.1827271 0.03946,-0.050936 0.249902,-0.1246096 0.467528,-0.1637303 0.217626,-0.039112 0.50876,-0.1459469 0.646955,-0.237401 0.232459,-0.1538322 0.271211,-0.1600582 0.517577,-0.083171 0.302636,0.094456 0.338791,0.1956827 0.107579,0.3010567 -0.08728,0.039793 -0.272997,0.2089766 -0.412581,0.3759691 -0.139595,0.1669911 -0.286711,0.3036208 -0.326941,0.3036208 -0.124288,0 -0.436346,0.3711903 -0.522409,0.6215575 -0.09806,0.285201 -0.777465,0.906255 -0.990863,0.905747 -0.115162,-2.77e-4 -0.16642,-0.06601 -0.245208,-0.314273 z m -4.332779,-0.04866 c -0.150097,-0.132127 -0.234516,-0.154855 -0.487192,-0.13117 -0.168092,0.01576 -0.330913,0.04428 -0.361812,0.06338 -0.08162,0.05043 -0.138915,-0.07083 -0.09165,-0.193919 0.02854,-0.07453 0.126988,-0.105625 0.334447,-0.105625 0.161653,0 0.403687,-0.04586 0.537847,-0.101925 0.134558,-0.05622 0.322854,-0.08458 0.419959,-0.06326 0.09679,0.02126 0.374047,-0.01105 0.616056,-0.07187 0.441319,-0.1108576 0.994435,-0.090434 1.074843,0.03968 0.02057,0.03336 -0.0103,0.15246 -0.06799,0.264695 -0.133389,0.25793 -0.383868,0.360713 -0.651607,0.26738 -0.299912,-0.104559 -0.591341,-0.08059 -0.775948,0.06382 -0.216496,0.169337 -0.326184,0.163084 -0.546869,-0.03118 z"
            id="path2"/>
    <g
            id="g16"
            transform="matrix(0.93765642,0,0,0.93765642,-3.7467931,-0.35166386)"
            style="fill:#ffaacd;fill-opacity:1"><path
     style="fill:#ff7eb5;fill-opacity:1;stroke-width:1.40297"
     d="m 48.019385,42.473883 c -0.08867,-0.06207 -0.161131,-0.154893 -0.161131,-0.206264 0,-0.111171 0.231069,-0.333377 0.346673,-0.333377 0.06847,0 0.231587,0.418813 0.23292,0.598126 7.02e-4,0.09419 -0.250611,0.05908 -0.418462,-0.05849 z m 1.073675,-1.260354 c -0.06075,-0.1135 -0.04433,-0.162438 0.08516,-0.253079 0.207583,-0.145397 0.306001,-0.04339 0.194423,0.20151 -0.1041,0.228548 -0.177574,0.242095 -0.279541,0.05157 z M 21.693293,40.892177 c -0.110694,-0.133436 -0.02483,-0.33544 0.142583,-0.33544 0.147901,0 0.283974,0.201385 0.23271,0.344376 -0.04335,0.120893 -0.272063,0.11545 -0.375293,-0.009 z M 48.29257,40.156183 c -0.152923,-0.402229 -0.02189,-0.519657 0.294188,-0.26369 0.175258,0.141909 0.151562,0.252454 -0.08067,0.37677 -0.119392,0.06392 -0.152909,0.04619 -0.213461,-0.113078 z M 17.289372,39.432945 c -0.06945,-0.180873 0.03101,-0.326251 0.22526,-0.326251 0.145235,0 0.183522,0.0362 0.183522,0.173493 0,0.243621 -0.327018,0.365825 -0.408782,0.152758 z m 28.373733,-0.18208 c -0.06861,-0.08021 -0.124864,-0.189157 -0.124864,-0.242114 0,-0.09081 0.287917,-0.264558 0.438413,-0.264558 0.09217,0 0.08825,0.336319 -0.0056,0.512267 -0.09484,0.17731 -0.151871,0.176273 -0.3076,-0.0056 z M 11.82819,39.111467 c -0.197734,-0.369477 0.0014,-0.621294 0.324267,-0.409818 0.223507,0.146454 0.229932,0.289839 0.0195,0.437191 -0.208214,0.145839 -0.253024,0.142273 -0.343824,-0.02737 z m 9.326112,-1.629887 c -0.05079,-0.132383 0.0463,-0.496947 0.140745,-0.528431 0.03999,-0.01333 0.152418,0.06072 0.249798,0.164561 l 0.177082,0.188803 -0.171161,0.138837 c -0.203037,0.164707 -0.342268,0.177429 -0.396464,0.03623 z m 2.343877,-0.395824 c 0,-0.275417 0.09582,-0.60254 0.186581,-0.637393 0.09259,-0.03552 0.538416,0.247759 0.538416,0.342104 0,0.07004 -0.5346,0.431227 -0.638265,0.431227 -0.0477,0 -0.0867,-0.06117 -0.0867,-0.135934 z m 22.72882,-0.661564 c -0.05289,-0.08554 0.01571,-0.217501 0.113079,-0.217501 0.03746,0 0.06818,0.06525 0.06818,0.145 0,0.152909 -0.105503,0.195101 -0.181249,0.0725 z M 19.897301,34.781069 c 0.05921,-0.364719 0.15486,-0.444205 0.336656,-0.279684 0.18954,0.171529 0.1855,0.292408 -0.01445,0.432442 -0.27536,0.192872 -0.370972,0.14755 -0.322233,-0.152758 z m 25.469147,-0.62251 c -0.06552,-0.244243 -0.0571,-0.271976 0.08123,-0.270765 0.239149,0.0021 0.33159,0.109572 0.240566,0.27967 -0.107748,0.201278 -0.266591,0.196881 -0.321742,-0.0088 z"
     id="path17" /></g></svg>
