<?xml version="1.0" encoding="UTF-8"?>
<!DOCTYPE svg PUBLIC "-//W3C//DTD SVG 1.1//EN" "http://www.w3.org/Graphics/SVG/1.1/DTD/svg11.dtd">
<!-- Creator: CorelDRAW -->
<svg xmlns="http://www.w3.org/2000/svg" xml:space="preserve" width="1000px" height="1000px" version="1.1" style="shape-rendering:geometricPrecision; text-rendering:geometricPrecision; image-rendering:optimizeQuality; fill-rule:evenodd; clip-rule:evenodd"
viewBox="0 0 409.27 409.28"
 xmlns:xlink="http://www.w3.org/1999/xlink"
 xmlns:xodm="http://www.corel.com/coreldraw/odm/2003">
 <defs>
  <style type="text/css">
   <![CDATA[
    .fil2 {fill:none;fill-rule:nonzero}
    .fil14 {fill:#1E6B87}
    .fil10 {fill:#2A7D9B}
    .fil5 {fill:#333333;fill-opacity:0.701961}
    .fil3 {fill:url(#id0)}
    .fil31 {fill:url(#id1)}
    .fil12 {fill:url(#id2)}
    .fil16 {fill:url(#id3)}
    .fil28 {fill:url(#id4)}
    .fil15 {fill:url(#id5)}
    .fil13 {fill:url(#id6)}
    .fil8 {fill:url(#id7)}
    .fil4 {fill:url(#id8)}
    .fil30 {fill:url(#id9)}
    .fil7 {fill:url(#id10)}
    .fil17 {fill:url(#id11)}
    .fil29 {fill:url(#id12)}
    .fil9 {fill:url(#id13)}
    .fil6 {fill:url(#id14)}
    .fil11 {fill:url(#id15)}
    .fil1 {fill:url(#id16)}
    .fil18 {fill:url(#id17);fill-rule:nonzero}
    .fil0 {fill:url(#id18);fill-rule:nonzero}
    .fil33 {fill:url(#id19);fill-opacity:0.301961}
    .fil32 {fill:url(#id20);fill-opacity:0.301961}
    .fil20 {fill:url(#id21);fill-opacity:0.600000}
    .fil19 {fill:url(#id22);fill-opacity:0.600000}
    .fil21 {fill:url(#id23);fill-opacity:0.600000}
    .fil25 {fill:url(#id24);fill-rule:nonzero;fill-opacity:0.600000}
    .fil24 {fill:url(#id25);fill-rule:nonzero;fill-opacity:0.600000}
    .fil27 {fill:url(#id26);fill-rule:nonzero;fill-opacity:0.600000}
    .fil22 {fill:url(#id27);fill-rule:nonzero;fill-opacity:0.600000}
    .fil26 {fill:url(#id28);fill-rule:nonzero;fill-opacity:0.600000}
    .fil23 {fill:url(#id29);fill-rule:nonzero;fill-opacity:0.600000}
   ]]>
  </style>
  <linearGradient id="id0" gradientUnits="userSpaceOnUse" x1="200.76" y1="235.12" x2="200.76" y2="202.79">
   <stop offset="0" style="stop-opacity:1; stop-color:#E8B69D"/>
   <stop offset="1" style="stop-opacity:1; stop-color:#C99071"/>
  </linearGradient>
  <linearGradient id="id1" gradientUnits="userSpaceOnUse" x1="106.59" y1="224.11" x2="106.59" y2="206.59">
   <stop offset="0" style="stop-opacity:1; stop-color:#E8B69D"/>
   <stop offset="1" style="stop-opacity:1; stop-color:#D69978"/>
  </linearGradient>
  <linearGradient id="id2" gradientUnits="userSpaceOnUse" x1="303.3" y1="212.11" x2="268" y2="183.59">
   <stop offset="0" style="stop-opacity:1; stop-color:#F8F1EF"/>
   <stop offset="1" style="stop-opacity:1; stop-color:white"/>
  </linearGradient>
  <linearGradient id="id3" gradientUnits="userSpaceOnUse" xlink:href="#id2" x1="201.97" y1="203.04" x2="105.3" y2="141.03">
  </linearGradient>
  <linearGradient id="id4" gradientUnits="userSpaceOnUse" x1="244.65" y1="229.21" x2="242.31" y2="216.13">
   <stop offset="0" style="stop-opacity:1; stop-color:#061C24"/>
   <stop offset="1" style="stop-opacity:1; stop-color:#1D5A70"/>
  </linearGradient>
  <linearGradient id="id5" gradientUnits="userSpaceOnUse" xlink:href="#id2" x1="303.35" y1="212.06" x2="268.07" y2="183.64">
  </linearGradient>
  <linearGradient id="id6" gradientUnits="userSpaceOnUse" xlink:href="#id2" x1="158.29" y1="216.47" x2="72.2" y2="141.87">
  </linearGradient>
  <linearGradient id="id7" gradientUnits="userSpaceOnUse" x1="192.31" y1="196.68" x2="102.56" y2="147.39">
   <stop offset="0" style="stop-opacity:1; stop-color:#F2E7E4"/>
   <stop offset="1" style="stop-opacity:1; stop-color:#F8F1EF"/>
  </linearGradient>
  <linearGradient id="id8" gradientUnits="userSpaceOnUse" x1="201.96" y1="409.26" x2="204.64" y2="204.64">
   <stop offset="0" style="stop-opacity:1; stop-color:#1A92BC"/>
   <stop offset="0.501961" style="stop-opacity:1; stop-color:#229FCC"/>
   <stop offset="1" style="stop-opacity:1; stop-color:#78D3D6"/>
  </linearGradient>
  <linearGradient id="id9" gradientUnits="userSpaceOnUse" xlink:href="#id4" x1="243.48" y1="229.42" x2="243.47" y2="215.92">
  </linearGradient>
  <linearGradient id="id10" gradientUnits="userSpaceOnUse" x1="230.87" y1="181.91" x2="130.28" y2="138.57">
   <stop offset="0" style="stop-opacity:1; stop-color:#F2E2D7"/>
   <stop offset="1" style="stop-opacity:1; stop-color:#F2E7E4"/>
  </linearGradient>
  <linearGradient id="id11" gradientUnits="userSpaceOnUse" xlink:href="#id2" x1="230.87" y1="181.91" x2="130.28" y2="138.57">
  </linearGradient>
  <linearGradient id="id12" gradientUnits="userSpaceOnUse" xlink:href="#id4" x1="243.48" y1="229.42" x2="243.47" y2="215.92">
  </linearGradient>
  <linearGradient id="id13" gradientUnits="userSpaceOnUse" xlink:href="#id2" x1="140.34" y1="203.1" x2="62.65" y2="155.24">
  </linearGradient>
  <linearGradient id="id14" gradientUnits="userSpaceOnUse" x1="220.05" y1="195.57" x2="262.6" y2="168.35">
   <stop offset="0" style="stop-opacity:1; stop-color:#F2E7E4"/>
   <stop offset="1" style="stop-opacity:1; stop-color:white"/>
  </linearGradient>
  <linearGradient id="id15" gradientUnits="userSpaceOnUse" xlink:href="#id7" x1="306.08" y1="209.34" x2="336.46" y2="189.42">
  </linearGradient>
  <radialGradient id="id16" gradientUnits="userSpaceOnUse" gradientTransform="matrix(1.23744 -0 -0 1.23168 -45 -53)" cx="188.27" cy="229.19" r="204.64" fx="188.27" fy="229.19">
   <stop offset="0" style="stop-opacity:1; stop-color:#FFC95C"/>
   <stop offset="0.309804" style="stop-opacity:0.698039; stop-color:#FFDA96"/>
   <stop offset="0.94902" style="stop-opacity:0; stop-color:#FAF9ED"/>
   <stop offset="1" style="stop-opacity:0; stop-color:#FFFBF2"/>
  </radialGradient>
  <linearGradient id="id17" gradientUnits="userSpaceOnUse" x1="385.44" y1="229.21" x2="378.87" y2="199.11">
   <stop offset="0" style="stop-opacity:1; stop-color:#2C8777"/>
   <stop offset="1" style="stop-opacity:1; stop-color:#A8D354"/>
  </linearGradient>
  <linearGradient id="id18" gradientUnits="userSpaceOnUse" x1="204.14" y1="211.17" x2="204.64" y2="0">
   <stop offset="0" style="stop-opacity:1; stop-color:#FFF3D4"/>
   <stop offset="0.631373" style="stop-opacity:1; stop-color:#98D2EE"/>
   <stop offset="1" style="stop-opacity:1; stop-color:#52B2E8"/>
  </linearGradient>
  <linearGradient id="id19" gradientUnits="userSpaceOnUse" x1="108.27" y1="224.11" x2="108.27" y2="206.6">
   <stop offset="0" style="stop-opacity:1; stop-color:#BD8B71"/>
   <stop offset="1" style="stop-opacity:1; stop-color:#8C573B"/>
  </linearGradient>
  <linearGradient id="id20" gradientUnits="userSpaceOnUse" xlink:href="#id19" x1="108.27" y1="224.11" x2="108.27" y2="206.6">
  </linearGradient>
  <linearGradient id="id21" gradientUnits="userSpaceOnUse" x1="204.98" y1="411.02" x2="204.98" y2="167.74">
   <stop offset="0" style="stop-opacity:1; stop-color:#67C5EC"/>
   <stop offset="1" style="stop-opacity:1; stop-color:#FCE6BB"/>
  </linearGradient>
  <linearGradient id="id22" gradientUnits="userSpaceOnUse" xlink:href="#id21" x1="200.86" y1="441.29" x2="200.86" y2="198.01">
  </linearGradient>
  <linearGradient id="id23" gradientUnits="userSpaceOnUse" xlink:href="#id21" x1="201.88" y1="454.07" x2="201.88" y2="210.78">
  </linearGradient>
  <linearGradient id="id24" gradientUnits="userSpaceOnUse" x1="222.01" y1="451.95" x2="222.01" y2="208.67">
   <stop offset="0" style="stop-opacity:1; stop-color:#35BEED"/>
   <stop offset="1" style="stop-opacity:1; stop-color:#FCE6BB"/>
  </linearGradient>
  <linearGradient id="id25" gradientUnits="userSpaceOnUse" xlink:href="#id24" x1="215.04" y1="452.45" x2="215.04" y2="209.17">
  </linearGradient>
  <linearGradient id="id26" gradientUnits="userSpaceOnUse" xlink:href="#id24" x1="210.23" y1="414.08" x2="210.23" y2="170.8">
  </linearGradient>
  <linearGradient id="id27" gradientUnits="userSpaceOnUse" xlink:href="#id24" x1="210.55" y1="443.03" x2="210.55" y2="199.74">
  </linearGradient>
  <linearGradient id="id28" gradientUnits="userSpaceOnUse" xlink:href="#id24" x1="199.09" y1="447.31" x2="199.09" y2="204.03">
  </linearGradient>
  <linearGradient id="id29" gradientUnits="userSpaceOnUse" xlink:href="#id24" x1="186.18" y1="450.54" x2="186.18" y2="207.25">
  </linearGradient>
 </defs>
 <g id="Layer_x0020_1">
  <metadata id="CorelCorpID_0Corel-Layer"/>
  <g id="_51579359456">
   <circle class="fil0" cx="204.64" cy="204.64" r="204.64"/>
   <path class="fil1" d="M409.27 204.64c0,-113.02 -91.62,-204.64 -204.63,-204.64 -113.02,0 -204.64,91.62 -204.64,204.64 0,113.01 91.62,204.63 204.64,204.63 113.01,0 204.63,-91.62 204.63,-204.63z"/>
   <path class="fil2" d="M401.77 259.69c0.27,-0.97 0.54,-1.96 0.8,-2.94l0.01 -0.04c0.15,-0.6 0.31,-1.2 0.46,-1.8l0.01 -0.03c0.27,-1.05 0.52,-2.1 0.77,-3.15l0.01 -0.03c0.13,-0.54 0.25,-1.09 0.37,-1.63l0.01 -0.03c0.26,-1.13 0.5,-2.27 0.74,-3.42l0 0c0.1,-0.47 0.2,-0.95 0.3,-1.41l0 -0.02c0.24,-1.24 0.48,-2.48 0.71,-3.72l0.01 -0.02c0.06,-0.37 0.13,-0.75 0.2,-1.13l0 -0.02c0.23,-1.33 0.46,-2.67 0.67,-4.01l0 0 0 -0.02c0.05,-0.31 0.09,-0.61 0.14,-0.92l0 -0.02 0 0c0.22,-1.42 0.42,-2.85 0.6,-4.28l0 0c-0.18,1.43 -0.38,2.86 -0.6,4.28m-5.75 26.27c-8.48,-0.02 -17.56,0.05 -28.21,0.09 -12.73,-1 -70.8,1.59 -68.51,-2.07 2.25,-2.11 6.42,-8.22 16.32,-10.14 14.2,-2.75 35.46,-6.08 48.14,-8.82 8.89,-1.93 22.7,-6.06 38.7,-10.28l-0.09 0.67m-5.81 28.64c-0.18,0.64 -0.36,1.28 -0.54,1.91"/>
   <path class="fil3" d="M325.05 211.09l0 2.86 4.12 0 0 2.66 2.68 0 0 18.51 -262.17 0 0 -11.01 20.42 -13.02 234.95 0z"/>
   <path class="fil4" d="M1.48 229.21l406.32 0c-0.18,1.53 -0.39,3.05 -0.6,4.56l-0.04 0.28c-0.21,1.46 -0.44,2.92 -0.68,4.36l-0.07 0.43c-0.24,1.43 -0.49,2.84 -0.76,4.26l-0.09 0.45c-0.27,1.43 -0.56,2.84 -0.86,4.25l-0.08 0.37c-0.32,1.45 -0.64,2.89 -0.99,4.32l-0.03 0.16c-3.28,13.62 -7.91,26.7 -13.76,39.11l-0.11 0.23c-0.59,1.27 -1.21,2.51 -1.83,3.77l-0.24 0.48c-0.61,1.21 -1.22,2.4 -1.84,3.59l-0.31 0.58c-0.62,1.17 -1.25,2.33 -1.89,3.48l-0.34 0.61c-0.64,1.15 -1.3,2.3 -1.97,3.44 -0.11,0.18 -0.21,0.36 -0.32,0.54 -0.69,1.16 -1.38,2.31 -2.08,3.45 -0.09,0.14 -0.18,0.29 -0.27,0.44 -0.74,1.18 -1.48,2.35 -2.24,3.52l-0.09 0.14c-4.88,7.51 -10.24,14.68 -16.04,21.47 -0.1,0.12 -0.21,0.25 -0.31,0.37 -0.82,0.95 -1.65,1.89 -2.49,2.83 -0.21,0.23 -0.42,0.46 -0.62,0.7 -0.79,0.87 -1.58,1.74 -2.38,2.59 -0.27,0.29 -0.54,0.59 -0.81,0.88 -0.77,0.81 -1.55,1.62 -2.33,2.42 -0.31,0.32 -0.63,0.65 -0.94,0.97 -0.76,0.77 -1.52,1.54 -2.3,2.29 -0.35,0.35 -0.69,0.69 -1.05,1.02 -0.75,0.75 -1.52,1.47 -2.3,2.2 -0.36,0.35 -0.73,0.69 -1.1,1.03 -0.77,0.72 -1.55,1.42 -2.33,2.13 -0.38,0.34 -0.76,0.67 -1.14,1.02 -0.79,0.69 -1.58,1.38 -2.37,2.06 -0.39,0.33 -0.78,0.66 -1.17,0.98 -0.8,0.69 -1.61,1.37 -2.43,2.04 -0.36,0.3 -0.73,0.59 -1.1,0.89 -0.85,0.69 -1.7,1.37 -2.57,2.05 -0.27,0.21 -0.55,0.42 -0.82,0.63 -3.22,2.49 -6.5,4.88 -9.87,7.18 -0.16,0.1 -0.31,0.22 -0.47,0.32 -0.85,0.58 -1.7,1.14 -2.56,1.7 -0.47,0.31 -0.94,0.63 -1.41,0.94 -0.78,0.5 -1.58,0.99 -2.37,1.48 -0.55,0.35 -1.11,0.7 -1.66,1.04 -0.77,0.47 -1.53,0.92 -2.3,1.38 -0.6,0.35 -1.2,0.71 -1.8,1.07 -0.75,0.43 -1.51,0.86 -2.27,1.29 -0.63,0.35 -1.25,0.7 -1.88,1.05 -0.74,0.41 -1.49,0.81 -2.24,1.21 -0.66,0.35 -1.33,0.71 -2,1.05 -0.73,0.39 -1.48,0.77 -2.22,1.14 -0.68,0.35 -1.37,0.68 -2.05,1.02 -0.75,0.37 -1.48,0.72 -2.22,1.07 -0.71,0.34 -1.41,0.67 -2.12,0.99 -0.74,0.35 -1.48,0.69 -2.22,1.02 -0.73,0.33 -1.47,0.64 -2.2,0.96 -0.73,0.32 -1.46,0.63 -2.19,0.94 -0.76,0.32 -1.53,0.63 -2.3,0.94 -0.72,0.29 -1.43,0.58 -2.15,0.87 -0.81,0.31 -1.63,0.62 -2.44,0.93 -0.69,0.25 -1.37,0.52 -2.06,0.77 -0.97,0.35 -1.94,0.69 -2.92,1.03 -0.54,0.19 -1.08,0.38 -1.62,0.57 -1.51,0.51 -3.03,1 -4.56,1.48 -0.52,0.16 -1.06,0.31 -1.59,0.48 -1.02,0.3 -2.03,0.61 -3.06,0.9 -0.65,0.19 -1.3,0.36 -1.94,0.54 -0.93,0.25 -1.85,0.51 -2.77,0.75 -0.69,0.18 -1.38,0.34 -2.07,0.51 -0.89,0.23 -1.79,0.45 -2.69,0.66 -0.71,0.17 -1.42,0.33 -2.14,0.48 -0.89,0.2 -1.77,0.39 -2.66,0.58 -0.72,0.15 -1.44,0.29 -2.16,0.44 -0.9,0.18 -1.8,0.35 -2.7,0.51 -0.72,0.14 -1.45,0.27 -2.18,0.39 -0.9,0.15 -1.8,0.3 -2.7,0.45 -0.73,0.12 -1.47,0.23 -2.2,0.33 -0.91,0.14 -1.83,0.27 -2.74,0.39 -0.74,0.09 -1.47,0.19 -2.21,0.28 -0.92,0.12 -1.85,0.22 -2.77,0.32 -0.73,0.08 -1.46,0.16 -2.2,0.24 -0.95,0.09 -1.91,0.17 -2.87,0.25 -0.71,0.06 -1.42,0.12 -2.12,0.17 -1.01,0.08 -2.03,0.14 -3.05,0.2 -0.66,0.04 -1.32,0.08 -1.98,0.11 -1.15,0.06 -2.31,0.1 -3.45,0.13 -0.54,0.02 -1.08,0.05 -1.62,0.06 -1.7,0.04 -3.39,0.07 -5.1,0.07 -1.71,0 -3.42,-0.03 -5.11,-0.07 -0.54,-0.02 -1.07,-0.04 -1.61,-0.06 -1.15,-0.03 -2.31,-0.07 -3.45,-0.13 -0.66,-0.03 -1.33,-0.07 -1.99,-0.11 -1.01,-0.06 -2.03,-0.12 -3.04,-0.2 -0.71,-0.05 -1.42,-0.11 -2.13,-0.17 -0.96,-0.08 -1.92,-0.16 -2.87,-0.25 -0.73,-0.08 -1.46,-0.16 -2.2,-0.24 -0.92,-0.1 -1.85,-0.21 -2.77,-0.32 -0.74,-0.09 -1.47,-0.19 -2.21,-0.28 -0.91,-0.12 -1.83,-0.25 -2.73,-0.39 -0.74,-0.1 -1.47,-0.21 -2.21,-0.33 -0.9,-0.15 -1.8,-0.3 -2.7,-0.45 -0.73,-0.12 -1.46,-0.25 -2.18,-0.39 -0.9,-0.16 -1.79,-0.33 -2.69,-0.51 -0.72,-0.15 -1.45,-0.29 -2.17,-0.44 -0.89,-0.19 -1.77,-0.38 -2.66,-0.58 -0.71,-0.15 -1.43,-0.31 -2.14,-0.48 -0.9,-0.21 -1.79,-0.43 -2.69,-0.66 -0.68,-0.17 -1.37,-0.33 -2.06,-0.51 -0.93,-0.24 -1.85,-0.5 -2.77,-0.75 -0.65,-0.18 -1.3,-0.35 -1.94,-0.54 -1.02,-0.29 -2.03,-0.6 -3.04,-0.9 -0.55,-0.16 -1.09,-0.32 -1.63,-0.48 -1.52,-0.48 -3.04,-0.97 -4.54,-1.48 -0.54,-0.19 -1.08,-0.38 -1.62,-0.56 -0.97,-0.35 -1.95,-0.69 -2.92,-1.04 -0.69,-0.25 -1.38,-0.52 -2.06,-0.78 -0.82,-0.3 -1.64,-0.61 -2.45,-0.92 -0.72,-0.29 -1.43,-0.58 -2.14,-0.86 -0.77,-0.32 -1.54,-0.63 -2.31,-0.95 -0.73,-0.31 -1.46,-0.62 -2.18,-0.94 -0.74,-0.32 -1.47,-0.63 -2.2,-0.96 -0.74,-0.33 -1.49,-0.67 -2.22,-1.02 -0.71,-0.32 -1.42,-0.65 -2.12,-0.99 -0.75,-0.34 -1.48,-0.7 -2.22,-1.07 -0.69,-0.34 -1.38,-0.67 -2.06,-1.02 -0.74,-0.37 -1.48,-0.76 -2.23,-1.14 -0.66,-0.34 -1.32,-0.69 -1.98,-1.04 -0.75,-0.41 -1.5,-0.81 -2.25,-1.22 -0.63,-0.35 -1.25,-0.7 -1.88,-1.05 -0.76,-0.43 -1.51,-0.86 -2.27,-1.29 -0.6,-0.36 -1.19,-0.71 -1.79,-1.07 -0.78,-0.46 -1.55,-0.91 -2.31,-1.38 -0.55,-0.33 -1.1,-0.69 -1.65,-1.02 -0.79,-0.51 -1.59,-1 -2.37,-1.5 -0.48,-0.31 -0.95,-0.63 -1.41,-0.93 -0.87,-0.57 -1.72,-1.13 -2.57,-1.71 -0.15,-0.1 -0.31,-0.21 -0.47,-0.32 -3.37,-2.3 -6.65,-4.69 -9.87,-7.18 -0.27,-0.21 -0.55,-0.42 -0.82,-0.63 -0.87,-0.68 -1.71,-1.36 -2.57,-2.05 -0.37,-0.3 -0.74,-0.59 -1.1,-0.89 -0.82,-0.67 -1.62,-1.35 -2.42,-2.02 -0.39,-0.34 -0.79,-0.67 -1.18,-1 -0.79,-0.68 -1.57,-1.36 -2.35,-2.05 -0.39,-0.35 -0.78,-0.69 -1.17,-1.04 -0.77,-0.7 -1.54,-1.4 -2.31,-2.11 -0.37,-0.35 -0.74,-0.69 -1.12,-1.04 -0.77,-0.73 -1.53,-1.46 -2.29,-2.2 -0.35,-0.33 -0.7,-0.67 -1.05,-1.02 -0.77,-0.75 -1.54,-1.52 -2.3,-2.28 -0.31,-0.33 -0.63,-0.66 -0.95,-0.99 -0.78,-0.79 -1.55,-1.59 -2.31,-2.4 -0.28,-0.3 -0.55,-0.6 -0.82,-0.9 -0.8,-0.85 -1.59,-1.71 -2.38,-2.58 -0.2,-0.23 -0.41,-0.47 -0.61,-0.7 -0.84,-0.94 -1.68,-1.88 -2.49,-2.83 -0.11,-0.12 -0.21,-0.25 -0.32,-0.37 -5.8,-6.79 -11.16,-13.96 -16.04,-21.47l-0.09 -0.14c-0.76,-1.17 -1.5,-2.34 -2.24,-3.52 -0.09,-0.15 -0.18,-0.3 -0.27,-0.44 -0.7,-1.14 -1.39,-2.29 -2.07,-3.45l-0.33 -0.54c-0.66,-1.14 -1.32,-2.28 -1.97,-3.44l-0.34 -0.61c-0.64,-1.15 -1.27,-2.31 -1.89,-3.48l-0.3 -0.58c-0.63,-1.19 -1.24,-2.38 -1.85,-3.59 -0.08,-0.15 -0.15,-0.32 -0.24,-0.48 -0.62,-1.25 -1.24,-2.5 -1.83,-3.77l-0.11 -0.23c-5.84,-12.41 -10.48,-25.49 -13.75,-39.11l-0.04 -0.16c-0.35,-1.43 -0.67,-2.88 -0.98,-4.32l-0.09 -0.37c-0.3,-1.41 -0.59,-2.82 -0.86,-4.25l-0.09 -0.45c-0.27,-1.42 -0.52,-2.83 -0.76,-4.26l-0.07 -0.43c-0.24,-1.44 -0.47,-2.9 -0.68,-4.36l-0.03 -0.28c-0.22,-1.51 -0.42,-3.03 -0.6,-4.56l0 0z"/>
   <path class="fil5" d="M331.85 224.11l0 5.1 -262.17 0 0 -5.1 262.17 0z"/>
   <path class="fil6" d="M195.7 211.13c5.09,-12.03 10.18,-26.04 15.27,-38.07 13.91,-8.7 30.65,-13.92 51.74,-4.54 0.82,19.68 -1.67,36.06 -5.45,42.61 0,0 -61.56,0 -61.56,0z"/>
   <path class="fil7" d="M142.94 109.19c0.92,56.32 5.69,67.97 8.56,101.98 0,0 73.22,0 73.22,0 -15.09,-53.74 -35.04,-87.72 -81.45,-101.9 -0.11,-0.03 -0.22,-0.05 -0.33,-0.08z"/>
   <path class="fil8" d="M110.57 132.8c0.29,31.58 1.36,51.5 5.86,78.37 0,0 74.24,0 74.24,0 -18.27,-49.75 -38.86,-71.19 -80.1,-78.37z"/>
   <path class="fil9" d="M90.1 211.09c-7.48,-17.17 -15.98,-40.48 -22.43,-64 40.68,2.05 43.35,6.33 73.49,64.08 0,0 -51.06,-0.08 -51.06,-0.08z"/>
   <path class="fil10" d="M149.7 122.66c0.8,48.88 4.93,58.99 7.43,88.51 0,0 63.54,0 63.54,0 -13.09,-46.64 -30.41,-76.14 -70.68,-88.44 -0.1,-0.03 -0.2,-0.05 -0.29,-0.07z"/>
   <path class="fil11" d="M335.28 187.63c-16.97,-2.93 -30.48,-0.61 -39.75,5.45 0,6 0,12 0,18.01 0,0 29.52,0 29.52,0 3.41,-7.82 6.82,-15.64 10.23,-23.46z"/>
   <path class="fil10" d="M116.9 142.85c0.25,27.53 1.19,44.89 5.11,68.32 0,0 64.73,0 64.73,0 -15.93,-43.38 -33.89,-62.07 -69.84,-68.32z"/>
   <path class="fil12" d="M271.7 211.13c-2.52,-8.53 -5.02,-18.57 -4.35,-26.17 21.75,-2.29 34.95,4.42 39.9,26.17 0,0 -35.55,0 -35.55,0z"/>
   <path class="fil10" d="M275.53 211.13c-1.91,-6.03 -3.82,-14.42 -4.21,-22.46 16.42,2.61 23.67,13.24 27.86,22.46 0,0 -23.65,0 -23.65,0z"/>
   <path class="fil10" d="M101.48 211.09c-6.53,-14.99 -13.95,-35.36 -19.59,-55.9 35.53,1.79 54,5.54 80.33,55.98 0,0 -60.74,-0.08 -60.74,-0.08z"/>
   <path class="fil13" d="M141.16 211.17c-15.73,-23.6 -33.14,-37.89 -57.57,-44.11 -3.09,-0.78 -12.86,-19.05 -15.92,-19.97 40.68,2.05 66.9,7.31 103.37,64.08 0,0 -29.88,0 -29.88,0z"/>
   <path class="fil14" d="M90.1 211.09c0.87,-4.54 3.13,-8.58 5.77,-13.67 15.51,-1.04 26.8,2.93 45.29,13.75 0,0 -51.06,-0.08 -51.06,-0.08z"/>
   <path class="fil14" d="M270.37 211.13c0.47,-2.43 1.73,-4.71 3.14,-7.43 8.28,-0.56 15.79,1.65 25.67,7.43 0,0 -28.81,0 -28.81,0z"/>
   <path class="fil15" d="M298.65 211.13c-6.39,-12.78 -17.59,-20.28 -27.27,-21.41 -1.67,-0.2 -2.31,-4.33 -4.03,-4.76 21.75,-2.29 34.95,4.42 39.9,26.17 0,0 -8.6,0 -8.6,0z"/>
   <path class="fil16" d="M110.57 132.8c3.05,2.34 2.72,8.29 6.1,9.77 24.78,10.84 37.58,32.09 49.62,68.6 0,0 37.85,0 37.85,0 -17.85,-44.18 -52.33,-71.19 -93.57,-78.37z"/>
   <path class="fil17" d="M142.94 109.19c4.68,3.67 1.49,11.86 6.29,14.66 38.3,22.33 40.71,48.39 48.08,87.32 0,0 27.41,0 27.41,0 -15.09,-53.74 -35.04,-87.72 -81.45,-101.9 -0.11,-0.03 -0.22,-0.05 -0.33,-0.08z"/>
   <path id="path517_36726" class="fil18" d="M407.56 231.21c-4.76,-0.05 -9.52,-0.14 -14.19,-0.33 -24.8,-1.13 -58,0.14 -68.3,0.14 -30.14,0.38 -33.19,0.38 0.38,-17.4 9.16,-4.53 41.97,-10.35 53.42,-14.51 6.31,-2.3 17.26,-4.61 30.06,-6.16 0.22,3.87 0.34,7.76 0.34,11.69 0,9 -0.58,17.87 -1.71,26.57z"/>
   <g>
    <path class="fil19" d="M201.76 342.31c3.24,-0.85 23.8,-1.8 43.59,-2.07 19.78,-0.26 38.78,0.15 53.16,0.48 14.38,0.32 24.13,0.54 27.14,0.98 3.01,0.42 -0.71,1.07 -10.92,1.6 -10.2,0.53 -26.87,0.94 -42.61,1.15 -15.76,0.21 -30.59,0.21 -45.04,-0.16 -14.46,-0.38 -28.55,-1.13 -25.32,-1.98l0 0z"/>
    <path class="fil20" d="M173.42 380.57c1.75,-0.84 12.88,-1.79 23.6,-2.06 10.71,-0.27 20.99,0.14 28.78,0.48 7.78,0.31 13.06,0.53 14.69,0.96 1.63,0.44 -0.39,1.08 -5.91,1.61 -5.52,0.53 -14.54,0.95 -23.07,1.16 -8.53,0.2 -16.56,0.2 -24.38,-0.17 -7.83,-0.38 -15.46,-1.13 -13.71,-1.98l0 0z"/>
    <path class="fil21" d="M39.31 274.22c2.88,-0.85 21.18,-1.8 38.79,-2.06 17.6,-0.27 34.51,0.14 47.31,0.47 12.79,0.32 21.47,0.53 24.14,0.97 2.68,0.44 -0.63,1.08 -9.71,1.61 -9.07,0.53 -23.91,0.95 -37.92,1.16 -14.02,0.2 -27.21,0.2 -40.08,-0.17 -12.87,-0.38 -25.41,-1.14 -22.53,-1.98l0 0z"/>
    <path class="fil22" d="M139.61 249.82c3.24,-0.86 23.8,-1.8 43.58,-2.08 19.79,-0.26 38.8,0.16 53.17,0.48 14.39,0.32 24.13,0.54 27.14,0.98 3.01,0.44 -0.72,1.07 -10.91,1.6 -10.21,0.54 -26.88,0.95 -42.62,1.16 -15.76,0.2 -30.58,0.2 -45.05,-0.17 -14.45,-0.38 -28.54,-1.13 -25.31,-1.97l0 0z"/>
    <path class="fil23" d="M242.68 270.13c3.23,-0.85 23.8,-1.8 43.58,-2.06 19.79,-0.27 38.79,0.15 53.17,0.47 14.38,0.32 24.13,0.54 27.13,0.98 3.02,0.43 -0.71,1.07 -10.91,1.61 -10.19,0.52 -26.87,0.94 -42.62,1.15 -15.75,0.21 -30.57,0.21 -45.04,-0.17 -14.45,-0.38 -28.54,-1.13 -25.31,-1.98l0 0z"/>
    <path class="fil24" d="M148.08 293.59c3.23,-0.84 23.79,-1.79 43.58,-2.06 19.78,-0.27 38.79,0.14 53.16,0.47 14.38,0.32 24.13,0.54 27.14,0.97 3.01,0.44 -0.71,1.08 -10.92,1.61 -10.19,0.53 -26.86,0.95 -42.61,1.16 -15.75,0.2 -30.58,0.2 -45.04,-0.17 -14.46,-0.38 -28.55,-1.13 -25.31,-1.98l0 0z"/>
    <path class="fil25" d="M99.78 357.6c2.19,-0.84 16.09,-1.79 29.46,-2.06 13.38,-0.27 26.22,0.15 35.94,0.47 9.72,0.32 16.3,0.55 18.34,0.98 2.04,0.43 -0.49,1.08 -7.38,1.61 -6.89,0.52 -18.16,0.94 -28.81,1.15 -10.64,0.21 -20.67,0.21 -30.44,-0.17 -9.77,-0.37 -19.3,-1.12 -17.11,-1.98l0 0z"/>
    <path class="fil26" d="M237.54 317.55c2.73,-0.85 20.12,-1.8 36.84,-2.06 16.73,-0.27 32.79,0.15 44.94,0.47 12.15,0.32 20.4,0.54 22.94,0.98 2.54,0.43 -0.61,1.07 -9.23,1.61 -8.62,0.53 -22.71,0.94 -36.02,1.15 -13.32,0.21 -25.85,0.21 -38.08,-0.17 -12.21,-0.38 -24.12,-1.13 -21.39,-1.98l0 0z"/>
    <path class="fil27" d="M88 319.73c2.19,-0.85 16.09,-1.8 29.46,-2.06 13.38,-0.27 26.22,0.15 35.94,0.47 9.72,0.32 16.3,0.54 18.34,0.98 2.04,0.43 -0.48,1.07 -7.38,1.61 -6.89,0.52 -18.15,0.94 -28.8,1.15 -10.65,0.2 -20.67,0.2 -30.44,-0.18 -9.77,-0.37 -19.3,-1.12 -17.12,-1.97l0 0z"/>
   </g>
   <g>
    <rect class="fil28" x="218.41" y="218.85" width="48.59" height="5.27"/>
    <g>
     <rect class="fil29" x="210.45" y="218.85" width="3.38" height="5.27"/>
     <rect class="fil30" x="271.57" y="218.85" width="3.38" height="5.27"/>
    </g>
   </g>
   <path class="fil31" d="M90.1 211.09l-20.42 13.02 73.83 0 -2.35 -12.94 -51.06 -0.08z"/>
   <g>
    <path class="fil32" d="M81.99 216.27l60.1 0 -0.41 -2.23 -56.2 0 -3.49 2.23z"/>
    <path class="fil33" d="M74.3 221.17l68.67 0 -0.4 -2.23 -64.78 0 -3.49 2.23z"/>
   </g>
  </g>
 </g>
</svg>
