<?xml version="1.0" encoding="UTF-8" standalone="no"?>
<!-- Creator: CorelDRAW -->

<svg
        xml:space="preserve"
        width="40"
        height="40"
        version="1.1"
        style="clip-rule:evenodd;fill-rule:evenodd;image-rendering:optimizeQuality;shape-rendering:geometricPrecision;text-rendering:geometricPrecision"
        viewBox="0 0 16.3708 16.3712"
        id="svg66"
        xmlns:xlink="http://www.w3.org/1999/xlink"
        xmlns="http://www.w3.org/2000/svg"
        xmlns:svg="http://www.w3.org/2000/svg">
 <defs
         id="defs32">
  <style
          type="text/css"
          id="style1">
   <![CDATA[
    .fil2 {fill:none;fill-rule:nonzero}
    .fil14 {fill:#1E6B87}
    .fil10 {fill:#2A7D9B}
    .fil5 {fill:#333333;fill-opacity:0.701961}
    .fil3 {fill:url(#id0)}
    .fil31 {fill:url(#id1)}
    .fil12 {fill:url(#id2)}
    .fil16 {fill:url(#id3)}
    .fil28 {fill:url(#id4)}
    .fil15 {fill:url(#id5)}
    .fil13 {fill:url(#id6)}
    .fil8 {fill:url(#id7)}
    .fil4 {fill:url(#id8)}
    .fil30 {fill:url(#id9)}
    .fil7 {fill:url(#id10)}
    .fil17 {fill:url(#id11)}
    .fil29 {fill:url(#id12)}
    .fil9 {fill:url(#id13)}
    .fil6 {fill:url(#id14)}
    .fil11 {fill:url(#id15)}
    .fil1 {fill:url(#id16)}
    .fil18 {fill:url(#id17);fill-rule:nonzero}
    .fil0 {fill:url(#id18);fill-rule:nonzero}
    .fil33 {fill:url(#id19);fill-opacity:0.301961}
    .fil32 {fill:url(#id20);fill-opacity:0.301961}
    .fil20 {fill:url(#id21);fill-opacity:0.600000}
    .fil19 {fill:url(#id22);fill-opacity:0.600000}
    .fil21 {fill:url(#id23);fill-opacity:0.600000}
    .fil25 {fill:url(#id24);fill-rule:nonzero;fill-opacity:0.600000}
    .fil24 {fill:url(#id25);fill-rule:nonzero;fill-opacity:0.600000}
    .fil27 {fill:url(#id26);fill-rule:nonzero;fill-opacity:0.600000}
    .fil22 {fill:url(#id27);fill-rule:nonzero;fill-opacity:0.600000}
    .fil26 {fill:url(#id28);fill-rule:nonzero;fill-opacity:0.600000}
    .fil23 {fill:url(#id29);fill-rule:nonzero;fill-opacity:0.600000}
   ]]>
  </style>
     <linearGradient
             id="id0"
             gradientUnits="userSpaceOnUse"
             x1="200.75999"
             y1="235.12"
             x2="200.75999"
             y2="202.78999">
   <stop
           offset="0"
           style="stop-opacity:1; stop-color:#E8B69D"
           id="stop1"/>
         <stop
                 offset="1"
                 style="stop-opacity:1; stop-color:#C99071"
                 id="stop2"/>
  </linearGradient>
     <linearGradient
             id="id1"
             gradientUnits="userSpaceOnUse"
             x1="106.59"
             y1="224.11"
             x2="106.59"
             y2="206.59">
   <stop
           offset="0"
           style="stop-opacity:1; stop-color:#E8B69D"
           id="stop3"/>
         <stop
                 offset="1"
                 style="stop-opacity:1; stop-color:#D69978"
                 id="stop4"/>
  </linearGradient>
     <linearGradient
             id="id2"
             gradientUnits="userSpaceOnUse"
             x1="303.29999"
             y1="212.11"
             x2="268"
             y2="183.59">
   <stop
           offset="0"
           style="stop-opacity:1; stop-color:#F8F1EF"
           id="stop5"/>
         <stop
                 offset="1"
                 style="stop-opacity:1; stop-color:white"
                 id="stop6"/>
  </linearGradient>
     <linearGradient
             id="id3"
             gradientUnits="userSpaceOnUse"
             xlink:href="#id2"
             x1="201.97"
             y1="203.03999"
             x2="105.3"
             y2="141.03">
  </linearGradient>
     <linearGradient
             id="id4"
             gradientUnits="userSpaceOnUse"
             x1="244.64999"
             y1="229.21001"
             x2="242.31"
             y2="216.13">
   <stop
           offset="0"
           style="stop-opacity:1; stop-color:#061C24"
           id="stop7"/>
         <stop
                 offset="1"
                 style="stop-opacity:1; stop-color:#1D5A70"
                 id="stop8"/>
  </linearGradient>
     <linearGradient
             id="id5"
             gradientUnits="userSpaceOnUse"
             xlink:href="#id2"
             x1="303.35001"
             y1="212.06"
             x2="268.07001"
             y2="183.64">
  </linearGradient>
     <linearGradient
             id="id6"
             gradientUnits="userSpaceOnUse"
             xlink:href="#id2"
             x1="158.28999"
             y1="216.47"
             x2="72.199997"
             y2="141.87">
  </linearGradient>
     <linearGradient
             id="id7"
             gradientUnits="userSpaceOnUse"
             x1="192.31"
             y1="196.67999"
             x2="102.56"
             y2="147.39">
   <stop
           offset="0"
           style="stop-opacity:1; stop-color:#F2E7E4"
           id="stop9"/>
         <stop
                 offset="1"
                 style="stop-opacity:1; stop-color:#F8F1EF"
                 id="stop10"/>
  </linearGradient>
     <linearGradient
             id="id8"
             gradientUnits="userSpaceOnUse"
             x1="201.96001"
             y1="409.26001"
             x2="204.64"
             y2="204.64">
   <stop
           offset="0"
           style="stop-opacity:1; stop-color:#1A92BC"
           id="stop11"/>
         <stop
                 offset="0.501961"
                 style="stop-opacity:1; stop-color:#229FCC"
                 id="stop12"/>
         <stop
                 offset="1"
                 style="stop-opacity:1; stop-color:#78D3D6"
                 id="stop13"/>
  </linearGradient>
     <linearGradient
             id="id9"
             gradientUnits="userSpaceOnUse"
             xlink:href="#id4"
             x1="243.48"
             y1="229.42"
             x2="243.47"
             y2="215.92">
  </linearGradient>
     <linearGradient
             id="id10"
             gradientUnits="userSpaceOnUse"
             x1="230.87"
             y1="181.91"
             x2="130.28"
             y2="138.57001">
   <stop
           offset="0"
           style="stop-opacity:1; stop-color:#F2E2D7"
           id="stop14"/>
         <stop
                 offset="1"
                 style="stop-opacity:1; stop-color:#F2E7E4"
                 id="stop15"/>
  </linearGradient>
     <linearGradient
             id="id11"
             gradientUnits="userSpaceOnUse"
             xlink:href="#id2"
             x1="230.87"
             y1="181.91"
             x2="130.28"
             y2="138.57001">
  </linearGradient>
     <linearGradient
             id="id12"
             gradientUnits="userSpaceOnUse"
             xlink:href="#id4"
             x1="243.48"
             y1="229.42"
             x2="243.47"
             y2="215.92">
  </linearGradient>
     <linearGradient
             id="id13"
             gradientUnits="userSpaceOnUse"
             xlink:href="#id2"
             x1="140.34"
             y1="203.10001"
             x2="62.650002"
             y2="155.24001">
  </linearGradient>
     <linearGradient
             id="id14"
             gradientUnits="userSpaceOnUse"
             x1="220.05"
             y1="195.57001"
             x2="262.60001"
             y2="168.35001">
   <stop
           offset="0"
           style="stop-opacity:1; stop-color:#F2E7E4"
           id="stop16"/>
         <stop
                 offset="1"
                 style="stop-opacity:1; stop-color:white"
                 id="stop17"/>
  </linearGradient>
     <linearGradient
             id="id15"
             gradientUnits="userSpaceOnUse"
             xlink:href="#id7"
             x1="306.07999"
             y1="209.34"
             x2="336.45999"
             y2="189.42">
  </linearGradient>
     <radialGradient
             id="id16"
             gradientUnits="userSpaceOnUse"
             gradientTransform="matrix(1.23744,0,0,1.23168,-45,-53)"
             cx="188.27"
             cy="229.19"
             r="204.64"
             fx="188.27"
             fy="229.19">
   <stop
           offset="0"
           style="stop-opacity:1; stop-color:#FFC95C"
           id="stop18"/>
         <stop
                 offset="0.309804"
                 style="stop-opacity:0.698039; stop-color:#FFDA96"
                 id="stop19"/>
         <stop
                 offset="0.94902"
                 style="stop-opacity:0; stop-color:#FAF9ED"
                 id="stop20"/>
         <stop
                 offset="1"
                 style="stop-opacity:0; stop-color:#FFFBF2"
                 id="stop21"/>
  </radialGradient>
     <linearGradient
             id="id17"
             gradientUnits="userSpaceOnUse"
             x1="385.44"
             y1="229.21001"
             x2="378.87"
             y2="199.11">
   <stop
           offset="0"
           style="stop-opacity:1; stop-color:#2C8777"
           id="stop22"/>
         <stop
                 offset="1"
                 style="stop-opacity:1; stop-color:#A8D354"
                 id="stop23"/>
  </linearGradient>
     <linearGradient
             id="id18"
             gradientUnits="userSpaceOnUse"
             x1="204.14"
             y1="211.17"
             x2="204.64"
             y2="0">
   <stop
           offset="0"
           style="stop-opacity:1; stop-color:#FFF3D4"
           id="stop24"/>
         <stop
                 offset="0.631373"
                 style="stop-opacity:1; stop-color:#98D2EE"
                 id="stop25"/>
         <stop
                 offset="1"
                 style="stop-opacity:1; stop-color:#52B2E8"
                 id="stop26"/>
  </linearGradient>
     <linearGradient
             id="id19"
             gradientUnits="userSpaceOnUse"
             x1="108.27"
             y1="224.11"
             x2="108.27"
             y2="206.60001">
   <stop
           offset="0"
           style="stop-opacity:1; stop-color:#BD8B71"
           id="stop27"/>
         <stop
                 offset="1"
                 style="stop-opacity:1; stop-color:#8C573B"
                 id="stop28"/>
  </linearGradient>
     <linearGradient
             id="id20"
             gradientUnits="userSpaceOnUse"
             xlink:href="#id19"
             x1="108.27"
             y1="224.11"
             x2="108.27"
             y2="206.60001">
  </linearGradient>
     <linearGradient
             id="id21"
             gradientUnits="userSpaceOnUse"
             x1="204.98"
             y1="411.01999"
             x2="204.98"
             y2="167.74001">
   <stop
           offset="0"
           style="stop-opacity:1; stop-color:#67C5EC"
           id="stop29"/>
         <stop
                 offset="1"
                 style="stop-opacity:1; stop-color:#FCE6BB"
                 id="stop30"/>
  </linearGradient>
     <linearGradient
             id="id22"
             gradientUnits="userSpaceOnUse"
             xlink:href="#id21"
             x1="200.86"
             y1="441.29001"
             x2="200.86"
             y2="198.00999">
  </linearGradient>
     <linearGradient
             id="id23"
             gradientUnits="userSpaceOnUse"
             xlink:href="#id21"
             x1="201.88"
             y1="454.07001"
             x2="201.88"
             y2="210.78">
  </linearGradient>
     <linearGradient
             id="id24"
             gradientUnits="userSpaceOnUse"
             x1="222.00999"
             y1="451.95001"
             x2="222.00999"
             y2="208.67">
   <stop
           offset="0"
           style="stop-opacity:1; stop-color:#35BEED"
           id="stop31"/>
         <stop
                 offset="1"
                 style="stop-opacity:1; stop-color:#FCE6BB"
                 id="stop32"/>
  </linearGradient>
     <linearGradient
             id="id25"
             gradientUnits="userSpaceOnUse"
             xlink:href="#id24"
             x1="215.03999"
             y1="452.45001"
             x2="215.03999"
             y2="209.17">
  </linearGradient>
     <linearGradient
             id="id26"
             gradientUnits="userSpaceOnUse"
             xlink:href="#id24"
             x1="210.23"
             y1="414.07999"
             x2="210.23"
             y2="170.8">
  </linearGradient>
     <linearGradient
             id="id27"
             gradientUnits="userSpaceOnUse"
             xlink:href="#id24"
             x1="210.55"
             y1="443.03"
             x2="210.55"
             y2="199.74001">
  </linearGradient>
     <linearGradient
             id="id28"
             gradientUnits="userSpaceOnUse"
             xlink:href="#id24"
             x1="199.09"
             y1="447.31"
             x2="199.09"
             y2="204.03">
  </linearGradient>
     <linearGradient
             id="id29"
             gradientUnits="userSpaceOnUse"
             xlink:href="#id24"
             x1="186.17999"
             y1="450.54001"
             x2="186.17999"
             y2="207.25">
  </linearGradient>
     <linearGradient
             xlink:href="#id7"
             id="linearGradient67"
             gradientUnits="userSpaceOnUse"
             x1="192.31"
             y1="196.67999"
             x2="102.56"
             y2="147.39"/>
     <linearGradient
             xlink:href="#id2"
             id="linearGradient68"
             gradientUnits="userSpaceOnUse"
             x1="303.29999"
             y1="212.11"
             x2="268"
             y2="183.59"/>
     <linearGradient
             xlink:href="#id21"
             id="linearGradient69"
             gradientUnits="userSpaceOnUse"
             x1="204.98"
             y1="411.01999"
             x2="204.98"
             y2="167.74001"/>
     <linearGradient
             xlink:href="#id24"
             id="linearGradient70"
             gradientUnits="userSpaceOnUse"
             x1="222.00999"
             y1="451.95001"
             x2="222.00999"
             y2="208.67"/>
     <linearGradient
             xlink:href="#id4"
             id="linearGradient71"
             gradientUnits="userSpaceOnUse"
             x1="244.64999"
             y1="229.21001"
             x2="242.31"
             y2="216.13"/>
     <linearGradient
             xlink:href="#id19"
             id="linearGradient72"
             gradientUnits="userSpaceOnUse"
             x1="108.27"
             y1="224.11"
             x2="108.27"
             y2="206.60001"/></defs>
    <g
            id="Layer_x0020_1">
  <metadata
          id="CorelCorpID_0Corel-Layer"/>
        <g
                id="g67"
                transform="matrix(0.04,0,0,0.04,-1.9997559e-4,0)"><g
     id="_51579359456">
   <circle
           class="fil0"
           cx="204.64"
           cy="204.64"
           r="204.64"
           id="circle32"
           style="fill:url(#id18)"/>
   <path
           class="fil1"
           d="M 409.27,204.64 C 409.27,91.62 317.65,0 204.64,0 91.62,0 0,91.62 0,204.64 c 0,113.01 91.62,204.63 204.64,204.63 113.01,0 204.63,-91.62 204.63,-204.63 z"
           id="path32"
           style="fill:url(#id16)"/>
   <path
           class="fil2"
           d="m 401.77,259.69 c 0.27,-0.97 0.54,-1.96 0.8,-2.94 l 0.01,-0.04 c 0.15,-0.6 0.31,-1.2 0.46,-1.8 l 0.01,-0.03 c 0.27,-1.05 0.52,-2.1 0.77,-3.15 l 0.01,-0.03 c 0.13,-0.54 0.25,-1.09 0.37,-1.63 l 0.01,-0.03 c 0.26,-1.13 0.5,-2.27 0.74,-3.42 v 0 c 0.1,-0.47 0.2,-0.95 0.3,-1.41 v -0.02 c 0.24,-1.24 0.48,-2.48 0.71,-3.72 l 0.01,-0.02 c 0.06,-0.37 0.13,-0.75 0.2,-1.13 v -0.02 c 0.23,-1.33 0.46,-2.67 0.67,-4.01 v 0 -0.02 c 0.05,-0.31 0.09,-0.61 0.14,-0.92 v -0.02 0 c 0.22,-1.42 0.42,-2.85 0.6,-4.28 v 0 c -0.18,1.43 -0.38,2.86 -0.6,4.28 m -5.75,26.27 c -8.48,-0.02 -17.56,0.05 -28.21,0.09 -12.73,-1 -70.8,1.59 -68.51,-2.07 2.25,-2.11 6.42,-8.22 16.32,-10.14 14.2,-2.75 35.46,-6.08 48.14,-8.82 8.89,-1.93 22.7,-6.06 38.7,-10.28 l -0.09,0.67 m -5.81,28.64 c -0.18,0.64 -0.36,1.28 -0.54,1.91"
           id="path33"/>
   <path
           class="fil3"
           d="m 325.05,211.09 v 2.86 h 4.12 v 2.66 h 2.68 v 18.51 H 69.68 V 224.11 L 90.1,211.09 Z"
           id="path34"
           style="fill:url(#id0)"/>
   <path
           class="fil4"
           d="M 1.48,229.21 H 407.8 c -0.18,1.53 -0.39,3.05 -0.6,4.56 l -0.04,0.28 c -0.21,1.46 -0.44,2.92 -0.68,4.36 l -0.07,0.43 c -0.24,1.43 -0.49,2.84 -0.76,4.26 l -0.09,0.45 c -0.27,1.43 -0.56,2.84 -0.86,4.25 l -0.08,0.37 c -0.32,1.45 -0.64,2.89 -0.99,4.32 l -0.03,0.16 c -3.28,13.62 -7.91,26.7 -13.76,39.11 l -0.11,0.23 c -0.59,1.27 -1.21,2.51 -1.83,3.77 l -0.24,0.48 c -0.61,1.21 -1.22,2.4 -1.84,3.59 l -0.31,0.58 c -0.62,1.17 -1.25,2.33 -1.89,3.48 l -0.34,0.61 c -0.64,1.15 -1.3,2.3 -1.97,3.44 -0.11,0.18 -0.21,0.36 -0.32,0.54 -0.69,1.16 -1.38,2.31 -2.08,3.45 -0.09,0.14 -0.18,0.29 -0.27,0.44 -0.74,1.18 -1.48,2.35 -2.24,3.52 l -0.09,0.14 c -4.88,7.51 -10.24,14.68 -16.04,21.47 -0.1,0.12 -0.21,0.25 -0.31,0.37 -0.82,0.95 -1.65,1.89 -2.49,2.83 -0.21,0.23 -0.42,0.46 -0.62,0.7 -0.79,0.87 -1.58,1.74 -2.38,2.59 -0.27,0.29 -0.54,0.59 -0.81,0.88 -0.77,0.81 -1.55,1.62 -2.33,2.42 -0.31,0.32 -0.63,0.65 -0.94,0.97 -0.76,0.77 -1.52,1.54 -2.3,2.29 -0.35,0.35 -0.69,0.69 -1.05,1.02 -0.75,0.75 -1.52,1.47 -2.3,2.2 -0.36,0.35 -0.73,0.69 -1.1,1.03 -0.77,0.72 -1.55,1.42 -2.33,2.13 -0.38,0.34 -0.76,0.67 -1.14,1.02 -0.79,0.69 -1.58,1.38 -2.37,2.06 -0.39,0.33 -0.78,0.66 -1.17,0.98 -0.8,0.69 -1.61,1.37 -2.43,2.04 -0.36,0.3 -0.73,0.59 -1.1,0.89 -0.85,0.69 -1.7,1.37 -2.57,2.05 -0.27,0.21 -0.55,0.42 -0.82,0.63 -3.22,2.49 -6.5,4.88 -9.87,7.18 -0.16,0.1 -0.31,0.22 -0.47,0.32 -0.85,0.58 -1.7,1.14 -2.56,1.7 -0.47,0.31 -0.94,0.63 -1.41,0.94 -0.78,0.5 -1.58,0.99 -2.37,1.48 -0.55,0.35 -1.11,0.7 -1.66,1.04 -0.77,0.47 -1.53,0.92 -2.3,1.38 -0.6,0.35 -1.2,0.71 -1.8,1.07 -0.75,0.43 -1.51,0.86 -2.27,1.29 -0.63,0.35 -1.25,0.7 -1.88,1.05 -0.74,0.41 -1.49,0.81 -2.24,1.21 -0.66,0.35 -1.33,0.71 -2,1.05 -0.73,0.39 -1.48,0.77 -2.22,1.14 -0.68,0.35 -1.37,0.68 -2.05,1.02 -0.75,0.37 -1.48,0.72 -2.22,1.07 -0.71,0.34 -1.41,0.67 -2.12,0.99 -0.74,0.35 -1.48,0.69 -2.22,1.02 -0.73,0.33 -1.47,0.64 -2.2,0.96 -0.73,0.32 -1.46,0.63 -2.19,0.94 -0.76,0.32 -1.53,0.63 -2.3,0.94 -0.72,0.29 -1.43,0.58 -2.15,0.87 -0.81,0.31 -1.63,0.62 -2.44,0.93 -0.69,0.25 -1.37,0.52 -2.06,0.77 -0.97,0.35 -1.94,0.69 -2.92,1.03 -0.54,0.19 -1.08,0.38 -1.62,0.57 -1.51,0.51 -3.03,1 -4.56,1.48 -0.52,0.16 -1.06,0.31 -1.59,0.48 -1.02,0.3 -2.03,0.61 -3.06,0.9 -0.65,0.19 -1.3,0.36 -1.94,0.54 -0.93,0.25 -1.85,0.51 -2.77,0.75 -0.69,0.18 -1.38,0.34 -2.07,0.51 -0.89,0.23 -1.79,0.45 -2.69,0.66 -0.71,0.17 -1.42,0.33 -2.14,0.48 -0.89,0.2 -1.77,0.39 -2.66,0.58 -0.72,0.15 -1.44,0.29 -2.16,0.44 -0.9,0.18 -1.8,0.35 -2.7,0.51 -0.72,0.14 -1.45,0.27 -2.18,0.39 -0.9,0.15 -1.8,0.3 -2.7,0.45 -0.73,0.12 -1.47,0.23 -2.2,0.33 -0.91,0.14 -1.83,0.27 -2.74,0.39 -0.74,0.09 -1.47,0.19 -2.21,0.28 -0.92,0.12 -1.85,0.22 -2.77,0.32 -0.73,0.08 -1.46,0.16 -2.2,0.24 -0.95,0.09 -1.91,0.17 -2.87,0.25 -0.71,0.06 -1.42,0.12 -2.12,0.17 -1.01,0.08 -2.03,0.14 -3.05,0.2 -0.66,0.04 -1.32,0.08 -1.98,0.11 -1.15,0.06 -2.31,0.1 -3.45,0.13 -0.54,0.02 -1.08,0.05 -1.62,0.06 -1.7,0.04 -3.39,0.07 -5.1,0.07 -1.71,0 -3.42,-0.03 -5.11,-0.07 -0.54,-0.02 -1.07,-0.04 -1.61,-0.06 -1.15,-0.03 -2.31,-0.07 -3.45,-0.13 -0.66,-0.03 -1.33,-0.07 -1.99,-0.11 -1.01,-0.06 -2.03,-0.12 -3.04,-0.2 -0.71,-0.05 -1.42,-0.11 -2.13,-0.17 -0.96,-0.08 -1.92,-0.16 -2.87,-0.25 -0.73,-0.08 -1.46,-0.16 -2.2,-0.24 -0.92,-0.1 -1.85,-0.21 -2.77,-0.32 -0.74,-0.09 -1.47,-0.19 -2.21,-0.28 -0.91,-0.12 -1.83,-0.25 -2.73,-0.39 -0.74,-0.1 -1.47,-0.21 -2.21,-0.33 -0.9,-0.15 -1.8,-0.3 -2.7,-0.45 -0.73,-0.12 -1.46,-0.25 -2.18,-0.39 -0.9,-0.16 -1.79,-0.33 -2.69,-0.51 -0.72,-0.15 -1.45,-0.29 -2.17,-0.44 -0.89,-0.19 -1.77,-0.38 -2.66,-0.58 -0.71,-0.15 -1.43,-0.31 -2.14,-0.48 -0.9,-0.21 -1.79,-0.43 -2.69,-0.66 -0.68,-0.17 -1.37,-0.33 -2.06,-0.51 -0.93,-0.24 -1.85,-0.5 -2.77,-0.75 -0.65,-0.18 -1.3,-0.35 -1.94,-0.54 -1.02,-0.29 -2.03,-0.6 -3.04,-0.9 -0.55,-0.16 -1.09,-0.32 -1.63,-0.48 -1.52,-0.48 -3.04,-0.97 -4.54,-1.48 -0.54,-0.19 -1.08,-0.38 -1.62,-0.56 -0.97,-0.35 -1.95,-0.69 -2.92,-1.04 -0.69,-0.25 -1.38,-0.52 -2.06,-0.78 -0.82,-0.3 -1.64,-0.61 -2.45,-0.92 -0.72,-0.29 -1.43,-0.58 -2.14,-0.86 -0.77,-0.32 -1.54,-0.63 -2.31,-0.95 -0.73,-0.31 -1.46,-0.62 -2.18,-0.94 -0.74,-0.32 -1.47,-0.63 -2.2,-0.96 -0.74,-0.33 -1.49,-0.67 -2.22,-1.02 -0.71,-0.32 -1.42,-0.65 -2.12,-0.99 -0.75,-0.34 -1.48,-0.7 -2.22,-1.07 -0.69,-0.34 -1.38,-0.67 -2.06,-1.02 -0.74,-0.37 -1.48,-0.76 -2.23,-1.14 -0.66,-0.34 -1.32,-0.69 -1.98,-1.04 -0.75,-0.41 -1.5,-0.81 -2.25,-1.22 -0.63,-0.35 -1.25,-0.7 -1.88,-1.05 -0.76,-0.43 -1.51,-0.86 -2.27,-1.29 -0.6,-0.36 -1.19,-0.71 -1.79,-1.07 -0.78,-0.46 -1.55,-0.91 -2.31,-1.38 -0.55,-0.33 -1.1,-0.69 -1.65,-1.02 -0.79,-0.51 -1.59,-1 -2.37,-1.5 -0.48,-0.31 -0.95,-0.63 -1.41,-0.93 -0.87,-0.57 -1.72,-1.13 -2.57,-1.71 -0.15,-0.1 -0.31,-0.21 -0.47,-0.32 -3.37,-2.3 -6.65,-4.69 -9.87,-7.18 -0.27,-0.21 -0.55,-0.42 -0.82,-0.63 -0.87,-0.68 -1.71,-1.36 -2.57,-2.05 -0.37,-0.3 -0.74,-0.59 -1.1,-0.89 -0.82,-0.67 -1.62,-1.35 -2.42,-2.02 -0.39,-0.34 -0.79,-0.67 -1.18,-1 -0.79,-0.68 -1.57,-1.36 -2.35,-2.05 -0.39,-0.35 -0.78,-0.69 -1.17,-1.04 -0.77,-0.7 -1.54,-1.4 -2.31,-2.11 -0.37,-0.35 -0.74,-0.69 -1.12,-1.04 -0.77,-0.73 -1.53,-1.46 -2.29,-2.2 -0.35,-0.33 -0.7,-0.67 -1.05,-1.02 -0.77,-0.75 -1.54,-1.52 -2.3,-2.28 -0.31,-0.33 -0.63,-0.66 -0.95,-0.99 -0.78,-0.79 -1.55,-1.59 -2.31,-2.4 -0.28,-0.3 -0.55,-0.6 -0.82,-0.9 -0.8,-0.85 -1.59,-1.71 -2.38,-2.58 -0.2,-0.23 -0.41,-0.47 -0.61,-0.7 -0.84,-0.94 -1.68,-1.88 -2.49,-2.83 -0.11,-0.12 -0.21,-0.25 -0.32,-0.37 -5.8,-6.79 -11.16,-13.96 -16.04,-21.47 l -0.09,-0.14 c -0.76,-1.17 -1.5,-2.34 -2.24,-3.52 -0.09,-0.15 -0.18,-0.3 -0.27,-0.44 -0.7,-1.14 -1.39,-2.29 -2.07,-3.45 l -0.33,-0.54 c -0.66,-1.14 -1.32,-2.28 -1.97,-3.44 l -0.34,-0.61 c -0.64,-1.15 -1.27,-2.31 -1.89,-3.48 l -0.3,-0.58 c -0.63,-1.19 -1.24,-2.38 -1.85,-3.59 -0.08,-0.15 -0.15,-0.32 -0.24,-0.48 -0.62,-1.25 -1.24,-2.5 -1.83,-3.77 l -0.11,-0.23 C 13.59,279.35 8.95,266.27 5.68,252.65 L 5.64,252.49 C 5.29,251.06 4.97,249.61 4.66,248.17 L 4.57,247.8 c -0.3,-1.41 -0.59,-2.82 -0.86,-4.25 L 3.62,243.1 C 3.35,241.68 3.1,240.27 2.86,238.84 l -0.07,-0.43 c -0.24,-1.44 -0.47,-2.9 -0.68,-4.36 l -0.03,-0.28 c -0.22,-1.51 -0.42,-3.03 -0.6,-4.56 z"
           id="path35"
           style="fill:url(#id8)"/>
   <path
           class="fil5"
           d="m 331.85,224.11 v 5.1 H 69.68 v -5.1 z"
           id="path36"/>
   <path
           class="fil6"
           d="m 195.7,211.13 c 5.09,-12.03 10.18,-26.04 15.27,-38.07 13.91,-8.7 30.65,-13.92 51.74,-4.54 0.82,19.68 -1.67,36.06 -5.45,42.61 z"
           id="path37"
           style="fill:url(#id14)"/>
   <path
           class="fil7"
           d="m 142.94,109.19 c 0.92,56.32 5.69,67.97 8.56,101.98 0,0 73.22,0 73.22,0 -15.09,-53.74 -35.04,-87.72 -81.45,-101.9 -0.11,-0.03 -0.22,-0.05 -0.33,-0.08 z"
           id="path38"
           style="fill:url(#id10)"/>
   <path
           class="fil8"
           d="m 110.57,132.8 c 0.29,31.58 1.36,51.5 5.86,78.37 0,0 74.24,0 74.24,0 -18.27,-49.75 -38.86,-71.19 -80.1,-78.37 z"
           id="path39"
           style="fill:url(#linearGradient67)"/>
   <path
           class="fil9"
           d="m 90.1,211.09 c -7.48,-17.17 -15.98,-40.48 -22.43,-64 40.68,2.05 43.35,6.33 73.49,64.08 0,0 -51.06,-0.08 -51.06,-0.08 z"
           id="path40"
           style="fill:url(#id13)"/>
   <path
           class="fil10"
           d="m 149.7,122.66 c 0.8,48.88 4.93,58.99 7.43,88.51 0,0 63.54,0 63.54,0 -13.09,-46.64 -30.41,-76.14 -70.68,-88.44 -0.1,-0.03 -0.2,-0.05 -0.29,-0.07 z"
           id="path41"/>
   <path
           class="fil11"
           d="m 335.28,187.63 c -16.97,-2.93 -30.48,-0.61 -39.75,5.45 0,6 0,12 0,18.01 0,0 29.52,0 29.52,0 3.41,-7.82 6.82,-15.64 10.23,-23.46 z"
           id="path42"
           style="fill:url(#id15)"/>
   <path
           class="fil10"
           d="m 116.9,142.85 c 0.25,27.53 1.19,44.89 5.11,68.32 0,0 64.73,0 64.73,0 -15.93,-43.38 -33.89,-62.07 -69.84,-68.32 z"
           id="path43"/>
   <path
           class="fil12"
           d="m 271.7,211.13 c -2.52,-8.53 -5.02,-18.57 -4.35,-26.17 21.75,-2.29 34.95,4.42 39.9,26.17 0,0 -35.55,0 -35.55,0 z"
           id="path44"
           style="fill:url(#linearGradient68)"/>
   <path
           class="fil10"
           d="m 275.53,211.13 c -1.91,-6.03 -3.82,-14.42 -4.21,-22.46 16.42,2.61 23.67,13.24 27.86,22.46 0,0 -23.65,0 -23.65,0 z"
           id="path45"/>
   <path
           class="fil10"
           d="m 101.48,211.09 c -6.53,-14.99 -13.95,-35.36 -19.59,-55.9 35.53,1.79 54,5.54 80.33,55.98 0,0 -60.74,-0.08 -60.74,-0.08 z"
           id="path46"/>
   <path
           class="fil13"
           d="m 141.16,211.17 c -15.73,-23.6 -33.14,-37.89 -57.57,-44.11 -3.09,-0.78 -12.86,-19.05 -15.92,-19.97 40.68,2.05 66.9,7.31 103.37,64.08 0,0 -29.88,0 -29.88,0 z"
           id="path47"
           style="fill:url(#id6)"/>
   <path
           class="fil14"
           d="m 90.1,211.09 c 0.87,-4.54 3.13,-8.58 5.77,-13.67 15.51,-1.04 26.8,2.93 45.29,13.75 z"
           id="path48"/>
   <path
           class="fil14"
           d="m 270.37,211.13 c 0.47,-2.43 1.73,-4.71 3.14,-7.43 8.28,-0.56 15.79,1.65 25.67,7.43 z"
           id="path49"/>
   <path
           class="fil15"
           d="m 298.65,211.13 c -6.39,-12.78 -17.59,-20.28 -27.27,-21.41 -1.67,-0.2 -2.31,-4.33 -4.03,-4.76 21.75,-2.29 34.95,4.42 39.9,26.17 z"
           id="path50"
           style="fill:url(#id5)"/>
   <path
           class="fil16"
           d="m 110.57,132.8 c 3.05,2.34 2.72,8.29 6.1,9.77 24.78,10.84 37.58,32.09 49.62,68.6 0,0 37.85,0 37.85,0 -17.85,-44.18 -52.33,-71.19 -93.57,-78.37 z"
           id="path51"
           style="fill:url(#id3)"/>
   <path
           class="fil17"
           d="m 142.94,109.19 c 4.68,3.67 1.49,11.86 6.29,14.66 38.3,22.33 40.71,48.39 48.08,87.32 0,0 27.41,0 27.41,0 -15.09,-53.74 -35.04,-87.72 -81.45,-101.9 -0.11,-0.03 -0.22,-0.05 -0.33,-0.08 z"
           id="path52"
           style="fill:url(#id11)"/>
   <path
           id="path517_36726"
           class="fil18"
           d="m 407.56,231.21 c -4.76,-0.05 -9.52,-0.14 -14.19,-0.33 -24.8,-1.13 -58,0.14 -68.3,0.14 -30.14,0.38 -33.19,0.38 0.38,-17.4 9.16,-4.53 41.97,-10.35 53.42,-14.51 6.31,-2.3 17.26,-4.61 30.06,-6.16 0.22,3.87 0.34,7.76 0.34,11.69 0,9 -0.58,17.87 -1.71,26.57 z"
           style="fill:url(#id17)"/>
   <g
           id="g61">
    <path
            class="fil19"
            d="m 201.76,342.31 c 3.24,-0.85 23.8,-1.8 43.59,-2.07 19.78,-0.26 38.78,0.15 53.16,0.48 14.38,0.32 24.13,0.54 27.14,0.98 3.01,0.42 -0.71,1.07 -10.92,1.6 -10.2,0.53 -26.87,0.94 -42.61,1.15 -15.76,0.21 -30.59,0.21 -45.04,-0.16 -14.46,-0.38 -28.55,-1.13 -25.32,-1.98 z"
            id="path53"
            style="fill:url(#id22)"/>
       <path
               class="fil20"
               d="m 173.42,380.57 c 1.75,-0.84 12.88,-1.79 23.6,-2.06 10.71,-0.27 20.99,0.14 28.78,0.48 7.78,0.31 13.06,0.53 14.69,0.96 1.63,0.44 -0.39,1.08 -5.91,1.61 -5.52,0.53 -14.54,0.95 -23.07,1.16 -8.53,0.2 -16.56,0.2 -24.38,-0.17 -7.83,-0.38 -15.46,-1.13 -13.71,-1.98 z"
               id="path54"
               style="fill:url(#linearGradient69)"/>
       <path
               class="fil21"
               d="m 39.31,274.22 c 2.88,-0.85 21.18,-1.8 38.79,-2.06 17.6,-0.27 34.51,0.14 47.31,0.47 12.79,0.32 21.47,0.53 24.14,0.97 2.68,0.44 -0.63,1.08 -9.71,1.61 -9.07,0.53 -23.91,0.95 -37.92,1.16 -14.02,0.2 -27.21,0.2 -40.08,-0.17 -12.87,-0.38 -25.41,-1.14 -22.53,-1.98 z"
               id="path55"
               style="fill:url(#id23)"/>
       <path
               class="fil22"
               d="m 139.61,249.82 c 3.24,-0.86 23.8,-1.8 43.58,-2.08 19.79,-0.26 38.8,0.16 53.17,0.48 14.39,0.32 24.13,0.54 27.14,0.98 3.01,0.44 -0.72,1.07 -10.91,1.6 -10.21,0.54 -26.88,0.95 -42.62,1.16 -15.76,0.2 -30.58,0.2 -45.05,-0.17 -14.45,-0.38 -28.54,-1.13 -25.31,-1.97 z"
               id="path56"
               style="fill:url(#id27)"/>
       <path
               class="fil23"
               d="m 242.68,270.13 c 3.23,-0.85 23.8,-1.8 43.58,-2.06 19.79,-0.27 38.79,0.15 53.17,0.47 14.38,0.32 24.13,0.54 27.13,0.98 3.02,0.43 -0.71,1.07 -10.91,1.61 -10.19,0.52 -26.87,0.94 -42.62,1.15 -15.75,0.21 -30.57,0.21 -45.04,-0.17 -14.45,-0.38 -28.54,-1.13 -25.31,-1.98 z"
               id="path57"
               style="fill:url(#id29)"/>
       <path
               class="fil24"
               d="m 148.08,293.59 c 3.23,-0.84 23.79,-1.79 43.58,-2.06 19.78,-0.27 38.79,0.14 53.16,0.47 14.38,0.32 24.13,0.54 27.14,0.97 3.01,0.44 -0.71,1.08 -10.92,1.61 -10.19,0.53 -26.86,0.95 -42.61,1.16 -15.75,0.2 -30.58,0.2 -45.04,-0.17 -14.46,-0.38 -28.55,-1.13 -25.31,-1.98 z"
               id="path58"
               style="fill:url(#id25)"/>
       <path
               class="fil25"
               d="m 99.78,357.6 c 2.19,-0.84 16.09,-1.79 29.46,-2.06 13.38,-0.27 26.22,0.15 35.94,0.47 9.72,0.32 16.3,0.55 18.34,0.98 2.04,0.43 -0.49,1.08 -7.38,1.61 -6.89,0.52 -18.16,0.94 -28.81,1.15 -10.64,0.21 -20.67,0.21 -30.44,-0.17 -9.77,-0.37 -19.3,-1.12 -17.11,-1.98 z"
               id="path59"
               style="fill:url(#linearGradient70)"/>
       <path
               class="fil26"
               d="m 237.54,317.55 c 2.73,-0.85 20.12,-1.8 36.84,-2.06 16.73,-0.27 32.79,0.15 44.94,0.47 12.15,0.32 20.4,0.54 22.94,0.98 2.54,0.43 -0.61,1.07 -9.23,1.61 -8.62,0.53 -22.71,0.94 -36.02,1.15 -13.32,0.21 -25.85,0.21 -38.08,-0.17 -12.21,-0.38 -24.12,-1.13 -21.39,-1.98 z"
               id="path60"
               style="fill:url(#id28)"/>
       <path
               class="fil27"
               d="m 88,319.73 c 2.19,-0.85 16.09,-1.8 29.46,-2.06 13.38,-0.27 26.22,0.15 35.94,0.47 9.72,0.32 16.3,0.54 18.34,0.98 2.04,0.43 -0.48,1.07 -7.38,1.61 -6.89,0.52 -18.15,0.94 -28.8,1.15 -10.65,0.2 -20.67,0.2 -30.44,-0.18 -9.77,-0.37 -19.3,-1.12 -17.12,-1.97 z"
               id="path61"
               style="fill:url(#id26)"/>
   </g>
   <g
           id="g64">
    <rect
            class="fil28"
            x="218.41"
            y="218.85001"
            width="48.59"
            height="5.27"
            id="rect61"
            style="fill:url(#linearGradient71)"/>
       <g
               id="g63">
     <rect
             class="fil29"
             x="210.45"
             y="218.85001"
             width="3.3800001"
             height="5.27"
             id="rect62"
             style="fill:url(#id12)"/>
           <rect
                   class="fil30"
                   x="271.57001"
                   y="218.85001"
                   width="3.3800001"
                   height="5.27"
                   id="rect63"
                   style="fill:url(#id9)"/>
    </g>
   </g>
   <path
           class="fil31"
           d="m 90.1,211.09 -20.42,13.02 h 73.83 l -2.35,-12.94 z"
           id="path64"
           style="fill:url(#id1)"/>
   <g
           id="g66">
    <path
            class="fil32"
            d="m 81.99,216.27 h 60.1 l -0.41,-2.23 h -56.2 z"
            id="path65"
            style="fill:url(#id20)"/>
       <path
               class="fil33"
               d="m 74.3,221.17 h 68.67 l -0.4,-2.23 H 77.79 Z"
               id="path66"
               style="fill:url(#linearGradient72)"/>
   </g>
  </g></g>
 </g>
</svg>
