<?xml version="1.0" encoding="UTF-8"?>
<!DOCTYPE svg PUBLIC "-//W3C//DTD SVG 1.1//EN" "http://www.w3.org/Graphics/SVG/1.1/DTD/svg11.dtd">
<svg xmlns="http://www.w3.org/2000/svg" xml:space="preserve" width="40px" height="40px" version="1.1" style="shape-rendering:geometricPrecision; text-rendering:geometricPrecision; image-rendering:optimizeQuality; fill-rule:evenodd; clip-rule:evenodd"
viewBox="0 0 40 40"
 xmlns:xlink="http://www.w3.org/1999/xlink">
 <defs>
  <style type="text/css">
   <![CDATA[
    .fil16 {fill:#0E3442}
    .fil18 {fill:#1A1307}
    .fil11 {fill:#204E68}
    .fil36 {fill:#241906}
    .fil56 {fill:#333752}
    .fil57 {fill:#34426E}
    .fil32 {fill:#3B352C}
    .fil21 {fill:#47302E}
    .fil33 {fill:#474035}
    .fil58 {fill:#595915}
    .fil60 {fill:#64728F}
    .fil35 {fill:#756B5A}
    .fil34 {fill:#968973}
    .fil10 {fill:#EDF2F1}
    .fil30 {fill:white;fill-rule:nonzero}
    .fil2 {fill:#D2D1D2;fill-opacity:0.301961}
    .fil1 {fill:#F4F5F5;fill-opacity:0.301961}
    .fil22 {fill:black;fill-opacity:0.568627}
    .fil8 {fill:#0E3442;fill-opacity:0.701961}
    .fil59 {fill:#33446F;fill-opacity:0.701961}
    .fil61 {fill:url(#id0)}
    .fil45 {fill:url(#id1)}
    .fil7 {fill:url(#id2)}
    .fil24 {fill:url(#id3)}
    .fil48 {fill:url(#id4)}
    .fil15 {fill:url(#id5)}
    .fil50 {fill:url(#id6)}
    .fil20 {fill:url(#id7)}
    .fil17 {fill:url(#id8)}
    .fil14 {fill:url(#id9)}
    .fil13 {fill:url(#id10)}
    .fil43 {fill:url(#id11)}
    .fil49 {fill:url(#id12)}
    .fil25 {fill:url(#id13)}
    .fil37 {fill:url(#id14)}
    .fil4 {fill:url(#id15)}
    .fil12 {fill:url(#id16)}
    .fil41 {fill:url(#id17)}
    .fil27 {fill:url(#id18)}
    .fil51 {fill:url(#id19)}
    .fil3 {fill:url(#id20)}
    .fil52 {fill:url(#id21)}
    .fil46 {fill:url(#id22)}
    .fil38 {fill:url(#id23)}
    .fil19 {fill:url(#id24)}
    .fil9 {fill:url(#id25)}
    .fil31 {fill:url(#id26)}
    .fil23 {fill:url(#id27)}
    .fil55 {fill:url(#id28)}
    .fil65 {fill:url(#id29)}
    .fil5 {fill:url(#id30)}
    .fil6 {fill:url(#id31)}
    .fil26 {fill:url(#id32)}
    .fil66 {fill:url(#id33)}
    .fil42 {fill:url(#id34)}
    .fil0 {fill:url(#id35);fill-rule:nonzero}
    .fil64 {fill:url(#id36);fill-rule:nonzero}
    .fil39 {fill:url(#id37);fill-rule:nonzero}
    .fil29 {fill:url(#id38);fill-rule:nonzero}
    .fil54 {fill:url(#id39);fill-rule:nonzero}
    .fil44 {fill:url(#id40);fill-rule:nonzero}
    .fil53 {fill:url(#id41);fill-rule:nonzero}
    .fil28 {fill:url(#id42);fill-rule:nonzero}
    .fil62 {fill:url(#id43);fill-rule:nonzero}
    .fil47 {fill:url(#id44);fill-rule:nonzero}
    .fil40 {fill:url(#id45);fill-rule:nonzero}
    .fil63 {fill:url(#id46);fill-rule:nonzero}
   ]]>
  </style>
  <linearGradient id="id0" gradientUnits="userSpaceOnUse" x1="20.17" y1="40.74" x2="19.89" y2="32.15">
   <stop offset="0" style="stop-opacity:1; stop-color:#D0DCEF"/>
   <stop offset="1" style="stop-opacity:1; stop-color:#EDF2FA"/>
  </linearGradient>
  <linearGradient id="id1" gradientUnits="userSpaceOnUse" x1="37.15" y1="26" x2="32.99" y2="21.81">
   <stop offset="0" style="stop-opacity:1; stop-color:#823D36"/>
   <stop offset="1" style="stop-opacity:1; stop-color:#B6564B"/>
  </linearGradient>
  <linearGradient id="id2" gradientUnits="userSpaceOnUse" x1="20.37" y1="25.72" x2="23.17" y2="25.76">
   <stop offset="0" style="stop-opacity:0.0980392; stop-color:#333752"/>
   <stop offset="1" style="stop-opacity:0; stop-color:white"/>
  </linearGradient>
  <linearGradient id="id3" gradientUnits="userSpaceOnUse" xlink:href="#id1" x1="14.64" y1="17.94" x2="10.81" y2="16.04">
  </linearGradient>
  <linearGradient id="id4" gradientUnits="userSpaceOnUse" xlink:href="#id1" x1="29.3" y1="17.94" x2="25.46" y2="16.04">
  </linearGradient>
  <linearGradient id="id5" gradientUnits="objectBoundingBox" x1="58.2686%" y1="99.9985%" x2="57.1711%" y2="0.00150492%">
   <stop offset="0" style="stop-opacity:1; stop-color:#B6CCC6"/>
   <stop offset="0.45098" style="stop-opacity:1; stop-color:#7DAAAD"/>
   <stop offset="1" style="stop-opacity:1; stop-color:#577C85"/>
  </linearGradient>
  <linearGradient id="id6" gradientUnits="userSpaceOnUse" x1="23.22" y1="29.78" x2="29.88" y2="25.06">
   <stop offset="0" style="stop-opacity:1; stop-color:#C3A987"/>
   <stop offset="1" style="stop-opacity:1; stop-color:#DECFBA"/>
  </linearGradient>
  <linearGradient id="id7" gradientUnits="userSpaceOnUse" xlink:href="#id6" x1="30.24" y1="38.43" x2="9.23" y2="11.78">
  </linearGradient>
  <linearGradient id="id8" gradientUnits="userSpaceOnUse" x1="6.13" y1="32.31" x2="1.51" y2="15.38">
   <stop offset="0" style="stop-opacity:1; stop-color:#0D1707"/>
   <stop offset="1" style="stop-opacity:1; stop-color:#617048"/>
  </linearGradient>
  <linearGradient id="id9" gradientUnits="userSpaceOnUse" x1="9.75" y1="32.19" x2="9.71" y2="24.29">
   <stop offset="0" style="stop-opacity:1; stop-color:#8F8ABF"/>
   <stop offset="0.45098" style="stop-opacity:1; stop-color:#635178"/>
   <stop offset="1" style="stop-opacity:1; stop-color:#4A4252"/>
  </linearGradient>
  <linearGradient id="id10" gradientUnits="userSpaceOnUse" x1="5.03" y1="32.19" x2="5.07" y2="24.29">
   <stop offset="0" style="stop-opacity:1; stop-color:#8F9CC4"/>
   <stop offset="0.45098" style="stop-opacity:1; stop-color:#6673A1"/>
   <stop offset="1" style="stop-opacity:1; stop-color:#4F6480"/>
  </linearGradient>
  <linearGradient id="id11" gradientUnits="userSpaceOnUse" xlink:href="#id1" x1="36.95" y1="25.92" x2="32.79" y2="21.89">
  </linearGradient>
  <linearGradient id="id12" gradientUnits="userSpaceOnUse" x1="30.32" y1="19.25" x2="24.21" y2="19.25">
   <stop offset="0" style="stop-opacity:1; stop-color:#A6A692"/>
   <stop offset="0.631373" style="stop-opacity:1; stop-color:#EBEADF"/>
   <stop offset="0.741176" style="stop-opacity:1; stop-color:#EBEADF"/>
   <stop offset="1" style="stop-opacity:1; stop-color:#B3B39F"/>
  </linearGradient>
  <linearGradient id="id13" gradientUnits="userSpaceOnUse" xlink:href="#id12" x1="15.66" y1="19.25" x2="9.55" y2="19.25">
  </linearGradient>
  <linearGradient id="id14" gradientUnits="objectBoundingBox" xlink:href="#id1" x1="49.4187%" y1="105.59%" x2="47.4915%" y2="0%">
  </linearGradient>
  <linearGradient id="id15" gradientUnits="userSpaceOnUse" x1="34.31" y1="29.72" x2="34.31" y2="9.75">
   <stop offset="0" style="stop-opacity:1; stop-color:#CAD7EC"/>
   <stop offset="0.45098" style="stop-opacity:1; stop-color:#3170B7"/>
   <stop offset="1" style="stop-opacity:1; stop-color:#3A53AD"/>
  </linearGradient>
  <linearGradient id="id16" gradientUnits="userSpaceOnUse" xlink:href="#id10" x1="5.03" y1="32.19" x2="5.07" y2="24.29">
  </linearGradient>
  <linearGradient id="id17" gradientUnits="userSpaceOnUse" x1="38.42" y1="26.27" x2="40.67" y2="16.61">
   <stop offset="0" style="stop-opacity:1; stop-color:#16220E"/>
   <stop offset="1" style="stop-opacity:1; stop-color:#74835C"/>
  </linearGradient>
  <linearGradient id="id18" gradientUnits="userSpaceOnUse" x1="10.07" y1="26.76" x2="15.22" y2="26.76">
   <stop offset="0" style="stop-opacity:0.498039; stop-color:#241C12"/>
   <stop offset="0.211765" style="stop-opacity:0.25098; stop-color:#817566"/>
   <stop offset="1" style="stop-opacity:0; stop-color:#DECFBA"/>
  </linearGradient>
  <linearGradient id="id19" gradientUnits="userSpaceOnUse" x1="24.72" y1="26.76" x2="29.88" y2="26.76">
   <stop offset="0" style="stop-opacity:0; stop-color:#DECFBA"/>
   <stop offset="0.788235" style="stop-opacity:0.25098; stop-color:#817666"/>
   <stop offset="1" style="stop-opacity:0.498039; stop-color:#241C12"/>
  </linearGradient>
  <linearGradient id="id20" gradientUnits="userSpaceOnUse" xlink:href="#id15" x1="12.14" y1="33.03" x2="12.22" y2="12.58">
  </linearGradient>
  <linearGradient id="id21" gradientUnits="userSpaceOnUse" x1="28.32" y1="13.98" x2="26.08" y2="10.27">
   <stop offset="0" style="stop-opacity:1; stop-color:#3D5D74"/>
   <stop offset="1" style="stop-opacity:1; stop-color:#5B6C72"/>
  </linearGradient>
  <linearGradient id="id22" gradientUnits="userSpaceOnUse" x1="35.87" y1="25.8" x2="35.87" y2="24.8">
   <stop offset="0" style="stop-opacity:0; stop-color:black"/>
   <stop offset="1" style="stop-opacity:1; stop-color:#1F1B20"/>
  </linearGradient>
  <linearGradient id="id23" gradientUnits="userSpaceOnUse" xlink:href="#id22" x1="5.95" y1="25.8" x2="5.95" y2="24.8">
  </linearGradient>
  <linearGradient id="id24" gradientUnits="userSpaceOnUse" xlink:href="#id6" x1="30.24" y1="38.43" x2="9.23" y2="11.78">
  </linearGradient>
  <linearGradient id="id25" gradientUnits="userSpaceOnUse" xlink:href="#id5" x1="24.41" y1="32.19" x2="24.37" y2="24.29">
  </linearGradient>
  <linearGradient id="id26" gradientUnits="userSpaceOnUse" x1="8.53" y1="32.43" x2="4.39" y2="28.61">
   <stop offset="0" style="stop-opacity:1; stop-color:#8F8D7C"/>
   <stop offset="1" style="stop-opacity:1; stop-color:#A9A697"/>
  </linearGradient>
  <linearGradient id="id27" gradientUnits="userSpaceOnUse" xlink:href="#id21" x1="13.7" y1="14.02" x2="11.66" y2="10.62">
  </linearGradient>
  <linearGradient id="id28" gradientUnits="userSpaceOnUse" xlink:href="#id26" x1="31.25" y1="32.43" x2="35.35" y2="28.61">
  </linearGradient>
  <linearGradient id="id29" gradientUnits="userSpaceOnUse" x1="3.19" y1="33.79" x2="-0.57" y2="18.57">
   <stop offset="0" style="stop-opacity:1; stop-color:#233617"/>
   <stop offset="1" style="stop-opacity:1; stop-color:#74835C"/>
  </linearGradient>
  <linearGradient id="id30" gradientUnits="userSpaceOnUse" x1="30.52" y1="32.19" x2="30.56" y2="24.29">
   <stop offset="0" style="stop-opacity:1; stop-color:#D6C28B"/>
   <stop offset="0.45098" style="stop-opacity:1; stop-color:#A38D51"/>
   <stop offset="1" style="stop-opacity:1; stop-color:#80724F"/>
  </linearGradient>
  <linearGradient id="id31" gradientUnits="userSpaceOnUse" x1="35.19" y1="32.19" x2="35.19" y2="24.29">
   <stop offset="0" style="stop-opacity:1; stop-color:#CC7F70"/>
   <stop offset="0.45098" style="stop-opacity:1; stop-color:#A15F57"/>
   <stop offset="1" style="stop-opacity:1; stop-color:#61332E"/>
  </linearGradient>
  <linearGradient id="id32" gradientUnits="userSpaceOnUse" xlink:href="#id6" x1="8.57" y1="29.78" x2="15.23" y2="25.06">
  </linearGradient>
  <radialGradient id="id33" gradientUnits="userSpaceOnUse" gradientTransform="matrix(-1.32293E+000 1.00266 -1.01847E+000 -1.45269E+000 35 50)" cx="5.09" cy="22.37" r="3.29" fx="5.09" fy="22.37">
   <stop offset="0" style="stop-opacity:1; stop-color:white"/>
   <stop offset="0.541176" style="stop-opacity:0.501961; stop-color:white"/>
   <stop offset="1" style="stop-opacity:0; stop-color:white"/>
  </radialGradient>
  <radialGradient id="id34" gradientUnits="userSpaceOnUse" gradientTransform="matrix(-2.59413E+000 1.89533 -3.29791E+000 -1.49088E+000 208 -37)" cx="42.15" cy="17.26" r="2.73" fx="42.15" fy="17.26">
   <stop offset="0" style="stop-opacity:1; stop-color:white"/>
   <stop offset="1" style="stop-opacity:0; stop-color:white"/>
  </radialGradient>
  <linearGradient id="id35" gradientUnits="userSpaceOnUse" x1="19.73" y1="39.94" x2="19.97" y2="0">
   <stop offset="0" style="stop-opacity:1; stop-color:#EDF2FA"/>
   <stop offset="0.729412" style="stop-opacity:1; stop-color:#3AA0EB"/>
   <stop offset="1" style="stop-opacity:1; stop-color:#017CE4"/>
  </linearGradient>
  <radialGradient id="id36" gradientUnits="userSpaceOnUse" gradientTransform="matrix(-3.01655E+000 2.16778 2.29917 2.77519 47 -96)" cx="25.02" cy="23.26" r="0.76" fx="25.02" fy="23.26">
   <stop offset="0" style="stop-opacity:1; stop-color:white"/>
   <stop offset="1" style="stop-opacity:0.8; stop-color:#E0F2FC"/>
  </radialGradient>
  <radialGradient id="id37" gradientUnits="userSpaceOnUse" gradientTransform="matrix(-3.1494E+000 0.632897 2.40048 0.810252 -2 -4)" xlink:href="#id36" cx="12.52" cy="22.26" r="2.96" fx="12.52" fy="22.26">
  </radialGradient>
  <radialGradient id="id38" gradientUnits="userSpaceOnUse" gradientTransform="matrix(-2.01068E+000 2.08556 1.53252 2.66996 31 -55)" xlink:href="#id36" cx="16.57" cy="12.51" r="1.97" fx="16.57" fy="12.51">
  </radialGradient>
  <radialGradient id="id39" gradientUnits="userSpaceOnUse" gradientTransform="matrix(-3.05076E+000 2.03944 2.32527 2.61092 96 -85)" xlink:href="#id36" cx="31.37" cy="13.24" r="1.54" fx="31.37" fy="13.24">
  </radialGradient>
  <radialGradient id="id40" gradientUnits="userSpaceOnUse" gradientTransform="matrix(-3.17475E+000 0.637679 2.41977 0.816363 122 -23)" xlink:href="#id36" cx="42.11" cy="22.24" r="2.93" fx="42.11" fy="22.24">
  </radialGradient>
  <radialGradient id="id41" gradientUnits="userSpaceOnUse" gradientTransform="matrix(-1.57766E+000 0.53799 1.46323 1.74241 54 -27)" cx="29.61" cy="15.57" r="2.03" fx="29.61" fy="15.57">
   <stop offset="0" style="stop-opacity:1; stop-color:white"/>
   <stop offset="0.709804" style="stop-opacity:0.74902; stop-color:#DDEBED"/>
   <stop offset="1" style="stop-opacity:0.498039; stop-color:#BCD7DB"/>
  </radialGradient>
  <radialGradient id="id42" gradientUnits="userSpaceOnUse" gradientTransform="matrix(-1.19883E+000 0.579782 1.11187 1.87775 16 -23)" xlink:href="#id41" cx="15.24" cy="15.72" r="2.31" fx="15.24" fy="15.72">
  </radialGradient>
  <radialGradient id="id43" gradientUnits="userSpaceOnUse" gradientTransform="matrix(-1.76781E+000 0.988815 1.08236 1.75663 43 -43)" cx="25.15" cy="24.53" r="0.87" fx="25.15" fy="24.53">
   <stop offset="0" style="stop-opacity:1; stop-color:#D6FAFF"/>
   <stop offset="0.831373" style="stop-opacity:0.498039; stop-color:#C8E2E7"/>
   <stop offset="1" style="stop-opacity:0; stop-color:white"/>
  </radialGradient>
  <radialGradient id="id44" gradientUnits="userSpaceOnUse" gradientTransform="matrix(1.67676 0.684019 -1.82535E+000 0.26326 19 -5)" xlink:href="#id41" cx="31.48" cy="22.02" r="4.92" fx="31.48" fy="22.02">
  </radialGradient>
  <radialGradient id="id45" gradientUnits="userSpaceOnUse" gradientTransform="matrix(-1.64039E+000 0.170132 1.52141 0.551015 -12 9)" xlink:href="#id41" cx="9.05" cy="23.61" r="3.76" fx="9.05" fy="23.61">
  </radialGradient>
  <radialGradient id="id46" gradientUnits="userSpaceOnUse" gradientTransform="matrix(-1.75715E+000 0.634215 1.6297 2.05404 29 -42)" xlink:href="#id41" cx="25.09" cy="24.49" r="0.9" fx="25.09" fy="24.49">
  </radialGradient>
 </defs>
 <g id="Layer_x0020_1">
  <metadata id="CorelCorpID_0Corel-Layer"/>
  <path class="fil0" d="M40 20c0,-11.05 -8.95,-20 -20,-20 -11.05,0 -20,8.95 -20,20 0,11.05 8.95,20 20,20 11.05,0 20,-8.95 20,-20z"/>
  <path class="fil1" d="M18.18 7.74c0.24,-0.34 0.36,-0.27 0.61,-0.38 0.06,-0.02 0.15,-0.1 0.19,-0.1 -0.07,0 -0.11,0 -0.15,-0.05 0.12,-0.03 0.24,-0.04 0.39,-0.04l0.99 0.25c0,0 0.01,0.01 0.01,0.01 -0.15,0.07 -0.43,0.1 -0.63,0.12 0.07,0.01 0.14,0.03 0.21,0.06 0.08,0.03 0.14,0.06 0.16,0.14 -0.16,0.05 -0.53,0.06 -0.64,0.12 0.05,0.19 0.72,0.03 0.91,0.02 0.07,0 0.13,-0.01 0.18,0.02 0.06,0.02 0.05,0.05 0.12,0.06 0.09,0.02 0.27,0.01 0.37,0.01 0.13,0 0.24,0 0.36,0.01 0.14,0.02 0.27,0.13 0.36,0.07l0.06 -0.04c0.06,-0.02 0.43,-0.02 0.53,-0.03 -0.05,0.03 -0.31,-0.03 -0.37,-0.08 0.03,-0.22 0.29,-0.16 0.44,-0.13 0.14,0.03 0.34,0.07 0.5,0.07 0.15,0 0.35,-0.02 0.49,0.03 -0.05,0.07 -0.13,0.02 -0.11,0.13l0.2 0c-0.01,0.09 -0.01,0.11 -0.05,0.13l0.66 0.07c0,0.03 0,0.03 -0.03,0.06l-0.04 0.05c0,-0.01 -0.01,0.01 -0.01,0.01 -0.14,0 -0.21,0.02 -0.33,0.05 -0.2,0.04 -0.93,0.02 -1.12,0.02 -0.33,0 -0.28,-0.07 -0.39,-0.07 -0.27,0.01 -0.83,0.15 -1.05,0.1 -0.1,-0.03 -0.06,-0.05 -0.15,-0.08 -0.1,-0.04 -0.28,-0.02 -0.36,-0.11 0.07,-0.03 0.08,-0.01 0.11,-0.08 -0.14,-0.07 -0.63,-0.09 -0.76,0 0,0.06 0.01,0.03 0.02,0.09 0,0 0.01,0.01 0.01,0.01 0,0 0,0.01 -0.01,0.01 0.05,0 0.52,0.08 0.57,0.14 -0.03,0.04 0.01,0 -0.03,0.03 -0.08,0.05 -0.25,0.05 -0.35,0.06 -0.35,0.03 -0.6,0.01 -0.95,-0.02 -0.18,-0.02 -0.34,0.08 -0.53,0.08l-1.03 0c-0.1,0 -0.46,-0.07 -0.54,-0.13 -0.06,-0.05 -0.03,-0.06 -0.13,-0.07 -0.28,-0.04 -0.59,0.01 -0.87,0.01 -0.14,0.01 -0.3,-0.02 -0.34,0.1 0.04,0.01 0.05,0.01 0.09,0.02 0.06,0.01 0.07,0.02 0.1,0.07 -0.11,0.04 -0.13,0.03 -0.27,0.03 -0.19,0.01 -0.36,0.05 -0.54,0.07 -0.33,0.02 -0.66,-0.02 -0.98,-0.02 -0.44,-0.01 -0.87,0.09 -1.32,0.08l-0.05 -0.08c-0.08,-0.05 -0.22,-0.02 -0.29,-0.01 -0.18,0.02 -1.1,0 -1.28,-0.01 0,-0.09 -0.03,-0.07 0.03,-0.1l-0.25 -0.06c0.03,-0.16 0.03,-0.03 0.07,-0.12 -0.12,-0.04 -0.25,-0.01 -0.37,-0.04 -0.1,-0.02 -0.23,-0.06 -0.33,-0.09 -0.04,-0.08 0,-0.06 -0.02,-0.1 -0.04,-0.02 -0.07,-0.02 -0.12,-0.04 -0.09,-0.04 -0.04,-0.03 -0.1,-0.06 0.02,-0.03 -0.02,-0.01 0.05,-0.04 0.05,-0.02 0.12,-0.01 0.17,-0.01 0.09,-0.01 0.14,-0.02 0.23,-0.02 0.16,-0.01 0.3,-0.02 0.46,-0.02 0.28,-0.01 0.51,-0.2 0.77,-0.22 -0.05,-0.09 -0.11,-0.08 -0.11,-0.2l0.16 -0.07c-0.05,-0.03 -0.21,-0.02 -0.22,-0.08 0.02,-0.13 -0.04,-0.04 0.07,-0.08 0.26,-0.11 0.4,-0.1 0.68,-0.1 0.04,-0.08 0.15,-0.13 0.25,-0.14 0.24,-0.03 0.43,-0.08 0.66,-0.12 0.13,-0.02 0.21,0.01 0.34,0.01 0.04,0.08 0.15,0.12 0.19,0.14 0.03,0.02 0,0 0.04,0.02 0.15,0.07 0.35,0.06 0.53,0.08 0,0 0,0.01 0.01,0.01l0.02 0.04c0.03,0.04 -0.03,0 0.02,0.02 0.08,0 0.19,0 0.26,0.01 0.19,0.04 0.31,0.21 0.75,0.09 0.11,-0.03 0.23,0.02 0.32,0.03 0.12,0.03 0.24,0 0.36,0.04l0.05 0.06c-0.11,0.04 0.08,-0.01 -0.03,0.01 -0.24,0.06 -0.62,-0.08 -0.81,-0.02 -0.07,0.03 -0.41,0.06 -0.53,0.13 0.08,0.12 0.29,0.09 0.47,0.1 0.2,0 0.33,0.03 0.49,0.09 -0.03,0.06 -0.04,0.04 -0.08,0.09l0.44 0.02c0.22,0.01 0.19,-0.04 0.32,-0.06 0.22,-0.04 0.81,-0.04 1.04,-0.04 0.28,0 0.57,0.09 0.84,0.03 -0.01,-0.01 -0.04,-0.02 -0.06,-0.07l0 0 0 0z"/>
  <path class="fil2" d="M18.18 7.74c0.02,0.05 0.05,0.06 0.06,0.07 -0.27,0.06 -0.56,-0.03 -0.84,-0.03 -0.23,0 -0.82,0 -1.04,0.04 -0.13,0.02 -0.1,0.07 -0.32,0.06l-0.44 -0.02c0.04,-0.05 0.05,-0.03 0.08,-0.09 -0.16,-0.06 -0.29,-0.09 -0.49,-0.09 -0.18,-0.01 -0.39,0.02 -0.47,-0.1 0.12,-0.07 0.46,-0.1 0.53,-0.13 0.19,-0.06 0.57,0.08 0.81,0.02 0.11,-0.02 -0.08,0.03 0.03,-0.01l-0.05 -0.06c-0.12,-0.04 -0.24,-0.01 -0.36,-0.04 -0.09,-0.01 -0.21,-0.06 -0.32,-0.03 -0.44,0.12 -0.56,-0.06 -0.75,-0.09 -0.07,-0.01 -0.18,-0.01 -0.26,-0.01 -0.05,-0.02 0.01,0.02 -0.02,-0.02l-0.02 -0.04c-0.01,0 -0.01,-0.01 -0.01,-0.01 -0.18,-0.02 -0.38,-0.01 -0.53,-0.08 -0.04,-0.02 -0.01,0 -0.04,-0.02 -0.04,-0.02 -0.15,-0.06 -0.19,-0.14 -0.13,0 -0.21,-0.03 -0.34,-0.01 -0.23,0.04 -0.42,0.09 -0.66,0.12 -0.1,0.01 -0.21,0.05 -0.25,0.14 -0.28,0 -0.42,-0.01 -0.68,0.1 -0.11,0.04 -0.05,-0.05 -0.07,0.08 0.01,0.06 0.17,0.05 0.22,0.08l-0.16 0.07c0,0.12 0.06,0.11 0.11,0.2 -0.26,0.02 -0.49,0.21 -0.77,0.22 -0.16,0 -0.3,0.01 -0.47,0.02 -0.08,0 -0.13,0.01 -0.22,0.02 -0.05,0 -0.12,-0.01 -0.17,0.01 -0.06,0.03 -0.03,0.01 -0.05,0.04 0.06,0.03 0.01,0.02 0.1,0.06 0.04,0.02 0.08,0.02 0.12,0.04 0.02,0.04 -0.02,0.02 0.02,0.1 0.1,0.03 0.23,0.07 0.33,0.09 0.12,0.03 0.25,0 0.37,0.04 -0.04,0.09 -0.04,-0.04 -0.07,0.12l0.25 0.06c-0.06,0.03 -0.03,0.01 -0.03,0.1 0.18,0.01 1.1,0.03 1.28,0.01 0.07,-0.01 0.21,-0.04 0.29,0.01l0.05 0.08c0.45,0.01 0.88,-0.09 1.32,-0.08 0.32,0 0.65,0.04 0.98,0.02 0.18,-0.02 0.35,-0.06 0.54,-0.07 0.14,0 0.16,0.01 0.27,-0.03 -0.03,-0.05 -0.04,-0.06 -0.1,-0.07 -0.04,-0.01 -0.05,-0.01 -0.09,-0.02 0.04,-0.12 0.2,-0.09 0.35,-0.1 0.27,0 0.58,-0.05 0.86,-0.01 0.1,0.01 0.07,0.02 0.13,0.07 0.08,0.06 0.44,0.13 0.54,0.13l1.02 0c0.2,0 0.37,-0.1 0.54,-0.08 0.36,0.03 0.6,0.05 0.95,0.02 0.1,-0.01 0.27,-0.01 0.35,-0.06 0.04,-0.03 0,0.01 0.03,-0.04 -0.05,-0.05 -0.52,-0.13 -0.57,-0.13 0.01,0 0.01,-0.01 0.01,-0.01 0,0 -0.01,-0.01 -0.01,-0.01 -0.01,-0.06 -0.02,-0.03 -0.02,-0.09 0.13,-0.09 0.62,-0.07 0.76,0 -0.03,0.07 -0.04,0.05 -0.11,0.08 0.08,0.09 0.26,0.07 0.36,0.11 0.09,0.03 0.05,0.05 0.15,0.07 0.22,0.06 0.78,-0.08 1.05,-0.09 0.11,0 0.06,0.07 0.39,0.07 0.19,0 0.92,0.02 1.12,-0.02 0.12,-0.03 0.19,-0.05 0.33,-0.05 0,0 0.01,-0.02 0.01,-0.01l0.04 -0.05c0.03,-0.03 0.03,-0.03 0.03,-0.06l-0.66 -0.07c0.04,-0.02 0.04,-0.04 0.05,-0.13l-0.2 0c-0.02,-0.11 0.06,-0.06 0.11,-0.13 -0.14,-0.05 -0.34,-0.03 -0.49,-0.03 -0.16,0 -0.36,-0.04 -0.5,-0.07 -0.15,-0.03 -0.41,-0.09 -0.44,0.13 0.06,0.05 0.32,0.11 0.37,0.08 -0.1,0.01 -0.47,0.01 -0.53,0.03l-0.06 0.04c-0.09,0.06 -0.22,-0.05 -0.36,-0.07 -0.12,-0.01 -0.23,-0.01 -0.36,-0.01 -0.1,0 -0.28,0.01 -0.37,-0.01 -0.07,-0.01 -0.06,-0.04 -0.12,-0.06 -0.05,-0.03 -0.11,-0.02 -0.18,-0.02 -0.19,0.01 -0.86,0.17 -0.91,-0.03 0.11,-0.05 0.48,-0.06 0.64,-0.11 -0.02,-0.08 -0.08,-0.11 -0.16,-0.14 -0.07,-0.03 -0.14,-0.05 -0.21,-0.06 0.2,-0.02 0.48,-0.05 0.63,-0.12 0,0 -0.01,-0.01 -0.01,-0.01l-0.99 -0.25c-0.15,0 -0.27,0.01 -0.39,0.04 0.04,0.05 0.08,0.05 0.15,0.05 -0.04,0 -0.13,0.08 -0.19,0.1 -0.25,0.11 -0.37,0.04 -0.61,0.38l0 0 0 0zm-3.1 -0.48c0.14,0 0,-0.08 0.11,-0.08l0.91 0.08c0.05,0.01 0.07,0.02 0.12,0.03 0.06,0.02 0.1,0.01 0.14,0.03 0.05,0.03 0.04,0.07 0.28,0.07 0.33,0 0.77,0.01 1.08,-0.05 0.24,-0.05 0.2,-0.08 0.53,-0.08 0.08,0 0.06,0.03 0.12,0.02 0.07,-0.02 0.03,-0.04 0.11,-0.06 0.13,-0.05 0.79,-0.08 0.96,-0.08 0.03,0 0.2,0.08 0.52,0.09 0.57,0 0.58,0.11 1.05,0.16 0.09,0 0.16,0.04 0.23,0.07 0.1,0.04 0.17,0.01 0.28,0.04 0.18,0.03 0.09,0.07 0.2,0.1l1.74 0.07c0.11,0 0.18,0.03 0.28,0.03 -0.03,0.06 -0.08,0.08 -0.13,0.1l-0.05 0.01c0,0.01 -0.01,0.01 -0.01,0.01 0,0 -0.01,0 -0.01,0 0.35,0.09 0.04,0.18 0.31,0.18 0.14,0 0.28,0.01 0.4,-0.01 0.14,-0.02 0.27,0 0.38,0.01 0,0.27 0.3,0.13 0.35,0.36 -0.07,0.02 -0.09,0.02 -0.18,0.03 -0.04,0.01 -0.13,0.03 -0.19,0.03 -0.14,0.02 -0.3,-0.01 -0.43,0.02 -0.13,0.02 -0.23,0.07 -0.35,0.08l-0.87 0c-0.15,0 -0.26,0.04 -0.42,0.02 -1.4,-0.12 -1.17,0.11 -1.88,0.11 -0.41,0 -0.54,-0.12 -1.1,-0.03 -0.16,0.02 -0.29,0.01 -0.45,0.03l-1.51 0.15c-0.17,0.02 -0.5,0.03 -0.66,-0.01 -0.13,-0.02 -0.27,-0.09 -0.4,-0.09 -0.42,0 -0.65,-0.02 -1.04,0.05 -0.09,0.01 -0.15,0.03 -0.26,0.03 -0.13,0.02 -0.09,0.06 -0.24,0.07l-0.87 -0.05c-0.2,-0.03 -0.32,0.04 -0.54,0.04 -0.23,0 -0.2,0.02 -0.41,-0.03 -0.26,-0.05 -0.42,-0.03 -0.6,-0.06 -0.27,-0.04 -0.58,0.03 -0.85,-0.01 -0.14,-0.03 -0.26,-0.02 -0.39,-0.04 -0.12,-0.02 -0.31,-0.02 -0.42,-0.03 -0.24,-0.03 -0.21,-0.04 -0.32,-0.12 -0.15,-0.09 -0.81,0.06 -1.13,-0.1 0.02,-0.09 0.05,-0.09 0.06,-0.19l-0.31 -0.18c-0.04,-0.02 -0.13,-0.01 -0.13,-0.19 0.12,-0.04 -0.02,-0.05 0.27,-0.04l0.63 -0.03c0.58,-0.11 0.67,-0.08 1.23,-0.09 0.15,-0.01 0.15,-0.06 0.26,-0.09 -0.1,-0.16 -0.39,-0.27 -0.48,-0.27l0 -0.08 0.56 -0.13c0.09,-0.03 0.32,-0.24 0.76,-0.18 0.29,0.04 0.39,-0.05 0.52,-0.07 0.22,-0.03 0.68,-0.11 0.86,0.02 0.03,0.03 -0.02,0 0.03,0.03 0.03,0.01 0.03,0 0.06,0.01 0.12,0.04 0.02,0.07 0.16,0.1l0.72 0.07c0.1,0.01 0.13,0.03 0.22,0.04 0.18,0.03 0.1,0.09 0.19,0.09l0 -0.01 0 0z"/>
  <path class="fil3" d="M20.4 17.84l-0.01 5.42 -9.74 0 0 -2.56 -0.01 0 0 -0.01 -0.82 0 0 -2.98 0.23 0 0 -0.02 -0.02 0 0 -0.01 -0.02 0 0 -0.02 -0.01 0 0 -0.02 -0.02 0 0 -0.01 -0.01 0 0 -0.02 -0.02 0 0 -0.01 -0.02 0 0 -0.02 -0.01 0 0 -0.02 -0.02 0 0 -0.01 -0.01 0 0 -0.02 -0.02 0 0 -0.01 -0.02 0 0 -0.02 -0.02 -0.03 -1.72 0 0 0.06 -0.02 0 0 0.02 -0.01 0 0 0.01 -0.02 0 0 0.02 -0.02 0 0 0.02 -0.01 0 0 0.01 -0.02 0 0 0.02 -0.01 0 0 0.01 -0.02 0 0 0.02 -0.02 0 0 0.02 -0.01 0 0 0.01 -0.02 0 0 0.02 -0.01 0 0 0.01 0.2 0 0 2.34 -6.77 0 0 -0.19 0.03 0 0 -0.02 0.02 0 0 -0.01 0.03 0 0 -0.39 -0.17 0 0 -0.11 0.14 0 0 -0.06 -0.02 0 0 -0.07 -0.01 0 0 -0.06 -0.02 0 0 -0.05 -0.01 0 0 -0.06 -0.02 0 0 -0.07 -0.02 0 0 -0.05 -0.01 0 0 -0.06 -0.02 0 0 -0.06 -0.01 0 0 -0.07 -0.02 0 0 -0.05 -0.02 0 0 -0.06 -0.01 0 0 -0.05 -0.02 0 0 0.02 -0.01 0 0 0.06 -0.02 0 0 0.05 -0.02 0 0 0.06 -0.01 0 0 0.07 -0.02 0 0 0.06 -0.01 0 0 0.05 -0.02 0 0 0.06 -0.02 0 0 0.07 -0.01 0 0 0.06 -0.02 0 0 0.05 -0.01 0 0 0.06 -0.02 0 0 0.07 -0.02 0 0 0.05 0.16 0 0 0.09 -0.19 0 0 0.02 -0.01 0 0 0.35 0.01 0 0 0.02 0.02 0 0 0.01 0.03 0 0 0.02 0.02 0 0 0.02 0.03 0 0 0.15 -0.47 0 0 -0.17 0.13 0 0 -0.03 -0.01 0 0 -0.08 -0.02 0 0 -0.1 -0.02 0 0 -0.08 -0.01 0 0 -0.1 -0.02 0 0 -0.08 -0.01 0 0 -0.09 -0.02 0 0 -0.08 -0.02 0 0 -0.1 -0.01 0 0 -0.08 -0.02 0 0 -0.09 -0.01 0 0 -0.08 -0.02 0 0 -0.1 -0.02 0 0 -0.08 -0.01 0 0 -0.08 -0.02 0 0 -0.03 -0.01 0 0 0.08 -0.02 0 0 0.08 -0.02 0 0 0.08 -0.01 0 0 0.09 -0.02 0 0 0.08 -0.01 0 0 0.1 -0.02 0 0 0.08 -0.02 0 0 0.1 -0.01 0 0 0.08 -0.02 0 0 0.09 -0.01 0 0 0.08 -0.02 0 0 0.08 -0.02 0 0 0.1 -0.01 0 0 0.08 -0.02 0 0 0.1 0.13 0 0 0.15 -0.14 0 0 0.45 0.11 0 0 0.61 -0.23 0c-0.02,-0.01 -0.52,11.13 15.96,11.13l7.11 -0.02 0 -14.37c0.01,0 -2.79,0 -2.77,0l0 0z"/>
  <path class="fil4" d="M32.44 16.41l-0.51 0 0 -2.02 -2.43 0 0 2.69c-1.3,0.34 -1.22,2.35 -1.22,2.79l1.44 3.09 5.41 0 4.79 -4.78c-0.03,-0.3 -0.12,-0.73 -1.17,-1.11l0 -2.64 -2.43 0 0 1.98 -0.47 0 0 -3.37 -3.41 0 0 3.37z"/>
  <path class="fil5" d="M33.02 26.38l-0.87 -0.17 -2.55 0 -0.86 0.17 0 3.3c0.49,0.89 1.04,1.73 1.66,2.53l2.62 0 0 -5.83z"/>
  <path class="fil6" d="M32.74 26.38l0.87 -0.17 2.55 0 0.86 0.17 0 3.3c-0.49,0.89 -1.04,1.73 -1.66,2.53l-2.62 0 0 -5.83z"/>
  <polygon class="fil7" points="23.17,32.21 20.39,32.21 20.4,17.84 23.17,17.84 "/>
  <path class="fil8" d="M17.84 32.22c0,0 0,-1.28 0,-1.28 0.01,-0.35 0.11,-0.74 0.4,-0.88 0.28,0.16 0.4,0.58 0.41,0.89 0,0 0,1.27 0,1.27l-0.81 0 0 0z"/>
  <path class="fil8" d="M16.4 32.21c0,0 0,-1.27 0,-1.27 0.01,-0.35 0.11,-0.74 0.4,-0.88 0.28,0.16 0.41,0.57 0.41,0.88 0,0 0,1.28 0,1.28l-0.81 -0.01 0 0z"/>
  <path class="fil8" d="M15.25 30.13c0.03,-0.03 0.07,-0.05 0.11,-0.08 0.28,0.17 0.41,0.58 0.41,0.89 0,0 0,1.28 0,1.28l-0.52 0 0 -2.09z"/>
  <path class="fil8" d="M19.28 32.21c0,0 0,-1.27 0,-1.27 0.01,-0.35 0.11,-0.74 0.4,-0.88 0.28,0.16 0.41,0.57 0.41,0.88 0,0 0,1.28 0,1.28l-0.81 -0.01 0 0z"/>
  <path class="fil8" d="M21.36 32.21c0,0 0,-1.27 0,-1.27 0.02,-0.35 0.11,-0.74 0.4,-0.88 0.28,0.16 0.41,0.57 0.41,0.88 0,0 0,1.28 0,1.28l-0.81 -0.01 0 0z"/>
  <path class="fil8" d="M21.41 28.22c0,0 0,-1.27 0,-1.27 0.05,-0.25 0.19,-0.47 0.35,-0.51 0.16,0.03 0.35,0.31 0.37,0.51 0,0 0,1.27 0,1.27l-0.72 0z"/>
  <path class="fil8" d="M19.33 28.22c0,0 0,-1.27 0,-1.27 0.05,-0.25 0.19,-0.47 0.35,-0.51 0.16,0.03 0.35,0.31 0.36,0.51 0,0 0,1.27 0,1.27l-0.71 0z"/>
  <path class="fil8" d="M17.89 28.22c0,0 0,-1.27 0,-1.27 0.05,-0.25 0.19,-0.47 0.35,-0.51 0.16,0.03 0.35,0.31 0.36,0.51 0,0 0,1.27 0,1.27l-0.71 0z"/>
  <path class="fil8" d="M16.44 28.22c0,0 0,-1.27 0,-1.27 0.06,-0.25 0.2,-0.47 0.36,-0.51 0.16,0.03 0.35,0.31 0.36,0.51 0,0 0,1.27 0,1.27l-0.72 0 0 0z"/>
  <path class="fil8" d="M15.25 26.5c0.03,-0.03 0.07,-0.05 0.11,-0.06 0.16,0.03 0.35,0.31 0.36,0.51 0,0 0,1.27 0,1.27l-0.47 0 0 -1.72 0 0z"/>
  <polygon class="fil9" points="24.07,23.65 24.71,24.94 25.35,26.23 24.07,26.23 22.8,26.23 23.43,24.94 24.07,23.65 "/>
  <polygon class="fil10" points="31.78,30.9 32.46,30.9 32.46,32.19 31.78,32.19 "/>
  <polygon class="fil10" points="31.78,29.1 32.46,29.1 32.46,30.39 31.78,30.39 "/>
  <polygon class="fil11" points="31.86,31.59 32.08,31.59 32.08,32.11 31.86,32.11 "/>
  <polygon class="fil11" points="32.16,31.59 32.38,31.59 32.38,32.11 32.16,32.11 "/>
  <polygon class="fil11" points="31.86,30.99 32.08,30.99 32.08,31.51 31.86,31.51 "/>
  <polygon class="fil11" points="32.16,30.99 32.38,30.99 32.38,31.51 32.16,31.51 "/>
  <polygon class="fil11" points="31.87,29.49 32.08,29.49 32.08,30.3 31.87,30.3 "/>
  <polygon class="fil11" points="32.17,29.49 32.38,29.49 32.38,30.3 32.17,30.3 "/>
  <polygon class="fil11" points="32.17,29.19 32.38,29.19 32.38,29.4 32.17,29.4 "/>
  <polygon class="fil10" points="33.3,30.9 33.98,30.9 33.98,32.19 33.3,32.19 "/>
  <polygon class="fil10" points="34.54,30.9 35.22,30.9 35.22,32.19 34.54,32.19 "/>
  <polygon class="fil10" points="33.3,29.1 33.98,29.1 33.98,30.39 33.3,30.39 "/>
  <polygon class="fil10" points="34.54,29.1 35.22,29.1 35.22,30.39 34.54,30.39 "/>
  <polygon class="fil11" points="33.38,31.59 33.6,31.59 33.6,32.1 33.38,32.1 "/>
  <polygon class="fil11" points="33.68,31.59 33.9,31.59 33.9,32.1 33.68,32.1 "/>
  <polygon class="fil11" points="33.38,30.99 33.6,30.99 33.6,31.5 33.38,31.5 "/>
  <polygon class="fil11" points="33.68,30.99 33.9,30.99 33.9,31.5 33.68,31.5 "/>
  <polygon class="fil11" points="34.62,31.59 34.83,31.59 34.83,32.11 34.62,32.11 "/>
  <polygon class="fil11" points="34.62,30.99 34.83,30.99 34.83,31.51 34.62,31.51 "/>
  <polygon class="fil11" points="33.38,29.5 33.6,29.5 33.6,30.31 33.38,30.31 "/>
  <polygon class="fil11" points="33.68,29.5 33.9,29.5 33.9,30.31 33.68,30.31 "/>
  <polygon class="fil11" points="33.38,29.2 33.6,29.2 33.6,29.41 33.38,29.41 "/>
  <polygon class="fil11" points="33.68,29.2 33.9,29.2 33.9,29.41 33.68,29.41 "/>
  <polygon class="fil11" points="34.63,29.49 34.85,29.49 34.85,30.3 34.63,30.3 "/>
  <polygon class="fil12" points="5.4,23.66 4.76,24.95 4.13,26.24 5.4,26.24 6.68,26.24 6.04,24.95 5.4,23.66 "/>
  <path class="fil13" d="M7.54 26.39l-0.86 -0.17 -2.55 0 -0.87 0.17 0 3.3c0.49,0.89 1.05,1.73 1.66,2.53l2.62 0 0 -5.83z"/>
  <path class="fil14" d="M7.26 26.39l0.87 -0.17 2.55 0 0.87 0.17 0 3.3c-0.5,0.89 -1.05,1.73 -1.67,2.53l-2.62 0 0 -5.83 0 0z"/>
  <polygon class="fil10" points="5.06,30.91 5.74,30.91 5.74,32.2 5.06,32.2 "/>
  <polygon class="fil10" points="6.3,30.91 6.99,30.91 6.99,32.2 6.3,32.2 "/>
  <polygon class="fil10" points="5.06,29.11 5.74,29.11 5.74,30.4 5.06,30.4 "/>
  <polygon class="fil10" points="6.3,29.11 6.99,29.11 6.99,30.4 6.3,30.4 "/>
  <polygon class="fil11" points="5.14,31.6 5.35,31.6 5.35,32.12 5.14,32.12 "/>
  <polygon class="fil11" points="5.44,31.6 5.65,31.6 5.65,32.12 5.44,32.12 "/>
  <polygon class="fil11" points="5.14,31.01 5.35,31.01 5.35,31.52 5.14,31.52 "/>
  <polygon class="fil11" points="5.44,31.01 5.65,31.01 5.65,31.52 5.44,31.52 "/>
  <polygon class="fil11" points="6.38,31.6 6.6,31.6 6.6,32.12 6.38,32.12 "/>
  <polygon class="fil11" points="6.68,31.6 6.9,31.6 6.9,32.12 6.68,32.12 "/>
  <polygon class="fil11" points="6.38,31 6.6,31 6.6,31.52 6.38,31.52 "/>
  <polygon class="fil11" points="6.68,31 6.9,31 6.9,31.52 6.68,31.52 "/>
  <polygon class="fil11" points="5.15,29.5 5.37,29.5 5.37,30.32 5.15,30.32 "/>
  <polygon class="fil11" points="5.45,29.5 5.67,29.5 5.67,30.32 5.45,30.32 "/>
  <polygon class="fil11" points="5.15,29.2 5.37,29.2 5.37,29.42 5.15,29.42 "/>
  <polygon class="fil11" points="5.45,29.2 5.67,29.2 5.67,29.42 5.45,29.42 "/>
  <polygon class="fil11" points="6.39,29.5 6.61,29.5 6.61,30.31 6.39,30.31 "/>
  <polygon class="fil11" points="6.69,29.5 6.91,29.5 6.91,30.31 6.69,30.31 "/>
  <polygon class="fil11" points="6.39,29.2 6.61,29.2 6.61,29.41 6.39,29.41 "/>
  <polygon class="fil11" points="6.69,29.2 6.91,29.2 6.91,29.41 6.69,29.41 "/>
  <polygon class="fil10" points="7.82,30.91 8.5,30.91 8.5,32.2 7.82,32.2 "/>
  <polygon class="fil10" points="7.82,29.11 8.5,29.11 8.5,30.4 7.82,30.4 "/>
  <polygon class="fil11" points="7.9,31.6 8.12,31.6 8.12,32.11 7.9,32.11 "/>
  <polygon class="fil11" points="7.9,31 8.12,31 8.12,31.51 7.9,31.51 "/>
  <polygon class="fil11" points="7.91,29.51 8.12,29.51 8.12,30.32 7.91,30.32 "/>
  <polygon class="fil11" points="7.91,29.21 8.12,29.21 8.12,29.42 7.91,29.42 "/>
  <polygon class="fil15" points="21.93,26.39 22.8,26.21 25.35,26.21 26.21,26.39 26.21,32.21 21.93,32.21 "/>
  <polygon class="fil15" points="21.93,26.39 22.8,26.21 25.35,26.21 26.21,26.39 26.21,32.21 21.93,32.21 "/>
  <polygon class="fil10" points="22.49,30.93 23.17,30.93 23.17,32.21 22.49,32.21 "/>
  <polygon class="fil10" points="22.49,30.93 23.17,30.93 23.17,32.21 22.49,32.21 "/>
  <polygon class="fil10" points="23.73,30.93 24.41,30.93 24.41,32.21 23.73,32.21 "/>
  <polygon class="fil10" points="23.73,30.93 24.41,30.93 24.41,32.21 23.73,32.21 "/>
  <polygon class="fil10" points="24.97,30.93 25.66,30.93 25.66,32.21 24.97,32.21 "/>
  <polygon class="fil10" points="24.97,30.93 25.66,30.93 25.66,32.21 24.97,32.21 "/>
  <polygon class="fil10" points="22.49,29.13 23.17,29.13 23.17,30.41 22.49,30.41 "/>
  <polygon class="fil10" points="22.49,29.13 23.17,29.13 23.17,30.41 22.49,30.41 "/>
  <polygon class="fil10" points="23.73,29.13 24.41,29.13 24.41,30.41 23.73,30.41 "/>
  <polygon class="fil10" points="23.73,29.13 24.41,29.13 24.41,30.41 23.73,30.41 "/>
  <polygon class="fil10" points="24.97,29.13 25.66,29.13 25.66,30.41 24.97,30.41 "/>
  <polygon class="fil10" points="24.97,29.13 25.66,29.13 25.66,30.41 24.97,30.41 "/>
  <polygon class="fil10" points="22.49,27.33 23.17,27.33 23.17,28.61 22.49,28.61 "/>
  <polygon class="fil10" points="22.49,27.33 23.17,27.33 23.17,28.61 22.49,28.61 "/>
  <polygon class="fil10" points="23.73,27.33 24.41,27.33 24.41,28.61 23.73,28.61 "/>
  <polygon class="fil10" points="23.73,27.33 24.41,27.33 24.41,28.61 23.73,28.61 "/>
  <polygon class="fil10" points="24.97,27.33 25.66,27.33 25.66,28.61 24.97,28.61 "/>
  <polygon class="fil10" points="24.97,27.33 25.66,27.33 25.66,28.61 24.97,28.61 "/>
  <polygon class="fil10" points="23.28,26.26 23.96,26.26 23.96,26.94 23.28,26.94 "/>
  <polygon class="fil10" points="23.28,26.26 23.96,26.26 23.96,26.94 23.28,26.94 "/>
  <polygon class="fil10" points="24.18,26.26 24.86,26.26 24.86,26.94 24.18,26.94 "/>
  <polygon class="fil10" points="24.18,26.26 24.86,26.26 24.86,26.94 24.18,26.94 "/>
  <polygon class="fil11" points="22.57,31.61 22.79,31.61 22.79,32.12 22.57,32.12 "/>
  <polygon class="fil11" points="22.57,31.61 22.79,31.61 22.79,32.12 22.57,32.12 "/>
  <polygon class="fil11" points="22.87,31.61 23.09,31.61 23.09,32.12 22.87,32.12 "/>
  <polygon class="fil11" points="22.87,31.61 23.09,31.61 23.09,32.12 22.87,32.12 "/>
  <polygon class="fil11" points="22.57,31.01 22.79,31.01 22.79,31.53 22.57,31.53 "/>
  <polygon class="fil11" points="22.57,31.01 22.79,31.01 22.79,31.53 22.57,31.53 "/>
  <polygon class="fil11" points="22.87,31.01 23.09,31.01 23.09,31.53 22.87,31.53 "/>
  <polygon class="fil11" points="22.87,31.01 23.09,31.01 23.09,31.53 22.87,31.53 "/>
  <polygon class="fil11" points="23.81,31.62 24.02,31.62 24.02,32.13 23.81,32.13 "/>
  <polygon class="fil11" points="23.81,31.62 24.02,31.62 24.02,32.13 23.81,32.13 "/>
  <polygon class="fil11" points="24.11,31.62 24.32,31.62 24.32,32.13 24.11,32.13 "/>
  <polygon class="fil11" points="24.11,31.62 24.32,31.62 24.32,32.13 24.11,32.13 "/>
  <polygon class="fil11" points="23.81,31.02 24.02,31.02 24.02,31.53 23.81,31.53 "/>
  <polygon class="fil11" points="23.81,31.02 24.02,31.02 24.02,31.53 23.81,31.53 "/>
  <polygon class="fil11" points="24.11,31.02 24.32,31.02 24.32,31.53 24.11,31.53 "/>
  <polygon class="fil11" points="24.11,31.02 24.32,31.02 24.32,31.53 24.11,31.53 "/>
  <polygon class="fil11" points="25.05,31.62 25.27,31.62 25.27,32.13 25.05,32.13 "/>
  <polygon class="fil11" points="25.05,31.62 25.27,31.62 25.27,32.13 25.05,32.13 "/>
  <polygon class="fil11" points="25.35,31.62 25.57,31.62 25.57,32.13 25.35,32.13 "/>
  <polygon class="fil11" points="25.35,31.62 25.57,31.62 25.57,32.13 25.35,32.13 "/>
  <polygon class="fil11" points="25.05,31.02 25.27,31.02 25.27,31.53 25.05,31.53 "/>
  <polygon class="fil11" points="25.05,31.02 25.27,31.02 25.27,31.53 25.05,31.53 "/>
  <polygon class="fil11" points="25.35,31.02 25.57,31.02 25.57,31.53 25.35,31.53 "/>
  <polygon class="fil11" points="25.35,31.02 25.57,31.02 25.57,31.53 25.35,31.53 "/>
  <polygon class="fil11" points="22.57,29.52 22.79,29.52 22.79,30.34 22.57,30.34 "/>
  <polygon class="fil11" points="22.57,29.52 22.79,29.52 22.79,30.34 22.57,30.34 "/>
  <polygon class="fil11" points="22.87,29.52 23.09,29.52 23.09,30.34 22.87,30.34 "/>
  <polygon class="fil11" points="22.87,29.52 23.09,29.52 23.09,30.34 22.87,30.34 "/>
  <polygon class="fil11" points="22.57,29.22 22.79,29.22 22.79,29.44 22.57,29.44 "/>
  <polygon class="fil11" points="22.57,29.22 22.79,29.22 22.79,29.44 22.57,29.44 "/>
  <polygon class="fil11" points="22.87,29.22 23.09,29.22 23.09,29.44 22.87,29.44 "/>
  <polygon class="fil11" points="22.87,29.22 23.09,29.22 23.09,29.44 22.87,29.44 "/>
  <polygon class="fil11" points="23.82,29.51 24.03,29.51 24.03,30.33 23.82,30.33 "/>
  <polygon class="fil11" points="23.82,29.51 24.03,29.51 24.03,30.33 23.82,30.33 "/>
  <polygon class="fil11" points="24.12,29.51 24.33,29.51 24.33,30.33 24.12,30.33 "/>
  <polygon class="fil11" points="24.12,29.51 24.33,29.51 24.33,30.33 24.12,30.33 "/>
  <polygon class="fil11" points="23.82,29.21 24.03,29.21 24.03,29.43 23.82,29.43 "/>
  <polygon class="fil11" points="23.82,29.21 24.03,29.21 24.03,29.43 23.82,29.43 "/>
  <polygon class="fil11" points="24.12,29.21 24.33,29.21 24.33,29.43 24.12,29.43 "/>
  <polygon class="fil11" points="24.12,29.21 24.33,29.21 24.33,29.43 24.12,29.43 "/>
  <polygon class="fil11" points="25.06,29.51 25.28,29.51 25.28,30.33 25.06,30.33 "/>
  <polygon class="fil11" points="25.06,29.51 25.28,29.51 25.28,30.33 25.06,30.33 "/>
  <polygon class="fil11" points="25.36,29.51 25.58,29.51 25.58,30.33 25.36,30.33 "/>
  <polygon class="fil11" points="25.36,29.51 25.58,29.51 25.58,30.33 25.36,30.33 "/>
  <polygon class="fil11" points="25.06,29.21 25.28,29.21 25.28,29.43 25.06,29.43 "/>
  <polygon class="fil11" points="25.06,29.21 25.28,29.21 25.28,29.43 25.06,29.43 "/>
  <polygon class="fil11" points="25.36,29.21 25.58,29.21 25.58,29.43 25.36,29.43 "/>
  <polygon class="fil11" points="25.36,29.21 25.58,29.21 25.58,29.43 25.36,29.43 "/>
  <polygon class="fil11" points="22.57,27.73 22.79,27.73 22.79,28.54 22.57,28.54 "/>
  <polygon class="fil11" points="22.57,27.73 22.79,27.73 22.79,28.54 22.57,28.54 "/>
  <polygon class="fil11" points="22.87,27.73 23.09,27.73 23.09,28.54 22.87,28.54 "/>
  <polygon class="fil11" points="22.87,27.73 23.09,27.73 23.09,28.54 22.87,28.54 "/>
  <polygon class="fil11" points="22.57,27.43 22.79,27.43 22.79,27.64 22.57,27.64 "/>
  <polygon class="fil11" points="22.57,27.43 22.79,27.43 22.79,27.64 22.57,27.64 "/>
  <polygon class="fil11" points="22.87,27.43 23.09,27.43 23.09,27.64 22.87,27.64 "/>
  <polygon class="fil11" points="22.87,27.43 23.09,27.43 23.09,27.64 22.87,27.64 "/>
  <polygon class="fil11" points="23.82,27.72 24.04,27.72 24.04,28.53 23.82,28.53 "/>
  <polygon class="fil11" points="23.82,27.72 24.04,27.72 24.04,28.53 23.82,28.53 "/>
  <polygon class="fil11" points="24.12,27.72 24.34,27.72 24.34,28.53 24.12,28.53 "/>
  <polygon class="fil11" points="24.12,27.72 24.34,27.72 24.34,28.53 24.12,28.53 "/>
  <polygon class="fil11" points="23.82,27.42 24.04,27.42 24.04,27.63 23.82,27.63 "/>
  <polygon class="fil11" points="23.82,27.42 24.04,27.42 24.04,27.63 23.82,27.63 "/>
  <polygon class="fil11" points="24.12,27.42 24.34,27.42 24.34,27.63 24.12,27.63 "/>
  <polygon class="fil11" points="24.12,27.42 24.34,27.42 24.34,27.63 24.12,27.63 "/>
  <polygon class="fil11" points="25.06,27.72 25.28,27.72 25.28,28.53 25.06,28.53 "/>
  <polygon class="fil11" points="25.06,27.72 25.28,27.72 25.28,28.53 25.06,28.53 "/>
  <polygon class="fil11" points="25.36,27.72 25.58,27.72 25.58,28.53 25.36,28.53 "/>
  <polygon class="fil11" points="25.36,27.72 25.58,27.72 25.58,28.53 25.36,28.53 "/>
  <polygon class="fil11" points="25.06,27.42 25.28,27.42 25.28,27.63 25.06,27.63 "/>
  <polygon class="fil11" points="25.06,27.42 25.28,27.42 25.28,27.63 25.06,27.63 "/>
  <polygon class="fil11" points="25.36,27.42 25.58,27.42 25.58,27.63 25.36,27.63 "/>
  <polygon class="fil11" points="25.36,27.42 25.58,27.42 25.58,27.63 25.36,27.63 "/>
  <polygon class="fil11" points="23.36,26.64 23.58,26.64 23.58,26.86 23.36,26.86 "/>
  <polygon class="fil11" points="23.36,26.64 23.58,26.64 23.58,26.86 23.36,26.86 "/>
  <polygon class="fil11" points="23.66,26.64 23.88,26.64 23.88,26.86 23.66,26.86 "/>
  <polygon class="fil11" points="23.66,26.64 23.88,26.64 23.88,26.86 23.66,26.86 "/>
  <polygon class="fil11" points="23.36,26.34 23.58,26.34 23.58,26.56 23.36,26.56 "/>
  <polygon class="fil11" points="23.36,26.34 23.58,26.34 23.58,26.56 23.36,26.56 "/>
  <polygon class="fil11" points="23.66,26.34 23.88,26.34 23.88,26.56 23.66,26.56 "/>
  <polygon class="fil11" points="23.66,26.34 23.88,26.34 23.88,26.56 23.66,26.56 "/>
  <polygon class="fil11" points="24.26,26.65 24.48,26.65 24.48,26.86 24.26,26.86 "/>
  <polygon class="fil11" points="24.26,26.65 24.48,26.65 24.48,26.86 24.26,26.86 "/>
  <polygon class="fil11" points="24.56,26.65 24.78,26.65 24.78,26.86 24.56,26.86 "/>
  <polygon class="fil11" points="24.56,26.65 24.78,26.65 24.78,26.86 24.56,26.86 "/>
  <polygon class="fil11" points="24.26,26.35 24.48,26.35 24.48,26.56 24.26,26.56 "/>
  <polygon class="fil11" points="24.26,26.35 24.48,26.35 24.48,26.56 24.26,26.56 "/>
  <polygon class="fil11" points="24.56,26.35 24.78,26.35 24.78,26.56 24.56,26.56 "/>
  <polygon class="fil11" points="24.56,26.35 24.78,26.35 24.78,26.56 24.56,26.56 "/>
  <path class="fil16" d="M9.47 18.56c0,0 0,-0.59 0,-0.59 0.02,-0.12 0.07,-0.15 0.13,-0.17 0.05,0.02 0.12,0.07 0.12,0.17 0,0 0,0.59 0,0.59l-0.25 0 0 0z"/>
  <path class="fil16" d="M9.47 18.56c0,0 0,-0.59 0,-0.59 0.02,-0.12 0.07,-0.15 0.13,-0.17 0.05,0.02 0.12,0.07 0.12,0.17 0,0 0,0.59 0,0.59l-0.25 0 0 0z"/>
  <path class="fil16" d="M9.06 18.56c0,0 0,-0.59 0,-0.59 0.02,-0.12 0.07,-0.15 0.13,-0.17 0.05,0.02 0.12,0.07 0.13,0.17 0,0 0,0.59 0,0.59l-0.26 0 0 0z"/>
  <path class="fil16" d="M8.66 18.56c0,0 0,-0.59 0,-0.59 0.01,-0.12 0.06,-0.15 0.12,-0.17 0.05,0.02 0.12,0.07 0.13,0.17 0,0 0,0.59 0,0.59l-0.25 0z"/>
  <path class="fil16" d="M8.25 18.56c0,0 0,-0.59 0,-0.59 0.01,-0.12 0.06,-0.15 0.12,-0.17 0.06,0.02 0.12,0.07 0.13,0.17 0,0 0,0.59 0,0.59l-0.25 0z"/>
  <path class="fil16" d="M31.15 16.1c0,0 0,-0.86 0,-0.86 0.03,-0.17 0.1,-0.22 0.18,-0.24 0.08,0.02 0.18,0.1 0.18,0.24 0,0 0,0.86 0,0.86l-0.36 0z"/>
  <path class="fil16" d="M30.49 16.11c0,0 0,-1.04 0,-1.04 0.03,-0.2 0.12,-0.26 0.21,-0.28 0.1,0.02 0.22,0.12 0.22,0.28 0,0 0,1.04 0,1.04l-0.43 0 0 0z"/>
  <path class="fil16" d="M29.88 16.1c0,0 0,-0.86 0,-0.86 0.03,-0.17 0.1,-0.22 0.18,-0.24 0.08,0.02 0.18,0.1 0.18,0.24 0,0 0,0.86 0,0.86l-0.36 0 0 0z"/>
  <path class="fil16" d="M37.97 16.08c0,0 0,-0.86 0,-0.86 0.03,-0.17 0.1,-0.21 0.18,-0.23 0.08,0.02 0.18,0.1 0.18,0.23 0,0 0,0.86 0,0.86l-0.36 0 0 0z"/>
  <path class="fil16" d="M37.31 16.09c0,0 0,-1.03 0,-1.03 0.03,-0.2 0.12,-0.26 0.21,-0.29 0.1,0.03 0.22,0.12 0.22,0.29 0,0 0,1.03 0,1.03l-0.43 0z"/>
  <path class="fil16" d="M36.7 16.08c0,0 0,-0.86 0,-0.86 0.03,-0.17 0.1,-0.21 0.18,-0.23 0.08,0.02 0.18,0.1 0.18,0.23 0,0 0,0.86 0,0.86l-0.36 0z"/>
  <path class="fil16" d="M22.32 19.73c0,0 0,-1.26 0,-1.26 0.03,-0.25 0.11,-0.32 0.2,-0.35 0.09,0.03 0.2,0.14 0.21,0.35 0,0 0,1.26 0,1.26l-0.41 0z"/>
  <path class="fil16" d="M21.56 19.73c0,0 0,-1.26 0,-1.26 0.03,-0.25 0.11,-0.32 0.2,-0.35 0.1,0.03 0.21,0.14 0.21,0.35 0,0 0,1.26 0,1.26l-0.41 0z"/>
  <path class="fil16" d="M20.82 19.73c0,0 0,-1.26 0,-1.26 0.03,-0.25 0.11,-0.32 0.2,-0.35 0.1,0.03 0.21,0.14 0.21,0.35 0,0 0,1.26 0,1.26l-0.41 0z"/>
  <path class="fil1" d="M12.07 1.77c-0.03,-0.04 -0.05,-0.08 -0.06,-0.11l-0.02 0.01 -0.01 0.01c-0.13,0.05 -0.26,0.11 -0.39,0.17l-0.01 0.01 -0.07 0.03c-0.12,0.05 -0.24,0.11 -0.35,0.17 -0.03,0.01 -0.06,0.03 -0.09,0.04l-0.01 0c0,0.05 0,0.02 -0.01,0.08 0,0 0,0 0,0 0,0 0,0.01 0,0.01 -0.03,0 -0.31,0.07 -0.35,0.11 0.02,0.03 0,0 0.03,0.03 0.04,0.04 0.15,0.04 0.2,0.04 0.22,0.02 0.37,0.01 0.58,-0.01 0.11,-0.02 0.21,0.06 0.33,0.06l0.61 0c0.06,0 0.29,-0.05 0.33,-0.11 0.04,-0.04 0.02,-0.04 0.08,-0.05 0.17,-0.03 0.36,0.01 0.53,0.01 0.08,0 0.18,-0.02 0.21,0.08 -0.03,0.01 -0.04,0 -0.06,0.01 -0.04,0.02 -0.04,0.02 -0.06,0.06 0.07,0.03 0.08,0.03 0.17,0.03 0.11,0 0.21,0.04 0.32,0.05 0.2,0.02 0.4,-0.01 0.6,-0.02 0.26,-0.01 0.52,0.08 0.8,0.07l0.03 -0.06c0.04,-0.05 0.13,-0.02 0.17,-0.02 0.11,0.03 0.67,0.01 0.78,0 0,-0.07 0.02,-0.06 -0.02,-0.08l0.16 -0.05c-0.02,-0.13 -0.03,-0.02 -0.05,-0.09 0.07,-0.04 0.15,-0.02 0.23,-0.04 0.05,-0.01 0.13,-0.05 0.2,-0.07 0.02,-0.06 0,-0.04 0.01,-0.08 0.02,-0.01 0.04,-0.02 0.07,-0.03 0.05,-0.03 0.03,-0.03 0.06,-0.05 -0.01,-0.02 0.01,-0.01 -0.03,-0.03 -0.03,-0.02 -0.07,-0.01 -0.1,-0.01 -0.06,-0.01 -0.09,-0.01 -0.14,-0.02 -0.1,0 -0.18,-0.01 -0.28,-0.02 -0.17,0 -0.31,-0.15 -0.47,-0.17 0.03,-0.07 0.07,-0.06 0.07,-0.16l-0.1 -0.06c0.03,-0.02 0.13,-0.01 0.14,-0.06 -0.01,-0.1 0.02,-0.03 -0.05,-0.07 -0.16,-0.08 -0.24,-0.07 -0.41,-0.07 -0.02,-0.07 -0.09,-0.11 -0.15,-0.12 -0.14,-0.02 -0.26,-0.06 -0.4,-0.09 -0.08,-0.02 -0.13,0.01 -0.21,0.01 -0.02,0.06 -0.09,0.09 -0.11,0.11 -0.02,0.01 0,0 -0.03,0.02 -0.09,0.05 -0.21,0.04 -0.32,0.05 0,0.01 0,0.01 0,0.02l-0.02 0.03c-0.01,0.03 0.02,0 -0.01,0.01 -0.05,0.01 -0.11,0 -0.16,0.01 -0.11,0.03 -0.18,0.17 -0.45,0.07 -0.07,-0.02 -0.14,0.02 -0.2,0.03 -0.07,0.02 -0.14,0 -0.22,0.03l-0.03 0.05c0.07,0.03 -0.04,-0.01 0.02,0.01 0.15,0.04 0.38,-0.07 0.5,-0.02 0.04,0.02 0.24,0.05 0.32,0.11 -0.05,0.09 -0.18,0.07 -0.29,0.07 -0.12,0 -0.2,0.03 -0.3,0.08 0.02,0.04 0.03,0.03 0.05,0.07l-0.26 0.02c-0.14,0.01 -0.12,-0.04 -0.2,-0.05 -0.13,-0.03 -0.49,-0.04 -0.63,-0.04 -0.17,0 -0.35,0.08 -0.5,0.03 0,0 0.02,-0.01 0.03,-0.05l0 0 0 0z"/>
  <path class="fil2" d="M12.07 1.77c-0.01,0.04 -0.03,0.05 -0.03,0.05 0.15,0.05 0.33,-0.03 0.5,-0.03 0.14,0 0.5,0.01 0.63,0.04 0.08,0.01 0.06,0.06 0.2,0.05l0.26 -0.02c-0.02,-0.04 -0.03,-0.03 -0.05,-0.07 0.1,-0.05 0.18,-0.08 0.3,-0.08 0.11,0 0.24,0.02 0.29,-0.07 -0.08,-0.06 -0.28,-0.09 -0.32,-0.11 -0.12,-0.05 -0.35,0.06 -0.5,0.02 -0.06,-0.02 0.05,0.02 -0.02,-0.01l0.03 -0.05c0.08,-0.03 0.15,-0.01 0.22,-0.03 0.06,-0.01 0.13,-0.05 0.2,-0.03 0.27,0.1 0.34,-0.04 0.45,-0.07 0.05,-0.01 0.11,0 0.16,-0.01 0.03,-0.01 -0.01,0.02 0.01,-0.01l0.02 -0.03c0,-0.01 0,-0.01 0,-0.02 0.11,-0.01 0.23,0 0.32,-0.05 0.03,-0.02 0.01,-0.01 0.03,-0.02 0.02,-0.02 0.09,-0.05 0.11,-0.11 0.08,0 0.13,-0.03 0.21,-0.01 0.14,0.03 0.26,0.07 0.4,0.09 0.06,0.01 0.13,0.05 0.15,0.12 0.17,0 0.25,-0.01 0.41,0.07 0.07,0.04 0.04,-0.03 0.05,0.07 -0.01,0.05 -0.11,0.04 -0.14,0.06l0.1 0.06c0,0.1 -0.04,0.09 -0.07,0.16 0.16,0.02 0.3,0.17 0.47,0.17 0.1,0.01 0.18,0.02 0.28,0.02 0.05,0.01 0.08,0.01 0.14,0.02 0.03,0 0.07,-0.01 0.1,0.01 0.04,0.02 0.02,0.01 0.03,0.03 -0.03,0.02 -0.01,0.02 -0.06,0.05 -0.03,0.01 -0.05,0.02 -0.07,0.03 -0.01,0.03 0.01,0.02 -0.01,0.08 -0.07,0.02 -0.15,0.06 -0.2,0.07 -0.08,0.02 -0.16,0 -0.23,0.04 0.02,0.07 0.03,-0.04 0.05,0.09l-0.16 0.05c0.03,0.02 0.02,0.01 0.02,0.08 -0.11,0.01 -0.67,0.03 -0.78,0 -0.04,0 -0.13,-0.03 -0.17,0.02l-0.03 0.06c-0.28,0.01 -0.54,-0.08 -0.8,-0.07 -0.2,0.01 -0.4,0.04 -0.6,0.02 -0.11,-0.01 -0.21,-0.05 -0.32,-0.05 -0.09,0 -0.1,0 -0.17,-0.03 0.02,-0.04 0.02,-0.04 0.06,-0.06 0.02,-0.01 0.03,0 0.06,-0.01 -0.03,-0.1 -0.13,-0.08 -0.21,-0.08 -0.17,0 -0.36,-0.04 -0.53,-0.01 -0.06,0.01 -0.04,0.01 -0.08,0.05 -0.04,0.05 -0.27,0.11 -0.33,0.11l-0.61 0c-0.12,0 -0.22,-0.08 -0.33,-0.06 -0.21,0.02 -0.37,0.03 -0.58,0.01 -0.05,0 -0.16,0 -0.2,-0.04 -0.03,-0.03 -0.01,0 -0.03,-0.03 0.04,-0.04 0.32,-0.11 0.35,-0.11 0,0 0,-0.01 0,-0.01 0,0 0,0 0,0 0.01,-0.06 0.01,-0.03 0.01,-0.08 -0.1,0.06 -0.2,0.11 -0.3,0.16 -0.06,0.03 -0.12,0.06 -0.18,0.09 -0.07,0.04 -0.14,0.08 -0.22,0.12 0.06,0.01 0.12,0.02 0.2,0.02 0.25,0 0.33,-0.09 0.67,-0.02 0.1,0.02 0.18,0.01 0.28,0.02l0.91 0.13c0.1,0.01 0.3,0.01 0.4,-0.01 0.08,-0.02 0.17,-0.07 0.24,-0.07 0.26,0 0.4,-0.03 0.63,0.03 0.06,0.01 0.1,0.02 0.16,0.03 0.08,0.01 0.06,0.05 0.14,0.05l0.53 -0.04c0.13,-0.02 0.2,0.04 0.33,0.04 0.14,0 0.12,0.01 0.25,-0.03 0.16,-0.04 0.25,-0.02 0.36,-0.04 0.17,-0.04 0.36,0.02 0.52,-0.02 0.08,-0.01 0.16,-0.01 0.24,-0.03 0.07,-0.02 0.18,-0.02 0.25,-0.02 0.15,-0.02 0.13,-0.04 0.2,-0.09 0.09,-0.08 0.49,0.04 0.68,-0.09 -0.01,-0.07 -0.03,-0.07 -0.04,-0.15l0.19 -0.14c0.03,-0.02 0.08,-0.01 0.08,-0.16 -0.07,-0.03 0.01,-0.03 -0.16,-0.03l-0.38 -0.02c-0.36,-0.09 -0.41,-0.07 -0.75,-0.08 -0.09,0 -0.09,-0.04 -0.16,-0.06 0.06,-0.13 0.24,-0.22 0.3,-0.23l0 -0.06 -0.35 -0.1c-0.05,-0.02 -0.19,-0.2 -0.46,-0.15 -0.17,0.04 -0.24,-0.04 -0.31,-0.05 -0.13,-0.03 -0.41,-0.09 -0.52,0.02 -0.03,0.02 0.01,0 -0.02,0.01 -0.02,0.02 -0.02,0.01 -0.04,0.02 -0.07,0.03 -0.01,0.05 -0.1,0.08l-0.43 0.06c-0.06,0 -0.08,0.02 -0.14,0.03 -0.11,0.02 -0.06,0.06 -0.11,0.06l0 0c-0.08,0 0,-0.06 -0.07,-0.06l-0.55 0.06c-0.03,0.01 -0.04,0.02 -0.07,0.03 -0.04,0 -0.06,0 -0.09,0.02 -0.03,0.02 -0.03,0.05 -0.16,0.05 -0.16,0 -0.37,0.01 -0.54,-0.01l-0.05 0.02 -0.01 0 0 0c-0.13,0.06 -0.26,0.11 -0.39,0.17l-0.01 0 0 0c0.01,0.03 0.03,0.07 0.06,0.11l0 0 0 0z"/>
  <path class="fil1" d="M12.07 1.77c-0.03,-0.04 -0.05,-0.08 -0.06,-0.11l-0.02 0.01 -0.01 0.01c-0.13,0.05 -0.26,0.11 -0.39,0.17l-0.01 0.01 -0.07 0.03c-0.12,0.05 -0.24,0.11 -0.35,0.17 -0.03,0.01 -0.06,0.03 -0.09,0.04l-0.01 0c0,0.05 0,0.02 -0.01,0.08 0,0 0,0 0,0 0,0 0,0.01 0,0.01 -0.03,0 -0.31,0.07 -0.35,0.11 0.02,0.03 0,0 0.03,0.03 0.04,0.04 0.15,0.04 0.2,0.04 0.22,0.02 0.37,0.01 0.58,-0.01 0.11,-0.02 0.21,0.06 0.33,0.06l0.61 0c0.06,0 0.29,-0.05 0.33,-0.11 0.04,-0.04 0.02,-0.04 0.08,-0.05 0.17,-0.03 0.36,0.01 0.53,0.01 0.08,0 0.18,-0.02 0.21,0.08 -0.03,0.01 -0.04,0 -0.06,0.01 -0.04,0.02 -0.04,0.02 -0.06,0.06 0.07,0.03 0.08,0.03 0.17,0.03 0.11,0 0.21,0.04 0.32,0.05 0.2,0.02 0.4,-0.01 0.6,-0.02 0.26,-0.01 0.52,0.08 0.8,0.07l0.03 -0.06c0.04,-0.05 0.13,-0.02 0.17,-0.02 0.11,0.03 0.67,0.01 0.78,0 0,-0.07 0.02,-0.06 -0.02,-0.08l0.16 -0.05c-0.02,-0.13 -0.03,-0.02 -0.05,-0.09 0.07,-0.04 0.15,-0.02 0.23,-0.04 0.05,-0.01 0.13,-0.05 0.2,-0.07 0.02,-0.06 0,-0.04 0.01,-0.08 0.02,-0.01 0.04,-0.02 0.07,-0.03 0.05,-0.03 0.03,-0.03 0.06,-0.05 -0.01,-0.02 0.01,-0.01 -0.03,-0.03 -0.03,-0.02 -0.07,-0.01 -0.1,-0.01 -0.06,-0.01 -0.09,-0.01 -0.14,-0.02 -0.1,0 -0.18,-0.01 -0.28,-0.02 -0.17,0 -0.31,-0.15 -0.47,-0.17 0.03,-0.07 0.07,-0.06 0.07,-0.16l-0.1 -0.06c0.03,-0.02 0.13,-0.01 0.14,-0.06 -0.01,-0.1 0.02,-0.03 -0.05,-0.07 -0.16,-0.08 -0.24,-0.07 -0.41,-0.07 -0.02,-0.07 -0.09,-0.11 -0.15,-0.12 -0.14,-0.02 -0.26,-0.06 -0.4,-0.09 -0.08,-0.02 -0.13,0.01 -0.21,0.01 -0.02,0.06 -0.09,0.09 -0.11,0.11 -0.02,0.01 0,0 -0.03,0.02 -0.09,0.05 -0.21,0.04 -0.32,0.05 0,0.01 0,0.01 0,0.02l-0.02 0.03c-0.01,0.03 0.02,0 -0.01,0.01 -0.05,0.01 -0.11,0 -0.16,0.01 -0.11,0.03 -0.18,0.17 -0.45,0.07 -0.07,-0.02 -0.14,0.02 -0.2,0.03 -0.07,0.02 -0.14,0 -0.22,0.03l-0.03 0.05c0.07,0.03 -0.04,-0.01 0.02,0.01 0.15,0.04 0.38,-0.07 0.5,-0.02 0.04,0.02 0.24,0.05 0.32,0.11 -0.05,0.09 -0.18,0.07 -0.29,0.07 -0.12,0 -0.2,0.03 -0.3,0.08 0.02,0.04 0.03,0.03 0.05,0.07l-0.26 0.02c-0.14,0.01 -0.12,-0.04 -0.2,-0.05 -0.13,-0.03 -0.49,-0.04 -0.63,-0.04 -0.17,0 -0.35,0.08 -0.5,0.03 0,0 0.02,-0.01 0.03,-0.05l0 0 0 0z"/>
  <path class="fil1" d="M33.07 5.34c0.07,-0.18 0.13,-0.27 0.18,-0.32l0.04 0.04c0.1,0.08 0.19,0.17 0.29,0.26 0.03,0.03 0.06,0.06 0.09,0.09 0.08,0.07 0.16,0.14 0.23,0.21 0.05,0.05 0.1,0.1 0.15,0.15 0.06,0.05 0.12,0.11 0.17,0.17 0.06,0.06 0.12,0.12 0.18,0.18 0.05,0.06 0.1,0.11 0.15,0.16l0 0c-0.03,0 -0.06,0 -0.08,0.01 -0.27,0.03 -0.45,0.01 -0.72,-0.03 -0.13,-0.03 -0.25,0.1 -0.4,0.1l-0.76 0c-0.08,0 -0.35,-0.09 -0.41,-0.17 -0.04,-0.06 -0.02,-0.06 -0.1,-0.08 -0.21,-0.05 -0.44,0.01 -0.64,0.02 -0.11,0 -0.23,-0.04 -0.26,0.11 0.03,0.02 0.04,0.02 0.07,0.03 0.04,0.02 0.05,0.03 0.07,0.09 -0.08,0.05 -0.1,0.04 -0.2,0.04 -0.14,0.01 -0.27,0.06 -0.41,0.08 -0.24,0.04 -0.49,-0.01 -0.73,-0.02 -0.33,-0.02 -0.65,0.12 -0.99,0.1l-0.04 -0.09c-0.05,-0.07 -0.16,-0.04 -0.21,-0.03 -0.14,0.04 -0.82,0.01 -0.96,-0.01 0,-0.1 -0.02,-0.09 0.02,-0.12l-0.19 -0.08c0.03,-0.19 0.03,-0.03 0.06,-0.14 -0.09,-0.06 -0.19,-0.02 -0.28,-0.06 -0.07,-0.02 -0.17,-0.07 -0.25,-0.11 -0.02,-0.1 0,-0.07 -0.01,-0.12 -0.03,-0.02 -0.06,-0.03 -0.09,-0.06 -0.07,-0.04 -0.03,-0.04 -0.08,-0.07 0.02,-0.03 -0.01,-0.01 0.04,-0.04 0.04,-0.03 0.09,-0.03 0.13,-0.03 0.07,0 0.11,-0.01 0.17,-0.02 0.12,-0.01 0.22,-0.02 0.35,-0.03 0.21,-0.01 0.37,-0.24 0.58,-0.27 -0.05,-0.11 -0.09,-0.09 -0.09,-0.24l0.12 -0.1c-0.04,-0.04 -0.15,-0.02 -0.17,-0.1 0.02,-0.16 -0.02,-0.05 0.06,-0.1 0.19,-0.14 0.3,-0.12 0.51,-0.12 0.03,-0.11 0.11,-0.17 0.18,-0.18 0.18,-0.04 0.33,-0.1 0.5,-0.15 0.1,-0.02 0.15,0.02 0.25,0.02 0.03,0.1 0.12,0.14 0.14,0.17 0.03,0.02 0,0 0.03,0.03 0.11,0.08 0.27,0.07 0.4,0.09 0,0.01 0,0.01 0,0.02l0.02 0.05c0.03,0.05 -0.02,0 0.02,0.02 0.06,0 0.14,0 0.19,0.02 0.14,0.04 0.23,0.25 0.56,0.1 0.09,-0.03 0.17,0.03 0.24,0.05 0.09,0.03 0.18,0 0.27,0.04l0.04 0.08c-0.08,0.05 0.06,-0.02 -0.02,0.02 -0.18,0.06 -0.47,-0.11 -0.61,-0.03 -0.05,0.03 -0.3,0.08 -0.4,0.17 0.07,0.14 0.22,0.11 0.36,0.11 0.15,0 0.24,0.05 0.36,0.12 -0.02,0.07 -0.03,0.04 -0.06,0.11l0.33 0.03c0.17,0.01 0.14,-0.05 0.24,-0.08 0.17,-0.05 0.61,-0.05 0.78,-0.05 0.21,0 0.43,0.12 0.63,0.04 -0.01,-0.01 -0.03,-0.02 -0.04,-0.08l0 0z"/>
  <path class="fil2" d="M33.07 5.34c0.01,0.06 0.03,0.07 0.04,0.08 -0.2,0.08 -0.42,-0.04 -0.63,-0.04 -0.17,0 -0.61,0 -0.78,0.05 -0.1,0.03 -0.07,0.09 -0.24,0.08l-0.32 -0.03c0.02,-0.07 0.03,-0.04 0.05,-0.11 -0.12,-0.07 -0.21,-0.12 -0.36,-0.12 -0.14,0 -0.29,0.03 -0.36,-0.11 0.1,-0.09 0.35,-0.14 0.4,-0.17 0.14,-0.08 0.43,0.09 0.61,0.03 0.08,-0.04 -0.06,0.03 0.02,-0.02l-0.04 -0.08c-0.09,-0.04 -0.18,-0.01 -0.27,-0.04 -0.07,-0.02 -0.15,-0.08 -0.24,-0.05 -0.33,0.15 -0.42,-0.06 -0.56,-0.1 -0.05,-0.02 -0.13,-0.02 -0.19,-0.02 -0.04,-0.02 0.01,0.03 -0.02,-0.02l-0.02 -0.05c0,-0.01 0,-0.01 0,-0.02 -0.13,-0.02 -0.29,-0.01 -0.4,-0.09 -0.03,-0.03 0,-0.01 -0.02,-0.03 -0.03,-0.03 -0.12,-0.07 -0.15,-0.17 -0.1,0 -0.15,-0.04 -0.25,-0.02 -0.17,0.05 -0.32,0.11 -0.5,0.15 -0.07,0.01 -0.15,0.07 -0.18,0.18 -0.21,0 -0.32,-0.02 -0.51,0.12 -0.08,0.05 -0.04,-0.06 -0.06,0.1 0.02,0.08 0.13,0.06 0.17,0.1l-0.12 0.1c0,0.15 0.04,0.13 0.09,0.24 -0.21,0.03 -0.37,0.26 -0.58,0.27 -0.13,0.01 -0.23,0.02 -0.35,0.03 -0.06,0.01 -0.1,0.02 -0.17,0.02 -0.04,0 -0.09,0 -0.13,0.02 -0.05,0.04 -0.02,0.02 -0.04,0.05 0.05,0.03 0.01,0.03 0.08,0.07 0.03,0.03 0.06,0.04 0.09,0.06 0.01,0.05 -0.01,0.02 0.01,0.12 0.08,0.04 0.18,0.09 0.25,0.11 0.09,0.04 0.19,0 0.28,0.06 -0.03,0.11 -0.03,-0.05 -0.06,0.14l0.19 0.08c-0.04,0.03 -0.02,0.02 -0.02,0.12 0.14,0.02 0.82,0.05 0.96,0.01 0.05,-0.01 0.16,-0.04 0.21,0.02l0.04 0.1c0.34,0.02 0.66,-0.12 0.99,-0.1 0.24,0.01 0.49,0.06 0.73,0.02 0.14,-0.02 0.27,-0.07 0.41,-0.08 0.1,0 0.12,0.01 0.2,-0.05 -0.02,-0.05 -0.03,-0.06 -0.07,-0.08 -0.03,-0.01 -0.04,-0.01 -0.07,-0.03 0.03,-0.15 0.15,-0.11 0.26,-0.11 0.2,-0.01 0.43,-0.07 0.64,-0.02 0.08,0.02 0.06,0.02 0.1,0.08 0.06,0.08 0.33,0.17 0.41,0.17l0.76 0c0.15,0 0.27,-0.13 0.4,-0.1 0.27,0.04 0.45,0.06 0.72,0.02 0.02,0 0.05,0 0.08,0l0 0c0.05,0.05 0.1,0.11 0.15,0.16l0 0c-0.17,-0.03 -0.3,-0.09 -0.6,-0.01 -0.13,0.03 -0.22,0.02 -0.34,0.04l-1.13 0.2c-0.13,0.02 -0.37,0.02 -0.49,-0.02 -0.1,-0.03 -0.21,-0.11 -0.3,-0.11 -0.31,0 -0.49,-0.03 -0.78,0.05 -0.07,0.02 -0.12,0.04 -0.19,0.05 -0.11,0.02 -0.07,0.08 -0.18,0.08l-0.65 -0.06c-0.16,-0.04 -0.25,0.06 -0.41,0.06 -0.17,0 -0.15,0.02 -0.31,-0.04 -0.19,-0.07 -0.31,-0.04 -0.44,-0.08 -0.21,-0.05 -0.44,0.04 -0.65,-0.02 -0.09,-0.02 -0.19,-0.02 -0.29,-0.05 -0.08,-0.02 -0.22,-0.02 -0.31,-0.04 -0.18,-0.02 -0.15,-0.05 -0.24,-0.14 -0.11,-0.12 -0.61,0.07 -0.84,-0.13 0.01,-0.11 0.04,-0.11 0.04,-0.23l-0.23 -0.23c-0.03,-0.03 -0.1,-0.01 -0.1,-0.25 0.09,-0.04 -0.02,-0.05 0.21,-0.05l0.46 -0.03c0.44,-0.13 0.51,-0.1 0.93,-0.12 0.11,0 0.11,-0.06 0.19,-0.1 -0.08,-0.2 -0.29,-0.34 -0.36,-0.35l0 -0.1 0.42 -0.16c0.07,-0.03 0.24,-0.3 0.57,-0.22 0.21,0.05 0.29,-0.06 0.39,-0.09 0.16,-0.04 0.51,-0.14 0.64,0.03 0.03,0.03 -0.01,0 0.03,0.03 0.02,0.02 0.02,0 0.04,0.02 0.09,0.04 0.01,0.09 0.12,0.13l0.54 0.09c0.07,0 0.1,0.03 0.16,0.04 0.14,0.03 0.08,0.11 0.14,0.11l0 0c0.11,0 0,-0.1 0.09,-0.1l0.68 0.09c0.04,0.02 0.05,0.03 0.09,0.04 0.04,0.02 0.07,0.01 0.1,0.03 0.04,0.04 0.04,0.09 0.21,0.09 0.25,0 0.58,0.02 0.81,-0.06 0.12,-0.04 0.14,-0.07 0.22,-0.08l0 0c0.1,0.09 0.2,0.17 0.3,0.26l0.01 0.01 0 0c-0.05,0.05 -0.11,0.14 -0.18,0.32l0 0 0 0z"/>
  <path class="fil1" d="M33.07 5.34c0.07,-0.18 0.13,-0.27 0.18,-0.32l0.04 0.04c0.1,0.08 0.19,0.17 0.29,0.26 0.03,0.03 0.06,0.06 0.09,0.09 0.08,0.07 0.16,0.14 0.23,0.21 0.05,0.05 0.1,0.1 0.15,0.15 0.06,0.05 0.12,0.11 0.17,0.17 0.06,0.06 0.12,0.12 0.18,0.18 0.05,0.06 0.1,0.11 0.15,0.16l0 0c-0.03,0 -0.06,0 -0.08,0.01 -0.27,0.03 -0.45,0.01 -0.72,-0.03 -0.13,-0.03 -0.25,0.1 -0.4,0.1l-0.76 0c-0.08,0 -0.35,-0.09 -0.41,-0.17 -0.04,-0.06 -0.02,-0.06 -0.1,-0.08 -0.21,-0.05 -0.44,0.01 -0.64,0.02 -0.11,0 -0.23,-0.04 -0.26,0.11 0.03,0.02 0.04,0.02 0.07,0.03 0.04,0.02 0.05,0.03 0.07,0.09 -0.08,0.05 -0.1,0.04 -0.2,0.04 -0.14,0.01 -0.27,0.06 -0.41,0.08 -0.24,0.04 -0.49,-0.01 -0.73,-0.02 -0.33,-0.02 -0.65,0.12 -0.99,0.1l-0.04 -0.09c-0.05,-0.07 -0.16,-0.04 -0.21,-0.03 -0.14,0.04 -0.82,0.01 -0.96,-0.01 0,-0.1 -0.02,-0.09 0.02,-0.12l-0.19 -0.08c0.03,-0.19 0.03,-0.03 0.06,-0.14 -0.09,-0.06 -0.19,-0.02 -0.28,-0.06 -0.07,-0.02 -0.17,-0.07 -0.25,-0.11 -0.02,-0.1 0,-0.07 -0.01,-0.12 -0.03,-0.02 -0.06,-0.03 -0.09,-0.06 -0.07,-0.04 -0.03,-0.04 -0.08,-0.07 0.02,-0.03 -0.01,-0.01 0.04,-0.04 0.04,-0.03 0.09,-0.03 0.13,-0.03 0.07,0 0.11,-0.01 0.17,-0.02 0.12,-0.01 0.22,-0.02 0.35,-0.03 0.21,-0.01 0.37,-0.24 0.58,-0.27 -0.05,-0.11 -0.09,-0.09 -0.09,-0.24l0.12 -0.1c-0.04,-0.04 -0.15,-0.02 -0.17,-0.1 0.02,-0.16 -0.02,-0.05 0.06,-0.1 0.19,-0.14 0.3,-0.12 0.51,-0.12 0.03,-0.11 0.11,-0.17 0.18,-0.18 0.18,-0.04 0.33,-0.1 0.5,-0.15 0.1,-0.02 0.15,0.02 0.25,0.02 0.03,0.1 0.12,0.14 0.14,0.17 0.03,0.02 0,0 0.03,0.03 0.11,0.08 0.27,0.07 0.4,0.09 0,0.01 0,0.01 0,0.02l0.02 0.05c0.03,0.05 -0.02,0 0.02,0.02 0.06,0 0.14,0 0.19,0.02 0.14,0.04 0.23,0.25 0.56,0.1 0.09,-0.03 0.17,0.03 0.24,0.05 0.09,0.03 0.18,0 0.27,0.04l0.04 0.08c-0.08,0.05 0.06,-0.02 -0.02,0.02 -0.18,0.06 -0.47,-0.11 -0.61,-0.03 -0.05,0.03 -0.3,0.08 -0.4,0.17 0.07,0.14 0.22,0.11 0.36,0.11 0.15,0 0.24,0.05 0.36,0.12 -0.02,0.07 -0.03,0.04 -0.06,0.11l0.33 0.03c0.17,0.01 0.14,-0.05 0.24,-0.08 0.17,-0.05 0.61,-0.05 0.78,-0.05 0.21,0 0.43,0.12 0.63,0.04 -0.01,-0.01 -0.03,-0.02 -0.04,-0.08l0 0z"/>
  <path class="fil17" d="M6.75 26.97c-0.17,0.62 -0.56,0.34 -1.11,0.34 -0.2,0.86 -0.98,1.08 -1.29,1.53 -0.66,0.96 0.2,2.33 0.09,2.74 -0.05,0.21 -0.22,0.35 -0.44,0.43l0 0c-0.02,-0.03 -0.04,-0.06 -0.06,-0.08 -0.07,-0.1 -0.14,-0.2 -0.21,-0.3 -0.03,-0.04 -0.06,-0.08 -0.09,-0.12 -0.05,-0.08 -0.11,-0.16 -0.16,-0.24 -0.05,-0.07 -0.1,-0.14 -0.14,-0.21 -0.03,-0.04 -0.07,-0.09 -0.1,-0.14 -0.06,-0.1 -0.13,-0.21 -0.2,-0.31l0 0c0.17,-0.75 0.32,-1.36 -0.45,-2.13 -1.06,-1.04 -0.46,-1.13 -1.26,-1.29 -0.02,-0.06 -0.04,-0.11 -0.06,-0.17 -0.04,-0.09 -0.07,-0.19 -0.1,-0.28 -0.03,-0.06 -0.05,-0.13 -0.07,-0.19 -0.03,-0.09 -0.06,-0.18 -0.09,-0.27 -0.02,-0.07 -0.05,-0.14 -0.07,-0.21 -0.03,-0.08 -0.05,-0.17 -0.08,-0.25 -0.02,-0.07 -0.04,-0.15 -0.06,-0.22 -0.03,-0.08 -0.05,-0.17 -0.08,-0.26 -0.02,-0.07 -0.04,-0.14 -0.06,-0.22 -0.02,-0.08 -0.04,-0.16 -0.06,-0.25 -0.02,-0.07 -0.04,-0.15 -0.06,-0.22 -0.02,-0.09 -0.04,-0.17 -0.06,-0.26 -0.01,-0.08 -0.03,-0.15 -0.04,-0.23 -0.02,-0.08 -0.04,-0.17 -0.06,-0.26 -0.01,-0.07 -0.03,-0.15 -0.04,-0.22 -0.02,-0.09 -0.03,-0.18 -0.05,-0.27 -0.01,-0.08 -0.03,-0.15 -0.04,-0.23 -0.01,-0.09 -0.03,-0.18 -0.04,-0.27 -0.01,-0.08 -0.02,-0.15 -0.03,-0.23 -0.01,-0.09 -0.02,-0.17 -0.03,-0.26 -0.01,-0.08 -0.02,-0.17 -0.03,-0.25 -0.01,-0.08 -0.02,-0.16 -0.03,-0.23l0 0c0.18,-0.27 0.32,-0.27 0.68,-0.27 0,-1.08 0.26,-0.53 0.26,-0.85 0,-1 -0.33,-0.39 0.27,-1.35 0.1,-0.18 0.02,-0.05 0.1,-0.24 0.14,-0.3 0.16,-0.23 0.31,-0.46 1.44,0 0.66,-0.85 1.79,-0.85 0.49,0 1.25,0.82 1.58,0.98 0.78,0.37 0.27,-0.17 0.87,0.75l0.81 0.73c0.41,0.26 0.63,0.01 1.08,0.46 0.77,0.75 0.74,0.61 0.79,1.34 0.05,0.67 0.56,0.88 0.1,1.48 -0.33,0.43 -0.21,0.12 -0.35,0.76 -0.15,0.71 -0.54,0.19 -0.52,1.52 0.01,0.9 -0.24,1.03 -1.11,1.03l0 0 0 0z"/>
  <path class="fil18" d="M7.88 29.24c-0.32,-0.28 -0.84,-0.69 -1.29,-0.55 -0.83,0.33 -1.19,1.06 -1.22,1.65l0 1.88 -0.35 0 0 -2.06c0.03,-0.59 0.57,-1.5 1.39,-1.82 0.14,-0.05 0.18,-0.05 0.34,0 0.15,0.04 0.4,0.08 0.56,0.2 0.23,0.16 0.45,0.44 0.57,0.7l0 0z"/>
  <path class="fil19" d="M10.1 25.09l0 7.13 -1.89 0 0 -2.06c0.01,-0.51 -0.56,-1.55 -1.46,-1.82 -0.16,-0.05 -0.2,-0.05 -0.34,0 -0.82,0.32 -1.36,1.23 -1.39,1.82l0 2.06 -0.85 0c-1.63,-2.11 -2.84,-4.54 -3.52,-7.13l9.45 0z"/>
  <path class="fil20" d="M29.71 22.95l0 9.26 1.89 0 0 -2.05c-0.01,-0.51 0.56,-1.55 1.46,-1.82 0.16,-0.05 0.2,-0.05 0.34,0 0.83,0.32 1.37,1.23 1.39,1.82l0 2.05 1.05 0c1.64,-2.13 2.86,-4.59 3.54,-7.27l-9.67 -1.99z"/>
  <g id="_45200805632">
   <polygon class="fil21" points="30.19,25.14 29.72,25.14 29.72,25 30.19,25 "/>
   <polygon class="fil22" points="29.72,25.14 30.58,25.14 30.58,22.96 29.72,22.96 "/>
  </g>
  <g id="_45200817504">
   <polygon class="fil23" points="12.22,14.51 12.93,14.51 12.76,14.12 12.7,13.62 12.7,10.25 12.91,10.25 12.91,10.09 12.7,10.09 12.7,9.89 12.5,9.89 12.5,10.09 12.3,10.09 12.3,10.25 12.5,10.25 12.5,13.62 12.4,14.12 "/>
   <polygon class="fil24" points="9.56,19 15.71,19 12.93,14.51 12.22,14.51 "/>
   <polygon class="fil25" points="9.56,19 15.71,19 15.25,19.52 10.1,19.52 "/>
   <rect class="fil26" x="10.1" y="19.52" width="5.15" height="12.69"/>
   <rect class="fil27" x="10.1" y="19.52" width="5.15" height="12.69"/>
  </g>
  <g id="_45200803840">
   <path id="pt16" class="fil28" d="M12.93 14.51l0.07 0.21 2.31 3.74c-0.01,0.18 0.31,0.36 0.27,0.53l-1.16 0.01c-0.02,0 -0.16,-0.07 -0.18,-0.08 -0.08,-0.03 -0.15,-0.09 -0.21,-0.15 -0.06,-0.05 -0.1,-0.12 -0.14,-0.23 -0.05,-0.11 -0.09,-0.26 -0.14,-0.45 -0.04,-0.19 -0.09,-0.42 -0.13,-0.6 -0.05,-0.2 -0.1,-0.36 -0.14,-0.47 -0.04,-0.11 -0.07,-0.18 -0.1,-0.22 -0.03,-0.04 -0.06,-0.07 -0.11,-0.06 -0.04,0 -0.1,0.03 -0.15,0.09 -0.05,0.06 -0.11,0.14 -0.15,0.24 -0.05,0.09 -0.1,0.2 -0.13,0.27 -0.04,0.07 -0.07,0.1 -0.1,0.11 -0.02,0.01 -0.15,-0.02 -0.16,-0.05 -0.02,-0.04 -0.04,-0.08 -0.07,-0.24 -0.02,-0.16 -0.07,-0.43 -0.09,-0.69 -0.08,-0.6 -0.21,-1.15 -0.29,-1.81 0.03,-0.05 0.06,-0.1 0.09,-0.15 0.22,-0.04 0.44,-0.04 0.66,-0.13l0.05 0.13 0 0z"/>
   <path id="pt15" class="fil29" d="M12.8 14.19l0.26 0.52 2.16 3.61c0.03,0.19 0.15,0.48 0.15,0.68l-0.28 0c-0.02,-0.06 -0.04,-0.12 -0.06,-0.17 -0.04,-0.1 -0.08,-0.18 -0.13,-0.26 -0.05,-0.07 -0.1,-0.13 -0.16,-0.18 -0.05,-0.04 -0.12,-0.08 -0.19,-0.1 -0.07,-0.03 -0.14,-0.05 -0.22,-0.08 -0.07,-0.04 -0.14,-0.09 -0.2,-0.15 -0.06,-0.06 -0.1,-0.12 -0.15,-0.23 -0.04,-0.11 -0.09,-0.26 -0.13,-0.45 -0.05,-0.19 -0.09,-0.42 -0.14,-0.61 -0.04,-0.19 -0.09,-0.35 -0.13,-0.46 -0.04,-0.12 -0.07,-0.18 -0.1,-0.23 -0.03,-0.04 -0.07,-0.06 -0.11,-0.06 -0.04,0.01 -0.1,0.04 -0.15,0.1 -0.05,0.05 -0.1,0.14 -0.16,0.24 -0.04,0.09 -0.09,0.2 -0.13,0.27 -0.03,0.07 -0.06,0.1 -0.08,0.1 -0.03,0.01 -0.16,-0.01 -0.18,-0.05 -0.02,-0.03 -0.03,-0.07 -0.06,-0.23 -0.03,-0.16 -0.07,-0.44 -0.1,-0.69 -0.05,-0.45 -0.17,-0.86 -0.22,-1.25l0.51 -0.32z"/>
   <path id="pt14" class="fil30" d="M15.3 19c-0.05,-0.16 -0.1,-0.35 -0.12,-0.39 -0.02,-0.09 -0.06,-0.2 -0.1,-0.29 -0.04,-0.1 -0.08,-0.18 -0.13,-0.26 -0.05,-0.07 -0.1,-0.13 -0.16,-0.18 -0.06,-0.04 -0.12,-0.07 -0.19,-0.1 -0.07,-0.03 -0.15,-0.05 -0.22,-0.09 -0.07,-0.03 -0.14,-0.08 -0.2,-0.14 -0.06,-0.06 -0.1,-0.12 -0.15,-0.23 -0.04,-0.11 -0.09,-0.26 -0.13,-0.45 -0.05,-0.19 -0.09,-0.42 -0.14,-0.61 -0.04,-0.19 -0.09,-0.35 -0.13,-0.46 -0.04,-0.11 -0.07,-0.18 -0.1,-0.23 -0.03,-0.04 -0.07,-0.06 -0.11,-0.06 -0.05,0.01 -0.1,0.04 -0.15,0.1 -0.05,0.06 -0.11,0.14 -0.15,0.23 -0.06,0.1 -0.1,0.2 -0.14,0.27 -0.03,0.08 -0.06,0.11 -0.09,0.12 -0.02,0 -0.15,-0.02 -0.17,-0.06 -0.02,-0.03 -0.03,-0.08 -0.06,-0.23 -0.03,-0.16 -0.07,-0.43 -0.1,-0.69 -0.03,-0.26 -0.15,-0.63 -0.17,-0.77 -0.01,-0.01 0.19,-0.2 0.24,-0.25 0.05,-0.04 0.07,-0.2 0.11,-0.31 0.04,0.12 0.04,0.24 0.11,0.35l2.86 4.73 -0.41 0 0 0z"/>
  </g>
  <g id="_45170832736">
   <path class="fil31" d="M8.21 32.22l0 -2.06c0.01,-0.51 -0.56,-1.55 -1.46,-1.82 -0.16,-0.05 -0.2,-0.05 -0.34,0 -0.82,0.32 -1.36,1.23 -1.39,1.82l0 2.06 -0.36 0 0 -2.08c0.03,-0.73 0.7,-1.84 1.7,-2.24 0.18,-0.05 0.23,-0.05 0.42,0 1.11,0.34 1.8,1.61 1.79,2.24l0 2.08 -0.36 0 0 0z"/>
   <polygon class="fil18" points="5.47,26.27 5.84,26.27 5.84,27.25 5.47,27.25 "/>
   <polygon class="fil32" points="5.26,26.04 5.47,26.27 5.84,26.27 6.06,26.04 "/>
   <polygon class="fil33" points="5.26,26.04 5.47,26.27 5.47,27.25 5.26,27.48 "/>
   <polygon class="fil34" points="5.26,27.48 5.47,27.25 5.84,27.25 6.06,27.48 "/>
   <polygon class="fil35" points="6.06,27.48 5.84,27.25 5.84,26.27 6.06,26.04 6.06,27.48 "/>
   <polygon class="fil18" points="7.5,26.27 7.87,26.27 7.87,27.25 7.5,27.25 "/>
   <polygon class="fil32" points="7.29,26.04 7.5,26.27 7.87,26.27 8.08,26.04 7.29,26.04 "/>
   <polygon class="fil33" points="7.29,26.04 7.5,26.27 7.5,27.25 7.29,27.48 "/>
   <polygon class="fil34" points="7.29,27.48 7.5,27.25 7.87,27.25 8.08,27.48 7.29,27.48 "/>
   <polygon class="fil35" points="8.08,27.48 7.87,27.25 7.87,26.27 8.08,26.04 8.08,27.48 "/>
   <polygon class="fil36" points="13.98,20.56 14.27,20.56 14.27,21.45 13.98,21.45 "/>
   <polygon class="fil32" points="13.81,20.35 13.98,20.56 14.27,20.56 14.44,20.36 13.81,20.35 "/>
   <polygon class="fil33" points="13.81,20.35 13.98,20.56 13.98,21.45 13.81,21.65 13.81,20.35 "/>
   <polygon class="fil34" points="13.81,21.65 13.98,21.45 14.27,21.45 14.44,21.65 "/>
   <polygon class="fil35" points="14.44,21.65 14.27,21.45 14.27,20.56 14.44,20.36 "/>
   <polygon class="fil36" points="10.98,20.54 11.23,20.54 11.23,21.46 10.98,21.46 "/>
   <polygon class="fil32" points="10.83,20.33 10.98,20.54 11.23,20.54 11.37,20.33 "/>
   <polygon class="fil33" points="10.83,20.33 10.98,20.54 10.98,21.46 10.83,21.68 10.83,20.33 "/>
   <polygon class="fil34" points="10.83,21.68 10.98,21.46 11.23,21.46 11.37,21.68 "/>
   <polygon class="fil35" points="11.37,21.68 11.23,21.46 11.23,20.54 11.37,20.33 "/>
  </g>
  <g id="_45170799648">
   <g>
    <path class="fil37" d="M10.09 22.97l0.5 2.17 -9.92 0c-0.03,-0.09 -0.05,-0.19 -0.08,-0.29 -0.01,-0.06 -0.03,-0.12 -0.04,-0.19 -0.03,-0.09 -0.05,-0.19 -0.07,-0.28 -0.01,-0.07 -0.03,-0.15 -0.04,-0.22 -0.02,-0.08 -0.04,-0.17 -0.06,-0.25 -0.01,-0.09 -0.03,-0.17 -0.04,-0.25 -0.02,-0.08 -0.03,-0.15 -0.05,-0.23 -0.01,-0.1 -0.03,-0.19 -0.04,-0.28 -0.01,-0.07 -0.02,-0.13 -0.03,-0.19l0 0 9.87 0.01 0 0z"/>
    <path class="fil38" d="M0.67 25.14l9.92 0 0 0.16 -9.88 0c-0.01,-0.05 -0.03,-0.1 -0.04,-0.16l0 0 0 0 0 0z"/>
   </g>
   <g>
    <path id="pt11" class="fil39" d="M3.91 22.96c0.1,0.04 0.18,0.1 0.31,0.11l5.23 1.74c0.06,0.09 0.32,0.24 0.32,0.33l-0.63 0c-0.04,-0.03 -0.09,-0.05 -0.14,-0.08 -0.09,-0.05 -0.19,-0.09 -0.3,-0.12 -0.12,-0.04 -0.25,-0.07 -0.39,-0.09 -0.13,-0.02 -0.28,-0.04 -0.44,-0.05 -0.16,-0.01 -0.34,-0.02 -0.52,-0.04 -0.17,-0.02 -0.33,-0.04 -0.47,-0.07 -0.13,-0.03 -0.24,-0.06 -0.34,-0.11 -0.11,-0.06 -0.22,-0.13 -0.32,-0.22 -0.11,-0.09 -0.21,-0.2 -0.32,-0.3 -0.11,-0.09 -0.22,-0.17 -0.31,-0.22 -0.1,-0.06 -0.17,-0.09 -0.24,-0.11 -0.07,-0.02 -0.15,-0.03 -0.26,-0.03 -0.1,0.01 -0.22,0.02 -0.35,0.05 -0.12,0.02 -0.24,0.07 -0.37,0.11 -0.11,0.05 -0.22,0.1 -0.31,0.13 -0.08,0.04 -0.14,0.05 -0.2,0.06 -0.07,0 -0.36,-0.01 -0.41,-0.03 -0.05,-0.01 -0.08,-0.04 -0.14,-0.11 -0.07,-0.08 -0.17,-0.21 -0.24,-0.33 -0.11,-0.22 -0.39,-0.43 -0.52,-0.62l1.36 0 0 0z"/>
    <path id="pt10" class="fil30" d="M9.62 25.14c-0.1,-0.08 -0.23,-0.17 -0.26,-0.19 -0.07,-0.04 -0.15,-0.09 -0.24,-0.14 -0.1,-0.04 -0.2,-0.08 -0.31,-0.12 -0.12,-0.03 -0.25,-0.06 -0.39,-0.09 -0.13,-0.02 -0.28,-0.03 -0.44,-0.05 -0.16,-0.01 -0.34,-0.02 -0.52,-0.04 -0.17,-0.01 -0.33,-0.04 -0.47,-0.07 -0.13,-0.03 -0.24,-0.06 -0.34,-0.11 -0.11,-0.05 -0.22,-0.12 -0.32,-0.22 -0.11,-0.09 -0.21,-0.2 -0.32,-0.29 -0.1,-0.09 -0.22,-0.17 -0.31,-0.23 -0.09,-0.05 -0.16,-0.08 -0.24,-0.11 -0.07,-0.02 -0.15,-0.02 -0.26,-0.02 -0.1,0 -0.22,0.01 -0.35,0.04 -0.12,0.03 -0.24,0.07 -0.35,0.12 -0.13,0.04 -0.24,0.09 -0.32,0.13 -0.09,0.03 -0.15,0.05 -0.21,0.05 -0.06,0 -0.36,-0.01 -0.41,-0.02 -0.04,-0.02 -0.07,-0.04 -0.14,-0.12 -0.07,-0.07 -0.16,-0.21 -0.23,-0.33 -0.07,-0.12 -0.17,-0.3 -0.22,-0.37 -0.01,-0.01 6.56,0.01 7.12,0.01l0.5 2.17 -0.97 0 0 0z"/>
   </g>
  </g>
  <g id="_45170790848">
   <polygon class="fil18" points="11.98,23.79 12.34,23.79 12.34,24.78 11.98,24.78 "/>
   <polygon class="fil32" points="11.76,23.57 11.98,23.79 12.34,23.79 12.56,23.57 11.76,23.57 "/>
   <polygon class="fil33" points="11.76,23.57 11.98,23.79 11.98,24.78 11.76,25.01 "/>
   <polygon class="fil34" points="11.76,25.01 11.98,24.78 12.34,24.78 12.56,25.01 11.76,25.01 "/>
   <polygon class="fil35" points="12.56,25.01 12.34,24.78 12.34,23.79 12.56,23.57 "/>
  </g>
  <g id="_45170800928">
   <path class="fil37" d="M10.09 22.97l0.5 2.17 -9.92 0c-0.03,-0.09 -0.05,-0.19 -0.08,-0.29 -0.01,-0.06 -0.03,-0.12 -0.04,-0.19 -0.03,-0.09 -0.05,-0.19 -0.07,-0.28 -0.01,-0.07 -0.03,-0.15 -0.04,-0.22 -0.02,-0.08 -0.04,-0.17 -0.06,-0.25 -0.01,-0.09 -0.03,-0.17 -0.04,-0.25 -0.02,-0.08 -0.03,-0.15 -0.05,-0.23 -0.01,-0.1 -0.03,-0.19 -0.04,-0.28 -0.01,-0.07 -0.02,-0.13 -0.03,-0.19l0 0 9.87 0.01 0 0z"/>
   <path id="pt9" class="fil40" d="M2.97 22.96c0.34,0.01 0.92,0.09 1.25,0.11l5.43 1.81c-0.03,0.09 -0.09,0.17 -0.19,0.26l-1.92 0 0 0c-0.14,-0.01 -0.28,-0.02 -0.41,-0.04 -0.18,-0.01 -0.35,-0.04 -0.48,-0.07 -0.14,-0.02 -0.23,-0.06 -0.34,-0.11 -0.11,-0.05 -0.22,-0.12 -0.33,-0.22 -0.09,-0.09 -0.19,-0.2 -0.3,-0.29 -0.12,-0.09 -0.22,-0.17 -0.32,-0.22 -0.1,-0.06 -0.17,-0.09 -0.24,-0.11 -0.07,-0.02 -0.15,-0.04 -0.25,-0.03 -0.11,0 -0.24,0.02 -0.37,0.04 -0.12,0.03 -0.24,0.07 -0.35,0.12 -0.11,0.04 -0.23,0.09 -0.31,0.13 -0.09,0.03 -0.15,0.05 -0.22,0.05 -0.06,0.01 -0.36,-0.01 -0.39,-0.02 -0.05,-0.02 -0.09,-0.04 -0.15,-0.12 -0.06,-0.07 -0.17,-0.21 -0.23,-0.33 -0.19,-0.29 -0.53,-0.64 -0.72,-0.96l0.84 0 0 0z"/>
   <path id="pt8" class="fil39" d="M3.91 22.96c0.1,0.04 0.18,0.1 0.31,0.11l5.23 1.74c0.06,0.09 0.32,0.24 0.32,0.33l-0.63 0c-0.04,-0.03 -0.09,-0.05 -0.14,-0.08 -0.09,-0.05 -0.19,-0.09 -0.3,-0.12 -0.12,-0.04 -0.25,-0.07 -0.39,-0.09 -0.13,-0.02 -0.28,-0.04 -0.44,-0.05 -0.16,-0.01 -0.34,-0.02 -0.52,-0.04 -0.17,-0.02 -0.33,-0.04 -0.47,-0.07 -0.13,-0.03 -0.24,-0.06 -0.34,-0.11 -0.11,-0.06 -0.22,-0.13 -0.32,-0.22 -0.11,-0.09 -0.21,-0.2 -0.32,-0.3 -0.11,-0.09 -0.22,-0.17 -0.31,-0.22 -0.1,-0.06 -0.17,-0.09 -0.24,-0.11 -0.07,-0.02 -0.15,-0.03 -0.26,-0.03 -0.1,0.01 -0.22,0.02 -0.35,0.05 -0.12,0.02 -0.24,0.07 -0.37,0.11 -0.11,0.05 -0.22,0.1 -0.31,0.13 -0.08,0.04 -0.14,0.05 -0.2,0.06 -0.07,0 -0.36,-0.01 -0.41,-0.03 -0.05,-0.01 -0.08,-0.04 -0.14,-0.11 -0.07,-0.08 -0.17,-0.21 -0.24,-0.33 -0.11,-0.22 -0.39,-0.43 -0.52,-0.62l1.36 0 0 0z"/>
   <path id="pt7" class="fil30" d="M9.62 25.14c-0.1,-0.08 -0.23,-0.17 -0.26,-0.19 -0.07,-0.04 -0.15,-0.09 -0.24,-0.14 -0.1,-0.04 -0.2,-0.08 -0.31,-0.12 -0.12,-0.03 -0.25,-0.06 -0.39,-0.09 -0.13,-0.02 -0.28,-0.03 -0.44,-0.05 -0.16,-0.01 -0.34,-0.02 -0.52,-0.04 -0.17,-0.01 -0.33,-0.04 -0.47,-0.07 -0.13,-0.03 -0.24,-0.06 -0.34,-0.11 -0.11,-0.05 -0.22,-0.12 -0.32,-0.22 -0.11,-0.09 -0.21,-0.2 -0.32,-0.29 -0.1,-0.09 -0.22,-0.17 -0.31,-0.23 -0.09,-0.05 -0.16,-0.08 -0.24,-0.11 -0.07,-0.02 -0.15,-0.02 -0.26,-0.02 -0.1,0 -0.22,0.01 -0.35,0.04 -0.12,0.03 -0.24,0.07 -0.35,0.12 -0.13,0.04 -0.24,0.09 -0.32,0.13 -0.09,0.03 -0.15,0.05 -0.21,0.05 -0.06,0 -0.36,-0.01 -0.41,-0.02 -0.04,-0.02 -0.07,-0.04 -0.14,-0.12 -0.07,-0.07 -0.16,-0.21 -0.23,-0.33 -0.07,-0.12 -0.17,-0.3 -0.22,-0.37 -0.01,-0.01 6.56,0.01 7.12,0.01l0.5 2.17 -0.97 0 0 0z"/>
  </g>
  <g id="_45170795840">
   <path class="fil41" d="M39.84 22.57c0.02,-0.17 0.04,-0.34 0.06,-0.51 0.01,-0.17 0.03,-0.34 0.04,-0.51 0.01,-0.17 0.02,-0.34 0.03,-0.52 0.01,-0.17 0.02,-0.34 0.02,-0.51 0.01,-0.17 0.01,-0.35 0.01,-0.52 0,-0.16 0,-0.33 -0.01,-0.49 0,-0.16 -0.01,-0.31 -0.01,-0.46 -0.01,-0.06 -0.01,-0.13 -0.01,-0.19 -0.01,-0.21 -0.03,-0.42 -0.05,-0.62l0 -0.03 0 -0.03c-0.46,0.06 -1.14,0.79 -1.45,0.93 -0.74,0.36 -0.25,-0.16 -0.82,0.72l-0.78 0.69c-0.39,0.26 -0.59,0.02 -1.02,0.44 -0.73,0.71 -0.71,0.58 -0.76,1.28 -0.04,0.64 -0.53,0.84 -0.09,1.4 0.25,0.33 0.23,0.21 0.28,0.46 2.69,0.55 4.04,2.48 4.56,-1.53l0 0z"/>
   <path class="fil42" d="M39.78 22.97c0.17,-1.57 0.28,-3.15 0.14,-4.73 -0.02,-0.3 -1.31,0.81 -1.45,0.87 -0.36,0.19 -0.48,0.02 -0.82,0.72l-0.78 0.69c-0.39,0.26 -0.59,0.02 -1.02,0.44 -0.73,0.71 -0.71,0.58 -0.76,1.28 -0.04,0.64 -0.53,0.84 -0.09,1.4 0,0 4.77,-0.63 4.78,-0.67l0 0z"/>
  </g>
  <g id="_45170800448">
   <path class="fil43" d="M39.72 22.97l0.03 0.11c-0.12,0.7 -0.27,1.39 -0.45,2.06l-9.11 0c-0.19,-0.71 -0.35,-1.44 -0.47,-2.19l10 0.02z"/>
   <g>
    <path id="pt4" class="fil44" d="M33.54 22.96c0.1,0.04 0.18,0.1 0.31,0.11l5.23 1.74c0.04,0.06 0.16,0.14 0.25,0.22 -0.01,0.04 -0.02,0.07 -0.03,0.11l-0.52 0c-0.05,-0.03 -0.1,-0.05 -0.14,-0.08 -0.1,-0.05 -0.19,-0.09 -0.31,-0.12 -0.12,-0.04 -0.25,-0.07 -0.39,-0.09 -0.12,-0.02 -0.27,-0.04 -0.44,-0.05 -0.16,-0.01 -0.34,-0.02 -0.51,-0.04 -0.18,-0.02 -0.34,-0.04 -0.48,-0.07 -0.13,-0.03 -0.23,-0.06 -0.34,-0.11 -0.11,-0.06 -0.22,-0.13 -0.32,-0.22 -0.11,-0.09 -0.21,-0.2 -0.32,-0.3 -0.11,-0.09 -0.22,-0.17 -0.31,-0.22 -0.1,-0.06 -0.17,-0.09 -0.24,-0.11 -0.07,-0.02 -0.15,-0.03 -0.25,-0.03 -0.11,0.01 -0.23,0.02 -0.36,0.05 -0.12,0.02 -0.24,0.07 -0.37,0.11 -0.11,0.05 -0.22,0.1 -0.31,0.13 -0.07,0.04 -0.14,0.05 -0.2,0.06 -0.07,0 -0.36,-0.01 -0.41,-0.03 -0.04,-0.01 -0.08,-0.04 -0.14,-0.11 -0.07,-0.08 -0.17,-0.21 -0.23,-0.33 -0.12,-0.22 -0.4,-0.43 -0.53,-0.62l1.36 0 0 0z"/>
    <path id="pt3" class="fil30" d="M39.26 25.14c-0.11,-0.08 -0.24,-0.17 -0.27,-0.19 -0.06,-0.04 -0.15,-0.09 -0.24,-0.14 -0.1,-0.04 -0.19,-0.08 -0.31,-0.12 -0.12,-0.03 -0.25,-0.06 -0.39,-0.09 -0.12,-0.02 -0.27,-0.03 -0.43,-0.05 -0.17,-0.01 -0.35,-0.02 -0.52,-0.04 -0.18,-0.01 -0.34,-0.04 -0.48,-0.07 -0.13,-0.03 -0.23,-0.06 -0.34,-0.11 -0.11,-0.05 -0.22,-0.12 -0.31,-0.22 -0.11,-0.09 -0.22,-0.2 -0.33,-0.29 -0.09,-0.09 -0.22,-0.17 -0.31,-0.23 -0.09,-0.05 -0.16,-0.08 -0.24,-0.11 -0.07,-0.02 -0.15,-0.02 -0.25,-0.02 -0.11,0 -0.23,0.01 -0.35,0.04 -0.13,0.03 -0.25,0.07 -0.36,0.12 -0.13,0.04 -0.24,0.09 -0.31,0.13 -0.09,0.03 -0.16,0.05 -0.22,0.05 -0.05,0 -0.36,-0.01 -0.4,-0.02 -0.05,-0.02 -0.08,-0.04 -0.15,-0.12 -0.06,-0.07 -0.15,-0.21 -0.23,-0.33 -0.07,-0.12 -0.17,-0.3 -0.22,-0.37 0,-0.01 6.57,0.01 7.12,0.01l0.03 0.1c-0.12,0.71 -0.27,1.39 -0.45,2.07l-0.04 0 0 0z"/>
   </g>
   <g>
    <path class="fil45" d="M39.33 25.14l-9.12 0c-0.2,-0.71 -0.36,-1.44 -0.49,-2.19l10.06 0.02 0 0c-0.01,0.05 -0.02,0.1 -0.02,0.16 -0.02,0.1 -0.04,0.21 -0.06,0.32 -0.01,0.06 -0.02,0.13 -0.03,0.19 -0.02,0.09 -0.04,0.19 -0.06,0.28 -0.01,0.08 -0.03,0.15 -0.04,0.23 -0.02,0.08 -0.04,0.16 -0.05,0.24 -0.02,0.09 -0.04,0.18 -0.07,0.26 -0.01,0.07 -0.03,0.14 -0.04,0.2 -0.03,0.1 -0.05,0.2 -0.08,0.29l0 0z"/>
    <path class="fil46" d="M30.19 25.14l9.14 0 0 0 0 0c-0.01,0.06 -0.03,0.11 -0.04,0.16l-9.05 0c-0.02,-0.05 -0.03,-0.1 -0.05,-0.16l0 0z"/>
   </g>
  </g>
  <g id="_45170801728">
   <path id="pt1" class="fil47" d="M39.75 23.17c-0.38,-0.07 -0.82,-0.14 -1.13,-0.2l-0.21 0 -7.38 0.31c0.01,0.1 -0.9,0.43 -1.13,0.61 0.02,0.11 0.05,0.21 0.07,0.32l0.12 0.24c1.11,-0.95 2.29,-0.47 3.54,-0.14l0 0c0.17,0.04 0.35,0.08 0.53,0.11 0.23,0.04 0.46,0.06 0.63,0.07 0.19,0.02 0.32,0.01 0.47,-0.01 0.16,-0.03 0.32,-0.08 0.5,-0.15 0.16,-0.08 0.32,-0.18 0.5,-0.25 0.17,-0.08 0.34,-0.13 0.48,-0.16 0.14,-0.04 0.24,-0.05 0.34,-0.05 0.1,0 0.2,0.01 0.33,0.05 0.13,0.03 0.3,0.1 0.45,0.18 0.15,0.07 0.29,0.17 0.41,0.26 0.13,0.09 0.25,0.19 0.35,0.26 0.1,0.07 0.17,0.11 0.25,0.14 0.07,0.02 0.46,0.11 0.51,0.11 0.01,0 0.02,0 0.02,0l0 0c0.02,-0.08 0.04,-0.15 0.06,-0.22 0.02,-0.09 0.04,-0.17 0.06,-0.26 0.01,-0.08 0.03,-0.16 0.05,-0.23 0.01,-0.09 0.03,-0.17 0.05,-0.25 0.01,-0.08 0.03,-0.17 0.04,-0.25 0.02,-0.08 0.03,-0.16 0.05,-0.24 0.01,-0.08 0.03,-0.17 0.04,-0.25l0 0 0 0z"/>
   <path id="pa9" class="fil30" d="M30.97 23.6c0.16,-0.07 0.37,-0.12 0.41,-0.13 0.1,-0.03 0.22,-0.06 0.36,-0.09 0.14,-0.02 0.27,-0.04 0.44,-0.04 0.16,0 0.33,0.01 0.52,0.03 0.17,0.01 0.36,0.05 0.57,0.09 0.21,0.04 0.45,0.09 0.68,0.13 0.22,0.03 0.44,0.06 0.63,0.07 0.17,0.01 0.31,0.01 0.47,-0.01 0.16,-0.03 0.32,-0.08 0.48,-0.16 0.17,-0.07 0.34,-0.17 0.51,-0.24 0.16,-0.08 0.34,-0.13 0.48,-0.16 0.13,-0.04 0.23,-0.06 0.35,-0.05 0.09,0 0.2,0.01 0.33,0.05 0.13,0.04 0.28,0.1 0.43,0.17 0.15,0.08 0.29,0.17 0.41,0.27 0.14,0.09 0.26,0.19 0.35,0.26 0.1,0.07 0.18,0.12 0.25,0.14 0.08,0.02 0.46,0.11 0.53,0.11 0.07,-0.01 0.11,-0.02 0.23,-0.09 0.06,-0.05 0.15,-0.11 0.24,-0.18 0.03,-0.14 0.05,-0.27 0.08,-0.41 0.01,-0.06 0.02,-0.12 0.03,-0.18 0.01,-0.07 0.02,-0.14 0.03,-0.21l-10.06 -0.02c0.07,0.4 0.15,0.8 0.24,1.2 0.11,-0.14 0.24,-0.2 0.71,-0.37 0.1,-0.04 0.2,-0.13 0.3,-0.18l0 0z"/>
  </g>
  <g id="_45170800736">
   <polygon class="fil48" points="24.22,19 30.36,19 27.59,14.51 26.87,14.51 "/>
   <polygon class="fil49" points="24.22,19 30.36,19 29.9,19.52 24.76,19.52 "/>
   <rect class="fil50" x="24.76" y="19.52" width="5.15" height="12.69"/>
   <rect class="fil51" x="24.76" y="19.52" width="5.15" height="12.69"/>
   <g>
    <polygon class="fil52" points="27.59,14.51 26.88,14.51 27.05,14.12 27.11,13.62 27.11,10.25 26.91,10.25 26.91,10.09 27.11,10.09 27.11,9.89 27.31,9.89 27.31,10.09 27.51,10.09 27.51,10.25 27.31,10.25 27.31,13.62 27.41,14.12 "/>
    <g>
     <polygon class="fil36" points="25.54,20.56 25.83,20.56 25.83,21.45 25.54,21.45 "/>
     <polygon class="fil32" points="25.38,20.35 25.54,20.56 25.83,20.56 26,20.36 25.38,20.35 "/>
     <polygon class="fil33" points="25.38,20.35 25.54,20.56 25.54,21.45 25.38,21.65 25.38,20.35 "/>
     <polygon class="fil34" points="25.38,21.65 25.54,21.45 25.83,21.45 26,21.65 "/>
     <polygon class="fil35" points="26,21.65 25.83,21.45 25.83,20.56 26,20.36 "/>
     <polygon class="fil36" points="28.59,20.54 28.84,20.54 28.84,21.46 28.59,21.46 "/>
     <polygon class="fil32" points="28.44,20.33 28.59,20.54 28.84,20.54 28.98,20.33 "/>
     <polygon class="fil33" points="28.44,20.33 28.59,20.54 28.59,21.46 28.44,21.68 28.44,20.33 "/>
     <polygon class="fil34" points="28.44,21.68 28.59,21.46 28.84,21.46 28.98,21.68 "/>
     <polygon class="fil35" points="28.98,21.68 28.84,21.46 28.84,20.54 28.98,20.33 "/>
     <polygon class="fil18" points="27.47,23.79 27.84,23.79 27.84,24.78 27.47,24.78 "/>
     <polygon class="fil32" points="27.26,23.57 27.47,23.79 27.84,23.79 28.05,23.57 "/>
     <polygon class="fil33" points="27.26,23.57 27.47,23.79 27.47,24.78 27.26,25.01 "/>
     <polygon class="fil34" points="27.26,25.01 27.47,24.78 27.84,24.78 28.05,25.01 "/>
     <polygon class="fil35" points="28.05,25.01 27.84,24.78 27.84,23.79 28.05,23.57 "/>
    </g>
   </g>
  </g>
  <g id="_45200752192">
   <path id="P4" class="fil53" d="M27.13 14.51c0.14,0.02 0.43,0.13 0.57,0.18l2.31 3.73c0.03,0.07 -0.63,0.48 -1.14,-0.42 -0.05,-0.11 -0.14,-0.33 -0.36,-0.33 -0.24,0 -0.57,0.82 -0.59,0.17 -0.04,-0.19 -0.09,-0.35 -0.13,-0.46 -0.04,-0.12 -0.07,-0.18 -0.1,-0.23 -0.07,-0.09 -0.16,0.12 -0.24,0.28 -0.06,0.11 -0.18,0.37 -0.22,0.38 -0.19,0.04 -0.21,-0.17 -0.23,-0.29 -0.03,-0.16 -0.07,-0.44 -0.1,-0.69 -0.08,-0.61 -0.81,-0.24 -0.89,-0.91l0.87 -1.41 0.25 0 0 0z"/>
   <path id="P3" class="fil54" d="M27.7 14.69l2.24 3.62c-0.34,0.24 -0.83,-0.48 -1.1,-0.76 -0.58,-0.61 -0.55,0.18 -0.73,-0.08 -0.1,-0.15 -0.09,-0.66 -0.13,-0.77 -0.03,-0.08 -0.06,-0.2 -0.17,-0.18 -0.19,0.03 -0.2,0.24 -0.26,0.37 -0.11,0.2 -0.22,0.54 -0.39,0.54 -0.16,-0.02 -0.12,-1.13 -0.14,-1.34 -0.04,-0.37 -0.75,-0.19 -0.76,-0.58l0 0 0.31 -0.5c0.16,-0.24 0.31,-0.47 0.31,-0.5l0.36 0c0.53,0 0.29,0.12 0.46,0.18l0 0z"/>
   <path id="P2" class="fil30" d="M28.91 17.4c-0.07,-0.04 -0.19,-0.15 -0.25,-0.21 -0.06,-0.06 -0.15,-0.23 -0.15,-0.23 -0.78,-1.38 -0.71,-0.88 -1.17,-0.1 -0.14,0.26 -0.04,-0.68 -0.06,-0.8 -0.03,-0.16 -0.4,-0.39 -0.44,-0.65 -0.04,-0.3 0.1,-0.44 -0.18,-0.55 0.07,-0.12 0.14,-0.23 0.21,-0.35 0.26,-0.05 0.38,-0.18 0.54,-0.39l0.18 0.38 2.17 3.51c-0.41,-0.15 -0.61,-0.48 -0.85,-0.61l0 0z"/>
  </g>
  <g id="_45167999456">
   <path class="fil18" d="M34.46 29.23c-0.31,-0.29 -0.83,-0.69 -1.29,-0.55 -0.82,0.32 -1.18,1.05 -1.21,1.65l0 1.88 -0.36 0 0 -2.06c0.03,-0.6 0.57,-1.5 1.39,-1.83 0.15,-0.04 0.18,-0.04 0.35,0 0.14,0.05 0.39,0.09 0.55,0.21 0.23,0.16 0.45,0.44 0.57,0.7l0 0z"/>
   <path class="fil55" d="M31.6 32.21l0 -2.05c-0.01,-0.51 0.56,-1.55 1.46,-1.82 0.16,-0.05 0.2,-0.05 0.34,0 0.83,0.32 1.37,1.23 1.39,1.82l0 2.05 0.36 0 0 -2.07c-0.03,-0.73 -0.69,-1.84 -1.7,-2.24 -0.18,-0.05 -0.22,-0.05 -0.42,0 -1.1,0.34 -1.8,1.61 -1.79,2.24l0 2.07 0.36 0 0 0z"/>
   <polygon class="fil18" points="33.97,26.27 34.34,26.27 34.34,27.25 33.97,27.25 "/>
   <polygon class="fil32" points="33.76,26.04 33.97,26.27 34.34,26.27 34.55,26.04 33.76,26.04 "/>
   <polygon class="fil33" points="33.76,26.04 33.97,26.27 33.97,27.25 33.76,27.48 "/>
   <polygon class="fil34" points="33.76,27.48 33.97,27.25 34.34,27.25 34.55,27.48 33.76,27.48 "/>
   <polygon class="fil35" points="34.55,27.48 34.34,27.25 34.34,26.27 34.55,26.04 34.55,27.48 "/>
   <polygon class="fil18" points="31.94,26.27 32.31,26.27 32.31,27.25 31.94,27.25 "/>
   <polygon class="fil32" points="31.73,26.04 31.94,26.27 32.31,26.27 32.53,26.04 "/>
   <polygon class="fil33" points="31.73,26.04 31.94,26.27 31.94,27.25 31.73,27.48 "/>
   <polygon class="fil34" points="31.73,27.48 31.94,27.25 32.31,27.25 32.53,27.48 "/>
   <polygon class="fil35" points="32.53,27.48 32.31,27.25 32.31,26.27 32.53,26.04 32.53,27.48 "/>
  </g>
  <g id="_45170759456">
   <g>
    <g>
     <polygon class="fil56" points="21.79,4.96 21.79,4.96 22.34,15.99 22.78,16.78 22.78,17.11 22.95,17.11 22.95,16.87 23.07,16.68 23.17,14.47 23.27,16.68 23.33,16.94 23.33,17.53 23.17,17.67 23.17,17.84 20.4,17.84 20.4,17.67 20.24,17.53 20.24,16.94 20.38,16.68 20.5,14.47 20.62,16.68 20.72,16.87 20.72,17.11 20.84,17.11 20.84,16.78 21.31,15.99 "/>
     <path class="fil57" d="M9.83 17.47l-1.72 0 0 -0.01 -0.21 0 0.21 -0.37 0.11 -1.32 0.07 0.75 0.2 -0.41c0.15,-2.51 0.24,-5.07 0.48,-7.57 0.27,2.44 0.34,5.08 0.5,7.55l0.12 0.41 0.13 -0.77 0.11 1.34 0.19 0.33 -0.19 0 0 0.07 0 0z"/>
    </g>
    <g>
     <path class="fil58" d="M30.75 10.54l0.03 0 0 -0.02 0.05 0 0 -0.02 0.02 0 0 -0.01 0.01 0 0 -0.02 0.02 0 0 -0.01 0.01 0 0 -0.04 0.02 0 0 -0.14 -0.02 0 0 -0.03 -0.01 0 0 -0.02 -0.02 0 0 -0.01 -0.01 0 0 -0.02 -0.04 0 0 -0.02 -0.06 0 0 -0.59 0.21 0 0 -0.09 -0.21 0 0 -0.2 -0.1 0 0 0.2 -0.2 0 0 0.09 0.2 0 0 0.59 -0.06 0 0 0.02 -0.03 0 0 0.02 -0.02 0 0 0.01 -0.01 0 0 0.02 -0.02 0 0 0.03 -0.02 0 0 0.14 0.02 0 0 0.04 0.02 0 0 0.01 0.01 0 0 0.02 0.02 0 0 0.01 0.01 0 0 0.02 0.05 0 0 0.02 0.03 0c0,0.84 0.1,0.88 0.1,0z"/>
     <path class="fil56" d="M30.61 10.7c0,0.01 0,0.39 0,0.43 0,0.16 -0.01,0.26 -0.05,0.39 -0.04,0.19 -0.15,0.49 -0.27,0.61 -0.08,0.08 -0.14,0.16 -0.23,0.2 -0.47,0.17 -0.99,0.64 -1.01,1.17 0,0.27 0.12,0.82 0.43,0.9l0.44 0 1.74 0 0.28 0c0.04,-0.01 0.08,-0.03 0.1,-0.06 0.05,-0.05 0.16,-0.21 0.18,-0.26 0.35,-0.72 -0.07,-1.3 -0.69,-1.67 -0.19,-0.11 -0.34,-0.1 -0.49,-0.39 -0.16,-0.31 -0.16,-0.3 -0.23,-0.65 -0.04,-0.2 0,-0.55 -0.02,-0.64 0,-0.02 -0.02,-0.03 -0.04,-0.03l-0.1 0c-0.02,0 -0.04,0 -0.04,0l0 0z"/>
     <path class="fil58" d="M37.59 10.57l0.03 0 0 -0.01 0.01 0 0 0c-0.04,-0.08 -0.08,-0.16 -0.13,-0.24l0 0 0 -0.01 -0.05 -0.08 0 0 0 -0.01 -0.02 0 0 0.02 -0.04 0 0 0.01 -0.01 0 0 0.02 -0.02 0 0 0.02 -0.01 0 0 0.03 -0.02 0 0 0.14 0.02 0 0 0.03 0.01 0 0 0.02 0.02 0 0 0.02 0.01 0 0 0.01 0.02 0 0 0.02 0.05 0 0 0.01 0.03 0c0,0.85 0.1,0.88 0.1,0l0 0z"/>
     <path class="fil56" d="M37.45 10.74c-0.01,0.01 -0.01,0.39 -0.01,0.43 0,0.16 -0.01,0.26 -0.04,0.39 -0.05,0.19 -0.15,0.48 -0.27,0.61 -0.08,0.07 -0.14,0.16 -0.24,0.2 -0.46,0.17 -0.99,0.64 -1.01,1.17 0,0.26 0.13,0.81 0.43,0.89l0.44 0 1.75 0 0.27 0c0.04,-0.01 0.08,-0.02 0.11,-0.05 0.1,-0.11 0.17,-0.22 0.22,-0.33l0 0c-0.05,-0.15 -0.09,-0.3 -0.14,-0.45l-0.02 -0.04c-0.04,-0.13 -0.09,-0.26 -0.14,-0.39 -0.01,-0.03 -0.02,-0.07 -0.03,-0.1 -0.04,-0.11 -0.09,-0.22 -0.13,-0.33 -0.02,-0.05 -0.04,-0.1 -0.06,-0.15 -0.07,-0.05 -0.14,-0.1 -0.22,-0.14 -0.18,-0.11 -0.33,-0.1 -0.48,-0.39 -0.17,-0.31 -0.16,-0.3 -0.23,-0.65 -0.04,-0.2 -0.01,-0.55 -0.02,-0.64 0,-0.02 -0.02,-0.03 -0.04,-0.03l-0.11 0c-0.02,0 -0.03,0 -0.03,0l0 0z"/>
     <path class="fil58" d="M34.22 7.82l0.05 0 0 -0.02 0.06 0 0 -0.03 0.02 0 0 -0.02 0.02 0 0 -0.02 0.02 0 0 -0.02 0.02 0 0 -0.04 0.03 0 0 -0.19 -0.03 0 0 -0.05 -0.02 0 0 -0.02 -0.02 0 0 -0.02 -0.02 0 0 -0.02 -0.04 0 0 -0.02 -0.09 0 0 -0.79 0.28 0 0 -0.13 -0.28 0 0 -0.25 -0.12 0 0 0.25 -0.28 0 0 0.13 0.28 0 0 0.79 -0.09 0 0 0.02 -0.04 0 0 0.02 -0.02 0 0 0.02 -0.02 0 0 0.02 -0.03 0 0 0.05 -0.02 0 0 0.19 0.02 0 0 0.04 0.03 0 0 0.02 0.02 0 0 0.02 0.02 0 0 0.02 0.02 0 0 0.03 0.06 0 0 0.02 0.05 0c0,1.12 0.12,1.17 0.12,0l0 0z"/>
     <path class="fil56" d="M34.04 7.99c-0.01,0.01 -0.01,0.52 -0.01,0.58 0,0.22 -0.01,0.35 -0.06,0.53 -0.06,0.26 -0.2,0.66 -0.37,0.82 -0.1,0.11 -0.19,0.23 -0.32,0.28 -0.63,0.23 -1.34,0.86 -1.36,1.58 0,0.36 0.16,1.11 0.58,1.22l0.6 0 2.36 0 0.37 0c0.06,-0.02 0.11,-0.04 0.15,-0.08 0.06,-0.07 0.21,-0.28 0.24,-0.35 0.47,-0.98 -0.09,-1.77 -0.94,-2.27 -0.25,-0.15 -0.45,-0.13 -0.66,-0.53 -0.22,-0.41 -0.22,-0.4 -0.31,-0.87 -0.06,-0.27 -0.01,-0.75 -0.03,-0.87 0,-0.03 -0.02,-0.04 -0.05,-0.05l-0.14 0c-0.03,0.01 -0.05,0.01 -0.05,0.01l0 0z"/>
     <path class="fil16" d="M34.81 15.32c0,0 0,-1.23 0,-1.23 0.04,-0.24 0.14,-0.31 0.25,-0.34 0.12,0.03 0.26,0.14 0.27,0.34 0,0 0,1.23 0,1.23l-0.52 0z"/>
     <path class="fil16" d="M33.86 15.33c0,0 0,-1.48 0,-1.48 0.04,-0.29 0.17,-0.37 0.31,-0.4 0.13,0.03 0.3,0.17 0.31,0.4 0,0 0,1.48 0,1.48l-0.62 0z"/>
     <path class="fil16" d="M32.99 15.32c0,0 0,-1.23 0,-1.23 0.04,-0.24 0.14,-0.31 0.26,-0.34 0.11,0.03 0.25,0.14 0.26,0.34 0,0 0,1.23 0,1.23l-0.52 0z"/>
     <polygon class="fil59" points="20.39,23.26 15.25,23.26 15.25,25.13 20.39,25.13 "/>
    </g>
   </g>
   <g>
    <polygon class="fil60" points="29.5,14.5 31.93,14.5 31.93,14.39 29.5,14.39 "/>
    <polygon class="fil60" points="36.32,14.54 38.75,14.54 38.75,14.43 36.32,14.43 "/>
    <polygon class="fil60" points="32.44,13.1 35.85,13.1 35.85,12.98 32.44,12.98 "/>
   </g>
  </g>
  <path class="fil61" d="M4.17 32.22l31.67 -0.01 0 0c-0.17,0.22 -0.34,0.44 -0.52,0.65l-0.01 0.01c-0.12,0.14 -0.23,0.27 -0.35,0.4l-0.02 0.03c-0.3,0.34 -0.62,0.67 -0.94,0.98l-0.04 0.04c-0.12,0.12 -0.24,0.23 -0.36,0.34l-0.03 0.03c-0.2,0.19 -0.4,0.36 -0.61,0.54 -0.02,0.02 -0.04,0.03 -0.06,0.05 -0.11,0.1 -0.23,0.19 -0.34,0.28 -0.03,0.03 -0.05,0.05 -0.08,0.07 -0.12,0.09 -0.23,0.18 -0.35,0.27 -0.02,0.02 -0.05,0.04 -0.07,0.05 -0.06,0.05 -0.13,0.1 -0.2,0.15 -0.03,0.03 -0.06,0.05 -0.1,0.08 -0.1,0.07 -0.21,0.15 -0.32,0.22 -0.04,0.03 -0.08,0.06 -0.12,0.09 -0.09,0.06 -0.19,0.13 -0.29,0.2 -0.05,0.03 -0.1,0.06 -0.14,0.09 -0.07,0.04 -0.13,0.08 -0.19,0.12 -0.09,0.05 -0.17,0.11 -0.26,0.16 -0.06,0.04 -0.12,0.07 -0.18,0.11 -0.06,0.03 -0.12,0.07 -0.17,0.1 -0.09,0.05 -0.17,0.1 -0.26,0.15 -0.06,0.04 -0.13,0.07 -0.19,0.11 -0.05,0.03 -0.11,0.06 -0.17,0.09 -0.09,0.05 -0.19,0.1 -0.29,0.15 -0.05,0.03 -0.11,0.06 -0.16,0.08 -0.1,0.05 -0.19,0.1 -0.29,0.15 -0.05,0.02 -0.11,0.05 -0.16,0.08 -0.08,0.03 -0.16,0.07 -0.24,0.11 -0.06,0.02 -0.11,0.05 -0.16,0.07 -0.1,0.05 -0.2,0.09 -0.3,0.13 -0.05,0.02 -0.1,0.04 -0.15,0.06 -0.11,0.05 -0.22,0.1 -0.33,0.14 -0.05,0.02 -0.09,0.04 -0.14,0.05 -0.1,0.04 -0.21,0.08 -0.31,0.12 -0.04,0.02 -0.09,0.03 -0.13,0.05 -0.11,0.04 -0.21,0.08 -0.32,0.11 -0.04,0.02 -0.08,0.03 -0.12,0.04 -0.12,0.04 -0.24,0.08 -0.37,0.12 -0.04,0.01 -0.08,0.03 -0.12,0.04 -0.12,0.04 -0.25,0.08 -0.38,0.11 -0.03,0.01 -0.06,0.02 -0.09,0.03 -0.12,0.03 -0.24,0.06 -0.35,0.09 -0.03,0.01 -0.06,0.02 -0.08,0.03 -0.14,0.03 -0.27,0.06 -0.4,0.09 -0.04,0.01 -0.08,0.02 -0.11,0.03 -0.13,0.03 -0.27,0.06 -0.4,0.09 -0.03,0 -0.07,0.01 -0.1,0.01 -0.14,0.03 -0.28,0.06 -0.42,0.09l-0.03 0c-0.14,0.03 -0.28,0.05 -0.42,0.07 -0.03,0.01 -0.06,0.01 -0.09,0.01 -0.14,0.03 -0.28,0.05 -0.42,0.06 -0.03,0.01 -0.06,0.01 -0.09,0.02 -0.15,0.01 -0.29,0.03 -0.44,0.04 -0.02,0.01 -0.04,0.01 -0.06,0.01 -0.14,0.01 -0.28,0.03 -0.42,0.04 -0.02,0 -0.04,0 -0.06,0 -0.14,0.01 -0.29,0.02 -0.44,0.03 -0.03,0 -0.06,0 -0.09,0.01 -0.15,0 -0.3,0.01 -0.44,0.01 -0.03,0 -0.06,0 -0.08,0 -0.16,0.01 -0.31,0.01 -0.47,0.01 -0.16,0 -0.31,0 -0.47,-0.01 -0.02,0 -0.05,0 -0.08,0 -0.14,0 -0.29,-0.01 -0.44,-0.01 -0.03,-0.01 -0.06,-0.01 -0.09,-0.01 -0.15,-0.01 -0.29,-0.02 -0.44,-0.03 -0.02,0 -0.04,0 -0.06,0 -0.14,-0.01 -0.28,-0.03 -0.43,-0.04 -0.01,0 -0.03,0 -0.05,-0.01 -0.15,-0.01 -0.29,-0.03 -0.44,-0.04 -0.03,-0.01 -0.06,-0.01 -0.09,-0.02 -0.14,-0.01 -0.28,-0.03 -0.42,-0.06 -0.03,0 -0.06,0 -0.09,-0.01 -0.14,-0.02 -0.28,-0.04 -0.42,-0.07l-0.04 -0.01c-0.14,-0.02 -0.27,-0.05 -0.41,-0.08 -0.03,0 -0.06,-0.01 -0.1,-0.01 -0.13,-0.03 -0.26,-0.06 -0.4,-0.09 -0.03,-0.01 -0.07,-0.02 -0.1,-0.03 -0.14,-0.03 -0.27,-0.06 -0.4,-0.09 -0.03,-0.01 -0.06,-0.02 -0.09,-0.03 -0.12,-0.03 -0.23,-0.06 -0.35,-0.09 -0.03,-0.01 -0.06,-0.02 -0.09,-0.03 -0.13,-0.03 -0.26,-0.07 -0.38,-0.11 -0.04,-0.01 -0.08,-0.02 -0.12,-0.04 -0.13,-0.04 -0.25,-0.08 -0.37,-0.12 -0.04,-0.01 -0.08,-0.02 -0.12,-0.04 -0.11,-0.03 -0.22,-0.07 -0.33,-0.11 -0.04,-0.02 -0.08,-0.03 -0.12,-0.05 -0.1,-0.04 -0.21,-0.08 -0.31,-0.12 -0.05,-0.01 -0.09,-0.03 -0.13,-0.05 -0.11,-0.04 -0.23,-0.09 -0.34,-0.13 -0.05,-0.02 -0.09,-0.04 -0.14,-0.07 -0.11,-0.04 -0.22,-0.09 -0.33,-0.14 -0.04,-0.02 -0.09,-0.04 -0.14,-0.06 -0.08,-0.04 -0.16,-0.08 -0.24,-0.12 -0.06,-0.02 -0.11,-0.05 -0.16,-0.07 -0.1,-0.05 -0.2,-0.1 -0.29,-0.15 -0.05,-0.02 -0.11,-0.05 -0.16,-0.08 -0.1,-0.05 -0.19,-0.1 -0.29,-0.15 -0.06,-0.03 -0.11,-0.06 -0.16,-0.09 -0.07,-0.04 -0.14,-0.08 -0.21,-0.11 -0.08,-0.05 -0.16,-0.1 -0.24,-0.14 -0.06,-0.04 -0.12,-0.07 -0.18,-0.11 -0.06,-0.04 -0.12,-0.07 -0.18,-0.11 -0.08,-0.05 -0.17,-0.1 -0.26,-0.16 -0.06,-0.04 -0.12,-0.08 -0.18,-0.12 -0.05,-0.03 -0.11,-0.07 -0.16,-0.1 -0.09,-0.06 -0.18,-0.12 -0.27,-0.19 -0.05,-0.03 -0.09,-0.06 -0.13,-0.09 -0.1,-0.07 -0.2,-0.14 -0.3,-0.21 -0.04,-0.03 -0.08,-0.06 -0.12,-0.09 -0.07,-0.04 -0.13,-0.09 -0.19,-0.14 -0.03,-0.02 -0.06,-0.04 -0.09,-0.07 -0.11,-0.08 -0.22,-0.17 -0.33,-0.25 -0.03,-0.03 -0.06,-0.05 -0.09,-0.08 -0.11,-0.09 -0.22,-0.17 -0.32,-0.26 -0.03,-0.03 -0.06,-0.05 -0.08,-0.07 -0.2,-0.17 -0.4,-0.35 -0.6,-0.53 -0.01,-0.01 -0.02,-0.02 -0.04,-0.04 -0.11,-0.1 -0.23,-0.21 -0.34,-0.32 -0.02,-0.02 -0.04,-0.04 -0.06,-0.06 -0.12,-0.11 -0.23,-0.23 -0.35,-0.35l-0.02 -0.02c-0.19,-0.2 -0.38,-0.4 -0.56,-0.6l-0.03 -0.03c-0.11,-0.13 -0.22,-0.26 -0.33,-0.38l-0.02 -0.04c-0.18,-0.21 -0.35,-0.42 -0.52,-0.64l0 0 0 0z"/>
  <g id="_45170766016">
   <path id="pa8" class="fil62" d="M24.56 26c-0.05,0.06 -0.1,0.05 -0.17,-0.17 -0.02,-0.05 -0.04,-0.09 -0.05,-0.11 -0.02,-0.02 -0.04,-0.03 -0.06,-0.03 -0.02,0 -0.05,0.02 -0.07,0.05 -0.03,0.03 -0.06,0.07 -0.08,0.12 -0.03,0.05 -0.05,0.1 -0.07,0.13 -0.02,0.04 -0.03,0.06 -0.04,0.06 -0.12,0.03 -0.14,-0.06 -0.16,-0.15 -0.01,-0.07 -0.03,-0.21 -0.05,-0.34 -0.01,-0.13 -0.03,-0.3 -0.03,-0.32 -0.03,-0.24 -0.28,-0.12 -0.43,-0.14l0.08 -0.16 0.5 -1.01 0.16 0 0 0 0.05 0c0.04,0.03 0.08,0.06 0.11,0.08l0.31 0.63 0 1.36 0 0z"/>
   <path id="pa7" class="fil62" d="M24.56 26c-0.05,0.06 -0.1,0.05 -0.17,-0.17 -0.02,-0.05 -0.04,-0.09 -0.05,-0.11 -0.02,-0.02 -0.04,-0.03 -0.06,-0.03 -0.02,0 -0.05,0.02 -0.07,0.05 -0.03,0.03 -0.06,0.07 -0.08,0.12 -0.03,0.05 -0.05,0.1 -0.07,0.13 -0.02,0.04 -0.03,0.06 -0.04,0.06 -0.12,0.03 -0.14,-0.06 -0.16,-0.15 -0.01,-0.07 -0.03,-0.21 -0.05,-0.34 -0.01,-0.13 -0.03,-0.3 -0.03,-0.32 -0.03,-0.24 -0.28,-0.12 -0.43,-0.14l0.08 -0.16 0.5 -1.01 0.16 0 0 0 0.05 0c0.04,0.03 0.08,0.06 0.11,0.08l0.31 0.63 0 1.36 0 0z"/>
   <path id="pa5" class="fil63" d="M24.03 23.93c0.06,0.01 0.15,0.06 0.22,0.09l0.31 0.62 0 1.03c-0.07,0.08 -0.12,0.13 -0.13,-0.05 -0.02,-0.1 -0.04,-0.18 -0.06,-0.24 -0.02,-0.06 -0.04,-0.09 -0.06,-0.11 -0.03,-0.05 -0.08,0.06 -0.12,0.14 -0.03,0.06 -0.09,0.18 -0.11,0.19 -0.09,0.02 -0.1,-0.09 -0.11,-0.15 -0.02,-0.08 -0.04,-0.22 -0.05,-0.34 -0.04,-0.26 -0.3,-0.18 -0.41,-0.33l0.42 -0.85 0.1 0 0 0z"/>
   <path id="pa4" class="fil64" d="M24.56 25.46c-0.01,-0.01 -0.02,-0.01 -0.03,-0.03 -0.05,-0.08 -0.05,-0.33 -0.07,-0.39 -0.01,-0.04 -0.03,-0.1 -0.08,-0.09 -0.1,0.01 -0.1,0.12 -0.14,0.19 -0.05,0.1 -0.1,0.27 -0.19,0.27 -0.08,-0.01 -0.06,-0.57 -0.07,-0.68 -0.02,-0.14 -0.25,-0.12 -0.34,-0.2l0.29 -0.6 0.16 0 0.12 0 0.35 0.71 0 0.82 0 0z"/>
   <path id="pa1" class="fil30" d="M24.56 24.89c-0.22,-0.32 -0.23,-0.1 -0.42,0.23 -0.07,0.13 -0.02,-0.34 -0.03,-0.4 -0.02,-0.08 -0.2,-0.2 -0.22,-0.33 -0.02,-0.14 0.04,-0.21 -0.06,-0.26l0.1 -0.2 0.14 -0.28 0.14 0.28 0.35 0.71 0 0.25 0 0z"/>
  </g>
  <g id="_45200767520">
   <path class="fil65" d="M4.18 28.97c-0.15,0.55 -0.49,0.31 -0.99,0.31 -0.08,0.35 -0.27,0.58 -0.48,0.77 -0.04,-0.07 -0.08,-0.14 -0.12,-0.21 -0.04,-0.06 -0.08,-0.13 -0.11,-0.19 -0.04,-0.08 -0.08,-0.15 -0.12,-0.23 -0.04,-0.07 -0.08,-0.14 -0.12,-0.21 -0.04,-0.07 -0.07,-0.14 -0.11,-0.21 -0.03,-0.07 -0.07,-0.15 -0.1,-0.22 -0.04,-0.07 -0.07,-0.14 -0.11,-0.22 -0.03,-0.07 -0.07,-0.15 -0.11,-0.23 -0.03,-0.07 -0.06,-0.14 -0.09,-0.2 -0.03,-0.08 -0.07,-0.16 -0.1,-0.24 -0.03,-0.07 -0.06,-0.14 -0.09,-0.21 -0.04,-0.08 -0.07,-0.16 -0.1,-0.25 -0.03,-0.06 -0.05,-0.13 -0.08,-0.2 -0.03,-0.08 -0.07,-0.17 -0.1,-0.25 -0.02,-0.07 -0.05,-0.13 -0.07,-0.2 -0.03,-0.09 -0.06,-0.18 -0.1,-0.27 -0.02,-0.06 -0.04,-0.12 -0.06,-0.19 -0.03,-0.1 -0.06,-0.19 -0.09,-0.29 -0.02,-0.06 -0.04,-0.11 -0.06,-0.17 -0.03,-0.1 -0.06,-0.2 -0.08,-0.29 -0.02,-0.06 -0.04,-0.12 -0.05,-0.18 -0.03,-0.11 -0.06,-0.21 -0.09,-0.32 -0.01,-0.05 -0.03,-0.1 -0.04,-0.15 -0.03,-0.11 -0.05,-0.21 -0.08,-0.32 -0.01,-0.05 -0.02,-0.11 -0.04,-0.16 -0.02,-0.11 -0.04,-0.23 -0.07,-0.34 -0.01,-0.05 -0.02,-0.09 -0.03,-0.14 -0.02,-0.12 -0.04,-0.23 -0.06,-0.35 -0.01,-0.04 -0.02,-0.09 -0.03,-0.14 -0.02,-0.12 -0.04,-0.24 -0.06,-0.36 -0.01,-0.04 -0.01,-0.08 -0.02,-0.13 -0.02,-0.12 -0.03,-0.25 -0.05,-0.37 -0.01,-0.04 -0.01,-0.08 -0.02,-0.12 -0.01,-0.13 -0.03,-0.26 -0.04,-0.39 0,-0.03 -0.01,-0.07 -0.01,-0.11 -0.01,-0.13 -0.03,-0.27 -0.04,-0.41 0.39,-0.26 0.56,-0.67 1.23,-0.67 0.43,0 1.11,0.73 1.41,0.87 0.69,0.34 0.23,-0.15 0.77,0.67l0.72 0.65c0.37,0.24 0.56,0.01 0.96,0.41 0.69,0.67 0.66,0.55 0.71,1.2 0.04,0.6 0.5,0.78 0.09,1.31 -0.3,0.39 -0.19,0.11 -0.31,0.68 -0.14,0.64 -0.49,0.17 -0.47,1.36 0.01,0.8 -0.22,0.91 -0.99,0.91l0 0 0 0z"/>
   <path class="fil66" d="M4.18 28.97c-0.15,0.55 -0.49,0.31 -0.99,0.31 -0.08,0.35 -0.27,0.58 -0.48,0.77 -1.51,-2.59 -2.41,-5.48 -2.65,-8.47 0.39,-0.26 0.56,-0.67 1.23,-0.67 0.43,0 1.11,0.73 1.41,0.87 0.69,0.34 0.23,-0.15 0.77,0.67l0.72 0.65c0.37,0.24 0.56,0.01 0.96,0.41 0.69,0.67 0.66,0.55 0.71,1.2 0.04,0.6 0.5,0.78 0.09,1.31 -0.3,0.39 -0.19,0.11 -0.31,0.68 -0.14,0.64 -0.49,0.17 -0.47,1.36 0.01,0.8 -0.22,0.91 -0.99,0.91l0 0 0 0z"/>
  </g>
 </g>
</svg>
