<?xml version="1.0" encoding="UTF-8"?>
<!DOCTYPE svg PUBLIC "-//W3C//DTD SVG 1.1//EN" "http://www.w3.org/Graphics/SVG/1.1/DTD/svg11.dtd">
<svg xmlns="http://www.w3.org/2000/svg" xml:space="preserve" width="1000px" height="1000px" version="1.1" style="shape-rendering:geometricPrecision; text-rendering:geometricPrecision; image-rendering:optimizeQuality; fill-rule:evenodd; clip-rule:evenodd"
viewBox="0 0 1001.43 1001.43"
 xmlns:xlink="http://www.w3.org/1999/xlink">
 <defs>
  <style type="text/css">
   <![CDATA[
    .fil32 {fill:#1A1307}
    .fil11 {fill:#204E68}
    .fil37 {fill:#241906}
    .fil60 {fill:#333752}
    .fil33 {fill:#3B352C}
    .fil21 {fill:#47302E}
    .fil34 {fill:#474035}
    .fil59 {fill:#595915}
    .fil62 {fill:#64728F}
    .fil36 {fill:#756B5A}
    .fil35 {fill:#968973}
    .fil10 {fill:#EDF2F1}
    .fil41 {fill:white;fill-rule:nonzero}
    .fil30 {fill:white;fill-rule:nonzero}
    .fil2 {fill:#D2D1D2;fill-opacity:0.301961}
    .fil1 {fill:#F4F5F5;fill-opacity:0.301961}
    .fil22 {fill:black;fill-opacity:0.568627}
    .fil8 {fill:#0E3442;fill-opacity:0.701961}
    .fil61 {fill:#33446F;fill-opacity:0.701961}
    .fil16 {fill:#0E3442}
    .fil18 {fill:#1A1307}
    .fil57 {fill:#333752}
    .fil58 {fill:#34426E}
    .fil7 {fill:url(#id0)}
    .fil27 {fill:url(#id1)}
    .fil52 {fill:url(#id2)}
    .fil15 {fill:url(#id3)}
    .fil53 {fill:url(#id4)}
    .fil3 {fill:url(#id5)}
    .fil25 {fill:url(#id6)}
    .fil63 {fill:url(#id7)}
    .fil14 {fill:url(#id8)}
    .fil6 {fill:url(#id9)}
    .fil13 {fill:url(#id10)}
    .fil5 {fill:url(#id11)}
    .fil38 {fill:url(#id12)}
    .fil68 {fill:url(#id13)}
    .fil12 {fill:url(#id14)}
    .fil46 {fill:url(#id15)}
    .fil23 {fill:url(#id16)}
    .fil4 {fill:url(#id17)}
    .fil51 {fill:url(#id18)}
    .fil39 {fill:url(#id19)}
    .fil17 {fill:url(#id20)}
    .fil24 {fill:url(#id21)}
    .fil48 {fill:url(#id22)}
    .fil49 {fill:url(#id23)}
    .fil44 {fill:url(#id24)}
    .fil9 {fill:url(#id25)}
    .fil26 {fill:url(#id26)}
    .fil45 {fill:url(#id27)}
    .fil69 {fill:url(#id28)}
    .fil0 {fill:url(#id29);fill-rule:nonzero}
    .fil42 {fill:url(#id30);fill-rule:nonzero}
    .fil50 {fill:url(#id31);fill-rule:nonzero}
    .fil29 {fill:url(#id32);fill-rule:nonzero}
    .fil55 {fill:url(#id33);fill-rule:nonzero}
    .fil43 {fill:url(#id34);fill-rule:nonzero}
    .fil54 {fill:url(#id35);fill-rule:nonzero}
    .fil65 {fill:url(#id36);fill-rule:nonzero}
    .fil28 {fill:url(#id37);fill-rule:nonzero}
    .fil66 {fill:url(#id38);fill-rule:nonzero}
    .fil47 {fill:url(#id39);fill-rule:nonzero}
    .fil67 {fill:url(#id40);fill-rule:nonzero}
    .fil40 {fill:url(#id41);fill-rule:nonzero}
    .fil64 {fill:url(#id42);fill-rule:nonzero}
    .fil56 {fill:url(#id43)}
    .fil31 {fill:url(#id44)}
    .fil20 {fill:url(#id45)}
    .fil19 {fill:url(#id46)}
   ]]>
  </style>
  <linearGradient id="id0" gradientUnits="userSpaceOnUse" x1="510.42" y1="644.06" x2="580.16" y2="645.55">
   <stop offset="0" style="stop-opacity:0.0980392; stop-color:#333752"/>
   <stop offset="1" style="stop-opacity:0; stop-color:white"/>
  </linearGradient>
  <linearGradient id="id1" gradientUnits="userSpaceOnUse" x1="252.9" y1="670.48" x2="381.74" y2="670.48">
   <stop offset="0" style="stop-opacity:0.498039; stop-color:#241C12"/>
   <stop offset="0.211765" style="stop-opacity:0.25098; stop-color:#817566"/>
   <stop offset="1" style="stop-opacity:0; stop-color:#DECFBA"/>
  </linearGradient>
  <linearGradient id="id2" gradientUnits="userSpaceOnUse" x1="619.8" y1="670.48" x2="748.64" y2="670.48">
   <stop offset="0" style="stop-opacity:0; stop-color:#DECFBA"/>
   <stop offset="0.788235" style="stop-opacity:0.25098; stop-color:#817666"/>
   <stop offset="1" style="stop-opacity:0.498039; stop-color:#241C12"/>
  </linearGradient>
  <linearGradient id="id3" gradientUnits="objectBoundingBox" x1="58%" y1="100%" x2="57.4449%" y2="0%">
   <stop offset="0" style="stop-opacity:1; stop-color:#B6CCC6"/>
   <stop offset="0.45098" style="stop-opacity:1; stop-color:#7DAAAD"/>
   <stop offset="1" style="stop-opacity:1; stop-color:#577C85"/>
  </linearGradient>
  <linearGradient id="id4" gradientUnits="userSpaceOnUse" x1="709.52" y1="350.49" x2="653.3" y2="257.75">
   <stop offset="0" style="stop-opacity:1; stop-color:#3D5D74"/>
   <stop offset="1" style="stop-opacity:1; stop-color:#5B6C72"/>
  </linearGradient>
  <linearGradient id="id5" gradientUnits="userSpaceOnUse" x1="298.78" y1="827.76" x2="300.31" y2="315.98">
   <stop offset="0" style="stop-opacity:1; stop-color:#CAD7EC"/>
   <stop offset="0.45098" style="stop-opacity:1; stop-color:#3170B7"/>
   <stop offset="1" style="stop-opacity:1; stop-color:#3A53AD"/>
  </linearGradient>
  <linearGradient id="id6" gradientUnits="userSpaceOnUse" x1="392.24" y1="482.78" x2="239.4" y2="482.9">
   <stop offset="0" style="stop-opacity:1; stop-color:#A6A692"/>
   <stop offset="0.631373" style="stop-opacity:1; stop-color:#EBEADF"/>
   <stop offset="0.741176" style="stop-opacity:1; stop-color:#EBEADF"/>
   <stop offset="1" style="stop-opacity:1; stop-color:#B3B39F"/>
  </linearGradient>
  <linearGradient id="id7" gradientUnits="userSpaceOnUse" x1="505.1" y1="1020.77" x2="498.84" y2="805.28">
   <stop offset="0" style="stop-opacity:1; stop-color:#D0DCEF"/>
   <stop offset="1" style="stop-opacity:1; stop-color:#EDF2FA"/>
  </linearGradient>
  <linearGradient id="id8" gradientUnits="userSpaceOnUse" x1="244" y1="806.64" x2="243.41" y2="608.47">
   <stop offset="0" style="stop-opacity:1; stop-color:#8F8ABF"/>
   <stop offset="0.45098" style="stop-opacity:1; stop-color:#635178"/>
   <stop offset="1" style="stop-opacity:1; stop-color:#4A4252"/>
  </linearGradient>
  <linearGradient id="id9" gradientUnits="userSpaceOnUse" x1="881.86" y1="806.38" x2="881.26" y2="608.21">
   <stop offset="0" style="stop-opacity:1; stop-color:#CC7F70"/>
   <stop offset="0.45098" style="stop-opacity:1; stop-color:#A15F57"/>
   <stop offset="1" style="stop-opacity:1; stop-color:#61332E"/>
  </linearGradient>
  <linearGradient id="id10" gradientUnits="userSpaceOnUse" x1="126.64" y1="806.64" x2="127.23" y2="608.47">
   <stop offset="0" style="stop-opacity:1; stop-color:#8F9CC4"/>
   <stop offset="0.45098" style="stop-opacity:1; stop-color:#6673A1"/>
   <stop offset="1" style="stop-opacity:1; stop-color:#4F6480"/>
  </linearGradient>
  <linearGradient id="id11" gradientUnits="userSpaceOnUse" x1="764.49" y1="806.38" x2="765.09" y2="608.21">
   <stop offset="0" style="stop-opacity:1; stop-color:#D6C28B"/>
   <stop offset="0.45098" style="stop-opacity:1; stop-color:#A38D51"/>
   <stop offset="1" style="stop-opacity:1; stop-color:#80724F"/>
  </linearGradient>
  <linearGradient id="id12" gradientUnits="objectBoundingBox" x1="68.5148%" y1="136.999%" x2="28.4096%" y2="0%">
   <stop offset="0" style="stop-opacity:1; stop-color:#823D36"/>
   <stop offset="1" style="stop-opacity:1; stop-color:#B6564B"/>
  </linearGradient>
  <linearGradient id="id13" gradientUnits="userSpaceOnUse" x1="83.09" y1="846.97" x2="-15.9" y2="465.29">
   <stop offset="0" style="stop-opacity:1; stop-color:#233617"/>
   <stop offset="1" style="stop-opacity:1; stop-color:#74835C"/>
  </linearGradient>
  <linearGradient id="id14" gradientUnits="userSpaceOnUse" xlink:href="#id10" x1="126.64" y1="806.64" x2="127.23" y2="608.47">
  </linearGradient>
  <linearGradient id="id15" gradientUnits="userSpaceOnUse" xlink:href="#id12" x1="925.26" y1="649.69" x2="821.1" y2="548.55">
  </linearGradient>
  <linearGradient id="id16" gradientUnits="userSpaceOnUse" xlink:href="#id4" x1="343.18" y1="351.34" x2="292.32" y2="266.41">
  </linearGradient>
  <linearGradient id="id17" gradientUnits="userSpaceOnUse" xlink:href="#id5" x1="858.21" y1="744.72" x2="858.22" y2="244.72">
  </linearGradient>
  <linearGradient id="id18" gradientUnits="userSpaceOnUse" xlink:href="#id6" x1="759.14" y1="482.78" x2="606.3" y2="482.9">
  </linearGradient>
  <linearGradient id="id19" gradientUnits="userSpaceOnUse" x1="149.81" y1="646.56" x2="149.81" y2="621.85">
   <stop offset="0" style="stop-opacity:0; stop-color:black"/>
   <stop offset="1" style="stop-opacity:1; stop-color:#1F1B20"/>
  </linearGradient>
  <linearGradient id="id20" gradientUnits="userSpaceOnUse" x1="158.41" y1="809.39" x2="39.74" y2="385.56">
   <stop offset="0" style="stop-opacity:1; stop-color:#0D1707"/>
   <stop offset="1" style="stop-opacity:1; stop-color:#617048"/>
  </linearGradient>
  <linearGradient id="id21" gradientUnits="objectBoundingBox" xlink:href="#id12" x1="85.7591%" y1="57.0482%" x2="17.1487%" y2="32.2484%">
  </linearGradient>
  <linearGradient id="id22" gradientUnits="userSpaceOnUse" xlink:href="#id12" x1="930.7" y1="651.83" x2="826.5" y2="546.41">
  </linearGradient>
  <linearGradient id="id23" gradientUnits="userSpaceOnUse" xlink:href="#id19" x1="898.36" y1="646.56" x2="898.37" y2="621.85">
  </linearGradient>
  <linearGradient id="id24" gradientUnits="userSpaceOnUse" x1="960.64" y1="703.8" x2="1019.42" y2="407.24">
   <stop offset="0" style="stop-opacity:1; stop-color:#16220E"/>
   <stop offset="1" style="stop-opacity:1; stop-color:#74835C"/>
  </linearGradient>
  <linearGradient id="id25" gradientUnits="userSpaceOnUse" xlink:href="#id3" x1="611.2" y1="806.42" x2="610.61" y2="608.24">
  </linearGradient>
  <linearGradient id="id26" gradientUnits="objectBoundingBox" x1="10.9363%" y1="104.115%" x2="58.8973%" y2="20.2717%">
   <stop offset="0" style="stop-opacity:1; stop-color:#C3A987"/>
   <stop offset="1" style="stop-opacity:1; stop-color:#DECFBA"/>
  </linearGradient>
  <radialGradient id="id27" gradientUnits="userSpaceOnUse" gradientTransform="matrix(-2.77373E+000 1.98914 -3.52622E+000 -1.56466E+000 5492 -1014)" cx="1057.96" cy="425.27" r="68.3" fx="1057.96" fy="425.27">
   <stop offset="0" style="stop-opacity:1; stop-color:white"/>
   <stop offset="1" style="stop-opacity:0; stop-color:white"/>
  </radialGradient>
  <radialGradient id="id28" gradientUnits="userSpaceOnUse" gradientTransform="matrix(-1.3499E+000 0.983996 -1.03923E+000 -1.42565E+000 892 1229)" cx="131.92" cy="560.04" r="84.73" fx="131.92" fy="560.04">
   <stop offset="0" style="stop-opacity:1; stop-color:white"/>
   <stop offset="0.541176" style="stop-opacity:0.501961; stop-color:white"/>
   <stop offset="1" style="stop-opacity:0; stop-color:white"/>
  </radialGradient>
  <linearGradient id="id29" gradientUnits="userSpaceOnUse" x1="494.95" y1="1000.81" x2="500.72" y2="0">
   <stop offset="0" style="stop-opacity:1; stop-color:#EDF2FA"/>
   <stop offset="0.729412" style="stop-opacity:1; stop-color:#3AA0EB"/>
   <stop offset="1" style="stop-opacity:1; stop-color:#017CE4"/>
  </linearGradient>
  <radialGradient id="id30" gradientUnits="userSpaceOnUse" gradientTransform="matrix(-1.64319E+000 0.170422 1.52401 0.551956 -302 226)" cx="226.65" cy="591.17" r="94.16" fx="226.65" fy="591.17">
   <stop offset="0" style="stop-opacity:1; stop-color:white"/>
   <stop offset="0.709804" style="stop-opacity:0.74902; stop-color:#DDEBED"/>
   <stop offset="1" style="stop-opacity:0.498039; stop-color:#BCD7DB"/>
  </radialGradient>
  <radialGradient id="id31" gradientUnits="userSpaceOnUse" gradientTransform="matrix(1.68079 0.687724 -1.82973E+000 0.264684 475 -135)" xlink:href="#id30" cx="785.57" cy="551.8" r="123.3" fx="785.57" fy="551.8">
  </radialGradient>
  <radialGradient id="id32" gradientUnits="userSpaceOnUse" gradientTransform="matrix(-2.02446E+000 2.09879 1.54303 2.6869 766 -1405)" cx="414.84" cy="316.84" r="49.31" fx="414.84" fy="316.84">
   <stop offset="0" style="stop-opacity:1; stop-color:white"/>
   <stop offset="1" style="stop-opacity:0.8; stop-color:#E0F2FC"/>
  </radialGradient>
  <radialGradient id="id33" gradientUnits="userSpaceOnUse" gradientTransform="matrix(-3.01625E+000 2.11662 2.29897 2.70973 2393 -2229)" xlink:href="#id32" cx="785.46" cy="331.37" r="39.52" fx="785.46" fy="331.37">
  </radialGradient>
  <radialGradient id="id34" gradientUnits="userSpaceOnUse" gradientTransform="matrix(-3.15676E+000 0.634066 2.40609 0.811748 -31 -95)" xlink:href="#id32" cx="315.14" cy="557.3" r="74.14" fx="315.14" fy="557.3">
  </radialGradient>
  <radialGradient id="id35" gradientUnits="userSpaceOnUse" gradientTransform="matrix(-1.61913E+000 0.591684 1.5017 1.91631 1355 -801)" xlink:href="#id30" cx="743.28" cy="393.77" r="50.89" fx="743.28" fy="393.77">
  </radialGradient>
  <radialGradient id="id36" gradientUnits="userSpaceOnUse" gradientTransform="matrix(-1.75161E+000 0.990884 1.07245 1.76032 1072 -1092)" cx="629.43" cy="615.68" r="22.86" fx="629.43" fy="615.68">
   <stop offset="0" style="stop-opacity:1; stop-color:#D6FAFF"/>
   <stop offset="0.831373" style="stop-opacity:0.498039; stop-color:#C8E2E7"/>
   <stop offset="1" style="stop-opacity:0; stop-color:white"/>
  </radialGradient>
  <radialGradient id="id37" gradientUnits="userSpaceOnUse" gradientTransform="matrix(-1.22809E+000 0.587663 1.13901 1.90327 404 -582)" xlink:href="#id30" cx="383.15" cy="394.72" r="57.77" fx="383.15" fy="394.72">
  </radialGradient>
  <radialGradient id="id38" gradientUnits="userSpaceOnUse" gradientTransform="matrix(-1.80755E+000 0.673137 1.67645 2.18011 747 -1151)" xlink:href="#id30" cx="633.05" cy="614.6" r="22.63" fx="633.05" fy="614.6">
  </radialGradient>
  <radialGradient id="id39" gradientUnits="userSpaceOnUse" gradientTransform="matrix(-3.19028E+000 0.640799 2.43161 0.820359 3070 -577)" xlink:href="#id32" cx="1056.15" cy="557.3" r="73.36" fx="1056.15" fy="557.3">
  </radialGradient>
  <radialGradient id="id40" gradientUnits="userSpaceOnUse" gradientTransform="matrix(-3.38388E+000 2.43175 2.57916 3.11314 1364 -2823)" xlink:href="#id32" cx="654.33" cy="583.17" r="17.54" fx="654.33" fy="583.17">
  </radialGradient>
  <radialGradient id="id41" gradientUnits="userSpaceOnUse" gradientTransform="matrix(-3.15676E+000 0.634066 2.40609 0.811748 -31 -95)" xlink:href="#id32" cx="315.14" cy="557.3" r="74.14" fx="315.14" fy="557.3">
  </radialGradient>
  <radialGradient id="id42" gradientUnits="userSpaceOnUse" gradientTransform="matrix(-1.75161E+000 0.990884 1.07245 1.76032 1072 -1092)" xlink:href="#id36" cx="629.43" cy="615.68" r="22.86" fx="629.43" fy="615.68">
  </radialGradient>
  <linearGradient id="id43" gradientUnits="userSpaceOnUse" x1="782.73" y1="812.33" x2="885.96" y2="716.04">
   <stop offset="0" style="stop-opacity:1; stop-color:#8F8D7C"/>
   <stop offset="1" style="stop-opacity:1; stop-color:#A9A697"/>
  </linearGradient>
  <linearGradient id="id44" gradientUnits="userSpaceOnUse" xlink:href="#id43" x1="214" y1="812.33" x2="110.77" y2="716.04">
  </linearGradient>
  <linearGradient id="id45" gradientUnits="userSpaceOnUse" xlink:href="#id26" x1="757.81" y1="962.83" x2="231.06" y2="295.33">
  </linearGradient>
  <linearGradient id="id46" gradientUnits="userSpaceOnUse" xlink:href="#id26" x1="757.81" y1="962.83" x2="231.06" y2="295.33">
  </linearGradient>
 </defs>
 <g id="Layer_x0020_1">
  <metadata id="CorelCorpID_0Corel-Layer"/>
  <path class="fil0" d="M1001.43 500.72c0,-276.54 -224.18,-500.72 -500.71,-500.72 -276.54,0 -500.72,224.18 -500.72,500.72 0,276.53 224.18,500.71 500.72,500.71 276.53,0 500.71,-224.18 500.71,-500.71z"/>
  <path class="fil1" d="M455.25 193.9c5.92,-8.58 8.86,-6.94 15.18,-9.52 1.45,-0.59 3.66,-2.51 4.71,-2.62 -1.59,-0.09 -2.7,-0.11 -3.68,-1.15 2.86,-0.93 5.97,-1.19 9.62,-1.01l24.94 6.17c0.06,-0.1 0.2,0.22 0.28,0.35 -3.93,1.77 -10.92,2.4 -15.81,2.99 1.73,0.12 3.57,0.71 5.19,1.41 1.97,0.86 3.54,1.53 4.09,3.57 -4.14,1.3 -13.33,1.33 -16.2,2.82 1.37,4.96 18.04,0.8 23.01,0.65 1.75,-0.05 3.22,-0.16 4.49,0.4 1.49,0.66 1.22,1.36 3,1.65 2.29,0.38 6.74,0.09 9.24,0.09 3.17,0 6.04,0.05 8.9,0.35 3.52,0.38 6.92,3.17 9.14,1.81l1.47 -1.11c1.41,-0.51 10.82,-0.54 13.11,-0.76 -1.1,0.68 -7.71,-0.8 -9.2,-2.08 0.8,-5.35 7.3,-3.95 10.98,-3.2 3.49,0.72 8.7,1.83 12.5,1.83 3.86,0 8.78,-0.56 12.29,0.63 -1.16,1.87 -3.19,0.53 -2.61,3.36l4.93 0.08c-0.14,2.06 -0.11,2.6 -1.29,3.06l16.58 1.97c0.12,0.71 -0.08,0.64 -0.82,1.5l-0.97 1.08c-0.04,-0.09 -0.15,0.21 -0.24,0.31 -3.4,0.08 -5.15,0.55 -8.19,1.21 -4.95,1.05 -23.43,0.56 -28.03,0.58 -8.31,0.06 -6.96,-1.67 -9.75,-1.66 -6.89,0.04 -20.84,3.66 -26.34,2.27 -2.54,-0.64 -1.46,-1.24 -3.75,-2 -2.55,-0.82 -7.03,-0.5 -9.09,-2.68 1.77,-0.64 2.06,-0.22 2.77,-1.84 -3.55,-1.81 -15.66,-2.37 -19.04,-0.2 0.05,1.63 0.29,0.72 0.65,2.43 0.01,0.03 0.03,0.16 0.03,0.18 0,0.02 0.03,0.21 -0.04,0.24 1.04,0.03 12.83,2.1 14.25,3.37 -0.74,1.1 0.14,0.2 -0.93,0.89 -1.96,1.29 -6.19,1.3 -8.58,1.47 -8.76,0.64 -14.97,0.29 -23.79,-0.55 -4.45,-0.45 -8.61,2.08 -13.46,2.07l-25.56 -0.01c-2.51,-0.08 -11.67,-1.74 -13.5,-3.32 -1.5,-1.29 -0.82,-1.34 -3.35,-1.69 -7.04,-0.99 -14.75,0.28 -21.69,0.38 -3.53,0.04 -7.64,-0.7 -8.63,2.26 0.95,0.45 1.32,0.29 2.34,0.56 1.52,0.43 1.74,0.55 2.39,1.71 -2.78,1.16 -3.22,0.94 -6.79,0.97 -4.68,0.05 -8.96,1.17 -13.44,1.55 -8.16,0.68 -16.49,-0.32 -24.64,-0.52 -10.88,-0.26 -21.72,2.46 -32.98,2.03l-1.35 -1.84c-1.81,-1.37 -5.4,-0.64 -7.09,-0.4 -4.64,0.69 -27.54,0.01 -32.19,-0.28 0.13,-2.1 -0.55,-1.74 0.9,-2.51l-6.44 -1.5c0.82,-3.85 0.9,-0.53 1.81,-2.78 -2.83,-1.2 -6.17,-0.44 -9.3,-1.14 -2.3,-0.51 -5.64,-1.53 -8.28,-2.2 -0.83,-2.07 0,-1.46 -0.29,-2.46 -1.1,-0.47 -1.97,-0.64 -3.19,-1.14 -2.12,-0.87 -0.96,-0.81 -2.53,-1.48 0.68,-0.63 -0.26,-0.22 1.37,-0.87 1.34,-0.54 2.94,-0.4 4.35,-0.45 2.17,-0.08 3.48,-0.32 5.54,-0.42 4.13,-0.2 7.58,-0.5 11.67,-0.6 7.05,-0.19 12.63,-4.87 19.35,-5.42 -1.36,-2.21 -2.78,-1.88 -2.88,-4.85l4.07 -1.99c-1.29,-0.66 -5.2,-0.27 -5.56,-2.01 0.42,-3.09 -0.89,-0.83 1.88,-1.99 6.43,-2.73 9.98,-2.38 17.01,-2.28 0.92,-2.24 3.56,-3.43 6.04,-3.72 6.02,-0.72 10.88,-1.99 16.59,-2.86 3.32,-0.5 5.19,0.28 8.5,0.33 0.99,1.96 3.91,2.83 4.85,3.38 0.75,0.44 -0.06,0.08 0.97,0.54 3.7,1.67 8.76,1.48 13.21,1.87 0.09,0.12 0.16,0.31 0.21,0.4l0.6 0.96c0.76,1 -0.74,0.08 0.59,0.5 1.97,0.02 4.55,-0.07 6.45,0.27 4.64,0.85 7.62,5.12 18.74,2.15 2.74,-0.73 5.65,0.46 8.08,0.92 2.95,0.56 5.99,-0.03 9.02,0.82l1.26 1.62c-2.74,1.01 2.04,-0.38 -0.82,0.26 -5.95,1.34 -15.61,-2.15 -20.34,-0.44 -1.72,0.63 -10.18,1.46 -13.3,3.27 2.15,2.92 7.33,2.23 11.81,2.27 5.15,0.05 8.3,0.97 12.33,2.44 -0.8,1.33 -1.01,0.82 -1.97,2.17l11 0.5c5.39,0.32 4.63,-0.96 7.92,-1.53 5.55,-0.96 20.38,-1.04 25.99,-1.04 7.1,0 14.46,2.36 21.01,0.83 -0.09,-0.14 -0.82,-0.4 -1.29,-1.63l0.01 0z"/>
  <path class="fil2" d="M455.25 193.9c0.46,1.23 1.19,1.49 1.29,1.63 -6.56,1.53 -13.92,-0.83 -21.02,-0.83 -5.61,0 -20.44,0.08 -25.99,1.04 -3.29,0.56 -2.52,1.84 -7.92,1.53l-11 -0.5c0.96,-1.35 1.17,-0.84 1.97,-2.17 -4.03,-1.48 -7.18,-2.39 -12.33,-2.44 -4.48,-0.04 -9.65,0.65 -11.8,-2.27 3.11,-1.82 11.57,-2.64 13.29,-3.27 4.73,-1.72 14.39,1.78 20.34,0.44 2.86,-0.64 -1.92,0.75 0.82,-0.26l-1.26 -1.62c-3.02,-0.85 -6.07,-0.26 -9.02,-0.83 -2.43,-0.45 -5.34,-1.64 -8.08,-0.91 -11.12,2.97 -14.09,-1.31 -18.74,-2.16 -1.9,-0.34 -4.48,-0.25 -6.45,-0.26 -1.33,-0.43 0.17,0.5 -0.58,-0.5l-0.61 -0.97c-0.04,-0.08 -0.11,-0.27 -0.21,-0.4 -4.45,-0.39 -9.5,-0.2 -13.21,-1.86 -1.02,-0.47 -0.22,-0.1 -0.97,-0.54 -0.94,-0.55 -3.85,-1.42 -4.85,-3.39 -3.3,-0.05 -5.17,-0.82 -8.5,-0.32 -5.7,0.86 -10.57,2.14 -16.59,2.85 -2.48,0.29 -5.12,1.48 -6.03,3.73 -7.03,-0.1 -10.59,-0.46 -17.02,2.28 -2.76,1.16 -1.46,-1.11 -1.88,1.99 0.36,1.74 4.28,1.35 5.57,2l-4.08 1.99c0.1,2.97 1.52,2.65 2.88,4.85 -6.72,0.55 -12.3,5.24 -19.35,5.43 -4.09,0.1 -7.54,0.4 -11.67,0.6 -2.05,0.1 -3.37,0.34 -5.54,0.41 -1.41,0.05 -3.01,-0.09 -4.35,0.45 -1.62,0.66 -0.68,0.24 -1.37,0.88 1.57,0.67 0.41,0.6 2.53,1.48 1.22,0.5 2.1,0.66 3.19,1.14 0.29,1 -0.54,0.39 0.29,2.45 2.64,0.68 5.98,1.7 8.28,2.21 3.13,0.7 6.47,-0.06 9.3,1.14 -0.9,2.24 -0.99,-1.08 -1.81,2.78l6.44 1.49c-1.44,0.78 -0.77,0.42 -0.9,2.52 4.65,0.29 27.56,0.96 32.19,0.28 1.69,-0.24 5.28,-0.97 7.09,0.4l1.35 1.84c11.26,0.42 22.1,-2.29 32.98,-2.03 8.15,0.2 16.48,1.2 24.64,0.51 4.48,-0.37 8.76,-1.49 13.44,-1.54 3.57,-0.04 4.01,0.19 6.79,-0.98 -0.65,-1.15 -0.87,-1.27 -2.39,-1.7 -1.01,-0.28 -1.39,-0.11 -2.34,-0.56 0.99,-2.96 5.1,-2.22 8.64,-2.26 6.93,-0.1 14.64,-1.38 21.68,-0.39 2.53,0.35 1.85,0.4 3.35,1.69 1.83,1.58 10.99,3.25 13.5,3.32l25.56 0.02c4.85,0.01 9.02,-2.52 13.47,-2.07 8.82,0.84 15.02,1.19 23.79,0.55 2.38,-0.18 6.61,-0.19 8.57,-1.48 1.07,-0.69 0.19,0.21 0.93,-0.89 -1.42,-1.26 -13.21,-3.33 -14.25,-3.37 0.07,-0.02 0.04,-0.21 0.04,-0.24 0,-0.01 -0.01,-0.15 -0.03,-0.17 -0.36,-1.72 -0.6,-0.8 -0.65,-2.43 3.39,-2.17 15.5,-1.62 19.04,0.2 -0.71,1.61 -1,1.2 -2.77,1.84 2.06,2.18 6.55,1.85 9.09,2.68 2.29,0.75 1.21,1.35 3.76,1.99 5.49,1.39 19.44,-2.23 26.33,-2.26 2.79,-0.02 1.44,1.71 9.75,1.66 4.6,-0.02 23.08,0.47 28.03,-0.59 3.04,-0.65 4.79,-1.12 8.19,-1.2 0.1,-0.1 0.2,-0.4 0.25,-0.31l0.96 -1.08c0.75,-0.87 0.94,-0.79 0.83,-1.5l-16.59 -1.97c1.18,-0.47 1.15,-1 1.29,-3.06l-4.92 -0.09c-0.58,-2.83 1.44,-1.49 2.6,-3.35 -3.51,-1.19 -8.43,-0.63 -12.28,-0.63 -3.8,0 -9.02,-1.11 -12.51,-1.83 -3.68,-0.75 -10.18,-2.15 -10.98,3.2 1.49,1.27 8.1,2.75 9.2,2.08 -2.29,0.22 -11.7,0.25 -13.11,0.76l-1.47 1.1c-2.22,1.37 -5.61,-1.43 -9.13,-1.8 -2.86,-0.3 -5.73,-0.35 -8.91,-0.35 -2.5,0 -6.95,0.29 -9.24,-0.09 -1.77,-0.29 -1.51,-0.99 -2.99,-1.65 -1.28,-0.57 -2.75,-0.46 -4.5,-0.41 -4.96,0.16 -21.64,4.31 -23.01,-0.65 2.87,-1.49 12.06,-1.51 16.2,-2.82 -0.55,-2.04 -2.12,-2.7 -4.09,-3.57 -1.62,-0.7 -3.45,-1.29 -5.19,-1.4 4.9,-0.59 11.88,-1.23 15.81,-2.99 -0.08,-0.13 -0.22,-0.46 -0.28,-0.35l-24.94 -6.17c-3.65,-0.19 -6.76,0.08 -9.62,1 0.99,1.04 2.09,1.07 3.68,1.16 -1.04,0.11 -3.26,2.03 -4.7,2.61 -6.33,2.59 -9.27,0.94 -15.19,9.53l0 0zm-77.79 -12.02c3.48,0 0,-2 2.79,-2l22.87 1.88c1.28,0.33 1.6,0.55 2.94,0.84 1.4,0.29 2.49,0.12 3.56,0.66 1.28,0.65 1.09,1.63 6.86,1.63 8.36,0 19.37,0.44 27.27,-1.14 5.92,-1.19 4.8,-1.87 13.13,-1.87 2.08,0 1.64,0.62 3.08,0.27 1.61,-0.39 0.77,-0.83 2.78,-1.47 3.28,-1.05 19.65,-1.8 23.87,-1.8 0.92,0 5.09,2 12.99,2.02 14.3,0.02 14.51,2.98 26.48,4.02 2.13,0.17 3.84,1.07 5.7,1.85 2.58,1.07 4.15,0.34 7.08,0.88 4.51,0.83 2.06,1.97 4.97,2.65l43.58 1.6c2.68,0.06 4.51,0.94 6.96,1 -0.88,1.3 -2.1,1.83 -3.39,2.35l-1.05 0.38c-0.09,0.04 -0.26,0.1 -0.33,0.14 -0.08,0.02 -0.23,0.06 -0.34,0.13 8.72,2.2 1.04,4.51 7.89,4.51 3.57,0 7.01,0.05 9.89,-0.36 3.59,-0.54 6.79,0.1 9.62,0.36 0,6.63 7.38,3.16 8.82,9.01 -1.74,0.44 -2.41,0.35 -4.5,0.64 -1.21,0.16 -3.36,0.73 -4.8,0.84 -3.58,0.3 -7.48,-0.37 -10.88,0.29 -3.15,0.63 -5.57,1.83 -8.66,2.18l-21.79 0.05c-3.74,-0.03 -6.46,0.86 -10.64,0.49 -34.88,-3.13 -29.08,2.53 -46.94,2.53 -10.24,0 -13.6,-2.93 -27.6,-0.72 -4.09,0.64 -7.2,0.29 -11.34,0.78l-37.73 3.91c-4.18,0.38 -12.39,0.55 -16.42,-0.26 -3.29,-0.65 -6.9,-2.22 -10.03,-2.22 -10.47,0 -16.34,-0.71 -25.99,1.01 -2.33,0.42 -3.97,0.77 -6.52,0.99 -3.45,0.31 -2.37,1.46 -6,1.55l-21.78 -1.13c-5.2,-0.87 -8.2,1.09 -13.55,1.09 -5.84,0 -5.15,0.4 -10.42,-0.79 -6.42,-1.43 -10.34,-0.77 -14.85,-1.51 -6.8,-1.1 -14.66,0.69 -21.45,-0.41 -3.32,-0.55 -6.43,-0.47 -9.73,-1.03 -2.93,-0.47 -7.64,-0.5 -10.45,-0.75 -5.99,-0.54 -5.21,-0.96 -8.05,-2.83 -3.7,-2.43 -20.27,1.39 -28.16,-2.69 0.47,-2.21 1.21,-2.09 1.39,-4.51l-7.78 -4.63c-1.02,-0.47 -3.27,-0.25 -3.36,-4.88 3.05,-0.88 -0.44,-1.03 6.96,-1l15.62 -0.69c14.69,-2.63 16.82,-1.97 30.85,-2.3 3.71,-0.08 3.81,-1.35 6.47,-2.03 -2.48,-4 -9.63,-6.79 -12.07,-7l0 -2 14.24 -3.19c2.26,-0.6 7.99,-6.07 18.87,-4.47 7.26,1.08 9.89,-1.24 12.99,-1.73 5.49,-0.86 17.06,-2.79 21.52,0.57 0.92,0.69 -0.33,0.05 0.88,0.57 0.8,0.35 0.7,0.12 1.51,0.38 2.95,0.94 0.47,1.77 4.07,2.6l17.89 1.76c2.55,0.07 3.32,0.64 5.61,0.96 4.48,0.63 2.49,2.05 4.61,2.05l-0.01 -0.01z"/>
  <path class="fil3" d="M510.65 446.6l-0.23 135.81 -243.69 0 0 -64.13 -0.4 0 0 -0.4 -20.45 0 0 -74.55 5.62 0 0 -0.41 -0.41 0 0 -0.4 -0.4 0 0 -0.4 -0.4 0 0 -0.4 -0.4 0 0 -0.4 -0.4 0 0 -0.4 -0.4 0 0 -0.4 -0.4 0 0 -0.4 -0.4 0 0 -0.4 -0.4 0 0 -0.4 -0.4 0 0 -0.4 -0.4 0 0 -0.4 -0.4 0 0 -0.4 -0.49 -0.69 -43.27 0 0.07 1.49 -0.4 0 0 0.4 -0.4 0 0 0.4 -0.41 0 0 0.4 -0.4 0 0 0.4 -0.4 0 0 0.4 -0.4 0 0 0.4 -0.4 0 0 0.4 -0.4 0 0 0.4 -0.4 0 0 0.4 -0.4 0 0 0.4 -0.4 0 0 0.41 -0.4 0 0 0.4 5.21 0 0 58.52 -169.55 0 0 -4.81 0.81 0 0 -0.41 0.4 0 0 -0.4 0.8 0 0 -9.62 -4.41 0 0 -2.8 3.61 0 0 -1.6 -0.4 0 0 -1.61 -0.41 0 0 -1.6 -0.4 0 0 -1.2 -0.4 0 0 -1.61 -0.4 0 0 -1.6 -0.4 0 0 -1.2 -0.4 0 0 -1.61 -0.4 0 0 -1.6 -0.4 0 0 -1.6 -0.4 0 0 -1.2 -0.4 0 0 -1.61 -0.4 0 0 -1.2 -0.4 0 0 0.4 -0.4 0 0 1.6 -0.41 0 0 1.21 -0.4 0 0 1.6 -0.4 0 0 1.6 -0.4 0 0 1.61 -0.4 0 0 1.2 -0.4 0 0 1.6 -0.4 0 0 1.6 -0.4 0 0 1.61 -0.4 0 0 1.2 -0.4 0 0 1.6 -0.4 0 0 1.61 -0.4 0 0 1.2 4 0 0 2.4 -4.81 0 0 0.41 -0.4 0 0 8.81 0.4 0 0 0.4 0.4 0 0 0.4 0.81 0 0 0.41 0.4 0 0 0.4 0.8 0 0 4 -11.63 0 0 -4.4 3.21 0 0 -0.81 -0.4 0 0 -2 -0.4 0 0 -2.41 -0.4 0 0 -2 -0.4 0 0 -2.4 -0.4 0 0 -2.01 -0.4 0 0 -2.4 -0.4 0 0 -2.01 -0.41 0 0 -2.4 -0.4 0 0 -2.01 -0.4 0 0 -2.4 -0.4 0 0 -2.01 -0.4 0 0 -2.4 -0.4 0 0 -2 -0.4 0 0 -2.01 -0.4 0 0 -0.8 -0.4 0 0 2 -0.4 0 0 2.01 -0.4 0 0 2 -0.4 0 0 2.41 -0.4 0 0 2 -0.41 0 0 2.41 -0.4 0 0 2 -0.4 0 0 2.41 -0.4 0 0 2 -0.4 0 0 2.4 -0.4 0 0 2.01 -0.4 0 0 2 -0.4 0 0 2.41 -0.4 0 0 2 -0.4 0 0 2.41 3.2 0 0 4 -3.6 0 0 11.23 2.8 0 0 15.23 -5.61 0c-0.62,-0.27 -13.03,278.56 399.61,278.56l177.96 -0.4 -0.2 -359.86c0.48,0 -69.64,0 -69.31,0z"/>
  <path class="fil4" d="M812.23 410.86l-12.82 0 0 -50.5 -60.93 0 0 67.33c-32.53,8.39 -30.46,58.86 -30.46,69.75l36.12 77.29 135.29 0.21 119.92 -119.78c-0.7,-7.56 -2.88,-18.41 -29.2,-27.87l0 -66.13 -60.92 0 0 49.7 -11.62 0 -0.03 -84.43 -85.38 0 0.03 84.43z"/>
  <path class="fil5" d="M826.69 660.54l-21.69 -4.29 -63.86 0 -21.69 4.29 0 82.56c12.3,22.18 26.23,43.33 41.63,63.28l65.61 0 0 -145.84z"/>
  <path class="fil6" d="M819.66 660.54l21.68 -4.29 63.87 0 21.69 4.29 0 82.56c-12.3,22.18 -26.23,43.33 -41.63,63.28l-65.61 0 0 -145.84z"/>
  <path class="fil7" d="M580.16 806.47l-69.74 0 0.23 -359.87 69.51 0 0 359.87z"/>
  <path class="fil8" d="M446.61 806.55c0,0 0.03,-31.94 0.03,-31.94 0.31,-8.8 2.76,-18.43 9.94,-22.13 7.1,4.08 10.2,14.51 10.26,22.28 0,0 0,31.87 0,31.87l-20.23 -0.08z"/>
  <path class="fil8" d="M410.58 806.52c0,0 0.03,-31.94 0.03,-31.94 0.3,-8.81 2.75,-18.43 9.94,-22.13 7.09,4.07 10.2,14.5 10.25,22.28 0,0 0.01,31.86 0.01,31.86l-20.23 -0.07z"/>
  <path class="fil8" d="M381.74 754.33c0.83,-0.74 1.74,-1.38 2.75,-1.9 7.09,4.08 10.2,14.51 10.26,22.29 0,0 0,31.86 0,31.86l-13.01 -0.05 0 -52.2z"/>
  <path class="fil8" d="M482.72 806.52c0,0 0.03,-31.94 0.03,-31.94 0.31,-8.81 2.76,-18.43 9.94,-22.13 7.1,4.07 10.2,14.5 10.26,22.28 0,0 0,31.86 0,31.86l-20.23 -0.07z"/>
  <path class="fil8" d="M534.83 806.52c0,0 0.03,-31.94 0.03,-31.94 0.31,-8.81 2.76,-18.43 9.94,-22.13 7.09,4.07 10.2,14.5 10.26,22.28 0,0 0,31.86 0,31.86l-20.23 -0.07z"/>
  <path class="fil8" d="M535.96 706.52c0,0 0,-31.78 0,-31.78 1.29,-6.24 4.89,-11.91 8.86,-12.7 3.98,0.76 8.83,7.66 9.11,12.7 0,0 0,31.78 0,31.78l-17.97 0z"/>
  <path class="fil8" d="M483.85 706.52c0,0 0,-31.78 0,-31.78 1.29,-6.24 4.89,-11.91 8.86,-12.7 3.99,0.76 8.84,7.66 9.11,12.7 0,0 0,31.78 0,31.78l-17.97 0z"/>
  <path class="fil8" d="M447.78 706.52c0,0 0,-31.78 0,-31.78 1.29,-6.24 4.89,-11.91 8.86,-12.7 3.98,0.76 8.83,7.66 9.11,12.7 0,0 0,31.78 0,31.78l-17.97 0z"/>
  <path class="fil8" d="M411.7 706.52c0,0 0,-31.78 0,-31.78 1.29,-6.24 4.9,-11.91 8.86,-12.7 3.99,0.76 8.84,7.66 9.12,12.7 0,0 0,31.78 0,31.78l-17.98 0z"/>
  <path class="fil8" d="M381.74 663.38c0.88,-0.69 1.8,-1.16 2.75,-1.34 3.99,0.76 8.84,7.66 9.12,12.7 0,0 0,31.78 0,31.78l-11.87 0 0 -43.14z"/>
  <path class="fil9" d="M602.63 592.11l15.96 32.26 15.97 32.27 -31.93 0 -31.94 0 15.97 -32.27 15.97 -32.26z"/>
  <path class="fil10" d="M795.59 773.68l17.16 0 0 32.17 -17.16 0 0 -32.17z"/>
  <path class="fil10" d="M795.59 728.64l17.16 0 0 32.17 -17.16 0 0 -32.17z"/>
  <path class="fil11" d="M797.67 790.98l5.36 0 0 12.87 -5.36 0 0 -12.87z"/>
  <path class="fil11" d="M805.18 790.98l5.36 0 0 12.87 -5.36 0 0 -12.87z"/>
  <path class="fil11" d="M797.67 775.96l5.36 0 0 12.87 -5.36 0 0 -12.87z"/>
  <path class="fil11" d="M805.18 775.96l5.36 0 0 12.87 -5.36 0 0 -12.87z"/>
  <path class="fil11" d="M797.88 738.3l5.37 0 0 20.38 -5.37 0 0 -20.38z"/>
  <path class="fil11" d="M805.39 738.3l5.36 0 0 20.38 -5.36 0 0 -20.38z"/>
  <path class="fil11" d="M805.39 730.8l5.36 0 0 5.36 -5.36 0 0 -5.36z"/>
  <path class="fil10" d="M833.6 773.68l17.16 0 0 32.17 -17.16 0 0 -32.17z"/>
  <path class="fil10" d="M864.7 773.68l17.16 0 0 32.17 -17.16 0 0 -32.17z"/>
  <path class="fil10" d="M833.6 728.64l17.16 0 0 32.17 -17.16 0 0 -32.17z"/>
  <path class="fil10" d="M864.7 728.64l17.16 0 0 32.17 -17.16 0 0 -32.17z"/>
  <path class="fil11" d="M835.75 790.83l5.36 0 0 12.87 -5.36 0 0 -12.87z"/>
  <path class="fil11" d="M843.25 790.83l5.36 0 0 12.87 -5.36 0 0 -12.87z"/>
  <path class="fil11" d="M835.75 775.82l5.36 0 0 12.87 -5.36 0 0 -12.87z"/>
  <path class="fil11" d="M843.25 775.82l5.36 0 0 12.87 -5.36 0 0 -12.87z"/>
  <path class="fil11" d="M866.66 790.99l5.36 0 0 12.87 -5.36 0 0 -12.87z"/>
  <path class="fil11" d="M866.66 775.98l5.36 0 0 12.86 -5.36 0 0 -12.86z"/>
  <path class="fil11" d="M835.76 738.52l5.36 0 0 20.37 -5.36 0 0 -20.37z"/>
  <path class="fil11" d="M843.27 738.52l5.36 0 0 20.37 -5.36 0 0 -20.37z"/>
  <path class="fil11" d="M835.76 731.01l5.36 0 0 5.36 -5.36 0 0 -5.36z"/>
  <path class="fil11" d="M843.27 731.01l5.36 0 0 5.36 -5.36 0 0 -5.36z"/>
  <path class="fil11" d="M867.02 738.33l5.36 0 0 20.37 -5.36 0 0 -20.37z"/>
  <path class="fil12" d="M135.22 592.34l-15.97 32.26 -15.97 32.27 31.94 0 31.93 0 -15.97 -32.27 -15.96 -32.26z"/>
  <path class="fil13" d="M188.84 660.8l-21.69 -4.29 -63.87 0 -21.68 4.29 0 82.56c12.3,22.18 26.22,43.33 41.62,63.28l65.62 0 0 -145.84z"/>
  <path class="fil14" d="M181.81 660.8l21.68 -4.29 63.87 0 21.68 4.29 0 82.56c-12.29,22.18 -26.22,43.33 -41.62,63.28l-65.61 0 0 -145.84z"/>
  <path class="fil10" d="M126.64 773.94l17.16 0 0 32.17 -17.16 0 0 -32.17z"/>
  <path class="fil10" d="M157.74 773.94l17.16 0 0 32.17 -17.16 0 0 -32.17z"/>
  <path class="fil10" d="M126.64 728.9l17.16 0 0 32.17 -17.16 0 0 -32.17z"/>
  <path class="fil10" d="M157.74 728.9l17.16 0 0 32.17 -17.16 0 0 -32.17z"/>
  <path class="fil11" d="M128.6 791.25l5.36 0 0 12.87 -5.36 0 0 -12.87z"/>
  <path class="fil11" d="M136.1 791.25l5.37 0 0 12.87 -5.37 0 0 -12.87z"/>
  <path class="fil11" d="M128.6 776.24l5.36 0 0 12.87 -5.36 0 0 -12.87z"/>
  <path class="fil11" d="M136.1 776.24l5.37 0 0 12.87 -5.37 0 0 -12.87z"/>
  <path class="fil11" d="M159.82 791.24l5.36 0 0 12.87 -5.36 0 0 -12.87z"/>
  <path class="fil11" d="M167.33 791.24l5.36 0 0 12.87 -5.36 0 0 -12.87z"/>
  <path class="fil11" d="M159.82 776.23l5.36 0 0 12.86 -5.36 0 0 -12.86z"/>
  <path class="fil11" d="M167.33 776.23l5.36 0 0 12.86 -5.36 0 0 -12.86z"/>
  <path class="fil11" d="M128.96 738.59l5.36 0 0 20.38 -5.36 0 0 -20.38z"/>
  <path class="fil11" d="M136.46 738.59l5.37 0 0 20.38 -5.37 0 0 -20.38z"/>
  <path class="fil11" d="M128.96 731.08l5.36 0 0 5.36 -5.36 0 0 -5.36z"/>
  <path class="fil11" d="M136.46 731.08l5.37 0 0 5.36 -5.37 0 0 -5.36z"/>
  <path class="fil11" d="M160.03 738.56l5.36 0 0 20.38 -5.36 0 0 -20.38z"/>
  <path class="fil11" d="M167.54 738.56l5.36 0 0 20.38 -5.36 0 0 -20.38z"/>
  <path class="fil11" d="M160.03 731.06l5.36 0 0 5.36 -5.36 0 0 -5.36z"/>
  <path class="fil11" d="M167.54 731.06l5.36 0 0 5.36 -5.36 0 0 -5.36z"/>
  <path class="fil10" d="M195.75 773.94l17.16 0 0 32.17 -17.16 0 0 -32.17z"/>
  <path class="fil10" d="M195.75 728.9l17.16 0 0 32.17 -17.16 0 0 -32.17z"/>
  <path class="fil11" d="M197.89 791.09l5.37 0 0 12.87 -5.37 0 0 -12.87z"/>
  <path class="fil11" d="M197.89 776.08l5.37 0 0 12.87 -5.37 0 0 -12.87z"/>
  <path class="fil11" d="M197.91 738.78l5.36 0 0 20.37 -5.36 0 0 -20.37z"/>
  <path class="fil11" d="M197.91 731.27l5.36 0 0 5.36 -5.36 0 0 -5.36z"/>
  <path class="fil15" d="M549.01 660.57l21.68 -4.29 63.87 0 21.68 4.29 0 145.85 -107.23 0 0 -145.85z"/>
  <path class="fil15" d="M549.01 660.57l21.68 -4.29 63.87 0 21.68 4.29 0 145.85 -107.23 0 0 -145.85z"/>
  <path class="fil10" d="M562.95 774.24l17.16 0 0 32.18 -17.16 0 0 -32.18z"/>
  <path class="fil10" d="M562.95 774.24l17.16 0 0 32.18 -17.16 0 0 -32.18z"/>
  <path class="fil10" d="M594.05 774.24l17.15 0 0 32.18 -17.15 0 0 -32.18z"/>
  <path class="fil10" d="M594.05 774.24l17.15 0 0 32.18 -17.15 0 0 -32.18z"/>
  <path class="fil10" d="M625.15 774.24l17.15 0 0 32.18 -17.15 0 0 -32.18z"/>
  <path class="fil10" d="M625.15 774.24l17.15 0 0 32.18 -17.15 0 0 -32.18z"/>
  <path class="fil10" d="M562.95 729.2l17.16 0 0 32.18 -17.16 0 0 -32.18z"/>
  <path class="fil10" d="M562.95 729.2l17.16 0 0 32.18 -17.16 0 0 -32.18z"/>
  <path class="fil10" d="M594.05 729.2l17.15 0 0 32.18 -17.15 0 0 -32.18z"/>
  <path class="fil10" d="M594.05 729.2l17.15 0 0 32.18 -17.15 0 0 -32.18z"/>
  <path class="fil10" d="M625.15 729.2l17.15 0 0 32.18 -17.15 0 0 -32.18z"/>
  <path class="fil10" d="M625.15 729.2l17.15 0 0 32.18 -17.15 0 0 -32.18z"/>
  <path class="fil10" d="M562.95 684.17l17.16 0 0 32.17 -17.16 0 0 -32.17z"/>
  <path class="fil10" d="M562.95 684.17l17.16 0 0 32.17 -17.16 0 0 -32.17z"/>
  <path class="fil10" d="M594.05 684.17l17.15 0 0 32.17 -17.15 0 0 -32.17z"/>
  <path class="fil10" d="M594.05 684.17l17.15 0 0 32.17 -17.15 0 0 -32.17z"/>
  <path class="fil10" d="M625.15 684.17l17.15 0 0 32.17 -17.15 0 0 -32.17z"/>
  <path class="fil10" d="M625.15 684.17l17.15 0 0 32.17 -17.15 0 0 -32.17z"/>
  <path class="fil10" d="M582.79 657.36l17.16 0 0 17.15 -17.16 0 0 -17.15z"/>
  <path class="fil10" d="M582.79 657.36l17.16 0 0 17.15 -17.16 0 0 -17.15z"/>
  <path class="fil10" d="M605.31 657.36l17.15 0 0 17.15 -17.15 0 0 -17.15z"/>
  <path class="fil10" d="M605.31 657.36l17.15 0 0 17.15 -17.15 0 0 -17.15z"/>
  <path class="fil11" d="M565.09 791.4l5.37 0 0 12.87 -5.37 0 0 -12.87z"/>
  <path class="fil11" d="M565.09 791.4l5.37 0 0 12.87 -5.37 0 0 -12.87z"/>
  <path class="fil11" d="M572.6 791.4l5.36 0 0 12.87 -5.36 0 0 -12.87z"/>
  <path class="fil11" d="M572.6 791.4l5.36 0 0 12.87 -5.36 0 0 -12.87z"/>
  <path class="fil11" d="M565.09 776.39l5.37 0 0 12.87 -5.37 0 0 -12.87z"/>
  <path class="fil11" d="M565.09 776.39l5.37 0 0 12.87 -5.37 0 0 -12.87z"/>
  <path class="fil11" d="M572.6 776.39l5.36 0 0 12.87 -5.36 0 0 -12.87z"/>
  <path class="fil11" d="M572.6 776.39l5.36 0 0 12.87 -5.36 0 0 -12.87z"/>
  <path class="fil11" d="M596 791.56l5.37 0 0 12.87 -5.37 0 0 -12.87z"/>
  <path class="fil11" d="M596 791.56l5.37 0 0 12.87 -5.37 0 0 -12.87z"/>
  <path class="fil11" d="M603.51 791.56l5.36 0 0 12.87 -5.36 0 0 -12.87z"/>
  <path class="fil11" d="M603.51 791.56l5.36 0 0 12.87 -5.36 0 0 -12.87z"/>
  <path class="fil11" d="M596 776.54l5.37 0 0 12.87 -5.37 0 0 -12.87z"/>
  <path class="fil11" d="M596 776.54l5.37 0 0 12.87 -5.37 0 0 -12.87z"/>
  <path class="fil11" d="M603.51 776.54l5.36 0 0 12.87 -5.36 0 0 -12.87z"/>
  <path class="fil11" d="M603.51 776.54l5.36 0 0 12.87 -5.36 0 0 -12.87z"/>
  <path class="fil11" d="M627.23 791.55l5.36 0 0 12.86 -5.36 0 0 -12.86z"/>
  <path class="fil11" d="M627.23 791.55l5.36 0 0 12.86 -5.36 0 0 -12.86z"/>
  <path class="fil11" d="M634.73 791.55l5.37 0 0 12.86 -5.37 0 0 -12.86z"/>
  <path class="fil11" d="M634.73 791.55l5.37 0 0 12.86 -5.37 0 0 -12.86z"/>
  <path class="fil11" d="M627.23 776.53l5.36 0 0 12.87 -5.36 0 0 -12.87z"/>
  <path class="fil11" d="M627.23 776.53l5.36 0 0 12.87 -5.36 0 0 -12.87z"/>
  <path class="fil11" d="M634.73 776.53l5.37 0 0 12.87 -5.37 0 0 -12.87z"/>
  <path class="fil11" d="M634.73 776.53l5.37 0 0 12.87 -5.37 0 0 -12.87z"/>
  <path class="fil11" d="M565.11 739.08l5.36 0 0 20.38 -5.36 0 0 -20.38z"/>
  <path class="fil11" d="M565.11 739.08l5.36 0 0 20.38 -5.36 0 0 -20.38z"/>
  <path class="fil11" d="M572.62 739.08l5.36 0 0 20.38 -5.36 0 0 -20.38z"/>
  <path class="fil11" d="M572.62 739.08l5.36 0 0 20.38 -5.36 0 0 -20.38z"/>
  <path class="fil11" d="M565.11 731.58l5.36 0 0 5.36 -5.36 0 0 -5.36z"/>
  <path class="fil11" d="M565.11 731.58l5.36 0 0 5.36 -5.36 0 0 -5.36z"/>
  <path class="fil11" d="M572.62 731.58l5.36 0 0 5.36 -5.36 0 0 -5.36z"/>
  <path class="fil11" d="M572.62 731.58l5.36 0 0 5.36 -5.36 0 0 -5.36z"/>
  <path class="fil11" d="M596.37 738.9l5.36 0 0 20.37 -5.36 0 0 -20.37z"/>
  <path class="fil11" d="M596.37 738.9l5.36 0 0 20.37 -5.36 0 0 -20.37z"/>
  <path class="fil11" d="M603.87 738.9l5.36 0 0 20.37 -5.36 0 0 -20.37z"/>
  <path class="fil11" d="M603.87 738.9l5.36 0 0 20.37 -5.36 0 0 -20.37z"/>
  <path class="fil11" d="M596.37 731.39l5.36 0 0 5.36 -5.36 0 0 -5.36z"/>
  <path class="fil11" d="M596.37 731.39l5.36 0 0 5.36 -5.36 0 0 -5.36z"/>
  <path class="fil11" d="M603.87 731.39l5.36 0 0 5.36 -5.36 0 0 -5.36z"/>
  <path class="fil11" d="M603.87 731.39l5.36 0 0 5.36 -5.36 0 0 -5.36z"/>
  <path class="fil11" d="M627.44 738.87l5.36 0 0 20.38 -5.36 0 0 -20.38z"/>
  <path class="fil11" d="M627.44 738.87l5.36 0 0 20.38 -5.36 0 0 -20.38z"/>
  <path class="fil11" d="M634.95 738.87l5.36 0 0 20.38 -5.36 0 0 -20.38z"/>
  <path class="fil11" d="M634.95 738.87l5.36 0 0 20.38 -5.36 0 0 -20.38z"/>
  <path class="fil11" d="M627.44 731.36l5.36 0 0 5.37 -5.36 0 0 -5.37z"/>
  <path class="fil11" d="M627.44 731.36l5.36 0 0 5.37 -5.36 0 0 -5.37z"/>
  <path class="fil11" d="M634.95 731.36l5.36 0 0 5.37 -5.36 0 0 -5.37z"/>
  <path class="fil11" d="M634.95 731.36l5.36 0 0 5.37 -5.36 0 0 -5.37z"/>
  <path class="fil11" d="M565.14 694.14l5.36 0 0 20.38 -5.36 0 0 -20.38z"/>
  <path class="fil11" d="M565.14 694.14l5.36 0 0 20.38 -5.36 0 0 -20.38z"/>
  <path class="fil11" d="M572.65 694.14l5.36 0 0 20.38 -5.36 0 0 -20.38z"/>
  <path class="fil11" d="M572.65 694.14l5.36 0 0 20.38 -5.36 0 0 -20.38z"/>
  <path class="fil11" d="M565.14 686.64l5.36 0 0 5.36 -5.36 0 0 -5.36z"/>
  <path class="fil11" d="M565.14 686.64l5.36 0 0 5.36 -5.36 0 0 -5.36z"/>
  <path class="fil11" d="M572.65 686.64l5.36 0 0 5.36 -5.36 0 0 -5.36z"/>
  <path class="fil11" d="M572.65 686.64l5.36 0 0 5.36 -5.36 0 0 -5.36z"/>
  <path class="fil11" d="M596.4 693.96l5.36 0 0 20.37 -5.36 0 0 -20.37z"/>
  <path class="fil11" d="M596.4 693.96l5.36 0 0 20.37 -5.36 0 0 -20.37z"/>
  <path class="fil11" d="M603.9 693.96l5.37 0 0 20.37 -5.37 0 0 -20.37z"/>
  <path class="fil11" d="M603.9 693.96l5.37 0 0 20.37 -5.37 0 0 -20.37z"/>
  <path class="fil11" d="M596.4 686.45l5.36 0 0 5.36 -5.36 0 0 -5.36z"/>
  <path class="fil11" d="M596.4 686.45l5.36 0 0 5.36 -5.36 0 0 -5.36z"/>
  <path class="fil11" d="M603.9 686.45l5.37 0 0 5.36 -5.37 0 0 -5.36z"/>
  <path class="fil11" d="M603.9 686.45l5.37 0 0 5.36 -5.37 0 0 -5.36z"/>
  <path class="fil11" d="M627.47 693.93l5.36 0 0 20.37 -5.36 0 0 -20.37z"/>
  <path class="fil11" d="M627.47 693.93l5.36 0 0 20.37 -5.36 0 0 -20.37z"/>
  <path class="fil11" d="M634.98 693.93l5.36 0 0 20.37 -5.36 0 0 -20.37z"/>
  <path class="fil11" d="M634.98 693.93l5.36 0 0 20.37 -5.36 0 0 -20.37z"/>
  <path class="fil11" d="M627.47 686.42l5.36 0 0 5.36 -5.36 0 0 -5.36z"/>
  <path class="fil11" d="M627.47 686.42l5.36 0 0 5.36 -5.36 0 0 -5.36z"/>
  <path class="fil11" d="M634.98 686.42l5.36 0 0 5.36 -5.36 0 0 -5.36z"/>
  <path class="fil11" d="M634.98 686.42l5.36 0 0 5.36 -5.36 0 0 -5.36z"/>
  <path class="fil11" d="M584.93 667.01l5.36 0 0 5.36 -5.36 0 0 -5.36z"/>
  <path class="fil11" d="M584.93 667.01l5.36 0 0 5.36 -5.36 0 0 -5.36z"/>
  <path class="fil11" d="M592.44 667.01l5.36 0 0 5.36 -5.36 0 0 -5.36z"/>
  <path class="fil11" d="M592.44 667.01l5.36 0 0 5.36 -5.36 0 0 -5.36z"/>
  <path class="fil11" d="M584.93 659.5l5.36 0 0 5.36 -5.36 0 0 -5.36z"/>
  <path class="fil11" d="M584.93 659.5l5.36 0 0 5.36 -5.36 0 0 -5.36z"/>
  <path class="fil11" d="M592.44 659.5l5.36 0 0 5.36 -5.36 0 0 -5.36z"/>
  <path class="fil11" d="M592.44 659.5l5.36 0 0 5.36 -5.36 0 0 -5.36z"/>
  <path class="fil11" d="M607.48 667.12l5.36 0 0 5.36 -5.36 0 0 -5.36z"/>
  <path class="fil11" d="M607.48 667.12l5.36 0 0 5.36 -5.36 0 0 -5.36z"/>
  <path class="fil11" d="M614.98 667.12l5.37 0 0 5.36 -5.37 0 0 -5.36z"/>
  <path class="fil11" d="M614.98 667.12l5.37 0 0 5.36 -5.37 0 0 -5.36z"/>
  <path class="fil11" d="M607.48 659.61l5.36 0 0 5.36 -5.36 0 0 -5.36z"/>
  <path class="fil11" d="M607.48 659.61l5.36 0 0 5.36 -5.36 0 0 -5.36z"/>
  <path class="fil11" d="M614.98 659.61l5.37 0 0 5.36 -5.37 0 0 -5.36z"/>
  <path class="fil11" d="M614.98 659.61l5.37 0 0 5.36 -5.37 0 0 -5.36z"/>
  <path class="fil16" d="M237.17 464.67c0,0 0,-14.9 0,-14.9 0.45,-2.93 1.72,-3.71 3.1,-4.08 1.4,0.36 3.09,1.72 3.19,4.08 0,0 0,14.9 0,14.9l-6.29 0z"/>
  <path class="fil16" d="M237.17 464.67c0,0 0,-14.9 0,-14.9 0.45,-2.93 1.72,-3.71 3.1,-4.08 1.4,0.36 3.09,1.72 3.19,4.08 0,0 0,14.9 0,14.9l-6.29 0z"/>
  <path class="fil16" d="M226.93 464.67c0,0 0,-14.9 0,-14.9 0.45,-2.93 1.71,-3.71 3.1,-4.08 1.39,0.36 3.09,1.72 3.19,4.08 0,0 0,14.9 0,14.9l-6.29 0z"/>
  <path class="fil16" d="M216.69 464.67c0,0 0,-14.9 0,-14.9 0.45,-2.93 1.71,-3.71 3.1,-4.08 1.39,0.36 3.09,1.72 3.18,4.08 0,0 0,14.9 0,14.9l-6.28 0z"/>
  <path class="fil16" d="M206.45 464.67c0,0 0,-14.9 0,-14.9 0.45,-2.93 1.71,-3.71 3.09,-4.08 1.4,0.36 3.09,1.72 3.19,4.08 0,0 0,14.9 0,14.9l-6.28 0z"/>
  <path class="fil16" d="M779.9 403.01c0,0 0,-21.54 0,-21.54 0.65,-4.23 2.48,-5.36 4.48,-5.9 2.02,0.52 4.47,2.48 4.61,5.9 0,0 0,21.54 0,21.54l-9.09 0z"/>
  <path class="fil16" d="M763.26 403.28c0,0 0,-25.95 0,-25.95 0.79,-5.1 2.98,-6.45 5.4,-7.1 2.42,0.62 5.38,2.98 5.55,7.1 0,0 0,25.95 0,25.95l-10.95 0z"/>
  <path class="fil16" d="M748.12 403.01c0,0 0,-21.54 0,-21.54 0.65,-4.23 2.47,-5.36 4.48,-5.9 2.01,0.52 4.46,2.48 4.6,5.9 0,0 0,21.54 0,21.54l-9.08 0z"/>
  <path class="fil16" d="M950.63 402.68c0,0 0,-21.54 0,-21.54 0.65,-4.23 2.47,-5.35 4.48,-5.89 2.01,0.51 4.46,2.48 4.6,5.89 0,0 0,21.54 0,21.54l-9.08 0z"/>
  <path class="fil16" d="M933.99 402.95c0,0 0,-25.95 0,-25.95 0.78,-5.09 2.98,-6.45 5.39,-7.1 2.43,0.62 5.38,2.99 5.55,7.1 0,0 0,25.95 0,25.95l-10.94 0z"/>
  <path class="fil16" d="M918.84 402.68c0,0 0,-21.54 0,-21.54 0.66,-4.23 2.48,-5.35 4.48,-5.89 2.02,0.51 4.47,2.48 4.61,5.89 0,0 0,21.54 0,21.54l-9.09 0z"/>
  <path class="fil16" d="M558.75 494.08c0,0 0,-31.78 0,-31.78 0.74,-6.24 2.8,-7.9 5.07,-8.7 2.29,0.77 5.07,3.66 5.23,8.7 0,0 0,31.78 0,31.78l-10.3 0z"/>
  <path class="fil16" d="M539.8 494.08c0,0 0,-31.78 0,-31.78 0.73,-6.24 2.8,-7.9 5.07,-8.7 2.29,0.77 5.06,3.66 5.22,8.7 0,0 0,31.78 0,31.78l-10.29 0z"/>
  <path class="fil16" d="M521.28 494.08c0,0 0,-31.78 0,-31.78 0.74,-6.24 2.8,-7.9 5.07,-8.7 2.29,0.77 5.07,3.66 5.23,8.7 0,0 0,31.78 0,31.78l-10.3 0z"/>
  <path class="fil1" d="M302.09 44.25c-0.54,-1.05 -1.05,-1.9 -1.52,-2.61l-0.38 0.17 -0.37 0.16c-3.24,1.42 -6.46,2.87 -9.66,4.36l-0.37 0.17 -1.54 0.72c-2.99,1.41 -5.98,2.84 -8.94,4.31 -0.76,0.37 -1.52,0.75 -2.27,1.13l-0.07 0.03c-0.04,1.07 -0.18,0.46 -0.39,1.78 -0.01,0.02 -0.01,0.13 -0.01,0.14 0,0.02 -0.02,0.17 0.02,0.19 -0.63,0.03 -7.78,1.69 -8.64,2.7 0.45,0.89 -0.09,0.16 0.56,0.71 1.19,1.04 3.76,1.05 5.2,1.19 5.32,0.51 9.08,0.23 14.43,-0.44 2.7,-0.36 5.22,1.67 8.16,1.66l15.5 -0.01c1.52,-0.06 7.08,-1.4 8.19,-2.67 0.91,-1.03 0.49,-1.07 2.03,-1.35 4.27,-0.8 8.94,0.23 13.15,0.31 2.14,0.03 4.63,-0.56 5.23,1.81 -0.57,0.36 -0.8,0.23 -1.41,0.45 -0.93,0.34 -1.06,0.44 -1.45,1.37 1.68,0.93 1.95,0.75 4.11,0.78 2.84,0.04 5.43,0.93 8.15,1.24 4.95,0.55 10,-0.26 14.94,-0.42 6.6,-0.21 13.17,1.97 20,1.63l0.82 -1.47c1.1,-1.1 3.28,-0.52 4.3,-0.33 2.81,0.56 16.7,0.01 19.52,-0.22 -0.08,-1.69 0.33,-1.39 -0.54,-2.02l3.9 -1.19c-0.5,-3.1 -0.55,-0.44 -1.1,-2.23 1.72,-0.97 3.74,-0.36 5.64,-0.92 1.39,-0.41 3.42,-1.22 5.02,-1.77 0.5,-1.65 0,-1.16 0.18,-1.97 0.66,-0.38 1.19,-0.51 1.93,-0.91 1.29,-0.7 0.59,-0.65 1.54,-1.19 -0.42,-0.51 0.15,-0.18 -0.83,-0.7 -0.82,-0.43 -1.79,-0.32 -2.64,-0.36 -1.32,-0.06 -2.11,-0.25 -3.36,-0.33 -2.5,-0.16 -4.6,-0.41 -7.08,-0.49 -4.27,-0.15 -7.66,-3.9 -11.73,-4.35 0.82,-1.77 1.68,-1.5 1.75,-3.89l-2.48 -1.59c0.79,-0.53 3.16,-0.21 3.38,-1.61 -0.25,-2.48 0.53,-0.66 -1.14,-1.6 -3.9,-2.19 -6.06,-1.91 -10.32,-1.83 -0.56,-1.8 -2.15,-2.75 -3.66,-2.98 -3.65,-0.58 -6.6,-1.6 -10.06,-2.29 -2.01,-0.41 -3.15,0.22 -5.15,0.26 -0.61,1.58 -2.38,2.27 -2.95,2.71 -0.45,0.35 0.04,0.06 -0.58,0.43 -2.25,1.34 -5.31,1.19 -8.01,1.5 -0.06,0.1 -0.1,0.25 -0.13,0.32l-0.37 0.78c-0.45,0.8 0.45,0.06 -0.35,0.4 -1.2,0.01 -2.76,-0.06 -3.91,0.21 -2.82,0.68 -4.62,4.11 -11.37,1.73 -1.66,-0.58 -3.42,0.37 -4.89,0.73 -1.79,0.45 -3.64,-0.02 -5.47,0.66l-0.77 1.3c1.66,0.81 -1.23,-0.3 0.5,0.21 3.61,1.08 9.46,-1.73 12.33,-0.35 1.04,0.5 6.17,1.17 8.06,2.62 -1.3,2.34 -4.44,1.79 -7.16,1.82 -3.12,0.04 -5.03,0.78 -7.47,1.96 0.48,1.07 0.61,0.66 1.2,1.74l-6.68 0.4c-3.27,0.25 -2.8,-0.77 -4.8,-1.22 -3.36,-0.78 -12.36,-0.84 -15.76,-0.84 -4.31,0 -8.77,1.89 -12.74,0.66 0.05,-0.11 0.5,-0.32 0.78,-1.3l0 0z"/>
  <path class="fil2" d="M302.09 44.25c-0.28,0.98 -0.73,1.19 -0.78,1.3 3.97,1.23 8.43,-0.66 12.74,-0.66 3.4,0 12.39,0.06 15.76,0.83 2,0.46 1.53,1.48 4.8,1.23l6.67 -0.4c-0.58,-1.09 -0.71,-0.68 -1.19,-1.74 2.44,-1.19 4.35,-1.92 7.47,-1.96 2.72,-0.03 5.86,0.52 7.16,-1.82 -1.89,-1.46 -7.02,-2.12 -8.06,-2.62 -2.87,-1.38 -8.72,1.42 -12.33,0.35 -1.73,-0.51 1.16,0.6 -0.5,-0.21l0.77 -1.3c1.83,-0.68 3.68,-0.21 5.46,-0.66 1.48,-0.36 3.24,-1.32 4.9,-0.74 6.75,2.39 8.55,-1.04 11.37,-1.72 1.15,-0.28 2.71,-0.2 3.91,-0.21 0.8,-0.35 -0.11,0.4 0.35,-0.41l0.37 -0.77c0.03,-0.07 0.07,-0.22 0.13,-0.32 2.69,-0.31 5.76,-0.16 8.01,-1.5 0.62,-0.37 0.13,-0.08 0.58,-0.43 0.57,-0.44 2.34,-1.14 2.95,-2.71 2,-0.04 3.13,-0.67 5.15,-0.27 3.46,0.7 6.41,1.72 10.06,2.29 1.5,0.24 3.1,1.19 3.66,2.99 4.26,-0.08 6.42,-0.36 10.32,1.83 1.67,0.93 0.89,-0.89 1.14,1.6 -0.22,1.39 -2.59,1.08 -3.38,1.6l2.48 1.6c-0.07,2.38 -0.93,2.12 -1.75,3.89 4.07,0.44 7.45,4.2 11.73,4.35 2.48,0.08 4.57,0.32 7.08,0.48 1.24,0.08 2.04,0.28 3.36,0.34 0.85,0.04 1.82,-0.07 2.63,0.36 0.99,0.52 0.42,0.19 0.83,0.7 -0.95,0.53 -0.24,0.48 -1.53,1.19 -0.74,0.4 -1.27,0.53 -1.93,0.91 -0.18,0.8 0.32,0.31 -0.18,1.97 -1.6,0.54 -3.63,1.36 -5.02,1.77 -1.9,0.56 -3.92,-0.05 -5.64,0.91 0.55,1.8 0.6,-0.86 1.1,2.23l-3.9 1.2c0.87,0.62 0.46,0.33 0.54,2.02 -2.82,0.23 -16.71,0.77 -19.52,0.22 -1.02,-0.19 -3.2,-0.77 -4.3,0.32l-0.82 1.48c-6.83,0.34 -13.4,-1.84 -20,-1.63 -4.94,0.16 -9.99,0.97 -14.94,0.41 -2.72,-0.3 -5.31,-1.19 -8.15,-1.23 -2.16,-0.03 -2.43,0.15 -4.12,-0.79 0.4,-0.92 0.53,-1.02 1.46,-1.36 0.61,-0.22 0.83,-0.09 1.41,-0.45 -0.6,-2.38 -3.09,-1.78 -5.23,-1.81 -4.21,-0.08 -8.88,-1.11 -13.15,-0.31 -1.54,0.28 -1.12,0.32 -2.03,1.35 -1.12,1.27 -6.67,2.6 -8.19,2.66l-15.5 0.01c-2.94,0.01 -5.46,-2.02 -8.16,-1.65 -5.35,0.67 -9.12,0.95 -14.43,0.44 -1.44,-0.14 -4.01,-0.15 -5.2,-1.19 -0.65,-0.55 -0.11,0.17 -0.56,-0.71 0.86,-1.02 8.01,-2.67 8.64,-2.7 -0.05,-0.02 -0.02,-0.18 -0.02,-0.19 0,-0.01 0,-0.13 0.01,-0.15 0.21,-1.31 0.35,-0.7 0.39,-1.77 -2.58,1.29 -5.14,2.6 -7.69,3.93 -1.44,0.75 -2.88,1.51 -4.31,2.27 -1.85,0.99 -3.69,1.98 -5.52,2.99 1.32,0.27 2.9,0.44 5.03,0.44 6.21,0 8.24,-2.35 16.74,-0.57 2.48,0.51 4.36,0.23 6.87,0.62l22.88 3.14c2.53,0.3 7.51,0.44 9.95,-0.21 2,-0.52 4.19,-1.78 6.09,-1.78 6.35,0 9.9,-0.57 15.76,0.81 1.41,0.34 2.4,0.62 3.95,0.8 2.1,0.24 1.44,1.16 3.64,1.23l13.21 -0.9c3.15,-0.69 4.97,0.87 8.21,0.87 3.55,0 3.12,0.33 6.32,-0.63 3.89,-1.14 6.28,-0.61 9.01,-1.21 4.12,-0.88 8.89,0.56 13,-0.33 2.02,-0.44 3.91,-0.38 5.91,-0.82 1.77,-0.38 4.63,-0.4 6.33,-0.6 3.63,-0.44 3.16,-0.78 4.88,-2.27 2.25,-1.95 12.29,1.11 17.08,-2.16 -0.29,-1.77 -0.73,-1.68 -0.85,-3.62l4.73 -3.71c0.61,-0.38 1.98,-0.2 2.03,-3.92 -1.85,-0.7 0.27,-0.82 -4.22,-0.8l-9.47 -0.56c-8.91,-2.11 -10.2,-1.57 -18.71,-1.84 -2.25,-0.07 -2.31,-1.08 -3.92,-1.62 1.5,-3.22 5.84,-5.45 7.32,-5.62l0 -1.61 -8.64 -2.55c-1.37,-0.48 -4.84,-4.87 -11.44,-3.59 -4.4,0.87 -6,-0.99 -7.88,-1.38 -3.32,-0.7 -10.34,-2.24 -13.05,0.45 -0.56,0.55 0.21,0.04 -0.53,0.46 -0.48,0.28 -0.43,0.09 -0.91,0.3 -1.79,0.76 -0.29,1.42 -2.48,2.09l-10.84 1.41c-1.55,0.06 -2.02,0.51 -3.41,0.77 -2.71,0.5 -1.5,1.64 -2.79,1.64l0 0c-2.1,0 0,-1.61 -1.69,-1.61l-13.87 1.51c-0.77,0.26 -0.96,0.44 -1.78,0.67 -0.84,0.23 -1.51,0.1 -2.15,0.54 -0.78,0.52 -0.67,1.3 -4.16,1.3 -4.01,0 -9.03,0.22 -13.32,-0.31l-1.43 0.58 -0.04 0.02 -0.18 0.07c-3.25,1.34 -6.48,2.71 -9.7,4.11l-0.18 0.07 -0.18 0.08c0.47,0.71 0.98,1.56 1.52,2.6l0 0.01z"/>
  <path class="fil1" d="M302.09 44.25c-0.54,-1.05 -1.05,-1.9 -1.52,-2.61l-0.38 0.17 -0.37 0.16c-3.24,1.42 -6.46,2.87 -9.66,4.36l-0.37 0.17 -1.54 0.72c-2.99,1.41 -5.98,2.84 -8.94,4.31 -0.76,0.37 -1.52,0.75 -2.27,1.13l-0.07 0.03c-0.04,1.07 -0.18,0.46 -0.39,1.78 -0.01,0.02 -0.01,0.13 -0.01,0.14 0,0.02 -0.02,0.17 0.02,0.19 -0.63,0.03 -7.78,1.69 -8.64,2.7 0.45,0.89 -0.09,0.16 0.56,0.71 1.19,1.04 3.76,1.05 5.2,1.19 5.32,0.51 9.08,0.23 14.43,-0.44 2.7,-0.36 5.22,1.67 8.16,1.66l15.5 -0.01c1.52,-0.06 7.08,-1.4 8.19,-2.67 0.91,-1.03 0.49,-1.07 2.03,-1.35 4.27,-0.8 8.94,0.23 13.15,0.31 2.14,0.03 4.63,-0.56 5.23,1.81 -0.57,0.36 -0.8,0.23 -1.41,0.45 -0.93,0.34 -1.06,0.44 -1.45,1.37 1.68,0.93 1.95,0.75 4.11,0.78 2.84,0.04 5.43,0.93 8.15,1.24 4.95,0.55 10,-0.26 14.94,-0.42 6.6,-0.21 13.17,1.97 20,1.63l0.82 -1.47c1.1,-1.1 3.28,-0.52 4.3,-0.33 2.81,0.56 16.7,0.01 19.52,-0.22 -0.08,-1.69 0.33,-1.39 -0.54,-2.02l3.9 -1.19c-0.5,-3.1 -0.55,-0.44 -1.1,-2.23 1.72,-0.97 3.74,-0.36 5.64,-0.92 1.39,-0.41 3.42,-1.22 5.02,-1.77 0.5,-1.65 0,-1.16 0.18,-1.97 0.66,-0.38 1.19,-0.51 1.93,-0.91 1.29,-0.7 0.59,-0.65 1.54,-1.19 -0.42,-0.51 0.15,-0.18 -0.83,-0.7 -0.82,-0.43 -1.79,-0.32 -2.64,-0.36 -1.32,-0.06 -2.11,-0.25 -3.36,-0.33 -2.5,-0.16 -4.6,-0.41 -7.08,-0.49 -4.27,-0.15 -7.66,-3.9 -11.73,-4.35 0.82,-1.77 1.68,-1.5 1.75,-3.89l-2.48 -1.59c0.79,-0.53 3.16,-0.21 3.38,-1.61 -0.25,-2.48 0.54,-0.66 -1.14,-1.6 -3.9,-2.19 -6.06,-1.91 -10.32,-1.83 -0.56,-1.8 -2.15,-2.75 -3.66,-2.98 -3.65,-0.58 -6.6,-1.6 -10.06,-2.29 -2.01,-0.41 -3.15,0.22 -5.15,0.26 -0.61,1.58 -2.38,2.27 -2.95,2.71 -0.45,0.35 0.04,0.06 -0.58,0.43 -2.25,1.34 -5.31,1.19 -8.01,1.5 -0.06,0.1 -0.1,0.25 -0.13,0.32l-0.37 0.78c-0.45,0.8 0.45,0.06 -0.35,0.4 -1.2,0.01 -2.76,-0.06 -3.91,0.21 -2.82,0.68 -4.62,4.11 -11.37,1.73 -1.66,-0.58 -3.42,0.37 -4.89,0.73 -1.79,0.45 -3.64,-0.02 -5.47,0.66l-0.77 1.3c1.66,0.81 -1.23,-0.3 0.5,0.21 3.61,1.08 9.46,-1.73 12.33,-0.35 1.04,0.5 6.17,1.17 8.06,2.62 -1.3,2.34 -4.44,1.79 -7.16,1.82 -3.12,0.04 -5.03,0.78 -7.47,1.96 0.48,1.07 0.61,0.66 1.2,1.74l-6.68 0.4c-3.27,0.25 -2.8,-0.77 -4.8,-1.22 -3.36,-0.78 -12.36,-0.84 -15.76,-0.84 -4.31,0 -8.77,1.89 -12.74,0.66 0.05,-0.11 0.5,-0.32 0.78,-1.3l0 0z"/>
  <path class="fil1" d="M827.86 133.64c1.78,-4.34 3.21,-6.59 4.58,-7.95l0.98 0.87c2.46,2.18 4.89,4.39 7.31,6.63 0.76,0.71 1.52,1.41 2.28,2.13 1.93,1.8 3.85,3.63 5.75,5.46 1.24,1.2 2.47,2.4 3.7,3.61 1.46,1.44 2.91,2.89 4.35,4.35 1.51,1.52 3,3.06 4.49,4.6 1.21,1.26 2.42,2.52 3.62,3.79l0 0.01c-0.75,0.09 -1.47,0.14 -2.04,0.21 -6.56,0.8 -11.2,0.36 -17.8,-0.7 -3.33,-0.56 -6.45,2.61 -10.08,2.6l-19.13 -0.02c-1.87,-0.09 -8.73,-2.18 -10.1,-4.16 -1.12,-1.62 -0.61,-1.68 -2.51,-2.12 -5.27,-1.25 -11.03,0.36 -16.23,0.48 -2.64,0.05 -5.72,-0.88 -6.46,2.83 0.72,0.57 0.99,0.36 1.75,0.71 1.14,0.53 1.31,0.69 1.79,2.14 -2.08,1.46 -2.41,1.18 -5.08,1.22 -3.5,0.07 -6.7,1.46 -10.06,1.94 -6.11,0.86 -12.34,-0.4 -18.44,-0.65 -8.14,-0.33 -16.25,3.08 -24.68,2.55l-1.01 -2.31c-1.36,-1.72 -4.04,-0.8 -5.31,-0.51 -3.47,0.87 -20.61,0.02 -24.09,-0.34 0.1,-2.64 -0.41,-2.19 0.67,-3.16l-4.81 -1.87c0.61,-4.84 0.67,-0.68 1.35,-3.49 -2.12,-1.51 -4.62,-0.55 -6.96,-1.43 -1.72,-0.65 -4.22,-1.92 -6.2,-2.77 -0.62,-2.59 0,-1.82 -0.22,-3.08 -0.81,-0.6 -1.46,-0.8 -2.38,-1.43 -1.59,-1.1 -0.72,-1.02 -1.89,-1.85 0.51,-0.81 -0.19,-0.29 1.02,-1.1 1,-0.68 2.2,-0.51 3.26,-0.57 1.62,-0.09 2.6,-0.39 4.14,-0.52 3.09,-0.25 5.67,-0.63 8.74,-0.75 5.28,-0.24 9.45,-6.12 14.48,-6.81 -1.02,-2.77 -2.08,-2.36 -2.16,-6.08l3.05 -2.5c-0.96,-0.82 -3.89,-0.33 -4.16,-2.52 0.31,-3.88 -0.66,-1.04 1.41,-2.5 4.8,-3.42 7.47,-2.98 12.73,-2.86 0.69,-2.81 2.66,-4.31 4.51,-4.67 4.51,-0.89 8.15,-2.5 12.42,-3.58 2.49,-0.63 3.89,0.34 6.36,0.41 0.75,2.47 2.93,3.55 3.63,4.24 0.56,0.55 -0.04,0.1 0.73,0.68 2.77,2.09 6.55,1.85 9.89,2.34 0.06,0.16 0.12,0.39 0.15,0.5l0.45 1.21c0.57,1.26 -0.55,0.1 0.44,0.63 1.48,0.02 3.41,-0.09 4.83,0.33 3.47,1.07 5.7,6.43 14.02,2.71 2.06,-0.92 4.23,0.58 6.05,1.14 2.21,0.71 4.49,-0.03 6.75,1.04l0.95 2.03c-2.06,1.27 1.52,-0.47 -0.62,0.33 -4.45,1.68 -11.68,-2.7 -15.22,-0.55 -1.29,0.79 -7.62,1.82 -9.95,4.1 1.61,3.66 5.48,2.8 8.83,2.85 3.86,0.06 6.21,1.21 9.23,3.06 -0.6,1.67 -0.75,1.03 -1.48,2.72l8.24 0.63c4.04,0.4 3.46,-1.21 5.92,-1.92 4.16,-1.21 15.26,-1.3 19.46,-1.3 5.31,0 10.82,2.95 15.72,1.04 -0.07,-0.18 -0.61,-0.51 -0.96,-2.05l0 0z"/>
  <path class="fil2" d="M827.86 133.64c0.35,1.54 0.9,1.87 0.97,2.04 -4.91,1.92 -10.42,-1.04 -15.73,-1.04 -4.2,0 -15.3,0.1 -19.46,1.31 -2.46,0.71 -1.88,2.31 -5.92,1.92l-8.23 -0.63c0.72,-1.7 0.87,-1.05 1.47,-2.72 -3.01,-1.86 -5.37,-3 -9.22,-3.07 -3.36,-0.04 -7.23,0.82 -8.84,-2.84 2.33,-2.28 8.66,-3.32 9.95,-4.1 3.54,-2.16 10.77,2.23 15.22,0.55 2.14,-0.81 -1.44,0.94 0.62,-0.33l-0.95 -2.03c-2.26,-1.07 -4.54,-0.33 -6.75,-1.04 -1.82,-0.57 -3.99,-2.06 -6.04,-1.15 -8.33,3.73 -10.55,-1.63 -14.03,-2.7 -1.42,-0.43 -3.35,-0.32 -4.83,-0.33 -0.99,-0.54 0.13,0.63 -0.43,-0.63l-0.46 -1.21c-0.03,-0.11 -0.08,-0.35 -0.15,-0.5 -3.33,-0.49 -7.12,-0.26 -9.89,-2.35 -0.77,-0.58 -0.17,-0.12 -0.72,-0.67 -0.71,-0.69 -2.89,-1.78 -3.64,-4.25 -2.47,-0.06 -3.87,-1.03 -6.36,-0.41 -4.27,1.09 -7.91,2.69 -12.42,3.59 -1.85,0.36 -3.82,1.85 -4.51,4.67 -5.26,-0.13 -7.92,-0.57 -12.73,2.86 -2.07,1.46 -1.1,-1.39 -1.41,2.5 0.27,2.18 3.2,1.7 4.16,2.51l-3.05 2.5c0.08,3.73 1.14,3.32 2.16,6.09 -5.03,0.69 -9.2,6.57 -14.48,6.8 -3.06,0.13 -5.65,0.51 -8.73,0.76 -1.54,0.12 -2.53,0.42 -4.15,0.52 -1.06,0.06 -2.26,-0.11 -3.26,0.56 -1.21,0.82 -0.51,0.3 -1.02,1.1 1.17,0.84 0.3,0.76 1.89,1.86 0.92,0.63 1.57,0.83 2.39,1.43 0.21,1.26 -0.4,0.48 0.21,3.08 1.98,0.85 4.48,2.12 6.2,2.76 2.34,0.89 4.84,-0.07 6.96,1.44 -0.68,2.81 -0.74,-1.36 -1.35,3.48l4.81 1.88c-1.07,0.97 -0.57,0.51 -0.67,3.15 3.48,0.37 20.63,1.22 24.1,0.35 1.26,-0.3 3.94,-1.21 5.3,0.5l1.01 2.31c8.43,0.54 16.54,-2.87 24.68,-2.54 6.1,0.25 12.34,1.51 18.44,0.64 3.36,-0.47 6.56,-1.87 10.06,-1.93 2.67,-0.05 3,0.23 5.08,-1.23 -0.48,-1.44 -0.65,-1.6 -1.79,-2.14 -0.75,-0.34 -1.03,-0.14 -1.75,-0.7 0.74,-3.71 3.82,-2.78 6.47,-2.83 5.19,-0.13 10.95,-1.73 16.23,-0.49 1.89,0.44 1.38,0.5 2.5,2.12 1.37,1.98 8.23,4.07 10.11,4.17l19.12 0.01c3.64,0.02 6.75,-3.16 10.08,-2.59 6.6,1.05 11.25,1.49 17.8,0.69 0.57,-0.07 1.29,-0.12 2.04,-0.21l0.06 0.07c1.26,1.33 2.5,2.67 3.74,4.02l0.06 0.06c-4.19,-0.91 -7.6,-2.26 -15.16,-0.26 -3.06,0.81 -5.38,0.37 -8.49,0.98l-28.23 4.9c-3.13,0.47 -9.27,0.69 -12.29,-0.33 -2.46,-0.82 -5.16,-2.78 -7.5,-2.78 -7.84,0 -12.23,-0.9 -19.46,1.27 -1.74,0.52 -2.96,0.96 -4.88,1.25 -2.58,0.37 -1.77,1.82 -4.49,1.93l-16.29 -1.42c-3.9,-1.08 -6.14,1.37 -10.15,1.37 -4.37,0 -3.85,0.5 -7.8,-0.99 -4.8,-1.79 -7.74,-0.96 -11.11,-1.88 -5.09,-1.39 -10.97,0.86 -16.05,-0.52 -2.48,-0.69 -4.82,-0.6 -7.29,-1.29 -2.19,-0.6 -5.71,-0.63 -7.82,-0.95 -4.47,-0.67 -3.89,-1.21 -6.02,-3.55 -2.77,-3.05 -15.17,1.75 -21.08,-3.38 0.36,-2.77 0.91,-2.62 1.05,-5.66l-5.83 -5.8c-0.76,-0.6 -2.44,-0.31 -2.51,-6.13 2.28,-1.1 -0.33,-1.29 5.21,-1.26l11.69 -0.86c10.99,-3.3 12.59,-2.47 23.09,-2.88 2.77,-0.11 2.85,-1.7 4.84,-2.54 -1.86,-5.03 -7.21,-8.52 -9.04,-8.79l0 -2.52 10.66 -3.99c1.7,-0.75 5.98,-7.62 14.12,-5.61 5.44,1.35 7.41,-1.56 9.73,-2.17 4.1,-1.08 12.76,-3.51 16.1,0.71 0.69,0.86 -0.25,0.06 0.66,0.72 0.6,0.44 0.53,0.14 1.13,0.47 2.21,1.18 0.35,2.22 3.05,3.27l13.38 2.2c1.91,0.1 2.49,0.8 4.21,1.21 3.34,0.79 1.86,2.57 3.44,2.57l0 -0.01c2.6,0 0,-2.51 2.09,-2.51l17.11 2.36c0.96,0.41 1.19,0.69 2.2,1.05 1.05,0.36 1.86,0.16 2.66,0.83 0.96,0.82 0.82,2.05 5.14,2.05 6.26,0 14.49,0.55 20.41,-1.43 2.86,-0.97 3.52,-1.67 5.32,-2.04l0.12 0.11c2.52,2.14 5.02,4.3 7.5,6.49l0.12 0.11 0.12 0.11c-1.37,1.36 -2.8,3.61 -4.58,7.95l0 0z"/>
  <path class="fil1" d="M827.86 133.64c1.78,-4.34 3.21,-6.59 4.58,-7.95l0.98 0.87c2.46,2.18 4.89,4.39 7.31,6.63 0.76,0.71 1.52,1.41 2.28,2.13 1.93,1.8 3.85,3.63 5.75,5.46 1.24,1.2 2.47,2.4 3.7,3.61 1.46,1.44 2.91,2.89 4.35,4.35 1.51,1.52 3,3.06 4.49,4.6 1.21,1.26 2.42,2.52 3.62,3.79l0 0.01c-0.75,0.09 -1.47,0.14 -2.04,0.21 -6.56,0.8 -11.2,0.36 -17.8,-0.7 -3.33,-0.56 -6.45,2.61 -10.08,2.6l-19.13 -0.02c-1.87,-0.09 -8.73,-2.18 -10.1,-4.16 -1.12,-1.62 -0.61,-1.68 -2.51,-2.12 -5.27,-1.25 -11.03,0.36 -16.23,0.48 -2.64,0.05 -5.72,-0.88 -6.46,2.83 0.72,0.57 0.99,0.36 1.75,0.71 1.14,0.53 1.31,0.69 1.79,2.14 -2.08,1.46 -2.41,1.18 -5.08,1.22 -3.5,0.07 -6.7,1.46 -10.06,1.94 -6.11,0.86 -12.34,-0.4 -18.44,-0.65 -8.14,-0.33 -16.25,3.08 -24.68,2.55l-1.01 -2.31c-1.36,-1.72 -4.04,-0.8 -5.31,-0.51 -3.47,0.87 -20.61,0.02 -24.09,-0.34 0.1,-2.64 -0.41,-2.19 0.67,-3.16l-4.81 -1.87c0.61,-4.84 0.67,-0.68 1.35,-3.49 -2.12,-1.51 -4.62,-0.55 -6.96,-1.43 -1.72,-0.65 -4.22,-1.92 -6.2,-2.77 -0.62,-2.59 0,-1.82 -0.22,-3.08 -0.81,-0.6 -1.46,-0.8 -2.38,-1.43 -1.59,-1.1 -0.72,-1.02 -1.89,-1.85 0.51,-0.81 -0.19,-0.29 1.02,-1.1 1,-0.68 2.2,-0.51 3.26,-0.57 1.62,-0.09 2.6,-0.39 4.14,-0.52 3.09,-0.25 5.67,-0.63 8.74,-0.75 5.28,-0.24 9.45,-6.12 14.48,-6.81 -1.02,-2.77 -2.08,-2.36 -2.16,-6.08l3.05 -2.5c-0.96,-0.82 -3.89,-0.33 -4.16,-2.52 0.31,-3.88 -0.66,-1.04 1.41,-2.5 4.8,-3.42 7.47,-2.98 12.73,-2.86 0.69,-2.81 2.66,-4.31 4.51,-4.67 4.51,-0.89 8.15,-2.5 12.42,-3.58 2.49,-0.63 3.89,0.34 6.36,0.41 0.75,2.47 2.93,3.55 3.63,4.24 0.56,0.55 -0.04,0.1 0.73,0.68 2.77,2.09 6.55,1.85 9.89,2.34 0.06,0.16 0.12,0.39 0.15,0.5l0.45 1.21c0.57,1.26 -0.55,0.1 0.44,0.63 1.48,0.02 3.41,-0.09 4.83,0.33 3.47,1.07 5.7,6.43 14.02,2.71 2.06,-0.92 4.23,0.58 6.05,1.14 2.21,0.71 4.49,-0.03 6.75,1.04l0.95 2.03c-2.06,1.27 1.52,-0.47 -0.62,0.33 -4.45,1.68 -11.68,-2.7 -15.22,-0.55 -1.29,0.79 -7.62,1.82 -9.95,4.1 1.61,3.66 5.48,2.8 8.83,2.85 3.86,0.06 6.21,1.21 9.23,3.06 -0.6,1.67 -0.75,1.03 -1.48,2.72l8.24 0.63c4.04,0.4 3.46,-1.21 5.92,-1.92 4.16,-1.21 15.26,-1.3 19.46,-1.3 5.31,0 10.82,2.95 15.72,1.04 -0.07,-0.18 -0.61,-0.51 -0.96,-2.05l0 0z"/>
  <path class="fil17" d="M168.94 675.18c-4.12,15.46 -13.86,8.56 -27.76,8.56 -5.03,21.45 -24.39,27.07 -32.2,38.35 -16.53,23.91 4.92,58.25 2.24,68.53 -1.35,5.24 -5.69,8.75 -10.99,10.67l0 -0.01c-0.51,-0.66 -1,-1.33 -1.5,-2 -1.81,-2.43 -3.59,-4.87 -5.35,-7.34 -0.71,-0.99 -1.42,-1.99 -2.13,-2.99 -1.4,-1.99 -2.79,-3.99 -4.16,-6 -1.19,-1.75 -2.38,-3.51 -3.55,-5.28 -0.78,-1.17 -1.56,-2.35 -2.33,-3.53 -1.69,-2.59 -3.35,-5.2 -4.99,-7.81l-0.01 -0.01c4.05,-18.83 7.97,-34 -11.47,-53.21 -26.49,-26.17 -11.5,-28.28 -31.41,-32.48 -0.53,-1.38 -1.06,-2.77 -1.58,-4.17 -0.88,-2.33 -1.74,-4.68 -2.58,-7.03 -0.57,-1.6 -1.14,-3.2 -1.7,-4.81 -0.76,-2.2 -1.5,-4.41 -2.24,-6.63 -0.57,-1.73 -1.14,-3.47 -1.69,-5.21 -0.68,-2.14 -1.35,-4.28 -2,-6.43 -0.55,-1.8 -1.08,-3.6 -1.61,-5.41 -0.62,-2.13 -1.23,-4.27 -1.82,-6.42 -0.51,-1.84 -1.01,-3.68 -1.5,-5.52 -0.55,-2.08 -1.08,-4.17 -1.61,-6.26 -0.47,-1.89 -0.93,-3.78 -1.38,-5.67 -0.51,-2.16 -1.01,-4.32 -1.5,-6.49 -0.42,-1.87 -0.82,-3.74 -1.22,-5.62 -0.47,-2.19 -0.92,-4.4 -1.35,-6.61 -0.37,-1.87 -0.73,-3.74 -1.08,-5.61 -0.42,-2.25 -0.82,-4.51 -1.21,-6.77 -0.32,-1.87 -0.63,-3.76 -0.93,-5.64 -0.36,-2.22 -0.7,-4.45 -1.03,-6.68 -0.28,-1.97 -0.56,-3.95 -0.82,-5.92 -0.29,-2.13 -0.56,-4.25 -0.82,-6.39 -0.25,-2.13 -0.5,-4.27 -0.73,-6.41 -0.21,-1.91 -0.4,-3.83 -0.59,-5.76l0 -0.01c4.44,-6.7 7.8,-6.53 16.99,-6.53 0,-27.06 6.42,-13.26 6.42,-21.39 0,-24.93 -8.13,-9.85 6.74,-33.86 2.67,-4.44 0.48,-1.18 2.67,-5.88 3.43,-7.49 3.85,-5.89 7.65,-11.56 36.16,0 16.42,-21.39 44.93,-21.39 12.09,0 31.08,20.59 39.53,24.6 19.47,9.36 6.58,-4.22 21.72,18.88l20.27 18.19c10.33,6.63 15.68,0.37 27.02,11.5 19.2,18.72 18.56,15.35 19.79,33.64 1.12,16.75 14.01,21.94 2.51,36.86 -8.34,10.81 -5.35,3.1 -8.72,19.1 -3.85,17.92 -13.58,4.81 -13.1,38.19 0.37,22.36 -6.1,25.67 -27.82,25.67l0 0z"/>
  <path class="fil18" d="M197.27 732.1c-7.93,-7.13 -20.92,-17.34 -32.36,-13.8 -20.6,8.13 -29.66,26.4 -30.37,41.34l0 47.06 -8.91 0 0 -51.52c0.71,-14.93 14.23,-37.66 34.83,-45.79 3.61,-1.12 4.57,-1.14 8.62,0 3.68,1.14 9.86,2.25 13.93,5.12 5.64,3.99 11.23,11.01 14.26,17.59z"/>
  <path class="fil19" d="M252.9 628.14l0 178.51 -47.32 0.02 0 -51.49c0.29,-12.91 -13.98,-38.82 -36.5,-45.79 -4.05,-1.14 -5.01,-1.12 -8.62,0 -20.6,8.13 -34.12,30.86 -34.83,45.79l0 51.52 -21.24 0.01c-40.91,-52.91 -71,-113.79 -88.01,-178.57l236.52 0z"/>
  <path class="fil20" d="M743.84 574.67l0 231.73 47.31 -0.01 0 -51.21c-0.29,-12.91 13.99,-38.82 36.5,-45.79 4.06,-1.14 5.02,-1.12 8.63,0 20.6,8.13 34.12,30.86 34.82,45.79l0 51.17 26.22 0c41.06,-53.2 71.65,-114.87 88.7,-181.96l-242.18 -49.72z"/>
  <g id="_45200805632">
   <path class="fil21" d="M755.83 629.44l-11.75 0 0 -3.64 11.75 0 0 3.64z"/>
   <path class="fil22" d="M744.08 629.44l21.58 0 0 -54.71 -21.58 0 0 54.71z"/>
  </g>
  <g id="_45200817504">
   <path class="fil23" d="M305.9 363.26l17.91 -0.07 -4.24 -9.6 -1.51 -12.68 0 -84.21 5.03 0 0 -4.06 -5.03 0 0 -5.03 -5 0 0 5.03 -5.1 0 0 4.06 5.1 0 0 84.21 -2.54 12.68 -4.62 9.67z"/>
   <path class="fil24" d="M239.4 475.6l153.89 0 -69.48 -112.41 -17.91 0.07 -66.5 112.34z"/>
   <path class="fil25" d="M239.4 475.6l153.89 0 -11.55 13.21 -128.84 0 -13.5 -13.21z"/>
   <rect class="fil26" x="252.9" y="488.81" width="128.84" height="317.77"/>
   <rect class="fil27" x="252.9" y="488.81" width="128.84" height="317.77"/>
  </g>
  <g id="_45200803840">
   <path id="pt16" class="fil28" d="M323.81 363.19l1.67 5.3 57.84 93.58c-0.38,4.5 7.66,9.02 6.65,13.47l-29 0.06c-0.37,0 -4.04,-1.67 -4.57,-1.92 -1.85,-0.87 -3.7,-2.27 -5.07,-3.69 -1.48,-1.42 -2.49,-3.11 -3.63,-5.73 -1.14,-2.76 -2.3,-6.58 -3.47,-11.32 -1.05,-4.76 -2.12,-10.44 -3.29,-15.19 -1.18,-4.88 -2.34,-8.83 -3.36,-11.59 -1.02,-2.89 -1.78,-4.46 -2.53,-5.64 -0.75,-1.04 -1.61,-1.67 -2.71,-1.5 -1.1,0.03 -2.55,0.88 -3.87,2.39 -1.32,1.37 -2.63,3.54 -3.81,5.97 -1.19,2.3 -2.37,4.87 -3.32,6.63 -0.95,1.76 -1.54,2.71 -2.27,2.87 -0.61,0.15 -3.84,-0.49 -4.22,-1.28 -0.5,-0.91 -0.88,-1.96 -1.55,-5.93 -0.68,-3.97 -1.76,-10.85 -2.47,-17.21 -1.96,-15.17 -5.14,-28.82 -7.13,-45.52 0.74,-1.22 1.47,-2.45 2.2,-3.68 5.51,-1.07 11.02,-1.01 16.53,-3.21l1.38 3.14z"/>
   <path id="pt15" class="fil29" d="M320.34 355.33l6.68 13.04 54.11 90.17c0.62,4.78 3.67,12.21 3.63,17.06l-6.93 0c-0.48,-1.36 -0.96,-2.88 -1.45,-4.18 -1.01,-2.49 -2.02,-4.59 -3.27,-6.41 -1.25,-1.82 -2.62,-3.37 -4.1,-4.52 -1.36,-1.15 -2.96,-2.03 -4.68,-2.64 -1.72,-0.6 -3.68,-1.2 -5.53,-2.07 -1.84,-0.87 -3.57,-2.14 -5.06,-3.69 -1.37,-1.42 -2.49,-2.98 -3.63,-5.73 -1.14,-2.76 -2.3,-6.58 -3.35,-11.33 -1.18,-4.62 -2.24,-10.3 -3.42,-15.18 -1.17,-4.88 -2.33,-8.83 -3.36,-11.59 -1.02,-2.89 -1.77,-4.46 -2.53,-5.64 -0.74,-1.04 -1.61,-1.67 -2.71,-1.5 -1.09,0.17 -2.42,0.87 -3.74,2.38 -1.32,1.38 -2.63,3.55 -3.94,5.98 -1.18,2.3 -2.36,5 -3.31,6.76 -0.83,1.76 -1.55,2.58 -2.15,2.73 -0.73,0.16 -3.84,-0.35 -4.34,-1.27 -0.51,-0.91 -0.89,-1.96 -1.56,-5.93 -0.67,-3.97 -1.76,-10.85 -2.47,-17.21 -1.24,-11.29 -4.2,-21.44 -5.6,-31.31l12.71 -7.92z"/>
   <path id="pt14" class="fil30" d="M383.02 475.56c-1.16,-3.89 -2.57,-8.64 -2.9,-9.7 -0.64,-2.11 -1.54,-4.87 -2.55,-7.23 -1.02,-2.5 -2.03,-4.59 -3.28,-6.41 -1.25,-1.82 -2.61,-3.37 -4.1,-4.52 -1.36,-1.15 -2.96,-1.9 -4.68,-2.64 -1.72,-0.61 -3.68,-1.07 -5.52,-2.08 -1.85,-0.87 -3.58,-2.14 -5.07,-3.69 -1.36,-1.41 -2.49,-2.97 -3.63,-5.73 -1.14,-2.75 -2.3,-6.44 -3.35,-11.19 -1.17,-4.75 -2.24,-10.43 -3.42,-15.31 -1.05,-4.76 -2.33,-8.84 -3.35,-11.6 -0.9,-2.76 -1.66,-4.46 -2.53,-5.63 -0.75,-1.04 -1.61,-1.54 -2.71,-1.51 -1.1,0.17 -2.43,0.88 -3.75,2.39 -1.32,1.51 -2.63,3.54 -3.81,5.98 -1.31,2.43 -2.49,5 -3.31,6.76 -0.95,1.76 -1.67,2.71 -2.28,2.86 -0.61,0.02 -3.84,-0.49 -4.34,-1.4 -0.5,-0.92 -0.76,-1.97 -1.56,-5.94 -0.67,-3.96 -1.63,-10.71 -2.46,-17.2 -0.72,-6.36 -3.78,-15.72 -4.33,-19.16 -0.05,-0.45 4.78,-5.08 6.16,-6.29 1.3,-0.96 1.82,-5.14 2.73,-7.71 0.93,2.87 1,5.9 2.79,8.62l71.52 118.33 -10.27 0z"/>
  </g>
  <g id="_45170832736">
   <path class="fil31" d="M205.58 806.67l0 -51.49c0.29,-12.91 -13.98,-38.82 -36.5,-45.79 -4.05,-1.14 -5.01,-1.12 -8.62,0 -20.6,8.13 -34.12,30.86 -34.83,45.79l0 51.52 -8.96 0 0 -52.07c0.86,-18.28 17.41,-46.1 42.63,-56.06 4.42,-1.37 5.59,-1.39 10.56,0 27.56,8.54 45.04,40.26 44.68,56.06l0 52.03 -8.96 0.01z"/>
   <path class="fil32" d="M137.05 657.61l9.18 0 0 24.7 -9.18 0 0 -24.7z"/>
   <path class="fil33" d="M131.65 651.95l5.4 5.66 9.18 0 5.4 -5.58 -19.98 -0.08z"/>
   <path class="fil34" d="M131.65 651.95l5.4 5.66 0 24.7 -5.4 5.66 0 -36.02z"/>
   <path class="fil35" d="M131.65 687.97l5.4 -5.66 9.18 0 5.4 5.66 -19.98 0z"/>
   <path class="fil36" d="M151.63 687.97l-5.4 -5.66 0 -24.7 5.4 -5.58 0 35.94z"/>
   <path class="fil32" d="M187.84 657.61l9.17 0 0 24.7 -9.17 0 0 -24.7z"/>
   <path class="fil33" d="M182.43 651.95l5.41 5.66 9.17 0 5.4 -5.58 -19.98 -0.08z"/>
   <path class="fil34" d="M182.43 651.95l5.41 5.66 0 24.7 -5.41 5.66 0 -36.02z"/>
   <path class="fil35" d="M182.43 687.97l5.41 -5.66 9.17 0 5.4 5.66 -19.98 0z"/>
   <path class="fil36" d="M202.41 687.97l-5.4 -5.66 0 -24.7 5.4 -5.58 0 35.94z"/>
   <path class="fil37" d="M350.06 514.67l7.15 0 0 22.25 -7.15 0 0 -22.25z"/>
   <path class="fil33" d="M345.85 509.57l4.21 5.1 7.15 0 4.21 -5.03 -15.57 -0.07z"/>
   <path class="fil34" d="M345.85 509.57l4.21 5.1 0 22.25 -4.21 5.1 0 -32.45z"/>
   <path class="fil35" d="M345.85 542.02l4.21 -5.1 7.15 0 4.21 5.1 -15.57 0z"/>
   <path class="fil36" d="M361.42 542.02l-4.21 -5.1 0 -22.25 4.21 -5.03 0 32.38z"/>
   <path class="fil37" d="M274.79 514.21l6.28 0 0 23.17 -6.28 0 0 -23.17z"/>
   <path class="fil33" d="M271.1 508.9l3.69 5.31 6.28 0 3.7 -5.23 -13.67 -0.08z"/>
   <path class="fil34" d="M271.1 508.9l3.69 5.31 0 23.17 -3.69 5.3 0 -33.78z"/>
   <path class="fil35" d="M271.1 542.68l3.69 -5.3 6.28 0 3.7 5.3 -13.67 0z"/>
   <path class="fil36" d="M284.77 542.68l-3.7 -5.3 0 -23.17 3.7 -5.23 0 33.7z"/>
  </g>
  <g id="_45170799648">
   <g>
    <path class="fil38" d="M252.66 575.15l12.51 54.29 -248.44 0c-0.63,-2.39 -1.25,-4.79 -1.85,-7.19 -0.4,-1.62 -0.79,-3.24 -1.18,-4.87 -0.56,-2.35 -1.11,-4.7 -1.64,-7.07 -0.39,-1.78 -0.78,-3.57 -1.16,-5.36 -0.46,-2.14 -0.9,-4.29 -1.33,-6.45 -0.4,-2.06 -0.8,-4.12 -1.18,-6.19 -0.36,-1.91 -0.7,-3.83 -1.03,-5.74 -0.41,-2.37 -0.8,-4.74 -1.18,-7.11 -0.25,-1.58 -0.49,-3.15 -0.72,-4.74l-0.01 -0.02 247.21 0.45z"/>
    <path class="fil39" d="M16.73 629.44l248.44 0 0 4.05 -247.34 0c-0.36,-1.33 -0.72,-2.65 -1.08,-3.99l0 0 -0.02 -0.06z"/>
   </g>
   <g>
    <path id="pt11" class="fil40" d="M97.95 574.78c2.37,1.1 4.37,2.59 7.65,2.8l130.99 43.61c1.45,2.31 8.12,5.87 8.03,8.22l-15.67 -0.02c-1.13,-0.66 -2.38,-1.35 -3.53,-1.97 -2.38,-1.21 -4.76,-2.22 -7.7,-3.11 -2.93,-0.88 -6.15,-1.63 -9.64,-2.18 -3.19,-0.56 -6.96,-0.98 -11,-1.28 -4.04,-0.29 -8.66,-0.58 -12.99,-1 -4.34,-0.42 -8.4,-1.04 -11.91,-1.79 -3.21,-0.68 -5.85,-1.44 -8.53,-2.77 -2.69,-1.33 -5.41,-3.18 -7.88,-5.48 -2.76,-2.23 -5.27,-4.98 -8.03,-7.34 -2.76,-2.36 -5.49,-4.27 -7.89,-5.61 -2.4,-1.4 -4.18,-2.16 -5.95,-2.73 -1.76,-0.5 -3.79,-0.8 -6.37,-0.72 -2.58,0.08 -5.71,0.42 -8.81,1.15 -3.11,0.66 -6.18,1.72 -9.25,2.89 -2.79,1.12 -5.56,2.42 -7.79,3.27 -1.94,0.85 -3.63,1.25 -5.06,1.33 -1.72,0.07 -9.02,-0.18 -10.2,-0.62 -1.18,-0.44 -2.08,-0.95 -3.66,-2.87 -1.59,-1.92 -4.14,-5.25 -5.81,-8.32 -2.91,-5.47 -9.86,-10.66 -13.15,-15.43l34.15 -0.03z"/>
    <path id="pt10" class="fil41" d="M240.96 629.4c-2.72,-1.88 -5.99,-4.14 -6.75,-4.66 -1.51,-1.02 -3.62,-2.35 -6,-3.5 -2.39,-1.2 -4.77,-2.21 -7.7,-3.09 -2.94,-0.89 -6.16,-1.64 -9.64,-2.19 -3.2,-0.56 -6.96,-0.92 -11.01,-1.28 -4.04,-0.29 -8.65,-0.52 -12.99,-1 -4.34,-0.42 -8.4,-1.04 -11.91,-1.79 -3.2,-0.68 -5.85,-1.44 -8.53,-2.77 -2.69,-1.33 -5.4,-3.11 -7.88,-5.41 -2.76,-2.3 -5.26,-5.05 -8.03,-7.41 -2.47,-2.3 -5.49,-4.27 -7.89,-5.61 -2.11,-1.34 -3.9,-2.16 -5.95,-2.73 -1.76,-0.5 -3.79,-0.74 -6.37,-0.72 -2.58,0.08 -5.71,0.42 -8.81,1.15 -3.1,0.73 -6.18,1.71 -8.96,2.89 -3.07,1.18 -5.84,2.42 -7.79,3.27 -2.23,0.85 -3.91,1.32 -5.35,1.39 -1.43,0.01 -9.02,-0.24 -10.2,-0.68 -1.18,-0.44 -1.79,-0.95 -3.66,-2.87 -1.59,-1.92 -3.84,-5.19 -5.8,-8.32 -1.68,-3.08 -4.11,-7.58 -5.39,-9.24 -0.14,-0.22 164.31,0.32 178.31,0.32l12.51 54.29 -24.21 -0.04z"/>
   </g>
  </g>
  <g id="_45170790848">
   <path class="fil32" d="M299.81 595.69l9.17 0 0 24.69 -9.17 0 0 -24.69z"/>
   <path class="fil33" d="M294.4 590.03l5.41 5.66 9.17 0 5.4 -5.58 -19.98 -0.08z"/>
   <path class="fil34" d="M294.4 590.03l5.41 5.66 0 24.69 -5.41 5.66 0 -36.01z"/>
   <path class="fil35" d="M294.4 626.04l5.41 -5.66 9.17 0 5.4 5.66 -19.98 0z"/>
   <path class="fil36" d="M314.38 626.04l-5.4 -5.66 0 -24.69 5.4 -5.58 0 35.93z"/>
  </g>
  <g id="_45170800928">
   <path class="fil38" d="M252.66 575.15l12.51 54.29 -248.44 0c-0.63,-2.39 -1.25,-4.79 -1.85,-7.19 -0.4,-1.62 -0.79,-3.24 -1.18,-4.87 -0.56,-2.35 -1.11,-4.7 -1.64,-7.07 -0.39,-1.78 -0.78,-3.57 -1.16,-5.36 -0.46,-2.14 -0.9,-4.29 -1.33,-6.45 -0.4,-2.06 -0.8,-4.12 -1.18,-6.19 -0.36,-1.91 -0.7,-3.83 -1.03,-5.74 -0.41,-2.37 -0.8,-4.74 -1.18,-7.11 -0.25,-1.58 -0.49,-3.15 -0.72,-4.74l-0.01 -0.02 247.21 0.45z"/>
   <path id="pt9" class="fil42" d="M74.35 574.83c8.53,0.31 23.04,2.24 31.39,2.79l135.98 45.27c-0.88,2.18 -2.5,4.35 -4.87,6.51l-48.1 -0.07 -0.01 0c-3.43,-0.24 -6.86,-0.49 -10.3,-0.82 -4.34,-0.42 -8.7,-1.1 -11.91,-1.79 -3.5,-0.68 -5.86,-1.5 -8.54,-2.77 -2.68,-1.33 -5.41,-3.18 -8.16,-5.48 -2.48,-2.3 -4.98,-5.04 -7.74,-7.34 -2.77,-2.36 -5.49,-4.28 -7.89,-5.61 -2.41,-1.4 -4.19,-2.16 -5.95,-2.73 -1.76,-0.5 -3.8,-0.81 -6.37,-0.73 -2.59,0.02 -6,0.43 -9.1,1.16 -3.11,0.67 -6.18,1.72 -8.96,2.89 -2.79,1.12 -5.56,2.36 -7.79,3.21 -2.24,0.85 -3.64,1.31 -5.35,1.39 -1.43,0.07 -9.02,-0.24 -9.91,-0.62 -1.19,-0.44 -2.08,-0.95 -3.67,-2.87 -1.58,-1.92 -4.13,-5.25 -5.8,-8.33 -4.59,-7.34 -13.22,-16.03 -17.9,-24.1l20.95 0.04z"/>
   <path id="pt8" class="fil43" d="M97.95 574.78c2.37,1.1 4.37,2.59 7.65,2.8l130.99 43.61c1.45,2.31 8.12,5.87 8.03,8.22l-15.67 -0.02c-1.13,-0.66 -2.38,-1.35 -3.53,-1.97 -2.38,-1.21 -4.76,-2.22 -7.7,-3.11 -2.93,-0.88 -6.15,-1.63 -9.64,-2.18 -3.19,-0.56 -6.96,-0.98 -11,-1.28 -4.04,-0.29 -8.66,-0.58 -12.99,-1 -4.34,-0.42 -8.4,-1.04 -11.91,-1.79 -3.21,-0.68 -5.85,-1.44 -8.53,-2.77 -2.69,-1.33 -5.41,-3.18 -7.88,-5.48 -2.76,-2.23 -5.27,-4.98 -8.03,-7.34 -2.76,-2.36 -5.49,-4.27 -7.89,-5.61 -2.4,-1.4 -4.18,-2.16 -5.95,-2.73 -1.76,-0.5 -3.79,-0.8 -6.37,-0.72 -2.58,0.08 -5.71,0.42 -8.81,1.15 -3.11,0.66 -6.18,1.72 -9.25,2.89 -2.79,1.12 -5.56,2.42 -7.79,3.27 -1.94,0.85 -3.63,1.25 -5.06,1.33 -1.72,0.07 -9.02,-0.18 -10.2,-0.62 -1.18,-0.44 -2.08,-0.95 -3.66,-2.87 -1.59,-1.92 -4.14,-5.25 -5.81,-8.32 -2.91,-5.47 -9.86,-10.66 -13.15,-15.43l34.15 -0.03z"/>
   <path id="pt7" class="fil41" d="M240.96 629.4c-2.72,-1.88 -5.99,-4.14 -6.75,-4.66 -1.51,-1.02 -3.62,-2.35 -6,-3.5 -2.39,-1.2 -4.77,-2.21 -7.7,-3.09 -2.94,-0.89 -6.16,-1.64 -9.64,-2.19 -3.2,-0.56 -6.96,-0.92 -11.01,-1.28 -4.04,-0.29 -8.65,-0.52 -12.99,-1 -4.34,-0.42 -8.4,-1.04 -11.91,-1.79 -3.2,-0.68 -5.85,-1.44 -8.53,-2.77 -2.69,-1.33 -5.4,-3.11 -7.88,-5.41 -2.76,-2.3 -5.26,-5.05 -8.03,-7.41 -2.47,-2.3 -5.49,-4.27 -7.89,-5.61 -2.11,-1.34 -3.9,-2.16 -5.95,-2.73 -1.76,-0.5 -3.79,-0.74 -6.37,-0.72 -2.58,0.08 -5.71,0.42 -8.81,1.15 -3.1,0.73 -6.18,1.71 -8.96,2.89 -3.07,1.18 -5.84,2.42 -7.79,3.27 -2.23,0.85 -3.91,1.32 -5.35,1.39 -1.43,0.01 -9.02,-0.24 -10.2,-0.68 -1.18,-0.44 -1.79,-0.95 -3.66,-2.87 -1.59,-1.92 -3.84,-5.19 -5.8,-8.32 -1.68,-3.08 -4.11,-7.58 -5.39,-9.24 -0.14,-0.22 164.31,0.32 178.31,0.32l12.51 54.29 -24.21 -0.04z"/>
  </g>
  <g id="_45170795840">
   <path class="fil44" d="M997.34 565.01c0.53,-4.24 1.03,-8.48 1.47,-12.73 0.42,-4.27 0.81,-8.53 1.14,-12.8 0.32,-4.29 0.6,-8.57 0.82,-12.86 0.21,-4.31 0.39,-8.62 0.5,-12.93 0.09,-4.33 0.16,-8.64 0.16,-12.97 0,-4.13 -0.05,-8.24 -0.15,-12.34 -0.11,-3.82 -0.25,-7.63 -0.42,-11.45 -0.08,-1.57 -0.16,-3.13 -0.25,-4.69 -0.29,-5.23 -0.68,-10.46 -1.14,-15.67l-0.06 -0.7 -0.06 -0.71c-11.53,1.51 -28.47,19.68 -36.18,23.34 -18.55,8.92 -6.27,-4.03 -20.69,17.99l-19.31 17.32c-9.84,6.32 -14.93,0.36 -25.74,10.96 -18.29,17.83 -17.68,14.62 -18.85,32.05 -1.07,15.95 -13.35,20.89 -2.4,35.11 6.33,8.19 5.81,5.22 6.96,11.34 67.53,13.86 101.3,62.24 114.2,-38.26z"/>
   <path class="fil45" d="M995.89 575.14c4.25,-39.3 7.05,-78.91 3.58,-118.57 -0.65,-7.37 -32.91,20.32 -36.3,21.93 -9.09,4.61 -11.95,0.45 -20.69,17.99l-19.31 17.32c-9.84,6.32 -14.93,0.36 -25.74,10.96 -18.29,17.83 -17.68,14.62 -18.85,32.05 -1.07,15.95 -13.35,20.89 -2.4,35.11 0,0 119.6,-15.78 119.71,-16.79z"/>
  </g>
  <g id="_45170800448">
   <path class="fil46" d="M994.52 575.15l0.59 2.56c-2.96,17.53 -6.74,34.79 -11.3,51.73l-227.98 0c-4.81,-17.91 -8.73,-36.18 -11.75,-54.75l250.44 0.46z"/>
   <g>
    <path id="pt4" class="fil47" d="M839.81 574.78c2.38,1.1 4.37,2.59 7.65,2.8l130.99 43.61c0.94,1.49 4.07,3.51 6.13,5.39 -0.25,0.95 -0.51,1.88 -0.76,2.83l-13 -0.02c-1.14,-0.66 -2.38,-1.35 -3.53,-1.97 -2.39,-1.21 -4.76,-2.22 -7.7,-3.11 -2.94,-0.88 -6.15,-1.63 -9.64,-2.18 -3.2,-0.56 -6.96,-0.98 -11,-1.28 -4.05,-0.29 -8.66,-0.58 -13,-1 -4.34,-0.42 -8.4,-1.04 -11.9,-1.79 -3.21,-0.68 -5.85,-1.44 -8.54,-2.77 -2.68,-1.33 -5.41,-3.18 -7.88,-5.48 -2.76,-2.23 -5.26,-4.98 -8.02,-7.34 -2.77,-2.36 -5.5,-4.27 -7.9,-5.61 -2.4,-1.4 -4.18,-2.16 -5.95,-2.73 -1.75,-0.5 -3.79,-0.8 -6.37,-0.72 -2.57,0.08 -5.7,0.42 -8.81,1.15 -3.1,0.66 -6.18,1.72 -9.25,2.89 -2.78,1.12 -5.55,2.42 -7.78,3.27 -1.95,0.85 -3.64,1.25 -5.07,1.33 -1.71,0.07 -9.01,-0.18 -10.2,-0.62 -1.18,-0.44 -2.08,-0.95 -3.66,-2.87 -1.58,-1.92 -4.13,-5.25 -5.8,-8.32 -2.92,-5.47 -9.87,-10.66 -13.16,-15.43l34.15 -0.03z"/>
    <path id="pt3" class="fil41" d="M982.83 629.4c-2.73,-1.88 -6,-4.14 -6.75,-4.66 -1.51,-1.02 -3.63,-2.35 -6.01,-3.5 -2.39,-1.2 -4.76,-2.21 -7.7,-3.09 -2.94,-0.89 -6.15,-1.64 -9.64,-2.19 -3.2,-0.56 -6.96,-0.92 -11,-1.28 -4.04,-0.29 -8.65,-0.52 -12.99,-1 -4.34,-0.42 -8.41,-1.04 -11.91,-1.79 -3.21,-0.68 -5.85,-1.44 -8.54,-2.77 -2.68,-1.33 -5.4,-3.11 -7.87,-5.41 -2.76,-2.3 -5.27,-5.05 -8.03,-7.41 -2.48,-2.3 -5.5,-4.27 -7.89,-5.61 -2.12,-1.34 -3.9,-2.16 -5.95,-2.73 -1.76,-0.5 -3.79,-0.74 -6.37,-0.72 -2.58,0.08 -5.71,0.42 -8.81,1.15 -3.1,0.73 -6.19,1.71 -8.97,2.89 -3.06,1.18 -5.84,2.42 -7.78,3.27 -2.23,0.85 -3.92,1.32 -5.35,1.39 -1.43,0.01 -9.02,-0.24 -10.2,-0.68 -1.19,-0.44 -1.8,-0.95 -3.67,-2.87 -1.58,-1.92 -3.84,-5.19 -5.8,-8.32 -1.67,-3.08 -4.11,-7.58 -5.38,-9.24 -0.14,-0.22 164.31,0.32 178.3,0.32l0.59 2.55c-2.96,17.53 -6.74,34.78 -11.29,51.71l-0.99 -0.01z"/>
   </g>
   <g>
    <path class="fil48" d="M984.7 629.44l-228.38 0c-5.01,-17.91 -9.09,-36.18 -12.24,-54.75l251.84 0.45 0 0.01c-0.19,1.27 -0.39,2.54 -0.59,3.81 -0.42,2.7 -0.87,5.4 -1.34,8.09 -0.28,1.6 -0.56,3.21 -0.86,4.8 -0.43,2.35 -0.88,4.68 -1.34,7.01 -0.39,1.94 -0.78,3.87 -1.19,5.8 -0.42,1.97 -0.84,3.94 -1.28,5.9 -0.51,2.23 -1.02,4.46 -1.55,6.69 -0.4,1.67 -0.81,3.34 -1.22,5.01 -0.6,2.4 -1.22,4.79 -1.85,7.18z"/>
    <path class="fil49" d="M755.83 629.44l228.87 0 -0.02 0.06 0 0c-0.35,1.34 -0.71,2.66 -1.08,3.99l-226.62 0c-0.39,-1.35 -0.77,-2.7 -1.15,-4.05z"/>
   </g>
  </g>
  <g id="_45170801728">
   <path id="pt1" class="fil50" d="M995.17 579.96c-9.61,-1.71 -20.64,-3.39 -28.18,-4.87l-5.43 -0.01 -184.7 7.73c0.28,2.47 -22.47,10.73 -28.28,15.31 0.57,2.66 1.17,5.32 1.78,7.97l3.08 6c27.59,-23.78 57.15,-11.75 88.41,-3.36l0 0c4.45,0.9 8.9,1.77 13.39,2.55 5.67,0.98 11.45,1.65 15.78,1.93 4.69,0.37 7.98,0.19 11.85,-0.41 3.89,-0.69 8.02,-1.98 12.36,-3.8 3.97,-1.93 8.15,-4.38 12.48,-6.2 4.37,-1.9 8.53,-3.27 12.06,-4.05 3.56,-0.86 6.09,-1.17 8.54,-1.25 2.42,0 5.12,0.33 8.36,1.31 3.28,0.91 7.46,2.57 11.14,4.51 3.71,1.87 7.24,4.19 10.35,6.56 3.13,2.29 6.21,4.74 8.74,6.53 2.52,1.79 4.14,2.83 6.29,3.51 1.79,0.58 11.55,2.8 12.82,2.65 0.16,-0.01 0.31,-0.02 0.47,-0.04l0 -0.01c0.45,-1.79 0.89,-3.59 1.32,-5.39 0.52,-2.18 1.02,-4.37 1.51,-6.57 0.43,-1.91 0.85,-3.83 1.26,-5.75 0.44,-2.09 0.87,-4.19 1.28,-6.29 0.41,-2.02 0.79,-4.05 1.17,-6.08 0.38,-2.03 0.74,-4.07 1.09,-6.11 0.37,-2.12 0.72,-4.23 1.06,-6.36l0 -0.01z"/>
   <path id="pa9" class="fil30" d="M775.47 590.88c3.95,-1.78 9.12,-2.94 10.26,-3.3 2.29,-0.71 5.46,-1.6 8.9,-2.16 3.47,-0.63 6.85,-1.04 10.9,-1.09 4.05,-0.06 8.41,0.14 13.04,0.67 4.27,0.42 9.18,1.28 14.45,2.24 5.24,1.03 11.18,2.33 16.87,3.24 5.66,0.98 11.05,1.63 15.77,1.93 4.33,0.27 7.95,0.27 11.85,-0.41 3.89,-0.69 7.99,-1.91 11.97,-3.83 4.33,-1.82 8.51,-4.27 12.88,-6.17 3.97,-1.92 8.52,-3.27 12.05,-4.05 3.17,-0.89 5.73,-1.27 8.55,-1.25 2.42,0 5.08,0.4 8.36,1.31 3.24,0.98 7.09,2.47 10.77,4.41 3.68,1.94 7.24,4.19 10.35,6.56 3.47,2.47 6.54,4.92 8.71,6.61 2.52,1.79 4.5,2.92 6.29,3.5 1.82,0.51 11.55,2.81 13.21,2.68 1.66,-0.13 2.63,-0.53 5.69,-2.2 1.69,-1.1 3.89,-2.74 6.18,-4.56 0.65,-3.39 1.26,-6.78 1.84,-10.19 0.26,-1.53 0.52,-3.07 0.76,-4.6 0.28,-1.7 0.54,-3.41 0.8,-5.12l-251.84 -0.45c1.7,10.06 3.68,20.03 5.93,29.9 2.74,-3.43 5.98,-5.05 17.8,-9.26 2.6,-0.93 5.07,-3.24 7.66,-4.41z"/>
  </g>
  <g id="_45170800736">
   <path class="fil24" d="M606.3 475.6l153.9 0 -69.49 -112.41 -17.9 0.07 -66.51 112.34z"/>
   <path class="fil51" d="M606.3 475.6l153.9 0 -11.56 13.21 -128.84 0 -13.5 -13.21z"/>
   <rect class="fil26" x="619.8" y="488.81" width="128.84" height="317.77"/>
   <rect class="fil52" x="619.8" y="488.81" width="128.84" height="317.77"/>
   <g>
    <path class="fil53" d="M690.83 363.26l-17.9 -0.07 4.23 -9.6 1.52 -12.68 0 -84.21 -5.04 0 0 -4.06 5.04 0 0 -5.03 4.99 0 0 5.03 5.11 0 0 4.06 -5.11 0 0 84.21 2.55 12.68 4.61 9.67z"/>
    <g>
     <path class="fil37" d="M639.52 514.67l7.15 0 0 22.25 -7.15 0 0 -22.25z"/>
     <path class="fil33" d="M635.31 509.57l4.21 5.1 7.15 0 4.21 -5.03 -15.57 -0.07z"/>
     <path class="fil34" d="M635.31 509.57l4.21 5.1 0 22.25 -4.21 5.1 0 -32.45z"/>
     <path class="fil35" d="M635.31 542.02l4.21 -5.1 7.15 0 4.21 5.1 -15.57 0z"/>
     <path class="fil36" d="M650.88 542.02l-4.21 -5.1 0 -22.25 4.21 -5.03 0 32.38z"/>
     <path class="fil37" d="M715.66 514.21l6.28 0 0 23.17 -6.28 0 0 -23.17z"/>
     <path class="fil33" d="M711.97 508.9l3.69 5.31 6.28 0 3.7 -5.23 -13.67 -0.08z"/>
     <path class="fil34" d="M711.97 508.9l3.69 5.31 0 23.17 -3.69 5.3 0 -33.78z"/>
     <path class="fil35" d="M711.97 542.68l3.69 -5.3 6.28 0 3.7 5.3 -13.67 0z"/>
     <path class="fil36" d="M725.64 542.68l-3.7 -5.3 0 -23.17 3.7 -5.23 0 33.7z"/>
     <path class="fil32" d="M687.75 595.69l9.18 0 0 24.69 -9.18 0 0 -24.69z"/>
     <path class="fil33" d="M682.35 590.03l5.4 5.66 9.18 0 5.4 -5.58 -19.98 -0.08z"/>
     <path class="fil34" d="M682.35 590.03l5.4 5.66 0 24.69 -5.4 5.66 0 -36.01z"/>
     <path class="fil35" d="M682.35 626.04l5.4 -5.66 9.18 0 5.4 5.66 -19.98 0z"/>
     <path class="fil36" d="M702.33 626.04l-5.4 -5.66 0 -24.69 5.4 -5.58 0 35.93z"/>
    </g>
   </g>
  </g>
  <g id="_45200752192">
   <path id="P4" class="fil54" d="M679.16 363.23c3.62,0.65 10.77,3.28 14.32,4.43l57.78 93.49c0.87,1.74 -15.69,12.06 -28.53,-10.54 -1.15,-2.76 -3.46,-8.21 -8.99,-8.12 -5.99,-0.06 -14.18,20.34 -14.69,4.17 -1.17,-4.88 -2.33,-8.83 -3.35,-11.59 -1.03,-2.89 -1.78,-4.46 -2.53,-5.63 -1.72,-2.39 -4.04,2.95 -5.94,6.86 -1.52,2.95 -4.52,9.26 -5.59,9.49 -4.6,1.15 -5.26,-4.18 -5.77,-7.21 -0.68,-3.97 -1.76,-10.85 -2.47,-17.21 -1.95,-15.17 -20.33,-6.15 -22.32,-22.84l21.85 -35.27 6.23 -0.03z"/>
   <path id="P3" class="fil55" d="M693.48 367.66l56.07 90.72c-8.61,6 -20.76,-11.95 -27.6,-19.05 -14.55,-15.1 -13.6,4.45 -18.08,-1.9 -2.63,-3.73 -2.29,-16.46 -3.36,-19.36 -0.7,-1.95 -1.45,-4.92 -4.27,-4.49 -4.82,0.75 -4.91,6.11 -6.61,9.27 -2.6,5.06 -5.35,13.53 -9.54,13.6 -4.23,-0.47 -3.01,-28.44 -3.58,-33.6 -1.02,-9.22 -18.92,-4.79 -19.04,-14.62l0.01 -0.05 7.71 -12.48c3.93,-5.81 7.86,-11.6 7.73,-12.51l8.95 0.03c13.43,0.06 7.32,3.13 11.61,4.44z"/>
   <path id="P2" class="fil30" d="M723.78 435.54c-1.84,-0.87 -4.8,-3.61 -6.29,-5.16 -1.36,-1.41 -3.63,-5.73 -3.63,-5.73 -19.62,-34.52 -17.84,-22.08 -29.26,-2.46 -3.73,6.4 -1.14,-17.13 -1.74,-20.11 -0.68,-3.97 -9.98,-9.85 -10.82,-16.34 -0.96,-7.37 2.48,-11.07 -4.53,-13.76 1.78,-2.9 3.55,-5.79 5.32,-8.68 6.45,-1.25 9.35,-4.49 13.39,-9.71l4.55 9.51 54.23 87.91c-10.27,-3.94 -15.1,-12.14 -21.22,-15.47z"/>
  </g>
  <g id="_45167999456">
   <path class="fil18" d="M862.79 731.78c-7.93,-7.13 -20.91,-17.34 -32.35,-13.79 -20.6,8.13 -29.67,26.4 -30.37,41.33l0 47.06 -8.92 0 0 -51.51c0.71,-14.94 14.23,-37.66 34.83,-45.8 3.61,-1.11 4.57,-1.13 8.62,0 3.68,1.14 9.86,2.25 13.93,5.13 5.65,3.98 11.23,11.01 14.26,17.58z"/>
   <path class="fil56" d="M791.15 806.38l0 -51.2c-0.29,-12.91 13.99,-38.82 36.5,-45.79 4.06,-1.14 5.02,-1.12 8.63,0 20.6,8.13 34.12,30.86 34.82,45.79l0 51.17 8.97 0 0 -51.72c-0.87,-18.28 -17.42,-46.1 -42.64,-56.06 -4.42,-1.37 -5.59,-1.39 -10.55,0 -27.57,8.54 -45.04,40.26 -44.69,56.06l0 51.76 8.96 -0.01z"/>
   <path class="fil32" d="M850.51 657.61l9.17 0 0 24.7 -9.17 0 0 -24.7z"/>
   <path class="fil33" d="M845.11 651.95l5.4 5.66 9.17 0 5.41 -5.58 -19.98 -0.08z"/>
   <path class="fil34" d="M845.11 651.95l5.4 5.66 0 24.7 -5.4 5.66 0 -36.02z"/>
   <path class="fil35" d="M845.11 687.97l5.4 -5.66 9.17 0 5.41 5.66 -19.98 0z"/>
   <path class="fil36" d="M865.09 687.97l-5.41 -5.66 0 -24.7 5.41 -5.58 0 35.94z"/>
   <path class="fil32" d="M799.72 657.61l9.18 0 0 24.7 -9.18 0 0 -24.7z"/>
   <path class="fil33" d="M794.32 651.95l5.4 5.66 9.18 0 5.4 -5.58 -19.98 -0.08z"/>
   <path class="fil34" d="M794.32 651.95l5.4 5.66 0 24.7 -5.4 5.66 0 -36.02z"/>
   <path class="fil35" d="M794.32 687.97l5.4 -5.66 9.18 0 5.4 5.66 -19.98 0z"/>
   <path class="fil36" d="M814.3 687.97l-5.4 -5.66 0 -24.7 5.4 -5.58 0 35.94z"/>
  </g>
  <g id="_45170759456">
   <g>
    <g>
     <path class="fil57" d="M545.46 124.11l0.09 0 13.73 276.18 10.93 19.89 0 8.29 4.32 0 0 -6.21 3.15 -4.64 2.52 -55.29 2.4 55.29 1.48 6.53 0 14.81 -4.12 3.36 0 4.28 -69.31 0 0 -4.28 -3.91 -3.36 0 -14.81 3.56 -6.53 3.05 -55.29 2.81 55.29 2.49 4.64 0 6.21 3.14 0 0 -8.29 11.78 -19.89 11.89 -276.18z"/>
     <path class="fil58" d="M246.2 437.43l-43.27 0 0 -0.42 -5.19 0 5.31 -9.2 2.66 -32.98 1.82 18.66 5 -10.28c3.76,-62.78 6.02,-126.94 11.95,-189.42 6.75,61.16 8.54,127.15 12.7,189.03l2.99 10.27 3.25 -19.24 2.56 33.53 4.76 8.23 -4.54 0 0 1.82z"/>
    </g>
    <g>
     <path class="fil59" d="M769.84 263.77l0.81 0 0 -0.4 1.2 0 0 -0.4 0.4 0 0 -0.4 0.4 0 0 -0.4 0.4 0 0 -0.4 0.4 0 0 -0.8 0.4 0 0 -3.61 -0.4 0 0 -0.8 -0.4 0 0 -0.4 -0.4 0 0 -0.4 -0.4 0 0 -0.4 -0.8 0 0 -0.4 -1.61 0 0 -14.83 5.21 0 0 -2.41 -5.21 0 0 -4.81 -2.4 0 0 4.81 -5.21 0 0 2.41 5.21 0 0 14.83 -1.6 0 0 0.4 -0.81 0 0 0.4 -0.4 0 0 0.4 -0.4 0 0 0.4 -0.4 0 0 0.8 -0.4 0 0 3.61 0.4 0 0 0.8 0.4 0 0 0.4 0.4 0 0 0.4 0.4 0 0 0.4 0.4 0 0 0.4 1.21 0 0 0.4 0.8 0c0,21.19 2.4,22.04 2.4,0z"/>
     <path class="fil60" d="M766.38 268c-0.16,0.17 -0.08,9.6 -0.08,10.65 0,4 -0.32,6.56 -1.11,9.85 -1.14,4.72 -3.78,12.07 -6.82,15.12 -1.92,1.95 -3.51,4.18 -5.9,5.07 -11.65,4.34 -24.78,16.02 -25.24,29.29 0,6.66 3.08,20.46 10.74,22.41l11.02 0 43.7 0 6.89 0c1.03,-0.21 1.96,-0.64 2.66,-1.42 1.12,-1.25 3.87,-5.14 4.51,-6.46 8.71,-18.04 -1.77,-32.58 -17.44,-41.86 -4.59,-2.72 -8.36,-2.47 -12.2,-9.73 -4.09,-7.73 -3.98,-7.5 -5.74,-16.2 -1,-4.96 -0.09,-13.88 -0.42,-16.03 -0.08,-0.46 -0.51,-0.72 -1.08,-0.84l-2.6 0c-0.51,0.07 -0.88,0.14 -0.89,0.15z"/>
     <path class="fil59" d="M940.98 264.72l0.8 0 0 -0.4 0.42 0 -0.02 -0.03c-1.06,-1.98 -2.14,-3.94 -3.23,-5.9l-0.07 -0.13 -0.07 -0.13 -1.1 -1.97 -0.07 -0.13 -0.08 -0.13 -0.59 0 0 0.4 -0.8 0 0 0.4 -0.4 0 0 0.4 -0.4 0 0 0.4 -0.4 0 0 0.8 -0.4 0 0 3.61 0.4 0 0 0.8 0.4 0 0 0.4 0.4 0 0 0.4 0.4 0 0 0.41 0.4 0 0 0.4 1.2 0 0 0.4 0.8 0c0,21.18 2.41,22.03 2.41,0z"/>
     <path class="fil60" d="M937.52 268.95c-0.16,0.16 -0.08,9.6 -0.08,10.64 0,4 -0.32,6.56 -1.12,9.86 -1.14,4.71 -3.78,12.06 -6.81,15.12 -1.93,1.94 -3.51,4.17 -5.91,5.06 -11.65,4.35 -24.78,16.03 -25.24,29.3 0,6.65 3.08,20.45 10.74,22.41l11.03 0 43.7 0 6.88 0c1.04,-0.22 1.97,-0.65 2.66,-1.43 2.43,-2.72 4.24,-5.48 5.5,-8.25l-0.01 -0.02c-1.15,-3.7 -2.34,-7.38 -3.58,-11.04l-0.35 -1.02c-1.12,-3.29 -2.28,-6.58 -3.46,-9.84 -0.31,-0.85 -0.62,-1.69 -0.93,-2.54 -1.03,-2.78 -2.09,-5.55 -3.16,-8.31 -0.47,-1.19 -0.94,-2.38 -1.41,-3.57 -1.74,-1.34 -3.59,-2.59 -5.52,-3.73 -4.59,-2.72 -8.36,-2.46 -12.21,-9.73 -4.08,-7.72 -3.98,-7.5 -5.73,-16.2 -1,-4.95 -0.09,-13.88 -0.43,-16.03 -0.07,-0.46 -0.5,-0.71 -1.07,-0.84l-2.6 0c-0.52,0.07 -0.88,0.15 -0.89,0.16z"/>
     <path class="fil59" d="M856.8 195.72l1.07 0 0 -0.53 1.59 0 0 -0.54 0.54 0 0 -0.53 0.53 0 0 -0.53 0.53 0 0 -0.54 0.54 0 0 -1.06 0.53 0 0 -4.79 -0.53 0 0 -1.07 -0.54 0 0 -0.53 -0.53 0 0 -0.53 -0.53 0 0 -0.54 -1.07 0 0 -0.53 -2.13 0 0 -19.71 6.93 0 0 -3.19 -6.93 0 0 -6.4 -3.19 0 0 6.4 -6.93 0 0 3.19 6.93 0 0 19.71 -2.14 0 0 0.53 -1.06 0 0 0.54 -0.53 0 0 0.53 -0.54 0 0 0.53 -0.53 0 0 1.07 -0.53 0 0 4.79 0.53 0 0 1.06 0.53 0 0 0.54 0.54 0 0 0.53 0.53 0 0 0.53 0.53 0 0 0.54 1.6 0 0 0.53 1.07 0c0,28.15 3.19,29.28 3.19,0z"/>
     <path class="fil60" d="M852.15 200.1c-0.22,0.23 -0.12,13.02 -0.12,14.43 0,5.43 -0.43,8.9 -1.51,13.36 -1.54,6.4 -5.12,16.36 -9.23,20.5 -2.62,2.64 -4.76,5.66 -8.01,6.87 -15.79,5.89 -33.59,21.72 -34.22,39.72 0,9.01 4.18,27.73 14.56,30.37l14.95 0 59.24 0 9.34 0c1.4,-0.29 2.65,-0.87 3.6,-1.93 1.52,-1.69 5.26,-6.97 6.12,-8.75 11.8,-24.46 -2.4,-44.17 -23.64,-56.75 -6.22,-3.69 -11.33,-3.35 -16.55,-13.2 -5.53,-10.47 -5.39,-10.16 -7.77,-21.96 -1.36,-6.71 -0.12,-18.81 -0.58,-21.72 -0.1,-0.63 -0.68,-0.97 -1.46,-1.14l-3.52 0c-0.7,0.09 -1.19,0.19 -1.2,0.2z"/>
     <path class="fil16" d="M871.47 383.51c0,0 0,-30.81 0,-30.81 0.93,-6.06 3.54,-7.66 6.4,-8.43 2.89,0.73 6.39,3.54 6.59,8.43 0,0 0,30.81 0,30.81l-12.99 0z"/>
     <path class="fil16" d="M847.66 383.9c0,0 0,-37.12 0,-37.12 1.12,-7.29 4.26,-9.23 7.72,-10.16 3.47,0.89 7.69,4.27 7.93,10.16 0,0 0,37.12 0,37.12l-15.65 0z"/>
     <path class="fil16" d="M825.99 383.51c0,0 0,-30.81 0,-30.81 0.93,-6.06 3.54,-7.66 6.41,-8.43 2.88,0.73 6.39,3.54 6.59,8.43 0,0 0,30.81 0,30.81l-13 0z"/>
     <path class="fil61" d="M510.42 582.41l-128.68 0 0 46.8 128.68 0 0 -46.8z"/>
    </g>
   </g>
   <g>
    <path class="fil62" d="M738.48 363.01l60.93 0 0 -2.87 -60.93 0 0 2.87z"/>
    <path class="fil62" d="M909.23 364.14l60.92 0 0 -2.87 -60.92 0 0 2.87z"/>
    <path class="fil62" d="M812.2 327.86l85.38 0 0 -2.87 -85.38 0 0 2.87z"/>
   </g>
  </g>
  <path class="fil63" d="M104.35 806.67l792.98 -0.33 -0.01 0.01c-4.27,5.53 -8.65,10.97 -13.14,16.32l-0.23 0.26c-2.84,3.39 -5.74,6.73 -8.68,10.04l-0.58 0.66c-7.56,8.48 -15.4,16.71 -23.51,24.66l-1.03 1c-2.96,2.89 -5.95,5.74 -8.99,8.55l-0.82 0.76c-4.92,4.55 -9.94,9 -15.05,13.35 -0.52,0.45 -1.04,0.89 -1.56,1.33 -2.84,2.4 -5.71,4.77 -8.6,7.11 -0.64,0.51 -1.28,1.03 -1.92,1.54 -2.93,2.35 -5.89,4.66 -8.88,6.94 -0.54,0.41 -1.07,0.82 -1.61,1.23 -1.66,1.27 -3.34,2.52 -5.02,3.76 -0.83,0.61 -1.66,1.21 -2.49,1.81 -2.65,1.93 -5.31,3.84 -8,5.72 -1,0.69 -2,1.39 -3.01,2.08 -2.44,1.68 -4.9,3.34 -7.38,4.98 -1.19,0.79 -2.38,1.58 -3.58,2.36 -1.56,1.02 -3.13,2.03 -4.71,3.03 -2.11,1.34 -4.24,2.67 -6.38,3.98 -1.51,0.93 -3.02,1.84 -4.54,2.74 -1.46,0.88 -2.92,1.74 -4.39,2.6 -2.11,1.24 -4.24,2.46 -6.38,3.67 -1.58,0.9 -3.17,1.78 -4.76,2.66 -1.39,0.77 -2.77,1.53 -4.16,2.28 -2.43,1.31 -4.86,2.59 -7.31,3.86 -1.36,0.7 -2.71,1.4 -4.08,2.09 -2.39,1.21 -4.8,2.41 -7.22,3.58 -1.34,0.66 -2.69,1.3 -4.04,1.94 -2.01,0.95 -4.02,1.89 -6.04,2.81 -1.35,0.63 -2.72,1.25 -4.08,1.86 -2.49,1.12 -4.99,2.21 -7.49,3.28 -1.22,0.52 -2.43,1.04 -3.65,1.55 -2.79,1.17 -5.58,2.31 -8.39,3.43 -1.12,0.44 -2.23,0.87 -3.35,1.31 -2.61,1.01 -5.22,2.01 -7.84,2.98 -1.08,0.4 -2.16,0.79 -3.25,1.19 -2.64,0.95 -5.3,1.89 -7.97,2.8 -0.99,0.35 -1.98,0.69 -2.97,1.02 -3.05,1.03 -6.11,2.02 -9.19,2.99 -1.02,0.31 -2.03,0.63 -3.05,0.94 -3.15,0.97 -6.31,1.92 -9.49,2.82 -0.78,0.23 -1.57,0.44 -2.35,0.66 -2.94,0.82 -5.89,1.62 -8.85,2.39 -0.67,0.18 -1.35,0.36 -2.02,0.54 -3.33,0.85 -6.67,1.66 -10.02,2.44 -0.89,0.21 -1.78,0.42 -2.68,0.62 -3.34,0.77 -6.7,1.5 -10.07,2.2 -0.77,0.15 -1.54,0.31 -2.32,0.46 -3.49,0.71 -6.99,1.38 -10.5,2.02l-0.87 0.15c-3.5,0.62 -7.01,1.2 -10.53,1.74 -0.7,0.11 -1.4,0.23 -2.11,0.33 -3.53,0.54 -7.08,1.03 -10.63,1.49 -0.77,0.1 -1.53,0.19 -2.3,0.29 -3.63,0.45 -7.27,0.87 -10.92,1.25 -0.48,0.05 -0.97,0.09 -1.45,0.14 -3.56,0.35 -7.12,0.67 -10.7,0.95 -0.44,0.03 -0.89,0.07 -1.33,0.11 -3.71,0.28 -7.44,0.51 -11.17,0.7 -0.74,0.04 -1.48,0.08 -2.21,0.12 -3.69,0.18 -7.39,0.32 -11.1,0.42 -0.65,0.02 -1.31,0.03 -1.96,0.04 -3.89,0.09 -7.79,0.15 -11.7,0.15 -3.92,0 -7.82,-0.05 -11.71,-0.15 -0.65,-0.01 -1.3,-0.02 -1.95,-0.04 -3.71,-0.1 -7.42,-0.24 -11.11,-0.42 -0.73,-0.04 -1.46,-0.08 -2.18,-0.11 -3.74,-0.2 -7.47,-0.43 -11.18,-0.71 -0.46,-0.04 -0.92,-0.08 -1.38,-0.12 -3.58,-0.28 -7.15,-0.59 -10.71,-0.95 -0.46,-0.04 -0.92,-0.08 -1.38,-0.13 -3.66,-0.37 -7.3,-0.79 -10.94,-1.25 -0.76,-0.1 -1.53,-0.19 -2.29,-0.29 -3.56,-0.46 -7.11,-0.95 -10.64,-1.49 -0.7,-0.1 -1.4,-0.22 -2.11,-0.33 -3.56,-0.55 -7.12,-1.13 -10.67,-1.76l-0.79 -0.15c-3.5,-0.62 -6.97,-1.3 -10.44,-2 -0.77,-0.15 -1.54,-0.3 -2.3,-0.46 -3.38,-0.7 -6.74,-1.43 -10.09,-2.19 -0.89,-0.21 -1.77,-0.41 -2.65,-0.62 -3.35,-0.79 -6.69,-1.59 -10.02,-2.44 -0.7,-0.18 -1.39,-0.37 -2.09,-0.55 -2.97,-0.78 -5.92,-1.58 -8.87,-2.41 -0.75,-0.2 -1.49,-0.4 -2.23,-0.62 -3.21,-0.91 -6.39,-1.86 -9.57,-2.84 -0.99,-0.31 -1.98,-0.61 -2.97,-0.92 -3.09,-0.98 -6.18,-1.97 -9.25,-3.01 -0.97,-0.32 -1.94,-0.66 -2.91,-0.99 -2.75,-0.95 -5.5,-1.91 -8.23,-2.9 -1.02,-0.37 -2.04,-0.74 -3.05,-1.12 -2.65,-0.98 -5.29,-1.98 -7.91,-3.01 -1.06,-0.41 -2.13,-0.82 -3.18,-1.24 -2.84,-1.13 -5.66,-2.28 -8.47,-3.46 -1.19,-0.5 -2.38,-1 -3.57,-1.51 -2.72,-1.17 -5.43,-2.35 -8.13,-3.56 -1.16,-0.52 -2.31,-1.05 -3.46,-1.58 -2.08,-0.95 -4.14,-1.92 -6.2,-2.9 -1.35,-0.64 -2.69,-1.28 -4.04,-1.93 -2.39,-1.17 -4.78,-2.35 -7.15,-3.56 -1.32,-0.66 -2.64,-1.34 -3.96,-2.02 -2.47,-1.28 -4.93,-2.57 -7.38,-3.89 -1.35,-0.73 -2.7,-1.48 -4.05,-2.22 -1.7,-0.94 -3.39,-1.88 -5.08,-2.84 -2.02,-1.14 -4.03,-2.3 -6.03,-3.47 -1.54,-0.9 -3.07,-1.8 -4.6,-2.72 -1.46,-0.87 -2.91,-1.74 -4.36,-2.63 -2.19,-1.34 -4.37,-2.7 -6.53,-4.08 -1.52,-0.96 -3.04,-1.94 -4.55,-2.92 -1.34,-0.87 -2.67,-1.75 -4,-2.63 -2.31,-1.53 -4.61,-3.08 -6.89,-4.65 -1.1,-0.76 -2.19,-1.51 -3.28,-2.28 -2.47,-1.73 -4.93,-3.48 -7.37,-5.25 -1.03,-0.75 -2.06,-1.5 -3.08,-2.25 -1.62,-1.19 -3.23,-2.39 -4.83,-3.6 -0.72,-0.55 -1.43,-1.1 -2.14,-1.65 -2.78,-2.12 -5.53,-4.27 -8.26,-6.45 -0.77,-0.61 -1.53,-1.23 -2.29,-1.84 -2.71,-2.19 -5.4,-4.41 -8.06,-6.66 -0.67,-0.56 -1.34,-1.12 -2.01,-1.69 -5.02,-4.28 -9.95,-8.65 -14.8,-13.13 -0.36,-0.33 -0.71,-0.66 -1.07,-0.99 -2.91,-2.7 -5.79,-5.43 -8.63,-8.2 -0.46,-0.45 -0.92,-0.9 -1.38,-1.34 -2.94,-2.88 -5.84,-5.8 -8.7,-8.75l-0.64 -0.65c-4.74,-4.89 -9.37,-9.88 -13.9,-14.96l-0.77 -0.87c-2.79,-3.13 -5.53,-6.3 -8.24,-9.5l-0.7 -0.83c-4.42,-5.27 -8.74,-10.62 -12.95,-16.07l-0.02 -0.01z"/>
  <g id="_45170766016">
   <path id="pa8" class="fil64" d="M614.92 650.81c-1.21,1.64 -2.58,1.45 -4.29,-4.07 -0.52,-1.39 -0.9,-2.25 -1.28,-2.77 -0.44,-0.59 -0.87,-0.85 -1.43,-0.76 -0.55,0.02 -1.22,0.44 -1.89,1.13 -0.66,0.77 -1.33,1.86 -1.92,3.02 -0.66,1.23 -1.2,2.53 -1.68,3.42 -0.48,0.88 -0.84,1.37 -1.14,1.44 -2.96,0.75 -3.48,-1.53 -3.85,-3.7 -0.4,-1.94 -0.89,-5.41 -1.31,-8.62 -0.36,-3.28 -0.73,-7.43 -0.87,-8.1 -0.77,-5.94 -7.02,-2.8 -10.55,-3.48l1.95 -3.95 12.45 -25.15 3.91 -0.02 0.01 0 1.26 0.01c0.96,0.66 1.96,1.43 2.83,1.98l7.8 15.77 0 33.85z"/>
   <path id="pa7" class="fil65" d="M614.92 650.81c-1.21,1.64 -2.58,1.45 -4.29,-4.07 -0.52,-1.39 -0.9,-2.25 -1.28,-2.77 -0.44,-0.59 -0.87,-0.85 -1.43,-0.76 -0.55,0.02 -1.22,0.44 -1.89,1.13 -0.66,0.77 -1.33,1.86 -1.92,3.02 -0.66,1.23 -1.2,2.53 -1.68,3.42 -0.48,0.88 -0.84,1.37 -1.14,1.44 -2.96,0.75 -3.48,-1.53 -3.85,-3.7 -0.4,-1.94 -0.89,-5.41 -1.31,-8.62 -0.36,-3.28 -0.73,-7.43 -0.87,-8.1 -0.77,-5.94 -7.02,-2.8 -10.55,-3.48l1.95 -3.95 12.45 -25.15 3.91 -0.02 0.01 0 1.26 0.01c0.96,0.66 1.96,1.43 2.83,1.98l7.8 15.77 0 33.85z"/>
   <path id="pa5" class="fil66" d="M601.66 599.21c1.48,0.26 3.79,1.45 5.57,2.2l7.69 15.55 0 25.75c-1.7,1.96 -3.07,3.2 -3.21,-1.39 -0.6,-2.46 -1.18,-4.46 -1.7,-5.85 -0.51,-1.46 -0.9,-2.25 -1.28,-2.84 -0.86,-1.21 -2.03,1.49 -2.99,3.46 -0.77,1.49 -2.28,4.68 -2.82,4.79 -2.32,0.58 -2.66,-2.11 -2.92,-3.64 -0.34,-2 -0.89,-5.47 -1.24,-8.68 -0.82,-6.35 -7.33,-4.31 -10.11,-8.22l10.46 -21.12 2.55 -0.01z"/>
   <path id="pa4" class="fil67" d="M614.92 637.32c-0.23,-0.04 -0.48,-0.23 -0.78,-0.66 -1.33,-1.88 -1.16,-8.31 -1.7,-9.77 -0.35,-0.99 -0.73,-2.49 -2.16,-2.27 -2.43,0.38 -2.47,3.09 -3.33,4.68 -1.31,2.56 -2.7,6.83 -4.81,6.87 -2.14,-0.24 -1.53,-14.36 -1.82,-16.96 -0.4,-3.7 -6.18,-3.05 -8.58,-5.11l7.38 -14.92 3.91 0.02 3.11 0.01 8.78 17.75 0 20.36z"/>
   <path id="pa1" class="fil41" d="M614.92 623.17c-5.53,-8.12 -5.74,-2.41 -10.51,5.78 -1.88,3.23 -0.58,-8.65 -0.88,-10.15 -0.34,-2.01 -5.04,-4.98 -5.46,-8.25 -0.44,-3.34 0.92,-5.19 -1.36,-6.52l2.39 -4.83 3.49 -7.07 3.53 7.01 8.8 17.78 0 6.25z"/>
  </g>
  <g id="_45200767520">
   <path class="fil68" d="M104.67 725.39c-3.67,13.78 -12.35,7.63 -24.74,7.63 -2.08,8.85 -6.89,14.67 -12.15,19.37 -1.01,-1.73 -2.01,-3.48 -3,-5.23 -0.93,-1.63 -1.85,-3.28 -2.76,-4.93 -1.03,-1.87 -2.04,-3.74 -3.05,-5.62 -0.97,-1.81 -1.93,-3.62 -2.87,-5.44 -0.9,-1.73 -1.79,-3.47 -2.67,-5.22 -0.9,-1.77 -1.78,-3.55 -2.65,-5.33 -0.9,-1.84 -1.79,-3.69 -2.67,-5.54 -0.91,-1.92 -1.81,-3.84 -2.7,-5.77 -0.78,-1.71 -1.56,-3.44 -2.33,-5.16 -0.85,-1.92 -1.7,-3.85 -2.53,-5.78 -0.77,-1.8 -1.53,-3.6 -2.28,-5.4 -0.86,-2.05 -1.69,-4.1 -2.52,-6.16 -0.67,-1.66 -1.32,-3.33 -1.97,-5 -0.84,-2.15 -1.65,-4.3 -2.46,-6.46 -0.6,-1.63 -1.2,-3.26 -1.79,-4.89 -0.81,-2.25 -1.6,-4.51 -2.38,-6.77 -0.54,-1.56 -1.07,-3.12 -1.59,-4.69 -0.81,-2.44 -1.61,-4.88 -2.38,-7.34 -0.45,-1.42 -0.9,-2.85 -1.33,-4.28 -0.75,-2.43 -1.47,-4.87 -2.18,-7.31 -0.43,-1.48 -0.85,-2.96 -1.26,-4.44 -0.73,-2.63 -1.45,-5.26 -2.14,-7.9 -0.34,-1.29 -0.67,-2.59 -1,-3.89 -0.67,-2.65 -1.32,-5.32 -1.95,-7.99 -0.31,-1.33 -0.62,-2.67 -0.93,-4.02 -0.63,-2.8 -1.24,-5.61 -1.83,-8.43 -0.25,-1.18 -0.49,-2.36 -0.73,-3.54 -0.58,-2.89 -1.13,-5.8 -1.66,-8.71 -0.22,-1.18 -0.43,-2.37 -0.64,-3.55 -0.52,-2.98 -1.02,-5.97 -1.48,-8.96 -0.17,-1.08 -0.34,-2.17 -0.5,-3.25 -0.47,-3.14 -0.91,-6.29 -1.32,-9.45 -0.13,-0.99 -0.26,-1.99 -0.38,-2.98 -0.4,-3.18 -0.76,-6.36 -1.09,-9.55 -0.1,-0.96 -0.2,-1.92 -0.3,-2.88 -0.33,-3.37 -0.63,-6.75 -0.9,-10.15 9.6,-6.72 13.94,-16.98 30.74,-16.98 10.78,0 27.7,18.35 35.24,21.93 17.35,8.34 5.86,-3.77 19.35,16.83l18.07 16.21c9.2,5.91 13.97,0.33 24.08,10.25 17.11,16.68 16.54,13.68 17.64,29.98 1,14.93 12.49,19.55 2.24,32.85 -7.44,9.63 -4.77,2.76 -7.78,17.02 -3.43,15.97 -12.1,4.29 -11.68,34.04 0.34,19.93 -5.43,22.88 -24.79,22.88l0 0z"/>
   <path class="fil69" d="M104.67 725.39c-3.67,13.78 -12.35,7.63 -24.74,7.63 -2.08,8.85 -6.89,14.67 -12.15,19.37 -37.75,-64.79 -60.33,-137.2 -66.22,-212.01 9.6,-6.72 13.94,-16.98 30.74,-16.98 10.78,0 27.7,18.35 35.24,21.93 17.35,8.34 5.86,-3.77 19.35,16.83l18.07 16.21c9.2,5.91 13.97,0.33 24.08,10.25 17.11,16.68 16.54,13.68 17.64,29.98 1,14.93 12.49,19.55 2.24,32.85 -7.44,9.63 -4.77,2.76 -7.78,17.02 -3.43,15.97 -12.1,4.29 -11.68,34.04 0.34,19.93 -5.43,22.88 -24.79,22.88l0 0z"/>
  </g>
 </g>
</svg>
