<?xml version="1.0" encoding="UTF-8"?>
<!DOCTYPE svg PUBLIC "-//W3C//DTD SVG 1.1//EN" "http://www.w3.org/Graphics/SVG/1.1/DTD/svg11.dtd">
<svg xmlns="http://www.w3.org/2000/svg" xml:space="preserve" width="1000px" height="1000px" version="1.1" style="shape-rendering:geometricPrecision; text-rendering:geometricPrecision; image-rendering:optimizeQuality; fill-rule:evenodd; clip-rule:evenodd"
viewBox="0 0 230.58 230.58"
 xmlns:xlink="http://www.w3.org/1999/xlink">
 <defs>
  <style type="text/css">
   <![CDATA[
    .fil25 {fill:url(#id2)}
    .fil0 {fill:url(#id3);fill-rule:nonzero}
    .fil26 {fill:url(#id4);fill-rule:nonzero}
    .fil1 {fill:url(#id5);fill-rule:nonzero}
    .fil8 {fill:url(#id6);fill-rule:nonzero}
    .fil7 {fill:url(#id7);fill-rule:nonzero}
    .fil22 {fill:url(#id8);fill-rule:nonzero}
    .fil24 {fill:url(#id9);fill-rule:nonzero}
    .fil14 {fill:url(#id10);fill-rule:nonzero}
    .fil17 {fill:url(#id11);fill-rule:nonzero}
    .fil18 {fill:url(#id12);fill-rule:nonzero}
    .fil16 {fill:url(#id13);fill-rule:nonzero}
    .fil19 {fill:url(#id14);fill-rule:nonzero}
    .fil13 {fill:url(#id15);fill-rule:nonzero}
    .fil5 {fill:url(#id16);fill-rule:nonzero}
    .fil11 {fill:url(#id17);fill-rule:nonzero}
    .fil23 {fill:url(#id18);fill-rule:nonzero}
    .fil15 {fill:url(#id19);fill-rule:nonzero}
    .fil9 {fill:url(#id20);fill-rule:nonzero}
    .fil10 {fill:url(#id21);fill-rule:nonzero}
    .fil12 {fill:url(#id22);fill-rule:nonzero}
    .fil4 {fill:url(#id23);fill-rule:nonzero}
    .fil21 {fill:url(#id24);fill-rule:nonzero}
    .fil6 {fill:url(#id25);fill-rule:nonzero}
    .fil20 {fill:url(#id26);fill-rule:nonzero}
    .fil3 {fill:url(#id27);fill-rule:nonzero}
    .fil2 {fill:url(#id28);fill-rule:nonzero}
   ]]>
  </style>
    <mask id="id0">
  <linearGradient id="id1" gradientUnits="userSpaceOnUse" x1="115.99" y1="12.23" x2="115.26" y2="93.08">
   <stop offset="0" style="stop-opacity:1; stop-color:white"/>
   <stop offset="0.721569" style="stop-opacity:0.976471; stop-color:white"/>
   <stop offset="1" style="stop-opacity:1; stop-color:white"/>
  </linearGradient>
     <rect style="fill:url(#id1)" x="19.02" y="31.88" width="186.89" height="25.6"/>
    </mask>
  <linearGradient id="id2" gradientUnits="userSpaceOnUse" x1="118.62" y1="54.6" x2="117.33" y2="20">
   <stop offset="0" style="stop-opacity:1; stop-color:#A9CD9C"/>
   <stop offset="1" style="stop-opacity:0.298039; stop-color:#A9C897"/>
  </linearGradient>
  <linearGradient id="id3" gradientUnits="userSpaceOnUse" x1="115.29" y1="40.54" x2="115.29" y2="0">
   <stop offset="0" style="stop-opacity:1; stop-color:#E9F7BE"/>
   <stop offset="0.309804" style="stop-opacity:1; stop-color:#DEE68F"/>
   <stop offset="1" style="stop-opacity:1; stop-color:#75C5D0"/>
  </linearGradient>
  <linearGradient id="id4" gradientUnits="userSpaceOnUse" x1="115.99" y1="12.23" x2="115.26" y2="93.08">
   <stop offset="0" style="stop-opacity:1; stop-color:#AED7AC"/>
   <stop offset="0.721569" style="stop-opacity:1; stop-color:#A4BA82"/>
   <stop offset="1" style="stop-opacity:1; stop-color:#98D0BA"/>
  </linearGradient>
  <radialGradient id="id5" gradientUnits="userSpaceOnUse" gradientTransform="matrix(-5.51079E-001 -1.30923E+000 1.30923 -5.51079E-001 -7 364)" cx="112.93" cy="139.16" r="115.23" fx="112.93" fy="139.16">
   <stop offset="0" style="stop-opacity:1; stop-color:#51BBBA"/>
   <stop offset="1" style="stop-opacity:1; stop-color:#34B0A9"/>
  </radialGradient>
  <linearGradient id="id6" gradientUnits="userSpaceOnUse" x1="118.02" y1="139.22" x2="83.79" y2="50.07">
   <stop offset="0" style="stop-opacity:1; stop-color:#2F7054"/>
   <stop offset="1" style="stop-opacity:1; stop-color:#378261"/>
  </linearGradient>
  <linearGradient id="id7" gradientUnits="userSpaceOnUse" x1="82.62" y1="106.96" x2="85.01" y2="72.47">
   <stop offset="0" style="stop-opacity:1; stop-color:#265739"/>
   <stop offset="1" style="stop-opacity:1; stop-color:#367D5E"/>
  </linearGradient>
  <linearGradient id="id8" gradientUnits="userSpaceOnUse" x1="197.46" y1="127.2" x2="63.65" y2="45.21">
   <stop offset="0" style="stop-opacity:1; stop-color:#B6C2CC"/>
   <stop offset="1" style="stop-opacity:1; stop-color:#D1DCE3"/>
  </linearGradient>
  <linearGradient id="id9" gradientUnits="userSpaceOnUse" xlink:href="#id8" x1="197.46" y1="127.2" x2="63.65" y2="45.21">
  </linearGradient>
  <linearGradient id="id10" gradientUnits="userSpaceOnUse" x1="191.43" y1="140.59" x2="66.15" y2="65.64">
   <stop offset="0" style="stop-opacity:1; stop-color:#D0D2D9"/>
   <stop offset="1" style="stop-opacity:1; stop-color:#EFF4F7"/>
  </linearGradient>
  <linearGradient id="id11" gradientUnits="userSpaceOnUse" xlink:href="#id8" x1="197.46" y1="127.2" x2="63.65" y2="45.21">
  </linearGradient>
  <linearGradient id="id12" gradientUnits="userSpaceOnUse" xlink:href="#id8" x1="197.46" y1="127.2" x2="63.65" y2="45.21">
  </linearGradient>
  <linearGradient id="id13" gradientUnits="userSpaceOnUse" xlink:href="#id8" x1="197.46" y1="127.2" x2="63.65" y2="45.21">
  </linearGradient>
  <linearGradient id="id14" gradientUnits="userSpaceOnUse" xlink:href="#id8" x1="197.46" y1="127.2" x2="63.65" y2="45.21">
  </linearGradient>
  <linearGradient id="id15" gradientUnits="userSpaceOnUse" x1="145.16" y1="283.65" x2="96.29" y2="129.25">
   <stop offset="0" style="stop-opacity:1; stop-color:#416950"/>
   <stop offset="1" style="stop-opacity:1; stop-color:#4D8061"/>
  </linearGradient>
  <linearGradient id="id16" gradientUnits="userSpaceOnUse" x1="211.06" y1="150.79" x2="185.76" y2="66.13">
   <stop offset="0" style="stop-opacity:1; stop-color:#226248"/>
   <stop offset="1" style="stop-opacity:1; stop-color:#4C8B6C"/>
  </linearGradient>
  <linearGradient id="id17" gradientUnits="userSpaceOnUse" x1="65.79" y1="233.72" x2="57.67" y2="171.29">
   <stop offset="0" style="stop-opacity:1; stop-color:#487458"/>
   <stop offset="1" style="stop-opacity:1; stop-color:#437859"/>
  </linearGradient>
  <linearGradient id="id18" gradientUnits="userSpaceOnUse" xlink:href="#id8" x1="197.46" y1="127.2" x2="63.65" y2="45.21">
  </linearGradient>
  <linearGradient id="id19" gradientUnits="userSpaceOnUse" xlink:href="#id8" x1="197.46" y1="127.2" x2="63.65" y2="45.21">
  </linearGradient>
  <linearGradient id="id20" gradientUnits="userSpaceOnUse" x1="75.71" y1="131.82" x2="104.55" y2="80.8">
   <stop offset="0" style="stop-opacity:1; stop-color:#49785C"/>
   <stop offset="1" style="stop-opacity:1; stop-color:#5C9672"/>
  </linearGradient>
  <linearGradient id="id21" gradientUnits="userSpaceOnUse" x1="30.52" y1="219.62" x2="10.42" y2="148.26">
   <stop offset="0" style="stop-opacity:1; stop-color:#2D634B"/>
   <stop offset="1" style="stop-opacity:1; stop-color:#2D634B"/>
  </linearGradient>
  <linearGradient id="id22" gradientUnits="userSpaceOnUse" x1="183.36" y1="268.14" x2="125.22" y2="97.04">
   <stop offset="0" style="stop-opacity:1; stop-color:#22543F"/>
   <stop offset="1" style="stop-opacity:1; stop-color:#327356"/>
  </linearGradient>
  <linearGradient id="id23" gradientUnits="userSpaceOnUse" x1="214.56" y1="183.42" x2="25.28" y2="109.13">
   <stop offset="0" style="stop-opacity:1; stop-color:#558769"/>
   <stop offset="1" style="stop-opacity:1; stop-color:#6CA181"/>
  </linearGradient>
  <linearGradient id="id24" gradientUnits="userSpaceOnUse" xlink:href="#id8" x1="197.46" y1="127.2" x2="63.65" y2="45.21">
  </linearGradient>
  <linearGradient id="id25" gradientUnits="userSpaceOnUse" x1="243.81" y1="175.49" x2="202.65" y2="92.06">
   <stop offset="0" style="stop-opacity:1; stop-color:#4B7357"/>
   <stop offset="1" style="stop-opacity:1; stop-color:#568A6A"/>
  </linearGradient>
  <linearGradient id="id26" gradientUnits="userSpaceOnUse" xlink:href="#id8" x1="197.46" y1="127.2" x2="63.65" y2="45.21">
  </linearGradient>
  <linearGradient id="id27" gradientUnits="userSpaceOnUse" x1="242.7" y1="174.75" x2="-28.4" y2="134.57">
   <stop offset="0" style="stop-opacity:1; stop-color:#96D7D6"/>
   <stop offset="0.501961" style="stop-opacity:1; stop-color:#97D7D7"/>
   <stop offset="1" style="stop-opacity:1; stop-color:#40B5B0"/>
  </linearGradient>
  <linearGradient id="id28" gradientUnits="userSpaceOnUse" x1="116.96" y1="158.63" x2="-38.22" y2="128.14">
   <stop offset="0" style="stop-opacity:1; stop-color:#6EC4C4"/>
   <stop offset="1" style="stop-opacity:1; stop-color:#3FB4AF"/>
  </linearGradient>
 </defs>
 <g id="Layer_x0020_1">
  <metadata id="CorelCorpID_0Corel-Layer"/>
  <circle class="fil0" cx="115.29" cy="115.29" r="115.29"/>
  <path class="fil1" d="M19.01 51.87c-12.01,18.19 -19.01,39.99 -19.01,63.42 0,63.67 51.62,115.29 115.29,115.29 59.65,0 108.71,-45.3 114.68,-103.37 0.32,-3.55 0.49,-7.14 0.49,-10.77 0,-27.24 -9.23,-52.33 -24.72,-72.31 -1.48,-0.07 -3.09,-0.12 -4.8,-0.12 -2.93,0 -6.19,0.14 -8.96,0.21 -2.78,0.07 -5.09,0.07 -6.9,0.18 -1.8,0.11 -3.11,0.33 -4.68,0.62 -1.57,0.29 -3.4,0.66 -4.94,0.84 -1.55,0.18 -2.8,0.18 -3.81,0.43 -1.01,0.25 -1.79,0.75 -3.31,1.08 -1.51,0.33 -3.76,0.5 -5.11,0.67 -1.35,0.16 -1.79,0.33 -2.75,0.64 -0.96,0.3 -2.43,0.75 -4.36,0.98 -1.93,0.24 -4.32,0.27 -6.07,0.52 -1.76,0.25 -2.87,0.72 -3.79,1.31 -0.91,0.59 -1.64,1.29 -3.11,1.93 -1.47,0.64 -3.69,1.21 -7.49,1.78 -3.8,0.57 -9.18,1.13 -17,1.58 -7.82,0.45 -18.08,0.8 -28.54,0.67 -10.47,-0.14 -21.13,-0.76 -32.52,-1.82 -11.39,-1.06 -23.52,-2.54 -37.09,-3.64 -0.5,-0.04 -1,-0.08 -1.5,-0.12z"/>
  <path class="fil2" d="M48.88 135.71c6.3,-0.74 10.91,3.69 13.31,4.99 1.2,0.73 7.94,1.47 8.68,2.67 3.25,5.29 -12.26,9.26 -17.06,11.05 -27.7,8.88 -19.75,8.56 -43.38,8.83 18.2,39.73 58.3,67.33 104.86,67.33 59.92,0 109.15,-45.71 114.75,-104.16l-31.81 4.24c-15.81,0.9 -12.92,4.19 -30.55,0.02l-29.18 -5.8c-8.53,-1.35 -17.06,-9.32 -25.59,-10.68 -15.02,-1.92 -38.34,-5.54 -53.36,-7.46 -8.99,0.82 -42.92,6.48 -59.46,12.84 0.15,4.09 0.51,8.12 1.07,12.09 9.21,2.17 41.83,5.77 47.72,4.04z"/>
  <path class="fil3" d="M28.53 131.58c5.41,-0.5 7.66,1.15 13.08,0.65 3.54,-0.82 7.09,-1.65 10.63,-2.48 10.26,0.19 7.27,6.52 14.07,7.77 6.59,1.33 32.62,-1.37 13.87,6.59 -3.41,1.91 -3.32,6.16 -11,9.03 -31.52,10.09 -16.87,16.6 -55.15,17.31l0.01 0.01c0.33,0.62 0.68,1.24 1.03,1.85 0.18,0.31 0.36,0.63 0.54,0.94 0.24,0.4 0.47,0.8 0.71,1.2 0.18,0.29 0.35,0.59 0.53,0.88 0.37,0.61 0.75,1.21 1.13,1.8 0.19,0.3 0.38,0.6 0.57,0.89 0.25,0.39 0.51,0.77 0.76,1.16 0.2,0.29 0.4,0.59 0.6,0.88 0.39,0.59 0.8,1.17 1.21,1.75 0.19,0.27 0.39,0.54 0.58,0.81 0.28,0.38 0.56,0.77 0.84,1.14 0.21,0.29 0.42,0.58 0.63,0.86 0.38,0.49 0.75,0.98 1.13,1.47 0.25,0.31 0.49,0.63 0.74,0.94 0.31,0.39 0.62,0.77 0.93,1.16 0.23,0.27 0.45,0.55 0.68,0.82 0.35,0.42 0.7,0.83 1.06,1.25 0.26,0.31 0.53,0.62 0.8,0.93 0.37,0.42 0.74,0.84 1.12,1.26 0.23,0.25 0.46,0.51 0.7,0.76 0.34,0.38 0.7,0.76 1.05,1.13 0.21,0.23 0.43,0.46 0.64,0.68 0.49,0.51 0.97,1.01 1.47,1.5 0.23,0.24 0.46,0.47 0.7,0.7 0.36,0.36 0.72,0.72 1.09,1.07 0.22,0.21 0.43,0.42 0.65,0.62 0.53,0.51 1.06,1 1.6,1.49 0.23,0.22 0.46,0.42 0.7,0.63 0.38,0.35 0.77,0.69 1.16,1.03 0.23,0.2 0.45,0.4 0.68,0.6 0.56,0.48 1.13,0.96 1.7,1.43 0.21,0.18 0.43,0.36 0.65,0.54 0.42,0.34 0.84,0.68 1.26,1.01 0.24,0.19 0.48,0.38 0.72,0.57 0.59,0.46 1.18,0.91 1.77,1.36 0.2,0.15 0.39,0.29 0.59,0.43 0.46,0.35 0.93,0.69 1.4,1.02 0.24,0.17 0.48,0.35 0.72,0.52 0.56,0.39 1.13,0.79 1.7,1.17 0.2,0.14 0.4,0.28 0.6,0.41 0.54,0.36 1.08,0.71 1.62,1.06 0.24,0.16 0.48,0.31 0.72,0.47 0.54,0.34 1.08,0.68 1.62,1.01 0.15,0.09 0.31,0.19 0.46,0.28 0.66,0.4 1.33,0.8 2,1.18 0.24,0.14 0.47,0.28 0.71,0.41 0.54,0.31 1.07,0.61 1.62,0.9 0.18,0.11 0.36,0.21 0.55,0.31 0.69,0.37 1.38,0.74 2.08,1.1 0.22,0.11 0.44,0.22 0.67,0.34 0.55,0.28 1.1,0.55 1.65,0.82 0.21,0.1 0.41,0.2 0.62,0.3 0.72,0.34 1.43,0.68 2.15,1 0.21,0.1 0.41,0.19 0.62,0.28 0.57,0.26 1.15,0.51 1.72,0.75 0.23,0.1 0.45,0.2 0.68,0.29 0.73,0.31 1.47,0.62 2.22,0.91 0.17,0.07 0.33,0.13 0.5,0.19 0.62,0.25 1.24,0.48 1.87,0.71 0.23,0.09 0.46,0.17 0.69,0.26 0.76,0.28 1.53,0.55 2.3,0.81 0.11,0.03 0.21,0.07 0.31,0.1 0.7,0.24 1.39,0.46 2.09,0.68 0.24,0.07 0.47,0.15 0.7,0.22 0.73,0.22 1.46,0.44 2.19,0.65 0.08,0.02 0.15,0.04 0.23,0.07 0.79,0.22 1.59,0.44 2.4,0.64 0.23,0.06 0.46,0.12 0.69,0.18 0.68,0.18 1.37,0.34 2.06,0.51 0.15,0.03 0.29,0.07 0.44,0.1 0.81,0.19 1.62,0.36 2.44,0.53 0.22,0.05 0.43,0.09 0.65,0.13 0.68,0.14 1.36,0.27 2.05,0.39 0.18,0.04 0.36,0.07 0.54,0.1 0.83,0.15 1.66,0.29 2.49,0.42 0.2,0.03 0.4,0.06 0.6,0.09 0.69,0.1 1.38,0.2 2.08,0.29 0.2,0.02 0.41,0.05 0.61,0.08 0.85,0.1 1.7,0.2 2.55,0.29 0.16,0.01 0.32,0.03 0.49,0.04 0.72,0.08 1.44,0.14 2.16,0.2 0.23,0.02 0.45,0.03 0.68,0.05 0.86,0.06 1.72,0.12 2.58,0.16 0.12,0.01 0.23,0.01 0.34,0.02 0.77,0.04 1.54,0.06 2.32,0.09 0.23,0 0.47,0.01 0.71,0.02 0.87,0.02 1.76,0.03 2.64,0.03 0.95,0 1.89,-0.01 2.83,-0.04 0.07,0 0.14,0 0.21,0 0.9,-0.02 1.79,-0.06 2.68,-0.1 0.11,-0.01 0.22,-0.01 0.32,-0.02 0.87,-0.04 1.74,-0.1 2.6,-0.16 0.13,-0.01 0.26,-0.02 0.39,-0.03 0.85,-0.07 1.69,-0.14 2.54,-0.23 0.14,-0.01 0.27,-0.02 0.41,-0.04 0.84,-0.09 1.67,-0.18 2.5,-0.28l0.43 -0.06c0.83,-0.11 1.66,-0.22 2.48,-0.35 0.13,-0.02 0.27,-0.04 0.41,-0.06 0.83,-0.13 1.65,-0.26 2.48,-0.41 0.12,-0.02 0.24,-0.05 0.36,-0.07 0.84,-0.15 1.68,-0.31 2.51,-0.48 0.09,-0.02 0.18,-0.04 0.27,-0.05 0.85,-0.18 1.69,-0.36 2.53,-0.56l0.19 -0.04c0.82,-0.19 1.64,-0.39 2.45,-0.6 0.11,-0.02 0.21,-0.05 0.31,-0.08 0.8,-0.2 1.59,-0.42 2.38,-0.64 0.14,-0.04 0.29,-0.08 0.43,-0.12 0.76,-0.22 1.52,-0.44 2.28,-0.68 0.16,-0.05 0.33,-0.1 0.5,-0.15 0.73,-0.23 1.47,-0.47 2.2,-0.72 0.18,-0.06 0.36,-0.12 0.53,-0.18 0.72,-0.24 1.44,-0.49 2.15,-0.75 0.19,-0.07 0.38,-0.14 0.56,-0.21 0.71,-0.26 1.41,-0.53 2.11,-0.8 0.19,-0.07 0.37,-0.15 0.56,-0.22 0.69,-0.28 1.39,-0.56 2.07,-0.85 0.19,-0.08 0.37,-0.16 0.56,-0.24 0.69,-0.29 1.38,-0.59 2.07,-0.9 0.16,-0.08 0.33,-0.15 0.49,-0.23 0.64,-0.29 1.27,-0.58 1.9,-0.88 0.2,-0.1 0.41,-0.2 0.62,-0.3 0.6,-0.3 1.21,-0.6 1.81,-0.9 0.19,-0.1 0.38,-0.2 0.57,-0.29 0.63,-0.32 1.25,-0.65 1.86,-0.99 0.21,-0.1 0.41,-0.21 0.61,-0.32 0.61,-0.34 1.22,-0.68 1.83,-1.02 0.22,-0.13 0.44,-0.26 0.66,-0.38 0.59,-0.34 1.17,-0.69 1.75,-1.04 0.23,-0.14 0.47,-0.28 0.7,-0.42 0.57,-0.35 1.13,-0.7 1.69,-1.06 0.24,-0.15 0.48,-0.31 0.72,-0.46 0.55,-0.35 1.1,-0.71 1.64,-1.08 0.24,-0.16 0.48,-0.33 0.73,-0.49 0.53,-0.37 1.07,-0.74 1.6,-1.11 0.24,-0.17 0.47,-0.34 0.71,-0.51 0.47,-0.34 0.95,-0.68 1.42,-1.03 0.28,-0.21 0.56,-0.43 0.84,-0.64 0.42,-0.32 0.84,-0.64 1.26,-0.96 0.31,-0.25 0.63,-0.5 0.95,-0.75 0.4,-0.31 0.79,-0.63 1.18,-0.95 0.32,-0.26 0.63,-0.52 0.94,-0.78 0.4,-0.33 0.8,-0.67 1.2,-1.01 0.26,-0.23 0.53,-0.45 0.8,-0.69 0.43,-0.38 0.86,-0.76 1.29,-1.15 0.25,-0.22 0.49,-0.44 0.74,-0.66 0.44,-0.41 0.89,-0.83 1.33,-1.25 0.25,-0.23 0.49,-0.46 0.73,-0.69 0.44,-0.42 0.87,-0.84 1.3,-1.26 0.24,-0.24 0.48,-0.48 0.72,-0.72 0.42,-0.43 0.85,-0.87 1.26,-1.3 0.24,-0.24 0.47,-0.49 0.7,-0.73 0.41,-0.44 0.83,-0.89 1.24,-1.33 3.63,-4.26 7.23,-8.78 10.64,-13.54 11.36,-16.88 18.37,-36.94 19.42,-58.56l-35.3 4.7c-15.81,0.9 -12.92,4.19 -30.55,0.02l-29.18 -5.8c-8.53,-1.35 -17.06,-9.32 -25.59,-10.67 -15.02,-1.92 -27.26,-2.78 -42.28,-4.7 -16.01,1.46 -103.62,18.24 -39.01,27.05zm170.61 62.83c0.41,-0.44 0.83,-0.88 1.24,-1.33l0 0"/>
  <path class="fil4" d="M33.3 125.84c4.85,-0.43 6.87,1.02 11.73,0.58 3.18,-0.73 6.35,-1.46 9.53,-2.18 9.2,0.16 4.05,2.97 12.62,6.83 4.42,0.39 8.85,0.78 13.27,1.17 4.52,0.63 9.04,1.25 13.56,1.88 11.05,1.83 18.96,2.27 3.59,8 -7.13,3.45 -9.41,3.14 -13.74,9.74 1.98,6.23 -2.98,5.42 -9.86,7.94 -3.2,1.01 -6.39,2.01 -9.59,3.01 -1.08,1.27 -2.16,2.53 -3.24,3.79 -0.14,9.2 -28.45,9.14 -44.35,8.68 0.37,0.6 0.73,1.19 1.11,1.77 0.18,0.29 0.37,0.58 0.56,0.87 0.27,0.42 0.54,0.83 0.82,1.25 0.22,0.33 0.45,0.67 0.67,1 0.34,0.49 0.68,0.98 1.02,1.46 0.2,0.29 0.4,0.57 0.6,0.85 0.3,0.42 0.61,0.84 0.91,1.26 0.25,0.33 0.51,0.67 0.76,1.01 0.33,0.43 0.67,0.87 1,1.31 0.22,0.27 0.43,0.54 0.64,0.81 0.35,0.44 0.7,0.87 1.05,1.3 0.25,0.31 0.51,0.63 0.78,0.94 0.34,0.41 0.68,0.81 1.03,1.22 0.22,0.25 0.43,0.5 0.65,0.75 0.42,0.48 0.83,0.95 1.26,1.42 0.23,0.26 0.47,0.51 0.7,0.77 0.36,0.39 0.72,0.77 1.08,1.16 0.22,0.23 0.44,0.47 0.67,0.7 0.49,0.51 0.98,1.02 1.48,1.52 0.2,0.2 0.4,0.4 0.6,0.6 0.38,0.37 0.75,0.73 1.13,1.1 0.23,0.21 0.45,0.43 0.68,0.65 0.52,0.49 1.04,0.97 1.57,1.46 0.21,0.19 0.42,0.38 0.63,0.56 0.4,0.36 0.8,0.72 1.2,1.07 0.22,0.19 0.44,0.39 0.66,0.58 0.55,0.47 1.1,0.94 1.66,1.4 0.22,0.18 0.44,0.36 0.66,0.54 0.42,0.34 0.84,0.68 1.27,1.02 0.22,0.18 0.44,0.35 0.66,0.53 0.57,0.44 1.15,0.89 1.73,1.33 0.23,0.17 0.46,0.33 0.68,0.5 0.46,0.34 0.91,0.67 1.37,1 0.21,0.15 0.41,0.3 0.62,0.44 0.6,0.43 1.21,0.85 1.82,1.27 0.23,0.15 0.46,0.31 0.69,0.46 0.5,0.33 1,0.66 1.5,0.99 0.18,0.12 0.36,0.23 0.55,0.35 0.63,0.41 1.27,0.81 1.92,1.2 0.23,0.14 0.46,0.28 0.69,0.42 0.54,0.33 1.1,0.65 1.65,0.98 0.15,0.08 0.3,0.17 0.45,0.26 0.67,0.38 1.34,0.76 2.02,1.13 0.22,0.12 0.45,0.24 0.67,0.36 0.63,0.34 1.25,0.67 1.88,0.99 0.13,0.07 0.26,0.14 0.4,0.21 0.66,0.33 1.33,0.67 2,0.99 0.22,0.11 0.44,0.22 0.67,0.32 0.71,0.34 1.42,0.68 2.14,1.01 0.11,0.04 0.21,0.09 0.31,0.13 0.66,0.3 1.31,0.58 1.97,0.86 0.22,0.1 0.43,0.19 0.65,0.28 0.74,0.31 1.47,0.61 2.21,0.9 0.13,0.06 0.27,0.11 0.4,0.16 0.65,0.25 1.31,0.5 1.96,0.74 0.21,0.08 0.42,0.16 0.64,0.24 0.75,0.27 1.51,0.54 2.27,0.8 0.15,0.05 0.3,0.1 0.45,0.15 0.66,0.22 1.33,0.43 1.99,0.64 0.2,0.07 0.41,0.13 0.61,0.2 0.77,0.23 1.55,0.47 2.33,0.69 0.17,0.05 0.35,0.09 0.52,0.14 0.67,0.19 1.34,0.37 2.02,0.55 0.19,0.05 0.38,0.1 0.56,0.15 0.8,0.2 1.59,0.39 2.39,0.58 0.19,0.04 0.37,0.08 0.56,0.13 0.69,0.15 1.39,0.31 2.09,0.45 0.17,0.04 0.33,0.07 0.5,0.11 0.81,0.16 1.63,0.32 2.45,0.47 0.2,0.03 0.39,0.06 0.59,0.1 0.72,0.12 1.44,0.24 2.16,0.36 0.15,0.02 0.3,0.05 0.44,0.07 0.84,0.12 1.67,0.24 2.51,0.35 0.2,0.02 0.4,0.05 0.6,0.07 0.76,0.1 1.52,0.19 2.29,0.26 0.11,0.02 0.22,0.03 0.33,0.04 0.85,0.09 1.71,0.16 2.56,0.23 0.21,0.01 0.42,0.03 0.62,0.04 0.81,0.06 1.62,0.12 2.44,0.16 0.06,0 0.13,0.01 0.2,0.01 0.86,0.04 1.73,0.07 2.6,0.1 0.22,0.01 0.43,0.01 0.64,0.02 0.88,0.02 1.77,0.03 2.65,0.03 0.95,0 1.89,-0.01 2.83,-0.04 0.07,0 0.14,0 0.2,0 0.9,-0.02 1.8,-0.06 2.69,-0.1 0.11,-0.01 0.22,-0.01 0.32,-0.02 0.87,-0.04 1.74,-0.1 2.6,-0.16 0.13,-0.01 0.26,-0.02 0.39,-0.03 0.85,-0.07 1.69,-0.14 2.54,-0.23 0.13,-0.01 0.27,-0.02 0.41,-0.04 0.84,-0.08 1.67,-0.18 2.5,-0.28l0.43 -0.06c0.82,-0.11 1.65,-0.22 2.47,-0.34 0.14,-0.03 0.28,-0.05 0.43,-0.07 0.82,-0.13 1.64,-0.26 2.46,-0.41 0.13,-0.02 0.25,-0.05 0.38,-0.07 0.84,-0.15 1.67,-0.31 2.49,-0.48 0.1,-0.02 0.2,-0.04 0.3,-0.06 0.84,-0.17 1.69,-0.35 2.52,-0.55l0.21 -0.05c0.81,-0.18 1.62,-0.38 2.43,-0.59 0.1,-0.02 0.2,-0.05 0.3,-0.07 0.79,-0.21 1.58,-0.43 2.37,-0.65 0.15,-0.04 0.3,-0.08 0.44,-0.12 0.76,-0.22 1.52,-0.44 2.27,-0.67 0.17,-0.06 0.34,-0.11 0.5,-0.16 0.74,-0.23 1.47,-0.47 2.2,-0.71 0.18,-0.06 0.37,-0.13 0.55,-0.19 0.71,-0.24 1.42,-0.49 2.12,-0.75 0.2,-0.07 0.4,-0.14 0.59,-0.21 0.7,-0.26 1.39,-0.52 2.08,-0.79 0.2,-0.08 0.39,-0.16 0.59,-0.24 0.69,-0.27 1.37,-0.55 2.04,-0.83 0.2,-0.08 0.4,-0.17 0.6,-0.25 0.68,-0.29 1.35,-0.59 2.02,-0.89 0.19,-0.08 0.37,-0.17 0.55,-0.25 0.62,-0.28 1.24,-0.57 1.86,-0.87 0.22,-0.11 0.45,-0.21 0.67,-0.32 0.58,-0.29 1.16,-0.57 1.74,-0.87 0.23,-0.12 0.47,-0.23 0.7,-0.35 0.58,-0.3 1.16,-0.61 1.74,-0.92 0.21,-0.12 0.42,-0.23 0.64,-0.35 0.59,-0.32 1.19,-0.66 1.78,-0.99 0.24,-0.14 0.48,-0.27 0.71,-0.41 0.57,-0.33 1.14,-0.67 1.71,-1.01 0.25,-0.15 0.5,-0.3 0.74,-0.45 0.55,-0.34 1.1,-0.68 1.65,-1.03 0.25,-0.16 0.51,-0.32 0.77,-0.49 0.53,-0.34 1.06,-0.69 1.59,-1.05 0.26,-0.17 0.52,-0.35 0.77,-0.52 0.52,-0.36 1.04,-0.71 1.55,-1.08 0.26,-0.18 0.52,-0.37 0.78,-0.55 0.44,-0.32 0.89,-0.64 1.33,-0.97 0.31,-0.24 0.63,-0.47 0.94,-0.71 0.39,-0.29 0.78,-0.59 1.16,-0.89 0.36,-0.27 0.71,-0.55 1.07,-0.83 0.36,-0.29 0.72,-0.58 1.07,-0.87 0.36,-0.29 0.72,-0.59 1.07,-0.88 0.36,-0.3 0.71,-0.6 1.07,-0.91 0.33,-0.28 0.67,-0.57 1,-0.86 0.36,-0.32 0.73,-0.65 1.09,-0.97 0.28,-0.25 0.56,-0.5 0.83,-0.75 0.42,-0.38 0.83,-0.77 1.24,-1.16 0.27,-0.25 0.53,-0.5 0.79,-0.75 0.42,-0.4 0.83,-0.81 1.25,-1.21 0.25,-0.26 0.51,-0.52 0.77,-0.77 0.4,-0.41 0.81,-0.83 1.21,-1.25 0.25,-0.26 0.51,-0.53 0.76,-0.79 0.39,-0.42 0.79,-0.84 1.18,-1.27 2.12,-2.49 4.29,-5.06 6.47,-7.73 13.72,-17.88 22.32,-39.9 23.6,-63.87 -13.96,0.82 -32.39,1.64 -44.28,2.46 -5.46,0.3 -10.92,0.61 -16.38,0.91 -3.68,-0.29 -7.35,-0.59 -11.02,-0.89 -2.33,-1.35 -4.65,-2.71 -6.98,-4.06 -3.37,-1.05 -6.75,-2.1 -10.12,-3.15 -3.03,-0.41 -6.05,-0.82 -9.07,-1.22 -7.65,-1.19 -15.3,-2.38 -22.95,-3.57 -13.48,-1.7 -26.96,-3.39 -40.43,-5.08 -6.99,0.63 -13.97,1.25 -20.96,1.88 -4.02,1.08 -8.03,2.16 -12.05,3.24 -14.88,3.39 -40.82,8.73 -2.87,13.8zm165.86 68.55c0.39,-0.42 0.79,-0.84 1.18,-1.27l0 0"/>
  <path class="fil5" d="M194.28 126.4c-0.95,1.07 -1.99,2.22 -3.3,3.2 -1.31,0.98 -2.88,1.79 -4.09,3.22 -1.21,1.43 -2.05,3.48 -1.97,4.93 0.08,1.45 1.08,2.3 2.66,2.82 1.57,0.53 3.7,0.73 6.26,0.81 2.56,0.08 5.54,0.04 7.76,0.99 2.21,0.94 3.66,2.88 5.05,4.53 1.39,1.65 2.72,3.02 4.41,3.89 1.7,0.86 3.75,1.22 6.23,1.33 2.08,0.08 4.46,-0.02 7.27,0.02 2.82,-8.35 4.69,-17.12 5.52,-26.2l0.03 -0.33 0.01 -0.18c0.08,-0.94 0.14,-1.89 0.18,-2.85l0.01 -0.12c0.05,-0.98 0.09,-1.96 0.11,-2.94l0 -0.06c0.03,-1 0.04,-2.01 0.04,-3.02 0,-0.97 -0.01,-1.94 -0.03,-2.91l-0.01 -0.3c-0.02,-0.81 -0.06,-1.61 -0.09,-2.41 -0.02,-0.36 -0.04,-0.72 -0.06,-1.08 -0.03,-0.5 -0.06,-1 -0.1,-1.5 -0.05,-0.71 -0.1,-1.42 -0.16,-2.12 -0.02,-0.16 -0.03,-0.32 -0.05,-0.48 -0.1,-0.34 -0.2,-0.68 -0.31,-1.02 -1.19,-0.18 -2.35,-0.31 -3.45,-0.41 -2.66,-0.24 -4.92,-0.28 -7.5,-0.14 -2.58,0.14 -5.48,0.46 -7.87,1.05 -2.4,0.58 -4.3,1.43 -5.91,3.16 -1.61,1.73 -2.94,4.35 -3.86,6.47 -0.93,2.11 -1.45,3.72 -2.08,5.07 -0.62,1.35 -1.35,2.44 -2.13,3.48 -0.79,1.04 -1.63,2.03 -2.57,3.1z"/>
  <path class="fil6" d="M215.2 104.81c0.98,0.31 2.42,1.02 3.43,1.81 1,0.8 1.57,1.69 2.35,2.51 0.77,0.83 1.76,1.59 2.8,2.36 1.03,0.76 2.12,1.53 3.52,2.43 1.02,0.65 2.2,1.37 3.16,2.07l0 0.01 0 0.01c0,0.05 0,0.11 0,0.16l0 0 0 0.01 0 0.01 0 0.01c0,0.08 0,0.16 0,0.24 0,1.01 -0.01,2.02 -0.04,3.02l0 0.07c-0.02,0.98 -0.06,1.96 -0.11,2.93l-0.01 0.12c-0.04,0.95 -0.1,1.9 -0.18,2.85l-0.01 0.19 -0.03 0.34c-0.83,9.08 -2.71,17.86 -5.53,26.21 -0.92,-0.02 -1.86,-0.03 -2.8,-0.03 -1.49,-0.01 -2.97,-0.02 -4.54,-0.15 -1.56,-0.14 -3.2,-0.39 -4.64,-0.9 -1.43,-0.51 -2.67,-1.27 -3.51,-1.96 -0.83,-0.69 -1.27,-1.32 -1.92,-2.04 -0.64,-0.72 -1.48,-1.52 -2.34,-2.28 -0.86,-0.75 -1.73,-1.45 -2.53,-1.93 -0.81,-0.49 -1.54,-0.75 -2.63,-0.96 -1.08,-0.2 -2.5,-0.35 -3.89,-0.5 -1.39,-0.15 -2.74,-0.31 -4.1,-0.46 -1.36,-0.14 -2.71,-0.26 -3.95,-0.56 -1.23,-0.3 -2.34,-0.78 -2.69,-1.69 -0.34,-0.91 0.07,-2.25 0.54,-3.34 0.47,-1.09 1.01,-1.94 2.06,-2.97 1.05,-1.03 2.62,-2.24 4.01,-3.37 1.39,-1.12 2.61,-2.16 3.61,-3.32 1,-1.17 1.78,-2.46 2.62,-4.09 0.85,-1.64 1.76,-3.62 2.64,-5.48 0.88,-1.86 1.74,-3.61 2.47,-4.9 0.73,-1.29 1.35,-2.13 2.37,-2.99 1.02,-0.87 2.45,-1.77 3.83,-2.38 1.37,-0.6 2.68,-0.91 3.6,-1.1 0.92,-0.2 1.45,-0.27 2.44,0.04z"/>
  <path class="fil7" d="M69.48 101.14c0.13,-0.7 0.21,-1.61 0.25,-2.63 0.04,-1.03 0.04,-2.17 0.32,-3.43 0.27,-1.26 0.83,-2.63 1.39,-3.95 0.55,-1.33 1.12,-2.6 1.52,-3.44 0.4,-0.84 0.63,-1.25 0.79,-1.72 0.15,-0.47 0.22,-1 0.24,-1.46 0.01,-0.47 -0.02,-0.87 0.1,-1.34 0.13,-0.48 0.41,-1.03 0.63,-1.42 0.21,-0.39 0.37,-0.61 0.58,-1.17 0.21,-0.56 0.48,-1.45 0.88,-2.23 0.4,-0.77 0.93,-1.43 1.76,-2.16 0.83,-0.73 1.95,-1.53 2.77,-2.13 0.82,-0.6 1.27,-1.12 1.74,-1.24 1.05,-0.28 1.48,-0.31 2.56,-0.35 0.31,-0.01 1.19,0.04 1.51,0.16 0.31,0.12 2.92,1.59 4.28,2.55 1.37,0.96 2.21,1.76 3.01,2.71 0.79,0.96 1.53,2.06 2.34,3.54 0.81,1.48 1.7,3.34 2.31,5.03 0.62,1.7 0.97,3.23 1.23,4.61 0.25,1.39 0.4,2.64 0.54,3.49 0.13,0.85 0.25,1.31 0.32,1.69 0.08,0.38 0.11,0.68 -0.18,1.7 -0.3,1.01 -0.92,2.75 -2.26,4.07 -1.35,1.31 -3.41,2.22 -5.6,3.91 -2.18,1.68 -4.47,4.15 -7.31,5.06 -2.84,0.91 -6.22,0.27 -9.56,-0.65 -3.33,-0.92 -6.61,-2.1 -7.71,-3.4 -1.1,-1.3 -0.03,-2.71 0.6,-3.66 0.63,-0.95 0.81,-1.44 0.95,-2.14z"/>
  <path class="fil8" d="M153.35 122.84c-0.25,0.71 -1.37,1.54 -3.28,2.25 -1.91,0.71 -4.59,1.31 -6.81,1.53 -2.21,0.21 -3.94,0.03 -6.23,0.24 -2.29,0.2 -5.14,0.78 -7.57,1.42 -2.42,0.64 -4.42,1.33 -7.19,1.77 -2.77,0.44 -6.31,0.64 -8.61,0.6 -2.3,-0.03 -3.36,-0.3 -4.64,-0.58 -1.28,-0.29 -2.79,-0.59 -4.27,-0.59 -1.49,0 -2.96,0.3 -4.66,0.31 -1.7,0.01 -3.62,-0.27 -5.22,-0.56 -1.61,-0.3 -2.88,-0.6 -4.03,-0.75 -1.15,-0.15 -2.18,-0.15 -3.34,-0.27 -1.15,-0.12 -2.45,-0.37 -3.51,-0.47 -1.06,-0.1 -1.89,-0.04 -3.47,0.02 -1.59,0.06 -3.92,0.13 -5.56,-0.06 -1.64,-0.2 -2.57,-0.66 -3.2,-1.22 -0.63,-0.55 -0.95,-1.21 -1.29,-1.89 -0.35,-0.68 -0.72,-1.39 -1.22,-1.87 -0.51,-0.47 -1.15,-0.72 -2.44,-0.95 -1.29,-0.23 -3.23,-0.44 -5.22,-0.71 -1.98,-0.26 -3.99,-0.58 -6.46,-0.86 -2.47,-0.27 -5.39,-0.5 -8.01,-0.61 -2.62,-0.1 -4.94,-0.09 -7.16,-0.06 -2.22,0.03 -4.34,0.06 -6.7,0.02 -2.36,-0.05 -4.96,-0.17 -6.65,-0.44 -1.69,-0.26 -2.47,-0.67 -2.6,-1.26 -0.14,-0.59 0.38,-1.37 0.89,-2.05 0.52,-0.68 1.04,-1.25 2.44,-1.81 1.4,-0.57 3.67,-1.11 6.34,-1.8 2.66,-0.69 5.71,-1.52 8.31,-2.21 2.61,-0.7 4.77,-1.26 6.82,-1.79 2.04,-0.52 3.98,-1.02 6.32,-1.66 2.34,-0.65 5.08,-1.45 7.15,-2.24 2.07,-0.8 3.47,-1.59 4.93,-2.2 1.46,-0.6 2.98,-1 4.36,-1.61 1.38,-0.6 2.62,-1.39 4.09,-2.07 1.47,-0.69 3.17,-1.25 4.46,-1.69 1.29,-0.45 2.17,-0.77 3.08,-1.08 0.9,-0.32 1.82,-0.64 2.87,-0.64 1.05,0 2.24,0.32 3.2,0.63 0.97,0.31 1.71,0.61 2.53,0.97 0.83,0.36 1.73,0.79 2.45,1.04 0.71,0.26 1.24,0.35 1.75,0.38 0.5,0.04 0.98,0.02 1.4,-0.06 0.43,-0.08 0.8,-0.22 1.09,-0.31 0.29,-0.09 0.51,-0.12 0.9,0.03 0.38,0.15 0.95,0.49 1.5,0.77 0.55,0.28 1.08,0.51 1.48,0.55 0.4,0.03 0.66,-0.13 1.04,-0.38 0.38,-0.26 0.88,-0.61 1.44,-0.67 0.57,-0.07 1.21,0.16 2.1,0.32 0.89,0.16 2.04,0.25 3.18,0.33 1.15,0.08 2.28,0.15 3.16,0.3 0.89,0.15 1.52,0.38 2.03,0.73 0.5,0.34 0.87,0.8 1.68,1.44 0.8,0.63 2.04,1.45 3.32,2.42 1.27,0.98 2.58,2.11 3.92,3.24 1.35,1.13 2.73,2.26 3.96,3.27 1.23,1.01 2.31,1.9 3.25,2.83 0.93,0.92 1.73,1.9 2.34,2.45 0.61,0.56 1.04,0.7 1.76,0.84 0.73,0.14 1.75,0.27 3.2,0.5 1.45,0.22 3.33,0.52 5.08,1.01 1.74,0.48 3.37,1.14 4.76,1.72 1.4,0.59 2.58,1.1 3.48,1.65 0.9,0.54 1.53,1.13 1.28,1.84z"/>
  <path class="fil9" d="M58.76 105.52c1.66,-0.37 4.25,-0.97 6.25,-1.56 2,-0.58 3.41,-1.14 4.5,-1.33 1.09,-0.19 1.85,-0.01 1.82,0.65 -0.03,0.66 -0.85,1.81 -1.63,2.87 -0.78,1.06 -1.52,2.03 -1.33,2.6 0.19,0.58 1.31,0.76 2.48,0.63 1.16,-0.13 2.37,-0.55 3.39,-0.91 1.02,-0.36 1.86,-0.66 3.16,-0.95 1.29,-0.3 3.04,-0.59 3.91,-0.45 0.86,0.13 0.84,0.71 0.69,1.35 -0.15,0.65 -0.42,1.38 0.14,1.13 0.55,-0.24 1.94,-1.44 3.01,-2.45 1.06,-1.01 1.81,-1.82 2.13,-1.91 0.32,-0.09 0.2,0.55 0.06,1.14 -0.14,0.58 -0.3,1.13 0.06,1.4 0.36,0.27 1.24,0.27 1.46,0.6 0.22,0.32 -0.22,0.97 -0.53,1.49 -0.31,0.52 -0.48,0.92 0.12,0.91 0.6,-0.02 1.99,-0.44 2.99,-0.76 1,-0.32 1.62,-0.52 1.79,-0.3 0.16,0.23 -0.12,0.89 0.22,0.91 0.33,0.01 1.27,-0.62 1.84,-0.7 0.56,-0.08 0.75,0.39 0.97,0.56 0.22,0.17 0.46,0.05 1.02,-0.54 0.56,-0.59 1.43,-1.64 2.1,-2.7 0.67,-1.07 1.12,-2.14 1.5,-3.1 0.37,-0.95 0.67,-1.79 0.93,-1.67 0.25,0.11 0.47,1.19 0.55,2.56 0.07,1.38 0,3.06 0.27,4.18 0.26,1.13 0.87,1.69 1.51,1.71 0.64,0.01 1.32,-0.53 2.13,-0.73 0.81,-0.2 1.77,-0.07 2.53,0.25 0.76,0.31 1.31,0.81 2.43,1.19 1.12,0.37 2.8,0.62 3.9,1.13 1.09,0.51 1.61,1.27 1.78,2.3 0.17,1.03 -0.01,2.33 -0.04,3.15 -0.03,0.81 0.09,1.15 1.09,1.21 0.99,0.05 2.87,-0.18 4.3,0.1 1.43,0.28 2.42,1.06 2.63,1.96 0.2,0.91 -0.36,1.93 -0.74,3.1 -0.39,1.16 -0.59,2.47 -0.47,3.28 0.13,0.81 0.58,1.12 0.69,1.36 0.12,0.23 -0.1,0.38 -0.92,0.57 -0.82,0.18 -2.24,0.4 -4.44,0.52 -2.2,0.12 -5.19,0.14 -7.19,0.05 -2,-0.09 -3.02,-0.3 -4.04,-0.46 -1.01,-0.16 -2.02,-0.27 -2.98,-0.34 -0.97,-0.07 -1.88,-0.1 -2.87,-0.05 -0.98,0.04 -2.04,0.16 -2.92,0.14 -0.89,-0.02 -1.59,-0.18 -2.72,-0.36 -1.13,-0.18 -2.68,-0.37 -4.26,-0.61 -1.58,-0.23 -3.21,-0.5 -4.78,-0.66 -1.57,-0.17 -3.08,-0.23 -4.75,-0.24 -1.66,-0.01 -3.47,0.04 -5.04,-0.02 -1.56,-0.06 -2.88,-0.23 -3.79,-0.45 -0.91,-0.22 -1.41,-0.5 -1.86,-0.83 -0.46,-0.32 -0.87,-0.68 -1.17,-1.16 -0.31,-0.48 -0.51,-1.08 -0.83,-1.55 -0.33,-0.48 -0.78,-0.84 -1.47,-1.21 -0.68,-0.38 -1.61,-0.77 -2.57,-0.99 -0.97,-0.22 -1.98,-0.27 -3.4,-0.41 -1.42,-0.15 -3.26,-0.41 -5,-0.62 -1.75,-0.22 -3.4,-0.39 -5.36,-0.55 -1.95,-0.15 -4.22,-0.28 -6.28,-0.35 -2.05,-0.06 -3.91,-0.07 -5.66,-0.1 -1.75,-0.04 -3.39,-0.11 -5.07,-0.12 -1.67,-0.02 -3.37,0.01 -4.78,-0.02 -1.4,-0.04 -2.51,-0.14 -3.42,-0.3 -0.91,-0.17 -1.63,-0.39 -2.17,-0.61 -0.53,-0.22 -0.88,-0.43 -0.8,-0.87 0.07,-0.44 0.57,-1.11 1.19,-1.73 0.63,-0.63 1.37,-1.2 2.4,-1.69 1.04,-0.5 2.37,-0.9 3.66,-1.27 1.3,-0.37 2.57,-0.69 4.29,-1.14 1.71,-0.45 3.88,-1.04 5.79,-1.55 1.91,-0.51 3.56,-0.96 5.52,-1.47 1.96,-0.51 4.23,-1.09 5.77,-1.54 1.54,-0.44 2.35,-0.75 3.12,-0.97 0.78,-0.22 1.52,-0.34 3.19,-0.7z"/>
  <path class="fil10" d="M21.34 182.12c0.16,-0.19 0.31,-0.38 0.46,-0.58 0.6,-0.78 1.13,-1.59 1.54,-2.28 0.42,-0.69 0.73,-1.27 1.63,-1.34 0.91,-0.08 2.39,0.34 3.92,0.69 1.53,0.35 3.09,0.64 4.27,0.85 1.17,0.2 1.95,0.34 2.85,0.66 0.9,0.33 1.92,0.85 3.21,1.42 1.29,0.58 2.86,1.2 4.58,1.62 1.72,0.42 3.6,0.63 5.76,0.8 2.15,0.17 4.58,0.3 7.17,0.55 2.6,0.24 5.37,0.61 6.11,1.26 0.74,0.65 -0.54,1.59 -1.04,2.56 -0.51,0.96 -0.25,1.96 -0.1,2.53 0.16,0.57 0.21,0.73 0.66,0.68 0.44,-0.05 1.28,-0.32 2.66,-0.65 1.38,-0.34 3.31,-0.76 4.51,-0.8 1.2,-0.04 1.67,0.3 2.35,0.77 0.68,0.47 1.57,1.07 2.49,1.57 0.93,0.49 1.9,0.88 2.63,1.18 0.73,0.3 1.22,0.51 1.82,0.94 0.6,0.43 1.31,1.09 2.1,1.61 0.8,0.52 1.69,0.91 2.61,1.31 0.93,0.41 1.89,0.83 4.15,1.71 2.26,0.89 5.81,2.25 8.59,3.31 2.78,1.05 4.79,1.81 5.97,2.51 1.19,0.71 1.56,1.36 1.57,2.35 0.01,0.99 -0.33,2.32 -0.16,3.47 0.17,1.15 0.85,2.12 1.62,2.9 0.77,0.78 1.63,1.38 2.36,1.92 0.73,0.53 1.34,0.99 5.46,6.71 1.54,2.13 3.56,4.98 5.62,8.17 -1.14,0.04 -2.28,0.06 -3.42,0.06 -38.76,0 -73.05,-19.13 -93.95,-48.46z"/>
  <path class="fil11" d="M24.78 178.61c0.86,0.19 2.53,0.64 3.87,0.94 1.35,0.31 2.38,0.48 2.93,1.02 0.55,0.53 0.62,1.44 0.35,2.22 -0.28,0.78 -0.9,1.42 -1.81,2.5 -0.91,1.08 -2.11,2.58 -3,3.72l-0.23 0.28c-1.96,-2.34 -3.84,-4.77 -5.62,-7.27 0.14,-0.15 0.27,-0.3 0.4,-0.45 0.59,-0.69 1.04,-1.36 1.38,-1.86 0.33,-0.5 0.54,-0.83 0.68,-1.03 0.13,-0.19 0.19,-0.26 1.05,-0.07zm2.94 11.66c0.57,-0.27 1.22,-0.58 1.84,-0.87 1.42,-0.64 2.71,-1.12 3.88,-1.38 1.18,-0.27 2.23,-0.31 2.99,-0.36 0.77,-0.05 1.25,-0.1 1.91,0.18 0.65,0.27 1.49,0.87 2.4,1.21 0.91,0.33 1.89,0.4 2.45,0.51 0.56,0.11 0.71,0.25 0.6,0.75 -0.11,0.51 -0.47,1.37 -0.72,2.28 -0.25,0.9 -0.39,1.86 -0.57,2.65 -0.18,0.79 -0.4,1.41 0.12,1.66 0.51,0.25 1.76,0.13 2.86,0.04 1.1,-0.1 2.05,-0.17 2.64,0.23 0.59,0.39 0.8,1.25 0.8,1.93 0,0.69 -0.21,1.19 -0.47,1.69 -0.25,0.5 -0.53,1 -0.7,1.57 -0.17,0.56 -0.22,1.18 -0.25,1.71 -0.04,0.52 -0.06,0.95 0.39,0.99 0.46,0.04 1.39,-0.32 2.2,-0.27 0.82,0.04 1.51,0.5 1.38,1.05 -0.13,0.55 -1.09,1.19 -2.42,2.76 -0.17,0.21 -0.36,0.44 -0.55,0.67 -7.68,-5.47 -14.66,-11.86 -20.78,-19zm39.27 29.73c4.89,2.26 9.97,4.18 15.2,5.75 -0.96,-0.51 -1.67,-0.92 -2.45,-1.3 -1.01,-0.5 -2.14,-0.96 -2.87,-1.74 -0.73,-0.77 -1.06,-1.87 -1.59,-2.33 -0.53,-0.45 -1.24,-0.26 -1.91,-0.2 -0.67,0.06 -1.29,-0.01 -2.16,-0.09 -0.86,-0.07 -1.96,-0.14 -3.1,-0.13 -0.37,0.01 -0.74,0.02 -1.12,0.04z"/>
  <path class="fil12" d="M69.15 220.2c3.17,-2.26 5.59,-5.59 6.87,-9.36 1.29,-3.78 1.44,-8.01 1.51,-12.24 0.08,-4.23 0.08,-8.46 1.06,-13.14 0.98,-4.68 2.94,-9.82 5.29,-14.05 2.34,-4.23 5.06,-7.55 8.76,-10.35 3.7,-2.79 8.38,-5.06 12.91,-6.72 4.53,-1.66 8.91,-2.72 13.97,-3.17 5.07,-0.45 10.81,-0.3 14.81,-0.3 4,0 6.27,-0.15 8.53,0.9 2.27,1.06 4.54,3.33 6.73,5.22 2.19,1.88 4.3,3.39 7.85,4.45 3.55,1.06 8.53,1.66 12.39,1.29 3.85,-0.38 6.57,-1.74 9.89,-1.97 3.32,-0.22 7.25,0.68 11.56,2.04 4.3,1.36 8.98,3.17 12.53,6.04 3.43,2.77 5.8,6.53 8.27,9.1 -20.55,31.68 -56.22,52.64 -96.79,52.64 -16.66,0 -32.5,-3.54 -46.8,-9.9 0.22,-0.16 0.43,-0.32 0.66,-0.48z"/>
  <path class="fil13" d="M77.69 224.3c-0.02,-0.28 -0.03,-0.56 -0.05,-0.84 -0.31,-4.23 -1.44,-7.95 -1.8,-10.82 -0.36,-2.88 0.05,-4.89 0.33,-8.03 0.29,-3.14 0.45,-7.4 0.75,-10.95 0.31,-3.55 0.75,-6.38 1.24,-8.68 0.5,-2.29 1.06,-4.04 2.07,-6.39 1.01,-2.36 2.46,-5.32 4.02,-7.83 1.56,-2.5 3.23,-4.55 4.97,-6.68 1.75,-2.13 3.57,-4.34 6.58,-5.97 3.01,-1.62 7.2,-2.67 10.98,-2.82 3.78,-0.16 7.15,0.57 10.18,3.34 3.04,2.77 5.75,7.58 8.15,10.47 2.41,2.88 4.5,3.84 6.56,4.85 2.05,1 4.07,2.05 6.78,2.88 2.71,0.83 6.12,1.45 10.05,1.53 3.94,0.09 8.4,-0.35 9.88,1.88 1.49,2.23 0,7.13 -1.13,11.63 -1.14,4.51 -1.93,8.62 -0.7,12.29 1.22,3.67 4.46,6.91 8.17,8.31 3.15,1.18 6.64,1.05 10.46,1.35 -17.46,10.63 -37.96,16.76 -59.89,16.76 -13.17,0 -25.82,-2.21 -37.6,-6.28z"/>
  <path class="fil14" d="M150.14 138.33c-0.4,4.19 -0.23,8.96 -0.19,13.2 0.03,2.2 -0.07,4.55 0,6.71 0.12,4.33 -1.76,3.6 -1.51,0.82 0.35,-3.9 0.04,-9.4 0.04,-13.47 0,-2.07 0.15,-4.74 0,-6.73 -0.3,-4.03 1.94,-3.33 1.66,-0.53zm9.07 -79.39l1.85 0c3.4,0.9 4.03,7 4.19,10.13 0.16,3.03 0.6,4.8 3.98,5.08 3.06,0.25 5.21,0.02 8.43,0.59 6.07,1.06 9.23,2.05 15.71,2.33 3.05,0.14 5.28,0.44 8.19,-0.76 3.27,-1.35 3.95,-1.6 7.6,-1.2l-0.16 0.84 4.67 0.9 0.01 0.01 0 0.33 -2.23 1.66 -4.03 0.32 0.29 -0.66 0.02 0.26 -6.17 0.65 -0.04 -0.17 0.27 -0.97 -0.17 0.22 -1.65 -0.96 -0.03 -0.37 -7.27 9.82 2.92 -7.89 0.08 0.18 -15.28 8.91 -0.58 -0.94 10.08 -8.81 -0.29 -0.34 -7.94 4.9 -0.33 -0.16 2.53 -5.65 0.1 0.05c-3.33,1.43 -6.7,6.13 -10.77,6.77 -5.2,0.82 -10.79,0.88 -16.04,1.51l-0.03 0.28 10.27 1.06 0.23 0.39 -7.32 8.02 -0.03 -0.05 7.38 -3.23 0.49 0.32 -12.91 21.63 -0.74 -0.44c3.69,-1.28 6.9,-3.24 8.48,-6.88 1.48,-3.45 2.99,-7.39 4.68,-10.69 0.08,0.14 -1.86,8.16 -2.1,9 -0.83,2.82 -1.81,5.29 -3.26,7.86 -2.61,4.59 -5.67,9.49 -8.02,14.15 2.07,0.97 2.83,-0.63 3.75,-2.25 0.84,-1.49 1.66,-2.76 2.56,-4.2 1.74,-2.77 3.49,-5.51 5.27,-8.26 3.11,-4.83 3.08,-4.54 2.78,-10.52 -0.15,-2.86 -1.06,-9.82 1.63,-11.59 0.8,0.96 1.14,12.66 1.39,14.97 0.09,0.87 0.73,2.96 -0.38,3.24 -0.79,0.19 -2.51,0.64 -2.39,1.7 0.19,1.76 2.26,1.04 2.65,1.47 0.62,0.67 0.71,2.26 1.03,3.08l0.06 0.01 1.24 -7.87 -0.6 -0.1c2.09,0.16 1.54,-1.51 1.5,-3.14 -0.07,-3.12 -0.05,-6.28 -0.14,-9.39 -0.08,-2.79 1.88,-2.73 1.93,-2.59l-0.99 0.72c-1.32,2.21 -0.53,7.06 -0.47,9.76 0.14,5.7 0.54,3.61 -1.3,8.88 -1.04,2.96 -0.41,6.29 -0.84,9.62 -0.47,3.77 -0.57,6.13 -0.33,9.93 0.43,6.75 0.57,13.58 0.99,20.37 0.2,3.42 0.32,6.8 0.48,10.2 0.1,2.1 1.05,2.25 2.88,2.45 0.73,0.08 1.77,0.05 1.84,0.84 0.04,0.45 0.04,2.06 -0.17,2.42 -0.05,0.05 -2.32,0.08 -5.62,0.09l-7.22 0c-7.56,-0.02 -16.05,-0.06 -18.12,-0.06 -1.72,0 -3.45,0.03 -5.17,-0.02 -2.41,-0.06 -3.14,0.8 -2.72,-2.27 2.86,-0.93 5.46,-0.06 5.95,-3.32 0.42,-2.82 0.15,-5.88 0.44,-8.8 0.3,-3.01 0.59,-5.61 0.59,-8.66 0,-1.23 0.04,-3.33 -0.14,-4.5 -0.04,-0.33 -1.3,-1.33 -1.51,-3.11 -0.34,-2.91 0.78,-5.59 0.1,-8.75 -0.84,-3.91 -0.91,-4 -0.53,-8.09 0.52,-5.62 0.81,-11.7 1.13,-17.36 0.09,-1.65 0.73,-7.47 0.38,-8.55 -0.64,-1.91 -4.57,-2.24 -6.42,-2.72 -2.38,-0.62 -5.83,-0.86 -8.3,-0.94 -2.51,-0.08 -6.46,0.33 -8.72,-0.41 -6.45,-2.12 -0.63,-9.03 -9.6,-8.92 -8.59,0.12 -12.35,-5.67 -4.37,-4.35l-0.48 -0.84c1.73,-0.99 5.68,0.57 7.38,1.19 2.54,0.92 5.31,0.65 7.96,0.81 5.98,0.34 10.44,1.53 16.59,0.02 2.35,-0.58 4.65,-1.54 6.93,-2.11 2.06,-0.5 6.33,-0.09 7.67,-1.33 2.13,-1.98 -2.14,-11.87 3.01,-14.27 0.49,-0.23 0.94,-0.39 1.36,-0.48zm-6 78.81c-0.46,4.49 -0.2,9.21 -0.18,13.75 0.01,2.18 -0.17,4.88 -0.04,6.97 0.23,3.58 -1.76,3.91 -1.51,0.04 0.28,-4.2 0,-9.65 0.01,-14 0,-2.2 0.16,-4.88 -0.01,-7.01 -0.28,-3.57 2.09,-3.28 1.73,0.25zm1.26 -2.21c-0.01,-2.68 2.01,-2.69 1.69,1.9 -0.18,2.47 -0.21,4.69 -0.19,7.16 0.03,4.91 0.02,9.82 0.09,14.72 0.01,0.62 -0.47,2.77 -1.3,1.69 -0.58,-0.75 -0.15,-2.55 -0.15,-3.5l-0.14 -21.97zm4.75 -1.21c-0.22,5.15 -0.25,9.99 -0.25,15.15 0,2.56 0.01,5.12 -0.04,7.68 -0.02,1.09 0.41,2.82 -0.22,3.75 -0.9,1.31 -1.32,-1.02 -1.29,-1.71 0.23,-5.03 0.05,-10.34 0.05,-15.41 0,-2.55 0.04,-5.11 0.05,-7.66 0.01,-0.94 -0.3,-2.84 0.37,-3.56 0.98,-1.05 1.36,1.06 1.33,1.76zm2.98 4.74l-0.18 15.76c0,0.7 0.54,7.08 -1,6.3 -0.83,-0.42 -0.51,-6.02 -0.52,-8.23 -0.02,-5.69 0.03,-11.32 0.04,-17l0 -0.75 1.16 -0.14 0.5 4.06zm3.09 -7.53c-0.61,5.23 -0.27,11.64 -0.27,17 0,2.74 -0.16,5.92 -0.03,8.61 0.26,5.46 -1.78,4.96 -1.48,0.94 0.38,-5.12 0,-11.91 0.01,-17.22 0,-2.73 0.17,-5.93 0.02,-8.59 -0.29,-5.51 2.15,-4.16 1.75,-0.74zm1.25 -2.57c0.02,-0.8 0.6,-3.24 1.5,-1.56 0.59,1.08 0.2,3.01 0.1,4.22 -0.22,2.92 -0.18,5.97 -0.18,8.9 0,6.07 0.08,12.13 0.14,18.19 0,0.61 -0.49,3.62 -1.34,1.97 -0.54,-1.07 -0.14,-3.22 -0.15,-4.47 -0.05,-3.03 -0.03,-6.06 -0.03,-9.09 0,-5.93 -0.23,-12.28 -0.04,-18.16zm4.07 -3.68c1.36,2.3 0.43,5.63 0.43,8.36 0.01,3.16 0.01,6.32 0.01,9.48 0,1.91 0.72,17.91 -0.81,17.96 -1.14,0.03 -0.68,-7.39 -0.68,-8.52 0,-6.31 0.02,-12.63 0,-18.93 -0.01,-2.23 -0.74,-6.98 1.05,-8.35zm-24.02 1.99c2.22,2.94 3.26,3.67 6.87,1.73 2.24,-1.2 4.33,-2.81 6.47,-4.2 1.07,-0.7 2.09,-1.47 3.13,-2.23 0.51,-0.37 1.06,-0.74 1.55,-1.12 0.62,-0.48 1.21,-1.34 1.02,-0.14 -0.28,1.83 -1.06,3.17 1.89,2.05 0.94,-0.35 3.32,-1.46 3.96,-0.23 -3.11,0.12 -9.78,4.83 -13.08,6.35 -3.25,1.5 -7.21,1.96 -9.94,4.65 -0.55,0.55 -1.42,3 -1.86,3l-0.08 -9.84 0.07 -0.02z"/>
  <path class="fil15" d="M175.56 92.22c3.03,-1.12 6.15,-2.98 9.31,-3.24 3.82,-0.31 7.21,1.6 10.47,-1.31 2.1,-1.88 3.39,-6.58 5.18,-7.34 2.58,-1.09 7.39,0.94 10.93,-1.48l-4.03 0.32 0.29 -0.66 0.02 0.26 -6.17 0.65 -0.04 -0.17 0.27 -0.97 -0.17 0.22 -1.65 -0.96 -0.03 -0.37 -7.27 9.82 2.92 -7.89 0.08 0.18 -15.28 8.91 -0.58 -0.94 10.08 -8.81 -0.29 -0.34 -7.94 4.9 -0.33 -0.16 2.53 -5.65 0.1 0.05c-3.33,1.43 -6.7,6.13 -10.77,6.77 -5.2,0.82 -10.79,0.88 -16.04,1.51l-0.03 0.28 10.27 1.06 0.23 0.39 -7.32 8.02 -0.03 -0.05 7.38 -3.23 0.49 0.32 -12.91 21.63 -0.74 -0.44c3.69,-1.28 6.9,-3.24 8.48,-6.88 1.48,-3.45 2.99,-7.39 4.68,-10.69 0.08,0.14 -1.86,8.16 -2.1,9 -0.83,2.82 -1.81,5.29 -3.26,7.86 -2.61,4.59 -5.67,9.49 -8.02,14.15 2.07,0.97 2.83,-0.63 3.75,-2.25 0.84,-1.49 1.66,-2.76 2.56,-4.2 1.74,-2.77 3.49,-5.51 5.27,-8.26 3.11,-4.83 3.08,-4.54 2.78,-10.52 -0.15,-2.86 -1.06,-9.82 1.63,-11.59 0.8,0.96 1.14,12.66 1.39,14.97 0.09,0.87 0.73,2.96 -0.38,3.24 -0.79,0.19 -2.51,0.64 -2.39,1.7 0.19,1.76 2.26,1.04 2.65,1.47 0.62,0.67 0.71,2.26 1.03,3.08l0.06 0.01 1.24 -7.87 -0.6 -0.1c2.09,0.16 1.54,-1.51 1.5,-3.14 -0.07,-3.12 -0.05,-6.28 -0.14,-9.39 -0.08,-2.79 1.88,-2.73 1.93,-2.59l-0.99 0.72z"/>
  <path class="fil16" d="M146.59 127.28l-0.07 0.02 0.08 9.84c0.44,0 1.31,-2.45 1.86,-3 2.73,-2.69 6.69,-3.15 9.94,-4.65 3.3,-1.52 9.97,-6.23 13.08,-6.35 -0.64,-1.23 -3.02,-0.12 -3.96,0.23 -2.95,1.12 -2.17,-0.22 -1.89,-2.05 0.19,-1.2 -0.4,-0.34 -1.02,0.14 -0.49,0.38 -1.04,0.75 -1.55,1.12 -1.04,0.76 -2.06,1.53 -3.13,2.23 -2.14,1.39 -4.23,3 -6.47,4.2 -3.61,1.94 -4.65,1.21 -6.87,-1.73z"/>
  <path class="fil17" d="M170.61 125.29c-1.79,1.37 -1.06,6.12 -1.05,8.35 0.02,6.3 0,12.62 0,18.93 0,1.13 -0.46,8.55 0.68,8.52 1.53,-0.05 0.81,-16.05 0.81,-17.96 0,-3.16 0,-6.32 -0.01,-9.48 0,-2.73 0.93,-6.06 -0.43,-8.36z"/>
  <path class="fil18" d="M166.54 128.97c-0.19,5.88 0.04,12.23 0.04,18.16 0,3.03 -0.02,6.06 0.03,9.09 0.01,1.25 -0.39,3.4 0.15,4.47 0.85,1.65 1.34,-1.36 1.34,-1.97 -0.06,-6.06 -0.14,-12.12 -0.14,-18.19 0,-2.93 -0.04,-5.98 0.18,-8.9 0.1,-1.21 0.49,-3.14 -0.1,-4.22 -0.9,-1.68 -1.48,0.76 -1.5,1.56z"/>
  <path class="fil19" d="M165.29 131.54c0.4,-3.42 -2.04,-4.77 -1.75,0.74 0.15,2.66 -0.02,5.86 -0.02,8.59 -0.01,5.31 0.37,12.1 -0.01,17.22 -0.3,4.02 1.74,4.52 1.48,-0.94 -0.13,-2.69 0.03,-5.87 0.03,-8.61 0,-5.36 -0.34,-11.77 0.27,-17z"/>
  <path class="fil20" d="M159.22 134.33c0.03,-0.7 -0.35,-2.81 -1.33,-1.76 -0.67,0.72 -0.36,2.62 -0.37,3.56 -0.01,2.55 -0.05,5.11 -0.05,7.66 0,5.07 0.18,10.38 -0.05,15.41 -0.03,0.69 0.39,3.02 1.29,1.71 0.63,-0.93 0.2,-2.66 0.22,-3.75 0.05,-2.56 0.04,-5.12 0.04,-7.68 0,-5.16 0.03,-10 0.25,-15.15z"/>
  <path class="fil21" d="M161.7 135.01l-1.16 0.14 0 0.75c-0.01,5.68 -0.06,11.31 -0.04,17 0.01,2.21 -0.31,7.81 0.52,8.23 1.54,0.78 1,-5.6 1,-6.3l0.18 -15.76 -0.5 -4.06z"/>
  <path class="fil22" d="M154.61 157.51c0,0.95 -0.43,2.75 0.15,3.5 0.83,1.08 1.31,-1.07 1.3,-1.69 -0.07,-4.9 -0.06,-9.81 -0.09,-14.72 -0.02,-2.47 0.01,-4.69 0.19,-7.16 0.32,-4.59 -1.7,-4.58 -1.69,-1.9l0.14 21.97z"/>
  <path class="fil23" d="M153.21 137.75c0.36,-3.53 -2.01,-3.82 -1.73,-0.25 0.17,2.13 0.01,4.81 0.01,7.01 -0.01,4.35 0.27,9.8 -0.01,14 -0.25,3.87 1.74,3.54 1.51,-0.04 -0.13,-2.09 0.05,-4.79 0.04,-6.97 -0.02,-4.54 -0.28,-9.26 0.18,-13.75z"/>
  <path class="fil24" d="M150.14 138.33c0.28,-2.8 -1.96,-3.5 -1.66,0.53 0.15,1.99 0,4.66 0,6.73 0,4.07 0.31,9.57 -0.04,13.47 -0.25,2.78 1.63,3.51 1.51,-0.82 -0.07,-2.16 0.03,-4.51 0,-6.71 -0.04,-4.24 -0.21,-9.01 0.19,-13.2z"/>
  <path class="fil25" d="M41.83 26.43c0.31,0.1 0.6,0.23 0.89,0.4 6.18,6.77 16.52,1.94 21.04,4.71 10.71,5.45 17.53,-5.44 25.1,-0.28 1.05,0.92 3.84,0.77 4.7,1.42 5.74,4.32 9.39,1.55 15.24,-0.87 1.93,-0.8 10,-1.06 11.81,-0.55 2.31,0.64 6.64,-2.49 9.32,-1.57 4.43,1.48 7.47,-4.62 14.21,-3.41 4.99,4.52 12,3.04 12.65,4.42 6.62,3.56 8.95,-0.82 11.81,-4.05 1.47,-0.47 1.26,1.49 5.72,1.84 1.35,0.1 3.97,-2.21 5.91,-2.22 3.54,-0.01 6.61,0.45 9.11,0.66 4.22,3.54 8.19,7.38 11.86,11.49 -13.14,1.3 -28.32,2.61 -40.72,3.92 -28.24,0.09 -56.48,0.18 -84.72,0.28 -13.18,0.3 -26.35,0.61 -39.53,0.91l-9.61 -1.92c4.59,-5.52 9.68,-10.6 15.21,-15.18z"/>
  <g id="_0">
   <path class="fil26" style="mask:url(#id0)" d="M32.38 35.19c0.85,-0.13 1.71,-0.28 2.46,-0.37 1.56,-0.2 2.63,-0.18 3.86,0.32 1.22,0.5 2.6,1.47 3.78,2.11 1.18,0.63 2.18,0.93 3.21,1.15 1.03,0.23 2.1,0.38 3.21,-0.2 1.11,-0.57 2.26,-1.86 3.27,-2.77 1.02,-0.91 1.91,-1.44 3.11,-1.37 1.2,0.06 2.7,0.71 4.7,1.52 2,0.81 4.5,1.78 6.02,2.35 1.51,0.57 2.05,0.75 3.03,0.87 0.98,0.13 2.4,0.2 3.51,0.08 1.11,-0.13 1.9,-0.45 3.62,-1.02 1.72,-0.58 4.37,-1.4 6.17,-1.85 1.79,-0.45 2.73,-0.52 4.28,-0.33 1.54,0.18 3.68,0.63 5.46,1.29 3.05,1.13 5.76,0.93 8.14,1.5 1.41,0.33 3.2,0.68 6.25,0.63 3.06,-0.05 7.39,-0.5 10.27,-1.11 2.87,-0.6 4.29,0.54 5.87,-0.23 1.58,-0.78 3.31,-1.59 4.62,-1.85 1.31,-0.27 2.19,0.01 3.38,0.32 1.19,0.3 2.7,0.64 4.25,1.19 1.55,0.56 3.14,1.34 4.25,1.02 1.11,-0.32 1.73,-1.74 2.48,-2.85 0.76,-1.11 1.64,-1.92 2.38,-2.42 0.73,-0.5 1.33,-0.69 2.38,-0.37 1.05,0.32 2.56,1.15 4.28,1.84 1.72,0.7 3.65,1.25 5.07,1.57 1.42,0.32 2.33,0.41 3.61,0.3 1.28,-0.12 2.93,-0.42 4.11,-0.42 1.18,0 1.89,0.3 2.8,0.55 0.91,0.25 2.01,0.45 2.8,0.35 0.78,-0.1 1.23,-0.48 1.98,-0.54 0.76,-0.06 1.81,0.22 3.02,-0.04 1.2,-0.27 2.57,-1.07 3.78,-1.82 1.2,-0.75 2.26,-1.45 3.19,-1.52 0.94,-0.07 1.77,0.49 2.49,0.45 0.72,-0.04 1.35,-0.68 2.09,-0.93 0.74,-0.25 1.59,-0.11 2.48,-0.13 0.9,-0.01 1.84,-0.18 2.73,-0.34 0.9,-0.17 1.75,-0.34 2.73,-0.17 0.65,0.11 1.36,0.37 1.99,0.53 3.73,3.61 7.21,7.46 10.42,11.53 -0.17,0 -0.34,0 -0.5,0 -3,0 -6.33,0.14 -9.17,0.21 -2.84,0.07 -5.2,0.07 -7.04,0.18 -1.85,0.11 -3.19,0.33 -4.79,0.62 -1.61,0.29 -3.48,0.66 -5.06,0.84 -1.58,0.18 -2.86,0.18 -3.89,0.43 -1.04,0.25 -1.84,0.75 -3.39,1.08 -1.54,0.33 -3.85,0.5 -5.22,0.67 -1.38,0.16 -1.84,0.33 -2.82,0.64 -0.98,0.3 -2.48,0.75 -4.46,0.98 -1.97,0.24 -4.42,0.27 -6.21,0.52 -1.79,0.25 -2.92,0.72 -3.86,1.31 -0.94,0.59 -1.68,1.29 -3.19,1.93 -1.51,0.64 -3.78,1.21 -7.66,1.78 -3.89,0.57 -9.38,1.13 -17.38,1.58 -8,0.45 -18.49,0.8 -29.19,0.67 -10.7,-0.14 -21.61,-0.76 -33.26,-1.82 -11.65,-1.06 -24.04,-2.54 -37.93,-3.64 -0.62,-0.05 -1.24,-0.1 -1.87,-0.15 3.94,-5.96 8.42,-11.54 13.36,-16.65z"/>
  </g>
 </g>
</svg>
