<?xml version="1.0" encoding="UTF-8"?>
<!DOCTYPE svg PUBLIC "-//W3C//DTD SVG 1.1//EN" "http://www.w3.org/Graphics/SVG/1.1/DTD/svg11.dtd">
<!-- Creator: CorelDRAW -->
<svg xmlns="http://www.w3.org/2000/svg" xml:space="preserve" width="1000px" height="1000px" version="1.1" style="shape-rendering:geometricPrecision; text-rendering:geometricPrecision; image-rendering:optimizeQuality; fill-rule:evenodd; clip-rule:evenodd"
viewBox="0 0 1062.21 1062.21"
 xmlns:xlink="http://www.w3.org/1999/xlink"
 xmlns:xodm="http://www.corel.com/coreldraw/odm/2003">
 <defs>
  <style type="text/css">
   <![CDATA[
    .fil26 {fill:url(#id0)}
    .fil0 {fill:url(#id1);fill-rule:nonzero}
    .fil1 {fill:url(#id2);fill-rule:nonzero}
    .fil23 {fill:url(#id3);fill-rule:nonzero}
    .fil9 {fill:url(#id4);fill-rule:nonzero}
    .fil30 {fill:url(#id5);fill-rule:nonzero}
    .fil25 {fill:url(#id6);fill-rule:nonzero}
    .fil14 {fill:url(#id7);fill-rule:nonzero}
    .fil18 {fill:url(#id8);fill-rule:nonzero}
    .fil15 {fill:url(#id9);fill-rule:nonzero}
    .fil29 {fill:url(#id10);fill-rule:nonzero}
    .fil19 {fill:url(#id11);fill-rule:nonzero}
    .fil20 {fill:url(#id12);fill-rule:nonzero}
    .fil17 {fill:url(#id13);fill-rule:nonzero}
    .fil28 {fill:url(#id14);fill-rule:nonzero}
    .fil24 {fill:url(#id15);fill-rule:nonzero}
    .fil6 {fill:url(#id16);fill-rule:nonzero}
    .fil12 {fill:url(#id17);fill-rule:nonzero}
    .fil16 {fill:url(#id18);fill-rule:nonzero}
    .fil5 {fill:url(#id19);fill-rule:nonzero}
    .fil27 {fill:url(#id20);fill-rule:nonzero}
    .fil10 {fill:url(#id21);fill-rule:nonzero}
    .fil11 {fill:url(#id22);fill-rule:nonzero}
    .fil13 {fill:url(#id23);fill-rule:nonzero}
    .fil8 {fill:url(#id24);fill-rule:nonzero}
    .fil22 {fill:url(#id25);fill-rule:nonzero}
    .fil7 {fill:url(#id26);fill-rule:nonzero}
    .fil21 {fill:url(#id27);fill-rule:nonzero}
    .fil4 {fill:url(#id28);fill-rule:nonzero}
    .fil3 {fill:url(#id29);fill-rule:nonzero}
    .fil2 {fill:url(#id30);fill-rule:nonzero}
   ]]>
  </style>
  <linearGradient id="id0" gradientUnits="userSpaceOnUse" x1="546.46" y1="251.53" x2="540.5" y2="92.15">
   <stop offset="0" style="stop-opacity:1; stop-color:#A9CD9C"/>
   <stop offset="1" style="stop-opacity:0.298039; stop-color:#A9C897"/>
  </linearGradient>
  <linearGradient id="id1" gradientUnits="userSpaceOnUse" x1="531.11" y1="186.77" x2="531.11" y2="0">
   <stop offset="0" style="stop-opacity:1; stop-color:#E9F7BE"/>
   <stop offset="0.309804" style="stop-opacity:1; stop-color:#DEE68F"/>
   <stop offset="1" style="stop-opacity:1; stop-color:#75C5D0"/>
  </linearGradient>
  <radialGradient id="id2" gradientUnits="userSpaceOnUse" gradientTransform="matrix(-5.51079E-001 -1.30923E+000 1.30923 -5.51079E-001 -32 1675)" cx="520.22" cy="641.07" r="530.84" fx="520.22" fy="641.07">
   <stop offset="0" style="stop-opacity:1; stop-color:#51BBBA"/>
   <stop offset="1" style="stop-opacity:1; stop-color:#34B0A9"/>
  </radialGradient>
  <linearGradient id="id3" gradientUnits="userSpaceOnUse" x1="909.64" y1="585.97" x2="293.22" y2="208.25">
   <stop offset="0" style="stop-opacity:1; stop-color:#BDBCAC"/>
   <stop offset="1" style="stop-opacity:1; stop-color:#C9C8B9"/>
  </linearGradient>
  <linearGradient id="id4" gradientUnits="userSpaceOnUse" x1="543.71" y1="641.34" x2="385.98" y2="230.66">
   <stop offset="0" style="stop-opacity:1; stop-color:#2F7054"/>
   <stop offset="1" style="stop-opacity:1; stop-color:#378261"/>
  </linearGradient>
  <linearGradient id="id5" gradientUnits="userSpaceOnUse" x1="122.51" y1="177.65" x2="119.18" y2="388.38">
   <stop offset="0" style="stop-opacity:1; stop-color:#769178"/>
   <stop offset="1" style="stop-opacity:1; stop-color:#4F6155"/>
  </linearGradient>
  <linearGradient id="id6" gradientUnits="userSpaceOnUse" xlink:href="#id3" x1="909.64" y1="585.97" x2="293.22" y2="208.25">
  </linearGradient>
  <linearGradient id="id7" gradientUnits="userSpaceOnUse" x1="668.7" y1="1306.69" x2="443.58" y2="595.41">
   <stop offset="0" style="stop-opacity:1; stop-color:#416950"/>
   <stop offset="1" style="stop-opacity:1; stop-color:#4D8061"/>
  </linearGradient>
  <linearGradient id="id8" gradientUnits="userSpaceOnUse" xlink:href="#id3" x1="909.64" y1="585.97" x2="293.22" y2="208.25">
  </linearGradient>
  <linearGradient id="id9" gradientUnits="userSpaceOnUse" x1="881.85" y1="647.64" x2="304.72" y2="302.36">
   <stop offset="0" style="stop-opacity:1; stop-color:#E0E0D3"/>
   <stop offset="1" style="stop-opacity:1; stop-color:#E0E0D9"/>
  </linearGradient>
  <linearGradient id="id10" gradientUnits="userSpaceOnUse" x1="371.04" y1="139.26" x2="375.7" y2="336.45">
   <stop offset="0" style="stop-opacity:1; stop-color:#A8C7A7"/>
   <stop offset="1" style="stop-opacity:1; stop-color:#3B5C4B"/>
  </linearGradient>
  <linearGradient id="id11" gradientUnits="userSpaceOnUse" xlink:href="#id3" x1="909.64" y1="585.97" x2="293.22" y2="208.25">
  </linearGradient>
  <linearGradient id="id12" gradientUnits="userSpaceOnUse" xlink:href="#id3" x1="909.64" y1="585.97" x2="293.22" y2="208.25">
  </linearGradient>
  <linearGradient id="id13" gradientUnits="userSpaceOnUse" xlink:href="#id3" x1="909.64" y1="585.97" x2="293.22" y2="208.25">
  </linearGradient>
  <linearGradient id="id14" gradientUnits="userSpaceOnUse" x1="206.68" y1="185.11" x2="208.73" y2="337.51">
   <stop offset="0" style="stop-opacity:1; stop-color:#91AD80"/>
   <stop offset="1" style="stop-opacity:1; stop-color:#748C66"/>
  </linearGradient>
  <linearGradient id="id15" gradientUnits="userSpaceOnUse" xlink:href="#id3" x1="909.64" y1="585.97" x2="293.22" y2="208.25">
  </linearGradient>
  <linearGradient id="id16" gradientUnits="userSpaceOnUse" x1="972.31" y1="694.63" x2="855.76" y2="304.63">
   <stop offset="0" style="stop-opacity:1; stop-color:#226248"/>
   <stop offset="1" style="stop-opacity:1; stop-color:#4C8B6C"/>
  </linearGradient>
  <linearGradient id="id17" gradientUnits="userSpaceOnUse" x1="303.08" y1="1076.69" x2="265.66" y2="789.09">
   <stop offset="0" style="stop-opacity:1; stop-color:#487458"/>
   <stop offset="1" style="stop-opacity:1; stop-color:#437859"/>
  </linearGradient>
  <linearGradient id="id18" gradientUnits="userSpaceOnUse" xlink:href="#id3" x1="909.64" y1="585.97" x2="293.22" y2="208.25">
  </linearGradient>
  <linearGradient id="id19" gradientUnits="userSpaceOnUse" x1="988.4" y1="844.98" x2="116.44" y2="502.75">
   <stop offset="0" style="stop-opacity:1; stop-color:#748C66"/>
   <stop offset="1" style="stop-opacity:1; stop-color:#91AD80"/>
  </linearGradient>
  <linearGradient id="id20" gradientUnits="userSpaceOnUse" x1="534.35" y1="56.35" x2="530.95" y2="428.77">
   <stop offset="0" style="stop-opacity:1; stop-color:#AED7AC"/>
   <stop offset="0.721569" style="stop-opacity:1; stop-color:#A4BA82"/>
   <stop offset="1" style="stop-opacity:1; stop-color:#98D0BA"/>
  </linearGradient>
  <linearGradient id="id21" gradientUnits="userSpaceOnUse" x1="348.76" y1="607.27" x2="481.64" y2="372.23">
   <stop offset="0" style="stop-opacity:1; stop-color:#49785C"/>
   <stop offset="1" style="stop-opacity:1; stop-color:#5C9672"/>
  </linearGradient>
  <linearGradient id="id22" gradientUnits="userSpaceOnUse" x1="140.61" y1="1011.72" x2="47.99" y2="683.01">
   <stop offset="0" style="stop-opacity:1; stop-color:#2D634B"/>
   <stop offset="1" style="stop-opacity:1; stop-color:#2D634B"/>
  </linearGradient>
  <linearGradient id="id23" gradientUnits="userSpaceOnUse" x1="844.71" y1="1235.26" x2="576.87" y2="447.05">
   <stop offset="0" style="stop-opacity:1; stop-color:#22543F"/>
   <stop offset="1" style="stop-opacity:1; stop-color:#327356"/>
  </linearGradient>
  <linearGradient id="id24" gradientUnits="userSpaceOnUse" x1="380.61" y1="492.73" x2="391.6" y2="333.87">
   <stop offset="0" style="stop-opacity:1; stop-color:#265739"/>
   <stop offset="1" style="stop-opacity:1; stop-color:#367D5E"/>
  </linearGradient>
  <linearGradient id="id25" gradientUnits="userSpaceOnUse" xlink:href="#id3" x1="909.64" y1="585.97" x2="293.22" y2="208.25">
  </linearGradient>
  <linearGradient id="id26" gradientUnits="userSpaceOnUse" x1="1123.17" y1="808.42" x2="933.56" y2="424.1">
   <stop offset="0" style="stop-opacity:1; stop-color:#4B7357"/>
   <stop offset="1" style="stop-opacity:1; stop-color:#568A6A"/>
  </linearGradient>
  <linearGradient id="id27" gradientUnits="userSpaceOnUse" xlink:href="#id3" x1="909.64" y1="585.97" x2="293.22" y2="208.25">
  </linearGradient>
  <linearGradient id="id28" gradientUnits="userSpaceOnUse" x1="652.45" y1="748.51" x2="-104.55" y2="619.91">
   <stop offset="0" style="stop-opacity:1; stop-color:#FAE7BB"/>
   <stop offset="0.588235" style="stop-opacity:1; stop-color:#ADD2BB"/>
   <stop offset="1" style="stop-opacity:1; stop-color:#60BDBA"/>
  </linearGradient>
  <linearGradient id="id29" gradientUnits="userSpaceOnUse" x1="1118.07" y1="805.02" x2="-130.83" y2="619.91">
   <stop offset="0" style="stop-opacity:1; stop-color:#96D7D6"/>
   <stop offset="0.501961" style="stop-opacity:1; stop-color:#97D7D7"/>
   <stop offset="1" style="stop-opacity:1; stop-color:#40B5B0"/>
  </linearGradient>
  <linearGradient id="id30" gradientUnits="userSpaceOnUse" x1="538.81" y1="730.77" x2="-176.06" y2="590.33">
   <stop offset="0" style="stop-opacity:1; stop-color:#6EC4C4"/>
   <stop offset="1" style="stop-opacity:1; stop-color:#3FB4AF"/>
  </linearGradient>
 </defs>
 <g id="Layer_x0020_1">
  <metadata id="CorelCorpID_0Corel-Layer"/>
  <g id="_30078930368">
   <circle class="fil0" cx="531.11" cy="531.11" r="531.11"/>
   <path class="fil1" d="M87.56 238.94c-55.33,83.82 -87.56,184.22 -87.56,292.17 0,293.32 237.78,531.1 531.11,531.1 274.77,0 500.81,-208.67 528.29,-476.18 1.48,-16.35 2.27,-32.89 2.27,-49.62 0,-125.51 -42.52,-241.07 -113.9,-333.13 -6.82,-0.33 -14.21,-0.55 -22.11,-0.55 -13.5,0 -28.48,0.64 -41.28,0.97 -12.8,0.32 -23.42,0.32 -31.75,0.83 -8.31,0.51 -14.33,1.53 -21.56,2.88 -7.24,1.34 -15.69,3.01 -22.79,3.84 -7.1,0.83 -12.86,0.83 -17.54,1.98 -4.67,1.15 -8.25,3.46 -15.23,4.99 -6.98,1.54 -17.35,2.31 -23.55,3.08 -6.21,0.76 -8.26,1.53 -12.68,2.94 -4.41,1.41 -11.2,3.46 -20.09,4.54 -8.9,1.09 -19.91,1.22 -27.97,2.37 -8.07,1.16 -13.19,3.33 -17.42,6.04 -4.23,2.71 -7.57,5.96 -14.35,8.9 -6.79,2.95 -17.02,5.59 -34.51,8.2 -17.5,2.61 -42.26,5.19 -78.29,7.28 -36.02,2.09 -83.31,3.7 -131.51,3.07 -48.2,-0.63 -97.32,-3.5 -149.8,-8.36 -52.48,-4.87 -108.32,-11.73 -170.86,-16.79 -2.3,-0.19 -4.6,-0.37 -6.92,-0.55z"/>
   <path class="fil2" d="M225.16 625.2c29.03,-3.41 50.28,16.99 61.34,22.94 5.52,3.41 36.56,6.81 39.96,12.33 14.98,24.35 -56.45,42.66 -78.57,50.92 -127.6,40.87 -90.99,39.43 -199.86,40.68 83.85,183.01 268.61,310.14 483.08,310.14 276.02,0 502.83,-210.57 528.63,-479.83l-146.55 19.51c-72.85,4.15 -59.51,19.33 -140.74,0.12l-134.41 -26.72c-39.3,-6.23 -78.59,-42.95 -117.88,-49.18 -69.22,-8.85 -176.61,-25.55 -245.83,-34.4 -41.43,3.78 -197.71,29.84 -273.93,59.15 0.69,18.83 2.36,37.41 4.96,55.69 42.43,10.01 192.7,26.59 219.8,18.65z"/>
   <path class="fil3" d="M131.44 606.15c24.93,-2.29 35.3,5.31 60.24,3.02 16.33,-3.82 32.65,-7.63 48.98,-11.44 47.25,0.85 33.51,30.01 64.79,35.78 30.36,6.13 150.32,-6.28 63.9,30.38 -15.69,8.76 -15.29,28.38 -50.65,41.58 -145.22,46.5 -77.71,76.49 -254.08,79.73l0.04 0.06c1.56,2.85 3.15,5.69 4.76,8.52 0.83,1.45 1.67,2.89 2.51,4.33 1.07,1.84 2.16,3.68 3.26,5.51 0.81,1.37 1.62,2.73 2.45,4.09 1.7,2.78 3.43,5.55 5.18,8.3 0.87,1.37 1.76,2.72 2.65,4.09 1.15,1.78 2.32,3.55 3.5,5.32 0.91,1.36 1.81,2.72 2.74,4.08 1.83,2.69 3.68,5.37 5.56,8.03 0.89,1.26 1.8,2.5 2.7,3.75 1.28,1.77 2.56,3.52 3.85,5.27 0.97,1.32 1.95,2.64 2.93,3.95 1.72,2.27 3.45,4.52 5.19,6.77 1.13,1.45 2.28,2.89 3.42,4.32 1.43,1.79 2.85,3.57 4.3,5.34 1.03,1.26 2.07,2.52 3.12,3.78 1.6,1.93 3.23,3.85 4.86,5.76 1.23,1.43 2.46,2.85 3.7,4.27 1.71,1.95 3.42,3.88 5.16,5.81 1.06,1.18 2.13,2.35 3.2,3.52 1.61,1.75 3.23,3.49 4.86,5.22 0.99,1.04 1.97,2.1 2.96,3.13 2.23,2.33 4.48,4.63 6.74,6.91 1.07,1.07 2.15,2.14 3.22,3.2 1.68,1.66 3.36,3.31 5.06,4.94 0.99,0.96 1.97,1.92 2.97,2.86 2.44,2.32 4.9,4.61 7.38,6.88 1.06,0.97 2.14,1.93 3.2,2.89 1.78,1.59 3.57,3.18 5.37,4.75 1.05,0.92 2.09,1.85 3.15,2.76 2.58,2.22 5.17,4.42 7.79,6.59 1.01,0.83 2.02,1.65 3.03,2.47 1.92,1.57 3.84,3.12 5.78,4.65 1.1,0.88 2.21,1.76 3.33,2.63 2.7,2.12 5.42,4.21 8.17,6.27 0.89,0.67 1.8,1.33 2.7,1.99 2.13,1.58 4.28,3.15 6.43,4.69 1.11,0.8 2.23,1.6 3.35,2.39 2.58,1.82 5.18,3.63 7.8,5.41 0.93,0.63 1.87,1.26 2.8,1.88 2.46,1.65 4.94,3.28 7.43,4.89 1.11,0.72 2.23,1.43 3.35,2.15 2.47,1.57 4.95,3.11 7.44,4.64 0.71,0.44 1.41,0.88 2.12,1.31 3.05,1.85 6.12,3.66 9.21,5.45 1.09,0.63 2.19,1.25 3.29,1.88 2.46,1.4 4.94,2.79 7.43,4.15 0.85,0.47 1.69,0.94 2.54,1.4 3.17,1.72 6.37,3.4 9.58,5.06 1.03,0.53 2.07,1.05 3.1,1.57 2.52,1.28 5.05,2.54 7.6,3.78 0.96,0.47 1.92,0.94 2.88,1.4 3.28,1.58 6.58,3.12 9.89,4.62 0.95,0.43 1.9,0.85 2.85,1.27 2.63,1.18 5.28,2.34 7.93,3.48 1.04,0.44 2.07,0.89 3.11,1.32 3.4,1.43 6.81,2.83 10.24,4.19 0.77,0.3 1.54,0.59 2.31,0.89 2.85,1.11 5.72,2.2 8.6,3.27 1.06,0.39 2.12,0.79 3.19,1.17 3.52,1.28 7.05,2.53 10.61,3.74 0.47,0.16 0.95,0.31 1.43,0.47 3.2,1.08 6.41,2.11 9.63,3.13 1.07,0.33 2.13,0.67 3.2,0.99 3.35,1.04 6.71,2.04 10.1,3.01 0.35,0.1 0.7,0.21 1.05,0.31 3.66,1.03 7.34,2.02 11.04,2.98 1.06,0.28 2.13,0.55 3.19,0.82 3.16,0.8 6.33,1.58 9.5,2.32 0.67,0.16 1.34,0.32 2.01,0.48 3.74,0.86 7.5,1.67 11.27,2.45 0.99,0.2 1.99,0.4 2.98,0.6 3.13,0.63 6.28,1.23 9.43,1.81 0.84,0.15 1.67,0.31 2.51,0.46 3.81,0.68 7.64,1.31 11.48,1.9 0.91,0.14 1.84,0.27 2.75,0.41 3.18,0.48 6.37,0.92 9.57,1.34 0.94,0.12 1.88,0.25 2.83,0.37 3.89,0.49 7.8,0.94 11.73,1.34 0.75,0.08 1.5,0.14 2.25,0.22 3.32,0.32 6.65,0.62 9.98,0.88 1.04,0.08 2.07,0.17 3.11,0.25 3.96,0.29 7.93,0.54 11.91,0.75 0.52,0.03 1.03,0.04 1.55,0.07 3.55,0.17 7.11,0.3 10.68,0.4 1.09,0.04 2.17,0.06 3.26,0.09 4.05,0.1 8.1,0.15 12.18,0.15 4.35,0 8.7,-0.06 13.03,-0.16 0.32,-0.01 0.64,-0.01 0.96,-0.02 4.14,-0.11 8.26,-0.27 12.38,-0.47 0.49,-0.03 0.98,-0.05 1.48,-0.07 3.99,-0.21 7.97,-0.46 11.94,-0.76 0.61,-0.04 1.21,-0.09 1.81,-0.13 3.91,-0.31 7.8,-0.65 11.68,-1.04 0.64,-0.06 1.28,-0.13 1.92,-0.19 3.84,-0.4 7.68,-0.84 11.5,-1.32l2 -0.25c3.81,-0.5 7.62,-1.03 11.41,-1.6 0.62,-0.09 1.24,-0.19 1.87,-0.29 3.82,-0.59 7.64,-1.22 11.44,-1.89 0.56,-0.1 1.11,-0.21 1.67,-0.31 3.87,-0.7 7.73,-1.43 11.57,-2.22 0.42,-0.08 0.83,-0.17 1.25,-0.26 3.9,-0.8 7.78,-1.65 11.65,-2.54l0.87 -0.2c3.78,-0.87 7.54,-1.8 11.29,-2.75 0.48,-0.12 0.95,-0.24 1.42,-0.36 3.67,-0.95 7.31,-1.94 10.95,-2.96 0.67,-0.19 1.34,-0.37 2.01,-0.56 3.5,-1 6.99,-2.05 10.46,-3.12 0.77,-0.23 1.54,-0.47 2.3,-0.71 3.41,-1.06 6.8,-2.17 10.17,-3.3 0.81,-0.27 1.63,-0.55 2.45,-0.82 3.31,-1.13 6.61,-2.3 9.89,-3.49 0.86,-0.31 1.72,-0.63 2.59,-0.95 3.25,-1.2 6.48,-2.43 9.71,-3.69 0.86,-0.34 1.72,-0.68 2.58,-1.02 3.19,-1.28 6.38,-2.57 9.55,-3.91 0.86,-0.36 1.71,-0.73 2.56,-1.09 3.19,-1.36 6.37,-2.74 9.52,-4.16 0.76,-0.35 1.52,-0.7 2.28,-1.05 2.92,-1.33 5.84,-2.69 8.74,-4.08 0.95,-0.45 1.89,-0.91 2.84,-1.37 2.8,-1.36 5.59,-2.75 8.36,-4.16 0.88,-0.44 1.76,-0.88 2.64,-1.34 2.87,-1.47 5.73,-2.99 8.57,-4.52 0.94,-0.5 1.88,-1 2.81,-1.51 2.82,-1.54 5.61,-3.11 8.4,-4.7 1.03,-0.58 2.05,-1.16 3.07,-1.75 2.7,-1.57 5.38,-3.16 8.05,-4.76 1.08,-0.65 2.16,-1.3 3.23,-1.96 2.61,-1.6 5.21,-3.22 7.8,-4.87 1.1,-0.7 2.21,-1.41 3.31,-2.12 2.53,-1.64 5.04,-3.29 7.54,-4.97 1.12,-0.75 2.23,-1.51 3.34,-2.26 2.48,-1.69 4.95,-3.4 7.4,-5.13 1.09,-0.77 2.17,-1.55 3.26,-2.33 2.18,-1.58 4.36,-3.16 6.52,-4.77 1.31,-0.96 2.61,-1.94 3.91,-2.92 1.93,-1.47 3.86,-2.94 5.77,-4.43 1.47,-1.14 2.93,-2.29 4.38,-3.45 1.84,-1.45 3.66,-2.92 5.47,-4.4 1.45,-1.18 2.9,-2.37 4.33,-3.57 1.84,-1.54 3.67,-3.08 5.49,-4.64 1.23,-1.06 2.46,-2.11 3.69,-3.18 2,-1.75 3.99,-3.52 5.97,-5.3 1.13,-1.02 2.26,-2.03 3.38,-3.05 2.07,-1.9 4.12,-3.82 6.16,-5.74 1.12,-1.06 2.24,-2.12 3.35,-3.19 2.01,-1.93 3.99,-3.87 5.97,-5.83 1.11,-1.1 2.22,-2.21 3.32,-3.32 1.96,-1.98 3.91,-3.97 5.84,-5.98 1.07,-1.11 2.13,-2.23 3.19,-3.36 1.92,-2.03 3.83,-4.07 5.71,-6.14 16.75,-19.62 33.32,-40.45 49.05,-62.34 52.32,-77.79 84.59,-170.19 89.43,-269.8l-162.59 21.65c-72.85,4.15 -59.51,19.33 -140.74,0.12l-134.42 -26.72c-39.29,-6.23 -78.58,-42.95 -117.88,-49.18 -69.21,-8.85 -125.59,-12.8 -194.8,-21.65 -73.73,6.74 -477.32,84.04 -179.69,124.62zm785.93 289.44c1.92,-2.03 3.83,-4.07 5.71,-6.14l0 0"/>
   <path class="fil4" d="M166.37 593.15c40.93,5.4 38.95,2.2 82.69,-8.01 47.25,0.85 27.01,31.11 68.63,37.53 34.83,2.62 194.7,-2.82 75.78,46.19 -15.69,8.77 -18.08,45.79 -70.92,51.65 -89.89,27.27 -62.54,76.53 -241.15,74.47 -5.31,-0.06 -8.52,-1.43 -12.73,-2.49 1.56,2.86 -0.86,-1.54 0.75,1.29 0.83,1.45 1.67,2.89 2.51,4.33 1.07,1.84 2.16,3.68 3.26,5.51 0.81,1.37 1.62,2.73 2.45,4.09 1.7,2.78 3.43,5.55 5.18,8.3 0.87,1.37 1.76,2.72 2.65,4.09 1.15,1.78 2.32,3.55 3.5,5.32 0.91,1.36 1.81,2.72 2.74,4.08 1.83,2.69 3.68,5.37 5.56,8.03 0.89,1.26 1.8,2.5 2.7,3.75 1.28,1.77 2.56,3.52 3.85,5.27 0.97,1.32 1.95,2.64 2.93,3.95 1.72,2.27 3.45,4.52 5.19,6.77 1.13,1.45 2.28,2.89 3.42,4.32 1.43,1.79 2.85,3.57 4.3,5.34 1.03,1.26 2.07,2.52 3.12,3.78 1.6,1.93 3.23,3.85 4.86,5.76 1.23,1.43 2.46,2.85 3.7,4.27 1.71,1.95 3.42,3.88 5.16,5.81 1.06,1.18 2.13,2.35 3.2,3.52 1.61,1.75 3.23,3.49 4.86,5.22 0.99,1.04 1.97,2.1 2.96,3.13 2.23,2.33 4.48,4.63 6.74,6.91 1.07,1.07 2.15,2.14 3.22,3.2 1.68,1.66 3.36,3.31 5.06,4.94 0.99,0.96 1.97,1.92 2.97,2.86 2.44,2.32 4.9,4.61 7.38,6.88 1.06,0.97 2.14,1.93 3.2,2.89 1.78,1.59 3.57,3.18 5.37,4.75 1.05,0.92 2.09,1.85 3.15,2.76 2.58,2.22 5.17,4.42 7.79,6.59 1.01,0.83 2.02,1.65 3.03,2.47 1.92,1.57 3.84,3.12 5.78,4.65 1.1,0.88 2.21,1.76 3.33,2.63 2.7,2.12 5.42,4.21 8.17,6.27 0.89,0.67 1.8,1.33 2.7,1.99 2.13,1.58 4.28,3.15 6.43,4.69 1.11,0.8 2.23,1.6 3.35,2.39 2.58,1.82 5.18,3.63 7.8,5.41 0.93,0.63 1.87,1.26 2.8,1.88 2.46,1.65 4.94,3.28 7.43,4.89 1.11,0.72 2.23,1.43 3.35,2.15 2.47,1.57 4.95,3.11 7.44,4.64 0.71,0.44 1.41,0.88 2.12,1.31 3.05,1.85 6.12,3.66 9.21,5.45 1.09,0.63 2.19,1.25 3.29,1.88 2.46,1.4 4.94,2.79 7.43,4.15 0.85,0.47 1.69,0.94 2.54,1.4 3.17,1.72 6.37,3.4 9.58,5.06 1.03,0.53 2.07,1.05 3.1,1.57 2.52,1.28 5.05,2.54 7.6,3.78 0.96,0.47 1.92,0.94 2.88,1.4 3.28,1.58 6.58,3.12 9.89,4.62 0.95,0.43 1.9,0.85 2.85,1.27 2.63,1.18 5.28,2.34 7.93,3.48 1.04,0.44 2.07,0.89 3.11,1.32 3.4,1.43 6.81,2.83 10.24,4.19 0.77,0.3 1.54,0.59 2.31,0.89 2.85,1.11 5.72,2.2 8.6,3.27 1.06,0.39 2.12,0.79 3.19,1.17 3.52,1.28 7.05,2.53 10.61,3.74 0.47,0.16 0.95,0.31 1.43,0.47 3.2,1.08 6.41,2.11 9.63,3.13 1.07,0.33 2.13,0.67 3.2,0.99 3.35,1.04 6.71,2.04 10.1,3.01 0.35,0.1 0.7,0.21 1.05,0.31 3.66,1.03 7.34,2.02 11.04,2.98 1.06,0.28 2.13,0.55 3.19,0.82 3.16,0.8 6.33,1.58 9.5,2.32 0.67,0.16 1.34,0.32 2.01,0.48 3.74,0.86 7.5,1.67 11.27,2.45 0.99,0.2 1.99,0.4 2.98,0.6 3.13,0.63 6.28,1.23 9.43,1.81 0.84,0.15 1.67,0.31 2.51,0.46 3.81,0.68 7.64,1.31 11.48,1.9 0.91,0.14 1.84,0.27 2.75,0.41 3.18,0.48 6.37,0.92 9.57,1.34 0.94,0.12 1.88,0.25 2.83,0.37 3.89,0.49 7.8,0.94 11.73,1.34 0.75,0.08 1.5,0.14 2.25,0.22 3.32,0.32 6.65,0.62 9.98,0.88 1.04,0.08 2.07,0.17 3.11,0.25 3.96,0.29 7.93,0.54 11.91,0.75 0.52,0.03 1.03,0.04 1.55,0.07 3.55,0.17 7.11,0.3 10.68,0.4 1.09,0.04 2.17,0.06 3.26,0.09 4.05,0.1 8.1,0.15 12.18,0.15 4.35,0 8.7,-0.06 13.03,-0.16 0.32,-0.01 0.64,-0.01 0.96,-0.02 4.14,-0.11 8.26,-0.27 12.38,-0.47 0.49,-0.03 0.98,-0.05 1.48,-0.07 3.99,-0.21 7.97,-0.46 11.94,-0.76 0.61,-0.04 1.21,-0.09 1.81,-0.13 3.91,-0.31 7.8,-0.65 11.68,-1.04 0.64,-0.06 1.28,-0.13 1.92,-0.19 3.84,-0.4 7.68,-0.84 11.5,-1.32l2 -0.25c3.81,-0.5 7.62,-1.03 11.41,-1.6 0.62,-0.09 1.24,-0.19 1.87,-0.29 3.82,-0.59 7.64,-1.22 11.44,-1.89 0.56,-0.1 1.11,-0.21 1.67,-0.31 3.87,-0.7 7.73,-1.43 11.57,-2.22 0.42,-0.08 0.83,-0.17 1.25,-0.26 3.9,-0.8 7.78,-1.65 11.65,-2.54l0.87 -0.2c3.78,-0.87 7.54,-1.8 11.29,-2.75 0.48,-0.12 0.95,-0.24 1.42,-0.36 3.67,-0.95 7.31,-1.94 10.95,-2.96 0.67,-0.19 1.34,-0.37 2.01,-0.56 3.5,-1 6.99,-2.05 10.46,-3.12 0.77,-0.23 1.54,-0.47 2.3,-0.71 3.41,-1.06 6.8,-2.17 10.17,-3.3 0.81,-0.27 1.63,-0.55 2.45,-0.82 3.31,-1.13 6.61,-2.3 9.89,-3.49 0.86,-0.31 1.72,-0.63 2.59,-0.95 3.25,-1.2 6.48,-2.43 9.71,-3.69 0.86,-0.34 1.72,-0.68 2.58,-1.02 3.19,-1.28 6.38,-2.57 9.55,-3.91 0.86,-0.36 1.71,-0.73 2.56,-1.09 3.19,-1.36 6.37,-2.74 9.52,-4.16 0.76,-0.35 1.52,-0.7 2.28,-1.05 2.92,-1.33 5.84,-2.69 8.74,-4.08 0.95,-0.45 1.89,-0.91 2.84,-1.37 2.8,-1.36 5.59,-2.75 8.36,-4.16 0.88,-0.44 1.76,-0.88 2.64,-1.34 2.87,-1.47 5.73,-2.99 8.57,-4.52 0.94,-0.5 1.88,-1 2.81,-1.51 2.82,-1.54 5.61,-3.11 8.4,-4.7 1.03,-0.58 2.05,-1.16 3.07,-1.75 2.7,-1.57 5.38,-3.16 8.05,-4.76 1.08,-0.65 2.16,-1.3 3.23,-1.96 2.61,-1.6 5.21,-3.22 7.8,-4.87 1.1,-0.7 2.21,-1.41 3.31,-2.12 2.53,-1.64 5.04,-3.29 7.54,-4.97 1.12,-0.75 2.23,-1.51 3.34,-2.26 2.48,-1.69 4.95,-3.4 7.4,-5.13 1.09,-0.77 2.17,-1.55 3.26,-2.33 2.18,-1.58 4.36,-3.16 6.52,-4.77 1.31,-0.96 2.61,-1.94 3.91,-2.92 1.93,-1.47 3.86,-2.94 5.77,-4.43 1.47,-1.14 2.93,-2.29 4.38,-3.45 1.84,-1.45 3.66,-2.92 5.47,-4.4 1.45,-1.18 2.9,-2.37 4.33,-3.57 1.84,-1.54 3.67,-3.08 5.49,-4.64 1.23,-1.06 2.46,-2.11 3.69,-3.18 2,-1.75 3.99,-3.52 5.97,-5.3 1.13,-1.02 2.26,-2.03 3.38,-3.05 2.07,-1.9 4.12,-3.82 6.16,-5.74 1.12,-1.06 2.24,-2.12 3.35,-3.19 2.01,-1.93 3.99,-3.87 5.97,-5.83 1.11,-1.1 2.22,-2.21 3.32,-3.32 1.96,-1.98 3.91,-3.97 5.84,-5.98 1.07,-1.11 2.13,-2.23 3.19,-3.36 1.92,-2.03 3.83,-4.07 5.71,-6.14 16.75,-19.62 33.32,-40.45 49.05,-62.34 52.32,-77.79 84.59,-170.19 89.43,-269.8l-162.59 21.65c-72.85,4.15 -59.51,19.33 -140.74,0.12l-134.42 -26.72c-39.29,-6.23 -78.58,-42.95 -117.88,-49.18 -69.21,-8.85 -125.59,-12.8 -194.8,-21.65 -76.86,20.23 -454.3,74.72 -144.76,111.62zm751 302.44c1.92,-2.03 3.83,-4.07 5.71,-6.14l0 0"/>
   <path class="fil5" d="M153.39 579.73c21.93,2.95 31.67,4.67 54.03,2.65 14.65,-3.35 29.29,-6.71 43.94,-10.06 42.38,0.74 18.65,13.7 58.12,31.49 13.06,4.72 40.76,3.59 61.15,5.39 20.82,2.88 41.64,5.77 62.46,8.65 50.88,8.45 87.34,10.47 16.54,36.86 -95.64,46.3 -20.26,49.04 -108.74,81.45 -141.34,44.42 -45.65,77.59 -263.39,71.31 1.67,2.74 3.37,5.46 5.09,8.16 0.85,1.34 1.71,2.68 2.58,4.01 1.24,1.92 2.5,3.83 3.77,5.73 1.03,1.55 2.07,3.1 3.12,4.64 1.54,2.25 3.09,4.5 4.67,6.73 0.91,1.3 1.84,2.59 2.77,3.89 1.39,1.94 2.8,3.87 4.22,5.79 1.15,1.56 2.31,3.11 3.48,4.65 1.53,2.02 3.07,4.04 4.62,6.04 0.98,1.25 1.97,2.51 2.96,3.76 1.58,1.99 3.18,3.98 4.8,5.96 1.19,1.45 2.38,2.9 3.59,4.34 1.57,1.89 3.15,3.76 4.75,5.63 1,1.16 2,2.32 3.01,3.47 1.91,2.19 3.84,4.36 5.78,6.52 1.08,1.19 2.16,2.37 3.25,3.55 1.64,1.79 3.3,3.57 4.96,5.34 1.03,1.08 2.05,2.16 3.08,3.23 2.26,2.36 4.54,4.7 6.84,7.01 0.92,0.92 1.85,1.83 2.78,2.75 1.72,1.7 3.44,3.38 5.18,5.06 1.04,1 2.08,2 3.12,2.99 2.39,2.26 4.8,4.51 7.23,6.73 0.96,0.87 1.94,1.74 2.91,2.61 1.83,1.65 3.67,3.29 5.53,4.91 1.02,0.89 2.03,1.79 3.06,2.67 2.52,2.17 5.06,4.33 7.63,6.45 1,0.84 2.02,1.66 3.04,2.49 1.93,1.58 3.88,3.15 5.84,4.71 1.02,0.8 2.03,1.61 3.05,2.41 2.64,2.07 5.31,4.11 8,6.13 1.03,0.78 2.07,1.55 3.11,2.32 2.1,1.55 4.21,3.09 6.33,4.61 0.94,0.68 1.87,1.36 2.82,2.03 2.78,1.97 5.59,3.92 8.42,5.84 1.05,0.71 2.12,1.42 3.18,2.13 2.29,1.54 4.59,3.05 6.91,4.55 0.83,0.54 1.66,1.09 2.5,1.62 2.92,1.88 5.88,3.71 8.84,5.53 1.06,0.64 2.11,1.28 3.17,1.92 2.54,1.52 5.08,3.03 7.64,4.51 0.69,0.4 1.37,0.81 2.07,1.21 3.07,1.76 6.17,3.49 9.28,5.19 1.04,0.57 2.08,1.13 3.12,1.69 2.87,1.55 5.75,3.07 8.65,4.57 0.61,0.31 1.21,0.62 1.81,0.93 3.06,1.56 6.14,3.08 9.23,4.59 1.03,0.49 2.05,0.99 3.08,1.48 3.28,1.57 6.57,3.11 9.88,4.61 0.48,0.22 0.96,0.43 1.44,0.64 3,1.35 6.02,2.66 9.05,3.96 1,0.43 2.01,0.86 3.02,1.28 3.37,1.42 6.76,2.81 10.18,4.16 0.6,0.24 1.21,0.47 1.82,0.7 3,1.18 6.02,2.32 9.05,3.44 0.97,0.36 1.94,0.72 2.91,1.08 3.48,1.26 6.97,2.5 10.49,3.69 0.69,0.24 1.39,0.46 2.08,0.69 3.04,1.02 6.09,2.01 9.15,2.97 0.94,0.3 1.88,0.6 2.82,0.89 3.56,1.1 7.13,2.16 10.71,3.19 0.8,0.22 1.61,0.44 2.41,0.67 3.09,0.86 6.19,1.7 9.31,2.52 0.86,0.22 1.72,0.45 2.59,0.67 3.66,0.94 7.33,1.83 11.01,2.69 0.85,0.2 1.71,0.39 2.56,0.58 3.2,0.73 6.41,1.43 9.63,2.1 0.77,0.16 1.54,0.32 2.31,0.48 3.75,0.76 7.51,1.48 11.29,2.16 0.9,0.17 1.8,0.32 2.69,0.48 3.32,0.58 6.65,1.13 9.99,1.65 0.68,0.11 1.35,0.22 2.03,0.32 3.83,0.58 7.67,1.12 11.53,1.61 0.92,0.12 1.85,0.24 2.77,0.35 3.51,0.44 7.03,0.84 10.56,1.21 0.51,0.05 1.02,0.11 1.53,0.16 3.91,0.4 7.84,0.74 11.78,1.05 0.96,0.08 1.92,0.14 2.87,0.21 3.73,0.28 7.47,0.52 11.21,0.72 0.31,0.01 0.62,0.03 0.93,0.05 3.98,0.2 7.99,0.34 12,0.45 0.98,0.03 1.97,0.06 2.95,0.08 4.05,0.09 8.11,0.15 12.19,0.15 4.36,0 8.72,-0.06 13.06,-0.16 0.3,-0.01 0.61,-0.01 0.91,-0.02 4.15,-0.11 8.28,-0.27 12.4,-0.47 0.49,-0.03 0.98,-0.05 1.47,-0.07 4,-0.21 7.99,-0.46 11.96,-0.76 0.6,-0.04 1.19,-0.09 1.79,-0.13 3.91,-0.3 7.8,-0.65 11.69,-1.04 0.64,-0.06 1.28,-0.13 1.92,-0.19 3.84,-0.4 7.67,-0.84 11.49,-1.32l1.99 -0.25c3.81,-0.49 7.6,-1.02 11.38,-1.59 0.65,-0.1 1.31,-0.21 1.96,-0.31 3.8,-0.59 7.59,-1.21 11.36,-1.88 0.58,-0.1 1.17,-0.21 1.76,-0.32 3.84,-0.69 7.67,-1.42 11.48,-2.2 0.45,-0.09 0.91,-0.19 1.36,-0.28 3.89,-0.81 7.76,-1.65 11.62,-2.53l0.94 -0.22c3.75,-0.88 7.49,-1.79 11.22,-2.74 0.45,-0.12 0.9,-0.23 1.35,-0.34 3.67,-0.95 7.32,-1.94 10.96,-2.97 0.67,-0.19 1.34,-0.37 2.01,-0.56 3.5,-1 6.98,-2.04 10.45,-3.11 0.78,-0.24 1.55,-0.47 2.33,-0.72 3.38,-1.06 6.75,-2.15 10.1,-3.28 0.85,-0.28 1.7,-0.57 2.54,-0.85 3.28,-1.12 6.54,-2.27 9.79,-3.45 0.9,-0.33 1.8,-0.66 2.71,-0.99 3.2,-1.19 6.39,-2.4 9.57,-3.64 0.91,-0.36 1.82,-0.72 2.73,-1.08 3.15,-1.26 6.29,-2.54 9.41,-3.85 0.91,-0.38 1.82,-0.77 2.73,-1.16 3.12,-1.34 6.24,-2.7 9.34,-4.09 0.84,-0.38 1.67,-0.77 2.51,-1.15 2.87,-1.31 5.73,-2.64 8.57,-4 1.03,-0.49 2.06,-0.99 3.08,-1.49 2.69,-1.31 5.36,-2.63 8.01,-3.98 1.08,-0.55 2.16,-1.1 3.23,-1.65 2.68,-1.38 5.35,-2.79 8,-4.22 0.99,-0.53 1.97,-1.05 2.95,-1.59 2.76,-1.5 5.5,-3.04 8.23,-4.6 1.09,-0.62 2.18,-1.24 3.27,-1.86 2.64,-1.53 5.25,-3.08 7.86,-4.65 1.15,-0.69 2.29,-1.38 3.43,-2.08 2.54,-1.56 5.07,-3.13 7.58,-4.73 1.18,-0.75 2.36,-1.51 3.54,-2.27 2.46,-1.59 4.9,-3.2 7.33,-4.83 1.2,-0.8 2.39,-1.61 3.58,-2.42 2.39,-1.63 4.77,-3.28 7.14,-4.95 1.19,-0.84 2.37,-1.7 3.56,-2.55 2.05,-1.48 4.09,-2.96 6.13,-4.47 1.46,-1.08 2.91,-2.17 4.36,-3.27 1.79,-1.35 3.56,-2.71 5.33,-4.09 1.64,-1.27 3.27,-2.56 4.9,-3.85 1.67,-1.32 3.32,-2.66 4.97,-4 1.65,-1.34 3.28,-2.69 4.91,-4.05 1.65,-1.38 3.29,-2.77 4.92,-4.17 1.55,-1.32 3.08,-2.64 4.6,-3.98 1.7,-1.48 3.38,-2.98 5.05,-4.48 1.28,-1.14 2.55,-2.29 3.82,-3.45 1.92,-1.76 3.82,-3.54 5.71,-5.32 1.22,-1.15 2.44,-2.31 3.65,-3.47 1.92,-1.84 3.83,-3.71 5.72,-5.58 1.19,-1.18 2.38,-2.37 3.56,-3.56 1.87,-1.89 3.74,-3.8 5.58,-5.72 1.17,-1.22 2.33,-2.44 3.49,-3.67 1.82,-1.93 3.64,-3.87 5.43,-5.83 9.79,-11.46 19.81,-23.34 29.84,-35.6 63.21,-82.4 102.82,-183.85 108.71,-294.26 -64.32,3.78 -149.2,7.55 -203.98,11.33 -25.16,1.41 -50.32,2.81 -75.48,4.22 -16.92,-1.37 -33.84,-2.74 -50.76,-4.12 -10.72,-6.24 -21.43,-12.48 -32.14,-18.72 -15.55,-4.83 -31.1,-9.67 -46.65,-14.5 -13.92,-1.88 -27.85,-3.75 -41.77,-5.63 -35.25,-5.48 -70.49,-10.96 -105.74,-16.45 -62.08,-7.79 -124.16,-15.58 -186.25,-23.37 -32.17,2.88 -64.35,5.77 -96.53,8.66 -18.51,4.97 -37.01,9.95 -55.52,14.93 -68.53,15.61 -188.06,40.19 -13.23,63.58zm764.07 315.76c1.82,-1.93 3.64,-3.87 5.43,-5.83l0 0"/>
   <path class="fil6" d="M894.98 582.3c-4.34,4.94 -9.16,10.24 -15.19,14.74 -6.03,4.51 -13.27,8.22 -18.83,14.81 -5.57,6.59 -9.47,16.06 -9.1,22.74 0.37,6.68 5.01,10.58 12.25,12.99 7.24,2.41 17.07,3.34 28.86,3.71 11.79,0.37 25.52,0.19 35.73,4.55 10.2,4.36 16.89,13.27 23.29,20.88 6.4,7.61 12.53,13.92 20.32,17.91 7.8,3.99 17.26,5.66 28.68,6.12 9.59,0.39 20.56,-0.07 33.51,0.1 12.96,-38.44 21.6,-78.85 25.43,-120.66l0.12 -1.53 0.07 -0.82c0.33,-4.37 0.6,-8.74 0.83,-13.14l0.03 -0.57c0.22,-4.49 0.39,-9 0.51,-13.52l0.01 -0.28c0.12,-4.63 0.17,-9.27 0.17,-13.92 0,-4.48 -0.06,-8.94 -0.17,-13.39l-0.03 -1.42c-0.1,-3.71 -0.25,-7.4 -0.42,-11.09 -0.08,-1.66 -0.17,-3.32 -0.27,-4.97 -0.12,-2.31 -0.28,-4.62 -0.43,-6.93 -0.23,-3.26 -0.49,-6.51 -0.77,-9.75 -0.06,-0.74 -0.13,-1.48 -0.19,-2.22 -0.48,-1.57 -0.96,-3.14 -1.44,-4.7 -5.48,-0.79 -10.86,-1.41 -15.93,-1.88 -12.25,-1.11 -22.64,-1.29 -34.52,-0.64 -11.88,0.64 -25.24,2.13 -36.28,4.82 -11.05,2.69 -19.77,6.59 -27.19,14.57 -7.43,7.98 -13.55,20.05 -17.82,29.79 -4.27,9.74 -6.68,17.17 -9.56,23.38 -2.88,6.22 -6.22,11.23 -9.83,16.03 -3.61,4.78 -7.49,9.36 -11.84,14.29z"/>
   <path class="fil7" d="M991.35 482.84c4.54,1.44 11.19,4.68 15.82,8.35 4.62,3.66 7.24,7.75 10.81,11.56 3.58,3.8 8.12,7.32 12.89,10.84 4.77,3.52 9.77,7.04 16.24,11.19 4.69,3 10.14,6.32 14.54,9.56l0 0.03 0 0.04c0,0.25 0,0.51 0.01,0.77l0 0 0 0.03 0 0.04 0 0.03c0.01,0.38 0.01,0.75 0.01,1.13 0,4.65 -0.06,9.29 -0.17,13.91l-0.01 0.31c-0.12,4.52 -0.29,9.02 -0.51,13.51l-0.03 0.56c-0.23,4.38 -0.5,8.76 -0.83,13.11l-0.07 0.88 -0.12 1.59c-3.84,41.83 -12.5,82.27 -25.48,120.72 -4.23,-0.08 -8.57,-0.11 -12.91,-0.14 -6.85,-0.05 -13.7,-0.08 -20.9,-0.69 -7.2,-0.62 -14.75,-1.81 -21.37,-4.16 -6.62,-2.34 -12.31,-5.82 -16.17,-9.01 -3.86,-3.19 -5.89,-6.08 -8.85,-9.39 -2.95,-3.31 -6.84,-7.03 -10.79,-10.5 -3.95,-3.47 -7.96,-6.7 -11.66,-8.92 -3.71,-2.22 -7.1,-3.45 -12.09,-4.39 -4.99,-0.95 -11.56,-1.61 -17.96,-2.31 -6.4,-0.71 -12.63,-1.45 -18.87,-2.11 -6.25,-0.66 -12.51,-1.23 -18.19,-2.61 -5.68,-1.39 -10.77,-3.58 -12.38,-7.76 -1.6,-4.19 0.28,-10.36 2.46,-15.4 2.18,-5.03 4.65,-8.93 9.5,-13.67 4.85,-4.75 12.07,-10.34 18.48,-15.53 6.41,-5.18 12.02,-9.96 16.62,-15.32 4.6,-5.36 8.19,-11.29 12.09,-18.82 3.89,-7.53 8.07,-16.66 12.14,-25.25 4.06,-8.58 8,-16.64 11.38,-22.58 3.39,-5.95 6.22,-9.79 10.93,-13.78 4.71,-3.99 11.3,-8.14 17.61,-10.92 6.32,-2.79 12.37,-4.22 16.61,-5.11 4.24,-0.89 6.68,-1.24 11.22,0.21z"/>
   <path class="fil8" d="M320.06 465.93c0.62,-3.23 0.99,-7.42 1.18,-12.14 0.18,-4.72 0.18,-9.98 1.45,-15.77 1.28,-5.8 3.82,-12.13 6.4,-18.23 2.57,-6.09 5.17,-11.94 7.01,-15.81 1.84,-3.87 2.92,-5.77 3.63,-7.93 0.7,-2.17 1.03,-4.61 1.11,-6.75 0.08,-2.14 -0.08,-3.98 0.48,-6.17 0.57,-2.19 1.87,-4.74 2.87,-6.53 1.01,-1.78 1.71,-2.81 2.69,-5.38 0.97,-2.58 2.21,-6.69 4.06,-10.27 1.84,-3.57 4.28,-6.61 8.09,-9.96 3.82,-3.36 9.02,-7.04 12.78,-9.8 3.77,-2.77 5.86,-5.18 8.02,-5.75 4.82,-1.25 6.8,-1.39 11.77,-1.57 1.43,-0.06 5.51,0.14 6.97,0.71 1.45,0.56 13.46,7.31 19.74,11.75 6.28,4.44 10.18,8.12 13.84,12.51 3.65,4.39 7.06,9.48 10.8,16.3 3.74,6.82 7.8,15.38 10.64,23.18 2.84,7.8 4.47,14.84 5.63,21.23 1.17,6.39 1.87,12.13 2.49,16.06 0.63,3.92 1.17,6.04 1.51,7.79 0.35,1.75 0.5,3.13 -0.85,7.82 -1.36,4.68 -4.21,12.66 -10.41,18.74 -6.2,6.07 -15.73,10.24 -25.77,18.02 -10.05,7.77 -20.61,19.14 -33.69,23.34 -13.08,4.19 -28.67,1.22 -44.03,-3.01 -15.35,-4.22 -30.46,-9.69 -35.54,-15.68 -5.08,-5.98 -0.14,-12.48 2.76,-16.85 2.9,-4.38 3.76,-6.63 4.37,-9.85z"/>
   <path class="fil9" d="M706.44 565.9c-1.14,3.26 -6.32,7.06 -15.1,10.35 -8.79,3.29 -21.17,6.06 -31.36,7.04 -10.19,0.98 -18.18,0.16 -28.73,1.1 -10.56,0.94 -23.68,3.63 -34.85,6.56 -11.16,2.93 -20.37,6.11 -33.13,8.15 -12.75,2.04 -29.06,2.94 -39.65,2.77 -10.6,-0.16 -15.49,-1.38 -21.4,-2.69 -5.91,-1.3 -12.83,-2.69 -19.68,-2.69 -6.85,0 -13.61,1.39 -21.44,1.43 -7.82,0.04 -16.71,-1.26 -24.08,-2.61 -7.38,-1.35 -13.25,-2.73 -18.54,-3.42 -5.3,-0.7 -10.03,-0.7 -15.37,-1.27 -5.34,-0.57 -11.29,-1.71 -16.18,-2.16 -4.89,-0.44 -8.72,-0.2 -16.01,0.08 -7.3,0.29 -18.06,0.62 -25.6,-0.28 -7.54,-0.9 -11.85,-3.02 -14.75,-5.58 -2.89,-2.57 -4.36,-5.59 -5.95,-8.72 -1.59,-3.14 -3.3,-6.4 -5.62,-8.6 -2.33,-2.2 -5.26,-3.35 -11.21,-4.4 -5.95,-1.07 -14.92,-2.04 -24.04,-3.27 -9.13,-1.22 -18.42,-2.68 -29.79,-3.95 -11.38,-1.26 -24.82,-2.32 -36.89,-2.81 -12.06,-0.49 -22.74,-0.41 -32.96,-0.29 -10.23,0.13 -20.02,0.29 -30.9,0.09 -10.88,-0.21 -22.86,-0.78 -30.64,-2 -7.79,-1.22 -11.37,-3.1 -11.99,-5.83 -0.6,-2.73 1.76,-6.32 4.14,-9.44 2.38,-3.12 4.77,-5.77 11.22,-8.36 6.44,-2.59 16.94,-5.11 29.2,-8.28 12.27,-3.17 26.3,-6.99 38.3,-10.2 12,-3.2 21.95,-5.78 31.39,-8.21 9.44,-2.43 18.37,-4.7 29.15,-7.67 10.78,-2.98 23.41,-6.65 32.95,-10.31 9.53,-3.67 15.97,-7.34 22.69,-10.11 6.73,-2.77 13.74,-4.65 20.1,-7.42 6.35,-2.77 12.06,-6.44 18.82,-9.57 6.77,-3.14 14.59,-5.75 20.54,-7.79 5.95,-2.04 10.03,-3.5 14.18,-4.97 4.16,-1.47 8.4,-2.93 13.25,-2.93 4.85,0 10.31,1.46 14.75,2.89 4.44,1.43 7.87,2.81 11.66,4.48 3.79,1.67 7.94,3.63 11.25,4.81 3.3,1.18 5.74,1.59 8.06,1.75 2.33,0.17 4.53,0.09 6.48,-0.28 1.96,-0.37 3.67,-1.02 5.02,-1.43 1.34,-0.41 2.32,-0.57 4.11,0.12 1.79,0.7 4.41,2.25 6.93,3.55 2.53,1.31 4.97,2.36 6.81,2.53 1.83,0.16 3.05,-0.57 4.8,-1.76 1.76,-1.18 4.04,-2.81 6.65,-3.09 2.61,-0.29 5.54,0.77 9.66,1.51 4.11,0.73 9.41,1.14 14.67,1.5 5.26,0.37 10.47,0.7 14.55,1.39 4.07,0.69 7.01,1.75 9.33,3.34 2.32,1.59 4.03,3.71 7.74,6.64 3.71,2.94 9.42,6.69 15.28,11.17 5.87,4.48 11.9,9.7 18.1,14.92 6.19,5.21 12.55,10.43 18.22,15.07 5.66,4.65 10.63,8.72 14.95,13 4.32,4.28 7.99,8.77 10.8,11.34 2.82,2.56 4.78,3.21 8.12,3.85 3.34,0.64 8.05,1.26 14.73,2.28 6.68,1.02 15.33,2.43 23.39,4.66 8.05,2.22 15.52,5.25 21.96,7.94 6.44,2.69 11.85,5.04 16,7.57 4.16,2.53 7.05,5.25 5.91,8.51z"/>
   <path class="fil10" d="M270.67 486.08c7.67,-1.68 19.58,-4.46 28.79,-7.14 9.21,-2.69 15.72,-5.26 20.74,-6.14 5.02,-0.89 8.54,-0.07 8.41,2.98 -0.14,3.05 -3.94,8.34 -7.53,13.22 -3.59,4.88 -6.98,9.36 -6.1,12 0.88,2.64 6.03,3.46 11.39,2.88 5.36,-0.57 10.92,-2.54 15.63,-4.2 4.71,-1.66 8.57,-3.02 14.54,-4.37 5.97,-1.36 14.04,-2.72 18.02,-2.08 3.98,0.63 3.87,3.26 3.19,6.24 -0.68,2.99 -1.93,6.33 0.64,5.22 2.56,-1.11 8.94,-6.67 13.85,-11.32 4.92,-4.64 8.37,-8.37 9.83,-8.78 1.46,-0.41 0.92,2.51 0.27,5.22 -0.64,2.71 -1.39,5.22 0.27,6.48 1.67,1.25 5.73,1.25 6.75,2.74 1.02,1.5 -1.02,4.48 -2.44,6.89 -1.43,2.4 -2.24,4.23 0.54,4.17 2.78,-0.07 9.16,-2.04 13.77,-3.49 4.61,-1.46 7.45,-2.41 8.23,-1.36 0.78,1.05 -0.51,4.1 1.02,4.17 1.53,0.07 5.87,-2.85 8.48,-3.22 2.61,-0.38 3.49,1.79 4.48,2.59 1,0.79 2.11,0.21 4.69,-2.5 2.57,-2.72 6.62,-7.56 9.69,-12.45 3.07,-4.9 5.17,-9.85 6.9,-14.26 1.73,-4.4 3.09,-8.27 4.27,-7.72 1.19,0.54 2.21,5.49 2.54,11.83 0.35,6.34 0,14.07 1.24,19.24 1.24,5.18 4.04,7.8 6.99,7.87 2.95,0.07 6.04,-2.42 9.79,-3.36 3.75,-0.94 8.16,-0.33 11.65,1.13 3.49,1.46 6.07,3.76 11.22,5.49 5.15,1.73 12.88,2.89 17.94,5.22 5.04,2.34 7.42,5.87 8.2,10.62 0.78,4.74 -0.04,10.71 -0.17,14.47 -0.14,3.76 0.41,5.32 5,5.58 4.59,0.25 13.25,-0.8 19.83,0.47 6.59,1.28 11.13,4.88 12.09,9.04 0.97,4.17 -1.63,8.9 -3.4,14.27 -1.76,5.36 -2.7,11.36 -2.13,15.09 0.57,3.73 2.63,5.2 3.17,6.28 0.54,1.08 -0.46,1.77 -4.23,2.61 -3.78,0.85 -10.33,1.85 -20.48,2.41 -10.14,0.55 -23.88,0.66 -33.1,0.23 -9.22,-0.43 -13.92,-1.38 -18.6,-2.11 -4.68,-0.73 -9.34,-1.24 -13.78,-1.56 -4.43,-0.32 -8.64,-0.45 -13.19,-0.25 -4.54,0.21 -9.41,0.76 -13.48,0.66 -4.07,-0.1 -7.32,-0.85 -12.51,-1.67 -5.19,-0.82 -12.32,-1.71 -19.62,-2.78 -7.3,-1.07 -14.77,-2.31 -22,-3.07 -7.23,-0.77 -14.23,-1.06 -21.9,-1.1 -7.67,-0.04 -16,0.17 -23.2,-0.1 -7.21,-0.28 -13.28,-1.03 -17.47,-2.06 -4.2,-1.02 -6.51,-2.32 -8.6,-3.81 -2.09,-1.48 -3.97,-3.14 -5.37,-5.35 -1.41,-2.21 -2.34,-4.97 -3.84,-7.17 -1.5,-2.19 -3.57,-3.84 -6.73,-5.56 -3.17,-1.73 -7.44,-3.53 -11.89,-4.54 -4.45,-1.01 -9.09,-1.24 -15.64,-1.93 -6.55,-0.69 -15.01,-1.84 -23.05,-2.83 -8.04,-0.99 -15.65,-1.81 -24.66,-2.52 -9.02,-0.71 -19.44,-1.3 -28.92,-1.61 -9.49,-0.3 -18.04,-0.32 -26.1,-0.49 -8.06,-0.16 -15.63,-0.48 -23.34,-0.56 -7.71,-0.08 -15.55,0.08 -22.02,-0.08 -6.47,-0.16 -11.57,-0.64 -15.77,-1.39 -4.2,-0.76 -7.51,-1.78 -9.98,-2.79 -2.46,-1.01 -4.07,-1.99 -3.72,-4.02 0.34,-2.04 2.65,-5.11 5.52,-7.98 2.86,-2.86 6.29,-5.52 11.05,-7.79 4.77,-2.27 10.89,-4.15 16.86,-5.83 5.98,-1.68 11.82,-3.17 19.73,-5.26 7.92,-2.08 17.91,-4.78 26.71,-7.14 8.8,-2.36 16.4,-4.4 25.43,-6.76 9.03,-2.36 19.48,-5.04 26.57,-7.09 7.08,-2.05 10.81,-3.48 14.38,-4.47 3.57,-1 7,-1.57 14.66,-3.25z"/>
   <path class="fil11" d="M98.3 838.99c0.75,-0.88 1.46,-1.77 2.15,-2.67 2.76,-3.6 5.16,-7.33 7.09,-10.52 1.92,-3.18 3.36,-5.83 7.51,-6.19 4.15,-0.36 11,1.56 18.03,3.19 7.04,1.62 14.25,2.94 19.66,3.9 5.41,0.97 9.02,1.57 13.16,3.07 4.15,1.5 8.84,3.91 14.79,6.55 5.95,2.65 13.16,5.53 21.1,7.45 7.93,1.93 16.59,2.89 26.5,3.67 9.92,0.78 21.1,1.38 33.06,2.53 11.96,1.14 24.71,2.82 28.13,5.83 3.43,3 -2.46,7.33 -4.81,11.78 -2.34,4.44 -1.14,9.01 -0.42,11.66 0.72,2.64 0.97,3.36 3.01,3.12 2.04,-0.24 5.89,-1.44 12.26,-3 6.37,-1.56 15.27,-3.49 20.8,-3.67 5.53,-0.18 7.69,1.38 10.82,3.55 3.12,2.16 7.21,4.93 11.48,7.21 4.26,2.28 8.71,4.09 12.08,5.47 3.36,1.38 5.65,2.34 8.41,4.33 2.77,1.98 6.01,4.99 9.68,7.39 3.67,2.41 7.75,4.21 12.02,6.07 4.27,1.86 8.72,3.79 19.12,7.88 10.39,4.08 26.74,10.33 39.55,15.2 12.8,4.87 22.06,8.36 27.53,11.6 5.47,3.25 7.15,6.25 7.21,10.82 0.06,4.57 -1.5,10.7 -0.72,15.99 0.78,5.29 3.9,9.74 7.45,13.34 3.55,3.61 7.51,6.38 10.89,8.83 3.37,2.46 6.14,4.61 25.14,30.93 7.07,9.81 16.39,22.96 25.89,37.66 -5.24,0.15 -10.49,0.25 -15.76,0.25 -178.56,0 -336.52,-88.11 -432.81,-223.22z"/>
   <path class="fil12" d="M114.17 822.81c3.97,0.88 11.63,2.93 17.83,4.34 6.2,1.42 10.94,2.19 13.47,4.67 2.54,2.47 2.87,6.66 1.6,10.24 -1.26,3.59 -4.13,6.56 -8.32,11.52 -4.18,4.96 -9.7,11.9 -13.83,17.13l-1.03 1.32c-9.06,-10.82 -17.73,-21.98 -25.92,-33.5 0.64,-0.69 1.26,-1.38 1.84,-2.07 2.73,-3.21 4.83,-6.27 6.36,-8.57 1.54,-2.3 2.52,-3.82 3.14,-4.74 0.63,-0.91 0.9,-1.21 4.86,-0.34zm13.51 53.7c2.63,-1.23 5.62,-2.68 8.48,-3.98 6.56,-2.97 12.51,-5.18 17.91,-6.39 5.4,-1.21 10.25,-1.43 13.77,-1.65 3.53,-0.22 5.73,-0.44 8.76,0.83 3.03,1.26 6.89,4.02 11.08,5.56 4.19,1.54 8.7,1.87 11.29,2.37 2.59,0.49 3.25,1.16 2.76,3.47 -0.5,2.31 -2.15,6.28 -3.31,10.47 -1.15,4.19 -1.82,8.59 -2.64,12.23 -0.83,3.64 -1.82,6.5 0.55,7.66 2.37,1.16 8.1,0.6 13.17,0.16 5.07,-0.44 9.47,-0.77 12.17,1.05 2.7,1.82 3.69,5.79 3.69,8.93 0,3.14 -0.99,5.45 -2.14,7.77 -1.16,2.31 -2.48,4.62 -3.25,7.21 -0.78,2.59 -1,5.46 -1.16,7.88 -0.17,2.43 -0.28,4.41 1.82,4.58 2.09,0.16 6.39,-1.49 10.13,-1.27 3.75,0.22 6.95,2.31 6.34,4.85 -0.6,2.53 -5.01,5.51 -11.13,12.72 -0.82,0.97 -1.66,2.01 -2.53,3.11 -35.39,-25.2 -67.55,-54.64 -95.76,-87.56zm180.94 136.96c22.53,10.41 45.91,19.27 70.01,26.49 -4.41,-2.32 -7.7,-4.22 -11.28,-5.99 -4.68,-2.32 -9.86,-4.41 -13.22,-7.99 -3.36,-3.58 -4.91,-8.65 -7.33,-10.74 -2.42,-2.1 -5.73,-1.22 -8.82,-0.94 -3.08,0.27 -5.95,-0.06 -9.91,-0.39 -3.97,-0.33 -9.04,-0.66 -14.33,-0.6 -1.67,0.01 -3.37,0.07 -5.12,0.16z"/>
   <path class="fil13" d="M318.55 1014.41c14.61,-10.44 25.74,-25.75 31.66,-43.14 5.91,-17.4 6.61,-36.88 6.95,-56.37 0.36,-19.48 0.36,-38.96 4.88,-60.54 4.52,-21.57 13.57,-45.23 24.35,-64.71 10.79,-19.49 23.31,-34.8 40.36,-47.67 17.05,-12.87 38.62,-23.31 59.5,-30.97 20.88,-7.65 41.06,-12.52 64.37,-14.61 23.31,-2.09 49.75,-1.4 68.19,-1.4 18.44,0 28.88,-0.69 39.32,4.18 10.44,4.87 20.88,15.31 30.97,24.01 10.09,8.7 19.83,15.65 36.18,20.53 16.35,4.87 39.32,7.65 57.06,5.91 17.75,-1.74 30.27,-8 45.58,-9.04 15.31,-1.05 33.41,3.13 53.24,9.39 19.83,6.27 41.4,14.61 57.76,27.83 15.78,12.77 26.7,30.07 38.08,41.89 -94.65,145.95 -258.99,242.51 -445.89,242.51 -76.76,0 -149.7,-16.31 -215.58,-45.61 0.98,-0.72 1.99,-1.45 3.02,-2.19z"/>
   <path class="fil14" d="M357.88 1033.29c-0.07,-1.3 -0.14,-2.6 -0.23,-3.88 -1.4,-19.47 -6.6,-36.63 -8.26,-49.85 -1.67,-13.23 0.2,-22.53 1.52,-36.99 1.31,-14.46 2.07,-34.09 3.46,-50.43 1.39,-16.35 3.42,-29.41 5.71,-39.97 2.31,-10.56 4.88,-18.62 9.52,-29.47 4.63,-10.85 11.32,-24.49 18.51,-36.03 7.19,-11.55 14.88,-21 22.91,-30.81 8.04,-9.81 16.42,-19.98 30.29,-27.47 13.86,-7.49 33.2,-12.31 50.62,-13.03 17.41,-0.72 32.89,2.65 46.88,15.41 13.98,12.76 26.47,34.91 37.54,48.21 11.08,13.29 20.75,17.72 30.21,22.35 9.47,4.64 18.74,9.47 31.22,13.3 12.49,3.82 28.2,6.64 46.33,7.05 18.12,0.4 38.66,-1.61 45.51,8.65 6.85,10.28 0,32.83 -5.23,53.58 -5.24,20.74 -8.87,39.68 -3.23,56.59 5.64,16.92 20.55,31.83 37.67,38.27 14.5,5.46 30.59,4.85 48.16,6.25 -80.41,48.98 -174.85,77.19 -275.88,77.19 -60.66,0 -118.94,-10.19 -173.23,-28.92z"/>
   <path class="fil15" d="M691.67 637.24c-1.88,19.33 -1.07,41.3 -0.87,60.84 0.1,10.12 -0.32,20.92 -0.03,30.88 0.58,19.97 -8.09,16.59 -6.94,3.79 1.62,-17.98 0.18,-43.3 0.18,-62.08 0,-9.51 0.7,-21.81 0.01,-30.97 -1.41,-18.58 8.9,-15.35 7.65,-2.46zm41.78 -365.72l8.53 0c15.64,4.16 18.54,32.25 19.28,46.68 0.72,13.93 2.77,22.1 18.32,23.38 14.1,1.17 24.01,0.1 38.86,2.7 27.96,4.91 42.51,9.45 72.34,10.77 14.06,0.63 24.35,2.04 37.76,-3.5 15.04,-6.21 18.21,-7.39 35,-5.54l-0.75 3.86 21.54 4.18 0.05 0.04 0 1.5 -10.3 7.64 -18.53 1.49 1.34 -3.05 0.08 1.2 -28.44 2.99 -0.17 -0.76 1.21 -4.48 -0.77 0.99 -7.62 -4.42 -0.12 -1.7 -33.47 45.25 13.46 -36.35 0.35 0.84 -70.4 41.02 -2.69 -4.33 46.44 -40.55 -1.29 -1.58 -36.61 22.58 -1.53 -0.73 11.66 -26.04 0.5 0.22c-15.35,6.61 -30.89,28.25 -49.63,31.19 -23.97,3.76 -49.7,4.05 -73.89,6.97l-0.15 1.28 47.29 4.88 1.09 1.78 -33.75 36.97 -0.12 -0.26 34.01 -14.87 2.25 1.5 -59.5 99.63 -3.38 -2.02c16.98,-5.92 31.79,-14.93 39.04,-31.7 6.86,-15.89 13.79,-34.03 21.59,-49.26 0.37,0.65 -8.58,37.58 -9.7,41.46 -3.8,13.01 -8.33,24.4 -15.03,36.21 -11.99,21.15 -26.08,43.71 -36.93,65.19 9.55,4.48 13.04,-2.91 17.27,-10.37 3.89,-6.87 7.65,-12.7 11.81,-19.34 8.01,-12.76 16.08,-25.37 24.25,-38.03 14.35,-22.25 14.24,-20.92 12.81,-48.48 -0.68,-13.16 -4.85,-45.22 7.53,-53.39 3.68,4.43 5.27,58.31 6.39,68.96 0.43,4.03 3.39,13.65 -1.76,14.91 -3.59,0.88 -11.55,2.97 -11.01,7.83 0.91,8.11 10.41,4.8 12.24,6.78 2.85,3.1 3.27,10.43 4.73,14.21l0.3 0.03 5.69 -36.26 -2.75 -0.44c9.6,0.71 7.07,-6.96 6.91,-14.45 -0.32,-14.41 -0.25,-28.94 -0.66,-43.27 -0.37,-12.85 8.68,-12.6 8.88,-11.93l-4.54 3.3c-6.09,10.19 -2.45,32.53 -2.16,44.98 0.63,26.25 2.47,16.61 -6.01,40.87 -4.77,13.64 -1.9,29.01 -3.84,44.35 -2.2,17.37 -2.65,28.21 -1.53,45.75 2,31.08 2.63,62.56 4.53,93.84 0.96,15.72 1.49,31.3 2.23,46.97 0.46,9.69 4.86,10.35 13.27,11.27 3.37,0.37 8.14,0.23 8.46,3.87 0.18,2.1 0.19,9.51 -0.78,11.18 -0.22,0.24 -10.68,0.35 -25.87,0.39l-33.26 0c-34.85,-0.06 -73.94,-0.25 -83.48,-0.25 -7.94,0 -15.88,0.12 -23.81,-0.09 -11.12,-0.3 -14.47,3.68 -12.55,-10.47 13.2,-4.28 25.18,-0.3 27.43,-15.28 1.95,-13 0.67,-27.13 2.02,-40.56 1.4,-13.85 2.72,-25.84 2.72,-39.88 0,-5.69 0.16,-15.35 -0.62,-20.73 -0.23,-1.55 -6.03,-6.16 -6.98,-14.36 -1.55,-13.39 3.59,-25.71 0.47,-40.28 -3.86,-18 -4.21,-18.45 -2.46,-37.29 2.41,-25.9 3.74,-53.87 5.22,-79.97 0.43,-7.62 3.37,-34.42 1.73,-39.37 -2.92,-8.8 -21.03,-10.34 -29.57,-12.54 -10.95,-2.84 -26.85,-3.97 -38.25,-4.32 -11.53,-0.36 -29.74,1.51 -40.15,-1.91 -29.71,-9.75 -2.91,-41.61 -44.25,-41.07 -39.56,0.52 -56.88,-26.15 -20.12,-20.07l-2.19 -3.87c7.96,-4.52 26.16,2.66 33.98,5.49 11.7,4.23 24.48,3.02 36.7,3.73 27.54,1.59 48.06,7.07 76.4,0.09 10.82,-2.66 21.42,-7.09 31.94,-9.68 9.49,-2.34 29.16,-0.45 35.34,-6.17 9.82,-9.08 -9.89,-54.66 13.87,-65.73 2.23,-1.04 4.31,-1.76 6.26,-2.2zm-27.66 363.05c-2.11,20.7 -0.93,42.45 -0.82,63.33 0.05,10.05 -0.78,22.49 -0.18,32.15 1.03,16.49 -8.12,17.99 -6.94,0.15 1.27,-19.34 -0.04,-44.46 0,-64.49 0.03,-10.12 0.75,-22.45 -0.02,-32.28 -1.28,-16.45 9.62,-15.11 7.96,1.14zm5.82 -10.17c-0.06,-12.36 9.25,-12.41 7.75,8.75 -0.8,11.4 -0.94,21.59 -0.87,33 0.15,22.6 0.13,45.22 0.42,67.79 0.04,2.87 -2.15,12.78 -5.95,7.81 -2.68,-3.5 -0.72,-11.77 -0.74,-16.15l-0.61 -101.2zm21.88 -5.59c-1.03,23.74 -1.18,46.04 -1.18,69.79 0,11.8 0.08,23.59 -0.15,35.39 -0.1,5.03 1.85,13 -1.05,17.27 -4.12,6.05 -6.05,-4.69 -5.9,-7.88 1.05,-23.17 0.22,-47.63 0.22,-70.97 0,-11.77 0.19,-23.53 0.23,-35.28 0.02,-4.37 -1.41,-13.1 1.7,-16.43 4.5,-4.84 6.27,4.87 6.13,8.11zm13.74 21.85l-0.85 72.61c0,3.19 2.51,32.62 -4.6,29.03 -3.82,-1.93 -2.36,-27.74 -2.4,-37.94 -0.1,-26.19 0.15,-52.16 0.18,-78.32l-0.01 -3.43 5.35 -0.66 2.33 18.71zm14.22 -34.69c-2.8,24.08 -1.25,53.62 -1.26,78.3 0,12.66 -0.71,27.3 -0.12,39.68 1.2,25.15 -8.2,22.84 -6.82,4.34 1.76,-23.61 0.01,-54.87 0.03,-79.36 0,-12.55 0.78,-27.3 0.11,-39.55 -1.36,-25.37 9.9,-19.17 8.06,-3.41zm5.74 -11.82c0.11,-3.69 2.76,-14.95 6.95,-7.2 2.69,4.98 0.87,13.85 0.45,19.43 -1.03,13.47 -0.84,27.49 -0.84,41.02 -0.01,27.94 0.37,55.86 0.63,83.77 0.02,2.82 -2.26,16.69 -6.14,9.09 -2.52,-4.95 -0.65,-14.84 -0.73,-20.59 -0.2,-13.96 -0.12,-27.92 -0.12,-41.88 0,-27.33 -1.04,-56.58 -0.2,-83.64zm18.78 -16.96c6.27,10.58 1.95,25.9 1.98,38.5 0.03,14.55 0.04,29.11 0.04,43.67 0,8.8 3.32,82.52 -3.75,82.72 -5.24,0.14 -3.1,-34.04 -3.11,-39.25 -0.02,-29.05 0.08,-58.16 -0.01,-87.2 -0.04,-10.27 -3.41,-32.14 4.85,-38.44zm-110.66 9.18c10.21,13.52 15,16.88 31.63,7.96 10.32,-5.54 19.98,-12.97 29.81,-19.38 4.95,-3.23 9.65,-6.78 14.43,-10.24 2.34,-1.7 4.87,-3.43 7.14,-5.19 2.84,-2.22 5.55,-6.18 4.7,-0.64 -1.3,8.46 -4.9,14.59 8.7,9.46 4.35,-1.64 15.29,-6.73 18.23,-1.06 -14.3,0.53 -45.05,22.25 -60.22,29.24 -14.99,6.91 -33.22,9.05 -45.82,21.44 -2.55,2.52 -6.53,13.78 -8.55,13.8l-0.38 -45.34 0.33 -0.05z"/>
   <path class="fil16" d="M808.76 424.83c13.94,-5.15 28.33,-13.75 42.89,-14.92 17.6,-1.43 33.21,7.36 48.22,-6.04 9.7,-8.66 15.62,-30.31 23.89,-33.81 11.84,-5 34.02,4.31 50.32,-6.83l-18.53 1.49 1.34 -3.05 0.08 1.2 -28.44 2.99 -0.17 -0.76 1.21 -4.48 -0.77 0.99 -7.62 -4.42 -0.12 -1.7 -33.47 45.25 13.46 -36.35 0.35 0.84 -70.4 41.02 -2.69 -4.33 46.44 -40.55 -1.29 -1.58 -36.61 22.58 -1.53 -0.73 11.66 -26.04 0.5 0.22c-15.35,6.61 -30.89,28.25 -49.63,31.19 -23.97,3.76 -49.7,4.05 -73.89,6.97l-0.15 1.28 47.29 4.88 1.09 1.78 -33.75 36.97 -0.12 -0.26 34.01 -14.87 2.25 1.5 -59.5 99.63 -3.38 -2.02c16.98,-5.92 31.79,-14.93 39.04,-31.7 6.86,-15.89 13.79,-34.03 21.59,-49.26 0.37,0.65 -8.58,37.58 -9.7,41.46 -3.8,13.01 -8.33,24.4 -15.03,36.21 -11.99,21.15 -26.08,43.71 -36.93,65.19 9.55,4.48 13.04,-2.91 17.27,-10.37 3.89,-6.87 7.65,-12.7 11.81,-19.34 8.01,-12.76 16.08,-25.37 24.25,-38.03 14.35,-22.25 14.24,-20.92 12.81,-48.48 -0.68,-13.16 -4.85,-45.22 7.53,-53.39 3.68,4.43 5.27,58.31 6.39,68.96 0.43,4.03 3.39,13.65 -1.76,14.91 -3.59,0.88 -11.55,2.97 -11.01,7.83 0.91,8.11 10.41,4.8 12.24,6.78 2.85,3.1 3.27,10.43 4.73,14.21l0.3 0.03 5.69 -36.26 -2.75 -0.44c9.6,0.71 7.07,-6.96 6.91,-14.45 -0.32,-14.41 -0.25,-28.94 -0.66,-43.27 -0.37,-12.85 8.68,-12.6 8.88,-11.93l-4.54 3.3z"/>
   <path class="fil17" d="M675.31 586.37l-0.33 0.05 0.38 45.34c2.02,-0.02 6,-11.28 8.55,-13.8 12.6,-12.39 30.83,-14.53 45.82,-21.44 15.17,-6.99 45.92,-28.71 60.22,-29.24 -2.94,-5.67 -13.88,-0.58 -18.23,1.06 -13.6,5.13 -10,-1 -8.7,-9.46 0.85,-5.54 -1.86,-1.58 -4.7,0.64 -2.27,1.76 -4.8,3.49 -7.14,5.19 -4.78,3.46 -9.48,7.01 -14.43,10.24 -9.83,6.41 -19.49,13.84 -29.81,19.38 -16.63,8.92 -21.42,5.56 -31.63,-7.96z"/>
   <path class="fil18" d="M785.97 577.19c-8.26,6.3 -4.89,28.17 -4.85,38.44 0.09,29.04 -0.01,58.15 0.01,87.2 0.01,5.21 -2.13,39.39 3.11,39.25 7.07,-0.2 3.75,-73.92 3.75,-82.72 0,-14.56 -0.01,-29.12 -0.04,-43.67 -0.03,-12.6 4.29,-27.92 -1.98,-38.5z"/>
   <path class="fil19" d="M767.19 594.15c-0.84,27.06 0.2,56.31 0.2,83.64 0,13.96 -0.08,27.92 0.12,41.88 0.08,5.75 -1.79,15.64 0.73,20.59 3.88,7.6 6.16,-6.27 6.14,-9.09 -0.26,-27.91 -0.64,-55.83 -0.63,-83.77 0,-13.53 -0.19,-27.55 0.84,-41.02 0.42,-5.58 2.24,-14.45 -0.45,-19.43 -4.19,-7.75 -6.84,3.51 -6.95,7.2z"/>
   <path class="fil20" d="M761.45 605.97c1.84,-15.76 -9.42,-21.96 -8.06,3.41 0.67,12.25 -0.11,27 -0.11,39.55 -0.02,24.49 1.73,55.75 -0.03,79.36 -1.38,18.5 8.02,20.81 6.82,-4.34 -0.59,-12.38 0.12,-27.02 0.12,-39.68 0.01,-24.68 -1.54,-54.22 1.26,-78.3z"/>
   <path class="fil21" d="M733.49 618.81c0.14,-3.24 -1.63,-12.95 -6.13,-8.11 -3.11,3.33 -1.68,12.06 -1.7,16.43 -0.04,11.75 -0.23,23.51 -0.23,35.28 0,23.34 0.83,47.8 -0.22,70.97 -0.15,3.19 1.78,13.93 5.9,7.88 2.9,-4.27 0.95,-12.24 1.05,-17.27 0.23,-11.8 0.15,-23.59 0.15,-35.39 0,-23.75 0.15,-46.05 1.18,-69.79z"/>
   <path class="fil22" d="M744.9 621.95l-5.35 0.66 0.01 3.43c-0.03,26.16 -0.28,52.13 -0.18,78.32 0.04,10.2 -1.42,36.01 2.4,37.94 7.11,3.59 4.6,-25.84 4.6,-29.03l0.85 -72.61 -2.33 -18.71z"/>
   <path class="fil23" d="M712.22 725.6c0.02,4.38 -1.94,12.65 0.74,16.15 3.8,4.97 5.99,-4.94 5.95,-7.81 -0.29,-22.57 -0.27,-45.19 -0.42,-67.79 -0.07,-11.41 0.07,-21.6 0.87,-33 1.5,-21.16 -7.81,-21.11 -7.75,-8.75l0.61 101.2z"/>
   <path class="fil24" d="M705.79 634.57c1.66,-16.25 -9.24,-17.59 -7.96,-1.14 0.77,9.83 0.05,22.16 0.02,32.28 -0.04,20.03 1.27,45.15 0,64.49 -1.18,17.84 7.97,16.34 6.94,-0.15 -0.6,-9.66 0.23,-22.1 0.18,-32.15 -0.11,-20.88 -1.29,-42.63 0.82,-63.33z"/>
   <path class="fil25" d="M691.67 637.24c1.25,-12.89 -9.06,-16.12 -7.65,2.46 0.69,9.16 -0.01,21.46 -0.01,30.97 0,18.78 1.44,44.1 -0.18,62.08 -1.15,12.8 7.52,16.18 6.94,-3.79 -0.29,-9.96 0.13,-20.76 0.03,-30.88 -0.2,-19.54 -1.01,-41.51 0.87,-60.84z"/>
   <path class="fil26" d="M192.72 121.75c1.39,0.46 2.75,1.07 4.07,1.87 28.48,31.19 76.1,8.93 96.93,21.68 49.32,25.08 80.78,-25.08 115.64,-1.28 4.83,4.22 17.69,3.53 21.66,6.52 26.41,19.89 43.24,7.16 70.17,-3.99 8.91,-3.69 46.07,-4.89 54.42,-2.55 10.63,2.97 30.61,-11.48 42.94,-7.23 20.41,6.8 34.44,-21.26 65.47,-15.7 22.96,20.8 55.27,14 58.25,20.37 30.5,16.38 41.23,-3.79 54.41,-18.67 6.81,-2.16 5.81,6.86 26.36,8.47 6.22,0.49 18.31,-10.18 27.21,-10.2 16.33,-0.05 30.47,2.06 41.99,3.03 19.45,16.32 37.71,34 54.64,52.91 -60.54,6.02 -130.47,12.04 -187.61,18.06 -130.09,0.43 -260.18,0.85 -390.28,1.28 -60.69,1.4 -121.38,2.81 -182.07,4.22l-44.3 -8.86c21.15,-25.42 44.62,-48.85 70.1,-69.93z"/>
   <path class="fil27" d="M149.17 162.1c3.89,-0.6 7.86,-1.27 11.31,-1.71 7.22,-0.92 12.15,-0.8 17.79,1.49 5.63,2.3 11.97,6.77 17.42,9.7 5.46,2.93 10.04,4.3 14.79,5.34 4.76,1.03 9.69,1.72 14.79,-0.92 5.1,-2.64 10.39,-8.61 15.08,-12.8 4.7,-4.19 8.8,-6.6 14.32,-6.31 5.52,0.29 12.44,3.27 21.65,7 9.22,3.73 20.72,8.21 27.7,10.85 6.99,2.64 9.45,3.44 13.97,4.01 4.52,0.58 11.09,0.92 16.19,0.35 5.11,-0.58 8.75,-2.07 16.67,-4.71 7.92,-2.64 20.13,-6.42 28.4,-8.49 8.28,-2.07 12.62,-2.41 19.72,-1.55 7.1,0.86 16.96,2.93 25.17,5.97 14.04,5.19 26.52,4.28 37.5,6.89 6.52,1.55 14.73,3.16 28.81,2.92 14.08,-0.24 34.04,-2.33 47.28,-5.1 13.25,-2.77 19.79,2.49 27.06,-1.1 7.26,-3.58 15.25,-7.29 21.27,-8.51 6.02,-1.22 10.08,0.06 15.58,1.47 5.5,1.41 12.44,2.95 19.57,5.51 7.13,2.56 14.47,6.14 19.57,4.67 5.11,-1.47 7.99,-8 11.45,-13.12 3.47,-5.12 7.53,-8.83 10.94,-11.14 3.4,-2.3 6.15,-3.2 10.99,-1.73 4.85,1.48 11.78,5.32 19.7,8.52 7.92,3.2 16.83,5.76 23.37,7.23 6.55,1.47 10.74,1.85 16.62,1.34 5.9,-0.51 13.49,-1.92 18.92,-1.92 5.43,0 8.71,1.41 12.9,2.56 4.19,1.15 9.29,2.05 12.89,1.6 3.6,-0.45 5.7,-2.24 9.17,-2.49 3.46,-0.26 8.31,1.02 13.87,-0.2 5.56,-1.21 11.85,-4.92 17.41,-8.38 5.57,-3.46 10.41,-6.66 14.73,-6.98 4.32,-0.32 8.12,2.24 11.45,2.05 3.34,-0.19 6.22,-3.13 9.62,-4.29 3.41,-1.15 7.34,-0.51 11.46,-0.57 4.12,-0.07 8.45,-0.83 12.57,-1.6 4.12,-0.77 8.05,-1.54 12.56,-0.77 3.01,0.51 6.27,1.7 9.19,2.46 17.14,16.6 33.18,34.33 47.97,53.1 -0.76,0 -1.53,-0.01 -2.31,-0.01 -13.81,0 -29.12,0.64 -42.21,0.97 -13.09,0.32 -23.96,0.32 -32.47,0.83 -8.51,0.51 -14.66,1.53 -22.06,2.88 -7.39,1.34 -16.03,3.01 -23.3,3.84 -7.26,0.83 -13.15,0.83 -17.93,1.98 -4.78,1.15 -8.45,3.46 -15.58,4.99 -7.13,1.54 -17.74,2.31 -24.09,3.08 -6.35,0.76 -8.44,1.53 -12.96,2.94 -4.51,1.41 -11.45,3.46 -20.55,4.54 -9.1,1.09 -20.36,1.22 -28.6,2.37 -8.25,1.16 -13.49,3.33 -17.81,6.04 -4.33,2.71 -7.74,5.96 -14.68,8.9 -6.94,2.95 -17.4,5.59 -35.29,8.2 -17.9,2.61 -43.22,5.19 -80.06,7.28 -36.84,2.09 -85.2,3.7 -134.49,3.07 -49.29,-0.63 -99.53,-3.5 -153.19,-8.36 -53.67,-4.87 -110.78,-11.73 -174.73,-16.79 -2.86,-0.23 -5.73,-0.45 -8.61,-0.67 18.14,-27.46 38.75,-53.15 61.53,-76.72z"/>
   <path class="fil28" d="M269.18 214.49c-5.45,-0.89 -15.41,-0.07 -24.46,-1.75 -9.06,-1.67 -17.22,-5.84 -23.42,-9.53 -6.22,-3.69 -10.48,-6.91 -15.65,-6.55 -5.18,0.36 -11.26,4.28 -17.47,8.04 -6.21,3.75 -12.55,7.32 -18.88,7.74 -6.33,0.41 -12.66,-2.33 -19.36,-5.72 -6.69,-3.39 -13.76,-7.44 -21.3,-7.56 -4.62,-0.07 -9.43,1.33 -14.43,2.89 -16.18,20.47 -30.89,42.15 -43.96,64.9 3.25,0.08 6.47,0.18 9.69,0.29 29.14,1.03 57.09,3.43 82.87,1.94 25.78,-1.48 49.4,-6.86 67.99,-15.6 18.59,-8.75 32.15,-20.87 38.46,-28.23 6.31,-7.36 5.37,-9.96 -0.08,-10.86z"/>
   <path class="fil29" d="M190.19 256.12c10.25,-7.7 28.08,-17.51 45.08,-26.13 16.99,-8.63 33.15,-16.06 44.83,-19.18 11.68,-3.13 18.88,-1.93 26.42,-1.73 7.53,0.2 15.41,-0.6 24.1,-3.59 8.69,-2.99 18.2,-8.16 29.13,-10.56 10.93,-2.39 23.29,-1.99 31.71,0.54 8.42,2.52 12.9,7.17 19.56,10.02 6.65,2.86 15.48,3.92 24.51,5.25 9.03,1.33 18.27,2.92 26.82,6.84 8.56,3.91 16.43,10.16 26.89,14.41 10.46,4.24 23.5,6.5 37.08,8.23 13.58,1.73 27.7,2.92 38.43,1.99 10.73,-0.93 18.06,-3.98 28.31,-7.64 10.26,-3.65 23.43,-7.9 34.57,-6.9 11.13,1 20.23,7.24 33,12.55 12.76,5.31 29.2,9.69 33.68,12.62 4.48,2.92 -2.99,4.38 -12.02,6.44 -9.03,2.05 -19.63,4.71 -29.74,7.83 -10.12,3.12 -19.76,6.71 -28.05,8.63 -8.28,1.93 -15.21,2.19 -22.34,2.59 -7.13,0.4 -14.46,0.93 -25.46,1.53 -11,0.6 -25.67,1.26 -40.74,2.16 -15.07,0.9 -30.54,2.04 -44.26,2.17 -13.71,0.13 -25.67,-0.74 -31.86,0.82 -6.18,1.56 -6.59,5.54 -11.68,8.06 -5.09,2.53 -14.87,3.59 -24.58,3.86 -9.71,0.26 -19.35,-0.27 -27.84,-2 -8.49,-1.72 -15.82,-4.64 -27.03,-6.57 -11.2,-1.93 -26.27,-2.86 -43.18,-1.99 -16.91,0.86 -35.65,3.52 -53.85,4.65 -18.2,1.12 -35.85,0.72 -50.52,0.19 -14.67,-0.53 -26.34,-1.19 -33.61,-3.91 -7.27,-2.73 -10.12,-7.51 -10.21,-12.69 -0.08,-5.19 2.6,-10.78 12.85,-18.49z"/>
   <path class="fil30" d="M71.1 265.5c2.64,0.56 5.91,0.19 10.22,-0.6 7.4,-1.37 17.83,-3.98 28.2,-5.93 10.37,-1.96 20.68,-11.77 27.72,-11.71 7.03,0.06 10.79,1.48 14.31,1.78 3.52,0.3 6.79,-0.53 10.49,0.95 3.7,1.48 7.83,13.78 12.07,16.75 4.25,2.96 8.61,5.1 13.1,9.54 4.49,4.45 6.01,5.59 13.35,17.14 7.34,11.56 34.12,13.84 38.14,18.13 15.35,16.38 11.49,18.2 -20.76,19.56 -12.28,0.51 -54.94,-4.78 -63.64,-3.24 -29.45,5.21 -34.11,8.6 -68.1,7.46 -19.85,-0.66 -26.76,-7.39 -46.48,-6.02 9.07,-22.05 19.55,-43.37 31.38,-63.81z"/>
  </g>
 </g>
</svg>
